<svg xmlns="http://www.w3.org/2000/svg" viewBox="0 0 686 240"><defs><style>.a{fill:#fff;}</style></defs><title>q-bubble</title><path class="a" d="M328.26,204.23c-114-3.86-137.41,1-243.46-28.17C53.73,167.53,21.43,155.17,9,133.78.5,119,3.12,102,12.81,87.56S38.72,61.24,56.86,51.45C118.15,18.36,199.29,8.81,277.06,5.8,377.31,1.92,478.85,7.17,575.48,26c34.17,6.65,69.85,16.06,90.36,36C690,85.51,686,119.42,662.21,143.14s-64,37.92-105.19,43c-15,1.84-174.45,4.69-187.42,10.16-19.31,8.15-27.59,24.24-34.51,39.09-.63-9.43-6.2-21.74-6.83-31.17"/><path d="M328.26,201.23c-46.59-1.56-93.64-.65-140-6.19a565.3,565.3,0,0,1-64.4-12c-27.26-6.53-55.77-12.79-81.06-25.23-10.93-5.38-22-12.26-29.14-22.38C4.85,123,5.27,107.4,12.31,94.22,25.53,69.46,54.49,54.59,79.26,44c54.26-23.27,114.53-30.54,173-34a1421.63,1421.63,0,0,1,195.69,1.83c33,2.62,65.91,6.52,98.58,12,28.91,4.8,58.74,9.72,86,21,23.61,9.77,47.39,27.52,46.63,55.68-.71,26.7-21.9,46.61-43.69,58.84-23.8,13.35-51.83,21.13-78.91,23.94-9.21.95-18.57,1-27.81,1.34-34.54,1.26-69.09,2.24-103.61,3.89-14,.66-28,1.33-42,2.7A92.68,92.68,0,0,0,371,192.78c-7.86,1.83-15.33,7.53-20.87,13.19-7.81,8-13,17.91-17.65,27.91l5.59,1.52c-.95-10.68-5.88-20.52-6.83-31.17-.34-3.81-6.35-3.85-6,0,.95,10.68,5.88,20.52,6.83,31.17.24,2.65,4.21,4.47,5.59,1.51,7.53-16.11,18.59-35.91,38-38.9,12.29-1.89,24.9-2.29,37.3-3,36-2,72.06-3,108.09-4.23,11.16-.39,22.38-.58,33.52-1.45,24-1.86,48.57-8.5,70.52-18.26,23.18-10.3,46.28-26.43,55.89-50.85,9.41-23.91,1.48-49.14-18.28-65-21.29-17.12-49.45-24.38-75.65-30-32.27-6.88-65-11.74-97.79-15.46C421.12,2.08,352.37.18,283.85,2.55c-61,2.11-123.37,7.06-181.63,26.37C75.4,37.81,48,49.76,26.39,68.27,6.53,85.24-8.51,113.47,8.13,138c14.4,21.19,42.19,30.92,65.59,38a777.09,777.09,0,0,0,79.89,19.66c42.88,8.18,86.2,9.24,129.72,10.31q22.46.54,44.93,1.27c3.86.13,3.85-5.87,0-6Z"/></svg>