<svg xmlns="http://www.w3.org/2000/svg" viewBox="0 0 110 110"><defs><style>.a{fill:#f15a24;}.b{fill:#fff;}</style></defs><title>q-number</title><path class="a" d="M57.93,13.87C35.28,32.47,17.3,57.07,5,83.64c-1,2.07-1.84,4.62-.52,6.47,1,1.42,2.93,1.79,4.66,2a404.66,404.66,0,0,0,85.41,3.21c4.36-.3,9.51-1.21,11.3-5.19,1.54-3.46-.32-7.41-2.19-10.7a432.1,432.1,0,0,0-45.69-65.6"/><path d="M55.81,11.75A195,195,0,0,0,16.86,55.89,193.73,193.73,0,0,0,2.37,82.13c-1.31,2.94-2.48,6.53-.52,9.49,2.24,3.37,6.72,3.47,10.31,4a406.25,406.25,0,0,0,68.75,3.48c7.48-.26,19.63,1.11,25.58-4.73,6.83-6.7-.22-16.41-3.92-22.68a442.33,442.33,0,0,0-42.52-59.9c-2.49-3-6.71,1.3-4.24,4.24a434.35,434.35,0,0,1,32,43.22c4.87,7.52,10,15.19,14,23.22,1.34,2.7,2.56,5.86-.3,8.13-1.47,1.17-3.89,1.47-5.68,1.69-4.6.55-9.33.6-14,.77a404.81,404.81,0,0,1-56.36-1.84c-4.9-.51-9.79-1.07-14.66-1.79C8.18,89,6.41,88,7.55,85.16c.83-2,1.91-4,2.89-6A214.64,214.64,0,0,1,23,57.52,189.37,189.37,0,0,1,60.05,16c3-2.47-1.29-6.69-4.24-4.24Z"/><path class="b" d="M56.56,28.87C41.31,41.4,29.19,58,20.87,75.89c-.64,1.39-1.24,3.11-.34,4.36a4.46,4.46,0,0,0,3.13,1.37,272.31,272.31,0,0,0,57.56,2.16c2.93-.2,6.41-.81,7.61-3.5,1-2.32-.22-5-1.47-7.21a291.48,291.48,0,0,0-30.8-44.2"/><path d="M55.5,27.81A132.4,132.4,0,0,0,28.69,58.47C25.22,63.93,21.21,70,19.14,76.22c-1.7,5.1,1.79,6.53,6.23,7.14A274.15,274.15,0,0,0,73.54,85.7c4.56-.18,12.31.62,15.7-3.33s.14-8.82-1.93-12.39A299.12,299.12,0,0,0,57.63,27.81c-1.25-1.48-3.36.65-2.13,2.12A295.77,295.77,0,0,1,82.44,67.62c1.72,2.88,8.33,11.15,2.23,14.1-3,1.46-7.83.84-11.13,1q-12,.48-24-.1-5.76-.28-11.51-.8c-3.84-.35-10.51,0-13.93-1.63-4.09-1.93-.58-6.36,1-9.44s3.16-5.82,4.89-8.64A130,130,0,0,1,57.63,29.93c1.48-1.24-.65-3.35-2.13-2.12Z"/></svg>