<svg xmlns="http://www.w3.org/2000/svg" viewBox="0 0 860 580"><defs><style>.a{fill:#ffbc18;}</style></defs><title>clean-shine</title><path class="a" d="M209.12,135.21c1.56,4.66,1.17,6.37-1.8,10.27a15.37,15.37,0,0,1-12.85,5.91,28.71,28.71,0,0,1,17,17c1-6.28,7.24-15.53,13.06-18.11-7.23-3.45-14.38-7.13-15.42-15.08"/><path d="M207.68,135.61c2.55,8.27-5.37,14.32-13.21,14.28-1.8,0-1.91,2.36-.4,3a27.92,27.92,0,0,1,16,16c.48,1.24,2.56,1.6,2.89,0,1.39-6.78,6.11-14,12.37-17.21a1.51,1.51,0,0,0,0-2.59c-6.47-3.11-13.33-6.42-14.73-14.19-.34-1.89-3.23-1.09-2.89.8,1.53,8.52,8.91,12.52,16.11,16V149c-6.93,3.51-12.22,11.5-13.75,19h2.89a31.25,31.25,0,0,0-18.07-18.07l-.39,2.95c9.78.05,19.24-7.9,16.1-18.08-.57-1.83-3.46-1.05-2.89.8Z"/><path d="M206.8,120.14l-.14,9.26a1.5,1.5,0,0,0,3,0l.14-9.26c0-1.93-3-1.93-3,0Z"/><path d="M179.35,152.33l9.38-.21c1.93-.05,1.93-3.05,0-3l-9.38.21c-1.93,0-1.93,3,0,3Z"/><path d="M228.29,152.66l7.88-.37c1.92-.09,1.93-3.09,0-3l-7.88.37c-1.92.09-1.93,3.09,0,3Z"/><path d="M208.84,174l.41,9c.09,1.92,3.09,1.93,3,0l-.41-9c-.09-1.92-3.09-1.93-3,0Z"/><path class="a" d="M653.61,412c1.56,4.66,1.17,6.37-1.81,10.27A15.36,15.36,0,0,1,639,428.21a28.75,28.75,0,0,1,17,17c1-6.28,7.24-15.53,13.06-18.11-7.24-3.45-14.39-7.13-15.42-15.08"/><path d="M652.16,412.43c2.55,8.27-5.37,14.32-13.21,14.28-1.8,0-1.9,2.36-.4,3a27.92,27.92,0,0,1,16,16c.49,1.24,2.57,1.6,2.89,0,1.39-6.78,6.11-14,12.37-17.21a1.51,1.51,0,0,0,0-2.59c-6.47-3.11-13.33-6.42-14.73-14.19-.34-1.89-3.23-1.09-2.89.8,1.53,8.52,8.91,12.52,16.11,16v-2.59c-6.93,3.51-12.22,11.5-13.75,19h2.89a31.24,31.24,0,0,0-18.06-18.07l-.4,2.95c9.78.05,19.24-7.9,16.1-18.08-.56-1.83-3.46-1.05-2.89.8Z"/><path d="M651.28,397l-.14,9.26a1.5,1.5,0,0,0,3,0l.14-9.26c0-1.93-3-1.93-3,0Z"/><path d="M623.83,429.15l9.38-.21c1.93-.05,1.94-3.05,0-3l-9.38.21c-1.92.05-1.93,3.05,0,3Z"/><path d="M672.77,429.48l7.88-.37c1.92-.09,1.93-3.09,0-3l-7.88.37c-1.92.09-1.93,3.09,0,3Z"/><path d="M653.32,450.82l.42,9c.08,1.92,3.08,1.93,3,0l-.42-9c-.08-1.92-3.08-1.93-3,0Z"/></svg>