<svg xmlns="http://www.w3.org/2000/svg" viewBox="0 0 690 664"><defs><style>.a{fill:#fff;}.b{fill:#f15a24;}.c{stroke:#000;stroke-miterlimit:10;stroke-width:2px;}</style></defs><title>finish</title><path class="a" d="M15.57,12.58c1.25,246.14,2.51,390,3.76,636.11,0,3.38.15,7.09,2.39,9.62s7.38,2.4,8.23-.87c1.73-239.82,3.46-377.4-4.18-617.1-.38-12,1.79-27.46-10.2-27.76"/><path d="M12.57,12.58q.69,135.66,1.58,271.31Q15,410.46,15.72,537q.21,35.36.39,70.7c.07,13,.11,26,.21,39,0,6.62,1,16.9,10,16.35a6.86,6.86,0,0,0,6.33-4.46c.71-2.06.28-4.94.3-7.13,0-3.61,0-7.23.08-10.84q.13-18.69.28-37.38.26-35.21.5-70.39c.56-83.46.9-166.91.1-250.36q-.62-64.06-2.06-128.1-.8-35.61-1.82-71.2-.54-18.93-1.14-37.87c-.26-8.2.68-17.06-1.23-25.1C26.19,13.92,22.1,10,15.57,9.58c-3.85-.27-3.83,5.73,0,6,8.34.58,7.14,12.65,7.15,18.57,0,10.59.53,21.18.84,31.77q1.05,34.9,1.9,69.83Q27,198.29,27.72,260.84c.93,79.25.81,158.51.35,237.76q-.39,66.63-.94,133.25-.06,8.8-.13,17.63c0,1.43.83,6.75-.46,7.51-3.64,2.15-4.17-6.22-4.2-7.57-.28-12-.13-24-.2-35.95Q22,579.25,21.77,545q-.69-121.84-1.51-243.68-.81-126.78-1.5-253.56-.11-17.61-.19-35.22c0-3.86-6-3.87-6,0Z"/><path class="b" d="M9.58,134a80.56,80.56,0,0,1,23.71-2.32l1,12.84L3.68,148.86,6,136.74"/><path d="M10.38,136.9a83.3,83.3,0,0,1,22.91-2.22l-3-3,1,12.84,2.2-2.9L2.88,146l3.69,3.69,2.35-12.12c.73-3.77-5.06-5.38-5.79-1.59L.79,148.06c-.47,2.42,1.37,4,3.69,3.69l30.63-4.34a3,3,0,0,0,2.2-2.89l-1-12.84a3.07,3.07,0,0,0-3-3,89.48,89.48,0,0,0-24.51,2.43c-3.75.9-2.16,6.68,1.6,5.79Z"/><path class="b" d="M9.58,57A80.91,80.91,0,0,1,33.29,54.7l1,12.85L3.68,71.88,6,59.76"/><path d="M10.38,59.92A83.68,83.68,0,0,1,33.29,57.7l-3-3,1,12.85,2.2-2.9L2.88,69l3.69,3.69L8.92,60.56c.73-3.77-5.06-5.39-5.79-1.59L.79,71.09c-.47,2.42,1.37,4,3.69,3.69l30.63-4.34a3,3,0,0,0,2.2-2.89l-1-12.85a3.08,3.08,0,0,0-3-3A89.88,89.88,0,0,0,8.78,54.14c-3.75.9-2.16,6.68,1.6,5.78Z"/><path class="a" d="M659.8,19.47c1.25,246.14,2.5,383.08,3.75,629.22,0,3.38.16,7.09,2.4,9.62s7.38,2.4,8.22-.87c1.73-239.82,2-370.3,1.49-610.31,0-12,0-28.49-15.86-27.66"/><path d="M656.8,19.47q.69,135.12,1.59,270.25.81,126.09,1.59,252.19.19,35.8.39,71.61c.07,12.41-.44,25,.24,37.38.36,6.51,4.75,14.86,12.64,11.54,3.58-1.51,3.92-4.46,4-8q.06-9.8.14-19.61.12-18.45.25-36.9.23-34.63.43-69.27.71-123.78.83-247.57.06-64.24,0-128.49,0-36.14-.1-72.28c0-11.77,0-23.53-.06-35.3,0-6.74-.14-14.21-3.37-20.31s-9-8.4-15.49-8.25c-3.85.08-3.87,6.08,0,6,8.69-.19,11.64,6,12.48,13.79,1,9.11.4,18.5.41,27.64q.07,35.05.11,70.09.08,62.91.06,125.81,0,116.81-.65,233.62-.35,66.37-.81,132.75-.06,8.73-.13,17.44c0,2.62,0,5.25,0,7.87,0,1.14.48,3.74-.24,4.74-1.28,1.77-2.77.19-3.65-1.53-2.21-4.35-.81-12.17-.83-16.9q0-9.25-.1-18.51-.18-35.14-.38-70.28-.69-120.67-1.51-241.34-.82-126-1.52-252.06-.11-18.08-.19-36.13c0-3.86-6-3.87-6,0Z"/><path class="b" d="M661.59,124.7a80.57,80.57,0,0,1,23.71-2.33l1,12.84-30.63,4.34L658,127.43"/><path d="M662.39,127.59a83.68,83.68,0,0,1,22.91-2.22l-3-3,1,12.84,2.2-2.89-30.63,4.34,3.69,3.69,2.35-12.12c.73-3.77-5-5.39-5.79-1.6l-2.34,12.12c-.47,2.43,1.37,4,3.69,3.69l30.63-4.33a3,3,0,0,0,2.2-2.9l-1-12.84a3.08,3.08,0,0,0-3-3,89.87,89.87,0,0,0-24.51,2.43c-3.75.9-2.16,6.69,1.6,5.79Z"/><path class="b" d="M661.59,56.37A80.57,80.57,0,0,1,685.3,54l1,12.84-30.63,4.34L658,59.1"/><path d="M662.39,59.26A83.68,83.68,0,0,1,685.3,57l-3-3,1,12.84,2.2-2.89-30.63,4.34L658.58,72l2.35-12.12c.73-3.77-5-5.39-5.79-1.6L652.8,70.42c-.47,2.43,1.37,4,3.69,3.69l30.63-4.34a3,3,0,0,0,2.2-2.89L688.3,54a3.08,3.08,0,0,0-3-3,89.48,89.48,0,0,0-24.51,2.43c-3.75.9-2.16,6.69,1.6,5.79Z"/><rect class="b" x="25.26" y="3.94" width="637.54" height="157.79"/><path d="M662.81,158.72H35c-2.73,0-5.95-.46-8.65,0a6.61,6.61,0,0,1-1.09,0l3,3V3.94l-3,3H653.07c2.73,0,5.95.46,8.65,0a6.61,6.61,0,0,1,1.09,0l-3-3V161.72c0,3.86,6,3.87,6,0V3.94a3,3,0,0,0-3-3H51.09c-8.21,0-16.54-.43-24.74,0-.36,0-.73,0-1.09,0a3,3,0,0,0-3,3V161.72a3,3,0,0,0,3,3H637c8.2,0,16.54.42,24.74,0h1.09C666.67,164.72,666.67,158.72,662.81,158.72Z"/><path class="a" d="M231,87.18c-1.12.11-3.06.13-3.78,1.09-1.71,2.35.79,20.63-1.29,22.53a3,3,0,0,1-1.8.66c-10.81,1.05-11.35.45-12.36-9.88-.61-6.33-1.39-12.72-2-19a87.09,87.09,0,0,1,0-9.14c0-5.82-1.23-11.85-1.79-17.62-.09-.88-.4-2.47.17-3.25.63-1,15.87-2.26,18.59-2.53,3-.29,6.07,0,9.11-.32,2.64-.25,5.2-1.39,7.85-1.65s2.89,5.63,3.07,7.55c.13,1.36.15,2.33-1.06,3.18-4.48,3-23.29.88-22.67,7.29,1.12,11.53,1.7,9.13,11.55,8.18,1.76-.17,9.41-.51,10.33.61a2.29,2.29,0,0,1,.46,1.41c.2,2,.8,10-1.92,10.22-2.32.22-4.69,0-6.94.18Z"/><path class="a" d="M275.27,86.53c.2,3.13,0,6.69-.09,9.84,0,.32.21,9.51-1.25,10.65a3,3,0,0,1-1.83.52c-2.16.14-11,.71-11.19-2.19-.16-2.49.25-5,.09-7.5-.24-3.7-.72-7.38-1-11.07-.21-3.29,0-6.61-.23-9.91-.41-6.42-1.63-12.88-2-19.3-.66-10.2-.5-10.21,9.38-10.85,1.13-.07,3-.19,3.9.4,1.6,1,2,8,2.08,9.86.22,3.46-.51,7.05-.29,10.51.24,3.69,1.67,7.23,1.91,10.92Z"/><path class="a" d="M299.39,64.59c-.17,3.06,2.09,6.55,2.56,9.68a85.13,85.13,0,0,1,1,11c.07,3.22-.25,6.68-.49,9.91-.11,2.1.58,10.77-3.29,10.87-2.41,0-10.53.41-10.61-2.81-.06-2.74.43-5.49.37-8.22-.07-3.06-.47-6.11-.54-9.17-.08-3.54.56-7,.47-10.55s-1-6.82-1.12-10.28.56-6.7.48-10.08c-.06-2.41-.59-4.73-.65-7.07-.07-3.05,4.86-2.28,6.79-2.33.8,0,7.16-.25,8.47.68,1.47,1.1,3.28,5.88,4.29,7.71,2,3.58,4.27,7,6.21,10.64,1.34,2.47,2.13,5.1,3.32,7.65,1.27,2.71,2.86,5.17,4.21,7.87.42.88,2.65,6.46,3.87,7.24l.07-.49a84.09,84.09,0,0,0-2.31-16.13c-.37-1.84-1-3.84-1.18-5.68-.33-3.46-.25-7-.33-10.46-.06-2.41-.44-4.9-.5-7.32-.09-3.78,4.68-3,7.34-3.07,4.9-.11,7.45-1.3,7.59,4.57.12,5.15.17,10.54.05,15.7-.08,3.3-.57,6.62-.49,9.91s.88,6.66,1.12,10c.33,3.53.41,7.07.5,10.61.26,11.19.05,9-10.89,9.28-1.05,0-2.81.31-3.72-.4-4.83-3.5-19.26-38.34-22-40.29l-.32.17-.31.49Z"/><path class="a" d="M365.41,85.12c-.06,3.14-.62,6.67-.92,9.8,0,.32-.59,9.49-2.14,10.5a3,3,0,0,1-1.86.37c-2.17,0-11-.22-11-3.12.05-2.49.66-5,.71-7.47.08-3.7-.09-7.41,0-11.11.07-3.3.54-6.59.6-9.89.13-6.44-.54-13-.42-19.41.21-10.22.37-10.22,10.27-10,1.12,0,3,.06,3.85.72,1.5,1.16,1.28,8.16,1.25,10-.07,3.46-1.11,7-1.18,10.44-.07,3.7,1.06,7.35,1,11Z"/><path class="a" d="M395,108.05c-2.81-.18-19.51-7.9-19.39-9.75.08-1.37,6.84-9,8.21-8.93,1,.06,5.1,4.83,11.53,5.23,1.69.1,7.54-3.25,7.95-4.75-.16-1.3-1.61-2.68-2.52-3.55-1.14-1.11-2.36-2.32-3.58-3.36-1.69-1.4-4.07-2-6-3-5.79-2.94-9.55-6.08-11.67-12.26-.54-1.64-1.44-4-1.33-5.8.08-1.29,1.07-3,1.63-4.18a14.58,14.58,0,0,1,2.43-4.2c3.87-3.8,14.4-8.47,19.78-8.14A23.4,23.4,0,0,1,416.2,51c.84.69,3.16,2.37,3.09,3.49-.12,1.85-6.39,8.08-8.4,7.95-3.05-.19-6.78-3.72-10-3.92-1.28-.08-6.68,2.41-6.75,3.61-.23,3.7,21.15,15.34,23.55,18.31,1.19,1.53,2.74,7.83,2.61,9.84-.36,6-7.87,13.87-13.08,16-2.82,1.2-10.19.42-11.72,1.77Z"/><path class="a" d="M478.67,92.54c-.5,3.92-.67,7.79-1.17,11.7-1.51,11.81-1.81,10.32-13.22,8.85-2-.25-2.86-.52-2.57-2.76.59-4.63,1.42-9.23,2-13.94.25-2,.91-3.94,1.16-5.93.3-2.32-8.8-2.27-10.55-2.49-2.32-.3-4.5-1-6.82-1.28-2.79-.36-2.5,6.25-2.75,7.6-.51,2.69-1.1,5.38-1.68,8s-.83,9.06-4.66,8.57c-1.6-.2-9.44-1.69-10.28-2.78a2.1,2.1,0,0,1-.36-1.58c.31-2.48,1.6-4.91,1.92-7.39.47-3.67,0-7.37.52-11,.38-3,1.62-5.72,2-8.67.45-3.52-.06-7.15.4-10.75s2.95-18.6,4.83-19.34a3.61,3.61,0,0,1,1.64-.11,38.34,38.34,0,0,1,4.41,1c7.86,2,6.79,2.73,5.8,10.48-.5,3.91-2.1,7.52-2.59,11.35a1.58,1.58,0,0,0,1.45,2c2.56.33,5.23.35,7.8.6,2.4.22,5,.72,7.45.71a2.72,2.72,0,0,0,1.61-.53c1.73-1.48,3.47-13.75,3.76-16.07.57-4.47.3-5.48,5.25-4.85,1.43.19,7.34,1,8.2,1.87.64.65.44,1.59.33,2.47-.3,2.32-1,4.5-1.28,6.82-.42,3.27.11,6.75-.39,10Z"/><path class="b" d="M160.38,84c8.58-3.82,20.11-6.23,29.41-7.5,1.91,5.53,5.92,9.51.38,11.4s-21.35,3.54-26,7A50.76,50.76,0,0,1,160.38,84"/><path class="b" d="M161.14,85.24c9.2-3.95,19.17-5.95,29-7.35l-1.84-1c1.24,3.26,4.88,7.81.72,9.78-2.55,1.22-6.13,1.4-8.88,1.94-5.52,1.09-12,1.82-16.81,5l2,.54a55.9,55.9,0,0,1-3.59-10.58c-.44-1.88-3.33-1.09-2.89.79a60.12,60.12,0,0,0,3.89,11.3,1.51,1.51,0,0,0,2,.54c6.52-4.34,15.86-4.36,23.29-6.21,2.21-.55,5-1.21,6-3.52,1.36-3.22-1.88-7.63-2.94-10.4a1.57,1.57,0,0,0-1.84-1c-10.17,1.44-20.29,3.59-29.76,7.65-1.77.76-.24,3.34,1.51,2.59Z"/><path class="b" d="M499.11,80.26c9.25,1.55,20.2,5.92,28.65,10-1.45,5.67-.31,11.2-6,9.72s-19.76-8.84-25.6-8.52a50.39,50.39,0,0,1,2.92-11.19"/><path class="b" d="M498.71,81.71c9.87,1.8,19.27,5.54,28.3,9.83l-.69-1.69c-.76,3.37-.08,8.74-4.88,8.46-2.62-.16-5.91-2.23-8.3-3.22C507.86,92.92,502,89.94,496.19,90l1.44,1.9a58.52,58.52,0,0,1,2.93-11.19c.67-1.81-2.23-2.59-2.9-.79a58.21,58.21,0,0,0-2.92,11.18,1.53,1.53,0,0,0,1.45,1.9c8.19,0,16,5.57,23.62,8,8.2,2.59,8-4.06,9.4-10.28a1.53,1.53,0,0,0-.69-1.7c-9.26-4.4-18.89-8.29-29-10.13-1.89-.35-2.7,2.54-.8,2.89Z"/><rect class="c" x="23.5" y="4.03" width="31.68" height="31.68"/><rect class="c" x="55.72" y="36.07" width="31.68" height="31.68"/><rect class="c" x="23.5" y="67.67" width="31.68" height="31.68"/><rect class="c" x="55.72" y="99.71" width="31.68" height="31.68"/><rect class="c" x="23.5" y="131.07" width="31.68" height="31.68"/><rect class="c" x="632.27" y="4.03" width="31.68" height="31.68" transform="translate(1296.21 39.74) rotate(-180)"/><rect class="c" x="600.05" y="36.07" width="31.68" height="31.68" transform="translate(1231.78 103.83) rotate(-180)"/><rect class="c" x="632.27" y="67.67" width="31.68" height="31.68" transform="translate(1296.21 167.02) rotate(-180)"/><rect class="c" x="600.05" y="99.71" width="31.68" height="31.68" transform="translate(1231.78 231.11) rotate(-180)"/><rect class="c" x="632.27" y="131.07" width="31.68" height="31.68" transform="translate(1296.21 293.82) rotate(-180)"/></svg>