<svg xmlns="http://www.w3.org/2000/svg" viewBox="0 0 690 664"><defs><style>.a{fill:#fff;}.b{fill:#f15a24;}</style></defs><title>start</title><path class="a" d="M15.57,12.58c1.25,246.14,2.51,390,3.76,636.11,0,3.38.15,7.09,2.39,9.62s7.38,2.4,8.23-.87c1.73-239.82,3.46-377.4-4.18-617.1-.38-12,1.79-27.46-10.2-27.76"/><path d="M12.57,12.58q.69,135.66,1.58,271.31Q15,410.46,15.72,537q.21,35.36.39,70.7c.07,13,.11,26,.21,39,0,6.62,1,16.9,10,16.35a6.86,6.86,0,0,0,6.33-4.46c.71-2.06.28-4.94.3-7.13,0-3.61,0-7.23.08-10.84q.13-18.69.28-37.38.26-35.21.5-70.39c.56-83.46.9-166.91.1-250.36q-.62-64.06-2.06-128.1-.8-35.61-1.82-71.2-.54-18.93-1.14-37.87c-.26-8.2.68-17.06-1.23-25.1C26.19,13.92,22.1,10,15.57,9.58c-3.85-.27-3.83,5.73,0,6,8.34.58,7.14,12.65,7.15,18.57,0,10.59.53,21.18.84,31.77q1.05,34.9,1.9,69.83Q27,198.29,27.72,260.84c.93,79.25.81,158.51.35,237.76q-.39,66.63-.94,133.25-.06,8.8-.13,17.63c0,1.43.83,6.75-.46,7.51-3.64,2.15-4.17-6.22-4.2-7.57-.28-12-.13-24-.2-35.95Q22,579.25,21.77,545q-.69-121.84-1.51-243.68-.81-126.78-1.5-253.56-.11-17.61-.19-35.22c0-3.86-6-3.87-6,0Z"/><path class="b" d="M9.58,134a80.56,80.56,0,0,1,23.71-2.32l1,12.84L3.68,148.86,6,136.74"/><path d="M10.38,136.9a83.3,83.3,0,0,1,22.91-2.22l-3-3,1,12.84,2.2-2.9L2.88,146l3.69,3.69,2.35-12.12c.73-3.77-5.06-5.38-5.79-1.59L.79,148.06c-.47,2.42,1.37,4,3.69,3.69l30.63-4.34a3,3,0,0,0,2.2-2.89l-1-12.84a3.07,3.07,0,0,0-3-3,89.48,89.48,0,0,0-24.51,2.43c-3.75.9-2.16,6.68,1.6,5.79Z"/><path class="b" d="M9.58,57A80.91,80.91,0,0,1,33.29,54.7l1,12.85L3.68,71.88,6,59.76"/><path d="M10.38,59.92A83.68,83.68,0,0,1,33.29,57.7l-3-3,1,12.85,2.2-2.9L2.88,69l3.69,3.69L8.92,60.56c.73-3.77-5.06-5.39-5.79-1.59L.79,71.09c-.47,2.42,1.37,4,3.69,3.69l30.63-4.34a3,3,0,0,0,2.2-2.89l-1-12.85a3.08,3.08,0,0,0-3-3A89.88,89.88,0,0,0,8.78,54.14c-3.75.9-2.16,6.68,1.6,5.78Z"/><path class="a" d="M659.8,19.47c1.25,246.14,2.5,383.08,3.75,629.22,0,3.38.16,7.09,2.4,9.62s7.38,2.4,8.22-.87c1.73-239.82,2-370.3,1.49-610.31,0-12,0-28.49-15.86-27.66"/><path d="M656.8,19.47q.69,135.12,1.59,270.25.81,126.09,1.59,252.19.19,35.8.39,71.61c.07,12.41-.44,25,.24,37.38.36,6.51,4.75,14.86,12.64,11.54,3.58-1.51,3.92-4.46,4-8q.06-9.8.14-19.61.12-18.45.25-36.9.23-34.63.43-69.27.71-123.78.83-247.57.06-64.24,0-128.49,0-36.14-.1-72.28c0-11.77,0-23.53-.06-35.3,0-6.74-.14-14.21-3.37-20.31s-9-8.4-15.49-8.25c-3.85.08-3.87,6.08,0,6,8.69-.19,11.64,6,12.48,13.79,1,9.11.4,18.5.41,27.64q.07,35.05.11,70.09.08,62.91.06,125.81,0,116.81-.65,233.62-.35,66.37-.81,132.75-.06,8.73-.13,17.44c0,2.62,0,5.25,0,7.87,0,1.14.48,3.74-.24,4.74-1.28,1.77-2.77.19-3.65-1.53-2.21-4.35-.81-12.17-.83-16.9q0-9.25-.1-18.51-.18-35.14-.38-70.28-.69-120.67-1.51-241.34-.82-126-1.52-252.06-.11-18.08-.19-36.13c0-3.86-6-3.87-6,0Z"/><path class="b" d="M661.59,124.7a80.57,80.57,0,0,1,23.71-2.33l1,12.84-30.63,4.34L658,127.43"/><path d="M662.39,127.59a83.68,83.68,0,0,1,22.91-2.22l-3-3,1,12.84,2.2-2.89-30.63,4.34,3.69,3.69,2.35-12.12c.73-3.77-5-5.39-5.79-1.6l-2.34,12.12c-.47,2.43,1.37,4,3.69,3.69l30.63-4.33a3,3,0,0,0,2.2-2.9l-1-12.84a3.08,3.08,0,0,0-3-3,89.87,89.87,0,0,0-24.51,2.43c-3.75.9-2.16,6.69,1.6,5.79Z"/><path class="b" d="M661.59,56.37A80.57,80.57,0,0,1,685.3,54l1,12.84-30.63,4.34L658,59.1"/><path d="M662.39,59.26A83.68,83.68,0,0,1,685.3,57l-3-3,1,12.84,2.2-2.89-30.63,4.34L658.58,72l2.35-12.12c.73-3.77-5-5.39-5.79-1.6L652.8,70.42c-.47,2.43,1.37,4,3.69,3.69l30.63-4.34a3,3,0,0,0,2.2-2.89L688.3,54a3.08,3.08,0,0,0-3-3,89.48,89.48,0,0,0-24.51,2.43c-3.75.9-2.16,6.69,1.6,5.79Z"/><rect class="b" x="25.26" y="3.94" width="637.54" height="157.79"/><path d="M662.81,158.72H35c-2.73,0-5.95-.46-8.65,0a6.61,6.61,0,0,1-1.09,0l3,3V3.94l-3,3H653.07c2.73,0,5.95.46,8.65,0a6.61,6.61,0,0,1,1.09,0l-3-3V161.72c0,3.86,6,3.87,6,0V3.94a3,3,0,0,0-3-3H51.09c-8.21,0-16.54-.43-24.74,0-.36,0-.73,0-1.09,0a3,3,0,0,0-3,3V161.72a3,3,0,0,0,3,3H637c8.2,0,16.54.42,24.74,0h1.09C666.67,164.72,666.67,158.72,662.81,158.72Z"/><rect class="a" x="40.9" y="19.44" width="606.27" height="126.79"/><path d="M647.17,143.22H50c-2.52,0-5.56-.46-8,0a6.14,6.14,0,0,1-1.05,0l3,3V19.44l-3,3H638.06c2.53,0,5.57.46,8.06,0a6.14,6.14,0,0,1,1,0l-3-3V146.22c0,3.86,6,3.87,6,0V19.44a3,3,0,0,0-3-3H65.76c-7.9,0-15.93-.43-23.81,0-.35,0-.7,0-1.05,0a3,3,0,0,0-3,3V146.22a3,3,0,0,0,3,3H622.31c7.89,0,15.92.43,23.81,0,.35,0,.7,0,1,0C651,149.22,651,143.22,647.17,143.22Z"/><path class="b" d="M240.26,111.57c-2.81.27-20.51-4.74-20.69-6.59-.13-1.36,5.36-10,6.72-10.1,1-.1,5.8,4,12.2,3.36,1.69-.16,6.94-4.38,7.12-5.94-.37-1.26-2-2.39-3.05-3.1-1.3-.93-2.69-1.93-4.06-2.77-1.89-1.11-4.34-1.36-6.43-2.05-6.17-2-10.37-4.5-13.43-10.27-.8-1.55-2.06-3.77-2.23-5.53-.12-1.28.59-3.13,1-4.38a14.8,14.8,0,0,1,1.75-4.53c3.23-4.35,12.89-10.62,18.26-11.13a23.39,23.39,0,0,1,14.88,3.34c.94.56,3.49,1.85,3.6,3,.17,1.85-5,9-7,9.17-3,.29-7.28-2.62-10.49-2.31-1.28.12-6.22,3.43-6.11,4.63.36,3.68,23.29,11.84,26.13,14.39,1.42,1.32,3.93,7.31,4.12,9.31C263,96,256.85,105,252,107.94c-2.6,1.62-10,2-11.3,3.59Z"/><path class="b" d="M298.76,86.6c.16,3.05-.16,6.37-.24,9.44,0,.16.07,9.26-1.41,10.22a3.48,3.48,0,0,1-1.75.5,42.89,42.89,0,0,1-8.48-.45c-4-.68-3.32-6.52-3.48-9.58-.3-5.78-.75-11.56-1-17.35-.24-4.58.58-9.14.34-13.72-.45-8.76.12-7.18-8.73-6.72-2.73.14-8.77,1.74-9-2.2-.1-2.09-.31-9.17,2.51-9.32,2.25-.11,4.6.09,6.85,0,3.77-.19,7.5-1.43,11.2-1.62l8.28-.43c4.42-.22,8.85-.13,13.28-.2,1,0,3.14-.16,3.83.77,1,1.32,1.48,6.78,1.57,8.55.17,3.29-2.37,2.46-4.7,2.58-1.61.08-9.34.31-10.23,1.73-.68,1-.72,3.18-.74,4.39-.08,1.62-.31,3.4-.23,5,.18,3.54,1.57,6.93,1.75,10.55Z"/><path class="b" d="M337.07,91.38c-4.42,1.86-3.26,13.53-9.22,13.55-1.61,0-10.14-.22-10.15-2.31,0-2.82,3.67-11.44,4.87-15.39s1.26-8.13,2.22-12.08a223.22,223.22,0,0,1,8-25.86c.63-1.69,1.59-4.91,3.84-4.92s13.69,0,14.74.93,2.11,7.48,2.68,9.25c1.14,3.37,2.84,6.59,4.13,10s2.28,7,3.25,10.54c1.87,6.92,8.68,21.79,8.69,27.91,0,2.57-10.37,1.63-10.94,1.64-1.12,0-2.41.16-3.22-.8-1.45-1.77-1.88-10-3.65-11.82-1.38-1.37-7.34-1.75-9.35-1.75A29.45,29.45,0,0,0,337.07,91.38Zm9.3-11.7c.89,0,2.26,0,2.66-1a11.29,11.29,0,0,0-.41-2.74c-1-3.38-2.68-6.59-3.57-10-.74-2.73-.82-5.71-1.88-8.28-.56,1.12-6.62,20.78-6.62,21.18,0,.81,1.69.8,2.26.8Z"/><path class="b" d="M408.26,106.32c-3.65-2.7-7.33-18.29-9.39-20.49-.91-1-4.58-1.7-5.95-1.77-1-.06-1.4.57-1.45,1.53-.17,3.3.53,6.64.35,10-.1,1.92-1.23,9.52-2.65,10.49a3.06,3.06,0,0,1-1.71.31c-2.33-.12-11-.59-10.84-3.8.18-3.38.76-6.65.94-10,.12-2.26,0-4.52.12-6.77.19-3.54.69-6.89.64-10.44,0-3.31-.45-6.72-.67-10-.31-4.85.37-11.59.65-16.81.06-1,0-2.66.82-3.26,1.59-1.13,10.9-.31,11.46-.28,3.54.19,7.22.63,10.75,1.06,7.77.9,12.85,2.22,18.27,7.91a11.32,11.32,0,0,1,2.57,3.28,24.06,24.06,0,0,1,1,4.73,18.8,18.8,0,0,1,.58,4.23,18.14,18.14,0,0,1-1.66,5.39A18.2,18.2,0,0,1,420,76.16c-1.57,2.09-6.38,4.66-6.51,7.07-.17,3.21,10.39,22.72,10.34,23.68-.59.53-10.65.24-12.9.12A4.72,4.72,0,0,1,408.26,106.32ZM406.8,71.74c1.08-.5,2.84-4.84,2.91-6s-1.82-5.17-2.83-5.87c-1.17-.79-11.16-2.45-13-2.55a1.45,1.45,0,0,0-1,.35,2.51,2.51,0,0,0-.3,1.11c-.19,3.46.11,7,.08,10.48,0,4.6.07,4.68,5,5C398.77,74.22,406.12,72.43,406.8,71.74Z"/><path class="b" d="M460.9,92.41c-.35,3-1.21,6.26-1.8,9.27,0,.16-1.46,9.15-3.08,9.85a3.58,3.58,0,0,1-1.81.2,42.5,42.5,0,0,1-8.29-1.85c-3.82-1.33-2.19-7-1.84-10,.66-5.75,1.17-11.53,1.83-17.28.53-4.56,2.09-8.92,2.61-13.48,1-8.71,1.3-7.06-7.49-8.07-2.72-.32-8.94.26-8.49-3.66.24-2.08,1.21-9.09,4-8.77,2.24.26,4.52.85,6.76,1.1,3.76.44,7.63-.17,11.31.26l8.24.95c4.39.51,8.76,1.33,13.13,2,1,.12,3.12.36,3.65,1.39.8,1.47.34,6.93.13,8.69-.38,3.28-2.74,2-5.06,1.76-1.6-.18-9.26-1.23-10.37,0-.84.88-1.24,3-1.46,4.21a49.15,49.15,0,0,0-1.05,4.9c-.41,3.52.39,7.09,0,10.69Z"/><path class="b" d="M169.37,84c8.57-3.82,20.1-6.23,29.4-7.5,1.91,5.53,5.93,9.51.39,11.4s-21.36,3.54-26,7A50.22,50.22,0,0,1,169.37,84"/><path class="b" d="M170.12,85.24c9.2-3.95,19.17-5.95,29-7.35l-1.85-1c1.25,3.26,4.88,7.81.72,9.78-2.55,1.22-6.13,1.4-8.88,1.94-5.52,1.09-12,1.82-16.81,5l2.05.54a57.34,57.34,0,0,1-3.59-10.58c-.44-1.88-3.33-1.09-2.89.79a60.12,60.12,0,0,0,3.89,11.3,1.51,1.51,0,0,0,2.05.54c6.52-4.34,15.87-4.36,23.29-6.21,2.21-.55,5-1.21,6-3.52,1.36-3.22-1.88-7.63-2.94-10.4a1.56,1.56,0,0,0-1.84-1c-10.17,1.44-20.29,3.59-29.76,7.65-1.77.76-.24,3.34,1.51,2.59Z"/><path class="b" d="M508.09,80.26c9.26,1.55,20.2,5.92,28.65,10-1.45,5.67-.31,11.2-6,9.72s-19.76-8.84-25.6-8.52a50.39,50.39,0,0,1,2.92-11.19"/><path class="b" d="M507.69,81.71c9.87,1.8,19.27,5.54,28.3,9.83l-.69-1.69c-.76,3.37-.08,8.74-4.88,8.46-2.61-.16-5.91-2.23-8.3-3.22C516.84,92.92,511,89.94,505.17,90l1.45,1.9a57.77,57.77,0,0,1,2.92-11.19c.67-1.81-2.23-2.59-2.89-.79a57.51,57.51,0,0,0-2.93,11.18,1.53,1.53,0,0,0,1.45,1.9c8.19,0,16,5.57,23.62,8,8.21,2.59,8-4.06,9.4-10.28a1.53,1.53,0,0,0-.69-1.7c-9.25-4.4-18.89-8.29-29-10.13-1.89-.35-2.7,2.54-.8,2.89Z"/></svg>