<svg xmlns="http://www.w3.org/2000/svg" viewBox="0 0 225 70"><defs><style>.a{fill:#fff;}.b{fill:#f15a24;}</style></defs><title>small-logo</title><path d="M72,34.15c-.84,0-2.44-.1-3.14-1.47-.54,0-1.12.06-1.74.12A21.93,21.93,0,0,1,65,33a2.48,2.48,0,0,1-1.79-.76,4.38,4.38,0,0,1-.87-3.25V28.8a2.74,2.74,0,0,1,.83-2.06,2.51,2.51,0,0,1,.86-.53.22.22,0,0,1,0-.08c0-.14,0-.34-.08-.56L63.82,25a5.14,5.14,0,0,1,0-.66,2.76,2.76,0,0,1-.71-.5l-.35-.35L62.54,23a4.26,4.26,0,0,1-.21-1.6v-.22a3.52,3.52,0,0,1,.59-2.3l.09-.1A2.63,2.63,0,0,1,64.56,18v-.11a13.76,13.76,0,0,1,.15-1.79c0-.29.08-.58.1-.87a7.5,7.5,0,0,0,0-.81c0-.25,0-.49,0-.74a2.65,2.65,0,0,1,.78-1.88,4.25,4.25,0,0,1,3.11-1,10.93,10.93,0,0,1,1.41.11,6.49,6.49,0,0,0,.81.07l.82,0a24.64,24.64,0,0,1,2.58,0,30.62,30.62,0,0,0,3.32,0c.73,0,1.49-.07,2.26-.07,2,0,3,1,3,3,0,1.71,0,3-.06,3.9a3,3,0,0,1,1.52.81,3.84,3.84,0,0,1,.89,3v.16a2.58,2.58,0,0,1-.83,1.91l-.07.06a6.87,6.87,0,0,1-1.16,3.31,2.51,2.51,0,0,1,2,1.9l.09.44-.09.44s-1,3.86-3.6,3.86a8.05,8.05,0,0,1-3.31-1,5.4,5.4,0,0,1-3.07,1.27,2.38,2.38,0,0,1-.73-.11,5.12,5.12,0,0,1-2,.33H72ZM68.6,27.76a1.6,1.6,0,0,0,.09.54h.18l0-.24v.24h.17L69,28h-.18l-.08.08V28h-.08l.08-.08v-.14Zm1.78.29.43.12c0-.05,0-.11,0-.19h-.41Zm-4.94-5.78Z"/><path d="M99.43,34a2.82,2.82,0,0,1-1.13-.22c-1-.41-1.46-1.33-1.9-2.68a10,10,0,0,1-.49-2h-.27a2.88,2.88,0,0,1-.43.56c-.81.79-2,.93-3.86.9h-.11a2.86,2.86,0,0,1-2.17-.87,3.17,3.17,0,0,1-.73-2.52,2.09,2.09,0,0,0,0-.25,9.59,9.59,0,0,1,.14-1.51,8.15,8.15,0,0,0,.09-.86,8.33,8.33,0,0,0-.08-.89c0-.3-.08-.61-.1-.95-.05-.75-.05-1.48-.05-2.18V19.26a4.55,4.55,0,0,1,.05-.75,2.72,2.72,0,0,1-.63-.47c-.79-.79-.84-1.89-.83-3.62v-.13a2.58,2.58,0,0,1,2.58-2.75,8.19,8.19,0,0,1,1.06.08c.21,0,.41.05.56.05a7.42,7.42,0,0,0,1.12-.13,12.48,12.48,0,0,1,1.85-.18,14.72,14.72,0,0,1,2,.16c.38,0,.74.09,1.09.11.79,0,1.64.08,2.62.08h.42c.35,0,.68,0,1,0a5.54,5.54,0,0,0,.67-.08,9.83,9.83,0,0,1,1.42-.13,12,12,0,0,1,1.43.12,6,6,0,0,0,.85.09c.24,0,.47,0,.71,0s.63,0,.95,0a2.55,2.55,0,0,1,2.56,2.66v.1c0,1.78-.16,3.05-1,3.91a2.43,2.43,0,0,1-1.42.72,3.49,3.49,0,0,0,0,.52c0,.28.06.55.07.82,0,.46,0,.92,0,1.39,0,1.17.08,2.38.08,3.45a18.22,18.22,0,0,1-.34,3.17v.11a4.62,4.62,0,0,0-.06.63,4.28,4.28,0,0,1-1.18,3l-.11.13a3.16,3.16,0,0,1-2.26,1.28h-.05a8.62,8.62,0,0,1-1,0,4.17,4.17,0,0,0-.56,0H102c-.21,0-.42.06-.64.1a10.27,10.27,0,0,1-1.75.2Zm-8.19-7.86h0Zm3.27-3.35a2.1,2.1,0,0,0,.52.6,1.82,1.82,0,0,0,.58-.81,1.69,1.69,0,0,0-.52-.51A1.82,1.82,0,0,0,94.51,22.74Zm4.16-2.11Zm6.74-6.34h0Zm-14.08,0h0Z"/><path d="M116.62,34.05h-.49a2.93,2.93,0,0,1-1.37-.3l-.06,0c-.73-.4-1.47-1.16-1.47-3.81a8.27,8.27,0,0,1,.12-1.32,5.26,5.26,0,0,0,.08-.66c0-.58-.05-1.18-.1-1.81s-.09-1.16-.1-1.78c-1.16-.41-2.51-1.25-2.51-2.8a3.62,3.62,0,0,1,.34-1.39,9.42,9.42,0,0,0,.45-2.16c.06-.51.14-1,.25-1.6a2.81,2.81,0,0,1,.52-1.14l.41-.55.66-.22.08,0v-.1c0-.54-.11-1.1-.11-1.71a2.53,2.53,0,0,1,2.24-2.55v0h0l.33,0a5,5,0,0,1,3.78,1.14,3.85,3.85,0,0,1,1,2.74,7.15,7.15,0,0,1,1.78-.11,5.3,5.3,0,0,1,.92-2.74l.29-.34.41-.21a3,3,0,0,1,1.21-.29s3.08.25,4,.86l.48.32L130,12a2.8,2.8,0,0,1,.29,1.25c0,.17,0,.35,0,.52h.12a4,4,0,0,1,2.91,1,4.2,4.2,0,0,1,.86,3.37c0,.27,0,.57,0,.9a20.7,20.7,0,0,1-.18,2.43,19.53,19.53,0,0,0-.15,2,7.86,7.86,0,0,0,.13,1.05,9.85,9.85,0,0,1,.2,1.83c0,.51,0,1-.09,1.45a9.9,9.9,0,0,0-.07,1v.45c0,.68,0,1.37-.05,2.09l0,.18a2.49,2.49,0,0,1-1.22,1.84c-.61.36-1.37.46-3.29.46h0a3.07,3.07,0,0,1-1.71-.42l-.12-.08h0c-.67,0-1.33-.05-1.91-.1l-.58-.05a3.88,3.88,0,0,1-2.74.71h-.38a3,3,0,0,1-2.38-.74l0,0A3.93,3.93,0,0,1,116.62,34.05ZM131,29.36Z"/><path d="M150.05,33.85a2.88,2.88,0,0,1-1.68-.49,2.81,2.81,0,0,1-1.1-1.94,3.88,3.88,0,0,1-2.35.42c-.43,0-1,0-1.64,0h-.06a2.53,2.53,0,0,1-2.46,1.63s-2.44-.06-3.46-.83a3.14,3.14,0,0,1-1.13-2.38,26.39,26.39,0,0,1-.15-2.88,9.79,9.79,0,0,1,.12-1.42,7.18,7.18,0,0,0,.08-.83c0-.52-.05-1.07-.1-1.65s-.12-1.31-.12-2a8.38,8.38,0,0,1,.15-1.43,4.77,4.77,0,0,0,.09-.73c0-.42,0-.87-.08-1.34s-.1-1.11-.1-1.7c0-.88.37-2.3,2.7-2.58a5.21,5.21,0,0,1,.86-2.59l.5-.61,1.47-.29.46.13.26,0c1.16.2,3.86.65,3.87,3.07l.29-.74.22-.53a2.68,2.68,0,0,1,2.7-1.71c2.55,0,4.13,1.07,4.13,2.79v.23c.28,0,.59,0,.91,0,.15,0,.35,0,.56,0a4.64,4.64,0,0,1,1.85,0l.59.14.43.43a2.62,2.62,0,0,1,.75,2v1c0,1.92,0,3.91-.09,5.87a16.29,16.29,0,0,1-.21,1.85c-.06.38-.11.75-.14,1.09,0,.14,0,.34,0,.55a8.1,8.1,0,0,1,0,1.18A13.06,13.06,0,0,1,157,31.46a4.48,4.48,0,0,1-1.65,1.3l-.15.08a7.28,7.28,0,0,1-4.39,1h-.74Zm-7.78-8.55.21.16,0,0-.2-.17A.1.1,0,0,0,142.27,25.3Zm7.5-1Zm-6.51-3.69Zm-1.55-1.06a1.85,1.85,0,0,0,.79.84l.1-.06-.84-.84Zm.51-.39a1.61,1.61,0,0,0-.38.26l.81.89a1.69,1.69,0,0,0,.43-.35A2,2,0,0,0,142.22,19.14Z"/><path class="a" d="M80.1,22.78a.45.45,0,0,1,.2-.09c.37,0,1.82.62,1.82,1,0,1.49-2.11,3.86-2.11,4.47.43.66,2.9.9,3,1.21-.1.49-.91,2.12-1.45,2.12-1,0-3.2-1.35-3.55-1.35s-1.83,1.58-2.83,1.58c-.41,0-.94-1.11-1.25-1.41-.53,1.28.47,1.63-1.51,1.63C72,32,71,32,70.83,31.63c0-1.4-.24-1.14-1.86-1.14-1.34,0-2.69.27-4,.27-.59,0-.47-1.53-.47-2,0-1,.92-.27,1.35-.7a7.89,7.89,0,0,0,.35-1.94A12,12,0,0,0,66,24.71a9.82,9.82,0,0,1,0-1.63,1.57,1.57,0,0,0-.06-.65c-.18-.18-.83,0-1.08,0a.32.32,0,0,1-.22-.1,2.73,2.73,0,0,1-.08-1,2.41,2.41,0,0,1,.12-1c.3-.35,3-.23,3.12-.23,1,0,2-.16,3-.16.67,0,1.35.22,2,.22.94,0,1.86-.24,2.84-.24s2.12.14,3.18.14c.84,0,1.65-.14,2.49-.14,1.76,0,1.69.26,1.69,1.92,0,.73-1.44.45-2,.45-1.23,0-2.45.22-3.68.22-.67,0-1.32-.08-2-.08-.3,0-1.26,0-1.43.28a31.46,31.46,0,0,0-.3,4.31v1.43a1.09,1.09,0,0,0,.14.71.15.15,0,0,0,.1,0c.29,0,2-.79,2-1-.2-.59-1.49-1.94-1.45-2.39v-.06a9.77,9.77,0,0,1,1.29-.57c-.53-.06-1.82.14-1.82-.59,0-.43-.06-1.73.55-1.73s1.07.08,1.6.08c.69,0,1.38-.15,2.08-.15s1.2.11,1.79.11Zm-2.43-3.41c-1.33,0-2.68.08-4,.08-.92,0-1.82.18-2.72.18-.65,0-1.32-.2-2-.26s-1.12,0-1.69,0a.48.48,0,0,1-.35-.12,3.38,3.38,0,0,1-.18-1.37c0-.82.18-1.67.25-2.49,0-.57,0-1.14,0-1.72S68.2,13,68.71,13c.73,0,1.45.19,2.18.19s1.29-.09,1.92-.09c.92,0,1.84.09,2.76.09,1.42,0,2.87-.15,4.3-.15.8,0,.8.08.8.84,0,.28-.06,5.33-.23,5.49a.54.54,0,0,1-.3.1C79.32,19.47,78.5,19.37,77.67,19.37Zm-8.94,5.92a1.75,1.75,0,0,0,.33,0h1.69l.14-.06A.49.49,0,0,0,71,25a7.3,7.3,0,0,0-1.79-.18.88.88,0,0,0-.51.08l0,.26Zm2.06,2.47a.61.61,0,0,0-.1-.33.79.79,0,0,0-.43-.08,5.68,5.68,0,0,0-1.43.12l-.12.1a1.49,1.49,0,0,0-.08.41l.08.08h.18a8.67,8.67,0,0,0,1.82-.2Zm-1.94-5.39-.1.1,0,.2,0,.21.1.08.31,0a7.18,7.18,0,0,0,1.67-.22l0-.13v-.1a7.25,7.25,0,0,0-1.67-.18Zm8.53-5.08-.12-.06c-.61,0-1.22.06-1.84.06-1.69,0-3.38-.15-5.08-.15a1.3,1.3,0,0,0-.59.07l-.06.1,0,.12.1.06a32.17,32.17,0,0,0,3.92.2c.59,0,1.2-.18,1.79-.18s1.27.1,1.9.1l.1-.08,0-.12ZM77.55,15a13.27,13.27,0,0,0-1.82-.06c-.69,0-1.39.12-2.08.12H71.53c-.47,0-.94-.14-1.39-.1l-.27,0-.12.08a1.45,1.45,0,0,0,0,.29,10.59,10.59,0,0,0,2.12,0c.63,0,1.25.12,1.88.12a22.36,22.36,0,0,0,3.84-.14.7.7,0,0,0,.08-.27Zm-.43,10.18a3,3,0,0,0,.67,1.17,2.67,2.67,0,0,0,.74-1.17,2.84,2.84,0,0,0-.72-.08A2.71,2.71,0,0,0,77.12,25.16Z"/><path class="a" d="M105.18,19c0,.49.1,1,.12,1.49,0,1.47.12,3.29.12,4.75a16.85,16.85,0,0,1-.33,2.92c-.2,1.23.17,1.55-.73,2.59-.37.43-.39.6-1,.68s-1.1,0-1.63.08a19.45,19.45,0,0,1-2.13.29,1,1,0,0,1-.44-.05c-.39-.16-1.07-2.46-1.07-2.93a.58.58,0,0,1,0-.19.57.57,0,0,1,.25,0c.65,0,1.29.23,2,.23s1.88-.19,1.88-1c0-.53-.19-1.09-.19-1.62s.12-1.14.12-1.73-.12-1.29-.12-1.92.19-1.28.19-1.94a15.91,15.91,0,0,0-.37-3.67c-.29-.29-3.51-.35-4.06-.35-.74,0-1.45.15-2.19.15s-1.53-.15-2.28-.15c-1.1,0-2.23.06-3.33.06-.24,0-.49,0-.67-.14a6.78,6.78,0,0,1-.18-2.2c0-.27.06-.55.38-.55.53,0,1.08.12,1.62.12,1,0,2-.31,3-.31s1.94.21,2.94.27,1.84.08,2.76.08c.53,0,1,0,1.57,0s1.29-.21,1.92-.21,1.53.21,2.28.21c.55,0,1.11-.06,1.66-.06.28,0,.36.22.36.47,0,.49.06,2.57-.59,2.57-.41,0-.81-.06-1.22-.06C105.05,16.8,105.18,18.41,105.18,19Zm-14.64.39c0-.43-.06-.88.51-.88,1.37,0,2.74.18,4.13.18,1,0,2.1-.22,3.16-.22.22,0,.79,0,1,.14.43.41.45,3.53.45,4.1s-.11,1.47-.17,2.17a7,7,0,0,1-.18,1.57c-.24.75-3.57.37-5.1.37a1.47,1.47,0,0,0-.59.06.76.76,0,0,0-.06.2c0,.29.08.57.08.86,0,.47-2.15.39-2.49.39-.94,0-.7-.72-.7-1.45s.23-1.59.23-2.37-.15-1.33-.19-2,0-1.37,0-2Zm4.19,2.1c-.43,0-1.21-.08-1.21.51,0,.35,0,1.82.43,1.92a5.32,5.32,0,0,0,1,.06h.43c.49,0,1.2.08,1.2-.57v-.76c0-1.14-.12-1.16-1.22-1.16Z"/><path class="a" d="M132,19c0,1.47-.33,2.9-.33,4.39,0,1,.33,1.9.33,2.88,0,.81-.16,1.65-.16,2.47s0,1.59-.05,2.36c0,.13,0,.25-.16.31a9.48,9.48,0,0,1-2.18.16,1.16,1.16,0,0,1-.59-.08,1.23,1.23,0,0,0,0-.28c-.15-.23-1.21-.13-1.33-.13-1.12,0-2.27-.18-3.27-.18a.67.67,0,0,0-.51.12,3,3,0,0,1-.16.45c-.14.2-1.12.16-1.37.16-.94,0-1.34.21-1.34-.89,0-1.33.12-2.66.12-4,0-1.13-.29-2.17-.29-3.27,0-.79.13-1.59.13-2.41,0-.24.06-.47-.11-.67a.68.68,0,0,0-.2,0c-.43,0-.84.2-1.27.2s-.59-1.28-.77-1.63a6.37,6.37,0,0,0-.18,1.63c0,1.13.32,2.25.32,3.47a11.89,11.89,0,0,1-.08,1.68,11.61,11.61,0,0,0-.29,1.63c0,.67.27,1.35.27,2a7.14,7.14,0,0,1-.14,1.12c-.25,1.43-.84,1.31-2.25,1.31a.91.91,0,0,1-.39-.06c-.26-.15-.32-1.53-.32-1.88,0-.65.2-1.33.2-2,0-1.33-.2-2.63-.2-4,0-.84.22-1.67.22-2.53a6.29,6.29,0,0,0-.06-1.37c-.08.37-.3,2.43-.77,2.43s-1.9-.55-1.9-1a3.13,3.13,0,0,1,.18-.57,24.46,24.46,0,0,0,.82-4.14.66.66,0,0,1,.12-.27l.16,0c.41,0,.82.29,1.23.29s.28-1,.28-1.17c0-1-.2-2-.2-3a.35.35,0,0,1,.39-.38c2.85,0,2.61.71,2.61,3.26,0,.27,0,.53,0,.8.29,0,.69-.43.9-.43s1.14,1.94,1.49,2.45a7.53,7.53,0,0,0,0-1.78,1,1,0,0,1,.06-.41c.16-.24,2.14-.08,2.39-.08s.65,0,.81-.1c.35-.33.43-3,.86-3.47a.86.86,0,0,1,.23-.06,19,19,0,0,1,2.77.49.63.63,0,0,1,.06.27,10.55,10.55,0,0,1-.63,2.48c0,.41,2.51.23,2.92.23C132.48,15.92,132,17,132,19Zm-5.14,9.12c1.69,0,2,.07,2-1.79,0-2-.6-1.76-2.41-1.76-.49,0-2.72-.08-2.78.47s0,.88,0,1.29-.06.88-.06,1.32,1.74.47,2.08.47Zm-2.15-9.51c-.3,0-1-.08-1,.37s.06.92.08,1.37-.24,1.57.54,1.57a10.71,10.71,0,0,0,1.36-.16,15.42,15.42,0,0,1,2.45,0,.89.89,0,0,0,.39-.06c.28-.19.43-1.78.43-2.15,0-.22,0-.57-.17-.71a18.72,18.72,0,0,0-3.14-.23Z"/><path class="a" d="M141.52,12.45c.47.12,2.47.29,2.47,1s-.33,1.31-.33,1.94,1.49.41,2,.41c.86,0,.53,1.69.63,2.26a8.58,8.58,0,0,0,.92-1.61A26.25,26.25,0,0,0,148.72,13c.12-.31.39-.33.67-.33s1.94.13,1.94.6-.47,1.22-.47,1.83,3.09.61,3.57.61,1.09-.12,1.62-.12a1.17,1.17,0,0,1,.26,0c.15.15.1.31.1.51,0,2.23,0,4.49-.08,6.72,0,1-.26,1.9-.34,2.85,0,.56,0,1.13,0,1.68a13.67,13.67,0,0,1-.78,2.86,4,4,0,0,1-1.08.71c-1.43.8-1.92.71-3.76.71-.2,0-.53,0-.69-.08s-.18-.45-.23-.65a3.23,3.23,0,0,0-.42-1.35,1.09,1.09,0,0,1-.21-.45.07.07,0,0,1,0-.06c.9-.41,3.41-.18,3.86-.59a10.49,10.49,0,0,0,1-3.76c0-1-.37-1.95-.37-2.93s.37-2.09.37-3.13c0-.67-.37-.55-1-.55a12.57,12.57,0,0,0-2.84.33c-.61.41-1.45,2.61-1.77,2.75-.55-.1-1.25-.93-1.68-.93-.16.16-.14,1.08-.14,1.34,0,.88.21,1.74.18,2.61v3.58c0,2.28,0,1.85-2.36,1.85-.68,0-1.33.06-2,0-1.19,0-.88.31-.88,1.35,0,.23-.24.27-.41.27a8.12,8.12,0,0,1-2.14-.39c-.23-.16-.25-.57-.27-.84a23.88,23.88,0,0,1-.14-2.67c0-.76.21-1.49.21-2.25,0-1.24-.23-2.45-.23-3.67,0-.71.25-1.43.25-2.16,0-1-.19-2-.19-3,0-.68,1.74-.29,2.21-.55s.47-2.76.85-3.23Zm1.65,14.69c.25,0,.55-.06.55-.36s-.08-.84-.08-1.27.16-1.08.16-1.61c0-.35-.28-.35-.57-.35s-2.33,0-2.33.47c0,.33,0,.65,0,1,0,.59-.07,1.16-.07,1.76,0,.3.33.38.58.38Zm-.73-5.94a1.25,1.25,0,0,0,.87-.18,6.38,6.38,0,0,0,.43-2.16c0-.59-.61-.53-1.06-.53h-.9c-.75,0-.71,1.73-.71,2.26,0,.7.45.61,1,.61Zm7.87,4.94c-.22-.38-.36-.85-.61-1.24a12.56,12.56,0,0,1-1.59-3.08c0-.37,1.65-1.31,2-1.31s2.43,3.86,2.43,4.33-1.64,1.41-2,1.49A.33.33,0,0,1,150.31,26.14Z"/><path class="b" d="M188.07,2.47A68.84,68.84,0,0,0,162.9,19.36c-.55.57-1.13,1.31-.9,2.06a2.26,2.26,0,0,0,1.29,1.19,140,140,0,0,0,27.6,10.65c1.46.39,3.25.68,4.28-.43.9-.95.73-2.46.49-3.75a149.57,149.57,0,0,0-7.59-26.61"/><path d="M187.72,1.21a68.69,68.69,0,0,0-17.93,10.16,55,55,0,0,0-8,7.29c-2,2.35-.85,4.2,1.58,5.45A138.14,138.14,0,0,0,185.16,33c2.64.82,6.37,2.58,9.2,1.79,3-.84,3-3.9,2.49-6.43a146.52,146.52,0,0,0-7.51-26.2c-.6-1.57-3.14-.89-2.53.69a152.43,152.43,0,0,1,6.78,22.62c.35,1.62,2.17,6.37-.4,6.85-1.5.28-3.64-.75-5-1.16q-5.58-1.64-11-3.73-5.62-2.17-11-4.84c-.94-.47-2.74-.81-2.29-2.27.16-.5,1.18-1.2,1.54-1.54,1.29-1.28,2.64-2.5,4-3.68a65.59,65.59,0,0,1,19-11.33c1.57-.59.89-3.14-.7-2.53Z"/><path class="a" d="M185.94,7.23a46.44,46.44,0,0,0-17,11.38c-.37.39-.76.88-.61,1.39a1.53,1.53,0,0,0,.87.8A94.76,94.76,0,0,0,187.84,28c1,.26,2.19.45,2.89-.29a2.88,2.88,0,0,0,.32-2.53,99.92,99.92,0,0,0-5.11-17.93"/><path d="M185.77,6.6a47.35,47.35,0,0,0-15.7,10c-1.17,1.11-3.46,2.85-1.69,4.45,1.22,1.09,3.39,1.74,4.85,2.4s2.79,1.22,4.2,1.78a71,71,0,0,0,10.24,3.38c1.73.39,3.71.35,4.13-1.75a9.68,9.68,0,0,0-.42-3.46q-.57-2.79-1.3-5.54a105.38,105.38,0,0,0-3.5-10.8c-.3-.78-1.58-.44-1.27.35a103.57,103.57,0,0,1,4.46,14.75c.21.95,1.08,3.19.76,4.08-.49,1.33-1.86,1.26-2.9,1-.64-.16-1.28-.36-1.92-.55-2.43-.71-4.82-1.53-7.18-2.44Q174.69,22.77,171,21c-.32-.16-1.22-.42-1.42-.72-.67-.95.1-1.4.63-1.94q1.31-1.29,2.7-2.49a44.78,44.78,0,0,1,13.21-7.93c.78-.3.44-1.58-.35-1.27Z"/><path d="M181.06,22.22a1.27,1.27,0,0,1-1.66.65,1.25,1.25,0,0,1,1-2.3A1.25,1.25,0,0,1,181.06,22.22Z"/><path d="M179.9,23.19a1.52,1.52,0,0,1-.59-.12,1.48,1.48,0,0,1,.05-2.72,1.49,1.49,0,0,1,1.91.82,1.46,1.46,0,0,1-.83,1.92A1.4,1.4,0,0,1,179.9,23.19Zm0-2.5a1,1,0,0,0-.37.07,1,1,0,0,0-.58,1.34,1,1,0,0,0,.55.57,1.05,1.05,0,0,0,.8,0,1,1,0,0,0,.57-.54h0a1.06,1.06,0,0,0,0-.8,1.15,1.15,0,0,0-.56-.57A1.25,1.25,0,0,0,179.89,20.69Z"/><path d="M181.61,19.1c-.19.34-.43.51-.74.37s-.36-.4-.23-.79l1.81-5.61c.2-.64.67-1.49,1.65-1.07s.74,1.25.36,1.93Z"/><path d="M181.08,19.74a.94.94,0,0,1-.3-.06c-.22-.1-.57-.37-.35-1.07L182.24,13a1.94,1.94,0,0,1,.91-1.23,1.17,1.17,0,0,1,1,0,1.22,1.22,0,0,1,.75.74,2,2,0,0,1-.28,1.5l-2.85,5.17C181.57,19.62,181.31,19.74,181.08,19.74Zm2.53-7.63a.87.87,0,0,0-.28.05,1.61,1.61,0,0,0-.67,1l-1.81,5.62c-.14.42,0,.49.11.52s.24.11.46-.28l2.85-5.16a1.51,1.51,0,0,0,.24-1.15.82.82,0,0,0-.5-.48A1.08,1.08,0,0,0,183.61,12.11Z"/><path d="M14.24,45.15A8.26,8.26,0,0,0,11.55,45c-1.22,0-2.44.42-3.65.42-1,0-1.86-.42-2.82-.42-.74,0-1.48.23-2.21.23s-1-3.11-1-3.72A1.81,1.81,0,0,1,2,40.8c.42-.9,7.85-.51,9.74-.51.93,0,1.86-.39,2.79-.39a49.87,49.87,0,0,1,5.82.58,40.87,40.87,0,0,0,4.42-.07c.84,0,4.26.1,4.74.71a11.09,11.09,0,0,1,.74,3.14c0,.93-3.14.89-3.36.93s-6.06.12-6.6.44c-1.12.68-1.79,3.4-1.79,4.62a2,2,0,0,0,0,.44c.58-.28,2.34-1.69,2.78-1.69a.87.87,0,0,1,.58.32c.71.7,1.25,1.53,2,2.21s1.95,1,2.75,1.66c.55.48,4.55,4.26,4.55,4.58,0,.51-2.82,3.46-3.3,3.46-1,0-3.33-3.59-4.16-4.29-.61-.55-4.1-3.2-4.65-3.2s-.54,1.95-.54,2.37c0,1.08.51,2.08.51,3.17s-.45,2-.54,3.07-.1,2.08-.1,3.08c0,.8.22,1.6.22,2.4a1,1,0,0,1-.09.41,4.34,4.34,0,0,1-1.73.1c-.93,0-1.79.42-2.66.42s-.67-2.09-.67-2.69c0-1.25.35-2.44.35-3.66,0-.83-.13-1.66-.13-2.49,0-1.41.32-2.85.32-4.29a2.66,2.66,0,0,0-.16-1c-2.24.71-8.52,6.79-9.41,6.79-.16,0-.35-.22-.45-.32-.29-.35-2.72-3.91-2.72-4,0-.48,2-1,2.43-1.35a52,52,0,0,0,7.05-5.64,25.73,25.73,0,0,0,1.95-2.72,10.67,10.67,0,0,0,1.54-2.11Z"/><path d="M51,56.07a4.69,4.69,0,0,0,.23.93c.19.51,2.88.71,3.46.71,1.73,0,3.49-.39,5.22-.39.57,0,.67.29.67.8A9.7,9.7,0,0,1,60,61.2c-.55.8-5.54.48-6.57.48-2,0-2.5-.39-2.5,1.89A1.27,1.27,0,0,0,51,64a4.74,4.74,0,0,0,2,.26c1.12,0,2.27-.23,3.4-.26,1.82-.06,3.65-.09,5.47-.09.42,0,1.47-.13,1.47.48a8.51,8.51,0,0,1-.41,1.73c-.93,2.85-1.44,2.27-4.26,2.27-.9,0-1.79-.19-2.69-.19-1.09,0-2.15.22-3.24.22a46,46,0,0,1-7.23-.8,12.76,12.76,0,0,1-2.18-.93c-1.06-.48-2-2-2.79-2.21-.8.19-2.85,3.69-4,3.69-.52,0-3.33-2.09-3.33-2.6S38.42,60,38.42,56.3c0-1.12-4.36.32-4.36-1.41,0-.77-.28-3,.77-3,1.32,0,2.63.16,4,.16,3.46,0,6.92-.48,10.38-.48,1.28,0,2.56.19,3.84.19,1.12,0,2.24-.26,3.37-.26h3.17c2.75,0,2.78.16,2.78,3.3C62.34,56,60.48,56,59.56,56s-1.89-.35-2.85-.35-1.89.29-2.82.29-1.57-.13-2.34-.13a2,2,0,0,0-.45.06Zm8.81-6.88c0,.32,0,.93-.26,1.15s-2.46.39-3,.39c-1.63,0-3.27-.2-4.9-.2-2.24,0-4.45.13-6.69.13-1.54,0-3,.29-4.58.29a8.7,8.7,0,0,1-3.11-.61,2.53,2.53,0,0,1-.35-1.28,31.92,31.92,0,0,1-.22-3.91c0-.93.32-1.85.32-2.78,0-2.28-.64-2.76,1.4-3a13.64,13.64,0,0,1,1.54-.16c1.22,0,2.4.32,3.62.32,1.06,0,2.15-.16,3.2-.16,1.54,0,3.08.13,4.62.13,2.4,0,4.8-.22,7.2-.22.48,0,1.25-.13,1.25.57,0,1.54-.32,3.11-.32,4.68,0,1.09.32,2.15.32,3.2ZM43,57.39c0,.61-.26,1.21-.26,1.79,0,1.31,2.37,3.39,3.59,3.62a3.32,3.32,0,0,0,0-.55c0-.86-.22-1.72-.29-2.59s0-2-.06-3a1.39,1.39,0,0,0-.13-.58.84.84,0,0,0-.55-.16c-.6,0-1.21.16-1.82.16-1.31,0-2.66-.09-4,0C40.21,56.46,43,56.33,43,57.39ZM54.43,46.66h-.29c-1-.07-2,.09-2.91.09-2.4,0-4.84-.22-7.24-.22a10,10,0,0,0-2.69.13.67.67,0,0,0-.13.41c.23.32,5.58.55,6.34.55,1.29,0,2.57-.32,3.85-.32,1,0,2,.16,3,.13h.25l.16-.13a1.58,1.58,0,0,0-.12-.51Zm.45-4.07a6.1,6.1,0,0,0-1.35-.1H51.74c-1.22,0-2.43.2-3.62.2H44.41c-.8,0-1.6-.23-2.4-.16l-.45,0-.19.16a.84.84,0,0,0-.1.29v.29l.16.16A34.46,34.46,0,0,0,45,43.39c1.22,0,2.37.19,3.59.19,1.44,0,5.76.16,6.34-.28a1.46,1.46,0,0,0,.16-.55Z"/><path d="M110.32,45.15a8.24,8.24,0,0,0-2.69-.16c-1.22,0-2.43.42-3.65.42-1,0-1.86-.42-2.82-.42-.73,0-1.47.23-2.21.23s-1-3.11-1-3.72a1.65,1.65,0,0,1,.13-.7c.41-.9,7.84-.51,9.73-.51.93,0,1.86-.39,2.79-.39a50,50,0,0,1,5.83.58,40.91,40.91,0,0,0,4.42-.07c.83,0,4.26.1,4.74.71a11.08,11.08,0,0,1,.73,3.14c0,.93-3.13.89-3.36.93-.06,0-6,.12-6.6.44-1.12.68-1.79,3.4-1.79,4.62a2,2,0,0,0,0,.44c.58-.28,2.34-1.69,2.79-1.69a.92.92,0,0,1,.58.32c.7.7,1.24,1.53,2,2.21s2,1,2.75,1.66c.55.48,4.55,4.26,4.55,4.58,0,.51-2.82,3.46-3.3,3.46-1,0-3.33-3.59-4.16-4.29-.61-.55-4.1-3.2-4.64-3.2s-.55,1.95-.55,2.37c0,1.08.51,2.08.51,3.17s-.44,2-.54,3.07-.1,2.08-.1,3.08c0,.8.23,1.6.23,2.4a.88.88,0,0,1-.1.41,4.33,4.33,0,0,1-1.73.1c-.93,0-1.79.42-2.66.42s-.67-2.09-.67-2.69c0-1.25.35-2.44.35-3.66,0-.83-.12-1.66-.12-2.49,0-1.41.32-2.85.32-4.29a2.87,2.87,0,0,0-.16-1c-2.25.71-8.52,6.79-9.42,6.79-.16,0-.35-.22-.45-.32-.29-.35-2.72-3.91-2.72-4,0-.48,2-1,2.43-1.35a51.42,51.42,0,0,0,7-5.64,23.15,23.15,0,0,0,2-2.72,10.29,10.29,0,0,0,1.54-2.11Z"/><path d="M145.81,65.23c0,.45-.13.8-.61.9a45.63,45.63,0,0,1-5.57.83c-3.11.35-6.28,1.12-9.42,1.12-1,0-1.18-3-1.18-3.74a1.85,1.85,0,0,1,.06-.74c.35-1,5.48-.38,6-.9.26-.25.22-1.05.22-1.41a3.1,3.1,0,0,0-.16-1.37c-.7-.9-5,.09-5-1.25a7.57,7.57,0,0,1,.13-1.25c.38-2.79,1.09-1.79,4.13-1.79a1,1,0,0,0,.67-.13,1.78,1.78,0,0,0,.07-.39c0-.48-.2-1-.2-1.5,0-.87,3.33-.74,4-.74.36,0,1,0,1,.55s-.13,1-.13,1.56c0,.84,3.43.42,4,.42s1,.26,1,.9a7.75,7.75,0,0,1-.19,1.28c-.51,3-1.18,2.11-3.84,2.11-1.22,0-1,1.25-1,2.15a.47.47,0,0,0,.54.54c1.57,0,3.11-.29,4.64-.29C145.9,62.09,145.81,64.59,145.81,65.23Zm5.73-17c0,.61-.26,11.94-.86,12.36a4.56,4.56,0,0,1-1.89.22c-.58,0-2,.16-2-.67s.12-1.7.12-2.56c0-1.06-.22-2.11-.22-3.17,0-.83.13-1.67.13-2.5a.48.48,0,0,0-.55-.51,20.72,20.72,0,0,0-2.75.51,25.5,25.5,0,0,1-3.81,0c-2.63,0-5.29.42-7.91.42s-2.34-.48-2.34-3c0-1.48,1.73-.77,2.53-1.57a4.41,4.41,0,0,0,.67-1.51,5.75,5.75,0,0,0,.32-1.25.76.76,0,0,0-.06-.25c-.8-.84-3.56.32-3.56-1.38,0-.61.16-3.17,1-3.17,1,0,1.92.22,2.91.22,2.15,0,4.29-.38,6.44-.38.86,0,1.76.09,2.59.16s3.46-.1,3.46,1.18c0,4.36-.32,2.5-2.79,3.27.1.42,3.08,5.57,4,6.31a20.85,20.85,0,0,0,0-2.85c0-1.7,0-3.43,0-5.16,0-.7.16-1,.93-1,3.59,0,3.81-.58,3.81,3.3Zm-11.3-.07c0-.41-.93-1.12-.93-1.63s2-1.79,2.33-2.18c-2.11-.13-3.1.23-4,2.12a6.59,6.59,0,0,0-.54,1.41.39.39,0,0,0,0,.16,4.43,4.43,0,0,0,2,.22c.36,0,.74,0,1.09,0Zm13.67-3c0-1.45.1-2.89.19-4.3,0-.38,0-.89.32-1.18a11.33,11.33,0,0,1,3-.35c.42,0,.74.06.87.51.06.22.1,2.56.1,2.88,0,2.85.12,5.7.12,8.55,0,1-.19,2-.19,3s.32,1.86.32,2.79v3.36a22.62,22.62,0,0,1-.48,3.24c-.51,3.46-.45,4-4.13,4.48a23.11,23.11,0,0,1-3,.35c-.35,0-.7,0-.83-.38-.07-.23-.87-3.91-.87-3.94,0-1.22,4.65-.26,4.65-1.47,0-1.57-.32-3.17-.32-4.81,0-1.37.44-2.69.44-4.1,0-1.85-.22-3.71-.22-5.6Z"/><path d="M163.87,43.55c.74-1.54,1.12-3.14,1.8-4.67.09-.2.19-.36.41-.36.64,0,3.46,1,3.46,1.7,0,.29-2.18,5.57-2.46,6.63.41-.7,2.24-4.52,3-4.52.52,0,2.76,1.13,2.76,1.67,0,1.09-2.95,4.42-3.46,5.32a13.09,13.09,0,0,1,2.08-.55c1,0,1.44,4.29,2.5,4.29.83,0,4.77-1.79,4.77-2.65a4.53,4.53,0,0,0-1.28-2.09c-.87.23-1.63,1.8-2.43,1.8-.52,0-3.11-2.24-3.11-2.76A.5.5,0,0,1,172,47c1.34-1.44,3-2.56,4.1-4.23a22.89,22.89,0,0,0,2.05-4.19.63.63,0,0,1,.64-.42c.61,0,4.07.64,4.07,1.22,0,.29-.68,1.09-.77,1.6a9.32,9.32,0,0,0,2.3,0,20.39,20.39,0,0,1,3.11.26c.54.09,2.88,1.34,2.88,1.89,0,.19-2.59,4.7-2.88,5s-.77.74-1.12,1.09-.8.67-.8,1,.86,1,1.18,1.34c2.31,2,3.78,1.51,5.19,2.56a.46.46,0,0,1,0,.2,24.23,24.23,0,0,1-3.14,3.39c-.54,0-5.76-3.75-6.82-3.75-.83,0-4.64,3.53-6.56,3.53-.61,0-1-1.25-1.73-1.57a13.16,13.16,0,0,0-3.08-.26.91.91,0,0,0-.7.23,16.59,16.59,0,0,0-.13,1.72A.78.78,0,0,0,170,58h.22c.61.07,1.19-.38,1.83-.38a.88.88,0,0,1,.26.06,22.68,22.68,0,0,1,2.14,5.13c0,.61-1.95,1.25-2.5,1.25-.83,0-1.76-3.21-2.11-3.85a18.17,18.17,0,0,0,0,2.66V66c0,2.75-.71,2.59-3.33,2.59-1,0-.87-.73-.87-1.5,0-1.63.16-3.27.16-4.9a20.58,20.58,0,0,0,0-2.08c-.19,1-.86,6.21-2.24,6.21-.67,0-2.63-1-2.63-1.79s1-6.47,1.61-6.89a1,1,0,0,1,.41-.1c.8,0,1.57.52,2.37.45h.26l.16-.22v-.48c0-1.67-3.24-.71-4.2-1.57-.45-.39-.61-2.4-.61-3,0-.93,1.45-.48,2.05-.48s1-.48,1.41-1l0-.32c-.35-1.25-3.26-3.71-3.26-4.19s1.79-3.3,2.14-3.3a.87.87,0,0,0,.48.19Zm5.64,8.2a2.16,2.16,0,0,0-.61-1.34,4,4,0,0,0-1.41,1.34,2.6,2.6,0,0,0,1,.13A3.47,3.47,0,0,0,169.51,51.75ZM177.93,61a6.65,6.65,0,0,1,.93.22,44.15,44.15,0,0,1,7.69,3.11c.6.28,2.11.25,2.37.92-.16.65-1.89,3.56-2.5,3.56-.39,0-4.49-1.95-5.29-2.27-1.31-.52-2.59-1-3.9-1.51-.39-.16-2.4-.67-2.4-1.09,0-.61,2.24-3,2.91-2.94Zm9.16-2.12c0,.51-1.73,2.79-2.27,2.79a.79.79,0,0,1-.48-.13,21.88,21.88,0,0,0-4.29-2.37c-.32-.13-1.45-.35-1.45-.8s1.61-2.27,2.18-2.27C182.13,56.11,187.09,58.19,187.09,58.89Zm-5.16-13.67a5.06,5.06,0,0,0-1.6.16l0,.13c0,.28,1.35,1.82,1.7,1.82a5.65,5.65,0,0,0,2.34-1.95,4.2,4.2,0,0,0-1.54-.16Z"/><path d="M197.92,61.93a8.57,8.57,0,0,1,2.37-.51c.67,0,.89,3,.89,3.65v1.6c0,.77-1.66.74-2.17.74-1.35,0-.87-3-1-4.07-.41.8-1.28,4.9-2.43,4.9a6.7,6.7,0,0,1-2.4-1.09.92.92,0,0,1,.09-.38c.32-.64.93-1.22,1.19-1.89s.32-2.31.77-2.82a.54.54,0,0,1,.32-.06,11.78,11.78,0,0,1,2.3.48.22.22,0,0,0,.1-.19c0-.07-.1-.16-.13-.23Zm20.65-13.16c-.86,0-.8,2.95-.8,3.56,0,1.41,1,.89,2.12.89,3.14,0,2.37.39,2.37,3.21,0,.8.19,1.57.19,2.37,0,1.08-.06,2.14-.06,3.23s.16,2.27.16,3.43c0,.57-.13,2.66-.58,3a1.94,1.94,0,0,1-1,.19c-.54,0-2.49,0-2.81-.39s.06-1-.71-1-3.75.19-4.13.64l-.16.74c-.29.29-1.57.25-2,.25-2.53,0-1.82-.44-1.82-2.59a.79.79,0,0,0-.13-.45h-.1c-.54,0-1.63,1-2.43,1-.26,0-.51-1-.58-1.15-.22-.71-1.73-3.78-1.69-4v-.09c.41-.42,1.66-.42,2.27-.67a15.75,15.75,0,0,0-3.08-.26c-.89,0-1.76.13-2.65.19-1.32.07-2.66,0-4,0-.9,0-1.8.42-2.69.42-.45,0-.52-.35-.52-.74,0-3.49-.35-3.1,2.34-3.1a15.24,15.24,0,0,0,2.95-.16l.16-.16a4.27,4.27,0,0,0-.13-.48c-.45-.42-3.52-.16-4.13-.71-.42-.35-.55-2.24-.55-2.78s.42-.68.93-.68c1.12,0,2.28.29,3.4.29.32,0,.57-.06.57-.42a.43.43,0,0,0-.06-.28,30.45,30.45,0,0,0-4.58-.07c-.67,0-.58-.86-.58-1.31,0-1.76.23-3.49.23-5.25,0-1-.2-1.89-.2-2.85s-.12-3.33,1-3.33c1,0,1.89.16,2.85.16,1.38,0,2.79-.2,4.16-.2,1.09,0,2.18.1,3.27.1,1.86,0,2.75-.51,3,1.57.06.64.19,1.31.19,2,0,2.57-.32,5.1-.32,7.66,0,1.34.23,1.53-1.12,1.53-.93,0-1.86-.12-2.78-.09h-.87l-.19.13c0,.12,0,.25,0,.35a.67.67,0,0,0,.06.35,18.87,18.87,0,0,0,2.37.16c.64,0,1.28-.16,1.92-.16a.52.52,0,0,1,.39.13,3.82,3.82,0,0,1,.12,1.47c0,.35.1,1.12-.16,1.48s-3.68.25-4.61.44a1.51,1.51,0,0,0-.13.84l.16.19.42,0a13.76,13.76,0,0,0,2.79-.16,10.25,10.25,0,0,1,1.73-.29c.44,0,.48.29.48.67s-.16,2.82-.55,3.08c-.19.13-.51.19-.73.32l-.13.26a18.75,18.75,0,0,0,1.44,3.26,9.06,9.06,0,0,0,.45-3.1c0-.68-.16-1.41-.2-2.09-.09-1.5-.09-3-.09-4.51,0-2.4,1.18-1.63,3.14-1.63,1.12,0,1.18-1.8,1.18-2.66,0-2.95-.25-5.9-.25-8.84,0-3.56.51-3.2,3.77-3.2a1.22,1.22,0,0,1,.68.16c.45.32.16,4,.16,4.58,0,.28,0,1.15.16,1.34.57.58,5.28-.06,5.76.54a2.39,2.39,0,0,1,.13,1.06c0,.58,0,3-.74,3-1.18,0-2.37-.29-3.58-.29Zm-20.94-1.28c0,.35,0,1.31.48,1.31.9,0,1.83.16,1.83-.92a.72.72,0,0,0-.1-.36c-.48,0-1,.29-1.47.29-.71,0-.64-2.46-.71-3,0,.55,0,1.12,0,1.7Zm2.11-4.39c0-.89-.8-.86-1.47-.86a2.12,2.12,0,0,0-.45,0,1.06,1.06,0,0,0-.09.42,1.57,1.57,0,0,0,.09.54,3.28,3.28,0,0,0,.93-.25l.22.09a14.93,14.93,0,0,1,.71,2.44,9.29,9.29,0,0,0,.06-1.29Zm5.19,23.22a1,1,0,0,1-.13.45,4.43,4.43,0,0,1-2,.45c-.26,0-.42-.26-.48-.48s-.87-4.42-.87-4.71a.88.88,0,0,1,0-.32,3.24,3.24,0,0,1,1.76-.54c.89,0,1.63,3.55,1.63,4.32Zm-.19-24.18c-1.89,0-2.37.23-2.37,2a9.5,9.5,0,0,0,.06,1.32c.39-.77.52-1.67,1-2.41a.65.65,0,0,1,.23-.06c.35,0,.7.22,1.09.22a1.76,1.76,0,0,0,.16-.54A1.15,1.15,0,0,0,204.74,42.14Zm-1.22,5.7c-.32,0-.57-.19-.89-.19a1,1,0,0,0-.13.55.68.68,0,0,0,.06.35,7.85,7.85,0,0,0,1.73.16c.71,0,.67-2.08.64-2.56v-.32c-.48.57-.64,1.4-1.15,1.92ZM217.9,58a16.6,16.6,0,0,0-3.71-.45c-.39,0-.71.09-.74.51-.1.77,0,1.54-.06,2.31a20.31,20.31,0,0,0-.32,2.05c0,.77,3.26.93,3.9.93,1.6,0,1.06-1.51,1.09-2.76,0-.54.1-1.09.1-1.63C218.16,58.7,218.19,58.22,217.9,58Z"/><path d="M77.12,46.71a15.63,15.63,0,0,0,3.81-6.05c.23-.64.61-2.69,1.41-2.69.61,0,3.56.86,3.56,1.47,0,.45-.48,1.25-.48,1.6a.92.92,0,0,0,0,.29,11.32,11.32,0,0,0,2.72.26c2,.16,3.88.29,5.93.29.83,0,.77.64.77,1.31,0,2-.39,4-.39,6,0,1.34.26,2.62.26,4a14.81,14.81,0,0,1-1.06,6c-.26.51-.74.9-1,1.41v.26c.67.57,2.75.32,2.75,1.37,0,1.44-.93,4.65-2.3,5.32-1.19.58-6.86.93-8.33.93a14.19,14.19,0,0,1-3.88-.64c-2.14-1.09-2.24-6.5-2.24-8.49V56c0-1.63.16-3.3.16-4.93A3,3,0,0,0,78.72,50a5.93,5.93,0,0,0-2.11-1.57ZM88.91,57.12s.09,0,.16,0a1.48,1.48,0,0,0,.74-.41,17.37,17.37,0,0,0,1-5.13c0-1.12-.16-5.28-1.32-5.63a10,10,0,0,0-2.78-.29,16.49,16.49,0,0,0-3.4.41c-.35.2-.57,1.06-.67,1.45l.1.28a.9.9,0,0,0,.41.13h2.53c.83,0,1.67-.25,2.53-.25s.93,3.36.93,4c0,1.7-.32,3.43-.22,5.13ZM83,51.49a1.36,1.36,0,0,0-.09.48,8.17,8.17,0,0,0,.19,2.33,1,1,0,0,0,.74.2h.64c.09,0,.19-.1.25-.16a1.18,1.18,0,0,0,.1-.48,8.42,8.42,0,0,0-.29-2.21l-.26-.23a3,3,0,0,0-.51-.06h-.54Zm1.73,6.27c-.73,0-1.82-.16-1.82.87a17.24,17.24,0,0,0,.45,3.68,2.79,2.79,0,0,0,1,1.06,2.28,2.28,0,0,0,1.66.77c2.28,0,3,.22,4.46-1.61a4.65,4.65,0,0,0,.73-1.18,7.17,7.17,0,0,0-2,0c-1.21,0-.92-2.72-1.88-3.33a3.69,3.69,0,0,0-1.7-.23Z"/><path d="M77.76,47.05a4.93,4.93,0,0,0,0,.67c0,1.25.13,2.46.13,3.71a1.13,1.13,0,0,1-.13.42c-.42.29-1,.16-1.51.16a2.61,2.61,0,0,0-.86.13.5.5,0,0,0-.16.38V54a.52.52,0,0,0,.16.36c.51.22.64.09,1.12.09h.74c1,0,1,1,1,1.6s.25,2,.21,2.17-2.42.14-2.42.14l-.48,0c-.29.16-.29.45-.29.74a6.47,6.47,0,0,0,.35,2.53,1.29,1.29,0,0,0,.36.06c.6,0,1.18-.29,1.82-.29s.8,2.18.8,2.76-.06.73-.51.89c-2,.77-4.2,1-6.18,1.7a12.85,12.85,0,0,1-2.34.84,15,15,0,0,1-2.31.19c-.92,0-1-3-1-3.65a.34.34,0,0,1,.16-.23c.25,0,.51,0,.77-.06.6-.55.28-3.2.28-3.88,0-1.92,0-3.81,0-5.73,0-.93,1.45-.77,2.12-.77,1.82,0,1.44,1,1.44,2.85,0,1.25-.32,2.47-.32,3.72a24.55,24.55,0,0,0,.1,2.69l.09.16a1.31,1.31,0,0,0,.35,0l.1-.19a57.63,57.63,0,0,0,.13-6.7c0-1.18.25-2.33.25-3.49,0-1.63-4.1.23-4.1-1.6,0-1,.16-2,.16-3,0-.54-.12-6.15.29-6.6.64-.64,5.13-.57,5.83-.57,1,0,2-.2,3-.2,0,0,.89-.3.76.93C77.53,41.47,77.79,46.31,77.76,47.05Zm-5.22-2.53c-.29,0-.64,0-.83.22a11.81,11.81,0,0,0-.32,2.69,1.24,1.24,0,0,0,.09.58,1.45,1.45,0,0,0,1,.19h.29a1.61,1.61,0,0,0,1.09-.26A3,3,0,0,0,74,46.76c0-1,.19-2.24-1.06-2.24Z"/></svg>