<svg xmlns="http://www.w3.org/2000/svg" viewBox="0 0 60 60"><defs><style>.a{fill:#fff;}.b{fill:#ffbc18;}.c{fill:#f15a24;}</style></defs><title>head</title><path class="a" d="M36.15,36.17c4.76,1.64,5.84,9.41,5.36,13.67-.66,5.93-8.39,9.89-13.8,6.82C25,55.13,25,50.72,25,47.92c0-1.86.4-7.35,2.66-8C27.7,40,31.83,34.69,36.15,36.17Z"/><path d="M35.4,37.47c4,1.76,4.91,7.2,4.69,11.16-.26,4.87-6.85,10.27-11.63,6.73-2.69-2-2.41-9-1.37-12s5.4-6.54,8.66-5.79c1.88.43,2.69-2.46.8-2.89-4.54-1-10.48,2.68-12.09,7-1.81,4.87-2.1,14.14,3.41,16.65,5.72,2.6,13.35-1.15,14.91-7.2,1.39-5.39-.32-13.9-5.87-16.32C35.16,34.11,33.63,36.7,35.4,37.47Z"/><path class="b" d="M32.5,44.24A49,49,0,0,0,31,49.82a2.73,2.73,0,0,0,0,1.72,2.8,2.8,0,0,0,2.06,1.18,3.15,3.15,0,0,0,2.63-.19,2.57,2.57,0,0,0,.73-2.21c-.16-2.44-1.6-4.58-3-6.59C33.42,43.73,32.85,43.2,32.5,44.24Z"/><path d="M31.06,43.84a47.88,47.88,0,0,0-1.48,5.27c-.27,1.3-.43,2.65.51,3.73,1.55,1.79,5.57,2.31,7.09.26,1.74-2.35.19-5.91-1.11-8.07-.53-.89-1.14-2.23-2.11-2.71a2,2,0,0,0-2.75,1.16c-.87,1.72,1.71,3.24,2.59,1.52a5.38,5.38,0,0,0-1.33,0l.35.51c.27.55.68,1,1,1.58.53,1,1.75,3.17.74,4a1.22,1.22,0,0,1-1.85-.43c-.42-.68-.1-1.28.08-2,.34-1.35.75-2.69,1.19-4C34.56,42.8,31.66,42,31.06,43.84Z"/><path class="c" d="M19.33,19A12.87,12.87,0,0,0,8.47,24.43,10.43,10.43,0,0,0,8.75,36.3c2.63,3.32,7.85,4.39,11.37,2-2-1.66-5.34.94-5,3.54s3,4.34,5.52,4.88c6.43,1.36,13.48-3.48,14.53-10-.53,3.58,4.16,6.12,7.58,4.94S48.33,37.21,50,34c2.1-4.05,4-8.64,2.92-13.09s-6.19-8.11-10.24-6c2,.94,4.42-1.59,3.85-3.76s-3.12-3.36-5.34-3.09a11.37,11.37,0,0,0-5.85,3.14c1.92-2.64.13-6.69-2.81-8.08s-6.44-.8-9.51.29a15.66,15.66,0,0,0-6.73,4.15A7.88,7.88,0,0,0,14.44,15c.84,2.53,3.74,4.37,6.28,3.54"/><path d="M19.33,17.45c-7.68.29-14.86,5.78-14,14.1a10.43,10.43,0,0,0,15.53,8.08,1.51,1.51,0,0,0,0-2.59,4.8,4.8,0,0,0-6.71,2.3C12.52,42.71,15,46,18,47.4,25.83,51.17,34.86,45,36.62,37.19l-2.94-.4c0,4.19,3.75,7.07,7.9,6.7,5-.45,8.09-5.47,10.1-9.5,2.41-4.84,4.57-11.06,1.59-16.15-2.25-3.87-6.72-6-11-4.39-1.24.48-1.6,2.58,0,2.89,4,.78,7.43-3.42,5-7.11-3.3-5-9.52-2-13,.9L36.64,12a7.29,7.29,0,0,0-2.31-9.5c-4.31-3.11-10.75-1.4-15,.92-3.86,2.11-7.26,6-6.59,10.7.6,4.25,4.38,6.5,8.39,5.87,1.91-.29,1.1-3.19-.79-2.89-3.81.6-5.23-5.11-3.54-7.67a12.12,12.12,0,0,1,5.34-4,16.94,16.94,0,0,1,5.7-1.58c3.35-.19,8.57,2.14,6.23,6.61a1.51,1.51,0,0,0,2.35,1.82,11.74,11.74,0,0,1,3.88-2.46q4.62-1.53,2.8,3.66v2.89a6.38,6.38,0,0,1,7.6,3c1.94,3.34.76,7.63-.61,10.93a30,30,0,0,1-3.41,6.33,9.12,9.12,0,0,1-2.52,2.62c-2.15,1.32-7.42,2.36-7.46-2.44,0-1.65-2.57-2.09-3-.4a11.3,11.3,0,0,1-5.68,7.7,11,11,0,0,1-4.81,1.38l-2.19-.16q-4.55-.5-1.69-5.68V37c-5.44,3-11.43-1.28-11.09-7.3.32-5.81,5.7-9.08,11.06-9.29,1.92-.07,1.93-3.07,0-3Z"/><path d="M26,20.76a8.81,8.81,0,0,0-4.64-1.44c-1.94-.05-1.93,2.95,0,3a6,6,0,0,1,3.13,1c1.61,1.07,3.12-1.52,1.51-2.59Z"/><path d="M25.07,22.21a7.27,7.27,0,0,0-4.72.63,1.5,1.5,0,0,0,1.52,2.59,3.83,3.83,0,0,1,2.4-.33,1.54,1.54,0,0,0,1.85-1,1.52,1.52,0,0,0-1.05-1.85Z"/><path d="M41.39,30.72,44.47,29c1.68-.94.17-3.54-1.51-2.59l-3.08,1.73a1.5,1.5,0,0,0,1.51,2.59Z"/><path d="M42.28,32.8a8.24,8.24,0,0,1,3.45-.33,1.51,1.51,0,0,0,1.5-1.5,1.53,1.53,0,0,0-1.5-1.5,10.5,10.5,0,0,0-4.24.44c-1.84.57-1.06,3.47.79,2.89Z"/><path d="M22.74,38.66l-2.11,1.92a1.5,1.5,0,1,0,2.12,2.12l2.12-1.92a1.5,1.5,0,0,0-2.13-2.12Z"/><path d="M24.67,39.8,24,41.53A1.52,1.52,0,0,0,25,43.38a1.56,1.56,0,0,0,1.85-1.05l.67-1.73a1.51,1.51,0,0,0-1-1.85,1.55,1.55,0,0,0-1.84,1Z"/><path d="M27.88,39.33a6.28,6.28,0,0,0,.44,3,1.56,1.56,0,0,0,1.85,1.05,1.51,1.51,0,0,0,1-1.85,4,4,0,0,1-.33-2.2,1.51,1.51,0,0,0-1.5-1.5,1.54,1.54,0,0,0-1.5,1.5Z"/><path d="M32,11.62a7.15,7.15,0,0,0-1.61-3.33,1.5,1.5,0,0,0-2.12,0,1.54,1.54,0,0,0,0,2.12,4.22,4.22,0,0,1,.84,2A1.5,1.5,0,1,0,32,11.62Z"/><path d="M30,11.11l-2-1a1.54,1.54,0,0,0-2.05.54,1.52,1.52,0,0,0,.54,2.05l2,1a1.54,1.54,0,0,0,2-.54A1.51,1.51,0,0,0,30,11.11Z"/><path d="M26.58,12,23,12.67A1.51,1.51,0,0,0,22,14.51a1.53,1.53,0,0,0,1.84,1.05l3.57-.66a1.52,1.52,0,0,0,1-1.85A1.54,1.54,0,0,0,26.58,12Z"/><path d="M38.28,28.56a20.52,20.52,0,0,1,8-3.44c1.89-.37,1.09-3.27-.8-2.9A22.63,22.63,0,0,0,36.77,26c-1.57,1.11-.07,3.71,1.51,2.59Z"/><path d="M28.82,24.76a19.85,19.85,0,0,0-11,1.85c-1.74.83-.22,3.41,1.52,2.59a17,17,0,0,1,9.44-1.44c1.91.23,1.89-2.77,0-3Z"/></svg>