<svg xmlns="http://www.w3.org/2000/svg" viewBox="0 0 1650 919.15"><defs><style>.a{fill:#fffcd9;}.b{fill:#fff;}.c{fill:#ffbc18;}.d{fill:#f88334;}.e{fill:#f15a24;}.f{font-size:36px;font-family:"PingFang TC", "HeiTi TC", "Microsoft JhengHei", sans-serif;;}</style></defs><title>blackManquestionMark</title><path class="a" d="M542.37,865.19c-58.43-56.53-94.24-135.53-98.1-216.45S468.52,485.8,521.3,424c77.16-90.31,199-132,317.71-143,65.19-6.05,134.49-3.14,190.65,30.27,48.67,29,82.22,78,105.11,129.55,25.81,58.17,40,122.75,31.2,185.72-9.7,69.41-46.13,131.87-81.83,192.3-7.12,12.06-14.78,24.66-27,31.52-11.6,6.5-25.57,6.86-38.89,7l-482,7.05"/><path class="b" d="M889.71,742.64c-3.34,30.52-5.43,72.16-11.17,102.32-6.12-.32-17.14.32-23.26,0-9-29-18.87-74.71-32.83-101.62C822.45,743.34,850.74,736.53,889.71,742.64Z"/><path d="M888.21,742.64c-3.68,34-4.82,68.31-11.12,101.92l1.45-1.1c-7.75-.32-15.51.32-23.26,0l1.44,1.1c-10.48-33.93-16.68-70.14-33-102l-.9,2.2c21.36-5.07,45-4,66.47-.7,1.89.29,2.7-2.6.8-2.89-22-3.34-46.15-4.5-68.06.7a1.52,1.52,0,0,0-.9,2.2c16.17,31.59,22.28,67.6,32.68,101.27a1.54,1.54,0,0,0,1.45,1.1c7.75.32,15.51-.32,23.26,0a1.49,1.49,0,0,0,1.44-1.1c6.35-33.88,7.52-68.5,11.23-102.72C891.42,740.72,888.42,740.74,888.21,742.64Z"/><path class="b" d="M807.71,742.64c-3.35,30.52-4.63,61.42-10.38,91.58-6.12-.32-17.13.32-23.25,0-9-29-19.67-64-33.64-90.88C740.44,743.34,768.74,736.53,807.71,742.64Z"/><path d="M806.21,742.64c-3.29,30.41-4.68,61.06-10.32,91.18l1.44-1.1c-7.75-.32-15.5.32-23.25,0l1.44,1.1c-9.61-30.91-18.92-62.35-33.78-91.24l-.9,2.2c21.36-5.07,45-4,66.47-.7,1.89.29,2.7-2.6.8-2.89-22-3.34-46.15-4.5-68.06.7a1.51,1.51,0,0,0-.9,2.2c14.73,28.66,24,59.87,33.48,90.53a1.54,1.54,0,0,0,1.45,1.1c7.75.32,15.5-.32,23.25,0a1.51,1.51,0,0,0,1.45-1.1c5.69-30.38,7.11-61.3,10.43-92C809.41,740.72,806.41,740.74,806.21,742.64Z"/><path class="c" d="M715.84,652.7c-.9,34.4,1.64,59.26,21.79,93.13,25.47,10.94,72.12,1.88,71.24-.56,22.23,10.12,57.1,16.69,76,9.82,22.19-8.06,15.45-27.54,23.25-47.86,3.9-10.17,7-20.84,6.19-31.58S908.4,654,898.6,647.81c-15.37,3.85-31.68.86-47.46-1.27a432.27,432.27,0,0,0-137.71,3.59"/><path d="M714.34,652.7c-.35,14.28-.19,28.62,2.22,42.73a141.24,141.24,0,0,0,14.25,41.25c1.53,3,3.3,7.9,5.76,10.21,1.44,1.34,4.39,1.83,6.25,2.38a83.37,83.37,0,0,0,16.81,2.93,152.31,152.31,0,0,0,34.2-1.35c2.23-.33,16.9-1.42,16.54-5.58l-2.25,1.29c20.49,9.18,45.46,15.34,68,12.15,9.13-1.29,18.5-4.92,23.53-13.1,4.79-7.78,5-17.5,6.72-26.23,2.53-13,9.06-24.84,9.57-38.37.44-11.66-3.55-23.67-12.52-31.48-1.28-1.11-3.1-3-4.81-3.22-1.05-.13-2.92.63-4,.82a62.56,62.56,0,0,1-6.82.84,114.93,114.93,0,0,1-22-1c-15.74-1.88-31.33-4.2-47.18-5.12A436.75,436.75,0,0,0,713,648.69c-1.89.35-1.09,3.24.8,2.89a433.28,433.28,0,0,1,85.58-7.37q21.15.28,42.2,2.65c13.54,1.52,27.08,4.34,40.75,4.31a75.06,75.06,0,0,0,9.48-.6c3.79-.49,6.24-1.68,9.45,1.08a33.62,33.62,0,0,1,10,15.67c4.09,13.32,0,26.93-4.57,39.52-3.25,8.92-3.88,18.22-6,27.41-2.31,10.21-8.14,17.06-18.37,20.09-11.51,3.41-24.44,2.32-36.12.41A148.51,148.51,0,0,1,809.63,744c-.93-.42-2.36,0-2.26,1.3-.07-.88.7-.82-.28-.42-.6.24-1.21.42-1.82.62a51.06,51.06,0,0,1-5.59,1.34,139.72,139.72,0,0,1-16.55,2.25c-13.25,1.09-27.28,1.09-40.09-2.86a15.21,15.21,0,0,1-3.94-1.37c-1.79-1.25-3-4.55-4-6.42-2.27-4.15-4.38-8.39-6.29-12.73A133.19,133.19,0,0,1,720.93,702c-3.73-16.17-4-32.79-3.59-49.31,0-1.93-3-1.93-3,0Z"/><path class="d" d="M971.43,460.54C816.54,389,679,447.53,678.91,447.67c-26.4,7.58-48.72,28-59.34,53.34a95.52,95.52,0,0,0-6.1,21.47,106.64,106.64,0,0,0,58,33.9c12.77,57.28,39,129.22,44.46,132.5,6,3.57,97.31,6.48,131.92,7.65,9,.31,58.23,5.19,70.84-14.57,30.19-47.32,45.8-98.22,63-152l17.79,77.35C1070,513.83,992.39,470.23,971.43,460.54Z"/><path d="M972.18,459.25a394,394,0,0,0-237.81-28.7c-18,3.44-36.13,7.93-53.25,14.61-9.45,3.69-18.73,6.84-27.31,12.5a96.06,96.06,0,0,0-35.68,42.95,94.92,94.92,0,0,0-5.24,16.89c-.32,1.51-1.32,3.86-.86,5.37.53,1.79,3.46,4,4.71,5.32a108.54,108.54,0,0,0,36.13,24.06q3.68,1.5,7.46,2.73c2.62.84,6,1.11,8.42,2.33,3.2,1.63,3.63,9.61,4.51,13.15,1.28,5.19,2.64,10.37,4,15.53q8.15,29.94,18.37,59.27c4.54,13,9.09,26.34,15.29,38.69,1,2.1,2.23,5,4.36,6.3s5,1.24,7.27,1.53c11.78,1.51,23.71,2,35.56,2.67,29.88,1.61,59.8,2.34,89.7,3.58,11,.46,21.93,1.13,32.94.33,12.38-.91,27.88-2.9,36.8-12.56,2.7-2.92,4.63-6.6,6.67-10q4.85-8,9.26-16.28c5.53-10.35,10.57-21,15.22-31.74,9-20.9,16.56-42.39,23.66-64,3.66-11.13,7.21-22.29,10.79-33.45H980.3l17.79,77.36c.31,1.38,2,1.31,2.74.36,18.6-24.88,34.86-56.44,27.27-88.36-4.78-20.06-18.58-36.38-35-48.23a127.19,127.19,0,0,0-20.92-12.22c-1.74-.81-3.26,1.78-1.51,2.59,13.86,6.44,26.88,15.29,37.16,26.66,16,17.67,22.39,40.71,17.39,64.09-4.26,19.9-14.92,37.83-27,53.95l2.74.36-17.79-77.35a1.51,1.51,0,0,0-2.89,0c-14.73,45.94-29.09,92.42-52.78,134.71-4.64,8.28-9,18.67-17.48,23.73-6.2,3.72-13.57,5.4-20.65,6.45-13,1.91-26.1,1.41-39.13.71-28.94-1.56-57.94-1.95-86.89-3.42-12.88-.66-25.83-1.24-38.65-2.7-2.21-.25-6.09-.13-8-1.44-2.39-1.63-3.85-6.54-5-9-7.64-16.84-13.52-34.59-19.22-52.16C685,603.24,678.26,579.77,672.92,556a1.49,1.49,0,0,0-1-1.05,106.21,106.21,0,0,1-50.74-26.64,40.59,40.59,0,0,1-4.47-4.52c-1.74-2.26-1.31-3.61-.69-6.38a90.62,90.62,0,0,1,20-40.08,94.18,94.18,0,0,1,20.58-17.88c7.3-4.65,15-7.52,23.09-10.46,1.83-.67,5.12-2,7.5-2.85,46.89-16.58,98.36-22,147.8-18.82a386,386,0,0,1,135.7,34.54C972.41,462.64,973.94,460.05,972.18,459.25Z"/><path class="e" d="M909.63,554.79a4,4,0,0,1,5,3.79c.64,30.59-8.53,60.31-22.73,87.57-3.16,6.07-6.83,12.15-12.42,16.09-6.71,4.72-96.29,7.06-131.91-.16-6.26-1.27-12.78-2.83-17.59-7-4.6-4-7-9.89-9.3-15.55-10.18-25.31-20.53-51.65-20-78.78a4,4,0,0,1,4.55-3.89C728.5,559.87,839.33,572.93,909.63,554.79Z"/><path d="M909.63,556.29c7.68-.76.28,36.75-.69,40.87A198.18,198.18,0,0,1,896.18,634a169.72,169.72,0,0,1-7.84,15.53c-2.3,3.93-5.66,9.55-10,11.61-3,1.42-7,1.54-10.22,1.89-30.87,3.41-62.84,3-93.78.75-16.28-1.16-40.35-1.1-48.92-17.37-5.81-11-9.91-23.58-13.91-35.37-4.32-12.73-7.83-25.88-8.91-39.32-.36-4.46-1.91-13.4,4.49-13.21,2,.06,4,.51,6,.75,5.57.67,11.15,1.27,16.73,1.84q24.75,2.48,49.61,3.68c43.28,2,88.31,2.17,130.57-8.58,1.87-.48,1.08-3.37-.8-2.9-42.42,10.8-87.68,10.54-131.12,8.42q-26.5-1.29-52.89-4.1-8.31-.88-16.6-1.91c-2.07-.26-4.33-.87-6.3.11-4.37,2.19-3.15,8.34-3,12.23.66,13.72,3.86,27.2,8.08,40.23A316.45,316.45,0,0,0,721.8,645.9c5.19,11,13.86,15.31,25.4,17.63a194.49,194.49,0,0,0,21.51,2.85c18.7,1.62,37.53,2,56.29,1.75,15.26-.16,30.71-.41,45.87-2.39,3.9-.5,7.8-.85,11-3.39,10.36-8.36,15.79-23.48,20.68-35.43a184.85,184.85,0,0,0,12.26-44.74,145.94,145.94,0,0,0,1.42-21.8c-.06-4.14-1.84-7.56-6.55-7.09C907.73,553.48,907.71,556.48,909.63,556.29Z"/><path class="b" d="M744.9,612.33c-2,8-7,16.58-3.26,24.86,2.58,5.64,9.83,9,15.28,5.17s5.83-12.49,5.15-18.46c-.81-7.14-5.34-13.81-13.16-13.59-3.22.1-3.23,5.1,0,5,6.9-.2,8.42,7.2,8.35,12.7,0,3.64-.32,9.51-4.51,10.73-6.88,2-8-7.51-7-12s2.91-8.68,4-13.11c.78-3.13-4-4.46-4.82-1.33Z"/><path class="b" d="M781.53,614.55c-4.62,7.53-9.5,16.93-4.19,25.41,4.44,7.1,13.47,7.89,18.8,1.36,5.14-6.3,7.77-17.33,3.51-24.66-3.95-6.81-13-8-17.79-1.46-1.89,2.61,2.45,5.1,4.32,2.52,2.36-3.27,6.84-1.89,8.82.89a11.52,11.52,0,0,1,1.71,7.16c-.19,4.68-2.28,11.78-6.59,14.22-5.64,3.2-10.32-3.39-10.13-8.64s3.19-9.93,5.85-14.28c1.69-2.75-2.63-5.26-4.31-2.52Z"/><path class="b" d="M824.23,614.88c-5,7.35-10.4,16.9-4.52,25.36,4.55,6.53,12.84,6.84,17.81.66s7.9-17.51,3.51-24.69c-3.82-6.23-13.15-7.34-16.92-.46-1.55,2.82,2.77,5.35,4.32,2.52a4.5,4.5,0,0,1,7-1c2.39,2,2.78,5.38,2.56,8.28-.32,4.2-2,10.37-5.29,13.27-5.1,4.47-10.64-1.42-10.68-6.84s3.58-10.3,6.49-14.55c1.83-2.66-2.51-5.17-4.32-2.53Z"/><path class="b" d="M868.2,612.26l-13,30.87c-1.24,2.92,3.07,5.48,4.32,2.52l13-30.87c1.23-2.93-3.07-5.48-4.32-2.52Z"/><path class="b" d="M880.6,572.1a16.44,16.44,0,0,0-4.85,1.39l-4.67-.25c-29.21-1.57-60.13-3.7-84.11-20.45-9-6.29-16.72-14.47-26.25-19.86a104.26,104.26,0,0,1-147.25-10.45,103.3,103.3,0,0,0,9.23,61.71c12.64,25.66,36,45.63,63,55.13,28.88,10.18,60.63,8.64,90.77,3.24,27.62-4.94,55.78-13.63,76.13-32.94,6.51-6.18,12.82-13.71,20.62-17.46,3.29,4.33,7.24,8.86,12.61,9.27,3.39.25,6.7-1.27,9.35-3.4C899.59,594.45,913.46,567.24,880.6,572.1Z"/><path d="M880.2,570.65c-3.18.59-5.88,1.26-9.12,1.09-2.49-.14-5-.27-7.48-.42-5-.3-10-.65-15-1.12a180.74,180.74,0,0,1-32.34-5.61,94,94,0,0,1-28.5-13.1c-9-6.3-16.72-14.26-26.25-19.86a1.54,1.54,0,0,0-1.82.24,105.11,105.11,0,0,1-75.06,24.85c-26.94-1.93-52.22-15.22-70.07-35.31a1.51,1.51,0,0,0-2.5.67c-7,45.83,16.84,90.18,57.46,111.76,21.22,11.28,45.39,15.07,69.21,14.38A245.75,245.75,0,0,0,810,635.73c11.79-4,23.25-9.34,33.39-16.63,10.75-7.73,18.7-19.55,30.54-25.65l-1.82-.23c6,7.79,15.48,14,24.29,5.68,3-2.85,5-7.29,6.1-11.22,1.24-4.42,1.4-9.62-1.83-13.27-4.9-5.54-14-4.64-20.49-3.76-1.9.26-1.09,3.15.8,2.9,5.27-.72,13.31-1.69,17.37,2.75,2.62,2.86,2.22,7.13,1.25,10.58a24.29,24.29,0,0,1-4.2,8.64,11.43,11.43,0,0,1-8.66,4.21c-5.67.1-9.32-4.5-12.51-8.63a1.53,1.53,0,0,0-1.82-.24c-9.25,4.77-15.64,13.09-23.3,19.88A107.58,107.58,0,0,1,821,628.31c-20.65,9.07-43.65,13.53-66,15.82-24.06,2.47-49,1.44-71.77-7.31a111.85,111.85,0,0,1-49.66-37.72,102.59,102.59,0,0,1-18.61-76.23l-2.51.67c18.39,20.7,44.47,34.17,72.19,36.18,27.93,2,55.93-7.65,77.18-25.73l-1.81.23c10,5.87,18,14.37,27.61,20.8A99.22,99.22,0,0,0,817,567.92a190.45,190.45,0,0,0,31.56,5.28c5.56.52,11.13.89,16.7,1.22l8.14.44c2.87.16,4.74-.79,7.59-1.31C882.9,573.2,882.09,570.31,880.2,570.65Z"/><path d="M873,580.77c-.84,3.05-2,6.66-1.26,9.85.66,2.84,3.08,5,4.75,7.31,1.14,1.53,3.74,0,2.59-1.52-1.29-1.74-3-3.37-4-5.34-1.41-2.89,0-6.61.79-9.5a1.51,1.51,0,0,0-2.9-.8Z"/><path class="b" d="M804,435.62c-9.17,1-16.9,9.54-17.06,18.77s7.24,18,16.37,19.38c7.51,1.13,15.21-2.38,20.5-7.83s8.46-12.63,10.62-19.91c.93-3.12,1.62-6.75-.23-9.42-1.61-2.33-4.62-3.16-7.4-3.62a59.84,59.84,0,0,0-28,2"/><path d="M803.56,434.17c-12.52,1.94-21.45,15.1-16.91,27.35,4.45,12,17.73,16.87,29.16,11.81,6.55-2.91,11.53-8.28,15-14.47,3-5.38,7-13.39,5.89-19.76-1-5.76-6.63-7.21-11.68-7.88a62.88,62.88,0,0,0-26.67,2.36c-1.84.56-1.05,3.45.8,2.89,7.17-2.19,34.74-7.79,34.59,5.19-.05,4.89-2.91,10.78-5.14,15-2.73,5.12-6.49,9.77-11.57,12.72-10,5.85-23.08,2.77-27.46-8.63-4.16-10.8,3.93-22,14.81-23.66,1.9-.29,1.1-3.18-.8-2.89Z"/><path d="M802.59,431.85A22.89,22.89,0,0,0,779.48,451c-1.7,11.27,5,22.62,15.32,27.19,11.47,5.09,24.94,2.05,33.93-6.41,8-7.49,14.48-20.93,10.11-31.84-6.51-16.26-27.69-8.42-40.45-10.5-1.89-.3-2.7,2.59-.8,2.9,11.31,1.84,31.48-5.41,38.07,7.76,6.16,12.33-5,28.71-15.72,34.35-12.54,6.62-29.39,2.84-35.62-10.55s3-29.53,18.27-29c1.94.06,1.93-2.94,0-3Z"/><path class="b" d="M833,402.94c10.83,9,5.91,30.45.42,41.13-7.64,14.87-31.82,17.55-43,4.11-5.5-6.65-1.17-18.23,1.73-25.54,1.93-4.84,8.36-18.87,14.89-18.22C807,404.42,823.1,394.74,833,402.94Z"/><path d="M831.89,404c8.76,7.86,6.45,22.1,3.18,32C831.48,447,824,454.59,812,455.33a25.9,25.9,0,0,1-15.51-3.75c-6.85-4.39-8.19-10.71-6.37-18.31a73.07,73.07,0,0,1,5.28-14.37c2-4.1,4.79-10.33,9.13-12.4,1.26-.6,2.62-.64,3.91-1.17,1.75-.71,3.37-1.66,5.16-2.31,6.21-2.25,13-3,18.57,1.22,1.54,1.16,3-1.44,1.51-2.59-9.29-7-19.14-1.39-28.29,1.38-5.48,1.66-8.73,7-11.3,11.83a75.1,75.1,0,0,0-6.86,17.61c-1.48,6.2-1.62,12.72,2.9,17.68a26.34,26.34,0,0,0,16.38,8c12.45,1.5,24.4-4.55,29.45-16.13,5.15-11.82,9-30.33-2-40.15C832.58,400.6,830.45,402.71,831.89,404Z"/><path class="e" d="M806,341.08c-11-4.4-24.3-3.45-33.9,3.51S757.48,364.68,761.05,376s16.19,19.31,27.75,16.65c-3.66-6.38-14.93-2.87-16.6,4.29s3.44,14.31,9.62,18.29c15.47,10,38.77,4.31,48-11.62-4.94,8.86,4.81,20.16,15,20.5s19.08-6.3,26.65-13c9.56-8.51,19-18.68,20.69-31.36s-8.11-27.42-20.83-26c4.39,4.51,13.18.25,13.84-6s-4.82-11.89-10.93-13.4-12.54.17-18.42,2.39c7.63-5,7-17.38.68-24s-16.08-8.52-25.2-8.71c-7.47-.16-15.17.66-21.77,4.17s-11.89,10.11-12.22,17.57,5.45,15.16,12.91,15.51"/><path d="M806.43,339.63c-18.95-7.1-42.28,1-47.23,22-4.25,18.11,11.19,36.07,30,32.41a1.5,1.5,0,0,0,.9-2.2c-4.15-6.13-13-4.68-17.3.64-6.45,8,.72,18.82,7.66,23.58,16.36,11.2,40.58,4.82,50.63-11.75l-2.59-1.51C823.59,413,832.72,424,843,425.43c13.79,1.93,26.43-9.89,35.32-18.87s17.62-21.53,14.9-35c-2.1-10.46-10.65-20.19-22-19.36-1.18.09-2.12,1.65-1.06,2.56,7.1,6.13,17.8-1.36,16.26-10.1-2.6-14.82-20.74-13.21-31.11-9.42l1.15,2.74c8-5.89,8-17.64,2-25.1-7.63-9.58-22-11-33.38-10.26-11.83.79-24.82,6-28.61,18.37-3,9.79,3.16,20.66,13.59,21.76,1.92.21,1.9-2.79,0-3-11.31-1.19-13.84-14.73-8.28-22.91,5.93-8.73,16.82-11.22,26.76-11.35,8.78-.11,18.88,1,25.65,7.22,6.2,5.67,8.22,17.16.71,22.68-1.25.92-.58,3.37,1.16,2.74,7.58-2.76,17.51-5.29,24,1.16,2.77,2.74,4.63,7,2.58,10.73s-7.16,5.46-10.44,2.62l-1.06,2.56c10-.73,17.29,7.94,19.1,17.16,2.19,11.17-4.64,21.87-11.88,29.72-7,7.63-15.63,15.86-25.63,19.25-5.43,1.85-11.24,1.76-16.09-1.52s-8.49-9.6-5.66-15.48a1.5,1.5,0,0,0-2.59-1.51c-7.36,12.13-22.57,18.14-36.35,15-7.53-1.69-15.62-6.57-18.12-14.31-1.35-4.21-.57-8.53,3.17-11.05,3.19-2.15,7.91-2.66,10.31.88l.9-2.21c-18,3.51-31-15.14-25.53-31.45,6-17.82,26.33-23.36,42.77-17.21,1.81.68,2.59-2.22.79-2.89Z"/><path d="M819.61,354.3a22.1,22.1,0,0,0-9.86-7.8c-1.78-.73-2.56,2.17-.79,2.89a18.58,18.58,0,0,1,8.06,6.42c1.11,1.56,3.71.06,2.59-1.51Z"/><path d="M816.1,357.43a16.67,16.67,0,0,0-10.55-2.5c-1.91.18-1.93,3.18,0,3a14,14,0,0,1,9,2.09c1.64,1,3.15-1.57,1.51-2.59Z"/><path d="M851.81,391.19l9.79-1.47c1.9-.29,1.09-3.18-.8-2.89L851,388.3c-1.91.28-1.1,3.17.79,2.89Z"/><path d="M852.77,397.53a24.35,24.35,0,0,1,9.7,2.62c1.72.86,3.24-1.72,1.52-2.59a28.17,28.17,0,0,0-11.22-3c-1.93-.12-1.92,2.88,0,3Z"/><path d="M796.68,398.48l-7.46,2.93c-1.77.7-1,3.6.8,2.9l7.46-2.94c1.77-.69,1-3.6-.8-2.89Z"/><path d="M801.59,402.43l-3.49,3.86c-1.29,1.43.82,3.56,2.12,2.12l3.49-3.86c1.29-1.43-.83-3.56-2.12-2.12Z"/><path d="M810.78,403.72a16.23,16.23,0,0,0-1.79,7.94c.07,1.93,3.07,1.94,3,0a13.09,13.09,0,0,1,1.38-6.42c.87-1.72-1.72-3.24-2.59-1.52Z"/><path d="M843.89,334.51a17.75,17.75,0,0,0-.55-9c-.6-1.83-3.5-1-2.89.8a14.69,14.69,0,0,1,.55,7.41c-.36,1.88,2.53,2.69,2.89.79Z"/><path d="M839.71,332.79l-4.33-4.53c-1.34-1.4-3.46.72-2.12,2.12l4.33,4.53c1.33,1.4,3.45-.72,2.12-2.12Z"/><path d="M832,332.84,822,331c-1.89-.34-2.7,2.55-.8,2.9l10,1.81c1.88.34,2.69-2.55.79-2.89Z"/><path d="M845.82,382.43a58.91,58.91,0,0,1,24.79-1.05c1.89.32,2.7-2.57.8-2.9A63,63,0,0,0,845,379.54c-1.87.48-1.08,3.37.8,2.89Z"/><path d="M824.38,368.38a52.7,52.7,0,0,0-29.11-6.05c-1.91.15-1.93,3.15,0,3A49.61,49.61,0,0,1,822.86,371c1.71.9,3.23-1.69,1.52-2.59Z"/><path class="c" d="M808.62,412.15A137.73,137.73,0,0,0,799,425.23c-.88,1.38-1.77,2.91-1.62,4.54.2,2.29,2.31,3.87,4.22,5.14,2.12,1.4,4.63,2.87,7.06,2.12,2.16-.67,3.44-2.91,4.11-5.07,2-6.54.39-13.58-1.25-20.23C811.53,411.73,810.56,409.79,808.62,412.15Z"/><path d="M807.56,411.09c-2.93,3.6-5.76,7.27-8.36,11.12-1.7,2.53-3.9,5.38-3.09,8.6,1.2,4.81,9.28,9.49,13.92,7.23,6.37-3.12,5.51-13.74,4.56-19.34-.65-3.85-1.6-12.55-7-7.61-1.43,1.3.69,3.42,2.12,2.12.52-.47,2.52,10.39,2.54,11.46.08,4.45-.78,12.36-7.3,10.34-11.72-3.63.72-16.82,4.76-21.8C810.89,411.73,808.78,409.59,807.56,411.09Z"/><path class="b" d="M866.82,406.89a203.65,203.65,0,0,0-20.19,12.77c-3.3,2.37-6.64,5-8.48,8.58s-1.72,8.54,1.32,11.23,9,1.29,9.57-2.74c-8.11,17.09-3,37.32,3.4,55.11a413,413,0,0,0,33.94,71.58c12.09,20.21,26.81,40.17,48,50.47,22.26,10.83,50.24,9,70.76-4.87s32.73-39.23,30.55-63.89S1016.92,497.57,994.1,488c-17.23-7.25-36.53-7.1-54.88-10.64a136.93,136.93,0,0,1-50.5-20.93c-9.3-6.28-18.74-16.38-15.81-27.21,1-3.57,3.2-6.65,4.81-10s2.59-7.35.94-10.67-9.55-4.56-11.84-1.65"/><path d="M866.06,405.59a191,191,0,0,0-21.43,13.67c-4.28,3.22-8.63,7.22-9.13,12.9-.38,4.41,1.81,9.27,6.55,10.07a7.21,7.21,0,0,0,8.44-5.1c.43-1.58-2-2.75-2.75-1.15-9.14,20.35-2,42.63,5.49,62.31a414.9,414.9,0,0,0,30.91,64.3c10.2,17.22,22,34.33,38.54,46.08a74.06,74.06,0,0,0,55.18,12.66c38.08-6.36,65.4-44.06,58.49-82.36a72.18,72.18,0,0,0-28.27-44.77c-18.48-13.55-41.36-13.91-63.11-17.38a139,139,0,0,1-37.59-11.49c-11-5.23-24.26-12-30.68-22.87-3.87-6.56-3.12-12.5.44-19,2.19-4,4.59-8.38,3.65-13.11-1.24-6.26-10.41-9-15-4.53-1.39,1.34.73,3.45,2.13,2.12,1.8-1.73,5.15-1.43,7.21-.4,3.88,1.94,3.11,6.23,1.85,9.59-1.6,4.27-4.62,7.86-5.64,12.38-1.65,7.38,2,14.34,6.76,19.72,5.9,6.64,13.92,11.42,21.67,15.57a139,139,0,0,0,26.56,10.91c19.83,5.83,40.94,5.07,60.65,11.23a68.28,68.28,0,0,1,40.76,35.29c17.16,35-1.1,79.46-37.69,92.8-18.17,6.63-39.06,5.72-56.32-3.16-17.54-9-30.39-24.69-40.91-41a387.13,387.13,0,0,1-32.59-63.1c-8.74-21.31-20.05-47.6-9.86-70.3l-2.74-1.15c-1.14,4.21-5.57,3.38-7.62,1-1.83-2.18-1.81-4.56-.91-7.19,1.39-4,5-6.73,8.32-9.15a201.83,201.83,0,0,1,20.19-12.77c1.69-.94.18-3.53-1.51-2.59Z"/><path d="M722.76,708.9a31,31,0,0,0,20.49-14.67,1.5,1.5,0,0,0-2.59-1.52A28,28,0,0,1,722,706c-1.89.39-1.09,3.29.79,2.9Z"/><path d="M723.83,714.56a38.54,38.54,0,0,0,29.3-21.22c.85-1.73-1.73-3.25-2.59-1.52A35.86,35.86,0,0,1,723,711.67c-1.91.26-1.09,3.15.8,2.89Z"/><path d="M873.07,698.79a46.67,46.67,0,0,0,15.51,14.69c4.57,2.62,12,6.68,17.23,4.44,1.77-.76.25-3.34-1.51-2.59-4.35,1.85-12.71-3.39-16.18-5.64a43.2,43.2,0,0,1-12.46-12.41c-1.07-1.6-3.67-.1-2.59,1.51Z"/><path d="M880.39,697.78a42,42,0,0,0,25.05,16.43c1.89.41,2.69-2.48.8-2.9a38.89,38.89,0,0,1-23.26-15c-1.13-1.54-3.73,0-2.59,1.51Z"/><path d="M802.33,695.65l3.88,50.18c.14,1.91,3.15,1.93,3,0l-3.88-50.18c-.15-1.91-3.15-1.93-3,0Z"/><path d="M810.13,695.31c.14,9,3.24,17.64,3.09,26.59-.15,9.21-6,16.07-8.42,24.62a1.51,1.51,0,0,0,2.9.8c2.32-8.23,7.88-14.91,8.46-23.68.63-9.54-2.88-18.82-3-28.33,0-1.93-3-1.94-3,0Z"/><path class="c" d="M765.93,851.65l1.06,6.47a171.06,171.06,0,0,0,28,1.43,6.89,6.89,0,0,0,3.54-.77,4.71,4.71,0,0,0,1.92-3.26,14,14,0,0,0-.09-3.87c-11.41-.81-22.86-1.08-34.29-.79"/><path d="M764.48,852.05l1.06,6.47a1.52,1.52,0,0,0,1.45,1.1,168.64,168.64,0,0,0,27,1.45c6.18-.2,8.39-3.21,7.81-9.42a1.54,1.54,0,0,0-1.5-1.5q-17.13-1.17-34.29-.79c-1.93,0-1.93,3,0,3q17.16-.39,34.29.79l-1.5-1.5a7.19,7.19,0,0,1-3.87,6.4c-.88.38-2.78.06-3.74.07-2.81,0-5.61,0-8.41-.13-5.3-.21-10.57-.69-15.83-1.37l1.45,1.11-1.06-6.48c-.32-1.9-3.21-1.09-2.9.8Z"/><path class="e" d="M765.81,852.47c-.94-5.92,3-11.86,8.32-14.68s11.62-3,17.58-2.3c1.85.23,3.82.6,5.16,1.9,3.55,3.44,4.27,11.35,3.29,16.34-11.08,2.16-23,.54-34.2-.51"/><path d="M767.31,852.47c-.75-8.17,5.83-13.88,13.34-15.35a31.17,31.17,0,0,1,12.06,0c3.87.86,5.22,4,5.93,7.59.39,2,1.31,6.38-.64,7.86s-8.64.72-11.25.68c-7-.08-13.87-.9-20.79-1.56-1.92-.19-1.9,2.81,0,3,11.55,1.1,23.07,2.49,34.59.46a1.44,1.44,0,0,0,1.05-1c.8-4.81.7-10.29-1.53-14.74-2.36-4.7-6.76-5.45-11.64-5.7-11.35-.58-25.36,5.29-24.12,18.78.18,1.91,3.18,1.93,3,0Z"/><path d="M788,834c-.77-3.34-3.31-5.26-6.66-5.81-2.86-.47-8.05-.62-10.07,2a3.63,3.63,0,0,0,1.14,5.53c3.79,2.24,11.47-.09,15.48-.49a1.57,1.57,0,0,0,1.45-1.1,8.89,8.89,0,0,1,4.39-5.5l3.26-.9q2.19,3.69-.33,4c-2.36,1.56-7.43,1.32-10.12,1.47-1.92.11-1.94,3.11,0,3,3.59-.2,21.51-1.81,15.4-9.57-4.93-6.25-13.87,1.58-15.49,6.66l1.44-1.1-5.59.56c-1.16.11-4.49.9-5.59.56l-1.21,0c0-1.93.88-2.71,2.53-2.35,2.72-.91,6.41.84,7.08,3.75.43,1.88,3.32,1.09,2.89-.8Z"/><path class="c" d="M849.6,851.65l1.06,6.47a171.12,171.12,0,0,0,28,1.43,6.89,6.89,0,0,0,3.54-.77,4.69,4.69,0,0,0,1.93-3.26,13.58,13.58,0,0,0-.1-3.87c-11.4-.81-22.85-1.08-34.29-.79"/><path d="M848.16,852.05l1.06,6.47a1.5,1.5,0,0,0,1.44,1.1,168.71,168.71,0,0,0,27.05,1.45c6.17-.2,8.39-3.21,7.8-9.42a1.54,1.54,0,0,0-1.5-1.5q-17.13-1.17-34.29-.79c-1.92,0-1.93,3,0,3q17.17-.39,34.29.79l-1.5-1.5a7.19,7.19,0,0,1-3.87,6.4c-.87.38-2.78.06-3.74.07-2.8,0-5.61,0-8.41-.13-5.3-.21-10.57-.69-15.83-1.37l1.45,1.11-1.06-6.48c-.31-1.9-3.2-1.09-2.89.8Z"/><path class="e" d="M849.49,852.47c-1-5.92,3-11.86,8.32-14.68s11.62-3,17.57-2.3c1.86.23,3.83.6,5.17,1.9,3.54,3.44,4.27,11.35,3.28,16.34-11.07,2.16-23,.54-34.19-.51"/><path d="M851,852.47c-.75-8.17,5.82-13.88,13.34-15.35a31.12,31.12,0,0,1,12,0c3.87.86,5.23,4,5.94,7.59.39,2,1.3,6.38-.64,7.86s-8.65.72-11.25.68c-7-.08-13.88-.9-20.79-1.56-1.92-.19-1.91,2.81,0,3,11.54,1.1,23.07,2.49,34.59.46a1.45,1.45,0,0,0,1-1c.8-4.81.7-10.29-1.54-14.74-2.35-4.7-6.76-5.45-11.63-5.7-11.36-.58-25.36,5.29-24.12,18.78.17,1.91,3.18,1.93,3,0Z"/><path d="M871.68,834c-.77-3.34-3.31-5.26-6.67-5.81-2.85-.47-8-.62-10.06,2a3.62,3.62,0,0,0,1.14,5.53c3.78,2.24,11.46-.09,15.48-.49a1.58,1.58,0,0,0,1.45-1.1,8.91,8.91,0,0,1,4.38-5.5l3.26-.9q2.21,3.69-.33,4c-2.35,1.56-7.42,1.32-10.12,1.47-1.92.11-1.93,3.11,0,3,3.6-.2,21.51-1.81,15.4-9.57-4.92-6.25-13.86,1.58-15.49,6.66l1.45-1.1-5.59.56c-1.16.11-4.5.9-5.6.56l-1.2,0c0-1.93.87-2.71,2.52-2.35,2.72-.91,6.41.84,7.08,3.75.43,1.88,3.33,1.09,2.9-.8Z"/><path d="M764,763.28a19.82,19.82,0,0,0,3.27,10.5c1.06,1.61,3.66.11,2.59-1.51a16.85,16.85,0,0,1-2.86-9c0-1.93-3-1.94-3,0Z"/><path d="M776.33,771.31l1.09,6.54c.32,1.9,3.21,1.09,2.89-.8l-1.09-6.54c-.32-1.9-3.21-1.09-2.89.8Z"/><path d="M768.69,787.12l3.28,9.82c.6,1.82,3.5,1,2.89-.8l-3.27-9.82c-.61-1.82-3.51-1-2.9.8Z"/><path d="M781.75,798.17l.56,10.36c.1,1.92,3.1,1.93,3,0l-.56-10.36c-.1-1.92-3.11-1.93-3,0Z"/><path d="M792.09,782.91v12.54a1.5,1.5,0,0,0,3,0V782.91a1.5,1.5,0,0,0-3,0Z"/><path d="M789.5,764.74l2.71,9.27c.54,1.85,3.43,1.07,2.89-.79l-2.7-9.28c-.54-1.85-3.44-1.06-2.9.8Z"/><path d="M843.4,765.31l2.18,7.09c.57,1.84,3.46,1.05,2.89-.8l-2.18-7.09c-.56-1.84-3.46-1-2.89.8Z"/><path d="M850.06,782.18l3.24,10.91c.54,1.85,3.44,1.07,2.89-.79L853,781.38c-.55-1.85-3.45-1.06-2.9.8Z"/><path d="M856.49,769.67,859.76,780c.58,1.84,3.47,1.05,2.89-.8l-3.27-10.36c-.58-1.83-3.48-1-2.89.8Z"/><path d="M865.7,787.81v11.45a1.5,1.5,0,0,0,3,0V787.81a1.5,1.5,0,0,0-3,0Z"/><path d="M876,774.18l-1.08,8.72c-.23,1.91,2.77,1.9,3,0l1.08-8.72c.24-1.92-2.76-1.9-3,0Z"/><path d="M873.39,807l-.54,3.28a1.53,1.53,0,0,0,1,1.84,1.51,1.51,0,0,0,1.85-1l.54-3.27a1.53,1.53,0,0,0-1-1.84,1.51,1.51,0,0,0-1.85,1Z"/><path d="M858.18,806.19l2.17,9.28c.44,1.88,3.33,1.08,2.89-.8l-2.17-9.27c-.44-1.88-3.33-1.09-2.89.79Z"/><path d="M733.33,501.83A366.21,366.21,0,0,1,758.85,534c1.1,1.57,3.71.07,2.59-1.51a371.39,371.39,0,0,0-26-32.82c-1.28-1.44-3.4.69-2.12,2.12Z"/><path d="M613.63,516.27a117,117,0,0,0,90,33.35c1.92-.13,1.93-3.13,0-3a114,114,0,0,1-87.84-32.47c-1.38-1.36-3.5.76-2.12,2.12Z"/><path d="M1038.68,545.13a74.05,74.05,0,0,0-5.78-22.3c-1.69-3.86-4.07-7.39-5.7-11.26-1.31-3.12-2.52-6.24-4.12-9.25-5.81-11-14.32-20.42-24-28.15-20.09-16.1-45.3-25.38-69.51-33.26a387.51,387.51,0,0,0-56.1-13.66l2.1,3.69c1.92-8.14,13.26-20.37,2.26-27.11l.61,4.72c8.33-8.32,16.27-18.65,16.79-30.91.42-10.21-5.3-20.85-14.6-25.32v5.18c8.62-4.14,9.48-14.18,3.17-20.89-7.69-8.16-19.43-6.26-28.88-2.81l2.31,5.48c8.71-6.39,9-18.9,2.58-27.14-7.85-10.12-22.79-11.8-34.67-11-12.52.84-26.06,6.46-30.06,19.47-3.31,10.8,3.68,22.46,15,23.66v-6c-3.37-.15-5.92-1.17-9.22-1.88a40.71,40.71,0,0,0-13.92-.61A34.47,34.47,0,0,0,763.48,349c-11.4,15.36-7.21,37.39,11,45.09l-.61-4.71c-6.21,5.11-6,13.5-2,20,4.55,7.3,12.53,11.53,20.77,13.15l-1.79-4.41c-.94,2.13-1.81,4.28-2.65,6.46l2.9-2.21c-32.43,1.57-64.92,6.67-96,16.35-19,5.95-38.23,12.87-53.37,26.31A97.55,97.55,0,0,0,612,514.5l3.69-2.1-.23-.08c-2.89-1.07-5,3-2.92,5l.21.2-.78-2.91c-.62,2.72-2.83,7.61-.62,10,2.63,2.84,6.86-1.41,4.25-4.24l0,0c-1.41-1.53-4.67-.92-5,1.33a107.22,107.22,0,0,0,20,80.92c16.1,21.33,39.19,36.11,65,42.82l-2.09-2.1c4,11.68,8.24,23.33,13.15,34.67,2.15,5,4.26,12.2,9.79,14.24l-2.1-2.1a137.13,137.13,0,0,0,9.11,34.12,171.59,171.59,0,0,0,8.79,18.1c1.21,2.16,2.16,4.9,4.32,6.22,1.21.75,2.9.76,3.94,1.74s1.51,2.83,2.1,4.1c11.46,24.76,19.47,51,27.54,77l.78-2.92c-2.19,2.6-2.8,6.06.4,8.22,4,2.69,10.83.57,15.28.49l-2.9-2.21c0-.47-.08-.55-.08-.24a3,3,0,0,0,3,3c3.64-.21,7.13-.68,10.79-.54a3,3,0,0,0,2.9-2.2l.2-1.12-2.1,2.1c6.37-2.35,8.48-9.72,1.18-12.46l2.09,3.69c4.37-26.79,5.93-53.9,8.71-80.87L808.83,749a5.47,5.47,0,0,0,2.63-2.17l-4.1,1.08c4,1.8,8.16,3.45,12.36,4.88,2.72.92,4.3,1.11,5.5,3.81.82,1.82,1.5,3.73,2.2,5.6,3.33,8.79,6.18,17.75,8.86,26.76,5.19,17.43,9.62,35.08,14.79,52.51l.77-2.92c-4.05,4.32-6.3,9.57-5.09,15.51a3.08,3.08,0,0,0,2.89,2.21l.22,0L847,854c.27,1.63.53,3.26.8,4.89.23,1.41,1.67,2.05,2.89,2.2a178.07,178.07,0,0,0,20.5,1.5c4.39,0,11.2,1.13,14.32-2.89,2.67-3.45,2-9.55,1.56-13.61s-1.65-8.63-5-11.34l.78,2.92c.19-1.2.38-2.4.56-3.61l-2.1,2.1c3.21-.92,6.32-2.78,6.7-6.42s-2.57-5.79-5.7-6.39l2.2,2.9c3.18-24.17,4.81-48.51,7.11-72.78l-1.49,2.59c9.2-4.86,13.48-13,15.42-22.92,1.08-5.52,1.68-11.13,3-16.63,1.53-6.62,4.38-12.8,6.21-19.33,1-3.45,1.09-7.07,3.43-9.82a58.31,58.31,0,0,0,5.16-7.11q5.93-9.53,11.22-19.42a447.58,447.58,0,0,0,19-40.67l-3.69,2.09c23.07,4.47,47.57-1.18,65.09-17.24a74.54,74.54,0,0,0,23.72-59.91c-.3-3.82-6.3-3.85-6,0a68.81,68.81,0,0,1-20.86,54.64C995.9,615,972.89,620.64,951.46,616.5a3.11,3.11,0,0,0-3.69,2.09,421.28,421.28,0,0,1-21.57,44.94c-3.68,6.58-7.31,14.89-12.84,20.11-2.75,2.6-2.64,4.63-3.5,8.31a109.13,109.13,0,0,1-3.93,12.71,99.4,99.4,0,0,0-4.78,18.52c-.91,5.6-1.51,11.48-3.69,16.76A20.5,20.5,0,0,1,893,746.8c-1.87,1.86-5.27,2.86-6.76,4.89s-1,6.14-1.27,8.56q-.56,6.12-1.07,12.24c-1.55,18-3.06,35.92-5.41,53.79a3,3,0,0,0,2.2,2.89q.64,1.37-1,1.23a3,3,0,0,0-2.1,2.1c-.23,1.5-1,3.68-.56,5.2.4,1.27,1.61,1.94,2.31,3,2,3,2.54,8.78,1.78,12.26-.85,3.85-3.89,3.62-7.17,3.64q-3.75,0-7.48-.14c-5.3-.21-10.57-.69-15.83-1.37l2.9,2.21c-.27-1.63-.54-3.26-.8-4.89a3,3,0,0,0-2.9-2.2l-.22,0,2.89,2.2a9.94,9.94,0,0,1,1.91-7.69c1.12-1.61,2.46-2.45,2.47-4.5,0-2.23-1.44-5.1-2-7.25-.69-2.41-1.36-4.82-2-7.23-3-11-6-21.93-9.12-32.85-3.08-10.64-6.35-21.25-10.23-31.62-1.25-3.33-2.57-10-5.55-12.15-1.88-1.37-5.21-1.68-7.44-2.46q-5.15-1.78-10.1-4a3.11,3.11,0,0,0-4.11,1.08,17.3,17.3,0,0,0-1.56,1.09c-.55.74-.54,2.84-.61,3.47-.34,3.26-.64,6.52-.94,9.78-.7,7.5-1.34,15-2,22.52-1.36,15.06-2.9,30.1-5.33,45a3.11,3.11,0,0,0,2.09,3.69c-1.51-.57-3.31,3.24-3.47,4.1l2.89-2.2c-3.69-.14-7.12.33-10.79.54l3,3a6.12,6.12,0,0,0-.13-1.35,3,3,0,0,0-2.89-2.2c-2.31,0-4.56.13-6.85.36-.36,0-5.32.37-4.59,1.17.17.2.87-2,.88-2.12.09-1.16-.77-2.91-1.09-4-2.21-7.11-4.43-14.21-6.73-21.28-4.73-14.55-9.76-29-15.67-43.14-1.2-2.87-2.43-5.73-3.72-8.57-1.1-2.43-2.35-7-4.63-8.63-1.16-.82-2.94-.62-4.08-1.46s-1.94-2.91-2.7-4.27c-2-3.67-4-7.4-5.76-11.21a136,136,0,0,1-11.53-39.57,3,3,0,0,0-2.1-2.1c-2-.74-3.48-5.49-4.34-7.32-2.56-5.49-4.78-11.14-7-16.8q-2-5.3-3.94-10.63c-1.12-3.08-1.84-8.1-3.82-10.68-1.71-2.23-5.47-2.34-8-3.13a110.15,110.15,0,0,1-10.82-3.94c-25.59-11-47.27-31.79-57.68-57.79a101.46,101.46,0,0,1-6-52.88l-5,1.33,0,0c2.63,2.84,6.86-1.41,4.25-4.24l0,0,.78,2.92c.49-2.88,2.91-7.77.44-10.18l-2.92,5,.24.09a3,3,0,0,0,3.69-2.1,91.9,91.9,0,0,1,26-44.77c10.79-10.23,23-16.07,36.79-21.13-.41.15.19-.08.87-.35,1.08-.42,2.16-.84,3.25-1.24,3.29-1.22,6.61-2.35,9.95-3.42a346.58,346.58,0,0,1,35.44-9.2,397.42,397.42,0,0,1,61-7.59,3.14,3.14,0,0,0,2.89-2.2c.65-1.69,1.31-3.36,2-5s.3-4-1.79-4.41c-5.56-1.09-10.94-3.26-14.9-7.47-4.15-4.42-6.64-11.18-1.25-15.63,1.38-1.13,1.09-4-.6-4.71-16.5-7-18.93-27.26-6.47-39.48,6-5.91,14.64-8.45,23-8,5.6.29,10.58,2.55,16.16,2.8,3.92.18,3.76-5.6,0-6-10.19-1.07-11.86-13.55-7-20.65,5.66-8.25,16.07-10.49,25.46-10.61,8.38-.11,18.1.89,24.59,6.78,5.42,4.92,7.73,15.4,1,20.32-2.5,1.84-1.15,6.75,2.31,5.49,5.93-2.16,12.92-4.36,19-1.6s9.52,10.75,2.07,14.33a3,3,0,0,0,0,5.18c8.06,3.87,12.59,13.09,11.45,21.88-1.28,9.93-8,18.09-14.85,24.92a3,3,0,0,0,.6,4.72c5.63,3.44-3.92,15.68-5,20.32-.34,1.45.45,3.42,2.1,3.69a384.86,384.86,0,0,1,94.43,28.46c18.51,8.34,36.2,20.11,47.64,37.25,4.11,6.17,6.15,13.16,9.84,19.44a66.35,66.35,0,0,1,8.88,27C1033.06,548.94,1039.07,549,1038.68,545.13Z"/><path d="M798.39,834.8c-6.55-4.79-19-3.26-25.77.4s-11.11,11.13-9.55,18.81a3.08,3.08,0,0,0,2.89,2.21l.23,0L763.3,854c.26,1.63.53,3.26.8,4.89.23,1.41,1.67,2.05,2.89,2.2a177.91,177.91,0,0,0,20.5,1.5c4.27,0,10.88,1.1,14.08-2.59,2.84-3.29,2.22-9.2,1.87-13.22-.36-4.28-1.57-8.29-4.45-11.54-2.56-2.89-6.79,1.36-4.24,4.24,2.21,2.5,2.75,6.15,2.79,9.36,0,1.2.36,3.94,0,5-1,2.86-3.89,2.76-6.3,2.78a175.41,175.41,0,0,1-24.24-1.5l2.89,2.21c-.26-1.63-.53-3.26-.8-4.89-.22-1.38-1.67-2.08-2.89-2.2l-.23,0,2.9,2.2c-1.21-5.94,3.85-11.18,9-13,4.7-1.67,13.22-2.52,17.45.58C798.48,842.27,801.47,837.06,798.39,834.8Z"/><path class="b" d="M811.05,242.85c-93.44-3.75-112.6.92-199.5-27.37-25.47-8.29-51.93-20.29-62.09-41.08-7-14.32-4.85-30.92,3.09-44.91s21.24-25.57,36.1-35.08C638.87,62.26,705.37,53,769.1,50.06c82.15-3.78,165.36,1.33,244.54,19.58,28,6.46,57.24,15.61,74.05,35,19.82,22.86,16.5,55.8-3,78.86s-52.43,36.84-86.2,41.78c-12.26,1.79-143,4.55-153.58,9.87-15.82,7.92-22.61,23.55-28.28,38-.51-9.16-5.08-21.12-5.6-30.28"/><path d="M811.05,239.85c-38.72-1.54-78.07-.53-116.49-6.28A419,419,0,0,1,640,221.14c-22.32-6.47-45.82-12.82-65.65-25.29-9.09-5.72-17.55-13.16-22.3-23-5.69-11.76-4.58-25.62.74-37.29,10-21.93,32.1-36.7,52.76-47.49,43.73-22.83,94.15-30.44,142.81-33.85a982.89,982.89,0,0,1,163.3,2A803.87,803.87,0,0,1,994.22,68.5c23.63,4.8,48.34,9.85,69.72,21.48,20,10.86,34.82,28.87,34.06,52.57-.73,23.07-15.23,42.47-33.6,55.24-19.24,13.37-42.08,20.69-65.05,24.35-1.32.21-1.69.26-3.59.42-1.73.14-3.46.24-5.19.34-4.84.28-9.69.5-14.54.71-29,1.26-58,2.22-87,3.88-11.59.67-23.23,1.31-34.75,2.76a49.36,49.36,0,0,0-9.12,1.61c-7.34,2.4-13.8,8.85-18.33,14.86-5.82,7.72-9.56,16.68-13.08,25.61l5.89.8c-.78-10.29-4.81-20-5.6-30.28-.29-3.82-6.29-3.86-6,0,.79,10.29,4.82,20,5.6,30.28a3,3,0,0,0,5.9.8c5.67-14.39,14.6-34.11,30.59-37.05,10.53-1.94,21.46-2.31,32.12-3,30.41-1.9,60.88-2.88,91.33-4.18,8.18-.35,16.48-.43,24.62-1.4,22.25-2.66,45-10.16,64.08-22,18.57-11.51,34.4-28.36,39.79-50,5.22-21-.61-42.93-16.28-58-16.65-16-39.92-23.66-61.82-29.24a709.51,709.51,0,0,0-81.79-15.31C885.5,46.21,828.13,44.44,771,47c-50.66,2.24-102.8,7.73-150,27.36-21.93,9.12-44.08,21.33-60.26,39.05-15.59,17.06-24.81,41.91-13.25,63.75,10,19,31.33,29.43,50.52,36.76a520.08,520.08,0,0,0,66.48,19.94c36,8.45,72.36,9.69,109.12,10.76,12.48.37,25,.76,37.44,1.26,3.86.15,3.86-5.85,0-6Z"/><text class="f" transform="translate(607.13 154.68)">「嗯？好像還少了兩題？」</text><path d="M470.26,343.87c-15.95-3.5-28-18.62-29.92-34.84s5.39-32.76,17.25-44,27.81-17.51,44-19.73c12.12-1.67,25.07-1,35.68,5.07,12.12,7,19.64,20.57,21.07,34.48s-2.71,28-9.72,40.11c-7.19,12.42-17.77,24.57-16.54,38.86.91,10.6,8.25,19.45,11.6,29.53s-.3,24.57-10.9,25.38c-9.29.71-15.27-9.36-18.92-17.93-6.13-14.38-12.31-30.66-6.44-45.14,3.62-8.91,11.27-15.52,16.2-23.78,7.87-13.17,7.85-31.08-1.31-43.39s-27.45-17.35-41-10.18-19.52,26.47-11.22,39.37c2.77,4.31,6.76,7.72,9.56,12s4.2,10.17,1.35,14.42-11,4-12-1"/><path d="M550.8,439.15c-8.54.64-14.65,10.31-12.82,18.67s10.12,14.38,18.65,15.05c9.89.77,20.15-5.45,23.25-14.87s-2-21-11.32-24.38-21.12,3-22.72,12.78"/><path d="M1095.44,302.15c-2.45-14.57,4.92-29,16.32-35.08s25.94-4.38,38,2.66,21.74,18.94,28.5,32.14c5.07,9.89,8.7,21.12,7.53,31.84a35.3,35.3,0,0,1-18.85,27.43c-9.84,5-21.58,5.36-32.75,2.7-11.45-2.74-23.79-8.44-34-3.47-7.55,3.68-11.78,12.36-18.18,18s-18.27,6.47-22.22-2.35c-3.46-7.73,2.1-15.59,7.29-21.06,8.69-9.17,18.79-18.9,31.36-17.86,7.73.64,15,5.36,22.7,7.31,12.23,3.1,25.48-1.82,31.69-13s4.16-28.18-5.43-37.8-25.76-9.4-32.68,1.22c-2.31,3.54-3.57,7.88-5.86,11.44s-6.19,6.37-10.24,5.1-6.43-8.25-3.06-10.53"/><path d="M1050.41,397c-3.17-7.11-12.26-9.68-17.86-5.82s-7.44,12.57-5.24,20c2.55,8.65,10.4,15.7,18.35,15.77s14.91-7.46,14.45-16.35-8.89-17.2-16.63-15.89"/><path d="M345,871.54q187.14-3.64,374.31-4.68,187.32-1.05,374.62.53,105.54.9,211.07,2.61c3.86.06,3.86-5.94,0-6q-187.21-3-374.45-3.48T556,862.26q-105.5,1.23-211,3.28c-3.86.08-3.87,6.08,0,6Z"/></svg>
