<svg xmlns="http://www.w3.org/2000/svg" viewBox="0 0 870 583"><defs><style>.a{fill:#fff;}.b{fill:none;stroke:#000;stroke-miterlimit:10;}</style></defs><title>cloudUP</title><path class="a" d="M379,279.24c-22.1-20.11-52.26-30.64-82.26-31.1-29.53-.46-59.94,9.08-80.82,29.75s-30.51,53.19-20.15,80.57,42.41,46.11,70.83,38.17a66.85,66.85,0,0,0,23.55,56.71,68.35,68.35,0,0,0,60.49,13.08c3.66,20.57,29,34.21,48.42,26.06,4.45,14.9,19.09,26.21,34.76,26.88,6.07.25,12.19-.93,18.19,0,10.54,1.59,18.91,9.22,27.54,15.43,22.72,16.34,52.25,24.32,79.63,18.16s51.54-27.65,57.44-54.83c1.59,5.48,8.55,8,14.13,6.56s10-5.57,13.87-9.77c15.77-17,28.11-37.71,32.27-60.43s-.53-47.53-15.31-65.4-40.18-27.41-62.56-20.93c15-10.38,21-30.76,16.54-48.29s-18.14-31.9-34.49-39.92-35.13-10.21-53.35-9.09c-16.53,1-33.16,4.76-47.42,13.13s-25.95,21.7-30.09,37.58c.38-17.18-10.75-34.06-26.8-40.62s-36-2.35-47.92,10.11"/><path d="M381.16,277.12c-37.8-33.89-97.16-42.07-142.58-19.06-22,11.14-39.27,30.14-46.48,53.89-6.58,21.69-3.9,46,10.38,64.1,15.15,19.17,40.91,29.83,65,23.47l-3.79-2.89c-1.8,22,7.35,44.64,24.43,58.83C305.55,470,329.56,475,351.48,469.31l-3.69-2.1c4.49,22.44,30.9,36.53,52.1,28.17l-3.69-2.1a42.23,42.23,0,0,0,34.43,28.79c10.52,1.32,20.36-1.72,30.28,3.43,8.62,4.47,15.76,11.36,24,16.42,31.2,19.07,72.54,22.8,103.54,1.34,15.28-10.58,26.88-26.13,31.06-44.37h-5.79c2.27,6.09,8.14,9.42,14.57,9.13,8.42-.37,14.87-7,20.13-12.85,12.3-13.7,22.42-29.58,28.13-47.16,10.52-32.42,3.62-72-25.4-92.62-15.21-10.82-34.8-15.12-52.92-10.16l2.31,5.49c13.21-9.55,20.2-25.49,19.39-41.7-.85-16.9-10.32-32.19-23.28-42.66-15-12.11-34-17.54-53-18.61-19.78-1.11-40.64,1.73-58.62,10.31-17.73,8.46-32.41,23.49-37.73,42.69l5.9.79c.07-18.57-11.38-36.26-28.64-43.36s-38.09-2.44-51.2,10.73c-2.73,2.74,1.51,7,4.24,4.25,11.44-11.5,29.47-15.63,44.63-9.47s25,21.7,25,37.85c0,3.39,5,4.08,5.89.8,9.58-34.62,47.41-47.93,79.92-48.74,31.91-.79,70.2,12,79.45,46.31,4.43,16.42-.93,35.48-15,45.63-2.63,1.89-1.17,6.43,2.31,5.48,28.83-7.89,58.26,10,69.49,36.62,12.12,28.75,4.63,60.88-11.92,86.17a136.87,136.87,0,0,1-16,20.1c-3.14,3.27-6.88,6.86-11.47,7.86-3.91.84-8.92-.38-10.44-4.47-1-2.57-5.07-3.12-5.79,0-7.4,32.27-38.6,53.72-70.83,54.67-17.93.53-35.79-4.4-51.39-13.15-14.08-7.9-26-22.13-43.11-22.8-10.43-.42-19.65,1.38-29.3-3.86A35.92,35.92,0,0,1,402,491.69c-.46-1.42-2.13-2.71-3.69-2.1-18.33,7.23-40.82-4.48-44.72-24a3,3,0,0,0-3.69-2.1c-20.26,5.24-42.84.55-58.74-13.29a64.39,64.39,0,0,1-21.51-53.6c.16-2-2.05-3.36-3.8-2.89-19.95,5.27-41.07-2.59-55.06-17.25-15.28-16-19.28-39-13.72-60,12.27-46.45,61.56-67.91,106.26-65.06,26.95,1.71,53.41,11.86,73.59,30,2.87,2.57,7.13-1.66,4.25-4.24Z"/><path d="M300.71,460.6a40.89,40.89,0,0,0,21.79-12.81c2.55-2.88-1.67-7.14-4.24-4.25a35.44,35.44,0,0,1-19.15,11.27c-3.77.84-2.17,6.63,1.6,5.79Z"/><path d="M337.15,458.83l13.24-13.25c2.73-2.74-1.51-7-4.25-4.25l-13.23,13.25c-2.74,2.74,1.51,7,4.24,4.25Z"/><path d="M406.48,367.41a47.6,47.6,0,0,1-26.16,39.66c-3.45,1.74-.41,6.92,3,5.18a53.68,53.68,0,0,0,29.13-44.84c.22-3.86-5.78-3.85-6,0Z"/><path d="M410.49,402a22.49,22.49,0,0,1-9.76,11c-3.36,1.89-.34,7.07,3,5.18A27.66,27.66,0,0,0,415.67,405a3.1,3.1,0,0,0-1.07-4.1c-1.26-.76-3.47-.41-4.11,1.07Z"/><path d="M419,411.72l-9.55,15.7c-2,3.3,3.17,6.32,5.18,3l9.55-15.71c2-3.3-3.18-6.32-5.18-3Z"/><path d="M434.72,417.33a65.51,65.51,0,0,1-19,27.38c-2.92,2.53,1.33,6.76,4.24,4.24a71.52,71.52,0,0,0,20.52-30c1.32-3.64-4.48-5.2-5.78-1.6Z"/><path class="a" d="M297.33,175.14c-20.54,16.75-25,49.73-9.6,71.23s48.26,28.29,71,14.67c6.93,20.09,24.53,36.24,45.29,41.55A66.73,66.73,0,0,0,464,287.93c8,25,33.36,43.54,59.86,43.72s52.11-18,60.46-42.92c42.2-2.44,80.37-36.56,87.12-77.89s-18.6-85.63-57.87-101.12c14.5-18.94,7.49-48.22-10.45-64s-43.48-20.31-67.46-19.3c-47.7,2-94.21,24.16-125.58,59.81,2.11-16-9.5-31.86-24.69-37.78s-32.76-3.19-47.32,4.11a81.72,81.72,0,0,0-41.51,49.89,80.9,80.9,0,0,0,8.94,64"/><path d="M295.21,173c-16.64,14-23.34,37.71-17.69,58.56,5.88,21.73,25.31,36.26,47.21,39a56.77,56.77,0,0,0,35.55-7l-4.41-1.8a69.45,69.45,0,0,0,45.28,43.06c22.51,6.62,47.43.5,65-14.84l-5-1.33c8.81,26.41,34.75,45.74,62.75,45.93S578,315.81,587.2,289.53l-2.89,2.2c34.19-2.27,65.82-23.64,81.36-54.13s11.67-67-7.44-95.11a97.23,97.23,0,0,0-43.88-35.67l1.8,4.41c10.31-14,10.12-32.59,3.27-48.06-7.67-17.32-23.32-28.75-41-34.57C541,16.25,496.82,25.35,462.37,42.49A180.34,180.34,0,0,0,408,84.09l5.12,2.12c1.54-14.38-6.33-27.88-17.93-35.95-13.55-9.42-31.54-9.78-46.88-5-30.11,9.29-52.95,37.09-57,68.2A84.71,84.71,0,0,0,302.9,168c2,3.3,7.19.29,5.18-3-15.42-25.49-15.3-57.94,1.19-82.9C324.5,59,355.94,40.57,383.8,51c14.28,5.36,24.93,19.65,23.27,35.17-.28,2.58,3.48,4,5.12,2.12A177.4,177.4,0,0,1,506.53,33.2c33.14-7.26,80.34-7.72,102.27,23.3,10.67,15.11,13.57,36.22,2.17,51.7-1.27,1.73.19,3.76,1.79,4.41,29.33,11.86,50.64,40,55.67,71.08,5.16,31.78-9.22,63.09-34.27,82.65a91.29,91.29,0,0,1-49.85,19.39,3.13,3.13,0,0,0-2.9,2.2c-8.29,23.75-32.33,40.91-57.56,40.72s-49-17.63-57-41.52a3,3,0,0,0-5-1.33c-15.93,13.95-38.73,19.3-59.13,13.31a63.15,63.15,0,0,1-41.08-38.87,3,3,0,0,0-4.41-1.79c-21.69,12.55-52.76,6.75-67.31-14.15-14.45-20.74-9.6-51,9.51-67,3-2.49-1.31-6.71-4.24-4.24Z"/><path d="M479.33,270.57a65.06,65.06,0,0,0,18.81,43.75c2.71,2.75,7-1.49,4.24-4.24a58.84,58.84,0,0,1-17.05-39.51c-.13-3.85-6.14-3.87-6,0Z"/><path d="M497.58,284.74l12.34,17.88c2.18,3.16,7.38.16,5.18-3l-12.34-17.89c-2.18-3.16-7.38-.16-5.18,3Z"/><path d="M514,284.71l10.1,13.9c2.25,3.09,7.46.1,5.18-3l-10.1-13.9c-2.25-3.09-7.46-.1-5.18,3Z"/><path d="M529.88,286.37l8.79,8.89c2.72,2.76,7-1.49,4.24-4.24l-8.78-8.9c-2.72-2.75-7,1.49-4.25,4.25Z"/><path d="M373.4,209.93a51.1,51.1,0,0,0,33.86,43.12c3.65,1.28,5.22-4.51,1.59-5.78a44.86,44.86,0,0,1-29.45-37.34c-.38-3.8-6.38-3.84-6,0Z"/><path d="M387.72,216.5l7.58,12.63c2,3.31,7.17.3,5.18-3l-7.58-12.63c-2-3.31-7.18-.29-5.18,3Z"/><path d="M406.36,215.46l10.15,13.86c2.26,3.09,7.47.1,5.18-3l-10.15-13.86c-2.25-3.08-7.46-.09-5.18,3Z"/><path d="M431.93,217.76l6.31,12.64c1.73,3.45,6.91.41,5.18-3l-6.31-12.63c-1.73-3.46-6.91-.42-5.18,3Z"/><rect class="b" x="0.85" y="0.5" width="868.29" height="582"/></svg>