<svg xmlns="http://www.w3.org/2000/svg" viewBox="0 0 330 550"><defs><style>.a{fill:#f15a24;}.b{fill:#f88334;}.c{fill:#fff;}.d{fill:#ffbc18;}</style></defs><title>board-10</title><path class="a" d="M31.11,75.24c3.39,67.91,6.77,279.34,10.16,347.24L167.8,474c-2.7-81.47-1.8-280.41-2.85-363.12-44.56-9-90.34-25-133.68-34.74"/><path d="M29.61,75.24c2.11,42.59,2.9,85.26,4,127.89,1.3,52.23,2.46,104.48,4,156.71.6,20.88,1.2,41.77,2.23,62.64a1.6,1.6,0,0,0,1.11,1.45L167.4,475.44a1.51,1.51,0,0,0,1.9-1.45c-1.48-44.94-1.61-89.94-1.85-134.9-.28-53-.33-106-.53-159-.09-23.09-.18-46.17-.47-69.25a1.51,1.51,0,0,0-1.1-1.45c-45.16-9.23-88.76-24.54-133.68-34.73-1.88-.43-2.69,2.46-.8,2.89,44.92,10.2,88.53,25.5,133.68,34.73l-1.1-1.44c.57,45.26.54,90.53.67,135.79.14,52.91.26,105.82.86,158.73.26,22.87.57,45.74,1.32,68.6l1.9-1.44L41.67,421l1.1,1.44c-2.11-42.59-2.9-85.26-4-127.88-1.3-52.24-2.46-104.48-4-156.71-.6-20.89-1.2-41.78-2.23-62.65-.1-1.92-3.1-1.93-3,0Z"/><path class="b" d="M144.86,304.79c-10.47-3.18-21.32-12.46-25.16-22.71a36.36,36.36,0,0,1,3.18-31.51,24.78,24.78,0,0,1,9.68-9.3,15.54,15.54,0,0,1,13.15-.6s-1.18-90.86-1.46-112.85c-30.48-6.17-61.79-17.08-91.43-23.76l.46,14c2.32,46.45,4.06,239.07,6.38,285.51l86.54,35.23C145.38,414,144.86,304.79,144.86,304.79Z"/><path d="M145.26,303.34c-13.88-4.56-25.35-16.69-26.2-31.65-.77-13.44,9.21-36.15,26.25-29.58a1.51,1.51,0,0,0,1.9-1.44q-.59-44.85-1.16-89.69l-.3-23.16a1.52,1.52,0,0,0-1.1-1.45c-30.88-6.34-60.72-16.76-91.43-23.76a1.52,1.52,0,0,0-1.9,1.45q1.7,51,2.7,102.06c.88,47.91,1.56,95.82,2.58,143.72.38,17.92.68,35.86,1.56,53.77a1.6,1.6,0,0,0,1.1,1.45l86.54,35.23a1.51,1.51,0,0,0,1.9-1.45c-1.3-40.07-1-80.23-1.27-120.31q0-6.87-.07-13.74a1.5,1.5,0,0,0-3,0c.17,35.85.38,71.7.84,107.54.12,8.84.21,17.68.5,26.51l1.9-1.45L60.06,402.16l1.1,1.45c-1.88-38.07-2-76.26-2.7-114.36-.8-46.2-1.43-92.4-2.6-138.59-.39-15.54-1-31.07-1.54-46.6l-1.9,1.45c30.72,7,60.55,17.41,91.43,23.75l-1.1-1.44q.65,50.55,1.3,101.1.07,5.87.16,11.75l1.89-1.45c-17.56-6.77-29.58,14.54-30.08,29.19-.6,17.68,12.09,32.45,28.44,37.83C146.3,306.84,147.09,303.94,145.26,303.34Z"/><path class="c" d="M40.76,411c.17,4.16.34,8,.51,11.46L167.8,474c-.09-2.78-.18-5.71-.26-8.76Q103.84,438.85,40.76,411Z"/><path d="M39.26,411q.24,5.73.51,11.46a1.6,1.6,0,0,0,1.11,1.45L167.4,475.44a1.51,1.51,0,0,0,1.9-1.45q-.13-4.38-.26-8.76a1.57,1.57,0,0,0-1.1-1.45q-63.51-26.32-126.43-54.06c-1.75-.77-3.27,1.81-1.51,2.59q63.26,27.9,127.14,54.36l-1.1-1.44q.12,4.38.26,8.76l1.9-1.44L41.67,421l1.1,1.44q-.27-5.73-.51-11.46C42.18,409.09,39.18,409.08,39.26,411Z"/><path d="M147.21,240.67c-.09-37.63-1-75.24-1.46-112.85a1.51,1.51,0,0,0-1.1-1.45c-30.88-6.34-60.72-16.76-91.43-23.76-1.88-.43-2.69,2.47-.8,2.9,30.72,7,60.55,17.41,91.43,23.75l-1.1-1.44c.49,37.61,1.37,75.22,1.46,112.85a1.5,1.5,0,0,0,3,0Z"/><path d="M51.21,103.45c1.79,36.25,2,72.61,2.72,108.89.88,46.87,1.63,93.74,2.7,140.61.39,16.89.7,33.79,1.53,50.66a1.6,1.6,0,0,0,1.1,1.45l86.54,35.23a1.51,1.51,0,0,0,1.9-1.45c-1.46-44.81-1.2-89.71-1.34-134.54a1.5,1.5,0,0,0-3,0c.14,44.83-.12,89.73,1.34,134.54l1.9-1.45L60.06,402.16l1.1,1.45c-1.79-36.25-2-72.61-2.71-108.9-.89-46.86-1.64-93.74-2.71-140.6-.39-16.89-.7-33.79-1.53-50.66-.1-1.92-3.1-1.93-3,0Z"/><path class="a" d="M298.8,75.24c-3.39,67.91-6.78,279.34-10.17,347.24C246.46,439.65,210,456.67,167.8,473.84c2.71-81.47-3.89-280.26-2.85-363,44.57-9,90.34-25,133.69-34.74"/><path d="M297.3,75.24c-2.11,42.59-2.9,85.26-4,127.89-1.3,52.23-2.46,104.48-4,156.71-.6,20.88-1.2,41.77-2.24,62.64l1.1-1.44c-40.52,16.53-80.3,34.83-120.83,51.36l1.9,1.44c1.47-44.91.58-89.93-.07-134.85-.76-53-1.88-105.93-2.53-158.89-.29-23.08-.53-46.16-.25-69.23l-1.1,1.44c45.16-9.23,88.77-24.53,133.69-34.73,1.88-.43,1.08-3.32-.8-2.89-44.92,10.19-88.53,25.5-133.69,34.73a1.52,1.52,0,0,0-1.1,1.45c-.55,45.24.5,90.51,1.26,135.74.9,52.88,2,105.76,2.21,158.65.11,22.86.13,45.73-.62,68.58a1.51,1.51,0,0,0,1.9,1.45c40.53-16.53,80.3-34.83,120.83-51.36a1.58,1.58,0,0,0,1.1-1.45c2.11-42.59,2.91-85.26,4-127.88,1.3-52.24,2.45-104.48,4-156.71.61-20.89,1.21-41.78,2.24-62.65.1-1.93-2.9-1.92-3,0Z"/><path class="c" d="M31.11,75.24c36.05-34.59,87.08-58.8,137.05-58.92s94.42,24.5,130.64,58.92L165,110.87Z"/><path d="M32.17,76.3c28.35-27,64.1-46.93,102.56-54.93,38.12-7.92,76.67-1.58,110.92,16.68C264.76,48.24,282,61.46,297.74,76.3l.66-2.5L181.3,105c-5.34,1.43-11,3.63-16.47,4.39-.85.12,1,.1.29,0a14.34,14.34,0,0,1-2-.54l-8.39-2.23L86,88.29,31.5,73.8a1.5,1.5,0,0,0-.79,2.89L148.47,108c5,1.32,10.78,3.9,15.94,4.25,3.47.23,7.72-1.77,11-2.65l68.36-18.2L299.2,76.69a1.52,1.52,0,0,0,.66-2.51c-28.12-26.57-62-48.36-100.3-56.19-38.84-7.93-79,.07-114.17,17.43A224.41,224.41,0,0,0,30.05,74.18C28.64,75.51,30.77,77.63,32.17,76.3Z"/><path d="M146.1,239.22c-17.22-6.64-29.24,13.91-30,28.37-1,17.15,10.25,32.33,26.35,37.62,1.84.6,2.63-2.29.8-2.89A34.75,34.75,0,0,1,119,270.87c-.52-13.3,9.66-35.17,26.3-28.76,1.8.7,2.58-2.2.79-2.89Z"/><path d="M147.6,255.25a244,244,0,0,0,.18,32.45l-11.22-5.78,1.38-28.25c2.82.68,6.84.9,9.66,1.58"/><path d="M146.1,255.25a258.35,258.35,0,0,0,.18,32.45l2.26-1.29c-2.64-1.36-5.51-2.54-8-4.13-3.34-2.12-2.23-5.15-2.05-8.83l1-19.78-1.9,1.45c3.2.66,6.46.91,9.66,1.57,1.89.39,2.69-2.5.8-2.89-3.2-.66-6.46-.91-9.66-1.57a1.52,1.52,0,0,0-1.9,1.44l-1.38,28.25a1.5,1.5,0,0,0,.74,1.3L147,289a1.51,1.51,0,0,0,2.25-1.3,258.35,258.35,0,0,1-.18-32.45c.11-1.93-2.89-1.93-3,0Z"/><path d="M58.2,252.93a544.62,544.62,0,0,0,57.94,18.84,1.5,1.5,0,0,0,.8-2.89A544.68,544.68,0,0,1,59,250c-1.8-.7-2.58,2.2-.8,2.9Z"/><path d="M101.46,119.62l23.74,126.5c.34,1.8,2.76,1.13,3-.4l.31-2.67c.23-1.91-2.77-1.89-3,0l-.31,2.67,2.94-.4-23.74-126.5c-.35-1.9-3.24-1.09-2.89.8Z"/><path d="M52.76,129.14c23.37,40,45.72,80.53,69.09,120.5a1.5,1.5,0,0,0,2.59-1.52c-23.37-40-45.72-80.52-69.09-120.49a1.5,1.5,0,0,0-2.59,1.51Z"/><path d="M55.59,209.27c20.18,18.06,41.17,35.18,62.14,52.31,1.48,1.21,3.62-.9,2.12-2.12-21-17.13-42-34.26-62.14-52.32-1.44-1.28-3.57.83-2.12,2.13Z"/><path d="M56.78,263.91a541.91,541.91,0,0,0,60.61,18.83c1.88.46,2.68-2.43.8-2.9A541.21,541.21,0,0,1,57.58,261c-1.81-.68-2.6,2.22-.8,2.89Z"/><path class="c" d="M167.8,473.84c42.18-17.17,78.66-34.19,120.83-51.36.23-4.47.45-9.58.67-15.21Q229.9,438.14,168.07,464C168,467.46,167.91,470.75,167.8,473.84Z"/><path d="M168.2,475.29c40.53-16.53,80.3-34.83,120.83-51.36a1.58,1.58,0,0,0,1.1-1.45q.38-7.61.67-15.21a1.51,1.51,0,0,0-2.25-1.3q-59.27,30.75-120.88,56.63a1.58,1.58,0,0,0-1.1,1.44q-.1,4.9-.27,9.8c-.06,1.94,2.94,1.93,3,0q.16-4.89.27-9.8l-1.1,1.45q61.93-26,121.59-56.93l-2.26-1.29q-.3,7.61-.67,15.21l1.1-1.44c-40.52,16.52-80.3,34.83-120.83,51.36C165.64,473.12,166.41,476,168.2,475.29Z"/><path class="d" d="M175.57,109.93c5.44,125,2.56,231.54,3.8,358.53l-11.57,5.38-2.85-363Z"/><path d="M174.07,109.93c4.4,101.89,3.21,203.84,3.48,305.79q.06,22.39.24,44.79a35,35,0,0,0,0,4c0-.08.3,3,.46,2.84-.55.74-2.87,1.33-3.75,1.74l-7.49,3.49,2.25,1.29L169,437.68l-.68-86.35-.82-105-.72-90.78-.23-29.81-.07-9.31c0-1.14.51-4,0-5a1.78,1.78,0,0,1,0-.61l-1.5,1.5,10.62-.94c1.91-.17,1.93-3.17,0-3l-10.62.94a1.54,1.54,0,0,0-1.5,1.5l.29,36.16.68,86.35.82,105,.71,90.78.24,29.81c0,4.51-.71,9.83.11,14.29a4,4,0,0,1,0,.6,1.52,1.52,0,0,0,2.26,1.3l11.56-5.39a1.46,1.46,0,0,0,.75-1.29c-.9-92.77.57-185.56-1.29-278.32q-.79-40.12-2.51-80.21C177,108,174,108,174.07,109.93Z"/><path d="M58,307.25q29.54-12.12,60-21.83c1.83-.58,1-3.48-.8-2.89q-30.4,9.71-59.95,21.82c-1.76.73-1,3.63.8,2.9Z"/><path d="M58.54,354.65a562.81,562.81,0,0,1,64.15-65.94c1.45-1.27-.67-3.38-2.12-2.12a562,562,0,0,0-64.15,65.94c-1.22,1.48.89,3.61,2.12,2.12Z"/><path d="M63.41,402.62q37.65-49.89,79.5-96.4c1.29-1.43-.83-3.56-2.12-2.12q-42.06,46.75-80,97c-1.17,1.54,1.44,3,2.59,1.52Z"/><path d="M103,419.88c13-37.27,24-75.32,40.36-111.35.79-1.75-1.79-3.28-2.59-1.52-16.44,36.27-27.54,74.56-40.67,112.07-.64,1.83,2.26,2.61,2.9.8Z"/><polygon class="d" points="40.53 69.14 177.03 107.4 164.95 110.87 31.11 75.24 40.53 69.14"/><path d="M40.13,70.59l119.49,33.49,17,4.77V106l-7.46,2.14c-1.26.36-2.53.78-3.81,1.09s.12.21-.15.19c-1.82-.13-3.87-1-5.61-1.49L130.08,100,51,79,31.5,73.8l.36,2.74,9.43-6.1c1.61-1,.11-3.65-1.52-2.6L30.35,74a1.52,1.52,0,0,0,.36,2.74l126.76,33.74c2.15.57,4.67,1.67,6.9,1.83,4,.3,9.14-2.29,13.06-3.41a1.51,1.51,0,0,0,0-2.89L57.93,72.46l-17-4.77A1.51,1.51,0,0,0,40.13,70.59Z"/><path class="c" d="M66.25,119l-1.51,60c-.18,7-.08,14.82,4.68,20,2.81,3.07,6.84,4.67,10.72,6.18l53,20.62c.28-22.69.23-52,.51-74.71.06-4.6,0-9.48-2.36-13.4-2.8-4.57-8.17-6.79-13.23-8.53-18-6.21-32.88-8.48-51.81-10.18"/><path d="M64.75,119l-1.07,42.6c-.17,6.57-.44,13.14-.48,19.71,0,4.77.2,9.73,2.17,14.15,4.43,10,18,12.6,27.16,16.17l40.21,15.64a1.51,1.51,0,0,0,1.9-1.45c.17-14.22.21-28.44.28-42.67q0-10.78.13-21.59c0-6.08.74-12.54-.32-18.56-2.21-12.54-16.27-15.62-26.74-18.55-13.65-3.82-27.66-5.66-41.74-7-1.92-.18-1.91,2.82,0,3,13.23,1.21,26.39,2.92,39.24,6.38,6.21,1.67,13,3.34,18.64,6.44,7.11,3.89,8.08,10.38,8,17.79-.17,24.91-.21,49.81-.51,74.71l1.9-1.44L98.81,210.82c-6.09-2.37-12.2-4.69-18.27-7.11-6.22-2.49-11.5-5.35-13.38-12.25-1.44-5.26-1-11-.83-16.36l.47-18.39,1-37.76c0-1.93-3-1.93-3,0Z"/><path d="M87.44,149.15c-1.94.18-4.06.72-4.32,2.74a5.88,5.88,0,0,0,1.14,3.66c2,3.07,6,4.86,8.24,3.61s2.19-5.43-.26-8.18-6.61-3.08-7.58-.52"/><path d="M87.44,147.65c-2,.22-4.22.65-5.3,2.52-1.17,2-.23,4.6,1,6.38,2,3,6.93,6.14,10.47,3.69s2.05-7.73-.3-10.32-8-4.32-9.93-.21c-.82,1.73,1.77,3.26,2.59,1.51,1-2.08,3.9-.56,5,.61s2.62,4.29,1.1,5.79-4.18-.39-5.27-1.38-2.22-2.38-2.2-3.77,1.66-1.69,2.83-1.82c1.89-.2,1.92-3.2,0-3Z"/><path d="M84.55,161.89A46,46,0,0,0,74,176.72l13.38,6c1,.47,2.27.93,2.89.32.47-.46.39-1.36.29-2.18l-1.82-14.55a7.49,7.49,0,0,0-1-3.31c-.68-1-2.08-1.83-2.76-1.28"/><path d="M83.49,160.83A50.39,50.39,0,0,0,72.74,176a1.53,1.53,0,0,0,.54,2.05c4.68,2.11,9.82,5.42,14.82,6.62,3.43.82,4.2-1.56,3.9-4.54-.53-5.1-.69-10.9-2.09-15.82-.67-2.35-2.6-4.75-5.28-4-1.85.54-1.06,3.44.8,2.89s2.52,8.55,2.66,9.61c.18,1.43,1.7,6.79,1,8.08s-1,.52-2.41-.1L83,179.12l-8.17-3.69.53,2A48.22,48.22,0,0,1,85.61,163c1.39-1.34-.73-3.46-2.12-2.12Z"/><path d="M111.23,157.12c-1.85.38-3.84,1.16-3.9,3.27a6.36,6.36,0,0,0,1.42,3.65C111,167,115,168.42,117,166.9s1.61-5.82-1-8.4-6.65-2.49-7.34.26"/><path d="M110.83,155.67c-1.9.43-3.92,1.25-4.69,3.19-.85,2.15.22,4.54,1.55,6.24,2.19,2.79,7.11,5.55,10.39,2.86s1.52-8-1-10.52c-2.79-2.75-8.36-3.56-9.85.92-.61,1.83,2.29,2.62,2.89.8.85-2.53,4.52-.11,5.42,1.08s2.28,4.5.4,5.57c-1.7,1-4.32-.84-5.41-2-.75-.78-1.88-2.25-1.7-3.42s1.72-1.58,2.79-1.82c1.89-.42,1.09-3.32-.79-2.9Z"/><path d="M113.59,192.43a50.05,50.05,0,0,0,8.21-16.78l-13.43-4.46c-1-.34-2.27-.65-2.78.06a3.11,3.11,0,0,0,0,2.3L109,188.38a8.19,8.19,0,0,0,1.33,3.3c.78,1,2.2,1.62,2.78.95"/><path d="M114.88,193.19a54.41,54.41,0,0,0,8.36-17.14,1.53,1.53,0,0,0-1-1.85l-9-3c-1.85-.61-4-1.7-5.94-1.83-3.59-.25-3.57,2.6-3,5.37,1.1,5.18,1.77,11.66,4.05,16.44,1,2.19,3.15,3.86,5.53,2.72,1.74-.84.22-3.43-1.51-2.59-1.27.61-2.87-7.48-3.06-8.3-.55-2.38-2.51-6.7-2.12-9.07.27-1.62.28-1.25,2.25-.84a37.9,37.9,0,0,1,3.73,1.24l8.21,2.72-1.05-1.84a52.14,52.14,0,0,1-8.06,16.42c-1.15,1.56,1.46,3.06,2.59,1.52Z"/><path d="M100.16,153.65q-.87,17.7-2.62,35.32c-.19,1.92,2.81,1.9,3,0q1.75-17.62,2.62-35.32c.09-1.93-2.91-1.92-3,0Z"/><path d="M263,148.62q-30,109.19-53.59,220c-.4,1.88,2.49,2.68,2.9.79q23.52-110.78,53.59-220a1.51,1.51,0,0,0-2.9-.8Z"/><path d="M252.83,263.39l-18.22,52.66c-.63,1.83,2.27,2.61,2.89.8l18.22-52.66c.63-1.83-2.27-2.62-2.89-.8Z"/><path class="c" d="M141.69,259.53q-.67,10.2-2,20.33c-.24,1.91,2.76,1.89,3,0q1.28-10.14,2-20.33c.13-1.93-2.87-1.92-3,0Z"/><path d="M300.92,73.12c-23-21.77-49.62-40.2-79.71-50.7-30.38-10.61-62.87-11.57-94.06-3.94-31.52,7.71-61.05,23.28-86,43.86-3.13,2.58-6.2,5.26-9.18,8-2.27,2.1-3.68,3-3.77,6.07-.07,2.63.25,5.34.37,8q.43,10.11.79,20.23c1.47,39.93,2.61,79.86,3.74,119.79q1.81,64.2,3.45,128.4.6,23.13,1.18,46.26c.19,7.44-.11,15.08.56,22.51a9,9,0,0,1,0,.9,3.1,3.1,0,0,0,2.21,2.89L167,476.89a3,3,0,0,0,3.38-1.38,4.59,4.59,0,0,0,.39-2.36h-6a5.3,5.3,0,0,1,0,.69,3,3,0,0,0,3,3h0l-3-3h0c0,1.76,1.95,3.64,3.8,2.89,28.3-11.54,56.23-23.95,84.3-36q11-4.74,22.07-9.38,5.4-2.25,10.81-4.47c1.68-.69,4.41-1.15,5.44-2.87.64-1.06.45-2.8.48-4q.68-27.13,1.37-54.26,2.64-103,5.69-206c.87-28.16,1.64-56.33,3-84.47.19-3.86-5.81-3.85-6,0-2.9,58.37-4.06,116.85-5.67,175.26q-2.28,82.39-4.32,164.77c-.05,2.1-.31,4.31-.16,6.4.17,2.29-.17-2.07.36-1.33-.57-.8-21.55,9-24,10-31.71,13.46-63.14,27.61-95,40.62l3.79,2.9h0a3,3,0,0,0-3-3h0l3,3a5.3,5.3,0,0,0,0-.69c-.15-3.85-6.12-3.88-6,0,0,.93.11.71.43-.67l3.39-1.38L42.07,419.59l2.2,2.89c0-18-.89-36-1.35-53.94q-1.55-60.24-3.2-120.46Q38,186.43,36,124.78c-.48-14.31-1-28.63-1.61-42.94-.06-1.24-.12-2.47-.17-3.7-.14-2.85-.13-1.66,1.92-3.54A211.36,211.36,0,0,1,55.79,58.53,220.11,220.11,0,0,1,98.21,34.45c29.89-12.76,63.24-18.57,95.48-13,31.48,5.44,60.47,20.62,85.26,40.43,6.14,4.9,12,10.09,17.73,15.48C299.49,80,303.74,75.78,300.92,73.12Z"/><path d="M70.81,127.92l56.73,15.84a1.5,1.5,0,0,0,.79-2.9L71.61,125a1.5,1.5,0,0,0-.8,2.89Z"/><path d="M73,195.11q25.65,9.62,51.93,17.41c1.85.55,2.64-2.34.79-2.89q-26.26-7.78-51.92-17.41c-1.81-.68-2.59,2.22-.8,2.89Z"/><path class="c" d="M170.39,336.76c-16.62,60.2-30,136.54-46.58,196.74a42.6,42.6,0,0,1,19.63-1.82C153.71,473.87,170,402.9,186.6,346.58c.59-2,1.12-4.39-.2-6-1-1.2-2.65-1.54-4.18-1.8l-11.83-2"/><path d="M167.54,335.93c-15.25,55.46-24.79,112.36-37.48,168.43-3.3,14.6-5.13,13.88-9.1,28.31-.57,2.07,1.37,4.42,3.58,3.72a43.36,43.36,0,0,1,18.86-1.74,3,3,0,0,0,2.9-2.14c10.94-61.48,21.9-107.65,38.31-167.92q1.45-5.38,3-10.76c.94-3.29,2.54-6.9,2.56-10.36.06-9-12.6-8.5-18.94-9.57-3.73-.63-5.43,5.07-1.66,5.71s8.37.69,11.83,2c2.14.82,2.6,1.78,2.36,4.13a32.78,32.78,0,0,1-1.49,5.12q-2.73,9.5-5.25,19.05c-3.7,14-7.15,28-10.46,42.05q-10.38,44.16-19.07,88.68c-3,15.14-4.19,15-6.89,30.2l2.89-2.15a47.43,47.43,0,0,0-20.39,1.92l3.58,3.71c15.25-55.47,23.13-97.08,35.82-153.15,3.3-14.6,6.79-29.16,10.76-43.6,1-3.68-4.7-5.35-5.71-1.65Z"/><path d="M175.6,339l-4.72,15.49a1.49,1.49,0,0,0,2.86.83l4.72-15.49a1.49,1.49,0,0,0-2.86-.83Z"/><path d="M144.67,459.14C140.16,488,137.26,501.76,131,530.3c-.41,1.86,2.44,2.7,2.86.83,6.28-28.55,9.18-42.29,13.68-71.16.29-1.86-2.56-2.72-2.85-.83Z"/><path class="c" d="M273.61,383.78a8,8,0,0,0,.18-2.23c-.43-4.64-5.22-5.28-9.17-5.52-66.77-4-134.94-17.6-201.72-21.64l-4.12,16.93q106.73,9.44,213.32,20.11C272.63,388.7,273.14,386.14,273.61,383.78Z"/><path class="c" d="M36.62,462.44a4.52,4.52,0,0,0-.17,1.27c.15,4.75,4,5.24,7.28,5.5l206.79,16.55a5.25,5.25,0,0,0,2.89-.3,3.69,3.69,0,0,0,1.52-2.76c.86-4.2,1.81-9.07,2.82-14.36Q149,457.48,40.16,447.89Z"/><path d="M58.78,371.32,40.16,447.89Q149,457.46,257.75,468.34c4.46-23.42,10.15-55.37,14.35-76.91Q165.5,380.75,58.78,371.32Z"/><path d="M59.78,353.53l-16.54,68L34.59,457.1c-.68,2.79-1.86,6-1.09,8.87,1.06,3.92,4.23,5.62,8,6.23,7.72,1.24,15.77,1.33,23.55,2L161,481.84l49,3.92,23.45,1.88,10.66.85c3.11.25,7.07,1.33,10.12.1,3.84-1.55,4-6.09,4.74-9.63q1.57-8,3.09-16.09c2.25-12,4.44-24,6.65-36,2-10.88,4-21.77,6.11-32.63,1.65-8.51,5.12-19-6.64-21.1-7.76-1.36-16-1.2-23.84-1.88q-12.22-1.05-24.42-2.39c-17.73-1.94-35.41-4.22-53.1-6.53-34.55-4.5-69.12-9.06-103.92-11.22-4.16-.25-4.17,6.22,0,6.48,57.39,3.55,114.08,13.69,171.28,19.21q10.14,1,20.31,1.74c3.37.25,6.76.38,10.13.69,4,.36,6.35,1.26,5.42,5.89-1.88,9.39-3.63,18.8-5.38,28.22-3.88,20.88-7.59,41.79-11.68,62.63-.26,1.29-.3,4.75-1.17,5.82-1.39,1.74-7.65.19-9.81,0L218.55,480l-44.77-3.59-89.54-7.17-21.32-1.7-10.66-.86c-3-.24-7.61.37-10.31-.91-3.34-1.59-1.81-4.06-1.12-6.9l7.92-32.56,17.27-71c1-4-5.25-5.79-6.24-1.73Z"/><path d="M38.4,461.45C66,463.88,158.56,470.52,186.23,472c2.08.11,2.08-3.13,0-3.23C158.57,467.28,66,460.64,38.4,458.21c-2.07-.18-2.07,3.06,0,3.24Z"/><path d="M187.81,383q41.38,3.64,82.88,5.8c2.08.11,2.09-3.13,0-3.24q-41.49-2.14-82.89-5.8c-2.07-.18-2.07,3.06,0,3.24Z"/><path d="M62.2,367.55q41.19,5.43,82.55,9.4c2.07.19,2.22-3,.15-3.24q-41.37-4-82.56-9.4c-2.06-.27-2.2,3-.14,3.24Z"/><path class="c" d="M79.09,427.28c-1.92-.23-3.84,0-5.76-.25-1-.11-4.56-.67-5-1.41a6.08,6.08,0,0,1,0-2.79c.09-.73.21-2.2.82-2.69,1.33-1,6.58.9,7-1a37.09,37.09,0,0,0,.45-3.88c.23-2,1-3.84,1.18-5.8.15-1.33,1.11-7.62.35-8.31-1.09-1-6.15-.11-5.93-2,.09-.73.52-3.28,1-3.73s3.58-.47,4.6-.81c1.35-.45,2.68-1.6,4.1-1.76a13.09,13.09,0,0,1,3,.21c2,.23,3,.25,2.72,2.63-.34,2.93-1.05,5.82-1.38,8.75-.23,1.92-.18,3.92-.36,5.84-.14,1.61-.46,3.2-.64,4.8-.12,1-.45,5.51,0,6.17,1.59,2.27,5.87-1.87,4.94,6.18-.22,1.88-6.68.39-8,.24Z"/><path class="c" d="M97.65,407.58c1.37-4.66,2.91-9.12,7.73-11.16A8.1,8.1,0,0,1,108,396a12.34,12.34,0,0,1,2.65-.12c3.3.39,7,2.57,8.34,5.7.91,2.14,1,5.17,1.36,7.48.29,1.94.94,4.28.72,6.25-.63,5.45-3,10.74-7.59,13.87a13.75,13.75,0,0,1-2.35,1.54,14.94,14.94,0,0,1-4.39.23,19.5,19.5,0,0,1-5.31-1.82,8.14,8.14,0,0,1-1.55-1.8c-2.77-3.7-3.12-7.17-3.2-11.64a33.27,33.27,0,0,1,0-4.35A21.08,21.08,0,0,1,97.65,407.58Zm15.21-2.46c-.18-.81-2.47-2.65-3.25-2.74a5.25,5.25,0,0,0-3.48,1.63,40.54,40.54,0,0,0-2.41,8,47.74,47.74,0,0,0,.94,9.47c.18.86,1.85,2.86,2.72,3,.51.06,1.61-.7,2.06-.92a4.68,4.68,0,0,0,2-1.53c.63-1,1.71-5.93,1.87-7.3A53.61,53.61,0,0,0,112.86,405.12Z"/><path class="c" d="M128.72,432.5c-.72-.64-4.16-4.15-4.09-4.79.12-1,4.67-3.86,5.72-3.74a7.27,7.27,0,0,1,3.33,2.1,18.73,18.73,0,0,1,1,5.92c-.26,2.28-3.35,7.68-5.3,8.94a12.23,12.23,0,0,1-2.68,1.12,7.58,7.58,0,0,1-2.43.56c-.87-.1-1.74-3-1.65-3.76.17-1.47,4.67-1.13,6.27-6.14l0-.14Z"/><path class="c" d="M141.58,412.65c1.37-4.66,2.91-9.12,7.74-11.16a8.08,8.08,0,0,1,2.64-.39,12.33,12.33,0,0,1,2.65-.11c3.3.38,7,2.57,8.34,5.69.91,2.15,1,5.18,1.36,7.49.29,1.93.95,4.28.72,6.25-.63,5.44-3,10.73-7.58,13.87a12.84,12.84,0,0,1-2.36,1.53,14.92,14.92,0,0,1-4.39.24,20,20,0,0,1-5.31-1.82,8.42,8.42,0,0,1-1.55-1.8c-2.77-3.71-3.11-7.18-3.2-11.64a33.44,33.44,0,0,1,0-4.36A22.19,22.19,0,0,1,141.58,412.65Zm15.22-2.46c-.19-.81-2.48-2.65-3.26-2.74a5.29,5.29,0,0,0-3.48,1.64,40.44,40.44,0,0,0-2.41,8,47.12,47.12,0,0,0,.95,9.48c.18.85,1.85,2.85,2.72,3,.5.06,1.61-.69,2.05-.92a4.69,4.69,0,0,0,2-1.53c.63-1,1.7-5.92,1.86-7.3A53.7,53.7,0,0,0,156.8,410.19Z"/><path class="c" d="M169.45,415.87c1.38-4.66,2.91-9.12,7.74-11.16a8.08,8.08,0,0,1,2.64-.39,12.4,12.4,0,0,1,2.66-.11c3.29.38,7,2.57,8.33,5.69.92,2.15,1,5.17,1.36,7.49.29,1.93.95,4.28.72,6.25-.63,5.44-3,10.73-7.58,13.87A12.84,12.84,0,0,1,183,439a14.92,14.92,0,0,1-4.39.24,20,20,0,0,1-5.31-1.82,8.42,8.42,0,0,1-1.55-1.8c-2.77-3.71-3.11-7.18-3.2-11.64a33.44,33.44,0,0,1,0-4.36A22.19,22.19,0,0,1,169.45,415.87Zm15.22-2.46c-.19-.81-2.48-2.65-3.26-2.74a5.29,5.29,0,0,0-3.48,1.64,40.44,40.44,0,0,0-2.41,8,47.12,47.12,0,0,0,.95,9.48c.18.85,1.85,2.85,2.72,2.95.5.06,1.61-.69,2.05-.92a4.69,4.69,0,0,0,2-1.53c.63-1,1.7-5.92,1.86-7.3A53.7,53.7,0,0,0,184.67,413.41Z"/><path class="c" d="M197.32,419.09c1.38-4.66,2.91-9.12,7.74-11.16a8.08,8.08,0,0,1,2.64-.39,12.4,12.4,0,0,1,2.66-.11c3.29.38,7,2.57,8.33,5.69.92,2.15,1,5.17,1.36,7.49.29,1.93.95,4.28.72,6.25-.63,5.44-3,10.73-7.58,13.87a12.84,12.84,0,0,1-2.36,1.53,14.92,14.92,0,0,1-4.39.24,20,20,0,0,1-5.31-1.82,8.42,8.42,0,0,1-1.55-1.8c-2.77-3.71-3.11-7.18-3.2-11.64a33.44,33.44,0,0,1,0-4.36A23.17,23.17,0,0,1,197.32,419.09Zm15.22-2.46c-.19-.81-2.48-2.65-3.26-2.74a5.24,5.24,0,0,0-3.48,1.64,40.44,40.44,0,0,0-2.41,8,47.12,47.12,0,0,0,1,9.48c.18.85,1.85,2.85,2.72,3,.5.06,1.61-.69,2.05-.92a4.69,4.69,0,0,0,2-1.53c.63-1,1.7-5.93,1.86-7.3A53.7,53.7,0,0,0,212.54,416.63Z"/><path class="c" d="M232.65,423.6c0-.44,2.12-.33,2.5-.28a6.94,6.94,0,0,1,2,.52c.28.34,0,2.31-.1,2.7a21.17,21.17,0,0,0,.15,2.52c.17,4.65-.16,3.42,1.14,7.27a32.74,32.74,0,0,0,4.43,7.25c.42.39,2.86,1.85,2.82,2.15s-.41.43-.55.51a32.45,32.45,0,0,1-2.72,2.35,10.9,10.9,0,0,1-2.07-1.73,26,26,0,0,1-2.15-2.3c-.21-.26-3.07-5-3.11-5.16-.22-.83-.65-3.35-.9-3.9a13.57,13.57,0,0,0-1.35,1.77c-.58.74-1.22,1.47-1.8,2.21-2.31,2.89-2.11,3.87-5.42,5.47a6.83,6.83,0,0,1-1.92.8.65.65,0,0,1-.34-.17c-.69-.6-1.08-1.46-1.85-2a1.27,1.27,0,0,1-.4-.36A.29.29,0,0,1,221,443c0-.18.35-.32.49-.41,1.93-1.16,3-1.51,4.64-3.19a22.94,22.94,0,0,0,5.37-8.58,14.05,14.05,0,0,0,.78-2c.08-.72-.07-1.45,0-2.16Z"/></svg>