<svg xmlns="http://www.w3.org/2000/svg" viewBox="0 0 330 550"><defs><style>.a{fill:#fffcd9;}.b{fill:#fff;}.c{fill:#00b997;}.d{fill:none;}.e{fill:#ffbc18;}.f{fill:#9bd9da;}</style></defs><title>board-5</title><path class="a" d="M133.91,441.84l2,63,10.3-.07a665.81,665.81,0,0,0-3.4-75.64L132.33,440.9"/><path d="M132.41,441.84l2,63a1.52,1.52,0,0,0,1.5,1.5l10.3-.07a1.52,1.52,0,0,0,1.5-1.5,684.83,684.83,0,0,0-3.4-75.64c-.12-1.18-1.62-2.12-2.56-1.06l-10.45,11.75c-1.28,1.44.83,3.57,2.12,2.12l10.45-11.75-2.56-1.06a684.83,684.83,0,0,1,3.4,75.64l1.5-1.5-10.3.07,1.5,1.5-2-63c-.06-1.92-3.06-1.93-3,0Z"/><path class="a" d="M26.84,386.39l-.7,63.05,10.29.37a668.78,668.78,0,0,0-.18-75.72L25.31,385.38"/><path d="M25.34,386.39l-.7,63.05a1.52,1.52,0,0,0,1.5,1.5l10.29.37a1.53,1.53,0,0,0,1.5-1.5,683.09,683.09,0,0,0-.18-75.72A1.52,1.52,0,0,0,35.19,373L24.24,384.32c-1.34,1.39.78,3.51,2.13,2.12l10.94-11.29-2.56-1.06a683.09,683.09,0,0,1,.18,75.72l1.5-1.5-10.29-.37,1.5,1.5.7-63.05c0-1.93-3-1.93-3,0Z"/><path class="a" d="M301.5,334.78l2,63,10.3-.07a663.4,663.4,0,0,0-3.4-75.64l-10.45,11.75"/><path d="M300,334.78l2,63a1.54,1.54,0,0,0,1.5,1.5l10.3-.07a1.52,1.52,0,0,0,1.5-1.5,679.87,679.87,0,0,0-3.4-75.64c-.11-1.18-1.61-2.12-2.56-1.06l-10.45,11.75c-1.28,1.43.84,3.56,2.12,2.12l10.46-11.75-2.57-1.06a679.87,679.87,0,0,1,3.4,75.64l1.5-1.5-10.3.07,1.5,1.5-2-63c-.06-1.93-3.06-1.94-3,0Z"/><path class="b" d="M197.32,293.46l-.71,63.05,10.29.37a664.14,664.14,0,0,0-.18-75.72l-10.94,11.29"/><path d="M195.82,293.46l-.71,63.05a1.53,1.53,0,0,0,1.5,1.5l10.29.37a1.52,1.52,0,0,0,1.5-1.5,683.09,683.09,0,0,0-.18-75.72,1.52,1.52,0,0,0-2.56-1.06l-10.94,11.29c-1.34,1.39.78,3.51,2.12,2.12l10.94-11.29-2.56-1.06a683.09,683.09,0,0,1,.18,75.72l1.5-1.5L196.61,355l1.5,1.5.71-63.05a1.5,1.5,0,0,0-3,0Z"/><path class="b" d="M215.28,167.23c.4,57.6.31,139.5.7,197.1,0,4.59.16,9.49,2.76,13.28s8.65,5.52,11.81,2.19c.2-64.67.9-153.63,1.11-218.3l-16.57,3.07"/><path d="M213.78,167.23c.41,60.86.29,121.73.62,182.6,0,6.81-.47,13.91.39,20.68.62,4.9,2.64,9.69,7.45,11.72,2.94,1.24,8.64,1.36,9.81-2.43.87-2.84,0-7.31,0-10.33,0-3.56,0-7.12,0-10.68q.19-47.09.51-94.16.3-51.57.52-103.13a1.53,1.53,0,0,0-1.9-1.45l-16.57,3.08c-1.9.35-1.09,3.24.8,2.89l16.56-3.08-1.89-1.44c-.19,57.25-.62,114.5-.91,171.76q-.1,20.34-.18,40.69c0,2.24.54,3.92-1.42,5.26s-4.38.53-6.23-1c-3.54-2.92-3.82-8.07-3.92-12.34-.15-6.34-.09-12.7-.12-19.05q-.21-42.65-.26-85.29c-.07-31.44-.13-62.87-.34-94.3a1.5,1.5,0,0,0-3,0Z"/><path class="a" d="M24.66,373.14c43.24,18.41,72.61,34.59,112.68,59.17l183-118.83a716.31,716.31,0,0,0-68.2-25.88c-14.85-4.79-37.76-19.89-77.87,4.41-52.88,32-96.82,48.88-149.56,81.13"/><path d="M23.9,374.43c39.2,16.74,76.36,36.92,112.68,59.17a1.46,1.46,0,0,0,1.51,0l183-118.83c.84-.55,1.1-2.11,0-2.59-22.67-9.91-45.79-18.27-69.19-26.24-11.55-3.93-22.29-8.7-34.75-8.87-21.23-.3-38.57,10.88-56.28,21.11-21.09,12.19-42.82,23.19-64.54,34.2-24.53,12.43-48.9,25.14-72.39,39.46-1.65,1-.14,3.6,1.51,2.59,39.77-24.23,82.23-43.35,123-65.79,19.71-10.85,39.11-26.15,62.21-28.31,12.94-1.22,24.57,2.51,36.46,7.05,10.5,4,21.32,7.17,31.87,11.05q20.55,7.54,40.61,16.34v-2.59L199.78,390l-59,38.35c-3.35,2.18-4.25,1.72-7.4-.21l-6.2-3.76q-7.08-4.26-14.2-8.44-12.75-7.47-25.74-14.51c-20.11-10.84-40.78-20.58-61.79-29.55-1.75-.75-3.28,1.83-1.51,2.59Z"/><path class="a" d="M320.29,313.48v14.45l-183,118.83L24.66,387.59V373.14S112.2,414,137.34,432.31Z"/><path d="M318.79,313.48v9.64c0,1.19-.4,3.31,0,4.48.14.42,1.22-1.12.53-.82a37.12,37.12,0,0,0-5.13,3.32l-27.43,17.82L200.42,404l-61.69,40.07c-.41.27-1.63.77-1.87,1.21s1.26.71.79,0-2.63-1.39-3.34-1.76l-5.92-3.11L87.5,418.9l-45-23.62-13.66-7.17c-.81-.43-2.19-1.54-3.12-1.64s.64,0,.42.91c.34-1.35,0-3.22,0-4.6v-9.64l-2.26,1.29c29.89,14,59.68,28.44,88.53,44.45a238.65,238.65,0,0,1,24.15,14.72,1.44,1.44,0,0,0,1.51,0l61.84-40.16,98.54-64,22.58-14.67c1.61-1,.11-3.64-1.52-2.59L211.4,382.41,148.92,423l-8.3,5.39c-1,.66-2.64,2.22-3.86,2.5-.83.19,2.06.56.8-.26-1.08-.71-2.13-1.49-3.21-2.21-2.69-1.79-5.44-3.48-8.22-5.14-6.87-4.11-13.88-8-20.94-11.77-26.16-14-52.88-27.1-79.78-39.67a1.51,1.51,0,0,0-2.25,1.3v14.45a1.51,1.51,0,0,0,.74,1.3l98.73,51.84,14,7.33a1.51,1.51,0,0,0,1.51,0L208,402.65l100.71-65.41c3.78-2.46,7.94-4.69,11.5-7.47a3.05,3.05,0,0,0,1.58-2.17c1-4.16,0-9.81,0-14.12A1.5,1.5,0,0,0,318.79,313.48Z"/><path class="b" d="M97.75,294.88c.4,57.6.31,139.5.71,197.1,0,4.59.15,9.49,2.75,13.28s8.65,5.52,11.81,2.19c.21-64.67.9-153.63,1.11-218.3l-16.57,3.07"/><path d="M96.25,294.88c.42,60.86.3,121.73.62,182.59,0,6.82-.47,13.92.39,20.69.63,4.9,2.64,9.69,7.45,11.72,2.94,1.24,8.65,1.36,9.81-2.43.87-2.84,0-7.31,0-10.33q0-5.34,0-10.68.21-47.08.51-94.16.3-51.57.52-103.13a1.53,1.53,0,0,0-1.9-1.45l-16.57,3.08c-1.89.35-1.09,3.24.8,2.89l16.57-3.08-1.9-1.44c-.19,57.25-.61,114.5-.91,171.76q-.1,20.34-.18,40.69c0,2.24.54,3.92-1.41,5.26s-4.38.53-6.23-1c-3.54-2.93-3.82-8.08-3.92-12.34-.15-6.35-.09-12.7-.12-19q-.23-42.64-.26-85.29c-.07-31.44-.13-62.87-.35-94.3a1.5,1.5,0,0,0-3,0Z"/><path class="b" d="M3.77,271.46c.4,57.61.31,139.5.71,197.11,0,4.59.15,9.49,2.75,13.27S15.88,487.37,19,484c.21-64.67.9-153.64,1.11-218.31L3.58,268.81"/><path d="M2.27,271.46c.42,60.87.3,121.74.62,182.6,0,6.82-.47,13.91.39,20.69.63,4.89,2.64,9.68,7.45,11.71,2.94,1.25,8.64,1.37,9.81-2.42.87-2.84,0-7.32,0-10.33,0-3.56,0-7.12.05-10.68q.19-47.08.51-94.16.3-51.57.52-103.14a1.52,1.52,0,0,0-1.9-1.44L3.18,267.36c-1.89.36-1.09,3.25.8,2.9l16.57-3.08-1.9-1.45C18.46,323,18,380.24,17.74,437.49q-.1,20.36-.18,40.69c0,2.25.54,3.93-1.41,5.27s-4.38.53-6.24-1C6.38,479.52,6.1,474.37,6,470.11c-.15-6.35-.08-12.71-.12-19.05q-.21-42.65-.25-85.3c-.07-31.43-.13-62.86-.35-94.3a1.5,1.5,0,0,0-3,0Z"/><path class="b" d="M309.26,190.64c.4,57.6.31,139.5.71,197.1,0,4.59.15,9.49,2.75,13.28s8.65,5.53,11.81,2.19c.21-64.67.9-153.63,1.11-218.3L309.07,188"/><path d="M307.76,190.64c.42,60.87.3,121.73.62,182.6,0,6.82-.47,13.91.39,20.68.63,4.9,2.64,9.69,7.45,11.72,2.94,1.24,8.64,1.36,9.81-2.43.87-2.84,0-7.31,0-10.32,0-3.56,0-7.12.05-10.69q.19-47.07.51-94.16.3-51.56.52-103.13a1.53,1.53,0,0,0-1.9-1.45l-16.57,3.08c-1.89.35-1.09,3.24.8,2.89L326,186.36l-1.9-1.45c-.19,57.25-.61,114.51-.91,171.76q-.11,20.34-.18,40.69c0,2.25.54,3.92-1.41,5.26s-4.38.53-6.24-1c-3.53-2.92-3.81-8.07-3.92-12.34-.15-6.34-.08-12.7-.12-19q-.21-42.66-.25-85.3c-.07-31.43-.13-62.87-.35-94.3a1.5,1.5,0,0,0-3,0Z"/><path class="c" d="M326.4,149.92l-42.24,21.29.12,30.51a254.12,254.12,0,0,1,42.12-5.89Z"/><path d="M325.64,148.63,283.4,169.91a1.51,1.51,0,0,0-.74,1.3l.12,30.51a1.52,1.52,0,0,0,1.9,1.45,263.17,263.17,0,0,1,41.72-5.84,1.53,1.53,0,0,0,1.5-1.5V149.92a1.5,1.5,0,0,0-3,0v45.91l1.5-1.5a268.46,268.46,0,0,0-42.52,5.95l1.9,1.44q0-10.49-.08-21c0-1.59,0-3.18,0-4.77,0-.57-.55-3.81-.74-3.49.15-.25.78-.28,1-.49,1-1.13,3.74-1.89,5.1-2.57l8.42-4.25,27.72-14C328.88,150.35,327.37,147.76,325.64,148.63Z"/><path class="b" d="M106.09,260.94V316a391.58,391.58,0,0,1,33.17-34.77q.09-18.71.8-37.4Z"/><path d="M104.59,260.94V316a1.51,1.51,0,0,0,2.56,1.06,400,400,0,0,1,30.47-32.24c2.37-2.25,3.09-2.41,3.15-5.56.08-3.94.08-7.88.14-11.81q.21-11.82.65-23.62a1.52,1.52,0,0,0-2.26-1.29l-34,17.11c-1.72.87-.21,3.46,1.52,2.59l34-17.11-2.26-1.3q-.41,10.81-.61,21.65-.1,5.41-.15,10.82c-.05,4.52-1.9,6-5,8.95A401.78,401.78,0,0,0,105,314.93l2.56,1.06V260.94A1.5,1.5,0,0,0,104.59,260.94Z"/><path class="b" d="M176.94,225.24q-.19,12.82-.38,25.65a332.9,332.9,0,0,1,36.1-22.3q0-10.67-.08-21.31Z"/><path d="M175.44,225.24q-.19,12.82-.38,25.65a1.51,1.51,0,0,0,2.26,1.3,347.55,347.55,0,0,1,36.1-22.31,1.47,1.47,0,0,0,.74-1.29q0-10.67-.08-21.31a1.52,1.52,0,0,0-2.26-1.3l-35.64,18c-1.73.87-.21,3.46,1.51,2.59l35.65-18-2.26-1.29.06,15.49c0,3.16.22,4.47-2.47,6.27-2.28,1.51-4.87,2.7-7.23,4.07-8.79,5.1-17.32,10.63-25.64,16.49l2.26,1.29q.18-12.82.38-25.65A1.5,1.5,0,0,0,175.44,225.24Z"/><path class="c" d="M140.06,243.82q-.7,18.69-.8,37.4a366.68,366.68,0,0,1,37.3-30.33q.18-12.82.38-25.65Z"/><path d="M138.56,243.82q-.69,18.69-.8,37.4a1.52,1.52,0,0,0,2.56,1.06,374,374,0,0,1,31-25.76c1.75-1.29,5-2.82,6.29-4.57,1-1.36.47-3.41.5-5q.15-10.86.32-21.71a1.52,1.52,0,0,0-2.26-1.3L139.3,242.53c-1.72.86-.2,3.45,1.52,2.59l36.87-18.59-2.25-1.29q-.15,9.87-.29,19.73c-.06,3.47-.17,5.19-3.1,7.32q-3.74,2.72-7.4,5.53-13.74,10.56-26.45,22.34l2.56,1.06q.12-18.71.8-37.4C141.63,241.89,138.63,241.89,138.56,243.82Z"/><path class="b" d="M248.54,189.16q-.18,11.67-.35,23.35a273.14,273.14,0,0,1,36.09-10.79l-.12-30.51Z"/><path d="M247,189.16q-.18,11.67-.35,23.35a1.5,1.5,0,0,0,1.9,1.44,288.86,288.86,0,0,1,36.09-10.78,1.52,1.52,0,0,0,1.1-1.45l-.12-30.51a1.52,1.52,0,0,0-2.26-1.3l-35.62,18c-1.73.86-.21,3.45,1.51,2.59l35.63-18-2.26-1.3.12,30.51,1.1-1.44a287.69,287.69,0,0,0-36.09,10.78l1.9,1.45q.18-11.67.35-23.35A1.5,1.5,0,0,0,247,189.16Z"/><path class="c" d="M212.58,207.28q0,10.65.08,21.31a298.68,298.68,0,0,1,35.53-16.08q.18-11.67.35-23.35Z"/><path d="M211.08,207.28q0,10.65.08,21.31a1.52,1.52,0,0,0,2.26,1.29A312.2,312.2,0,0,1,248.59,214a1.55,1.55,0,0,0,1.1-1.44q.18-11.67.35-23.35a1.52,1.52,0,0,0-2.26-1.29l-36,18.11c-1.72.87-.21,3.46,1.52,2.59l35.95-18.11-2.25-1.3q-.18,11.67-.35,23.35l1.1-1.45a318.49,318.49,0,0,0-35.88,16.23l2.25,1.3q0-10.67-.08-21.31A1.5,1.5,0,0,0,211.08,207.28Z"/><path class="c" d="M24.19,240.93q-.68,14.91-.7,29.84A75.74,75.74,0,0,1,47,272.83c.21-8.22.75-16.42,1.54-24.6Q36.44,244.32,24.19,240.93Z"/><path d="M22.69,240.93Q22,255.84,22,270.77a1.51,1.51,0,0,0,1.5,1.5,79.31,79.31,0,0,1,23.08,2,1.52,1.52,0,0,0,1.9-1.45c.24-8.22.77-16.42,1.54-24.6a1.52,1.52,0,0,0-1.1-1.45q-12.09-3.89-24.32-7.3a1.5,1.5,0,0,0-.8,2.89q12.24,3.42,24.32,7.3L47,248.23c-.77,8.18-1.3,16.38-1.54,24.6l1.89-1.45a82.57,82.57,0,0,0-23.87-2.11l1.5,1.5q.06-14.92.7-29.84C25.77,239,22.77,239,22.69,240.93Z"/><path class="b" d="M3.58,235.58V275a73.73,73.73,0,0,1,19.9-4.19q0-14.92.7-29.84C17.35,239,10.48,237.23,3.58,235.58Z"/><path d="M2.08,235.58V275A1.51,1.51,0,0,0,4,276.4a79.29,79.29,0,0,1,19.5-4.13,1.52,1.52,0,0,0,1.5-1.5q.06-14.92.7-29.84a1.52,1.52,0,0,0-1.1-1.45Q14.33,236.65,4,234.13c-1.88-.45-2.68,2.44-.8,2.89,6.9,1.67,13.77,3.47,20.61,5.35l-1.1-1.44Q22,255.84,22,270.77l1.5-1.5a82,82,0,0,0-20.3,4.24L5.09,275V235.58A1.5,1.5,0,0,0,2.08,235.58Z"/><path class="b" d="M48.51,248.23c-.79,8.18-1.33,16.38-1.54,24.6a71.89,71.89,0,0,1,10,3.29,81.63,81.63,0,0,1,13.31,7.12l.9-27.17Q59.93,251.93,48.51,248.23Z"/><path d="M47,248.23c-.77,8.18-1.3,16.38-1.54,24.6a1.52,1.52,0,0,0,1.1,1.45,79.77,79.77,0,0,1,23,10.26,1.52,1.52,0,0,0,2.26-1.3l.9-27.17a1.53,1.53,0,0,0-1.1-1.44q-11.27-4.14-22.68-7.85c-1.84-.6-2.63,2.3-.8,2.89q11.42,3.72,22.68,7.85l-1.1-1.45-.9,27.17L71.05,282a82.52,82.52,0,0,0-23.69-10.57l1.11,1.45c.24-8.22.77-16.42,1.54-24.6C50.19,246.31,47.19,246.32,47,248.23Z"/><path class="c" d="M104.49,268.66c-9.15-3.9-24-9.15-33.3-12.59l-.9,27.17c12.78,8.33,28.43,20.54,34.2,32.75Z"/><path d="M104.89,267.22c-10.94-4.61-22.17-8.5-33.3-12.59a1.51,1.51,0,0,0-1.9,1.44q-.37,11.16-.74,22.32c-.06,1.89-.72,4.22.28,5.91s5.07,3.42,6.87,4.71c10.38,7.37,21.3,16.13,27.1,27.74.68,1.37,2.79.67,2.79-.76V268.66a1.5,1.5,0,0,0-3,0V316l2.8-.75c-5-10.1-13.86-17.94-22.66-24.74-2.24-1.73-4.53-3.4-6.85-5-3.4-2.37-4.47-2.75-4.33-7.08q.38-11.16.74-22.32l-1.9,1.45c11.14,4.09,22.37,8,33.3,12.59C105.87,270.86,106.64,268,104.89,267.22Z"/><path class="d" d="M152.63,109c-1.77-.93-3.55-1.87-5.35-2.8.11.63.21,1.26.32,1.89C149.1,108.32,150.79,108.63,152.63,109Z"/><path class="d" d="M143.53,107.83c.95.92,1.9,1.85,2.85,2.8.09-.72.18-1.45.26-2.16Z"/><path class="d" d="M147.28,106.15l-.45-.24c.19.69.39,1.4.59,2.1l.18,0C147.49,107.41,147.39,106.78,147.28,106.15Z"/><path class="e" d="M147.71,108.69l7.31,1.54L152.63,109c-1.84-.32-3.53-.63-5-.91C147.63,108.26,147.67,108.47,147.71,108.69Z"/><path d="M147.31,110.14c2.44.5,4.88,1,7.31,1.54,1.6.34,2.73-1.9,1.16-2.74a12.74,12.74,0,0,0-3.84-1.63L148,106.6a1.52,1.52,0,0,0-1.85,1.84c0,.22.07.43.11.65.32,1.9,3.21,1.09,2.89-.8,0-.22-.07-.43-.11-.65l-1.84,1.85,3.42.62a11.84,11.84,0,0,1,3.64,1.42l1.16-2.74c-2.44-.53-4.87-1-7.31-1.55C146.22,106.85,145.42,109.74,147.31,110.14Z"/><path class="c" d="M283.25,170.27c14.18-7.27,28.53-14.11,43.15-20.35-25.63-16.88-135-34.09-173.77-41l2.39,1.28C207.78,121.59,258.79,137.4,283.25,170.27Z"/><path d="M284,171.57c14.17-7.25,28.53-14.08,43.15-20.35,1.1-.47.84-2.05,0-2.59-7-4.55-15.31-7.29-23.24-9.82-11.64-3.71-23.52-6.68-35.42-9.43-26.81-6.19-53.9-11.15-81-15.89-11.49-2-23-3.95-34.47-6-1.57-.28-2.76,1.88-1.16,2.74,5.36,2.86,11.94,3.43,17.84,4.83,6.33,1.49,12.65,3.08,18.92,4.8a337.28,337.28,0,0,1,36.39,12C246.46,140.43,267.78,152.3,282,171c1.15,1.52,3.76,0,2.59-1.52-13.67-18-33.48-29.9-54.05-38.62a309.74,309.74,0,0,0-35.42-12.32c-6.49-1.87-13-3.58-19.59-5.19-7-1.71-15.75-2.33-22.1-5.72l-1.16,2.74C200.88,119,250.36,126,297.81,140.07c9.45,2.81,19.48,5.75,27.83,11.15v-2.59c-14.62,6.27-29,13.1-43.14,20.35C280.78,169.85,282.29,172.44,284,171.57Z"/><path class="e" d="M148.85,113.1c-.34-1.2-.67-2.39-1-3.57.17,1,.35,2.06.52,3.09Z"/><path d="M150.29,112.7c-.33-1.19-.66-2.38-1-3.57a1.5,1.5,0,1,0-2.89.8c.12.73.25,1.46.37,2.19a4.53,4.53,0,0,0,.23,1.08,3,3,0,0,0,.79,1,1.5,1.5,0,0,0,2.12-2.12l-.48-.48.38.66c-.16-1-.34-2.06-.52-3.09l-2.89.8c.34,1.19.67,2.38,1,3.57A1.5,1.5,0,0,0,150.29,112.7Z"/><path class="e" d="M147.85,109.53c0-.28-.1-.56-.14-.84l-.1,0Z"/><path d="M149.29,109.13c0-.28-.09-.56-.14-.84a1.46,1.46,0,0,0-1-1.05l-.11,0a1.51,1.51,0,0,0-1.84,1.85l.24.86a1.5,1.5,0,0,0,2.89-.8l-.24-.86-1.84,1.84.1,0-1.05-1c.05.28.09.56.14.84a1.5,1.5,0,0,0,2.89-.8Z"/><path class="c" d="M155,110.23l-7.31-1.54c0,.28.09.56.14.84.33,1.18.66,2.37,1,3.57,27.06,27.48,50.25,60.92,63.33,97.08,11.67-7,23.38-13.83,35.18-20.5C230.5,157.27,197.27,132.88,155,110.23Z"/><path d="M155.42,108.79l-7.31-1.55a1.53,1.53,0,0,0-1.85,1.85c.82,4.87,3,6.48,6.26,10s6.59,7.15,9.76,10.83a295.62,295.62,0,0,1,19.77,25.66,249.63,249.63,0,0,1,28.69,55,1.51,1.51,0,0,0,2.2.89Q230.43,201,248.12,191a1.55,1.55,0,0,0,.54-2.06c-19.57-37-57.06-60.71-92.88-80-1.7-.92-3.22,1.67-1.52,2.59,35.4,19,72.47,42.3,91.81,78.91l.53-2.06q-17.72,10-35.17,20.5l2.2.9a251.4,251.4,0,0,0-27.53-53.59c-5.37-8-11.15-15.7-17.26-23.14q-4.92-6-10.13-11.7c-3.51-3.87-8.65-7.69-9.56-13.06l-1.84,1.85c2.44.5,4.88,1,7.31,1.54C156.51,112.08,157.31,109.19,155.42,108.79Z"/><path class="c" d="M148.37,112.62a329.62,329.62,0,0,1-8.5,141c12.33-7.25,24.61-14.65,36.88-22.07-7.52-39.4-18.39-84.23-27.9-118.42Z"/><path d="M146.92,113a330.86,330.86,0,0,1-8.5,140.17,1.52,1.52,0,0,0,2.21,1.69c12.34-7.26,24.62-14.65,36.88-22.06a1.58,1.58,0,0,0,.69-1.7c-4.1-21.37-8.77-42.62-13.83-63.78q-3.66-15.3-7.61-30.54-1.86-7.16-3.79-14.31c-.84-3.14-1.19-8.58-3.54-10.93a1.5,1.5,0,0,0-2.12,2.12c1.27,1.27,1.48,4.84,1.94,6.54q.84,3.09,1.67,6.18,1.94,7.23,3.8,14.49,3.83,14.9,7.38,29.86c4.82,20.3,9.28,40.68,13.2,61.17l.69-1.69c-12.26,7.41-24.53,14.8-36.88,22.06l2.21,1.69a334.7,334.7,0,0,0,8.49-141.76C149.52,110.32,146.63,111.13,146.92,113Z"/><path class="b" d="M176.75,231.52c11.8-7.13,23.59-14.28,35.43-21.34-13.08-36.16-36.27-69.6-63.33-97.08C158.36,147.29,169.23,192.12,176.75,231.52Z"/><path d="M177.51,232.82q17.7-10.71,35.43-21.35a1.51,1.51,0,0,0,.69-1.69C200.11,172.86,177.31,140,149.91,112a1.51,1.51,0,0,0-2.51,1.46c10.84,39.07,20.27,78.6,27.9,118.42.37,1.9,3.26,1.09,2.9-.8-7.63-39.82-17.06-79.35-27.91-118.42l-2.5,1.46c27,27.6,49.61,60,63,96.42l.69-1.7q-17.76,10.6-35.44,21.35A1.5,1.5,0,0,0,177.51,232.82Z"/><path class="b" d="M155,110.23c42.25,22.65,75.48,47,92.34,79.45q17.79-10.06,35.89-19.41C258.79,137.4,207.78,121.59,155,110.23Z"/><path d="M154.26,111.53c35.4,19,72.47,42.3,91.81,78.91a1.53,1.53,0,0,0,2.05.54q17.78-10,35.89-19.41a1.51,1.51,0,0,0,.54-2.06c-13.51-17.84-33-29.63-53.33-38.32-24.28-10.38-50.06-16.84-75.8-22.4-1.88-.41-2.69,2.48-.8,2.89,24.6,5.32,49.25,11.44,72.57,21,20.67,8.52,41.06,20.19,54.77,38.3l.54-2.05c-12.1,6.22-24.05,12.72-35.9,19.4l2.06.54c-19.57-37-57.06-60.71-92.88-80C154.08,108,152.56,110.61,154.26,111.53Z"/><path class="e" d="M147.85,109.53l-.24-.86-1-.2c-.08.71-.17,1.44-.26,2.16.67.66,1.33,1.32,2,2C148.2,111.59,148,110.56,147.85,109.53Z"/><path d="M149.29,109.13l-.24-.86a1.49,1.49,0,0,0-1.05-1l-1-.2a1.54,1.54,0,0,0-1.9,1.45c-.11.93-.54,2.25.06,3.06a20.39,20.39,0,0,0,2.11,2.15,1.51,1.51,0,0,0,2.5-1.46c-.16-1-.34-2.06-.52-3.09a1.51,1.51,0,0,0-1.84-1,1.54,1.54,0,0,0-1,1.85c.18,1,.36,2.06.52,3.09l2.51-1.46-2-2,.44,1.07c.09-.72.18-1.44.26-2.16l-1.89,1.45,1,.19-1.05-1,.24.86A1.5,1.5,0,0,0,149.29,109.13Z"/><path class="e" d="M147.42,108l-.7-.13c0,.19-.05.39-.08.59l1,.2C147.54,108.45,147.48,108.23,147.42,108Z"/><path d="M147.82,106.56l-.7-.13a1.53,1.53,0,0,0-1.9,1.45c0,.2-.05.39-.08.59a1.52,1.52,0,0,0,1.11,1.45l1,.19a1.51,1.51,0,0,0,1.84-1.84l-.18-.66a1.5,1.5,0,0,0-2.9.8c.06.22.13.44.19.66l1.84-1.85-1-.2,1.1,1.45c0-.2.05-.39.08-.59l-1.9,1.45.7.13a1.5,1.5,0,0,0,.8-2.9Z"/><path class="e" d="M147.71,108.69c0-.22-.08-.43-.11-.65l-.18,0c.06.22.12.44.19.66Z"/><path d="M149.15,108.29c0-.21-.07-.43-.11-.65a1.44,1.44,0,0,0-1-1l-.18,0a1.52,1.52,0,0,0-1.85,1.85c.06.22.13.44.19.66a1.46,1.46,0,0,0,1.05,1l.1,0a1.5,1.5,0,0,0,.8-2.9l-.11,0,1.05,1-.18-.66L147,109.46l.18,0-1-1c0,.22.07.43.11.65a1.52,1.52,0,0,0,1.85,1A1.54,1.54,0,0,0,149.15,108.29Z"/><path class="b" d="M148.37,112.62c-.66-.67-1.32-1.33-2-2-6.39,52.05-23.9,114.19-40.29,162.2l-1.6.92c11.87-6.51,23.65-13.27,35.38-20.16A329.62,329.62,0,0,0,148.37,112.62Z"/><path d="M149.43,111.56l-2-2a1.52,1.52,0,0,0-2.56,1.07c-3.57,28.63-9.74,56.91-17,84.82q-5.36,20.51-11.54,40.77-3,9.71-6.08,19.37-1.64,5-3.32,10.07c-.74,2.21-1.13,5.61-3.2,6.8a1.5,1.5,0,0,0,1.52,2.59q11-6.07,22-12.35c3.37-1.94,6.72-3.89,10.08-5.85s3.77-1.86,4.79-5.57a330,330,0,0,0,9.08-45.35,334,334,0,0,0-1.34-93.71c-.29-1.9-3.18-1.09-2.89.8a331,331,0,0,1,1.68,89.2A323.41,323.41,0,0,1,140.39,246c-1.22,4.7-2,6.79-6.31,9.28q-5,2.92-10.08,5.83-10.08,5.79-20.27,11.39l1.52,2.59c4-2.3,4.48-8.28,5.85-12.43q3.41-10.31,6.61-20.68,6.77-21.84,12.6-44c7.54-28.74,13.89-57.86,17.57-87.35l-2.56,1.06c.67.66,1.33,1.32,2,2A1.5,1.5,0,0,0,149.43,111.56Z"/><path class="e" d="M146.71,108.48c0-.2,0-.41,0-.6-.24.29-.5.59-.74.89l-.58,1.5C145.84,109.68,146.27,109.08,146.71,108.48Z"/><path d="M148.21,108.48c0-.2,0-.4,0-.6a1.5,1.5,0,0,0-.93-1.37,1.46,1.46,0,0,0-1.63.31,6.38,6.38,0,0,0-1.16,1.63c-.19.47-.37,1-.55,1.42a1.48,1.48,0,0,0,.87,1.77,1.52,1.52,0,0,0,1.87-.61l1.31-1.79a1.52,1.52,0,0,0-.53-2.06,1.55,1.55,0,0,0-2.06.54l-1.31,1.8,2.74,1.15c.2-.5.39-1,.58-1.5l-.38.66c.24-.3.49-.59.74-.89l-2.56-1.06c0,.2,0,.4,0,.6a1.5,1.5,0,0,0,3,0Z"/><path class="b" d="M146,108.77C114,147.57,45.53,207.6,3.58,234.17v1.41c6.78,1.83,13.85,3.75,21.08,5.77C64.49,197.19,110,157.79,145.4,110.27Z"/><path d="M144.92,107.71c-16,19.36-34.15,37-52.63,54a821.3,821.3,0,0,1-64.77,54c-5.29,3.94-10.65,7.79-16.1,11.5-3.09,2.1-9.34,4.21-9.34,8.36A1.53,1.53,0,0,0,3.18,237q10.56,2.85,21.08,5.78a1.49,1.49,0,0,0,1.46-.38c20.58-22.77,42.54-44.23,63.93-66.23,10.45-10.75,20.78-21.65,30.7-32.89,5.15-5.83,10.2-11.76,15.09-17.8,4-4.9,9.7-10.44,12-16.33.7-1.81-2.2-2.59-2.89-.8-1.72,4.44-6,8.49-9,12.21q-3.91,4.9-8,9.72-7.51,8.94-15.37,17.57c-11.09,12.24-22.6,24.1-34.18,35.87-11.4,11.59-22.88,23.1-34.15,34.81-5.62,5.85-11.2,11.75-16.68,17.74-1.23,1.35-2.08,2.81-4,3.11s-5.37-1.49-7.13-2Q10,235.77,4,234.13l1.1,1.45c0-1.25,1.91-1.81,3.48-2.84,2.31-1.52,4.59-3.07,6.87-4.64q7.44-5.16,14.68-10.6c10.13-7.57,20-15.44,29.74-23.51,21-17.46,41.37-35.8,60.62-55.2,9.23-9.3,18.22-18.86,26.57-29C148.26,108.35,146.15,106.22,144.92,107.71Z"/><path class="e" d="M144.48,112.65l2.21-3.34c0-.29,0-.56,0-.83-.44.6-.87,1.2-1.31,1.79C145.09,111.06,144.79,111.86,144.48,112.65Z"/><path d="M145.77,113.4c.51-.77,1-1.54,1.54-2.3.22-.34.49-.67.68-1a3.44,3.44,0,0,0,.22-1.59,1.52,1.52,0,0,0-2.8-.76,11.48,11.48,0,0,0-1.46,2.15c-.32.79-.61,1.59-.92,2.38a1.5,1.5,0,0,0,1.05,1.84,1.52,1.52,0,0,0,1.84-1,15.31,15.31,0,0,1,.81-2.07,19.71,19.71,0,0,1,1.27-1.73l-2.79-.76c0,.28,0,.55,0,.83l.21-.76-2.22,3.34C142.11,113.5,144.71,115,145.77,113.4Z"/><path class="c" d="M146.69,109.31l-2.21,3.34C125,162.45,96.12,208.36,71.75,256.28a316.22,316.22,0,0,1,35.62,15.39C117.3,249.5,145.8,136.78,146.69,109.31Z"/><path d="M145.4,108.55c-3.63,5.46-5.6,11.82-8.19,17.83q-4,9.31-8.4,18.48c-6,12.53-12.33,24.86-18.86,37.1-13.1,24.56-26.85,48.76-39.5,73.56a1.53,1.53,0,0,0,.9,2.21A327.22,327.22,0,0,1,106.62,273a1.51,1.51,0,0,0,2-.53c8-18,12.43-38,17.43-56.9,6.76-25.69,13.06-51.57,18-77.66,1.79-9.39,3.71-19,4.07-28.56.08-1.93-2.92-1.93-3,0-.76,20.25-6.41,40.86-10.91,60.5-5.78,25.2-12.13,50.31-19.46,75.1-2.58,8.71-5.06,17.67-8.74,26l2-.54a335.57,335.57,0,0,0-36-15.54L73,257c12.65-24.8,26.4-49,39.5-73.56,6.39-12,12.62-24,18.46-36.27q4.38-9.17,8.43-18.47c2.71-6.24,4.79-13,8.56-18.67C149.06,108.46,146.46,107,145.4,108.55Z"/><path class="b" d="M46.93,247.91c8.27,2.57,16.59,5.35,24.82,8.37,24.37-47.92,53.22-93.83,72.73-143.63C112.92,160.1,83.37,203.8,46.93,247.91Z"/><path d="M46.53,249.36c8.34,2.61,16.62,5.37,24.82,8.37A1.51,1.51,0,0,0,73,257c24.44-47.93,53.1-93.81,72.88-144,.66-1.65-1.85-2.49-2.74-1.15-30.74,46.21-62,92.1-97.31,135-1.22,1.48.89,3.62,2.12,2.13,35.5-43.06,66.9-89.16,97.78-135.58L143,112.25c-19.69,49.93-48.26,95.59-72.58,143.27l1.7-.69q-12.32-4.49-24.82-8.36C45.48,245.89,44.69,248.79,46.53,249.36Z"/><path class="c" d="M145.4,110.27C110,157.79,64.49,197.19,24.66,241.35c7.3,2.06,14.76,4.23,22.27,6.56,36.44-44.11,66-87.81,97.55-135.26C144.79,111.86,145.09,111.06,145.4,110.27Z"/><path d="M144.1,109.52c-35.62,47.62-80.75,86.81-120.5,130.77a1.52,1.52,0,0,0,.66,2.51c7.45,2.1,14.88,4.27,22.27,6.56A1.46,1.46,0,0,0,48,249c18.18-22,35.38-44.87,51.9-68.18q12.19-17.24,24-34.74,6.25-9.24,12.46-18.53c3.6-5.4,8.14-10.78,10.48-16.86.7-1.8-2.2-2.58-2.89-.8-2.84,7.35-8.93,14.28-13.31,20.81q-6.19,9.24-12.45,18.45-13.14,19.32-26.74,38.35Q77.59,206.77,63,225.55c-4.74,6.07-9.29,12.86-14.69,18.36-3.13,3.19-6.36.89-10.32-.28q-6.43-1.9-12.91-3.72l.66,2.51c39.93-44.17,85.19-83.55,121-131.39C147.85,109.48,145.24,108,144.1,109.52Z"/><path d="M324.89,147.33l-6.5,2.78c-3.54,1.51-.49,6.68,3,5.18l6.5-2.78c2.21-.94,1.68-4.09,0-5.18-8.24-5.32-18.12-8.34-27.43-11.16-13.62-4.12-27.51-7.4-41.41-10.44-29.16-6.38-58.58-11.54-88-16.6q-7.74-1.34-15.5-2.69c-2.56-.45-4.86-1-7.5-.75-3.24.35-3.91,1-5.71,3.3-.64.81,1.61-1.43-.63.19a11.61,11.61,0,0,0-1.49,1.75c-1,1.2-2.06,2.39-3.11,3.57q-4.17,4.73-8.48,9.32c-5.67,6.06-11.49,12-17.4,17.79a822,822,0,0,1-83.4,72C21,218.77,14,223.79,6.77,228.54c-2.53,1.67-5.74,2.77-6.19,6a27,27,0,0,0,0,3.6v30.67l2.2-2.89h0a3,3,0,0,0-2.2,2.89c.15,2,0,4.11,0,6.15a3,3,0,0,0,3.8,2.89l.2-.07-3.8-2.89c.38,59.45.28,118.9.6,178.34,0,6.86-.38,13.92.32,20.75.56,5.56,2.57,11.06,7.9,13.63,3.56,1.71,10.2,1.9,12.17-2.42,1-2.21.27-6.15.28-8.57,0-3.82,0-7.65.05-11.48q.2-45.72.49-91.45.3-51.3.53-102.59l-3,3c19.44-2.08,36.81,3.52,52.71,14.45,7,4.82,15.37,10.36,20.65,17.2,2.49,3.22,1.38,8.7,1.4,12.73L95,333.22l1.48-2.59c-24.83,12.58-49.5,25.42-73.29,39.92-1.73,1.05-2.17,4.25,0,5.18l1.3.55,3-5.18-1.3-.55c-2-.86-4.51.1-4.51,2.59v14.45a3,3,0,0,0,1.48,2.59l2.16,1.14-1.48-2.59q-.34,30.34-.68,60.71a3.06,3.06,0,0,0,3,3l10.29.37a3.06,3.06,0,0,0,3-3q1.47-27.82.7-55.67l-4.52,2.59,61.06,32.06-1.49-2.59q.07,25.24.19,50.48c0,7.09-.44,14.43.39,21.48.65,5.43,2.92,10.7,8.19,13,3.59,1.58,10.33,1.62,12-2.92.94-2.62.13-6.69.14-9.48q0-6.28,0-12.58.12-26,.27-52l-4.52,2.59,20.64,10.83L131,445q.93,29.92,1.87,59.85a3,3,0,0,0,3,3l10.3-.07a3,3,0,0,0,3-3q.33-31.21-2.19-62.35L145.5,445l53.35-34.65,84.65-55,19.68-12.78L298.67,340l1.8,57.77a3.06,3.06,0,0,0,3,3l7.65-.05-2.9-2.21c1.92,5,5.69,9.14,11.41,9.4a8.79,8.79,0,0,0,6.56-2.21c2.15-2.15,1.35-5.61,1.36-8.45q.07-23.52.21-47.06.27-50.4.58-100.78.15-26.79.26-53.56l-3,3,.8,0a3.06,3.06,0,0,0,3-3V149.92c0-3.86-6-3.86-6,0v45.91l3-3-.8,0a3.06,3.06,0,0,0-3,3c-.22,56.68-.64,113.36-.92,170q0,11.5-.1,23c0,3.53,0,7.06,0,10.59,0,2.27-.44,2.91-2.94,2.22-2.33-.65-3.77-2.64-4.59-4.79a3.09,3.09,0,0,0-2.89-2.2l-7.65.05,3,3L304.67,340c-.07-2.17-2.54-3.88-4.52-2.59l-53.34,34.65-84.66,55-19.68,12.78a3,3,0,0,0-1.48,2.59q2.5,31.13,2.19,62.35l3-3-10.3.07,3,3Q137.94,474.94,137,445a3,3,0,0,0-1.49-2.59l-20.64-10.83a3,3,0,0,0-4.51,2.59q-.12,20.43-.22,40.87l-.09,20.17c0,2.78.46,6.06,0,8.79-.37,2.09-.36,2.57-2.94,2a6.2,6.2,0,0,1-3.52-2.69c-3.24-4.83-2.12-12.43-2.15-18q-.06-9.21-.1-18.42-.09-20.34-.14-40.68a3,3,0,0,0-1.48-2.59L38.64,391.55a3,3,0,0,0-4.51,2.59q.76,27.84-.7,55.67l3-3-10.29-.37,3,3q.33-30.36.68-60.71a3,3,0,0,0-1.49-2.59L26.17,385l1.49,2.59V373.14l-4.52,2.59,1.3.55c3.51,1.5,6.57-3.67,3-5.18l-1.3-.55v5.18c23.78-14.5,48.46-27.34,73.29-39.92a3,3,0,0,0,1.49-2.59q0-8.28-.07-16.55c0-3.74,1.1-9.44-.93-12.71-2.55-4.07-7.39-7.67-11-10.72s-7.67-6.11-11.67-8.91c-17.08-12-36.09-18.48-57.12-16.23a3.07,3.07,0,0,0-3,3c-.2,56.39-.62,112.79-.9,169.19q-.11,19.66-.18,39.32c0,2.1.54,3.4-2.12,3.07a6.15,6.15,0,0,1-4.34-2.81c-2.18-3.25-2.07-7.54-2.11-11.3-.07-6.12-.08-12.24-.11-18.36q-.21-41.64-.25-83.27-.11-46-.33-92.05A3,3,0,0,0,3,272l-.2.07L6.59,275c0-2,.14-4.12,0-6.15l-2.2,2.89h0a3,3,0,0,0,2.2-2.89q0-17.33,0-34.64L5.1,236.76c20.66-13.15,40-28.45,58.74-44.16,21.06-17.64,41.45-36.14,60.67-55.77,4.62-4.73,9.17-9.52,13.6-14.42q3.24-3.59,6.38-7.24c1.43-1.67,3.66-3.49,3.83-5.78L146.83,112c3.21-1.77,10.11.77,13.53,1.36L176,116c13,2.25,26,4.54,39,7,27.12,5.06,54.37,10.33,80.87,18.07,9.83,2.87,20.31,5.84,29,11.44v-5.18l-6.5,2.78,3,5.18,6.5-2.78C331.46,151,328.4,145.83,324.89,147.33Z"/><path d="M116.19,309C145,277,178.8,249.51,217.05,229.68l-4.51-2.6q.08,25.75.12,51.49l3-3c-18.12.36-33.5,8.28-48.76,17.32-17.78,10.53-36,20.2-54.43,29.6l4.51,2.59q0-9.12.08-18.25c0-3.86-6-3.87-6,0q0,9.12-.08,18.25a3,3,0,0,0,4.52,2.59c17.26-8.82,34.41-17.87,51.14-27.66,15.47-9.05,30.59-18.08,49-18.44a3.06,3.06,0,0,0,3-3q-.06-25.74-.12-51.49a3,3,0,0,0-4.51-2.59c-38.67,20-73,47.94-102.09,80.22C109.36,307.57,113.59,311.83,116.19,309Z"/><path d="M310.46,306q-20.37-8.5-41.2-15.83c-12.32-4.3-24.78-9.49-37.42-12.72l2.2,2.89q.18-30.47.35-60.94L232.91,222a274,274,0,0,1,76.4-21.66l-3-3c.22,37.19.26,74.38.35,111.57,0,3.86,6,3.86,6,0-.09-37.19-.13-74.38-.35-111.57,0-1.47-1.38-3.21-3-3a283.56,283.56,0,0,0-79.43,22.48,3,3,0,0,0-1.49,2.59q-.16,30.47-.35,60.94a3.07,3.07,0,0,0,2.21,2.9c12.63,3.23,25.1,8.42,37.41,12.72q20.85,7.27,41.2,15.83C312.42,313.31,314,307.5,310.46,306Z"/><path class="b" d="M269.39,281.57l-41.06-.6-1.59-.32c.87,5.13,2.13,13,3.41,21.06a269.6,269.6,0,0,0,37-9.73C268.11,287.53,268.91,283.77,269.39,281.57Z"/><path d="M269.39,280.07l-22.48-.33c-6.36-.09-13.55.72-19.77-.53a1.52,1.52,0,0,0-1.85,1.84c1.19,7,2.3,14,3.42,21.05a1.51,1.51,0,0,0,1.84,1,276.2,276.2,0,0,0,28.8-7.08c2.3-.7,7.65-1.3,9.1-3.34,1.68-2.38,1.75-7.83,2.38-10.76.41-1.89-2.48-2.69-2.89-.8-.55,2.56-.75,7.32-2.42,9.26-2,2.37-8.47,3.22-11.55,4.1-8,2.28-16.06,4.17-24.21,5.73l1.84,1.05c-1.12-7-2.23-14.05-3.41-21.06l-1.85,1.85c5.95,1.2,12.56.53,18.61.61l24.44.36C271.32,283.1,271.32,280.1,269.39,280.07Z"/><path class="b" d="M234,325.55c.28,1.66,17.57,3.18,23.62,2.46,1.22-.15,4.34-12.78,7.12-25.12q-16.06,6.33-32.59,11.33C232.86,318.6,233.5,322.55,234,325.55Z"/><path d="M232.72,326.31c1.14,2.1,5.15,2.14,7.17,2.42a88.61,88.61,0,0,0,15.35.94c3.58-.14,4.23-1,5.39-4.42,2.44-7.11,3.91-14.64,5.56-22,.23-1-.71-2.29-1.84-1.84q-16.08,6.29-32.59,11.33a1.54,1.54,0,0,0-1,1.84c.61,3.78,1.22,7.56,1.86,11.33.32,1.9,3.21,1.09,2.89-.8-.64-3.77-1.25-7.55-1.86-11.32l-1,1.84q16.51-5,32.6-11.33l-1.85-1.85c-1.3,5.73-2.6,11.47-4.14,17.13a38,38,0,0,1-1.74,5.74c-.82,1.8-.19,1.15-2.18,1.31a64.91,64.91,0,0,1-10.43-.39c-1.3-.12-8.76-.13-9.5-1.49C234.39,323.1,231.79,324.61,232.72,326.31Z"/><path class="e" d="M230.15,301.71c.68,4.26,1.37,8.56,2,12.51q16.51-5,32.59-11.33c.85-3.79,1.67-7.55,2.4-10.91A269.6,269.6,0,0,1,230.15,301.71Z"/><path d="M228.71,302.1q1,6.27,2,12.52a1.51,1.51,0,0,0,1.84,1.05c8.56-2.62,17-5.46,25.43-8.58,1.91-.72,6.82-1.67,8.06-3.44,1.77-2.52,1.9-8.23,2.56-11.27a1.52,1.52,0,0,0-1.85-1.85,282.69,282.69,0,0,1-37,9.73c-1.9.36-1.1,3.25.79,2.89a282.83,282.83,0,0,0,37-9.73l-1.85-1.84c-.67,3.12-.7,8.31-3.14,10.56-2,1.83-7.39,2.81-9.87,3.7q-10.38,3.74-20.93,6.94l1.84,1.05q-1-6.27-2-12.52C231.3,299.41,228.41,300.21,228.71,302.1Z"/><path class="b" d="M269.65,282.87c.66-4-1.67-8.49-5.17-10.84-4.48-3-10.14-3.38-15.51-3.67-19.48-1.73-22.25,9.6-22.21,13.27a30.56,30.56,0,0,1,42.89,1.24Z"/><path d="M271.15,282.87c1.33-15.82-20.94-17.76-32-15.66-7.2,1.37-13.79,6.6-13.88,14.42a1.52,1.52,0,0,0,2.56,1.06,29.61,29.61,0,0,1,40.76,1.24c1.39,1.35,3.51-.77,2.13-2.12a32.68,32.68,0,0,0-45-1.24l2.56,1.06c.07-5.53,4.42-9.47,9.42-11,9.45-2.87,31.63-1.58,30.47,12.23C268,284.79,271,284.78,271.15,282.87Z"/><path class="f" d="M248.12,273.45a31.23,31.23,0,0,0-21.36,8.18,4.43,4.43,0,0,0,.08.87c.92,3.61,5.13,5.15,8.77,5.9a92.61,92.61,0,0,0,21.07,1.89c4.33-.1,9.21-.82,11.72-4.35a7.46,7.46,0,0,0,1.25-3.07A31.24,31.24,0,0,0,248.12,273.45Z"/><path d="M248.12,272a33.37,33.37,0,0,0-20,6.63c-2.28,1.72-3.51,2.63-2.28,5.44,1,2.33,3.26,3.77,5.53,4.69,7.66,3.13,17.85,3.46,26,3.06,6.12-.31,12-2,13.75-8.5a1.51,1.51,0,0,0-.38-1.46A34,34,0,0,0,248.12,272c-1.93-.09-1.92,2.91,0,3a30.39,30.39,0,0,1,10.35,2.2c2.12.87,8.22,3.34,9,5.66,2.31,7.16-15.37,6-18.46,5.85-2.39-.13-22.09-1.07-20-7,.72-2,7-4.32,8.8-5A31.27,31.27,0,0,1,248.12,275,1.5,1.5,0,0,0,248.12,272Z"/><path d="M234.43,284.61a131.76,131.76,0,0,0,24.24-.53c1.35-.16,2.19-2,.76-2.8l-.61-.32c-1.7-.91-3.21,1.67-1.51,2.59l.6.32.76-2.79a131.76,131.76,0,0,1-24.24.53c-1.93-.13-1.92,2.87,0,3Z"/><path class="b" d="M165.73,294.12l-41.06-.6-1.59-.32c.87,5.13,2.13,13,3.41,21.05a268.51,268.51,0,0,0,37-9.72C164.45,300.08,165.25,296.32,165.73,294.12Z"/><path d="M165.73,292.62l-22.49-.33c-6.35-.09-13.54.72-19.76-.53a1.52,1.52,0,0,0-1.85,1.84c1.18,7,2.3,14,3.42,21a1.51,1.51,0,0,0,1.84,1.05,276.82,276.82,0,0,0,28.8-7.08c2.3-.71,7.65-1.3,9.09-3.34,1.69-2.38,1.76-7.84,2.39-10.77.41-1.88-2.48-2.68-2.89-.79-.55,2.56-.75,7.32-2.42,9.26-2,2.37-8.47,3.22-11.56,4.1-8,2.28-16.06,4.16-24.21,5.73l1.85,1.05c-1.12-7-2.23-14.05-3.42-21.06l-1.84,1.85c5.94,1.2,12.56.53,18.61.61l24.44.36A1.5,1.5,0,0,0,165.73,292.62Z"/><path class="b" d="M130.35,338.1c.28,1.66,17.57,3.17,23.62,2.46,1.22-.15,4.33-12.78,7.11-25.12q-16.05,6.33-32.59,11.33C129.2,331.15,129.84,335.1,130.35,338.1Z"/><path d="M129.05,338.86c1.15,2.1,5.16,2.14,7.18,2.42a88.43,88.43,0,0,0,15.34.94c3.58-.14,4.24-1,5.39-4.42,2.44-7.11,3.91-14.64,5.57-22,.23-1-.71-2.29-1.84-1.85q-16.08,6.3-32.6,11.34a1.53,1.53,0,0,0-1,1.84q.92,5.67,1.85,11.33c.32,1.9,3.22,1.09,2.9-.8-.64-3.77-1.25-7.55-1.86-11.33l-1.05,1.85q16.52-5,32.59-11.33L159.64,315c-1.3,5.73-2.6,11.47-4.14,17.13a39.18,39.18,0,0,1-1.74,5.74c-.82,1.79-.2,1.15-2.19,1.31a63.86,63.86,0,0,1-10.43-.4c-1.3-.11-8.76-.12-9.49-1.48C130.72,335.65,128.13,337.16,129.05,338.86Z"/><path class="e" d="M126.49,314.25c.68,4.27,1.37,8.57,2,12.52q16.51-5,32.59-11.33c.86-3.79,1.68-7.55,2.41-10.91A268.51,268.51,0,0,1,126.49,314.25Z"/><path d="M125.05,314.65q1,6.27,2,12.52a1.5,1.5,0,0,0,1.84,1.05c8.56-2.62,17.05-5.46,25.43-8.59,1.91-.71,6.82-1.67,8.06-3.43,1.77-2.53,1.9-8.23,2.55-11.28a1.51,1.51,0,0,0-1.84-1.84,282.83,282.83,0,0,1-37,9.73c-1.89.36-1.09,3.25.8,2.89a283.25,283.25,0,0,0,37-9.73L162,304.13c-.68,3.12-.71,8.31-3.14,10.56-2,1.83-7.4,2.81-9.88,3.7q-10.36,3.74-20.93,6.94l1.85,1q-1-6.25-2-12.51C127.63,312,124.74,312.76,125.05,314.65Z"/><path class="b" d="M166,295.42c.66-4-1.66-8.5-5.17-10.84-4.47-3-10.13-3.38-15.5-3.67-19.49-1.73-22.25,9.6-22.22,13.26A30.57,30.57,0,0,1,166,295.42Z"/><path d="M167.48,295.42c1.33-15.82-20.93-17.76-32-15.66-7.2,1.37-13.79,6.6-13.89,14.41a1.52,1.52,0,0,0,2.56,1.07,29.63,29.63,0,0,1,40.77,1.24c1.39,1.35,3.51-.77,2.12-2.12-12.69-12.37-31.66-12.84-45-1.25l2.56,1.06c.07-5.52,4.43-9.46,9.43-11,9.44-2.87,31.62-1.58,30.46,12.23C164.32,297.34,167.32,297.33,167.48,295.42Z"/><path class="f" d="M144.46,286a31.27,31.27,0,0,0-21.37,8.17,4.31,4.31,0,0,0,.09.88c.92,3.61,5.12,5.15,8.77,5.9A92.61,92.61,0,0,0,153,302.84c4.33-.1,9.21-.82,11.72-4.35a7.3,7.3,0,0,0,1.24-3.07A31.22,31.22,0,0,0,144.46,286Z"/><path d="M144.46,284.5a33.37,33.37,0,0,0-20,6.63c-2.28,1.72-3.51,2.63-2.28,5.44,1,2.32,3.26,3.76,5.52,4.69,7.67,3.13,17.85,3.46,26,3.06,6.11-.31,12-2,13.75-8.5a1.51,1.51,0,0,0-.39-1.46,33.93,33.93,0,0,0-22.58-9.86c-1.93-.09-1.93,2.91,0,3a30.28,30.28,0,0,1,10.34,2.2c2.12.87,8.22,3.34,9,5.66,2.31,7.16-15.37,6-18.46,5.85-2.38-.14-22.09-1.07-20-7,.72-2,7-4.32,8.81-5a31.18,31.18,0,0,1,10.32-1.73A1.5,1.5,0,0,0,144.46,284.5Z"/><path d="M130.77,297.16a131.78,131.78,0,0,0,24.24-.53c1.35-.16,2.19-2,.75-2.8l-.6-.32c-1.7-.92-3.22,1.67-1.51,2.59l.6.32.76-2.79a131.78,131.78,0,0,1-24.24.53c-1.93-.13-1.92,2.87,0,3Z"/><path class="b" d="M215.1,272l-41-.59-1.59-.32c.87,5.13,2.13,13,3.41,21.05a268.54,268.54,0,0,0,37-9.73C213.83,277.94,214.62,274.17,215.1,272Z"/><path d="M215.1,270.47l-22.48-.32c-6.36-.09-13.54.72-19.76-.54a1.53,1.53,0,0,0-1.85,1.85c1.18,7,2.29,14,3.41,21.05a1.54,1.54,0,0,0,1.85,1.05,276.86,276.86,0,0,0,28.8-7.09c2.3-.7,7.65-1.29,9.09-3.33,1.69-2.38,1.76-7.84,2.39-10.77.41-1.88-2.48-2.68-2.89-.79-.56,2.55-.75,7.31-2.42,9.26-2,2.37-8.48,3.22-11.56,4.1-8,2.28-16.06,4.16-24.21,5.73l1.85,1c-1.12-7-2.23-14-3.42-21l-1.84,1.85c5.94,1.19,12.56.52,18.61.61l24.43.35A1.5,1.5,0,0,0,215.1,270.47Z"/><path class="b" d="M179.73,316c.28,1.66,17.57,3.17,23.61,2.46,1.23-.15,4.34-12.78,7.12-25.12q-16.05,6.33-32.59,11.33C178.57,309,179.22,313,179.73,316Z"/><path d="M178.43,316.71c1.14,2.11,5.16,2.15,7.17,2.43a88.61,88.61,0,0,0,15.35.94c3.58-.14,4.23-1,5.39-4.42,2.44-7.11,3.91-14.64,5.57-22,.23-1-.71-2.29-1.85-1.85q-16.06,6.3-32.59,11.34a1.54,1.54,0,0,0-1.05,1.84q.92,5.67,1.86,11.33c.32,1.9,3.21,1.09,2.89-.8q-.94-5.65-1.85-11.33l-1,1.85q16.51-5.06,32.59-11.33L209,292.9c-1.3,5.73-2.6,11.46-4.15,17.13a38,38,0,0,1-1.73,5.74c-.82,1.79-.2,1.15-2.19,1.31a65,65,0,0,1-10.43-.4c-1.3-.11-8.76-.12-9.5-1.48C180.1,313.5,177.51,315,178.43,316.71Z"/><path class="e" d="M175.87,292.11c.68,4.26,1.36,8.56,2,12.52q16.51-5,32.59-11.33c.86-3.79,1.68-7.55,2.41-10.92A268.54,268.54,0,0,1,175.87,292.11Z"/><path d="M174.42,292.51q1,6.25,2,12.52a1.52,1.52,0,0,0,1.85,1.05c8.56-2.62,17-5.46,25.43-8.59,1.9-.71,6.82-1.67,8.06-3.43,1.77-2.53,1.89-8.24,2.55-11.28a1.51,1.51,0,0,0-1.84-1.84,284.42,284.42,0,0,1-37,9.73c-1.89.36-1.09,3.25.8,2.89a283.25,283.25,0,0,0,37-9.73L211.42,282c-.68,3.13-.71,8.32-3.14,10.57-2,1.82-7.4,2.81-9.88,3.7Q188,300,177.47,303.19l1.85,1q-1-6.25-2-12.52C177,289.81,174.12,290.62,174.42,292.51Z"/><path class="b" d="M215.36,273.27c.66-4-1.66-8.49-5.17-10.83-4.47-3-10.13-3.38-15.5-3.68C175.2,257,172.43,268.37,172.47,272a30.59,30.59,0,0,1,42.89,1.24Z"/><path d="M216.86,273.27c1.33-15.82-20.93-17.75-32-15.65-7.2,1.37-13.79,6.6-13.89,14.41a1.52,1.52,0,0,0,2.56,1.06,29.63,29.63,0,0,1,40.77,1.25c1.38,1.34,3.51-.78,2.12-2.13-12.69-12.36-31.66-12.83-45-1.24L174,272c.07-5.52,4.43-9.46,9.43-11,9.44-2.88,31.62-1.58,30.46,12.22C213.7,275.2,216.7,275.19,216.86,273.27Z"/><path class="f" d="M193.84,263.86A31.22,31.22,0,0,0,172.47,272a4.2,4.2,0,0,0,.09.87c.92,3.61,5.12,5.16,8.77,5.91a92.56,92.56,0,0,0,21.07,1.89c4.32-.11,9.21-.82,11.72-4.35a7.29,7.29,0,0,0,1.24-3.08A31.21,31.21,0,0,0,193.84,263.86Z"/><path d="M193.84,262.36a33.37,33.37,0,0,0-20,6.63c-2.28,1.72-3.51,2.63-2.28,5.44,1,2.32,3.26,3.76,5.52,4.69,7.67,3.13,17.85,3.46,26,3.05,6.11-.3,12-2,13.75-8.5a1.52,1.52,0,0,0-.39-1.46,34,34,0,0,0-22.58-9.85c-1.93-.09-1.93,2.91,0,3a30.28,30.28,0,0,1,10.34,2.2c2.12.86,8.22,3.33,9,5.65,2.31,7.17-15.37,6-18.46,5.86-2.39-.14-22.09-1.08-20-7,.72-2,7-4.33,8.81-5a31.18,31.18,0,0,1,10.32-1.73A1.5,1.5,0,0,0,193.84,262.36Z"/><path d="M180.14,275a131.75,131.75,0,0,0,24.24-.54c1.36-.15,2.2-2,.76-2.79l-.6-.32c-1.7-.92-3.22,1.67-1.51,2.59l.6.32.75-2.8a131.75,131.75,0,0,1-24.24.54c-1.92-.13-1.91,2.87,0,3Z"/><path class="b" d="M218.83,321.12l-41.05-.59-1.59-.32c.87,5.13,2.13,13,3.41,21.05a268.92,268.92,0,0,0,37-9.73C217.56,327.09,218.35,323.32,218.83,321.12Z"/><path d="M218.83,319.62l-22.48-.32c-6.36-.09-13.54.72-19.77-.54a1.52,1.52,0,0,0-1.84,1.85c1.18,7,2.29,14,3.41,21.05a1.53,1.53,0,0,0,1.85,1,279.37,279.37,0,0,0,28.8-7.08c2.3-.71,7.65-1.3,9.09-3.34,1.69-2.38,1.76-7.84,2.39-10.77.41-1.88-2.48-2.68-2.89-.79-.56,2.55-.75,7.31-2.42,9.26-2,2.37-8.48,3.22-11.56,4.1-8,2.28-16.06,4.16-24.21,5.73l1.85,1c-1.12-7-2.23-14-3.42-21.05l-1.84,1.85c5.94,1.19,12.56.52,18.61.61l24.43.35C220.76,322.65,220.76,319.65,218.83,319.62Z"/><path class="b" d="M183.46,365.11c.28,1.66,17.57,3.17,23.61,2.46,1.23-.15,4.34-12.78,7.12-25.12q-16,6.33-32.59,11.33C182.3,358.15,183,362.11,183.46,365.11Z"/><path d="M182.16,365.87c1.14,2.1,5.16,2.14,7.17,2.42a88.61,88.61,0,0,0,15.35.94c3.58-.14,4.23-1,5.39-4.42,2.44-7.11,3.91-14.64,5.57-22,.23-1-.71-2.29-1.85-1.85q-16.08,6.3-32.59,11.34a1.54,1.54,0,0,0-1,1.84q.91,5.67,1.86,11.33c.32,1.9,3.21,1.09,2.89-.8q-.94-5.65-1.85-11.33L182,355.23q16.51-5.06,32.59-11.33l-1.84-1.85c-1.3,5.73-2.6,11.46-4.15,17.13a38,38,0,0,1-1.73,5.74c-.82,1.79-.2,1.15-2.19,1.31a65,65,0,0,1-10.43-.4c-1.3-.11-8.76-.12-9.5-1.48C183.83,362.65,181.24,364.17,182.16,365.87Z"/><path class="e" d="M179.6,341.26c.68,4.26,1.36,8.56,2,12.52q16.52-5,32.59-11.33c.86-3.79,1.68-7.55,2.41-10.92A268.92,268.92,0,0,1,179.6,341.26Z"/><path d="M178.15,341.66q1,6.27,2,12.52a1.51,1.51,0,0,0,1.85,1.05c8.56-2.62,17-5.46,25.43-8.59,1.9-.71,6.82-1.67,8.06-3.43,1.77-2.53,1.89-8.24,2.55-11.28a1.51,1.51,0,0,0-1.84-1.84,284.42,284.42,0,0,1-37,9.73c-1.89.36-1.09,3.25.8,2.89A282.69,282.69,0,0,0,217,333l-1.84-1.84c-.68,3.12-.71,8.31-3.14,10.56-2,1.82-7.4,2.81-9.88,3.7q-10.38,3.74-20.93,6.94l1.85,1q-1-6.25-2-12.52C180.74,339,177.85,339.77,178.15,341.66Z"/><path class="b" d="M219.09,322.42c.66-4-1.66-8.49-5.17-10.83-4.47-3-10.13-3.38-15.5-3.68-19.49-1.72-22.26,9.61-22.22,13.27a30.59,30.59,0,0,1,42.89,1.24Z"/><path d="M220.59,322.42c1.33-15.81-20.93-17.75-32-15.65-7.2,1.37-13.79,6.6-13.89,14.41a1.52,1.52,0,0,0,2.56,1.06A29.63,29.63,0,0,1,218,323.49c1.38,1.34,3.51-.78,2.12-2.13-12.69-12.36-31.66-12.83-45-1.24l2.56,1.06c.07-5.52,4.43-9.46,9.43-11,9.44-2.87,31.62-1.58,30.46,12.22C217.43,324.35,220.43,324.34,220.59,322.42Z"/><path class="f" d="M197.57,313a31.27,31.27,0,0,0-21.37,8.17,4.4,4.4,0,0,0,.09.88c.92,3.6,5.12,5.15,8.77,5.9a92.56,92.56,0,0,0,21.07,1.89c4.32-.11,9.21-.82,11.71-4.35a7.18,7.18,0,0,0,1.25-3.08A31.21,31.21,0,0,0,197.57,313Z"/><path d="M197.57,311.51a33.37,33.37,0,0,0-20,6.63c-2.28,1.72-3.51,2.63-2.28,5.44,1,2.32,3.26,3.76,5.52,4.69,7.67,3.13,17.85,3.46,26,3.05,6.12-.3,12-2,13.76-8.5a1.52,1.52,0,0,0-.39-1.46,34,34,0,0,0-22.58-9.85c-1.93-.09-1.93,2.91,0,3a30.33,30.33,0,0,1,10.34,2.2c2.12.87,8.22,3.34,9,5.66,2.31,7.16-15.37,6-18.46,5.85-2.39-.14-22.09-1.08-20-7,.72-2,7-4.32,8.8-5a31.29,31.29,0,0,1,10.33-1.73A1.5,1.5,0,0,0,197.57,311.51Z"/><path d="M183.87,324.17a131.75,131.75,0,0,0,24.24-.54c1.36-.15,2.2-2,.76-2.79l-.6-.32c-1.7-.92-3.22,1.67-1.52,2.59l.61.32.75-2.8a131.75,131.75,0,0,1-24.24.54c-1.92-.13-1.92,2.87,0,3Z"/><path class="b" d="M165.54,351.13l-41-.59-1.6-.32c.87,5.12,2.13,13,3.42,21a269.84,269.84,0,0,0,37-9.73C164.26,357.09,165.06,353.33,165.54,351.13Z"/><path d="M165.54,349.63l-22.48-.32c-6.36-.1-13.54.71-19.77-.54a1.52,1.52,0,0,0-1.84,1.85c1.18,7,2.29,14,3.41,21.05a1.54,1.54,0,0,0,1.85,1.05,279.24,279.24,0,0,0,28.79-7.09c2.3-.7,7.65-1.29,9.1-3.33,1.69-2.38,1.75-7.84,2.39-10.77.4-1.88-2.49-2.69-2.9-.8-.55,2.56-.74,7.32-2.42,9.26-2,2.37-8.47,3.23-11.55,4.11-8,2.28-16.06,4.16-24.21,5.72l1.84,1.05c-1.12-7-2.23-14-3.41-21.05l-1.85,1.84c6,1.2,12.57.53,18.61.62l24.44.35C167.47,352.66,167.47,349.66,165.54,349.63Z"/><path class="b" d="M130.16,395.11c.29,1.67,17.57,3.18,23.62,2.46,1.23-.14,4.34-12.77,7.12-25.11q-16.05,6.33-32.59,11.33C129,388.16,129.66,392.11,130.16,395.11Z"/><path d="M128.87,395.87C130,398,134,398,136,398.29a87.63,87.63,0,0,0,15.35.94c3.58-.13,4.23-1,5.39-4.42,2.44-7.11,3.91-14.64,5.57-22,.22-1-.71-2.29-1.85-1.84q-16.08,6.3-32.59,11.33a1.55,1.55,0,0,0-1,1.85c.61,3.77,1.22,7.55,1.86,11.32.32,1.9,3.21,1.1,2.89-.79q-.95-5.67-1.86-11.33l-1,1.84q16.5-5,32.59-11.33l-1.85-1.84c-1.29,5.73-2.59,11.46-4.14,17.13a38.22,38.22,0,0,1-1.74,5.73c-.81,1.8-.19,1.16-2.18,1.31a63.77,63.77,0,0,1-10.43-.39c-1.3-.11-8.76-.12-9.5-1.48C130.54,392.66,128,394.17,128.87,395.87Z"/><path class="e" d="M126.31,371.27c.68,4.26,1.36,8.56,2,12.52q16.51-5,32.59-11.33c.85-3.8,1.68-7.55,2.4-10.92A269.84,269.84,0,0,1,126.31,371.27Z"/><path d="M124.86,371.67q1,6.25,2,12.52a1.52,1.52,0,0,0,1.85,1c8.56-2.61,17-5.45,25.43-8.58,1.9-.71,6.81-1.67,8.05-3.44,1.77-2.52,1.9-8.23,2.56-11.27a1.52,1.52,0,0,0-1.85-1.85,281.12,281.12,0,0,1-37,9.73c-1.9.37-1.09,3.26.8,2.9a284.28,284.28,0,0,0,37-9.73l-1.84-1.85c-.68,3.13-.71,8.32-3.15,10.57-2,1.82-7.39,2.8-9.87,3.7-6.92,2.49-13.9,4.78-20.93,6.93l1.84,1.05q-1-6.25-2-12.52C127.45,369,124.56,369.78,124.86,371.67Z"/><path class="b" d="M165.8,352.43c.66-4-1.66-8.49-5.17-10.83-4.47-3-10.13-3.38-15.5-3.68-19.49-1.72-22.26,9.6-22.22,13.27a30.56,30.56,0,0,1,42.89,1.24Z"/><path d="M167.3,352.43c1.33-15.82-20.93-17.75-32-15.65-7.2,1.36-13.79,6.59-13.89,14.41a1.52,1.52,0,0,0,2.56,1.06,29.63,29.63,0,0,1,40.77,1.24c1.38,1.35,3.5-.77,2.12-2.12a32.7,32.7,0,0,0-45-1.24l2.56,1.06c.07-5.52,4.43-9.47,9.43-11,9.44-2.87,31.62-1.57,30.46,12.23C164.14,354.35,167.14,354.34,167.3,352.43Z"/><path class="f" d="M144.27,343a31.23,31.23,0,0,0-21.36,8.18,3.6,3.6,0,0,0,.09.87c.92,3.61,5.12,5.15,8.77,5.91a93.13,93.13,0,0,0,21.07,1.89c4.32-.11,9.2-.83,11.71-4.35a7.36,7.36,0,0,0,1.25-3.08A31.28,31.28,0,0,0,144.27,343Z"/><path d="M144.27,341.51a33.45,33.45,0,0,0-20,6.63c-2.28,1.72-3.52,2.63-2.29,5.45,1,2.32,3.27,3.76,5.53,4.68,7.66,3.14,17.85,3.47,26,3.06,6.12-.3,12-2,13.75-8.5a1.51,1.51,0,0,0-.38-1.46,34,34,0,0,0-22.59-9.86c-1.93-.09-1.92,2.91,0,3a30.87,30.87,0,0,1,10.35,2.2c2.12.87,8.22,3.34,9,5.66,2.31,7.16-15.37,6-18.46,5.86-2.39-.14-22.09-1.08-20-7,.72-2,7-4.33,8.8-5a31,31,0,0,1,10.32-1.74A1.5,1.5,0,0,0,144.27,341.51Z"/><path d="M130.58,354.18a132.63,132.63,0,0,0,24.24-.54c1.35-.15,2.2-2,.76-2.79l-.6-.33c-1.7-.91-3.22,1.68-1.52,2.59l.6.33.76-2.8a132.63,132.63,0,0,1-24.24.54c-1.93-.14-1.92,2.86,0,3Z"/><path d="M116,199.7a272.12,272.12,0,0,0-4.61,33.51,4.43,4.43,0,0,0,.43,2.86c.91,1.33,2.9,1.27,4.46.85s3.27-1,4.74-.36q2-19.09,2.77-38.29l-9.33,2.92"/><path d="M114.54,199.3a286.35,286.35,0,0,0-4.37,30.16c-.24,2.73-1.2,6.54,1.43,8.42s6-.46,9,.13a1.54,1.54,0,0,0,1.9-1.45q2-19.09,2.77-38.29a1.51,1.51,0,0,0-1.9-1.45L114,199.74c-1.84.57-1.06,3.47.79,2.89l9.34-2.92-1.9-1.44q-.76,19.18-2.77,38.29l1.89-1.45c-2.82-.55-7,1.59-8.52-1.9-.91-2,.72-8.15,1-10.3.87-7.66,2.09-15.26,3.59-22.82.37-1.88-2.52-2.69-2.89-.79Z"/><path d="M266.37,131.72a272,272,0,0,0,25.76,21.94,4.41,4.41,0,0,0,2.64,1.17c1.62-.05,2.64-1.76,3.12-3.3s.88-3.31,2.25-4.18q-15-12-30.78-23l-2.56,9.44"/><path d="M265.31,132.79a283.64,283.64,0,0,0,23.07,19.89c2.17,1.67,4.88,4.55,7.89,3.28,3.16-1.34,2.68-5.45,4.93-7.55a1.51,1.51,0,0,0,0-2.12Q286,134.19,270.12,123.1a1.51,1.51,0,0,0-2.2.89l-2.57,9.44a1.5,1.5,0,0,0,2.89.8l2.57-9.44-2.21.9q15.61,10.86,30.48,22.72v-2.12c-1.57,1.46-1.41,3.4-2.63,4.84-3.4,4-9.52-3.34-12.15-5.49-5.83-4.76-11.43-9.77-16.87-15-1.39-1.33-3.52.79-2.12,2.13Z"/><path class="b" d="M74,119.74c7.42,24.76,18.57,54.31,26,79.06,1.24,4.14,2.84,8.72,6.71,10.63s8.75.3,12.88-1.38l148.16-60.47c7.83-3.2,16.45-7.16,19.51-15.05,2.81-7.23-.05-15.29-2.89-22.51-9.62-24.43-20.12-43.2-29.73-67.63-62.1,24-121.86,46.07-180.62,77.35"/><path d="M71.07,120.54c7.53,25,16.82,49.43,24.55,74.37,2.86,9.24,6.09,20.29,18.22,18.1,6.58-1.19,13.12-4.78,19.29-7.29l21-8.59,81.4-33.22c12.52-5.11,25.25-9.88,37.59-15.42,9.68-4.34,18.32-11.28,18.19-22.82-.08-7-3-13.7-5.6-20.07C283,98.75,280,92,276.93,85.27c-6.63-14.5-13.58-28.85-19.46-43.68-.55-1.38-2.05-2.73-3.69-2.09C192.42,63.2,130.65,86.25,72.45,117.15c-3.42,1.81-.39,7,3,5.18,57.76-30.66,119-53.53,179.9-77l-3.69-2.09c9.09,22.9,20.76,44.68,29.74,67.63,2.32,5.92,5.16,12.79,3.44,19.23-1.45,5.43-6.11,8.85-10.82,11.37-10.91,5.84-23.13,9.79-34.58,14.46l-73.17,29.87-36.58,14.93c-5.39,2.2-11.27,5.57-17.07,6.4-8.2,1.17-9.39-7.82-11.24-13.77C93.67,168.38,84.39,144,76.85,119c-1.11-3.69-6.9-2.12-5.78,1.59Z"/><path d="M132,168a31.64,31.64,0,0,1-8,1.61,9.24,9.24,0,0,1-3.12-.83c-.68-.26-2.27-.69-2.54-1.38-.4-1,1.08-6.12,2.08-6.51,1.51-.59,6.18,1.38,7.78.75a6.16,6.16,0,0,0,1.54-1.19c1.77-1.53,1.85-2.56,1-4.8-.5-1.28-6.25-4.51-7.53-4s-2.28,2-3.6,2.52-4.13-.71-4.65-2c-1.29-3.29-2.28-6.64-3.57-9.93-.59-1.51-1.3-2.92-1.89-4.43s1.45-1.94,2.36-2.3l4.12-1.61c2-.79,4.21-1.23,6.22-2,1.83-.71,3.46-1.93,5.24-2.63,1.55-.61,2.62,2.66,3,3.71.3.78.59,1.51,0,2.21-1.71,2.09-11.52,4.25-11.06,6.76a14.57,14.57,0,0,0,.92,2.75c.14.36.56,1.57,1.11,1.35,1-.39,1.81-1.29,2.86-1.7a31.48,31.48,0,0,1,6-.56c2.54.43,8.2,5.33,9.13,7.7a20.59,20.59,0,0,1,.82,4.9c-.22,2.67-2.63,7.57-4.7,9.28a18.08,18.08,0,0,1-3.81,2.12s0,.07,0,.11a.1.1,0,0,0,.13.06Z"/><path d="M153.87,157.7c-1-.24-6-1.82-6.24-2.46-.41-1.05,2.46-6,3.51-6.38a7.82,7.82,0,0,1,4.18.31,19.63,19.63,0,0,1,3.93,5.05c.9,2.29.69,8.9-.51,11.06a14,14,0,0,1-2,2.41,8.21,8.21,0,0,1-2,1.73c-.87.34-3.15-2-3.44-2.71-.57-1.46,3.84-3.4,2.84-8.92l-.1-.11Z"/><path d="M156.05,132.59c-1-5.07-1.83-10,1.69-14.37a9.12,9.12,0,0,1,2.29-1.69,13.54,13.54,0,0,1,2.45-1.43c3.29-1.29,7.85-1.07,10.69,1.19,1.93,1.56,3.55,4.35,5,6.36,1.23,1.67,3,3.56,3.79,5.52,2.14,5.44,2.55,11.61-.2,16.85a13,13,0,0,1-1.45,2.62,16.1,16.1,0,0,1-4,2.42,21.25,21.25,0,0,1-5.91.94,8.63,8.63,0,0,1-2.36-.92c-4.46-2.1-6.52-5.2-8.83-9.35a35.68,35.68,0,0,1-2.14-4.12A22.62,22.62,0,0,1,156.05,132.59Zm13.08-9.92c-.57-.67-3.65-1.26-4.43-1a5.58,5.58,0,0,0-2.46,3.28,43.21,43.21,0,0,0,1.75,8.75c.71,1.83,4.29,6.91,5.63,8.45.59.71,3.17,1.76,4,1.42.5-.2,1.16-1.46,1.47-1.89a5.07,5.07,0,0,0,1.1-2.44c.07-1.3-1.36-6.43-1.9-7.8A56,56,0,0,0,169.13,122.67Z"/><path d="M183.88,121.69c-1-5.08-1.82-10,1.7-14.38a8.94,8.94,0,0,1,2.29-1.69,13.8,13.8,0,0,1,2.44-1.43c3.29-1.29,7.86-1.07,10.7,1.19,1.93,1.56,3.55,4.35,5,6.36,1.24,1.68,3,3.56,3.8,5.52,2.13,5.44,2.54,11.61-.2,16.85a14.09,14.09,0,0,1-1.45,2.62,16.17,16.17,0,0,1-4,2.42,21.12,21.12,0,0,1-5.9.94,8.7,8.7,0,0,1-2.37-.92c-4.46-2.1-6.51-5.2-8.83-9.35a35.68,35.68,0,0,1-2.14-4.12A24.62,24.62,0,0,1,183.88,121.69ZM197,111.76c-.58-.67-3.66-1.26-4.43-1a5.57,5.57,0,0,0-2.46,3.28,43.19,43.19,0,0,0,1.74,8.75,50.49,50.49,0,0,0,5.63,8.45c.6.71,3.17,1.76,4,1.42.5-.2,1.17-1.46,1.47-1.89a5,5,0,0,0,1.1-2.44c.08-1.29-1.35-6.43-1.89-7.8A58.07,58.07,0,0,0,197,111.76Z"/><path d="M211.72,110.78c-1-5.08-1.83-10,1.7-14.38a8.77,8.77,0,0,1,2.29-1.69,13.45,13.45,0,0,1,2.44-1.43c3.29-1.29,7.86-1.07,10.69,1.19,1.93,1.56,3.56,4.35,5,6.36,1.23,1.68,3,3.56,3.8,5.52,2.13,5.44,2.54,11.61-.2,16.85a14.09,14.09,0,0,1-1.45,2.62,15.87,15.87,0,0,1-4,2.42,21.25,21.25,0,0,1-5.91.94,8.76,8.76,0,0,1-2.36-.92c-4.46-2.1-6.52-5.19-8.83-9.35a34.12,34.12,0,0,1-2.14-4.12A23.64,23.64,0,0,1,211.72,110.78Zm13.09-9.93c-.58-.67-3.66-1.26-4.44-.95a5.63,5.63,0,0,0-2.45,3.28,43.19,43.19,0,0,0,1.74,8.75,50.49,50.49,0,0,0,5.63,8.45c.6.71,3.17,1.76,4,1.42.5-.2,1.16-1.46,1.47-1.89a5,5,0,0,0,1.1-2.44c.07-1.29-1.36-6.43-1.9-7.8A57.2,57.2,0,0,0,224.81,100.85Z"/><path d="M247.22,97.34c-.18-.44,1.83-1.37,2.21-1.52a7.44,7.44,0,0,1,2.2-.53c.42.18,1.1,2.2,1.25,2.59a21.22,21.22,0,0,0,1.4,2.29c2.49,4.3,1.56,3.3,4.71,6.27a34.33,34.33,0,0,0,7.8,4.62c.59.16,3.61.3,3.73.61s-.18.61-.26.76c-.31.59-1.13,3.46-1.39,3.56a11.54,11.54,0,0,1-2.81-.58,27.79,27.79,0,0,1-3.18-1.1c-.33-.14-5.4-3.18-5.5-3.29-.62-.68-2.3-2.84-2.81-3.23a14.62,14.62,0,0,0-.38,2.34c-.18,1-.41,2-.58,3-.74,3.87-.06,4.7-2.37,7.86-.27.37-1,1.56-1.41,1.71a.64.64,0,0,1-.41,0c-.95-.22-1.75-.83-2.75-1a1.36,1.36,0,0,1-.56-.14.28.28,0,0,1-.15-.17c-.07-.18.16-.48.25-.63,1.24-2.06,2-2.9,2.77-5.33a24.51,24.51,0,0,0,.77-10.76,15.93,15.93,0,0,0-.28-2.29c-.28-.72-.78-1.32-1.07-2Z"/><path d="M165.5,92.08l87.37-33.77-1.69-.69q6.21,13.73,12.08,27.59c5,11.7,11.53,24.26,13.78,36.87.33,1.9,3.23,1.1,2.89-.79-2.24-12.53-8.72-25-13.65-36.59q-6.09-14.37-12.51-28.6a1.51,1.51,0,0,0-1.69-.69L164.7,89.19c-1.78.69-1,3.59.8,2.89Z"/><path d="M201.28,163.16,113.9,196.93l1.84,1c-9.89-23.46-20.52-46.84-29.06-70.83-.65-1.81-3.55-1-2.9.8,8.54,24,19.18,47.37,29.07,70.83a1.53,1.53,0,0,0,1.85,1.05l87.37-33.78c1.79-.69,1-3.59-.79-2.89Z"/></svg>