<svg xmlns="http://www.w3.org/2000/svg" viewBox="0 0 330 550"><defs><style>.a{fill:#fff;}.b{fill:#00b997;}.c{fill:#f88334;}.d{fill:#ffbc18;}.e{fill:#f15a24;}</style></defs><title>board-15-1</title><path class="a" d="M266.45,366.23c9,12.95,12.15,29.08,13.45,44.8A232,232,0,0,1,257.62,530.7c-5.3-5.26-4.75-13.79-4.23-21.23a205.91,205.91,0,0,0-12-84.67c-2.61-7.12-5.62-14.12-7.51-21.46s-2.65-15.17-.68-22.49,7-14.09,14-16.88,16.08-.79,20.34,5.48"/><path d="M265.16,367c15.31,22.73,15.37,54.24,13.34,80.6A232.06,232.06,0,0,1,256.32,530l2.36-.31c-5.42-6-4.11-14.59-3.67-22a207.63,207.63,0,0,0-8.14-71.06c-4.68-15.81-14.33-31.93-13.25-48.86.5-7.89,3.85-16,10.62-20.49s16.84-3.91,22,3c1.14,1.52,3.75,0,2.59-1.52-6.16-8.17-17.68-9.62-26.14-4.05-10.45,6.89-13.26,20.11-11.71,31.81,2,15.37,9.86,29.58,14,44.46a204.66,204.66,0,0,1,7.33,49.33c.21,8.35-.57,16.61-.72,25-.11,6.07.77,11.94,5,16.58a1.51,1.51,0,0,0,2.35-.31,235.93,235.93,0,0,0,22.59-83.87c2.06-26.84,1.84-59-13.75-82.12-1.07-1.59-3.67-.09-2.59,1.52Z"/><path class="a" d="M280.7,536.58c.23,1.77-1.08,3.29-1.66,4.74a5.63,5.63,0,0,1-2.92,3.48,6.46,6.46,0,0,1-3.24,0c-6.8-1.14-13.5-2.72-20.21-4.29-1.27-.3-2.68-.69-3.36-1.81s-.4-2.52-.09-3.78c.34-1.42.83-3,2.18-3.62a4.37,4.37,0,0,1,2.41-.12,58.34,58.34,0,0,1,6.37,1.51c6.81,1.91,13.5,2,20.31,3.95"/><path d="M279.2,536.58c-.52,8.34-9.49,6.23-15.14,5-2.84-.61-15.08-1.74-13.25-6.79,1.47-4.06,11.65.07,14.52.59,4.94.91,9.89,1.46,14.76,2.72,1.87.48,2.67-2.41.8-2.89-5.17-1.34-10.45-1.88-15.69-2.89-3.9-.76-8-2.62-12-2.68-4.47-.07-7.6,6.18-5.07,10,1.72,2.58,6,2.79,8.72,3.41,5.17,1.2,10.37,2.46,15.63,3.22,5.85.86,9.37-4.15,9.72-9.69.11-1.93-2.89-1.92-3,0Z"/><path class="b" d="M267.29,524.71c1.2.74,2.86.53,4.37.59a9.85,9.85,0,0,1,9.47,8.78c.29,2.88-1.2,6.69-4.2,7.54a7.57,7.57,0,0,1-3.7-.17l-15.1-3.31c-1.39-.31-7.2-1.28-8.15-2.25-1.55-1.58.53-24.23,1.57-32a2.85,2.85,0,0,1,.88-2,2.4,2.4,0,0,1,2.39,0c3.27,1.31,13.89,5.64,17.16,6.95C272,508.89,265.12,523.39,267.29,524.71Z"/><path d="M266.89,526.16c2.29.8,4.67.31,7,1a8.34,8.34,0,0,1,5.8,8c-.37,6.06-5.67,4.9-9.8,4-3.15-.69-6.29-1.39-9.44-2.07-2-.45-8.11-.72-9.27-2.28s-.18-6.46-.11-8.11c.16-3.68.44-7.36.76-11,.27-3.12,0-7.36,1.07-10.31.89-2.43,1.84-1.88,3.73-1.12l5.25,2.13,9.73,3.95-.9-2.21c-1.7,3.63-8,14.08-4.45,17.64,1.35,1.38,3.47-.75,2.12-2.12s4-12,4.92-14a1.54,1.54,0,0,0-.9-2.21c-5.26-2.12-10.48-4.44-15.81-6.41-4.44-1.65-6.07-.14-6.69,4.35-.75,5.38-1.17,10.83-1.54,16.25-.28,4.12-1.17,9.26-.19,13.35.85,3.59,5,3.66,8.11,4.31,4.28.88,8.54,1.84,12.81,2.78,2.64.58,5.93,1.81,8.62.84,4.62-1.65,5.84-7.57,4.29-11.75a11.32,11.32,0,0,0-4.64-5.64c-3.11-1.93-6.36-1.11-9.64-2.26C265.86,522.62,265.07,525.52,266.89,526.16Z"/><path d="M269.15,522.26A9.8,9.8,0,0,1,273,517.9c.5-.3,5.92-2.85,4.81,0-.45,1.11-4.3,2.11-5.28,2.43a25.8,25.8,0,0,1-5.71,1.07l.4,2.94a28.54,28.54,0,0,1,8.43-1.65c1.55,0,6.81-.08,6.95,1,.06.46-6.85.87-7.75.86a37.06,37.06,0,0,1-9.08-1.23l.66,2.51-.29.07c1.91-.17,1.93-3.17,0-3a2.36,2.36,0,0,0-1.83.81,1.51,1.51,0,0,0,.66,2.5,39.23,39.23,0,0,0,14,1.12c2.3-.25,7.44-.43,7.54-3.75.09-2.88-3.74-3.31-5.79-3.61a30.39,30.39,0,0,0-14.28,1.47c-1.5.52-1.38,3.09.4,3,3-.25,19.09-3.55,14.95-9.23-1.65-2.26-5.68-1.65-7.91-.9a12.61,12.61,0,0,0-7.27,6.53c-.84,1.73,1.74,3.25,2.59,1.51Z"/><path d="M266.54,519.46l-5.25-.59a1.5,1.5,0,0,0-1.5,1.5,1.54,1.54,0,0,0,1.5,1.5l5.25.59A1.51,1.51,0,0,0,268,521a1.54,1.54,0,0,0-1.5-1.5Z"/><path d="M265.89,522a25.94,25.94,0,0,0-4.14,1.15A1.55,1.55,0,0,0,260.7,525a1.52,1.52,0,0,0,1.85,1.05,25.68,25.68,0,0,1,4.14-1.16,1.52,1.52,0,0,0,1.05-1.84,1.53,1.53,0,0,0-1.85-1.05Z"/><path d="M266.32,524a34,34,0,0,0-3.47,4.8l2.74,1.16.09-.25c.64-1.82-2.26-2.61-2.9-.79l-.08.24c-.58,1.63,1.89,2.58,2.74,1.15a31,31,0,0,1,3-4.19c1.25-1.46-.86-3.59-2.12-2.12Z"/><path d="M267.51,515.77c-2.67,0-6.28-2.19-7.71,1.44-1.15,2.94-.21,7.41,1.06,10.16s3.86,5.1,7.07,4.86a5.15,5.15,0,0,0,4.84-5.5c-.13-1.91-3.13-1.93-3,0,.22,3.31-3.77,2.63-5.31.81a9.26,9.26,0,0,1-1.77-4.29c-.18-.91-.71-3.3-.24-4.19.84-1.58,3.64-.31,5.06-.29,1.93,0,1.93-3,0-3Z"/><path d="M271.17,510.63a42.62,42.62,0,0,0-19.43-5.4c-1.94-.07-1.93,2.93,0,3a39.31,39.31,0,0,1,17.92,5c1.69.93,3.2-1.66,1.51-2.59Z"/><path class="a" d="M226.12,394.88c-2.8,15.53-12,29.14-22.19,41.18a232,232,0,0,1-100.41,68.81c0-7.46,6.4-13.1,12-18A206,206,0,0,0,167,418.55c3.19-6.88,6-13.95,9.87-20.48s8.86-12.59,15.43-16.38,14.89-5,21.85-2,11.92,10.81,10.5,18.26"/><path d="M224.68,394.48c-2.92,14.9-11.13,27.71-20.72,39.22a228.32,228.32,0,0,1-28.41,28.5,231.94,231.94,0,0,1-72.43,41.23l1.9,1.44c.47-8.57,8.29-13.92,14.13-19.17a204.38,204.38,0,0,0,16.63-16.8,208.35,208.35,0,0,0,25.57-36.06c7.59-13.57,12-29.74,22.19-41.71,5.63-6.64,13.71-12,22.76-11.63,9.49.39,18.28,7.94,16.88,18-.26,1.89,2.63,2.71,2.89.8,1.51-10.94-6.65-20.25-17.37-21.64-13.3-1.72-24.51,7.38-31.42,17.84-8.32,12.6-13,27.41-20.62,40.45a204.34,204.34,0,0,1-27.56,36.79c-5.52,5.86-11.51,11.13-17.45,16.55-5,4.53-9.25,9.58-9.63,16.54a1.52,1.52,0,0,0,1.9,1.45,235.83,235.83,0,0,0,73.75-42c21-17.69,44.42-41.06,49.9-69,.37-1.89-2.52-2.69-2.89-.8Z"/><path class="a" d="M115.68,525.35c-1.1,1.42-3.1,1.56-4.53,2.18a5.62,5.62,0,0,1-4.52.39,6.39,6.39,0,0,1-2.32-2.27c-4-5.61-7.62-11.47-11.24-17.33-.69-1.11-1.41-2.38-1.1-3.65s1.5-2.06,2.61-2.74,2.74-1.56,4.1-1a4.45,4.45,0,0,1,1.79,1.63,54.75,54.75,0,0,1,3.43,5.57c3.47,6.17,8.09,11,11.56,17.17"/><path d="M114.61,524.29c-3.25,2.87-7.38,1.91-10.08-.93-1.64-1.73-2.88-4.25-4.18-6.25s-2.68-4.22-4-6.35c-1.64-2.64-4.23-8.49,1.38-6.83,3.09.92,3.32,2.3,4.88,4.94,1.19,2,2.43,3.92,3.77,5.82,2.66,3.75,5.46,7.37,7.8,11.34a1.5,1.5,0,0,0,2.59-1.51c-2.48-4.22-5.49-8-8.29-12-2.41-3.45-4.1-7.63-6.82-10.84-3.09-3.63-10.12-2.27-11.15,2.84-.62,3,2.29,6.27,3.75,8.6,2.8,4.5,5.56,9.11,8.77,13.34,3.53,4.65,9.55,3.68,13.72,0,1.45-1.28-.68-3.39-2.13-2.12Z"/><path class="b" d="M114.6,507.48c.33,1.37,1.65,2.4,2.67,3.51a9.84,9.84,0,0,1,.48,12.9c-1.83,2.25-5.58,3.89-8.3,2.36a7.59,7.59,0,0,1-2.5-2.73l-8.32-13c-.78-1.2-4.19-6-4.18-7.35,0-2.22,17.52-16.76,23.74-21.49a2.81,2.81,0,0,1,2-.79c.9.13,1.37,1,1.68,1.71,1.38,3.23,5.82,13.81,7.2,17C129.1,499.61,114,505,114.6,507.48Z"/><path d="M113.3,508.23c1.22,2.55,3.74,4.09,4.69,6.85,1.31,3.83-.52,8.55-4.5,9.75-5.32,1.6-11-11.19-13.57-15.1-1.37-2.08-4.38-5.15-3.41-7.17,1-2.18,4.23-4.31,6-5.89,2.75-2.49,5.58-4.9,8.44-7.28,2-1.71,5-5.23,7.57-6.11,3.06-1.06,4.57,5.89,5.54,8.21q1.88,4.44,3.76,8.88l.89-2.2c-3.74,1.35-15.57,4.33-15.6,9.31a1.5,1.5,0,0,0,3,0c0-2.1,11.2-5.63,13.4-6.42a1.54,1.54,0,0,0,.9-2.2c-2.11-5-4.19-9.93-6.29-14.89-1.7-4-3.6-5.86-7.54-3-4.26,3.14-8.29,6.64-12.3,10.09-3.42,2.95-7.83,6.08-10.35,9.91-2,3.07.48,5.79,2.28,8.53,2.14,3.26,4.23,6.55,6.33,9.84,1.63,2.55,3.1,6,5.66,7.77,4.28,3,9.88-.2,12-4.32a11.17,11.17,0,0,0,1-7.21c-.75-3.87-3.71-5.55-5.33-8.91C115.05,505,112.47,506.5,113.3,508.23Z"/><path d="M117.66,507.06a9.66,9.66,0,0,1,5.75-.37c.58.15,5.93,2.43,5.06,3.66-.42.59-5.47-1.56-6-1.8a25.27,25.27,0,0,1-5.84-3.8l-1.81,2.36a27.83,27.83,0,0,1,7.4,5c1,1,4.67,5,4,5.41s-5.42-4.19-6.22-5a36.43,36.43,0,0,1-5.44-7.2l-1.29,2.26-.25-.15c1.46,1.23,3.6-.88,2.12-2.12a2.41,2.41,0,0,0-1.87-.73,1.52,1.52,0,0,0-1.3,2.26,38.77,38.77,0,0,0,9,10.61c1.82,1.47,5.41,4.86,7.9,2.84s-.39-5.46-1.73-7.19a29.93,29.93,0,0,0-10.78-8.61c-1.43-.69-3.2,1.17-1.82,2.35,2.3,2,16,11,17.09,4.11.47-2.8-2.79-5.21-4.94-6.28a12.46,12.46,0,0,0-9.78-.53c-1.81.64-1,3.54.79,2.89Z"/><path d="M117.78,503.24l-3.29-4.14a1.52,1.52,0,0,0-2.12,0,1.54,1.54,0,0,0,0,2.13l3.29,4.13a1.51,1.51,0,0,0,2.12,0,1.54,1.54,0,0,0,0-2.12Z"/><path d="M115.52,504.6a26,26,0,0,0-3.74-2.11,1.55,1.55,0,0,0-2.06.54,1.52,1.52,0,0,0,.54,2.05A24.16,24.16,0,0,1,114,507.2c1.6,1.09,3.11-1.51,1.52-2.6Z"/><path d="M114.41,506.3a35.36,35.36,0,0,0-5.87.94l1.15,2.74.24-.11c1.74-.84.22-3.42-1.52-2.59l-.23.11c-1.57.76-.45,3.14,1.16,2.74a30,30,0,0,1,5.07-.83c1.91-.15,1.93-3.15,0-3Z"/><path d="M121.07,501.32c-2-1.89-2.8-6-6.47-4.43-2.89,1.24-5.38,5.07-6.43,7.9s-.89,6.3,1.49,8.42a5.19,5.19,0,0,0,7.38-.43c1.26-1.44-.85-3.57-2.13-2.12-2,2.28-4.33-.31-4.39-2.51a8.81,8.81,0,0,1,1.85-4.94c.9-1.33,2.09-3.32,3.74-2.87,1.36.37,1.81,2.1,2.84,3.1,1.39,1.34,3.52-.78,2.12-2.12Z"/><path d="M127.3,500.25a42.24,42.24,0,0,0-9.92-17.54c-1.32-1.41-3.44.71-2.12,2.12a39,39,0,0,1,9.15,16.22,1.5,1.5,0,0,0,2.89-.8Z"/><path class="c" d="M251,322.28c24.07,23.12,36.26,58,31.81,91.11-20.4,10.64-24.38,13.15-47.1,16.81.65-6.54-2.62-18.16-6.63-23.37,1.19,15.56-13.77,34.56-19.39,36.43-13.87,4.6-50.57-.34-62.71-8.48,24.18-40.49,23.32-43.3,29.25-65.65,1.09-4.08-9.23-9.68-6.6-13,3.35-4.2,8.6-6.31,13.62-8.23q33.57-12.89,67.54-24.74"/><path d="M249.91,323.34A107.56,107.56,0,0,1,282,393.9q.27,4.68.11,9.36c-.08,2.42.3,7.19-1.16,9.11s-6,3.39-8.14,4.51-4.54,2.32-6.85,3.4c-9.78,4.58-20.08,6.74-30.69,8.48l1.9,1.44a39.37,39.37,0,0,0-6.83-24.13c-.8-1.11-2.87-.86-2.8.76.5,10.32-4.66,20.55-11,28.4-2,2.41-4.31,5.31-7.25,6.58-3.28,1.42-7.44,1.5-10.95,1.65a123.37,123.37,0,0,1-27.39-2.25c-7.87-1.47-16.39-3.34-23.22-7.73l.54,2c9.58-16.06,20-32.38,25.3-50.49.91-3.12,1.71-6.27,2.52-9.41.76-3,2.45-6.42,1.14-9.4a18.7,18.7,0,0,0-3.46-4.55,11.72,11.72,0,0,1-2.13-2.5c-1.26-2.84,1.47-4.58,3.68-6,6.56-4.13,14.74-6.32,22-9q26.83-10.1,53.91-19.55c1.81-.63,1-3.53-.8-2.89q-25.23,8.82-50.27,18.18c-7.25,2.72-14.66,5.22-21.74,8.36-3.32,1.46-10.27,4.55-10.65,8.85-.31,3.45,3.83,6.2,5.63,8.62,2.56,3.45-.12,9-1.15,12.92a120.14,120.14,0,0,1-6.52,19.1c-5.69,12.56-13,24.43-20,36.25a1.52,1.52,0,0,0,.54,2.05c7.57,4.88,17.12,6.87,25.86,8.37,10,1.73,20.43,2.78,30.55,1.71,8-.84,12.27-3.84,17.13-10.19,6.29-8.22,11.33-18.56,10.82-29.13l-2.79.76a36.81,36.81,0,0,1,6.42,22.61,1.52,1.52,0,0,0,1.9,1.45c11.53-1.89,22.46-4.44,33-9.54,2.64-1.28,5.24-2.63,7.84-4,1.9-1,6-2.17,7.14-4s.83-6.42.95-8.53a107.7,107.7,0,0,0,0-10.93,110.73,110.73,0,0,0-33-73.46c-1.38-1.35-3.51.77-2.12,2.12Z"/><path d="M203.34,376.11c2.19,10.19-2,20.74-11.15,26-6.19,3.52-21,6.3-24.55-2.3-.73-1.76-3.64-1-2.9.79,4,9.77,18.17,9,26.34,5.4,12-5.21,17.85-18.09,15.15-30.66-.41-1.88-3.3-1.08-2.89.8Z"/><path d="M196.86,379.71c3.93,14.72-15.73,24.44-26.51,15.33-1.47-1.23-3.6.88-2.12,2.13,6,5.09,14.67,6.4,21.67,2.36s12-12.38,9.85-20.62a1.5,1.5,0,0,0-2.89.8Z"/><path d="M277.24,370.34a50,50,0,0,1-23.27-12c-1.43-1.3-3.55.82-2.12,2.12a53,53,0,0,0,24.6,12.76c1.88.42,2.68-2.47.79-2.89Z"/><path class="a" d="M226.1,309.09l-.92-.21v0Z"/><path d="M226.5,307.65l-.92-.22c-.85-.19-2,.43-1.9,1.45v0a1.55,1.55,0,0,0,1.1,1.45l.92.19a1.5,1.5,0,0,0,.8-2.89l-.92-.19,1.1,1.44v0l-1.9,1.45.92.21a1.5,1.5,0,0,0,.8-2.89Z"/><path class="a" d="M99.16,152.58c-3.35.32-4.16,4.82-4,8.18q.14,2.15.33,4.29l-1.42-1.35a3,3,0,0,0-1.17-.8,1,1,0,0,0-1.21.45,1.32,1.32,0,0,0,0,.76c.67,2.78,1.92,6.68,4.59,8.49a177.1,177.1,0,0,0,35.25,84.89c21.2,27.41,56.72,44.9,89.71,55.76-.1-29.55-18.72-55.4-40-75.95-13.3-12.85-29.56-22.16-44.15-33.53S109.12,178,104.93,160C104.15,156.61,102.58,152.25,99.16,152.58Z"/><path d="M98.76,151.13c-6.08,1.5-5.13,9.14-4.73,13.92L96.59,164c-2.09-2-6.63-4.41-6.28.52.18,2.47,1.75,5.1,3,7.15,2.06,3.39,2.32,6.6,3,10.52a179.33,179.33,0,0,0,15.24,46c6.78,13.86,15.3,27.3,25.92,38.56,10.36,11,22.76,19.92,35.84,27.36a263.54,263.54,0,0,0,47.56,20.63,1.5,1.5,0,0,0,1.89-1.45c-.42-28-16.34-52.31-35.26-71.86C166.85,220,138,207.77,119.21,184.53A63.86,63.86,0,0,1,107,161.85c-1.24-4.43-2.17-10.47-7.81-10.77-1.93-.11-1.92,2.89,0,3,4.18.22,5.07,9.41,6.11,12.31a62.66,62.66,0,0,0,4.81,10.26,86.25,86.25,0,0,0,14,17.67c12.35,12.24,27.36,21.21,41.23,31.53,27.36,20.37,54,51.63,54.5,87.4l1.9-1.44c-31.91-10.59-64.71-26.06-86.65-52.4a167,167,0,0,1-27.42-47.94,178.7,178.7,0,0,1-7.57-25.94c-.46-2.21-.89-4.42-1.26-6.64-.35-2-.24-4.84-1-6.69-.51-1.21-1.89-2-2.6-3.11A14.3,14.3,0,0,1,93.83,166c-.63-1.62-.41-1.57.64.15.87.83,2.67.3,2.56-1.06-.24-2.89-1.65-10,2.53-11C101.43,153.56,100.64,150.67,98.76,151.13Z"/><path class="a" d="M274,316.8c.07-.31.13-.62.19-.93l0,0Z"/><path d="M275.47,317.2c.06-.31.13-.62.19-.93l-2.2.9h0l-.69-1.69-.21.91a1.5,1.5,0,0,0,2.89.8l.21-.92a1.54,1.54,0,0,0-.69-1.69h0a1.51,1.51,0,0,0-2.2.89c-.07.31-.13.62-.19.93a1.5,1.5,0,0,0,2.89.8Z"/><path class="a" d="M196.21,129.72c2-2.75,6.26-1.2,9.07.66,1.19.8,2.37,1.61,3.55,2.43-.16-.63-.31-1.27-.46-1.91a3.07,3.07,0,0,1-.11-1.41,1,1,0,0,1,1-.82,1.32,1.32,0,0,1,.65.41c2.07,2,4.82,5,5.06,8.22a177.12,177.12,0,0,1,55.86,73c13.13,32.07,10.5,71.57,3.39,105.57-25.53-14.88-38.6-43.93-45.75-72.61-4.48-17.95-4.41-36.69-7-55s-8.29-37.21-21.8-49.85C197.21,136.06,194.22,132.51,196.21,129.72Z"/><path d="M197.27,130.78c3-3,8.42,1.67,10.8,3.33,1.13.78,2.49-.51,2.2-1.7-.83-1.7-.69-1.81.44-.34a11.87,11.87,0,0,1,2.55,4.26c.87,2.22-.1,1.34,1.93,3,3.34,2.79,6.74,5.48,10,8.42a178.57,178.57,0,0,1,16.91,17.66,173.9,173.9,0,0,1,26.75,43.93c14,33.35,11.09,71.48,3.95,106.1l2.2-.89c-28.63-17.09-42.62-52.27-47.47-83.89-2.87-18.67-2.6-37.76-7-56.19a90.82,90.82,0,0,0-8.12-21.93,63.09,63.09,0,0,0-6.25-9.45c-2.2-2.74-10.38-8.71-8.59-12.65.79-1.74-1.79-3.27-2.59-1.51-2.23,4.88,1.62,8.32,4.87,11.6A61.37,61.37,0,0,1,212.19,159c6.47,14.61,8.27,30.59,9.65,46.36,2.51,28.64,7.29,57,22.45,82,7.32,12.08,17,22.48,29.17,29.75a1.51,1.51,0,0,0,2.2-.9c6.31-30.58,9.28-63.34.87-93.82-8-29.1-26.58-56-48.65-76.24-3.19-2.93-6.85-5.46-9.93-8.46-2.37-2.31-3.26-5.8-5.59-8.31-4-4.34-6.12-.95-5,3.77l2.21-1.69c-4-2.81-10-7.32-14.44-2.87A1.5,1.5,0,0,0,197.27,130.78Z"/><path class="d" d="M240.45,249.06c37,34,58.07,76.95,52.24,126.83-40.31,13.49-93.37,7.93-131.28-11.31-2.26-1.15-4.64-2.49-5.74-4.78-1.35-2.8-.37-6.12.63-9.07,6.33-18.65,30.56-76.6,25.93-95.74-1.67-6.92-3.8-15.15,1-20.42,3.83-4.22,10.37-4.36,16-3.59a82.55,82.55,0,0,1,41.23,18.08"/><path d="M239.39,250.12c17.3,16,32.16,34.77,41.65,56.47a135,135,0,0,1,10.15,69.3l1.1-1.45c-23.05,7.56-47.84,8.87-71.82,6a189.33,189.33,0,0,1-35.83-7.89,161.8,161.8,0,0,1-17-6.6,57.24,57.24,0,0,1-6.81-3.34c-5.36-3.37-4.4-7.54-2.75-12.36,5.16-15.06,11.16-29.82,16.16-44.95,4.8-14.51,11.2-31.37,10-46.94-.35-4.56-2.1-8.86-2.39-13.44-.61-9.71,6.43-13.36,15.23-12.63,15.39,1.26,30.42,8.24,42.32,17.87,1.48,1.21,3.62-.9,2.12-2.12a85.58,85.58,0,0,0-36.07-17.45c-9.2-2-23.13-3.37-26.16,8.39-1.34,5.18.19,10.68,1.33,15.74a33.66,33.66,0,0,1,.48,10.6c-.87,9.6-3.56,19.09-6.32,28.3-5.46,18.24-12.52,35.91-18.9,53.84-1.44,4-3.51,8.77-1.57,13,2.19,4.73,8.8,6.79,13.19,8.75a179.26,179.26,0,0,0,37.3,11.76c29,5.85,60,5.72,88.3-3.56a1.55,1.55,0,0,0,1.1-1.44,137.52,137.52,0,0,0-10-69.46C274.63,284,259.35,264.5,241.51,248c-1.42-1.31-3.54.81-2.12,2.12Z"/><path class="d" d="M209,217.68a39.93,39.93,0,0,1,18.43,22.2c1.29,3.9,2,8.17.81,12.11s-4.45,7.45-8.54,7.89c-4.48.47-12.05-2.7-15.08-6-8-8.75-9.26-20.25-9.9-32.06-.12-2.13,0-4.45,1.3-6.11,1.68-2.09,4.9-2.38,7.4-1.38s4.45,3,6.32,4.9"/><path d="M208.25,219a39,39,0,0,1,17.25,19.91c1.74,4.61,2.94,10.31.38,14.88-2.93,5.25-8.22,5.22-13.2,3.33-8.56-3.26-12.73-11.54-14.66-20a82.78,82.78,0,0,1-1.7-13.68c-.19-3.26-1-7.87,4.45-8.15,3.22-.17,5.9,3,7.92,5,1.36,1.38,3.48-.74,2.12-2.12-3.44-3.5-8.15-7.56-13.43-5.27s-4.22,9-3.84,13.73c1,11.71,3.84,26.32,15.41,32.13,4.18,2.1,9.61,3.88,14.11,1.74,5.17-2.46,7.48-8.21,7.26-13.66-.52-12.71-10-24.3-20.55-30.41a1.5,1.5,0,0,0-1.52,2.59Z"/><path class="a" d="M209.67,223.21a28.55,28.55,0,0,1,13.18,15.88,14.77,14.77,0,0,1,.58,8.66c-.82,2.82-3.18,5.33-6.1,5.64-3.21.34-6.11-1.9-8.28-4.29a37.47,37.47,0,0,1-9.6-23,6.3,6.3,0,0,1,.93-4.38c1.21-1.49,3.51-1.69,5.3-1a13.81,13.81,0,0,1,4.52,3.51"/><path d="M208.91,224.5A28,28,0,0,1,219.42,235a20.5,20.5,0,0,1,2.93,9.26c.06,5.53-4.39,9.7-9.94,5.81-4.34-3-7.45-8.66-9.26-13.52a38.16,38.16,0,0,1-1.69-6.11c-.7-3.79-1.18-3.88,2.11-6s3.16-1.52,5.57.92a1.5,1.5,0,0,0,2.12-2.12c-2.43-2.46-5.65-5.27-9.41-4.11-3.19,1-4,4-3.9,7,.19,9.34,5,20.67,12.59,26.39,6.67,5,14.37.72,14.77-7.37.47-9.63-7.07-18.65-14.89-23.25a1.5,1.5,0,0,0-1.51,2.59Z"/><path class="b" d="M226.52,218.46c4.85-3.7,5.8-11,3.41-16.62s-7.43-9.68-12.78-12.58c-7.71-4.18-17.18-6.35-25.25-2.94a20.33,20.33,0,0,0-2.56,36.14c6.07,3.64,13.71,3.87,20.59,2.16s13.16-5.16,19.36-8.58"/><path d="M227.59,219.52c10.26-8.87,3.43-22.76-5.76-29.16-11.16-7.76-28.2-11.19-38.24.21a22,22,0,0,0,3.6,32.25c13.49,9.66,30.31,1.43,42.85-5.49,1.7-.93.18-3.52-1.51-2.59-10.06,5.55-21.74,11.91-33.59,8.49-12.12-3.51-17.85-18-10.69-28.63,15.25-22.59,59.82,6.7,41.21,22.8-1.46,1.27.67,3.38,2.13,2.12Z"/><path class="a" d="M194,206.11c-5.36,7.61,1.45,20.45,6.79,26.33,7.43,8.18,23.33,5.75,28.12-4.74,2.37-5.19-2.38-11.84-5.48-16-2.06-2.76-8.57-10.61-12.63-9.08C210.81,202.61,198.9,199.19,194,206.11Z"/><path d="M192.72,205.36c-5.8,9.43,1.34,24.92,9.88,30.57,8.74,5.8,22.62,2.61,27.35-7,2.75-5.56-.49-11.35-3.7-16-2.84-4.08-6.3-8.78-10.83-11.08-2.48-1.25-5.93-1.3-8.75-1.56-5.12-.46-10.35.5-13.72,4.67-1.2,1.49.91,3.63,2.13,2.12,4.09-5.07,11.26-4.12,17-3.1,3.89.7,6.95,4.44,9.35,7.44,3,3.7,7.69,9.48,6.49,14.57-2.15,9.14-15.63,11.93-22.84,7.85-7.74-4.39-14.73-19-9.75-27.06C196.32,205.22,193.73,203.71,192.72,205.36Z"/><path class="d" d="M218,207.62a105.19,105.19,0,0,1,9.54,7.95,5.8,5.8,0,0,1,2,3.08c.26,1.74-1,3.3-2.2,4.59s-2.91,3-4.86,2.87c-1.73-.1-3.08-1.52-4-3-2.7-4.48-2.78-10-2.78-15.26C215.78,207.84,216.15,206.22,218,207.62Z"/><path d="M217.26,208.92c2.66,2,5.25,4.08,7.72,6.31,1.58,1.43,3.74,2.78,2.49,5.58a8.67,8.67,0,0,1-2.54,2.78c-4.65,2.71-6.38-3.44-7-6.45-.13-.61-.38-8.07-.65-8.22a1.5,1.5,0,0,0,1.52-2.59c-4.93-2.84-4.59,3.28-4.41,6.39.28,4.72,1.38,12.87,6.78,14.63,4.12,1.34,9.33-3.61,9.91-7.48.37-2.49-1.27-4.25-2.95-5.83a109.37,109.37,0,0,0-9.33-7.71C217.24,205.16,215.74,207.77,217.26,208.92Z"/><path d="M281.29,404.36a141.49,141.49,0,0,1-44.3,17c-1.9.38-1.1,3.27.79,2.89a143.53,143.53,0,0,0,45-17.31,1.5,1.5,0,0,0-1.51-2.59Z"/><path d="M218,434.77a111.63,111.63,0,0,1-69-3.87c-1.81-.69-2.59,2.2-.8,2.9a114.39,114.39,0,0,0,70.62,3.86,1.5,1.5,0,0,0-.79-2.89Z"/><path class="b" d="M201.89,185.59c-5.13-2.92-11.75-.23-16.13,3.73s-7.64,9.15-12.49,12.51a21.7,21.7,0,0,1-13.64,3.76c-2-.13-4.18-.51-5.93.5a5.38,5.38,0,0,0-2.15,5.79,11.1,11.1,0,0,0,3.55,5.46c4.38,4.09,10.13,6.52,14.28,10.84,3.89,4.06,6.1,9.52,10.13,13.44s11.37,5.62,14.91,1.25c2.72-3.37,1.65-8.46-.57-12.18s-1-9.68-2.6-13.71"/><path d="M202.64,184.29c-15.69-7.37-23.09,15-35.51,18.89-5,1.59-13.89-1.61-16.59,4.4-2.57,5.71,2.87,10.63,7,13.62,3.62,2.65,7.67,4.78,10.81,8,2.93,3.06,4.85,6.9,7.39,10.25,3.33,4.39,8.16,8,13.95,7.37,5.18-.55,8.19-4.9,7.8-10-.26-3.43-2.25-5.88-3.14-9.09-1-3.67-.46-7.56-1.63-11.24-.58-1.83-3.47-1.05-2.89.8,1.33,4.2.56,8.77,2.18,12.89,1.15,2.92,3.71,6.4,2.27,9.73-2,4.57-6.91,4.62-10.75,2.64-5.13-2.64-7.51-8.5-10.85-12.88-2.82-3.7-6.43-6.27-10.25-8.83a37.51,37.51,0,0,1-7.18-5.59c-1-1.09-2.49-3.24-2.31-4.78.54-4.68,4.18-3.56,6.72-3.47A24,24,0,0,0,172,204.36c9-4.79,16.94-23.22,29.16-17.48,1.74.82,3.26-1.77,1.51-2.59Z"/><path class="b" d="M210.36,197.21c2.76,5.57,1.07,12.52-2.59,17.54s-9,8.53-14.19,11.92a68.76,68.76,0,0,1-3.2-17.88c-.16-3.72,0-7.64,2-10.83a11.08,11.08,0,0,1,20.36,3.52"/><path d="M209.06,198c5.21,12.33-7.34,21.59-16.23,27.41l2.2.9c-2.24-7.33-4.66-16.64-2.69-24.26a9.68,9.68,0,0,1,18.91-.14,1.5,1.5,0,0,0,2.89-.8c-2.37-8.77-12.57-13.07-20.08-7.24-9.24,7.18-4.75,24-1.92,33.23a1.51,1.51,0,0,0,2.2.9c10.57-6.92,23.29-17.37,17.31-31.51-.75-1.78-3.33-.25-2.59,1.51Z"/><path d="M156.86,221.08a108.06,108.06,0,0,1-.54,61.59c-.56,1.85,2.33,2.64,2.89.8a110.87,110.87,0,0,0,.54-63.19,1.5,1.5,0,0,0-2.89.8Z"/><path d="M279.58,247.16a122,122,0,0,0-49-31c-1.83-.62-2.62,2.27-.79,2.89a119,119,0,0,1,47.63,30.22c1.34,1.4,3.46-.73,2.12-2.12Z"/><path class="a" d="M200.28,301.29c1.79,13.61,1.59,36.71-4.05,49.22a216.94,216.94,0,0,0,96.49-4.13c-2.84-14.76-8.89-38.27-14.32-52.28a198.18,198.18,0,0,1-79,6.93"/><path d="M198.78,301.29c1.93,15.47,2.41,33.88-3.85,48.46-.34.8-.16,2,.9,2.21a222,222,0,0,0,97.29-4.14,1.53,1.53,0,0,0,1.05-1.84c-3.45-17.66-7.9-35.46-14.33-52.28a1.53,1.53,0,0,0-1.84-1.05,200.81,200.81,0,0,1-78.58,6.88c-1.92-.21-1.9,2.79,0,3a203.17,203.17,0,0,0,79.38-7L277,294.5c6.43,16.82,10.88,34.62,14.33,52.28l1-1.85a218.41,218.41,0,0,1-95.69,4.13l.89,2.21c6.5-15.15,6.27-33.9,4.26-50-.24-1.89-3.24-1.91-3,0Z"/><path d="M236.7,326.8c.57.16.84,0,.83.73s.07,2.69-.72,2.68-1.35-.24-2-.25c-.37,0-2.19,0-2.2.42,0,.57,2.57,3.7,3.11,4.15a6.65,6.65,0,0,0,1.32.76c.22.12,1.1.55,1.1.78s-.93,1.14-1.15,1.46-.91,1.74-1.4,1.73a3.59,3.59,0,0,1-.94-.35c-3.4-1.67-4-5.33-4.91-5.78a.47.47,0,0,0-.25.15c-.32.36-.47.93-.8,1.32a25.32,25.32,0,0,1-3.92,4.17c-.2.14-.75.56-1,.55a6.9,6.9,0,0,1-2.38-2.74c0-.19.67-.63.82-.73a11.18,11.18,0,0,0,4.14-4.36,4.3,4.3,0,0,0,.54-1.38V330c-.39-.27-2.59-.12-3.4-.13s-1.28.15-1.27-.73c0-.47,0-2.59.69-2.58s1.36.23,2,.24a6.71,6.71,0,0,0,1.26-.11c1.31-.18,1.31-.08,1.32-1.58a7.65,7.65,0,0,0-.19-2.3c-.19-.2-1.33-.19-1.62-.19a5,5,0,0,0-1.78.35.67.67,0,0,0-.08.29c0,.37.09.74.08,1.11,0,.55-1.46,1.17-1.93,1.16s-.85-1.36-1.12-1.71c0,.84.11,1.68.1,2.52s-.2,1.69-.21,2.56.23,1.73.22,2.59c0,1.55-.28,3.1-.3,4.65,0,.82.25,1.61.24,2.4,0,.64-1.31.48-1.75.47a4.81,4.81,0,0,1-1.63-.17c-.29-.2-.23-3.84-.22-4.51,0-.86.19-1.72.2-2.59l.07-5.22a2.16,2.16,0,0,0,0-.57l0-.1c-.05,0-.08.1-.08.12-.18.42-.32,1.75-.88,1.74s-2.44-.49-2.43-1.06a9.23,9.23,0,0,1,.33-1.33c.18-.59.41-1.2.59-1.79s.28-2.39.45-2.58,1.31.06,1.63-.26.51-2.85.51-3.54c0-1.28,0-1.33,1.28-1.32a5.53,5.53,0,0,1,1.79.22c.54.4,0,3.45.4,4.25a.5.5,0,0,0,.17,0c.22,0,.79-.31,1-.3.49,0,.79,2,.88,2.35.11-.57-.06-2.66.65-2.78s3.18.16,3.36-.28a1.62,1.62,0,0,0,.08-.59c0-2.32-.53-3.16,1.86-3.14.4,0,1.31,0,1.6.25.68.69-.11,3.5,1,3.66a11.66,11.66,0,0,0,1.56.09c.83,0,1.65-.15,2.46-.15s.48,1.47.47,2c0,1.41.27,2.77.25,4.17a4.68,4.68,0,0,0,0,1.06Zm-4.86-4a1,1,0,0,0-.69.15.72.72,0,0,0-.08.32c0,.54.14,1.08.13,1.62s-.13,1-.14,1.51c0,.19.17.27.34.27a4,4,0,0,0,1.48-.13.67.67,0,0,0,.08-.29c0-.5-.21-1-.2-1.46s.08-1.06.09-1.58a.71.71,0,0,0-.1-.3.49.49,0,0,0-.27-.1Z"/><path d="M256.09,321.37c.06.47,1,9.15.55,9.53a3.63,3.63,0,0,1-1.42.36c-.44.05-1.55.32-1.63-.32s-.07-1.31-.15-2c-.11-.81-.38-1.59-.49-2.4-.08-.63-.06-1.28-.14-1.92a.37.37,0,0,0-.47-.34,17.44,17.44,0,0,0-2.05.66,17.87,17.87,0,0,1-2.91.4c-2,.26-4,.84-6,1.1s-1.83-.14-2.08-2.1c-.15-1.12,1.24-.76,1.77-1.45a3.36,3.36,0,0,0,.37-1.21,4.25,4.25,0,0,0,.12-1,.56.56,0,0,0-.07-.19c-.69-.55-2.68.6-2.85-.7-.06-.46-.19-2.44.42-2.52s1.49,0,2.25-.11c1.64-.21,3.24-.71,4.88-.92.66-.09,1.35-.1,2-.14s2.63-.41,2.75.57c.43,3.33,0,1.94-1.8,2.77a27.84,27.84,0,0,0,3.65,4.43,17.87,17.87,0,0,0-.31-2.18c-.19-1.29-.36-2.61-.53-3.93-.07-.54,0-.77.62-.85,2.74-.35,2.85-.81,3.23,2.15Zm-2.71,13.55c0,.34,0,.63-.38.75a38,38,0,0,1-4.17,1.18,67.25,67.25,0,0,1-7.08,1.78c-.76.09-1.2-2.16-1.28-2.75a1.56,1.56,0,0,1,0-.57c.18-.77,4.14-.83,4.49-1.27.17-.22.06-.83,0-1.1a2.49,2.49,0,0,0-.26-1c-.62-.62-3.78.56-3.91-.47a7.8,7.8,0,0,1,0-1c0-2.17.66-1.48,3-1.77a.8.8,0,0,0,.51-.17,1.51,1.51,0,0,0,0-.3c-.05-.36-.25-.76-.3-1.13-.08-.66,2.47-.89,3-1,.27,0,.77-.07.82.32s0,.79.05,1.21c.08.64,2.66,0,3.12-.08s.76.11.82.59a4.75,4.75,0,0,1,0,1c-.09,2.35-.69,1.73-2.72,2-.93.12-.64,1.05-.55,1.74a.37.37,0,0,0,.47.36c1.19-.15,2.34-.52,3.52-.67C253.14,332.51,253.32,334.43,253.38,334.92Zm-5.93-12.49c0-.32-.82-.77-.87-1.16s1.34-1.56,1.57-1.89c-1.62.11-2.35.48-2.82,2a4.91,4.91,0,0,0-.28,1.13.21.21,0,0,0,0,.12c.3.19,1.15,0,1.51,0a7.55,7.55,0,0,0,.83-.13Zm10.15-3.61c-.14-1.1-.21-2.22-.27-3.3,0-.3-.11-.68.13-.94a8.83,8.83,0,0,1,2.29-.56c.32,0,.57,0,.71.3.07.17.32,1.95.35,2.19.28,2.18.66,4.35.94,6.52.1.79.05,1.56.15,2.35s.43,1.38.52,2.09l.33,2.57a17.73,17.73,0,0,1-.05,2.52c-.06,2.69,0,3.07-2.72,3.83a19.13,19.13,0,0,1-2.26.56c-.27,0-.54.09-.68-.21s-1-2.9-1-2.92c-.12-.93,3.52-.65,3.4-1.59-.15-1.19-.56-2.39-.72-3.63-.13-1.05.08-2.1-.05-3.18-.19-1.42-.54-2.81-.73-4.26Z"/><path d="M276.84,313.76c-.85-.08-3.69.95-4.73,1.26s-2,.3-2.91.58c-1.44.43-3.16,1.49-4.29,1.82-.64.19-1-1.52-1.16-2s-.59-1.29.21-1.53c1.09-.32,2.24-.46,3.3-.77s2-1,3-1.32a10.17,10.17,0,0,1,1.46-.28,22,22,0,0,0,3-.85c.62-.18,1.29-.18,1.9-.36a17.4,17.4,0,0,0,2.65-1c.48.07,3.45.85,3.54,1.16s-.76,1.18-.9,1.48c-.39.84-.49,1.79-.94,2.62-.58,1.1-2.46,4-2.95,5.23a4.3,4.3,0,0,0,.15,2.55,65,65,0,0,0,1.61,6.86,2.59,2.59,0,0,1,.18,1.05c-.26,1.44-5,3.15-5.74,3.36a.56.56,0,0,1-.64-.17,9,9,0,0,0-1.18-1.71c-.24-.21-.77-.51-.88-.79a16,16,0,0,1,1.8-.51,4.21,4.21,0,0,0,1.62-.95c.24-.17.84-.63.92-.89a7.6,7.6,0,0,0-.41-2.6c-.28-.93-1.2-1.68-1.48-2.63-.2-.66-1.12-4.45-.94-4.86s1-.44,1.36-.54c.69-.2,1.08-1.48,1.34-2l.67-1.2c.08-.16.45-.81.4-1Z"/><path d="M192.89,297.93l9.63,8.52,1.87-3.81-7.48-7.53a3.24,3.24,0,0,0-1.56-1,2.21,2.21,0,0,0-2.13,1,6.45,6.45,0,0,0-.89,2.3"/><path d="M199.91,347.34l-11.62,5.49,2.76,3.22,9.87-3.91a3.17,3.17,0,0,0,1.57-1,2.22,2.22,0,0,0-.07-2.35,6.62,6.62,0,0,0-1.77-1.73"/><path d="M222.82,349.61a178.51,178.51,0,0,0,64.08-5.54,1.5,1.5,0,0,0-.8-2.89,176.13,176.13,0,0,1-63.28,5.43c-1.92-.19-1.91,2.82,0,3Z"/><path d="M280.56,297c4-29,4.36-59.92-6.84-87.51a179.47,179.47,0,0,0-48.43-67.61c-2.66-2.31-6.21-4.37-7.93-7.42-1.52-2.69-2.78-5.53-5.33-7.51-1.47-1.14-3.19-1.77-4.91-.67-2.61,1.68-1.78,4.84-1.18,7.32l4.4-3.39c-4.22-2.93-11.76-8.13-16.25-2.63-5,6.14,3.16,12.25,6.81,16.32C212.67,157.07,217,175.28,219,192.35l4.52-2.59a44,44,0,0,0-23.5-8.17c-8.7-.55-14.66,3.34-20.34,9.67-3,3.36-5.92,7.11-10,9.22-5,2.57-9.44,1.21-14.62,2.08-7.26,1.23-7.92,9.3-4.27,14.48l4.11-4.11c-17.21-12-35.81-25.18-44.3-45.19-2.29-5.4-2.79-17.2-10.39-18.11-8.48-1-8.15,10-7.7,15.42l5.12-2.12c-2.43-2.32-8.25-5.31-8.92.42-.58,5,4.35,8.88,5.2,13.4,2.69,14.24,6,28,11.55,41.42,11,26.5,27.54,49.74,50.78,66.74l-1.49-2.59v.75c0,3.41,4.94,4,5.89.8l.18-.63-4.4,1.8a197.48,197.48,0,0,0,18.27,11.51l-1.38-3.39c-5.15,17-11.52,33.64-17.63,50.34-2,5.61-5.7,12.74-2.22,18.45,1.94,3.17,5.5,4.8,8.72,6.36,4.16,2,8.43,3.82,12.73,5.51l-2.09-3.69c-2.17,8.29-4.11,16.66-7.46,24.58-5.7,13.45-13.57,26.05-21,38.55a3.07,3.07,0,0,0,1.08,4.11,50.11,50.11,0,0,0,9.79,4.49l-1.8-4.41a209.05,209.05,0,0,1-34.18,42l3.64-.47c-3.5-2.26-6-.16-8.85,2.1q-5.23,4.14-10.29,8.49c-3.2,2.75-6.16,5.73-9.29,8.53-2.75,2.46-6.29,4.25-5.38,8.6.48,2.28,2.19,4.38,3.39,6.3,2,3.19,4,6.37,6.07,9.49,2.33,3.49,4.74,8.59,9.58,8.73,9.76.3,17-9.18,13.87-18.25l-5,2.92c2.52,2.41,9.38,9.54,13.23,5.23s-3.24-10.76-6.06-13.3l-2.92,5c3.63,1.51,13.52,4,11.7-3.59-1.49-6.18-9.65-7.8-14.89-7l3.38,4.41c1-2.34,5.94-3.22,8.49-4.14a3.07,3.07,0,0,0,1.79-4.41c-.63-1.5-1.27-3-1.9-4.49l-1.07,4.11a239.9,239.9,0,0,0,49.41-31.83q5.58-4.67,10.85-9.67c3.12-3,6.17-7.85,10.5-8.32,3.87-.43,8.06-.46,11.7-2a14.16,14.16,0,0,0,3.09-1.93c1.2-.93,3.56-4.46,4.93-4.81,3.4-.85,2.49-5.71-.79-5.89l-.74,0,2.12,5.12c7-8.92,12.75-19.83,12.26-31.47l-5.59,1.51a35.45,35.45,0,0,1,6.22,21.86c-.14,2.13,2,3.19,3.8,2.9,2.39-.4,4.79-.81,7.17-1.24l-3.69-2.1a207.89,207.89,0,0,1,10.8,71.87l2.21-2.89c-4,.87-4.31,4.16-4.74,7.74-.52,4.41-.93,8.84-1.26,13.28-.32,4.2-.33,8.39-.53,12.59-.19,4-1.46,7.81,2.84,10.15,5.06,2.74,12.58,3.29,18.18,4.38,4.39.85,9.58,2.45,12.81-1.66,5.67-7.22,5-17.66-3.82-21.81L274.93,529c3.67-.09,12.68.17,13-5.26.36-6.1-9.84-5.7-13.63-5.52l.8,5.89c3.65-1.51,12.82-6.08,6.86-10.82-5.16-4.1-12.85,1.11-15.93,5.26l5.48.71c-.91-2.29,1.94-6.46,3.06-8.86a3.06,3.06,0,0,0-1.8-4.4l-4.51-1.83,2.09,3.69a238.41,238.41,0,0,0,12.83-93.12l-1.49,2.59c2.31-1.2,3.36-1.52,4.09-3.94,1.11-3.7.85-8.63.89-12.43a115.51,115.51,0,0,0-2.14-22.72l-2.1,3.69c3.73-.92,7.41-2,11.06-3.15a3.14,3.14,0,0,0,2.2-2.89,140.75,140.75,0,0,0-15.43-81.19c-1.79-3.43-7-.4-5.18,3a135.17,135.17,0,0,1,14.61,78.16l2.21-2.9c-3.66,1.19-7.34,2.23-11.06,3.15a3.07,3.07,0,0,0-2.1,3.69,108,108,0,0,1,1,33.56l1.48-2.59-2.59,1.35a3,3,0,0,0-1.49,2.59,233.88,233.88,0,0,1-12.61,91.52c-.58,1.66.67,3.12,2.09,3.69s3,1.23,4.52,1.83l-1.79-4.4c-1.82,3.87-5.34,9.26-3.67,13.48a3.06,3.06,0,0,0,5.49.72,5.58,5.58,0,0,1,2.65-2.32,5.67,5.67,0,0,1,3.28-1.17l-.33-1.41a23.75,23.75,0,0,1-3.31,1.65c-2.85,1.18-2.89,6.06.8,5.89a35.69,35.69,0,0,1,3.58-.06c1.76.09,4.77,1.77,4.4-.64-.3-2-1.06-1.08-2.9-.83a41.23,41.23,0,0,1-4.45.31c-2.77.06-4.34,4.26-1.51,5.59,3.85,1.81,5.62,5.07,3.95,9.22-.91,2.26-.94,3-3.48,3.44s-4.29,0-6.68-.52c-3.69-.75-8.42-1.16-11.91-2.66-2.12-.91-2.61-.92-2.9-3.4a20,20,0,0,1,0-2.32c0-4.65.26-9.27.63-13.91.11-1.35.51-13.71,1.49-13.92a3,3,0,0,0,2.2-2.89,213.12,213.12,0,0,0-11-73.46,3.09,3.09,0,0,0-3.69-2.1q-3.59.66-7.18,1.24l3.8,2.89a40.74,40.74,0,0,0-7-24.89c-1.6-2.23-5.72-1.7-5.59,1.52.42,10-4.47,19.55-10.5,27.22-1.61,2-.65,5,2.12,5.13l.74,0-.8-5.9c-3.61.91-5.07,5-8.3,6.78-4.15,2.26-9,.94-13.39,1.92-3.44.77-6.23,5.16-8.71,7.58Q181.69,455,175.84,460a233.41,233.41,0,0,1-50.15,32.55c-1.59.76-1.67,2.71-1.08,4.1s1.26,3,1.9,4.49l1.79-4.41c-4,1.44-10.29,2.79-12.07,6.9a3.05,3.05,0,0,0,3.39,4.41,7.84,7.84,0,0,1,4.18.33q2,2.77,2.84.8c.78-.76.43-1.1-1-1a25.39,25.39,0,0,1-2.79-1.06c-2.81-1.17-5,3.1-2.92,5,.72.65,4.89,6.18,5.3,6.2l1.72-2-1.35-.9c-1.07-1.23-3.12-2.5-4.36-3.69-2-1.95-6,0-5,2.92,1.48,4.23-.06,8.43-4.64,9.63-5.18,1.37-6.44-2.59-8.88-6.29-1.92-2.93-4.76-6.27-6-9.52-1.4-3.61,0-4,2.35-6.35,3.36-3.32,6.88-6.44,10.48-9.5.88-.74,9.63-8.85,10.37-8.37a3.06,3.06,0,0,0,3.64-.47,215.47,215.47,0,0,0,35.11-43.24,3,3,0,0,0-1.79-4.41,42.84,42.84,0,0,1-8.35-3.88l1.08,4.1c7.6-12.75,15.53-25.57,21.33-39.28,3.45-8.17,5.52-16.73,7.75-25.29a3.08,3.08,0,0,0-2.09-3.69c-4.09-1.6-8.14-3.32-12.07-5.27-4.26-2.11-7.2-4.48-5.76-9.73s3.68-10.37,5.57-15.46c5.27-14.16,10.47-28.35,14.85-42.82a3.07,3.07,0,0,0-1.38-3.39,195.29,195.29,0,0,1-18.27-11.5c-1.63-1.16-3.91.07-4.41,1.79l-.18.62,5.89.8c0-4.25-6.27-6.9-9.15-9.3a124.83,124.83,0,0,1-13.57-13.15,154.23,154.23,0,0,1-20.66-31A175.15,175.15,0,0,1,100,176.82c-.35-2.14-.26-4.53-1.51-6.34-.83-1.21-1.88-1.86-2.57-3.28l-.62-1.64c-.34-2.13-1-1.6-1.87,1.61,1.74,1.66,5.34.59,5.12-2.12a45.2,45.2,0,0,1-.36-5.45c.13-2.89,1.56-4.12,3.22-1.17,1.58,2.8,1.8,6.8,3,9.82A71.38,71.38,0,0,0,115,186.47c10.13,12.85,23.55,22.35,36.85,31.64,2.42,1.69,5.81-1.68,4.1-4.1-1.35-1.92-2.38-4.48.58-5.6,1.19-.45,3.32.25,4.66.23a25.37,25.37,0,0,0,8.61-1.66c5.69-2.17,9.62-6.44,13.58-10.87,2.29-2.56,4.57-5.19,7.59-6.91,3.3-1.89,6.54-1.78,10.18-1.55a37,37,0,0,1,19.33,7.29c1.74,1.25,4.78-.39,4.51-2.59-1.48-12.22-3.9-24.29-9-35.58a67.07,67.07,0,0,0-9.41-15.31c-1.68-2.05-5.69-4.78-6.66-7.17-2.27-5.6,5.86.1,7.31,1.11,2.27,1.57,5-1,4.41-3.39q-4.74-1-2.07,1.12a10.7,10.7,0,0,1,2.17,3.6c.48,1.32.24,1.61,1,2.69,1.92,2.69,6.26,5,8.82,7.24a176.88,176.88,0,0,1,16.16,16.12,174.18,174.18,0,0,1,25,37.15c15,29.88,16.44,62.84,11.94,95.48C274.26,299.19,280,300.82,280.56,297Z"/><path class="a" d="M50.41,184.49a5.27,5.27,0,0,0,.29,1.42c1.92,5,6.18,4.12,9.79,3.18l226.68-58.6a6,6,0,0,0,3-1.39,4.16,4.16,0,0,0,.61-3.5c-.59-4.43-1.3-9.48-2.09-15L48.43,163.54Z"/><path class="a" d="M274.2,13.2a8.87,8.87,0,0,0-.64-2.44C271.39,6,266.05,7,261.74,8.24,189,28.56,111.32,39.23,38.6,59.55l1.81,19.17L276.1,26.82C275.38,21.85,274.74,17.26,274.2,13.2Z"/><path class="e" d="M40.41,78.72l8,84.82,240.23-52.9c-3.63-25-9-59.1-12.56-83.82Z"/><path d="M38.91,78.72l8,84.82a1.53,1.53,0,0,0,1.9,1.45l240.22-52.9a1.55,1.55,0,0,0,1.05-1.85c-4.06-28-8.52-55.86-12.56-83.82a1.51,1.51,0,0,0-1.84-1.05L40,77.27c-1.89.42-1.09,3.31.79,2.9L276.5,28.26l-1.85-1.05c4,28,8.5,55.87,12.56,83.83l1.05-1.84L48,162.1l1.89,1.44-8-84.82C41.73,76.81,38.73,76.79,38.91,78.72Z"/><path d="M35,59.78l7.44,78.63,3.89,41.14c.3,3.22.24,7.1,2.11,9.85,2.57,3.8,6.58,4.44,10.82,3.7,8.69-1.51,17.3-4.39,25.84-6.59l105.16-27.19L244,145.43l25.7-6.65,11.69-3c3.41-.88,8-1.19,10.83-3.62,3.53-3.08,2.06-8,1.5-12Q292.4,111,291,101.81c-2-13.61-4.1-27.21-6.16-40.81-1.88-12.35-3.75-24.7-5.52-37.07-1.38-9.68-1.57-22.2-14.87-20-8.77,1.41-17.49,4.61-26.11,6.79Q225,14,211.45,17.11c-19.62,4.48-39.33,8.56-59,12.63-38.52,7.94-77.08,15.82-115,26.35-4.53,1.26-2.15,8.18,2.38,6.92,62.53-17.38,126.74-27.47,189.78-42.67q11.19-2.7,22.31-5.63c3.69-1,7.35-2.1,11.05-3,4.4-1.09,7.24-1,8,4.29,1.46,10.7,3.06,21.39,4.67,32.08,3.56,23.7,7.32,47.38,10.63,71.12.21,1.46,1.43,5.17.91,6.63-.84,2.37-8.09,3-10.46,3.63l-25.71,6.65-49.08,12.68L103.7,174.16l-23.37,6-11.68,3c-3.29.85-8,3.19-11.34,2.82-4.14-.46-3.43-3.65-3.74-6.94L50,141.45,42.25,59.32c-.44-4.67-7.74-4.24-7.3.46Z"/><path d="M161.78,47.55q56-11.13,110.64-27.73c2.25-.68,1.06-4.14-1.19-3.45q-54.6,16.58-110.64,27.72c-2.29.46-1.09,3.91,1.19,3.46Z"/><path class="a" d="M92.06,127.92c-2,.47-3.88,1.35-5.89,1.82-1,.24-4.82,1-5.51.38s-.88-2-1.06-2.78-.58-2.29-.14-3c1-1.49,6.93-1.46,6.7-3.53a38.52,38.52,0,0,0-1-4.07c-.48-2.06-.42-4.19-.9-6.25-.32-1.39-1.62-8-2.63-8.47-1.44-.58-6.22,2.1-6.69.09-.18-.77-.66-3.48-.3-4.12s3.43-1.76,4.32-2.47c1.2-.93,2.13-2.56,3.49-3.23a13.14,13.14,0,0,1,3.08-.87c2.1-.49,3.09-.82,3.67,1.67.71,3.06,1,6.21,1.75,9.28.47,2,1.24,4,1.76,6,.43,1.67.68,3.38,1.07,5,.25,1.06,1.53,5.7,2.25,6.19,2.42,1.71,5.23-4,7.19,4.44.46,2-6.57,2.79-7.91,3.1Z"/><path class="a" d="M120.64,122.32a31.34,31.34,0,0,1-8.18.44,9.24,9.24,0,0,1-3-1.27c-.64-.36-2.15-1-2.32-1.73-.25-1.06,2-5.91,3-6.16,1.58-.36,5.92,2.26,7.6,1.87a6.61,6.61,0,0,0,1.7-1c2-1.27,2.19-2.28,1.65-4.63-.32-1.34-5.55-5.37-6.89-5.06s-2.54,1.65-3.93,2-4-1.29-4.31-2.68c-.8-3.45-1.3-6.92-2.11-10.37-.36-1.58-.87-3.07-1.23-4.66-.34-1.43,1.72-1.71,2.68-1.93l4.3-1c2.11-.49,4.36-.61,6.46-1.1,1.92-.45,3.71-1.42,5.58-1.86,1.63-.38,2.21,3,2.47,4.12.19.82.37,1.58-.3,2.19-2,1.83-12,2.55-11.93,5.1a14.4,14.4,0,0,0,.51,2.86c.09.38.33,1.64.91,1.51,1-.25,2-1,3.08-1.28a31.45,31.45,0,0,1,6,.32c2.46.79,7.36,6.46,7.94,9a20.18,20.18,0,0,1,.1,5c-.6,2.62-3.69,7.12-6,8.52a18.2,18.2,0,0,1-4.08,1.55s0,.06,0,.11a.1.1,0,0,0,.12.07Z"/><path class="a" d="M143.79,115.32c-.94-.39-5.67-2.67-5.82-3.34-.26-1.1,3.3-5.56,4.4-5.82a7.79,7.79,0,0,1,4.1.91,19.68,19.68,0,0,1,3.16,5.57c.56,2.4-.6,8.93-2.11,10.89a12.67,12.67,0,0,1-2.28,2.1,8,8,0,0,1-2.24,1.43c-.91.21-2.84-2.42-3-3.18-.36-1.54,4.29-2.82,4.1-8.43l-.08-.13Z"/><path class="a" d="M149.58,90.75c-.29-5.18-.36-10.22,3.76-14a8.67,8.67,0,0,1,2.51-1.34,13.07,13.07,0,0,1,2.63-1.07c3.45-.8,8,.07,10.43,2.72,1.69,1.83,2.89,4.83,4.06,7,1,1.84,2.49,4,3,6,1.32,5.69.84,11.86-2.63,16.66a14.07,14.07,0,0,1-1.82,2.39,15.92,15.92,0,0,1-4.32,1.81,21.14,21.14,0,0,1-6,.09,9,9,0,0,1-2.21-1.26c-4.12-2.72-5.71-6.09-7.4-10.54A36.13,36.13,0,0,1,150,94.88,24.51,24.51,0,0,1,149.58,90.75Zm14.41-8c-.48-.75-3.44-1.77-4.26-1.58a5.57,5.57,0,0,0-2.91,2.9,43.29,43.29,0,0,0,.47,8.92c.44,1.92,3.25,7.47,4.35,9.18.49.8,2.89,2.21,3.8,2,.53-.12,1.37-1.28,1.73-1.67a5,5,0,0,0,1.45-2.25c.26-1.27-.42-6.57-.76-8A57.11,57.11,0,0,0,164,82.8Z"/><path class="a" d="M178.74,84c-.29-5.18-.35-10.22,3.76-14A8.59,8.59,0,0,1,185,68.62a12.76,12.76,0,0,1,2.62-1.07c3.45-.8,8,.07,10.43,2.72,1.69,1.83,2.89,4.83,4.06,7,1,1.84,2.49,4,3,6,1.33,5.69.84,11.86-2.63,16.66a14.07,14.07,0,0,1-1.82,2.39,15.92,15.92,0,0,1-4.32,1.81,21.13,21.13,0,0,1-6,.09,9,9,0,0,1-2.21-1.26c-4.12-2.72-5.71-6.09-7.4-10.54a36.13,36.13,0,0,1-1.53-4.39A24.63,24.63,0,0,1,178.74,84ZM193.15,76c-.48-.75-3.44-1.77-4.26-1.58a5.61,5.61,0,0,0-2.91,2.9,43.29,43.29,0,0,0,.47,8.92c.44,1.92,3.25,7.47,4.36,9.18.48.8,2.88,2.21,3.79,2,.53-.12,1.37-1.28,1.73-1.67a5,5,0,0,0,1.45-2.25c.26-1.27-.42-6.57-.75-8A58,58,0,0,0,193.15,76Z"/><path class="a" d="M207.91,77.17c-.3-5.18-.36-10.22,3.75-14a8.72,8.72,0,0,1,2.52-1.34,12.62,12.62,0,0,1,2.63-1.07c3.44-.8,7.94.07,10.42,2.72,1.69,1.83,2.89,4.83,4.06,7,1,1.84,2.49,4,3,6,1.33,5.7.85,11.87-2.63,16.67a14.07,14.07,0,0,1-1.82,2.39,15.79,15.79,0,0,1-4.32,1.81,21.13,21.13,0,0,1-6,.09,9,9,0,0,1-2.21-1.26c-4.11-2.72-5.71-6.09-7.4-10.54a36.13,36.13,0,0,1-1.53-4.39A23.62,23.62,0,0,1,207.91,77.17Zm14.4-8c-.48-.75-3.44-1.77-4.26-1.58a5.59,5.59,0,0,0-2.9,2.9c-.3,1.33.14,7.53.46,8.92A50.29,50.29,0,0,0,220,88.64c.49.8,2.88,2.21,3.79,2,.53-.12,1.37-1.28,1.74-1.67a5,5,0,0,0,1.44-2.25c.26-1.27-.42-6.57-.75-8A57.15,57.15,0,0,0,222.31,69.22Z"/><path class="a" d="M245,69c-.1-.46,2-1.09,2.42-1.18a7.48,7.48,0,0,1,2.25-.22c.4.25.77,2.35.86,2.75a21.75,21.75,0,0,0,1.06,2.48c1.84,4.62,1.07,3.49,3.76,6.89a34.22,34.22,0,0,0,7.06,5.7c.57.24,3.54.82,3.61,1.15s-.26.57-.37.71c-.39.54-1.62,3.27-1.89,3.33a11.92,11.92,0,0,1-2.7-1,26.39,26.39,0,0,1-3-1.54c-.3-.19-4.89-3.94-5-4.06-.51-.76-1.86-3.14-2.31-3.6a15.21,15.21,0,0,0-.72,2.26c-.32,1-.69,1.92-1,2.87-1.29,3.74-.74,4.66-3.49,7.45-.32.33-1.23,1.4-1.64,1.49a.62.62,0,0,1-.4,0c-.91-.35-1.62-1.07-2.59-1.35a1.56,1.56,0,0,1-.53-.22.29.29,0,0,1-.13-.2c-.05-.18.23-.45.34-.59,1.53-1.85,2.44-2.58,3.52-4.87a24.57,24.57,0,0,0,2.31-10.55,15.06,15.06,0,0,0,.05-2.31c-.17-.75-.58-1.42-.76-2.17Z"/></svg>