<svg xmlns="http://www.w3.org/2000/svg" viewBox="0 0 180 180"><defs><style>.a{fill:#a7b733;}.b{fill:#c5d83e;}</style></defs><title>bush-3</title><path class="a" d="M127.38,154.11c-3.34.77-6.13,3.81-9.11,5.66a40.9,40.9,0,0,1-19.92,6.06c-6.24.34-27.06-3-19.61-14.41-1.16,15.15-27,8.5-33.54,2.33-6.31-5.95-16.89-29-1.92-31.87-21.92,10.58-30.82-36.28-9-43,2.79-.87,19.51-1.25,12.61,5-5.56,5-12.74-2.59-13.24-7.56C32.35,63.51,46.8,53.36,58.45,54.57c8.91.92,4.85,5.72-2.13,4.42C37,55.4,46.61,26.05,59.56,33.46c-2.26,2.22-5.89,1.49-7.91-1.08-3.39-4.31.47-12.51,3.25-16.19,5.42-7.15,13.15-9.45,21.84-9,6.39.37,20.85,2.4,22.82,10.5,2.34,9.58-16.7,9.08-3.68-.23C111.44,6.38,139,22.42,133,42.31c-4.53,15.08-18.5,3.6-5.39-3.26,21-11,31,24.13,27.22,38.09-.81,3-6.73,16.36-11.46,15.77s0-5.71,5.58-2.68c17.65,9.66,7.68,39-8.67,44-2.23.66-10.66,1-7.82-4s9.43,5.49,9.87,7.2c2.3,9-7.43,16.94-15.85,14.39"/><path d="M126.58,151.21c-6,2-10.37,7-16.39,9.23a36,36,0,0,1-14.78,2.33c-5-.33-18.54-2.37-14.08-9.83l-5.59-1.52C74.4,163,53.31,156.53,47.79,152c-5.88-4.78-15.44-24.57-3.71-27.27l-2.31-5.48c-17.77,8-22.15-28-9.82-36.07,3.29-2.15,7.63-2.21,11.41-1.62a17.52,17.52,0,0,1,2.4.59l-.35-1.13-1.12,1c-1.52.22-1.95.51-3.45-.19-3.7-1.72-4.79-6.28-4-9.9,1.53-7,8.3-12.18,15-13.88a18.53,18.53,0,0,1,4.8-.61c.85,0,6.7,1,3.86-1.53-.34-.3-3.61.11-4.42-.08a11,11,0,0,1-3.72-1.59c-6.8-4.72-3.49-23,5.71-18.23V30.87c-5,3.68-4.73-4.71-3.77-7.32a21.17,21.17,0,0,1,5.28-8.07c5-4.73,11.78-5.67,18.42-5.16,4.7.36,9.81,1.22,14,3.41,1.89,1,4.73,2.79,4.7,5.24,0,2-1,1.59-2.11,2.64-.19.17-1-.05-1.08.05-.29.42,1,1.26.86,1.27.15,0,.6-.82.75-.92,2.4-1.61,4.1-3.37,6.94-4.29a21.82,21.82,0,0,1,14.78,1c9.35,3.83,17.51,14.35,12.58,24.68-.45.94-2,4-3.61,3.29s-.2-2.29.48-3a12.48,12.48,0,0,1,12.27-3.14c7.77,2.65,11.33,12.88,12.94,20.08,1.78,8,1.47,15.05-2.39,22.28-1.12,2.1-2.57,3.84-3.85,5.8-.77,1.18-2.46,2-.47,3.69-.45-.37,3,.72,3.63,1.06a11.29,11.29,0,0,1,2,1.51c3.44,3.1,4.86,7.65,4.85,12.18,0,9.25-6.28,22.33-16.31,24.32-1.13.23-4.59-.36-4.53.57a27.8,27.8,0,0,0,2.37,2.2,15,15,0,0,1,2.12,3.07c3.35,7.08-5.18,13.22-11.65,11.67-3.75-.91-5.35,4.88-1.59,5.78,9.38,2.26,20-4.36,20-14.61,0-5.3-5.49-14.61-11.63-14.14-3.14.24-5.46,3.62-5.07,6.64.48,3.75,4.39,4.87,7.66,5,7.59.18,14.13-5.26,18.29-11.16,4.93-7,7.57-16.25,5.81-24.74-1.48-7.12-8.18-16.34-16.45-15.25-3,.38-6.64,2.71-5.69,6.22s5.56,3.88,8.28,2.4c5.7-3.08,9.93-12.42,11.18-18.5,2.68-13.1-2.42-33.61-14.9-40.52-6.79-3.76-16.24-2-21.46,3.75-4,4.41-2.94,12.4,3.92,12.94,8.59.67,11.68-11.21,11.13-17.75-.74-8.67-6.74-16-14.17-20.11s-16.5-5.41-24.36-2.05C94.3,14.47,83,22.67,90.79,27c6,3.32,12.77-3.18,11.82-9.19-1.57-10-15-12.51-23.26-13.35-11.56-1.19-23,2.42-28.89,13.13C48,22,45.9,28.1,48.44,32.91a8.58,8.58,0,0,0,12.64,3.14c1.68-1.25,2.18-4,0-5.18C45.73,22.87,37,47.4,46.72,57.36a17.06,17.06,0,0,0,12.06,4.85c3.2-.05,8-1.49,7.75-5.5-.24-4.5-6.55-5.2-9.91-5.23a27.38,27.38,0,0,0-15.9,5.32c-8.08,5.82-14.09,17.67-7,26.57,2.94,3.72,7.87,6.42,12.56,4.39,3-1.29,6.41-4.79,4.88-8.31-2.39-5.51-13.86-4.75-18.48-3.2-7.38,2.48-11.85,9.68-13.26,17-2.92,15.19,6,40,25.42,31.2,3.21-1.46.86-6.21-2.31-5.49-17.66,4.06-8,30,1.58,37.71,10,8.08,35.62,12.5,37.68-5.27.35-3.09-4.18-3.87-5.6-1.51C70,160.19,80.5,166.21,89.43,168a41,41,0,0,0,15.42.1,42.88,42.88,0,0,0,11.34-3.73c4.18-2,7.59-5.89,12-7.34,3.65-1.2,2.08-7-1.6-5.79Z"/><path class="b" d="M72.39,135.3c-4.7,3-10.71,11.48-10.76,16.48-.07,6.67,5.47,15.29,9.21,21.05,5.21-7.32,11.18-14.2,11-23.51-.11-5.59-5.19-11.87-8.37-16.46a6.31,6.31,0,0,0-.84,1.22"/><path d="M71.63,134C66.4,137.62,61,144.27,60.2,150.8c-.92,8,5.25,16.47,9.35,22.79a1.52,1.52,0,0,0,2.59,0c4.62-6.43,10-13,11-21.08s-4-14.2-8.38-20.41a1.53,1.53,0,0,0-2.6,0l-.83,1.23c-1.1,1.59,1.5,3.1,2.59,1.51l.84-1.22h-2.6c4.25,6,9.4,12.12,7.78,20-1.44,7-6.34,12.77-10.41,18.43h2.59c-3.61-5.56-8.5-12.19-9-19-.42-6.2,5.14-13.12,10-16.46,1.57-1.09.07-3.69-1.52-2.59Z"/><path d="M71.6,136.05c1.62,9.44-.59,18.64-2.91,27.76-.48,1.87,2.41,2.67,2.89.8,2.47-9.7,4.63-19.34,2.92-29.35-.33-1.9-3.22-1.1-2.9.79Z"/><path d="M71.35,156.62A16.59,16.59,0,0,1,74.61,162c.66,1.8,3.56,1,2.9-.79a20.54,20.54,0,0,0-4-6.71c-1.3-1.44-3.41.69-2.12,2.12Z"/><path d="M72.54,151.45a13.15,13.15,0,0,1,5,3.87,1.56,1.56,0,0,0,2.06.54,1.51,1.51,0,0,0,.54-2.05,16.15,16.15,0,0,0-6-4.95c-1.74-.8-3.27,1.78-1.51,2.59Z"/><path d="M73,145.18A25,25,0,0,1,77.49,149c1.31,1.42,3.43-.7,2.12-2.12a27.69,27.69,0,0,0-5-4.3c-1.62-1.07-3.12,1.53-1.52,2.59Z"/><path d="M72.09,151.32a13.29,13.29,0,0,0-7.27,9.7c-.32,1.88,2.57,2.7,2.9.79a10.51,10.51,0,0,1,5.88-7.9c1.74-.85.22-3.44-1.51-2.59Z"/><path d="M73.58,144.82c-1.9-.09-3.34,1.26-4.64,2.47a29.49,29.49,0,0,0-3.84,4.44c-1.12,1.58,1.48,3.08,2.59,1.52a25.38,25.38,0,0,1,2.68-3.17c.78-.78,2-2.32,3.21-2.26,1.93.08,1.92-2.92,0-3Z"/><path class="b" d="M86.89,82.43c-5.26-1.82-15.66-1.2-19.6,1.88C62,88.42,58.76,98.14,56.6,104.65c9-.5,18.07-.13,25.24-6.08,4.3-3.57,6-11.46,7.63-16.81a6.16,6.16,0,0,0-1.48.11"/><path d="M87.29,81C81.09,79.11,72,79.1,66.54,83c-6.43,4.58-9,14.14-11.38,21.23a1.51,1.51,0,0,0,1.44,1.9c8.42-.42,17.5-.28,24.71-5.3,6.09-4.24,7.65-12,9.61-18.69a1.51,1.51,0,0,0-1.45-1.9L88,80.37c-1.91.14-1.93,3.14,0,3l1.48-.11L88,81.36c-1.91,6.51-3.28,14-9.56,17.76-6.52,3.91-14.53,3.66-21.87,4l1.45,1.9c2.07-6.23,4.21-14.43,9.4-18.9,4.73-4.06,13.38-4,19-2.27,1.85.55,2.64-2.34.8-2.9Z"/><path d="M86,82.11C79.53,89.4,70.84,93.49,62.14,97.42c-1.76.79-.24,3.38,1.51,2.59,8.94-4,17.84-8.3,24.43-15.78,1.28-1.44-.84-3.57-2.12-2.12Z"/><path d="M69.62,94.7A17.31,17.31,0,0,1,67.33,101a1.5,1.5,0,0,0,2.59,1.52,19.78,19.78,0,0,0,2.6-7c.31-1.88-2.58-2.7-2.9-.79Z"/><path d="M74.4,92.81a13.12,13.12,0,0,1,0,6.26c-.45,1.87,2.44,2.67,2.9.79a16.54,16.54,0,0,0,0-7.85c-.45-1.87-3.34-1.08-2.89.8Z"/><path d="M79.56,88.89a25.43,25.43,0,0,1-.15,5.85c-.29,1.89,2.6,2.71,2.89.8a29,29,0,0,0,.26-6.65c-.16-1.91-3.17-1.92-3,0Z"/><path d="M74.4,92.3a13.57,13.57,0,0,0-12.49.36c-1.7.92-.18,3.52,1.51,2.59a10.38,10.38,0,0,1,9.47-.36c1.74.81,3.27-1.78,1.51-2.59Z"/><path d="M80.32,89.48C78.12,86.6,73,86.82,69.72,87c-1.93.1-1.94,3.1,0,3a27.94,27.94,0,0,1,4.29.09c.9.09,3.09.11,3.72.93,1.15,1.51,3.76,0,2.59-1.52Z"/><path class="b" d="M46,104.76c-4.26,2-10.18,8.65-10.71,12.86-.72,5.63,3.11,13.46,5.71,18.69,5.12-5.66,10.84-10.89,11.61-18.77.46-4.73-3.22-10.54-5.45-14.73a5.77,5.77,0,0,0-.83,1"/><path d="M45.23,103.47c-4.87,2.63-10.43,8-11.4,13.76-1.15,6.72,3,14,5.86,19.84a1.51,1.51,0,0,0,2.36.31c4.64-5.08,10-10.21,11.61-17.16,1.54-6.71-2.13-12.48-5.21-18.17a1.52,1.52,0,0,0-2.36-.3l-.83,1c-1.26,1.45.85,3.58,2.12,2.12l.83-.95-2.35-.3c2.92,5.38,6.63,11,4.51,17.3-1.92,5.74-6.46,10-10.44,14.38l2.35.31c-2.45-5-5.88-11-5.59-16.7.27-5.31,5.66-10.43,10.06-12.8,1.7-.92.18-3.51-1.52-2.59Z"/><path d="M45,105.13c.41,8.25-2.32,15.84-5.22,23.43-.69,1.81,2.21,2.59,2.89.8,3-7.86,5.76-15.7,5.33-24.23-.09-1.92-3.09-1.93-3,0Z"/><path d="M42.72,122.64a14.59,14.59,0,0,1,2.33,5.1c.46,1.88,3.35,1.09,2.9-.79a17,17,0,0,0-2.64-5.82c-1.11-1.57-3.71-.07-2.59,1.51Z"/><path d="M44.54,118.7a10.66,10.66,0,0,1,3.67,3.73,1.5,1.5,0,0,0,2.59-1.52,14,14,0,0,0-4.75-4.8c-1.65-1-3.16,1.59-1.51,2.59Z"/><path d="M45.28,113.22a21.28,21.28,0,0,1,3.38,3.59,1.53,1.53,0,0,0,2.05.54,1.51,1.51,0,0,0,.54-2,24,24,0,0,0-3.85-4.2,1.54,1.54,0,0,0-2.12,0,1.5,1.5,0,0,0,0,2.12Z"/><path d="M44.27,118a11.68,11.68,0,0,0-7.47,7.83,1.51,1.51,0,0,0,2.9.8,8.52,8.52,0,0,1,5.37-5.74c1.81-.63,1-3.53-.8-2.89Z"/><path d="M46.31,112.74c-3.15-.44-6.18,2.75-8.13,4.9-1.3,1.42.82,3.55,2.12,2.12a22,22,0,0,1,2.35-2.28c.6-.5,2.06-2,2.86-1.85,1.89.27,2.71-2.62.8-2.89Z"/><path class="b" d="M93.08,58.05c3.08-4.63,5.1-14.85,3.12-19.43-2.65-6.13-11.23-11.75-17-15.48-1.78,8.8-4.43,17.52-.48,26,2.37,5.06,9.57,8.73,14.34,11.63a5.54,5.54,0,0,0,.27-1.46"/><path d="M94.37,58.81c3.32-5.43,5.55-13.93,3.43-20.16C95.21,31.05,86.3,26,80,21.84a1.53,1.53,0,0,0-2.21.9C76,31.39,73.23,41,77.29,49.49c2.9,6,9.54,9.24,15,12.53a1.52,1.52,0,0,0,2.21-.9l.27-1.46c.34-1.89-2.55-2.7-2.9-.8l-.26,1.46,2.2-.89c-5.34-3.21-12-6.25-14.36-12.43-2.89-7.55-.38-15.91,1.19-23.46l-2.21.89C84.14,28.13,92,32.5,94.7,39.06c2.27,5.46,0,13.41-2.92,18.23-1,1.66,1.59,3.17,2.59,1.52Z"/><path d="M93.62,57.24c-5.42-8.07-7.19-17.5-8.8-26.92-.33-1.89-3.22-1.09-2.9.8C83.58,40.8,85.47,50.47,91,58.75c1.07,1.6,3.67.1,2.59-1.51Z"/><path d="M85.57,38.25a17.28,17.28,0,0,1-5.49-3.8c-1.35-1.38-3.47.74-2.12,2.13a19.59,19.59,0,0,0,6.09,4.26c1.75.78,3.28-1.8,1.52-2.59Z"/><path d="M86.2,43.35a13.08,13.08,0,0,1-6.06-1.58c-1.7-.92-3.22,1.67-1.52,2.59a16.47,16.47,0,0,0,7.58,2c1.93,0,1.93-3,0-3Z"/><path d="M88.69,49.33a25.25,25.25,0,0,1-5.64-1.62,1.55,1.55,0,0,0-2,.54,1.52,1.52,0,0,0,.54,2,28.2,28.2,0,0,0,6.35,1.92c1.89.33,2.7-2.56.8-2.89Z"/><path d="M86.67,43.48a13.53,13.53,0,0,0,2.81-12.17c-.47-1.88-3.36-1.08-2.89.79a10.39,10.39,0,0,1-2,9.26c-1.22,1.48.89,3.61,2.12,2.12Z"/><path d="M87.9,49.92c3.35-1.32,4.45-6.47,5.1-9.61.39-1.89-2.51-2.7-2.9-.8a27,27,0,0,1-1.12,4c-.33.9-.9,3.11-1.87,3.49-1.78.7-1,3.6.79,2.9Z"/><path class="b" d="M132.15,108.22c.47-5.55-2.68-15.48-6.63-18.54-5.28-4.08-15.5-4.88-22.35-5.37,2.69,8.57,4.57,17.48,12.09,23,4.51,3.29,12.59,3,18.17,3.28a6.32,6.32,0,0,0-.47-1.41"/><path d="M133.65,108.22c.29-6.46-1.94-15.26-7.07-19.6-6-5.1-15.92-5.26-23.41-5.81a1.51,1.51,0,0,0-1.44,1.9c2.41,7.82,4.41,16.45,10.71,22.18,5.75,5.23,13.68,4.9,21,5.17a1.5,1.5,0,0,0,1.44-1.9l-.46-1.41c-.61-1.82-3.51-1-2.9.8L132,111l1.45-1.9c-7.05-.26-14.66.21-19.92-5.32-5.11-5.37-6.77-13-8.89-19.83l-1.45,1.9c6.51.47,15,.55,20.61,4.48,5.11,3.61,7.13,12,6.87,17.93-.09,1.93,2.91,1.93,3,0Z"/><path d="M132.22,107.23c-8.64-4.42-14.75-11.88-20.69-19.34-1.2-1.51-3.31.62-2.12,2.12,6.1,7.67,12.42,15.27,21.3,19.82,1.71.87,3.23-1.71,1.51-2.6Z"/><path d="M116,94.49a17.44,17.44,0,0,1-6.62-.69c-1.86-.56-2.65,2.34-.8,2.89a19.79,19.79,0,0,0,7.42.8c1.91-.16,1.93-3.16,0-3Z"/><path d="M119,98.67a13,13,0,0,1-6.08,1.51,1.5,1.5,0,0,0,0,3,16.51,16.51,0,0,0,7.6-1.92c1.7-.9.19-3.5-1.52-2.59Z"/><path d="M124.05,102.7a25.4,25.4,0,0,1-5.71,1.29c-1.9.18-1.92,3.19,0,3a29,29,0,0,0,6.51-1.39c1.81-.63,1-3.53-.8-2.9Z"/><path d="M119.52,98.52a13.6,13.6,0,0,0-3.42-12c-1.32-1.42-3.44.71-2.13,2.12a10.38,10.38,0,0,1,2.66,9.1c-.36,1.89,2.53,2.7,2.89.8Z"/><path d="M123.71,103.57c2.25-2.84.76-7.78-.2-10.91-.56-1.84-3.46-1.06-2.89.79a28.56,28.56,0,0,1,.94,4c.14,1,.68,3.18,0,4-1.19,1.5.92,3.63,2.12,2.12Z"/><path class="b" d="M111.73,46.49c3.12-2,7.1-7.64,7.13-11,0-4.44-3.65-10.16-6.15-14-3.45,4.87-7.41,9.45-7.28,15.64.08,3.71,3.46,7.88,5.58,10.92a3.73,3.73,0,0,0,.55-.81"/><path d="M112.49,47.79c3.53-2.55,7.16-6.83,7.77-11.3.76-5.56-3.42-11.34-6.25-15.7a1.52,1.52,0,0,0-2.59,0c-3.18,4.43-7,9-7.41,14.68-.42,5.27,2.81,9.31,5.7,13.4a1.52,1.52,0,0,0,2.59,0l.56-.81c1.09-1.6-1.51-3.1-2.59-1.52l-.56.82h2.59c-2.9-4.11-6.24-8.07-5-13.44,1-4.38,4.14-8,6.7-11.61h-2.59c2.2,3.38,4.83,7.08,5.68,11.09,1,4.56-2.59,9.25-6.13,11.8-1.55,1.12,0,3.72,1.52,2.59Z"/><path d="M112.74,45.86c-1-6.18.39-12.21,1.9-18.18.48-1.87-2.41-2.67-2.89-.8-1.66,6.56-3,13-1.91,19.78.33,1.9,3.22,1.09,2.9-.8Z"/><path d="M112.76,32a10.33,10.33,0,0,1-2.05-3.35,1.54,1.54,0,0,0-1.85-1.05,1.5,1.5,0,0,0-1,1.85,14.11,14.11,0,0,0,2.81,4.67c1.3,1.43,3.42-.69,2.13-2.12Z"/><path d="M111.87,35.32a8.22,8.22,0,0,1-3.13-2.38,1.55,1.55,0,0,0-2-.54,1.52,1.52,0,0,0-.54,2.05,11.33,11.33,0,0,0,4.21,3.47,1.56,1.56,0,0,0,2-.54,1.52,1.52,0,0,0-.54-2.06Z"/><path d="M111.54,39.49A15.62,15.62,0,0,1,108.68,37c-1.31-1.42-3.43.71-2.12,2.12A18.71,18.71,0,0,0,110,42.08a1.5,1.5,0,0,0,1.51-2.59Z"/><path d="M112.16,36.28a9.26,9.26,0,0,0,5-6.75c.32-1.89-2.57-2.7-2.89-.8a6.51,6.51,0,0,1-3.67,5c-1.73.85-.21,3.44,1.51,2.59Z"/><path d="M110.93,40.67c1.4.06,2.47-.89,3.43-1.8a19.6,19.6,0,0,0,2.63-3,1.51,1.51,0,0,0-.54-2,1.53,1.53,0,0,0-2,.53,15.58,15.58,0,0,1-1.7,2c-.4.4-1.17,1.39-1.77,1.36-1.93-.08-1.93,2.92,0,3Z"/><path class="b" d="M63.62,63c-.53-3.66-4.07-9.6-7.09-11-4-1.84-10.77-.81-15.27-.09,3,5.14,5.6,10.62,11.29,13,3.42,1.45,8.61.06,12.26-.63a4.53,4.53,0,0,0-.52-.84"/><path d="M65.07,62.59c-.88-4.35-3.65-9.76-7.78-11.88-4.84-2.49-11.37-1.05-16.43-.25a1.51,1.51,0,0,0-.9,2.2c2.7,4.64,5.26,9.72,10,12.61s10.12,1.5,15.25.49a1.51,1.51,0,0,0,.9-2.2l-.52-.84c-1-1.65-3.6-.14-2.59,1.51l.52.84.9-2.2c-5.09,1-10,2.31-14.4-1.27-3.35-2.73-5.32-6.78-7.46-10.45l-.89,2.2c4.07-.64,9.36-1.76,13.41-.3s6.34,6.58,7.11,10.34c.38,1.89,3.27,1.09,2.89-.8Z"/><path d="M63.62,61.85c-6.1-1.54-11-5.27-15.88-9.11-1.49-1.18-3.63.93-2.12,2.12,5.26,4.16,10.6,8.21,17.21,9.88,1.87.48,2.67-2.41.79-2.89Z"/><path d="M50.92,56.08a11.41,11.41,0,0,1-4.26.53c-1.93-.13-1.92,2.87,0,3A13.8,13.8,0,0,0,51.72,59c1.83-.59,1-3.49-.8-2.89Z"/><path d="M53.3,58.46a8.17,8.17,0,0,1-3.51,1.77c-1.87.45-1.08,3.34.8,2.89a11.26,11.26,0,0,0,4.83-2.54c1.46-1.27-.67-3.38-2.12-2.12Z"/><path d="M57.27,60.23a16.06,16.06,0,0,1-3.39,1.64c-1.82.61-1,3.51.79,2.89a19.32,19.32,0,0,0,4.11-1.94c1.63-1,.13-3.62-1.51-2.59Z"/><path d="M54.49,58.59a9.53,9.53,0,0,0-4.31-7.67c-1.61-1.07-3.11,1.52-1.51,2.59a6.38,6.38,0,0,1,2.82,5.08c.07,1.92,3.07,1.93,3,0Z"/><path d="M57.91,61.49C59,59.11,57.3,56,56.1,54a1.5,1.5,0,0,0-2.59,1.51,17.38,17.38,0,0,1,1.17,2.37c.16.39.84,1.73.64,2.15-.82,1.74,1.76,3.26,2.59,1.51Z"/><path class="b" d="M94.54,111.81c-1.53,3.36-1.78,10.28,0,13.08,2.39,3.74,8.61,6.52,12.78,8.36.24-6,1-12-2.43-17.08-2.09-3.07-7.2-4.72-10.64-6.11a4,4,0,0,0,0,1"/><path d="M93.1,111.41c-1.57,4-2.15,9.91,0,13.85,2.57,4.78,8.87,7.22,13.53,9.28a1.52,1.52,0,0,0,2.25-1.29c.27-5.77.93-12-2.24-17.19-2.59-4.2-7.57-5.72-11.93-7.45a1.52,1.52,0,0,0-1.9,1.45l0,1c0,1.93,3,1.93,3,0l0-1-1.89,1.44c4.41,1.76,9,3.13,11,7.89,1.8,4.35,1.18,9.27,1,13.86l2.26-1.3c-3.89-1.72-9-3.58-11.62-7.08s-2-8.88-.48-12.66c.7-1.8-2.2-2.58-2.89-.8Z"/><path d="M94,112.83c4.29,4.59,6.38,10.44,8.38,16.28.62,1.82,3.51,1,2.89-.8-2.17-6.34-4.5-12.63-9.15-17.6-1.32-1.42-3.44.71-2.12,2.12Z"/><path d="M101.52,124.52a11.14,11.14,0,0,1,3.87,1.88,1.52,1.52,0,0,0,2.06-.54,1.54,1.54,0,0,0-.54-2,13.39,13.39,0,0,0-4.59-2.18,1.5,1.5,0,0,0-.8,2.89Z"/><path d="M100.85,121.19a8.23,8.23,0,0,1,3.87.45c1.83.63,2.61-2.26.79-2.89a11.36,11.36,0,0,0-5.46-.45,1.51,1.51,0,0,0-1,1.84,1.53,1.53,0,0,0,1.85,1Z"/><path d="M98.45,117.58a15.54,15.54,0,0,1,3.72.47c1.88.47,2.68-2.42.8-2.89a19.11,19.11,0,0,0-4.52-.58c-1.93,0-1.93,3,0,3Z"/><path d="M99.8,120.52a9.54,9.54,0,0,0-.46,8.8c.76,1.77,3.35.24,2.59-1.52a6.4,6.4,0,0,1,.46-5.77,1.5,1.5,0,0,0-2.59-1.51Z"/><path d="M98.46,116.21c-2.2,1.37-2.39,5-2.5,7.34-.08,1.93,2.92,1.93,3,0a16.45,16.45,0,0,1,.31-2.61c.1-.48.22-1.84.7-2.14,1.63-1,.13-3.62-1.51-2.59Z"/></svg>