<svg xmlns="http://www.w3.org/2000/svg" viewBox="0 0 1650 700"><defs><style>.a{fill:#fffcd9;}.b{fill:#00b997;}.c{fill:#f88334;}.d,.p{fill:#fff;}.e,.l{fill:#f15a24;}.f{font-size:43.11px;font-family:"PingFang TC", "HeiTi TC", "Microsoft JhengHei", sans-serif;font-weight:700;}.g{font-size:26px;}.g,.i,.j,.l,.m{font-family:"PingFang TC", "HeiTi TC", "Microsoft JhengHei", sans-serif;}.h{fill:#9bd9da;}.i{font-size:19.26px;}.j,.l{font-size:44px;}.k,.m{font-size:25.79px;}.n{fill:#c5d83e;}.o{fill:#ffbc18;}.p{font-size:18.91px;font-family:Jun501Pro-Bold-90ms-RKSJ-H, A-OTF Jun Pro;}</style></defs><title>firstStep</title><rect class="a" x="447.31" y="463.52" width="755.37" height="188.01"/><path d="M447.31,468.24q147.42-3.66,294.88-4.69t295.11.54q82.71.89,165.39,2.6c3.86.08,3.86-5.92,0-6q-147.48-3-295-3.48T612.62,459q-82.67,1.23-165.31,3.28c-3.85.09-3.87,6.09,0,6Z"/><path d="M465.83,516.41l136.91-1.8c1.93,0,1.93-3,0-3l-136.91,1.8a1.5,1.5,0,0,0,0,3Z"/><path d="M1022,516.41l136.9-1.8c1.93,0,1.94-3,0-3l-136.9,1.8a1.5,1.5,0,0,0,0,3Z"/><path d="M972.3,561.13l136.9-1.8c1.93,0,1.93-3,0-3l-136.9,1.8a1.5,1.5,0,0,0,0,3Z"/><path d="M498.15,545.13l136.9-1.8c1.93,0,1.93-3,0-3l-136.9,1.8a1.5,1.5,0,0,0,0,3Z"/><path class="b" d="M558.11,43.93c1,197.52,2,336,3,533.49,0,2.71.12,5.69,1.93,7.71s5.91,1.93,6.59-.7C571,392,572.42,258.56,566.3,66.21c-.31-9.61,1.43-22-8.19-22.28"/><path d="M556.61,43.93q.58,113.83,1.27,227.66.64,108.48,1.27,217,.17,29.68.32,59.39c0,10.05-.13,20.13.16,30.17.13,4.35,1.56,10.35,7.14,9.93,6.89-.52,4.43-11.06,4.46-15.51q.1-15,.22-30.1.21-29.32.41-58.63c.47-71.78.73-143.56.09-215.34q-.48-55.37-1.69-110.73-.63-29.08-1.46-58.15-.45-15.67-.94-31.36c-.18-6.07.62-12.71-1.09-18.61-1.26-4.37-4.13-6.8-8.66-7.17-1.92-.15-1.91,2.85,0,3,7.84.64,6.62,11.43,6.64,17.08,0,8.79.48,17.6.74,26.39q.84,28.44,1.5,56.88,1.21,52.33,1.79,104.69c.73,67.61.64,135.23.27,202.84q-.31,54.7-.75,109.4,0,7.38-.11,14.76c0,1.14.5,11-4.62,5.82-1.52-1.56-.94-5.9-1-7.87-.07-9.81-.1-19.62-.15-29.43l-.3-55.61q-.57-103-1.2-206-.63-105.46-1.2-210.94l-.15-29.49a1.5,1.5,0,0,0-3,0Z"/><path class="c" d="M553.3,141.37a64.51,64.51,0,0,1,19-1.86l.81,10.3-24.57,3.48,1.88-9.72"/><path d="M553.7,142.82A68.68,68.68,0,0,1,572.33,141l-1.5-1.5.81,10.3,1.11-1.45-24.58,3.48,1.84,1.85,1.88-9.73c.37-1.88-2.52-2.69-2.89-.79l-1.88,9.72a1.53,1.53,0,0,0,1.84,1.85l24.58-3.48a1.5,1.5,0,0,0,1.1-1.45l-.81-10.3a1.54,1.54,0,0,0-1.5-1.5,72.15,72.15,0,0,0-19.43,1.91c-1.88.45-1.08,3.34.8,2.9Z"/><path class="c" d="M553.3,79.61a64.52,64.52,0,0,1,19-1.87l.81,10.3-24.57,3.48,1.88-9.72"/><path d="M553.7,81.05a68.68,68.68,0,0,1,18.63-1.81l-1.5-1.5.81,10.3,1.11-1.44-24.58,3.48L550,91.92l1.88-9.72c.37-1.89-2.52-2.7-2.89-.8l-1.88,9.73A1.52,1.52,0,0,0,549,93l24.58-3.48a1.5,1.5,0,0,0,1.1-1.45l-.81-10.3a1.54,1.54,0,0,0-1.5-1.5,71.76,71.76,0,0,0-19.43,1.92c-1.88.44-1.08,3.34.8,2.89Z"/><path class="b" d="M1075.06,49.46c1,197.51,2,330.45,3,528,0,2.71.12,5.69,1.92,7.71s5.92,1.93,6.6-.7c1.39-192.43,1.56-320.18,1.19-512.77,0-9.62,0-22.86-12.73-22.2"/><path d="M1073.56,49.46q.59,113.19,1.28,226.37.66,107.91,1.28,215.81.17,30.11.32,60.2c0,9.37-.78,19.23.27,28.53.47,4.16,3.42,9.09,8.38,7.42a4.44,4.44,0,0,0,3-3.36c.54-2,0-4.8.05-7l.06-8.87.21-30.84q.18-28.53.34-57.06.6-107.19.68-214.37,0-54.93,0-109.84,0-29.61-.08-59.22c0-9.42.07-18.85-.06-28.26-.07-5.06-.19-10.79-2.81-15.29-2.48-4.27-6.63-5.83-11.41-5.76-1.92,0-1.93,3,0,3,8-.11,10.45,6.07,11,13.08.63,7.77.22,15.68.23,23.47l.09,57.05q.06,52.42,0,104.86,0,100.17-.53,200.36-.26,54.53-.64,109.07-.06,7.33-.1,14.67c0,2.11.41,4.89,0,6.93-.53,2.31,1.24,1.76-2.31,2.41s-3.06-1.22-3.22-4.07c-.53-9.57-.12-19.3-.17-28.89q-.14-28.21-.3-56.43-.57-102.12-1.21-204.24-.63-105.17-1.2-210.32-.08-14.72-.16-29.45a1.5,1.5,0,0,0-3,0Z"/><path class="c" d="M1076.5,133.9a64.51,64.51,0,0,1,19-1.86l.81,10.3-24.57,3.48,1.88-9.72"/><path d="M1076.9,135.35a68.68,68.68,0,0,1,18.63-1.81L1094,132l.81,10.3,1.11-1.44-24.58,3.48,1.84,1.84,1.88-9.72c.37-1.89-2.52-2.7-2.89-.8l-1.88,9.73a1.52,1.52,0,0,0,1.84,1.84l24.58-3.48a1.5,1.5,0,0,0,1.1-1.45L1097,132a1.54,1.54,0,0,0-1.5-1.5,71.76,71.76,0,0,0-19.43,1.92c-1.88.44-1.08,3.34.8,2.89Z"/><path class="c" d="M1076.5,79.07a64.51,64.51,0,0,1,19-1.86l.81,10.3L1071.77,91l1.88-9.72"/><path d="M1076.9,80.52a68.68,68.68,0,0,1,18.63-1.81l-1.5-1.5.81,10.3,1.11-1.45-24.58,3.49,1.84,1.84,1.88-9.72c.37-1.89-2.52-2.7-2.89-.8l-1.88,9.72a1.53,1.53,0,0,0,1.84,1.85L1096.74,89a1.5,1.5,0,0,0,1.1-1.45l-.81-10.3a1.54,1.54,0,0,0-1.5-1.5,71.76,71.76,0,0,0-19.43,1.92c-1.88.44-1.08,3.34.8,2.89Z"/><rect class="c" x="565.88" y="37" width="511.59" height="126.62"/><path d="M1077.48,162.12H573.65c-1.89,0-5.08-.64-6.89,0a3.24,3.24,0,0,1-.88,0l1.5,1.5V37l-1.5,1.5h503.83c1.89,0,5.08.63,6.89,0a3.24,3.24,0,0,1,.88,0L1076,37V163.62a1.5,1.5,0,0,0,3,0V37a1.52,1.52,0,0,0-1.5-1.5H586.79c-6.53,0-13.53-.71-20,0a8.61,8.61,0,0,1-.88,0,1.52,1.52,0,0,0-1.5,1.5V163.62a1.52,1.52,0,0,0,1.5,1.5h490.69c6.53,0,13.53.71,20,0a6.46,6.46,0,0,1,.88,0A1.5,1.5,0,0,0,1077.48,162.12Z"/><rect class="d" x="578.43" y="49.44" width="486.49" height="101.74"/><path d="M1064.93,149.68H585.75c-1.73,0-4.86-.63-6.49,0a2.88,2.88,0,0,1-.83,0l1.5,1.5V49.44l-1.5,1.5h479.18c1.73,0,4.86.62,6.49,0a2.88,2.88,0,0,1,.83,0l-1.5-1.5V151.18a1.5,1.5,0,0,0,3,0V49.44a1.52,1.52,0,0,0-1.5-1.5H598.36c-6.21,0-12.91-.72-19.1,0a7.66,7.66,0,0,1-.83,0,1.52,1.52,0,0,0-1.5,1.5V151.18a1.52,1.52,0,0,0,1.5,1.5H1045c6.21,0,12.91.71,19.1,0a7.66,7.66,0,0,1,.83,0A1.5,1.5,0,0,0,1064.93,149.68Z"/><path class="e" d="M731.2,123.38c-2.25.21-16.46-3.81-16.6-5.29-.1-1.09,4.29-8,5.39-8.11.83-.08,4.65,3.19,9.79,2.7,1.35-.13,5.57-3.52,5.71-4.76-.29-1-1.61-1.93-2.44-2.5-1-.74-2.16-1.54-3.26-2.21-1.52-.9-3.48-1.1-5.16-1.65-5-1.6-8.32-3.62-10.78-8.25a14.41,14.41,0,0,1-1.78-4.43,11.17,11.17,0,0,1,.76-3.51,11.87,11.87,0,0,1,1.41-3.64c2.58-3.49,10.34-8.52,14.65-8.93a18.71,18.71,0,0,1,11.93,2.69c.76.44,2.8,1.48,2.89,2.38.14,1.48-4.05,7.2-5.65,7.35-2.45.24-5.85-2.1-8.42-1.85-1,.1-5,2.75-4.9,3.71.28,3,18.68,9.5,21,11.56,1.14,1,3.15,5.86,3.31,7.46.45,4.76-4.5,12-8.36,14.36-2.08,1.3-8,1.61-9.07,2.88Z"/><path class="e" d="M778.14,103.33c.13,2.45-.12,5.12-.19,7.58,0,.13.06,7.43-1.13,8.21a2.83,2.83,0,0,1-1.4.39,33.64,33.64,0,0,1-6.81-.36c-3.2-.55-2.66-5.23-2.79-7.68-.24-4.65-.6-9.28-.84-13.93-.19-3.67.46-7.33.27-11-.36-7,.09-5.76-7-5.39-2.19.11-7,1.4-7.2-1.77-.09-1.67-.25-7.35,2-7.47,1.81-.09,3.69.07,5.5,0,3-.16,6-1.15,9-1.31l6.64-.34c3.55-.18,7.11-.1,10.66-.16.84,0,2.52-.13,3.07.62.83,1.06,1.19,5.44,1.26,6.86.14,2.64-1.9,2-3.77,2.07-1.29.06-7.49.25-8.21,1.39a7.81,7.81,0,0,0-.59,3.52c-.07,1.3-.25,2.73-.19,4,.15,2.84,1.26,5.56,1.41,8.46Z"/><path class="e" d="M808.89,107.17c-3.55,1.49-2.62,10.86-7.4,10.87-1.29,0-8.14-.17-8.15-1.85,0-2.26,2.95-9.18,3.91-12.35s1-6.52,1.78-9.69a178.91,178.91,0,0,1,6.4-20.75c.51-1.36,1.28-4,3.09-4s11,0,11.82.74,1.7,6,2.15,7.42c.92,2.71,2.28,5.29,3.32,8s1.83,5.62,2.61,8.46c1.5,5.55,7,17.48,7,22.39,0,2.07-8.33,1.31-8.78,1.32-.9,0-1.93.13-2.58-.64-1.17-1.42-1.51-8.07-2.94-9.49-1.1-1.09-5.88-1.4-7.49-1.4A22.69,22.69,0,0,0,808.89,107.17Zm7.46-9.39c.71,0,1.81,0,2.13-.78a8.38,8.38,0,0,0-.33-2.2c-.78-2.71-2.15-5.29-2.86-8-.59-2.19-.66-4.58-1.51-6.64-.45.9-5.31,16.67-5.31,17,0,.64,1.36.64,1.81.64Z"/><path class="e" d="M866,119.15c-2.92-2.16-5.88-14.67-7.53-16.44-.73-.81-3.68-1.36-4.77-1.42-.84,0-1.13.46-1.17,1.23-.14,2.65.43,5.33.28,8-.08,1.55-1,7.64-2.13,8.42a2.41,2.41,0,0,1-1.37.25c-1.87-.1-8.84-.47-8.7-3s.61-5.34.75-8c.1-1.81,0-3.63.1-5.43.15-2.84.55-5.54.51-8.38,0-2.66-.36-5.39-.54-8-.24-3.9.31-9.3.53-13.49,0-.78,0-2.14.66-2.62,1.27-.9,8.74-.25,9.19-.22,2.84.15,5.8.5,8.63.85,6.23.72,10.32,1.78,14.66,6.34a9.07,9.07,0,0,1,2.06,2.64,18.33,18.33,0,0,1,.83,3.79,14.8,14.8,0,0,1,.47,3.39,14.71,14.71,0,0,1-1.33,4.33A14.54,14.54,0,0,1,875.46,95c-1.26,1.68-5.12,3.74-5.22,5.67-.14,2.58,8.33,18.24,8.29,19-.47.43-8.54.19-10.35.09A3.67,3.67,0,0,1,866,119.15Zm-1.17-27.74c.87-.41,2.28-3.89,2.33-4.86a9.74,9.74,0,0,0-2.27-4.71c-.93-.63-8.95-2-10.43-2a1.21,1.21,0,0,0-.79.28,2,2,0,0,0-.25.9c-.14,2.77.09,5.63.07,8.41,0,3.69.06,3.75,4,4C858.4,93.39,864.3,92,864.84,91.41Z"/><path class="e" d="M908.27,108c-.28,2.44-1,5-1.44,7.44,0,.13-1.17,7.34-2.47,7.91a2.82,2.82,0,0,1-1.45.15,34.14,34.14,0,0,1-6.66-1.48c-3.06-1.07-1.76-5.6-1.48-8,.54-4.62.94-9.25,1.48-13.87.42-3.66,1.67-7.16,2.09-10.81.81-7,1-5.67-6-6.49-2.18-.25-7.18.22-6.81-2.93.19-1.67,1-7.3,3.22-7,1.79.21,3.62.68,5.42.89,3,.35,6.13-.14,9.08.2l6.61.77c3.53.4,7,1.07,10.54,1.6.84.1,2.5.29,2.93,1.12.64,1.18.26,5.56.1,7-.3,2.63-2.2,1.63-4.06,1.42-1.29-.15-7.43-1-8.33,0a8,8,0,0,0-1.17,3.38c-.27,1.27-.69,2.65-.84,3.93-.33,2.82.31,5.69,0,8.58Z"/><path class="e" d="M674.31,101.2c6.88-3.06,16.14-5,23.6-6,1.53,4.44,4.75,7.63.31,9.15s-17.14,2.84-20.91,5.64a40.64,40.64,0,0,1-3-8.78"/><path class="e" d="M675.07,102.5c7.37-3.14,15.33-4.74,23.23-5.87l-1.84-1c1.21,3.12,3.95,5.84-.12,7.73-2,.92-4.72,1-6.84,1.43-4.29.86-9.2,1.49-12.94,3.94l2.05.53a45.38,45.38,0,0,1-2.85-8.42c-.45-1.87-3.34-1.08-2.89.8a49.13,49.13,0,0,0,3.15,9.14,1.52,1.52,0,0,0,2.05.54c5.42-3.55,13-3.38,19.07-5.07,7-1.93,4.22-6.26,2.21-11.42a1.57,1.57,0,0,0-1.84-1.05,94.53,94.53,0,0,0-24,6.17c-1.78.75-.25,3.34,1.51,2.59Z"/><path class="e" d="M946.12,98.25c7.42,1.24,16.21,4.74,23,8-1.17,4.55-.25,9-4.79,7.8s-15.86-7.09-20.55-6.83a41,41,0,0,1,2.35-9"/><path class="e" d="M945.72,99.7a91.91,91.91,0,0,1,22.63,7.86l-.68-1.7c-.63,2.86.09,6.84-3.68,6.54-2.12-.16-4.62-1.75-6.54-2.54-4.29-1.76-8.94-4.09-13.68-4.13l1.45,1.89a49.76,49.76,0,0,1,2.35-9c.65-1.82-2.24-2.6-2.9-.8a49.62,49.62,0,0,0-2.34,9,1.52,1.52,0,0,0,1.44,1.9c6.65,0,12.79,4.57,19,6.43,6.68,2,6.65-3.33,7.78-8.5a1.53,1.53,0,0,0-.69-1.69c-7.47-3.55-15.2-6.66-23.35-8.17-1.89-.35-2.7,2.54-.8,2.9Z"/><path d="M1095.53,129c-2.56-.09-5.09-.07-7.64.07l3,3q0-21.69-.07-43.39l-2.2,2.89,8.52-1.21a3,3,0,0,0,2.2-2.89l-.81-10.3a3.08,3.08,0,0,0-3-3c-2.59-.09-5.14-.07-7.73.08l3,3c0-10.62,1.64-28.49-12.53-30.66l2.21,2.89V37a3,3,0,0,0-3-3H586.79c-6.63,0-13.41-.41-20,0-.29,0-.58,0-.88,0a3,3,0,0,0-3,3V52.78l5.9-.8c-1-6.26-4.13-10.44-10.67-11a3,3,0,0,0-3,3l.18,34.63,2.2-2.89c-3.3.6-5.88,1.07-8.35,3.38-2.9,2.71-2.74,7.9-3.47,11.68-.47,2.42,1.37,4,3.69,3.69L559.15,93l-3.8-2.89.27,50.14,2.21-2.89c-3.41.6-6.14,1-8.69,3.42-2.9,2.71-2.74,7.9-3.47,11.68-.47,2.43,1.37,4,3.69,3.69l10.12-1.43-3.79-2.89q1,171.56,2,343.11.12,23.56.25,47.15.06,10.71.11,21.43c0,6.37-1.41,14.77,1.11,20.8,1.53,3.66,5.33,6.17,9.37,4.89,6-1.91,4.15-10,4.19-14.73l.33-46.29c.42-57.7.81-115.4.79-173.1q0-95.76-2-191.5l-3,3H1068c2,0,4.84.49,6.85,0a3.93,3.93,0,0,1,.84,0l-3-3q.49,85.62,1,171.26.52,87.09,1,174.18.12,23.82.25,47.62c0,7.76-.48,15.76.21,23.49.39,4.28,2.44,8.64,7.12,9.27,5.5.75,7.29-3.35,7.32-8q.09-12.26.17-24.49.17-23.55.3-47.09.53-86.1.74-172.21.21-85.67.1-171.33,0-11.4,0-22.79l-2.21,2.89,8.44-1.19a3,3,0,0,0,2.2-2.9l-.81-10.3c-.31-3.83-6.31-3.86-6,0l.81,10.3,2.21-2.89-8.44,1.19a3,3,0,0,0-2.2,2.9q.19,164.22-.6,328.43-.24,44.43-.55,88.86c0,3.58,0,7.16-.07,10.74,0,1.46.88,10.16-.08,10.87-3.19,2.38-2.55-7.81-2.55-9q0-6.9-.08-13.81-.11-22.95-.24-45.9-.45-83.13-1-166.28-.55-91.9-1.1-183.82a3,3,0,0,0-3-3H589.53c-6.55,0-13.27-.43-19.81,0h-.83a3,3,0,0,0-3,3c2.28,108.56,2.15,217.13,1.43,325.71q-.29,44.57-.63,89.14c0,.93,1,5.8-1.82,4.06-.91-.56-.7-3.53-.74-4.43-.13-3.53,0-7.08-.06-10.61L564,544.05l-.24-45.38q-.45-82.14-1-164.28-.56-91.27-1.07-182.53c0-2.15-1.9-3.17-3.8-2.9l-10.12,1.44,3.69,3.69a58.41,58.41,0,0,0,1.13-5.84c.89-1.19.88-1.89,0-2.1-.58-.1-.54-.29.13-.56,1.38-2,4.68-2.06,6.72-2.42a3,3,0,0,0,2.2-2.89l-.27-50.14c0-2.15-1.9-3.16-3.8-2.89l-9.78,1.38,3.69,3.69a58.22,58.22,0,0,0,1.13-5.83c.89-1.19.88-1.9,0-2.1-.58-.11-.54-.29.13-.57,1.33-1.89,4.41-2,6.39-2.36a3,3,0,0,0,2.2-2.9l-.18-34.63-3,3c3.74.35,4.38,3.52,4.88,6.65.55,3.4,5.89,2.5,5.89-.8V37l-3,3h503.83c2.11,0,4.82.46,6.89,0a4.31,4.31,0,0,1,.88,0l-3-3V49.52a3,3,0,0,0,2.2,2.89c10.44,1.6,8.11,17.22,8.12,24.88a3,3,0,0,0,3,3c2.59-.15,5.14-.17,7.73-.08l-3-3,.81,10.3,2.21-2.89-8.52,1.2a3,3,0,0,0-2.21,2.9q0,21.69.07,43.39a3,3,0,0,0,3,3c2.55-.14,5.08-.16,7.64-.07C1099.39,135.18,1099.38,129.17,1095.53,129Z"/><path class="d" d="M253.38,71.52c69.39-14.57,176.91-18.82,226.37,32s72.89,122.11,80.78,192.58c5.68,50.63,3.24,105-24.5,147.78-24.26,37.38-65,61.12-106.9,76.28-69.89,25.28-148.83,29.78-218.24,3.21S83.53,436.85,68.2,364.13c-16.68-79.08,18-162.32,72.91-221.6C141.11,142.53,183.26,86.24,253.38,71.52Z"/><path d="M254.18,74.41c44.39-9.25,91.32-13,136.37-6.57,21.69,3.1,43.5,8.76,62.75,19.47,21.06,11.72,36.9,30.53,50.31,50.23,30.87,45.36,46.75,99.65,53.36,153.7,6.63,54.28,4.86,114.86-29.85,160.07C493.58,495,437.66,518,385.46,529.85c-58.21,13.24-120.65,11.74-176.52-10.45C162.65,501,121.76,467.55,95.79,424.93c-27.62-45.32-34.95-98.86-23.18-150.41A269.68,269.68,0,0,1,103,198.85a304,304,0,0,1,23.37-34.45q6-7.67,12.5-15c1.6-1.8,3.27-3.56,4.82-5.41.47-.55-.48.58.09-.1a210.21,210.21,0,0,1,75.12-58,175.57,175.57,0,0,1,35.27-11.53c3.77-.81,2.17-6.59-1.6-5.78-41,8.81-78.38,32.46-106.46,63.35-28.67,31.55-53.33,66.25-68.7,106.29-19.5,50.83-22.86,107.88-2.25,158.92,19,47.13,55.22,86.28,98.89,111.8,50.95,29.78,111.55,39.5,169.83,33.69a357.19,357.19,0,0,0,89.73-21c25.36-9.5,49.8-21.95,70.94-39a156.7,156.7,0,0,0,47.87-64.32c10.61-26.79,13.94-56,13.56-84.67-.74-55.94-12.65-113.83-37.1-164.29-12.12-25-27.85-48.65-47.44-68.43-15.11-15.26-34.75-25.12-55.09-31.41-45.45-14-95.43-12.8-142.08-6.4q-15.93,2.19-31.7,5.47C248.8,69.41,250.4,75.2,254.18,74.41Z"/><path class="e" d="M352.93,14.88C323.15,26,296,44.89,274,67.81c-1.71,1.78-3.52,4.09-2.81,6.45.55,1.81,2.38,2.86,4.06,3.73a438,438,0,0,0,86.49,33.37c4.58,1.23,10.19,2.12,13.42-1.34,2.8-3,2.28-7.71,1.53-11.75a469,469,0,0,0-23.78-83.39"/><path d="M352.13,12a212.24,212.24,0,0,0-55.28,31.23,222.2,222.2,0,0,0-23.79,21.27c-2.69,2.8-6,6.31-4.74,10.58s6.78,6.23,10.41,8A444.47,444.47,0,0,0,344,109.34c5.61,1.75,11.25,3.49,17,4.92,4.14,1,8.71,1.93,12.81.24,8.56-3.54,6.51-13.58,5.11-20.74a474.89,474.89,0,0,0-23.07-79.68c-1.37-3.57-7.18-2-5.78,1.59a477.66,477.66,0,0,1,18.18,57.57c2.3,9.34,5.59,19.56,6,29.2.59,12.52-17.74,4.42-24.22,2.47a432.9,432.9,0,0,1-56.57-21.38q-6.32-2.93-12.55-6c-2.14-1.06-5.24-1.86-5.83-4.3-.68-2.77,2.63-4.92,4.56-6.85a230.16,230.16,0,0,1,20.11-17.85,204,204,0,0,1,54-30.72c3.58-1.35,2-7.16-1.6-5.79Z"/><path class="d" d="M346.25,29.79C326.18,37.27,307.91,50,293.07,65.45c-1.15,1.2-2.37,2.76-1.89,4.35.37,1.22,1.6,1.93,2.74,2.51A294.76,294.76,0,0,0,352.2,94.8c3.08.83,6.86,1.43,9-.9,1.89-2,1.54-5.2,1-7.92a316,316,0,0,0-16-56.19"/><path d="M345.85,28.34a144.13,144.13,0,0,0-38.14,21.78c-5.65,4.48-12.14,9.46-16.54,15.23-3.31,4.34-.39,7,3.63,9.09a285,285,0,0,0,45.51,18.47c5.35,1.68,13.38,5.59,19.12,3.78,5-1.58,5-6.8,4.29-11.11-3.19-19.16-9.06-38.1-16-56.19-.69-1.79-3.59-1-2.9.8A319.91,319.91,0,0,1,359.34,79c.71,3.33,2.85,8.79,1.67,12.17-1.93,5.59-12,1.24-15.5.21Q334,88,322.86,83.66,311,79.09,299.61,73.49c-1.17-.57-4.1-1.38-4.94-2.47-2.84-3.72.92-6,3-8.11q3.65-3.55,7.52-6.88a141,141,0,0,1,41.42-24.8c1.79-.68,1-3.58-.8-2.89Z"/><text class="f" transform="matrix(1, 0.06, -0.06, 1, 319.8, 76.45)">1</text><path class="d" d="M1276.37,71.52c69.39-14.57,176.91-18.82,226.37,32s72.89,122.11,80.79,192.58c5.67,50.63,3.23,105-24.51,147.78-24.26,37.38-65,61.12-106.9,76.28-69.89,25.28-148.83,29.78-218.23,3.21s-127.36-86.51-142.7-159.23c-16.68-79.08,18-162.32,72.91-221.6C1164.1,142.53,1206.26,86.24,1276.37,71.52Z"/><path d="M1277.17,74.41c44.4-9.25,91.32-13,136.37-6.57,21.69,3.1,43.5,8.76,62.75,19.47,21.07,11.72,36.91,30.53,50.31,50.23,30.88,45.36,46.75,99.65,53.36,153.7,6.63,54.28,4.87,114.86-29.85,160.07-33.53,43.68-89.46,66.66-141.66,78.54-58.2,13.24-120.65,11.74-176.52-10.45-46.29-18.39-87.18-51.85-113.15-94.47-27.62-45.32-35-98.86-23.18-150.41a270,270,0,0,1,30.4-75.67,306.63,306.63,0,0,1,23.37-34.45q6-7.67,12.5-15c1.6-1.8,3.27-3.56,4.83-5.41.46-.55-.49.58.08-.1a210.21,210.21,0,0,1,75.12-58,175.57,175.57,0,0,1,35.27-11.53c3.77-.81,2.18-6.59-1.6-5.78-41,8.81-78.38,32.46-106.46,63.35-28.67,31.55-53.33,66.25-68.69,106.29-19.51,50.83-22.87,107.88-2.26,158.92,19,47.13,55.22,86.28,98.9,111.8,51,29.78,111.54,39.5,169.82,33.69a357.19,357.19,0,0,0,89.73-21c25.36-9.5,49.8-21.95,70.94-39a156.7,156.7,0,0,0,47.87-64.32c10.61-26.79,13.94-56,13.56-84.67-.73-55.94-12.65-113.83-37.1-164.29-12.12-25-27.85-48.65-47.44-68.43-15.11-15.26-34.75-25.12-55.09-31.41-45.45-14-95.42-12.8-142.08-6.4q-15.93,2.19-31.7,5.47C1271.8,69.41,1273.4,75.2,1277.17,74.41Z"/><path class="e" d="M1375.92,14.88C1346.14,26,1319,44.89,1297,67.81c-1.71,1.78-3.52,4.09-2.81,6.45.55,1.81,2.38,2.86,4.06,3.73a438.06,438.06,0,0,0,86.5,33.37c4.57,1.23,10.18,2.12,13.41-1.34,2.81-3,2.28-7.71,1.53-11.75a469,469,0,0,0-23.78-83.39"/><path d="M1375.13,12a212.3,212.3,0,0,0-55.29,31.23,222.2,222.2,0,0,0-23.79,21.27c-2.69,2.8-6,6.31-4.74,10.58s6.78,6.23,10.41,8A444.47,444.47,0,0,0,1367,109.34c5.61,1.75,11.25,3.49,17,4.92,4.14,1,8.71,1.93,12.81.24,8.56-3.54,6.51-13.58,5.11-20.74a473.92,473.92,0,0,0-23.06-79.68c-1.38-3.57-7.18-2-5.79,1.59a477.66,477.66,0,0,1,18.18,57.57c2.3,9.34,5.59,19.56,6,29.2.59,12.52-17.73,4.42-24.21,2.47a431.82,431.82,0,0,1-56.57-21.38q-6.33-2.93-12.56-6c-2.14-1.06-5.24-1.86-5.83-4.3-.67-2.77,2.63-4.92,4.56-6.85a230.16,230.16,0,0,1,20.11-17.85,204.15,204.15,0,0,1,54-30.72c3.58-1.35,2-7.16-1.59-5.79Z"/><path class="d" d="M1369.24,29.79c-20.06,7.48-38.34,20.22-53.17,35.66-1.15,1.2-2.37,2.76-1.89,4.35.36,1.22,1.6,1.93,2.73,2.51a294.76,294.76,0,0,0,58.28,22.49c3.09.83,6.87,1.43,9-.9,1.89-2,1.54-5.2,1-7.92a316,316,0,0,0-16-56.19"/><path d="M1368.84,28.34a144.07,144.07,0,0,0-38.13,21.78c-5.66,4.48-12.15,9.46-16.55,15.23-3.31,4.34-.39,7,3.63,9.09a285.52,285.52,0,0,0,45.52,18.47c5.35,1.68,13.37,5.59,19.12,3.78,5-1.58,5-6.8,4.28-11.11-3.19-19.16-9.06-38.1-16-56.19-.69-1.79-3.59-1-2.89.8A322.19,322.19,0,0,1,1382.34,79c.7,3.33,2.84,8.79,1.67,12.17-1.94,5.59-12,1.24-15.5.21Q1357,88,1345.85,83.66,1334,79.09,1322.6,73.49c-1.16-.57-4.1-1.38-4.93-2.47-2.85-3.72.91-6,3-8.11q3.64-3.55,7.52-6.88a140.81,140.81,0,0,1,41.41-24.8c1.79-.68,1-3.58-.8-2.89Z"/><text class="f" transform="matrix(0.97, 0.25, -0.25, 0.97, 1340.47, 74.01)">2</text><text class="g" transform="translate(161.68 396.34)">至少177-237ml的水分補充，<tspan x="-6.5" y="34">台灣氣候悶熱，不能等途中渴</tspan><tspan x="110.5" y="68">了再喝。</tspan></text><text class="g" transform="translate(1177.56 409.34)">早餐要吃自己平常常吃的早餐，<tspan x="58.5" y="34">並在跑前2小時吃完。</tspan></text><path class="h" d="M317.4,211.6a128.56,128.56,0,0,1,17,5.05c-.58,48-.29,85.25-.87,133.2a520.53,520.53,0,0,1-96.69-.57c-2.61-.26-5.41-.62-7.37-2.42-2.21-2-2.77-5.29-3.2-8.29-6.45-44.36-10.92-67.22-20.67-110.95,4.34-1.69,6.52-3,11-4.18C250.22,214.83,283.57,203.8,317.4,211.6Z"/><path d="M317,213.05a142,142,0,0,1,17,5l-1.1-1.45c-.53,44.4-.34,88.8-.87,133.2l1.5-1.5a527.25,527.25,0,0,1-61.19,1.73q-15.81-.48-31.56-1.93a47.06,47.06,0,0,1-6.7-.76c-3.95-1-5.42-4.05-6.13-7.7-.92-4.75-1.42-9.62-2.14-14.4-5-33-11.52-65.55-18.77-98.07l-1,1.85c16.57-6.66,34.51-10.8,52-14.48,19.49-4.1,39.37-5.87,59-1.54,1.88.41,2.69-2.48.8-2.9-18.87-4.16-38-2.89-56.86.79s-38,8.13-55.72,15.23a1.56,1.56,0,0,0-1.05,1.85c6,27,11.71,54.1,16.16,81.44q1.78,11,3.41,22c.77,5.19.55,13,5,16.69,5,4.2,14.9,3.29,20.93,3.74q12.81,1,25.66,1.27a528.78,528.78,0,0,0,58.23-1.81,1.54,1.54,0,0,0,1.5-1.5c.53-44.4.34-88.8.87-133.2a1.54,1.54,0,0,0-1.1-1.45,143.9,143.9,0,0,0-17-5C315.92,209.71,315.12,212.6,317,213.05Z"/><path class="d" d="M335.76,165.65c-.16,13.45-1.18,37.55-1.34,51a128.56,128.56,0,0,0-17-5.05c-33.83-7.8-67.18,3.23-100.76,11.84-4.5,1.15-6.68,2.49-11,4.18-3.94-17.66-11.79-56.51-16.26-74C269.83,136.86,335.76,165.65,335.76,165.65Z"/><path d="M334.26,165.65c-.22,17-1.11,34-1.34,51l1.9-1.45c-20.93-7.78-42.58-9.21-64.57-5.88a328.47,328.47,0,0,0-33.51,7.29c-10.72,2.78-21.25,5.44-31.52,9.56l1.84,1.05c-5.48-24.66-10.05-49.55-16.25-74L189.76,155a264.73,264.73,0,0,1,103.2-.12c14,2.73,29.32,6.51,42.05,12,1.75.76,3.28-1.83,1.51-2.59a180.46,180.46,0,0,0-27.59-8.93A276.19,276.19,0,0,0,240,146.86a259.85,259.85,0,0,0-51,5.28,1.51,1.51,0,0,0-1,1.84c6.2,24.49,10.77,49.38,16.25,74a1.51,1.51,0,0,0,1.85,1c9.4-3.78,18.93-6.26,28.73-8.84,10.77-2.83,21.59-5.55,32.58-7.42C290,209,312.36,210,334,218.1a1.52,1.52,0,0,0,1.9-1.45c.23-17,1.12-34,1.34-51C337.29,163.72,334.29,163.72,334.26,165.65Z"/><path d="M331,325.72c-17.32,2.93-35.29,3.16-52.8,2.83-17.07-.32-35.76-.64-52-6.65-1.81-.67-2.59,2.23-.8,2.9,16.43,6.08,35.47,6.42,52.76,6.75,17.79.34,36,0,53.59-2.94,1.9-.32,1.1-3.21-.79-2.89Z"/><path d="M220.41,178.7a500.3,500.3,0,0,0,27.5,97.83c.71,1.77,3.61,1,2.9-.8A500.33,500.33,0,0,1,223.3,177.9c-.33-1.9-3.22-1.09-2.89.8Z"/><path d="M333.66,167.38c-20.5,12.18-47,6.09-69,2.08-24.68-4.51-49.3-9.37-73.95-14.06-1.89-.36-2.7,2.53-.8,2.89,26.55,5.06,53.07,10.45,79.7,15.09,21.34,3.71,45.88,8.31,65.59-3.41a1.5,1.5,0,0,0-1.51-2.59Z"/><path d="M332.76,165.65c-.22,15-1.24,30-1.4,45q-.25,23.19-.31,46.4c-.12,30.94-.13,61.89-.5,92.84l3-3a528.23,528.23,0,0,1-64.15,1.63c-10.83-.39-21.77-.89-32.54-2.2-3.83-.47-5.92-1.7-7.15-5.47a44.07,44.07,0,0,1-1.09-6.87q-1.1-7.44-2.27-14.86c-5.91-37.35-13.93-74.21-21.89-111.16-4-18.4-7.59-36.89-12.2-55.14l-2.1,3.69a262.77,262.77,0,0,1,102.4-.11,255.78,255.78,0,0,1,30.32,7.78c2.95,1,5.88,2,8.77,3.07l2.37.94c1,.4-.21-.1.23.09,3.51,1.52,6.56-3.64,3-5.18-29.95-13-64.91-17.8-97.27-17.7a262.41,262.41,0,0,0-51.45,5.33,3,3,0,0,0-2.09,3.69c4.32,17.06,7.76,34.34,11.44,51.55,4.12,19.28,8.51,38.5,12.4,57.83q6,29.7,10.68,59.65c.83,5.32,1.55,10.65,2.41,16,.6,3.77,1.46,7.57,4.57,10.08s7.1,2.65,10.86,3q8.85.86,17.74,1.39a526.1,526.1,0,0,0,77-1,3.08,3.08,0,0,0,3-3c.37-31,.39-61.9.5-92.84q.09-22.71.3-45.42c.16-15.32,1.18-30.62,1.41-45.94C338.82,161.79,332.82,161.79,332.76,165.65Z"/><path d="M199.78,152.88a684.47,684.47,0,0,0,72.12,16.41c18.79,3.22,44.16,10.27,59.55-5a1.5,1.5,0,0,0-2.12-2.12c-7.83,7.79-18.85,9-29.4,8.21-11.65-.92-23.32-3.17-34.81-5.27q-32.61-6-64.54-15.07a1.5,1.5,0,0,0-.8,2.89Z"/><path d="M305.41,303.07a177.31,177.31,0,0,1,28.41.42c1.92.18,1.91-2.82,0-3a177.31,177.31,0,0,0-28.41-.42c-1.92.12-1.93,3.12,0,3Z"/><path d="M305.41,279.38a177.31,177.31,0,0,1,28.41.42c1.92.18,1.91-2.82,0-3a177.31,177.31,0,0,0-28.41-.42c-1.92.12-1.93,3.12,0,3Z"/><path d="M305.41,253a178.48,178.48,0,0,1,28.41.43c1.92.18,1.91-2.82,0-3a178.48,178.48,0,0,0-28.41-.43c-1.92.13-1.93,3.13,0,3Z"/><path d="M305.41,227.16a177.31,177.31,0,0,1,28.41.42c1.92.18,1.91-2.82,0-3a177.31,177.31,0,0,0-28.41-.42c-1.92.12-1.93,3.12,0,3Z"/><path d="M305.41,201.71a177.31,177.31,0,0,1,28.41.42c1.92.19,1.91-2.81,0-3a177.31,177.31,0,0,0-28.41-.42c-1.92.13-1.93,3.13,0,3Z"/><text class="i" transform="translate(269.18 258.85)">150</text><text class="i" transform="translate(277.93 308.51)">50</text><text class="i" transform="translate(269.18 207.85)">250</text><path d="M377.38,240.48c-14.64.16-29.28.09-43.92.25a1.5,1.5,0,0,0,0,3l2,0c1.93,0,1.93-3,0-3l-2,0v3c14.64-.16,29.28-.09,43.92-.25a1.5,1.5,0,0,0,0-3Z"/><path d="M377.38,207.3c-14.64.16-29.28.09-43.92.24a1.5,1.5,0,0,0,0,3l2,.05c1.93,0,1.93-3,0-3l-2-.05v3c14.64-.15,29.28-.08,43.92-.24a1.5,1.5,0,0,0,0-3Z"/><text class="j" transform="translate(397.2 208.18)"><tspan class="e">237</tspan><tspan class="k" x="72" y="0">ml</tspan></text><text class="l" transform="translate(390.97 267.69)">177</text><text class="m" transform="translate(475.22 267.69)">ml</text><path class="c" d="M1340.51,319.43,1249.62,328a10.4,10.4,0,0,0-3.27.66c-2.64,1.17-3,4-2.53,6.4,1.79,9.89,11.33,18.4,23.14,22.12s25.49,3,37.2-.95a72.86,72.86,0,0,0,29.25-18.74c5.53-5.74,10.19-12.84,8.28-19.88"/><path d="M1340.51,317.93l-59.27,5.59c-10.21,1-20.43,1.84-30.63,2.89-5.49.57-9.15,2.78-8.26,8.86,1.86,12.71,15.27,21.11,26.66,24.06,15.52,4,32.5,1.12,46.52-6.36,11.94-6.38,30.84-20.08,27.6-35.75-.39-1.89-3.28-1.09-2.89.8,2,9.67-6.76,18-13.46,23.66a70.42,70.42,0,0,1-21.43,12.57c-16.13,5.84-36.66,6-50.64-5.15a27.71,27.71,0,0,1-7.51-8.82,19,19,0,0,1-1.67-4.38c-1.24-5.24,4.17-6.4,8-6.77l28.64-2.7,58.29-5.5c1.9-.18,1.92-3.18,0-3Z"/><path class="n" d="M1243.36,319.23c-5.25-2.82-12.66.91-13.86,6.75s3.73,12,9.68,12.54,11.7-4.39,12.54-10.29c3.88,9.4,16.6,11.38,26.48,8.95s19.17-7.79,29.34-7.84c4,0,8.16.8,12-.31s7.36-5.22,5.89-9c11,5.59,26.35-.7,30.28-12.44,4.14.57,6.23-5.74,3.73-9.09s-7.06-4.22-11.19-4.84c-9.47-1.42-19.29-2.82-28.5-.2-7.74,2.21-14.47,7.1-22.13,9.57-8.93,2.88-18.54,2.31-27.87,3.21s-19.29,3.81-24.73,11.45"/><path d="M1244.12,317.94c-9.59-4.26-20,5.69-14.87,15.35,6,11.34,21.53,6.8,23.92-4.66l-2.75.35c6.7,14.36,25.19,11.07,37.11,6.83,4.51-1.6,9-3.39,13.74-4.3,5.33-1,10.47.05,15.78-.53,5.82-.63,11.45-4.94,9.86-11.32l-2.2,1.7A24.23,24.23,0,0,0,1357.2,308l-1.45,1.1c3.61,0,5.89-2.73,6.24-6.22.39-4-2-6.89-5.46-8.57-5.09-2.5-11.62-2.77-17.19-3.34-7.22-.75-14.64-.77-21.6,1.57s-12.86,6.42-19.67,8.77c-7.41,2.56-15.26,2.61-23,3.06-11.63.67-23.79,2.78-31.29,12.57-1.18,1.53,1.43,3,2.59,1.52,12.71-16.58,38.08-8.16,55.28-15.32,10.36-4.3,18.84-9.76,30.51-9.64a105.94,105.94,0,0,1,17.13,1.83,20.7,20.7,0,0,1,6.36,1.86c1.86,1,3.25,2.55,3.29,4.76,0,1.88-.54,4.16-3.18,4.15a1.57,1.57,0,0,0-1.45,1.1c-4.08,10.92-17.49,16.44-28.08,11.55a1.52,1.52,0,0,0-2.2,1.69c2.56,10.28-15,7-20.24,7.63-6.49.78-12.54,3.27-18.66,5.4-10.35,3.6-26.35,6.33-32.11-6a1.51,1.51,0,0,0-2.74.36c-1.62,7.81-11.11,12.68-17.11,5.89s1.32-16.8,9.44-13.19c1.75.78,3.28-1.81,1.52-2.59Z"/><path class="o" d="M1239.19,309.68c-2.35,2.21-1.07,6.47,1.62,8.23s6.15,1.74,9.37,1.66c22.59-.57,45.74-1.26,66.71-9.69,5.32-2.15,10.52-4.82,14.69-8.76s7.24-9.28,7.54-15c.08-1.64-.29-3.63-1.82-4.22a4.31,4.31,0,0,0-2.31,0,636.89,636.89,0,0,0-103.32,25.84"/><path d="M1238.12,308.62c-2.71,3.48-1.7,8.08,1.94,10.59,2.66,1.83,6.21,1.89,9.3,1.87,4.87,0,9.74-.24,14.6-.44,18-.74,36.43-2.53,53.33-9.32,7-2.8,13.88-6.54,18.48-12.66,2.87-3.8,6.57-10.92,4.34-15.81-.9-2-2.45-2.61-4.54-2.57-4.31.1-8.94,1.46-13.17,2.23q-14.06,2.57-28,5.77a646.3,646.3,0,0,0-63.16,18c-1.82.62-1,3.52.8,2.89q26.15-8.86,53-15.53,12.93-3.19,26-5.85c4.36-.89,8.72-1.72,13.09-2.52,4.12-.74,14.77-4.08,13.11,3.56-3.86,17.74-28.45,23.3-43.54,26a210.43,210.43,0,0,1-27,2.74c-4.29.21-8.58.34-12.88.45-2.29.06-4.63.26-6.92.09-3.21-.22-10.15-2.86-6.67-7.32,1.17-1.5-.94-3.64-2.13-2.12Z"/><path class="n" d="M1239.78,288a44.15,44.15,0,0,0-17.46,15c-1,1.45-1.92,3.3-1.17,4.89,1.1,2.34,4.53,1.93,7,1A89.33,89.33,0,0,0,1252,295.83c-.12,6.37,6.83,11,13.21,10.86s12.11-3.67,17.51-7.07a19.53,19.53,0,0,0,5.66-4.66c1.45-2,2.07-4.79.88-6.94a3.35,3.35,0,0,0,.54,4.22,8.85,8.85,0,0,0,4.11,2.06,61.52,61.52,0,0,0,29.66.92c3.73-.81,8.1-2.83,8.26-6.64.11-2.64-2.08-4.93-4.57-5.81s-5.2-.69-7.83-.48a40.88,40.88,0,0,0,27.95-.77,13.91,13.91,0,0,0,5.53-3.52,6.12,6.12,0,0,0,1.34-6.13c-1.47-3.56-6.3-3.91-10.14-3.63a398.25,398.25,0,0,0-101.27,20.92"/><path d="M1239,286.73a46.93,46.93,0,0,0-15.93,12.73c-2.08,2.63-5.63,7.15-2.39,10.36s9.26.12,12.58-1.3a92.82,92.82,0,0,0,19.46-11.4l-2.26-1.29c.53,9.69,10.91,13.76,19.35,11.71,5.78-1.41,11.54-4.83,16.25-8.38,3.78-2.84,6.39-6.76,4.6-11.54-.4-1.07-2.15-1.64-2.74-.36-6.08,13.2,29.3,10.8,35.1,9.59,4.63-1,11.18-3.64,10.14-9.56-1.13-6.43-8.65-6.88-13.77-6.5a1.5,1.5,0,0,0-.4,2.94,43.53,43.53,0,0,0,19,1.75c5.26-.71,12.62-2.28,16.14-6.72,2.4-3,2.66-7.35-.44-10-4.21-3.53-11.39-2-16.23-1.52a403.4,403.4,0,0,0-95.09,20.44c-1.81.62-1,3.52.8,2.89a403.79,403.79,0,0,1,70.36-17.43q9.59-1.46,19.24-2.45c5-.51,10.84-1.81,15.85-.84,2.76.54,5.64,1.65,3.7,6.28-.59,1.4-2.9,2.68-4.24,3.39a31.19,31.19,0,0,1-9.23,2.78,40.78,40.78,0,0,1-19.09-1.5l-.4,3a24.43,24.43,0,0,1,4.76-.14c4.5.56,8,5.5,3.55,8.43-3.38,2.24-8.69,2.56-12.5,2.85-3,.23-27.39-.29-24.69-6.15l-2.74-.36c2.8,7.48-11.55,14-17.1,15.76-6.67,2.13-16.74.28-17.21-8.35-.06-1-1.28-2-2.26-1.3a95.24,95.24,0,0,1-11.43,7.49c-3.75,2.06-8.86,5.45-13.17,5.84-8.32.76.6-8.79,2.77-10.87a45.45,45.45,0,0,1,11.15-7.67c1.73-.86.21-3.45-1.52-2.59Z"/><path class="c" d="M1240.83,284.43l90.88-10.93a8.55,8.55,0,0,0,3.27-.84c2.64-1.49,3-5.15,2.53-8.15-1.79-12.61-11.33-23.45-23.14-28.19s-25.49-3.78-37.2,1.21-21.57,13.73-29.25,23.88c-5.52,7.32-10.19,16.36-8.27,25.33"/><path d="M1240.83,285.93l62.23-7.48c9.85-1.19,20.18-1.62,29.89-3.63,6.06-1.26,6.79-6.82,5.77-12.16-2.7-14.12-14.49-25.31-28-29.18-16.08-4.58-33.37.19-46.63,9.82-13.1,9.51-28.79,26.31-25.84,43.83.32,1.9,3.21,1.1,2.89-.79-1.85-11,5-20.94,11.91-28.82a72.83,72.83,0,0,1,19.23-15.9c16.85-9.38,39.49-10,53.91,4.21a35.74,35.74,0,0,1,7,9.72c1.69,3.46,4.83,11,2.23,14.61-1.91,2.67-6.73,2.21-9.64,2.56l-7.9.95-14.82,1.78-62.23,7.48c-1.9.23-1.92,3.23,0,3Z"/><path d="M1282.22,245.31l-2.83,1.7a1.5,1.5,0,0,0,1.51,2.59l2.83-1.7a1.5,1.5,0,0,0-1.51-2.59Z"/><path d="M1263.59,256l-1.7,2.26a1.51,1.51,0,0,0,.54,2,1.54,1.54,0,0,0,2-.54l1.7-2.26a1.51,1.51,0,0,0-.54-2.05,1.53,1.53,0,0,0-2.05.54Z"/><path d="M1277.57,255.25l-1.7,5.66c-.55,1.85,2.34,2.64,2.9.79l1.69-5.65c.56-1.85-2.34-2.64-2.89-.8Z"/><path d="M1291.65,251.69v6.22a1.5,1.5,0,0,0,3,0v-6.22a1.5,1.5,0,0,0-3,0Z"/><path d="M1295.84,244.75a4,4,0,0,1,4.21,1.18c1.31,1.42,3.43-.7,2.13-2.12a7,7,0,0,0-7.14-1.95c-1.84.55-1.06,3.45.8,2.89Z"/><path d="M1312.18,250.73l5.09,2.26a1.55,1.55,0,0,0,2-.54,1.51,1.51,0,0,0-.54-2l-5.08-2.26a1.56,1.56,0,0,0-2.06.54,1.51,1.51,0,0,0,.54,2Z"/><path d="M1305.09,254.45l4,4a1.5,1.5,0,0,0,2.12-2.12l-4-4a1.5,1.5,0,0,0-2.13,2.12Z"/><path class="d" d="M1220,361.38l1.46,8.53q76.15-5.87,152.54-9.3l.35-12.47a1220.66,1220.66,0,0,0-155.28,12l3,.67"/><path d="M1218.56,361.78l1.46,8.53a1.49,1.49,0,0,0,1.44,1.1q76.2-5.85,152.54-9.3a1.54,1.54,0,0,0,1.5-1.5l.35-12.47a1.52,1.52,0,0,0-1.5-1.5,1236.43,1236.43,0,0,0-155.68,12.07c-1.49.21-1.37,2.59,0,2.89l3,.66c1.88.42,2.68-2.47.8-2.89l-3-.66v2.89a1231.3,1231.3,0,0,1,154.88-12l-1.5-1.5-.35,12.47,1.5-1.5q-76.34,3.45-152.54,9.3l1.45,1.1-1.46-8.53c-.32-1.89-3.22-1.09-2.89.8Z"/><path d="M1318.81,352.84c11.2-6.77,25.65-17.79,26.3-32.06l-2.2,2.89c7.37-2.84,12.91-7.79,15.73-15.25l-2.89,2.2c6.57,0,9.68-7.84,6.59-13.16-4.39-7.56-17.12-7.39-24.64-8.13l2.9,3.79a18.86,18.86,0,0,0,1.18-10.06l-2.1,3.69c7.11-1.31,20.13-5.19,17.6-15.05-2.16-8.42-13.54-6.47-19.82-5.92l3,3c1.45-11.55-6.81-23.4-15.64-30-11.23-8.37-25.91-10.21-39.35-7.12-13.24,3-24.92,11-34,20.88-4.68,5.07-9.09,10.71-12,17s-3.33,11.79-2.64,18.48l1.49-2.59a48.7,48.7,0,0,0-13.17,9.46c-2.92,3-7.54,7.63-7.17,12.18.82,9.92,14,3.52,18.86,2l-2.31-5.48c.86-.4-.43.18-.67.19a15.43,15.43,0,0,0-2.94,1c-2.7.93-3,5,0,5.79l7.52,2-1.33-5c-4.54,5.83-.64,12.29,5.68,14.41l-1.32-5-.18.15,3.64-.47c-7.53-3.34-17,.8-18.38,9.34-1.68,10.55,9.43,17.82,18.77,14.49l-3.69-2.09c3.12,8.78,10,15,18.15,19.13l1.51-5.59q-21.52,2.31-43,5.34c-3,.42-2.75,5.18,0,5.79l3,.66v-5.79l-2.08.57a3.08,3.08,0,0,0-2.1,3.69c.49,2.84,1,5.69,1.46,8.53a3,3,0,0,0,2.89,2.2q76.2-5.85,152.54-9.3a3.08,3.08,0,0,0,3-3l.35-12.47a3,3,0,0,0-3-3q-28.55.41-57,2.1c-3.84.23-3.86,6.23,0,6q28.5-1.68,57-2.1l-3-3-.35,12.47,3-3q-76.34,3.45-152.54,9.3l2.9,2.21q-.73-4.28-1.46-8.53l-2.1,3.69,2.09-.57c2.76-.75,2.95-5.14,0-5.79l-3-.66v5.79q20.64-2.93,41.37-5.13c2.67-.29,4.45-4.12,1.52-5.59-6.72-3.39-12.8-8.25-15.4-15.55a3,3,0,0,0-3.69-2.1c-5.06,1.81-11.91-1-11.34-7.35.39-4.36,5.58-7.26,9.52-5.51a3.16,3.16,0,0,0,3.63-.46l.18-.16c1.78-1.59.69-4.34-1.32-5-1.23-.41-4.53-2.46-3-4.38,1.32-1.7,1.06-4.38-1.33-5l-7.51-2v5.79a52.87,52.87,0,0,0,5-1.81c3.1-1.42.91-6.49-2.31-5.49-1.55.49-3.07,1.06-4.6,1.61-2.06.73-8.4,3.58-5.24-1a41.83,41.83,0,0,1,15.94-13.29,2.91,2.91,0,0,0,1.49-2.59c-.61-5.9-.45-10.8,2.18-16.24a61.94,61.94,0,0,1,10.17-14.4c7.75-8.56,17.39-15.69,28.56-19,11.58-3.47,24.61-2.92,35.06,3.54,8.67,5.37,17.06,16.12,15.71,26.88a3,3,0,0,0,3,3c2.91-.25,9.88-2,12.47,0,3.64,2.76-1.15,5.9-3.79,7a40.18,40.18,0,0,1-8.05,2.21c-1.69.31-2.38,2.22-2.1,3.69.44,2.36-.39,4.7-1.18,6.88-.72,2,1.12,3.62,2.89,3.8a106.11,106.11,0,0,1,13.28,1.88c1.78.41,4.27.91,5.48,2.41.89,1.11,2.16,5-.71,5a3.08,3.08,0,0,0-2.89,2.2,19.32,19.32,0,0,1-11.55,11.07,3.13,3.13,0,0,0-2.2,2.89c-.54,11.71-14.27,21.4-23.33,26.87C1312.48,349.65,1315.5,354.84,1318.81,352.84Z"/><path class="d" d="M1494.66,291.76c-1.56-6.34-5.67-12.17-11.52-15.08a17.86,17.86,0,0,0-17.37.74q.46-12.82.6-25.65a327.89,327.89,0,0,0-85.15,4c.31,10.57,1,20.68,2,30.63,1.86,19.58,4.63,38.54,7.14,59.19.64,5.33,1.68,11.28,6.05,14.41,3,2.18,7,2.45,10.72,2.58a305.79,305.79,0,0,0,51.94-2.65q2.07-16.28,3.55-32.63a9.8,9.8,0,0,0,6.44,2.5,21.77,21.77,0,0,0,15.06-5.37,32.12,32.12,0,0,0,9-13.46A33,33,0,0,0,1494.66,291.76ZM1482.23,305a17,17,0,0,1-7.85,11.27c-3.24,2-7.56,2.88-11,1.45q1.11-13.74,1.8-27.51a12.1,12.1,0,0,1,12.69,2A14.09,14.09,0,0,1,1482.23,305Z"/><path d="M1497.56,291c-4-14.39-19.2-24.4-33.3-16.13l4.51,2.59q.46-12.82.6-25.65a3.08,3.08,0,0,0-3-3,337.71,337.71,0,0,0-85.95,4.12,3,3,0,0,0-2.2,2.89c1,30.74,5,61.53,9.39,92,.7,4.88,1.93,10,5.63,13.55,4.67,4.47,11.72,4.27,17.73,4.4a311.7,311.7,0,0,0,48.08-2.75,3.13,3.13,0,0,0,3-3q2.06-16.28,3.55-32.63l-5.12,2.12c8.57,7.07,21.31,2.17,28.1-5.13a38.28,38.28,0,0,0,9-33.34c-.8-3.78-6.59-2.18-5.79,1.59a32.3,32.3,0,0,1-4.89,24.24c-3.93,5.93-15,14.32-22.16,8.4a3,3,0,0,0-5.12,2.12q-1.5,16.35-3.55,32.63l3-3a311.67,311.67,0,0,1-42.3,2.82c-6.14,0-16.3,1.44-20.47-4.09-3.46-4.59-3.21-12.31-3.89-17.74-3.44-27.32-7.28-54.59-8.17-82.15l-2.2,2.89a332,332,0,0,1,84.35-3.9l-3-3q-.13,12.82-.6,25.65a3,3,0,0,0,4.52,2.59c10.74-6.3,21.51,1.92,24.48,12.54C1492.81,296.27,1498.6,294.69,1497.56,291Z"/><path d="M1479.34,304.15c-1.49,6.67-7.85,13-15.12,10.63l2.2,2.89q1.1-13.74,1.8-27.51l-2.2,2.9c8.32-3.16,14.18,3.95,13.21,11.89-.46,3.83,5.54,3.79,6,0,1.42-11.7-9.08-22.13-20.81-17.68a3.14,3.14,0,0,0-2.2,2.89q-.71,13.77-1.8,27.51a3.06,3.06,0,0,0,2.2,2.9c10.28,3.37,20.32-5,22.51-14.82C1486,302,1480.18,300.38,1479.34,304.15Z"/><path d="M1465.42,279.5c7-5,16.12-3.82,22.07,2.22,6.12,6.24,7.54,15.44,5.71,23.73-1.68,7.62-5.77,15.37-12.5,19.64a19.47,19.47,0,0,1-11.66,3.22c-7-.55-7.41-6.08-6.3-11.56l-2.2.9c9.32,6.8,21.67-2.88,23.19-12.7,1.77-11.35-9-20.64-19.77-15.84l2.26,1.3a31.11,31.11,0,0,1,.64-11.45c.45-1.88-2.44-2.68-2.9-.8a33.9,33.9,0,0,0-.74,12.25,1.52,1.52,0,0,0,2.25,1.29c9.21-4.12,17.43,5.27,15,14.23-2,7.3-11.3,14.32-18.42,9.13a1.5,1.5,0,0,0-2.21.89c-.78,3.87-1.57,8.47,1.14,11.81s7.34,3.86,11.31,3.45c10.87-1.12,18.68-10.11,22.28-19.83,3.84-10.37,3.31-22.78-4.45-31.24-6.77-7.39-18-9.14-26.22-3.23-1.56,1.12-.06,3.72,1.51,2.59Z"/><path class="d" d="M1381.22,255.78c.31,10.57,1,20.68,2,30.63,1.86,19.58,4.63,38.54,7.14,59.19.64,5.33,1.68,11.28,6.05,14.41,3,2.18,7,2.45,10.72,2.58a305.79,305.79,0,0,0,51.94-2.65q5-39,6.56-78.3.62-14.92.76-29.87A327.89,327.89,0,0,0,1381.22,255.78Z"/><path d="M1379.72,255.78c1,30.61,5,61.26,9.34,91.56.65,4.58,1.72,9.59,5.24,12.89,4.41,4.12,11.06,3.84,16.67,4a311.7,311.7,0,0,0,48.08-2.75,1.55,1.55,0,0,0,1.5-1.5,935.89,935.89,0,0,0,7.32-108.17,1.54,1.54,0,0,0-1.5-1.5,336.39,336.39,0,0,0-85.55,4.06c-1.9.34-1.09,3.23.8,2.89a333.75,333.75,0,0,1,84.75-4l-1.5-1.5a935.89,935.89,0,0,1-7.32,108.17l1.5-1.5a311.67,311.67,0,0,1-42.3,2.82c-6.7,0-17.4,1.42-21.76-4.83-3.53-5.06-3.36-12.63-4.1-18.5-3.44-27.32-7.28-54.59-8.17-82.15C1382.66,253.85,1379.66,253.84,1379.72,255.78Z"/><path d="M1388.11,263.48a323,323,0,0,1,75.65-5c1.93.1,1.92-2.9,0-3a326.45,326.45,0,0,0-76.44,5.14c-1.9.35-1.1,3.25.79,2.89Z"/><path d="M1393.85,356.92a288.47,288.47,0,0,0,66.27-3.91c1.9-.33,1.1-3.22-.79-2.89a285.6,285.6,0,0,1-65.48,3.8c-1.93-.11-1.92,2.89,0,3Z"/><path class="d" d="M836.63,489c-3.37,30.75-4.67,61.89-10.45,92.28-6.17-.32-17.27.32-23.44,0-9.07-29.17-19.81-64.46-33.89-91.57C768.85,489.7,797.37,482.84,836.63,489Z"/><path d="M835.13,489c-3.31,30.65-4.72,61.53-10.4,91.88l1.45-1.1c-7.81-.32-15.63.33-23.44,0l1.45,1.1c-9.68-31.15-19.07-62.82-34-91.93l-.9,2.2c21.52-5.11,45.35-4,67-.7,1.89.29,2.7-2.61.8-2.89-22.19-3.38-46.49-4.54-68.57.7a1.51,1.51,0,0,0-.9,2.2c14.85,28.88,24.13,60.32,33.74,91.22a1.53,1.53,0,0,0,1.44,1.1c7.81.33,15.63-.32,23.44,0a1.49,1.49,0,0,0,1.44-1.1c5.74-30.61,7.17-61.76,10.51-92.68C838.34,487.07,835.33,487.09,835.13,489Z"/><path class="o" d="M794.53,598.84l1.07,6.52a171.46,171.46,0,0,0,28.19,1.43,6.91,6.91,0,0,0,3.57-.78,4.72,4.72,0,0,0,1.94-3.27,13.87,13.87,0,0,0-.1-3.91Q812,597.6,794.66,598"/><path d="M793.09,599.23l1.07,6.53a1.52,1.52,0,0,0,1.44,1.1c9.2,1.18,18.9,2.15,28.19,1.43,5.7-.44,7.51-3.91,6.91-9.46a1.54,1.54,0,0,0-1.5-1.5q-17.25-1.19-34.54-.8c-1.93.05-1.94,3.05,0,3q17.28-.37,34.54.8l-1.5-1.5c.89,8.24-9.82,6.63-15.21,6.44-5.65-.19-11.28-.69-16.89-1.41l1.45,1.1L796,598.44c-.31-1.9-3.2-1.1-2.89.79Z"/><path class="e" d="M794.42,599.66c-.95-6,3-11.95,8.38-14.79s11.71-3.06,17.71-2.32c1.87.23,3.85.61,5.2,1.92,3.57,3.46,4.31,11.44,3.31,16.46-11.16,2.17-23.14.54-34.45-.52"/><path d="M795.92,599.66c-.77-7.9,5.36-13.62,12.65-15.3a32.61,32.61,0,0,1,10.29-.49c4.91.46,7.38,2.58,8.52,7.35.5,2.09,1.29,6.1,0,8s-8.72,1.3-10.92,1.29c-7.31,0-14.59-.89-21.86-1.59-1.92-.18-1.91,2.82,0,3,11.63,1.12,23.24,2.52,34.85.47a1.45,1.45,0,0,0,1.05-1c.8-4.84.7-10.36-1.55-14.84-2.51-5-7.37-5.59-12.54-5.77-11.2-.38-24.74,5.77-23.46,18.94.18,1.91,3.18,1.93,3,0Z"/><path d="M816.76,581.08c-.77-3.37-3.33-5.3-6.7-5.86-2.87-.47-8.1-.62-10.13,2a3.63,3.63,0,0,0,1.14,5.55c3.82,2.26,11.55-.09,15.6-.49a1.57,1.57,0,0,0,1.44-1.11,9,9,0,0,1,4.43-5.54l3.29-.91c1.48,2.49,1.38,3.86-.33,4.09-2.38,1.57-7.48,1.33-10.2,1.48-1.92.11-1.93,3.11,0,3,3.61-.2,21.66-1.82,15.5-9.62-4.95-6.29-13.95,1.6-15.58,6.71l1.45-1.1-5.64.56c-1.17.12-4.52.91-5.64.56l-1.21.05c0-2,.87-2.75,2.54-2.38,2.75-.92,6.47.84,7.15,3.78.43,1.89,3.32,1.09,2.89-.79Z"/><path d="M792.63,509.79a20,20,0,0,0,3.29,10.58c1.06,1.61,3.66.1,2.6-1.51a17,17,0,0,1-2.89-9.07c0-1.93-3-1.94-3,0Z"/><path d="M805,517.88l1.1,6.59c.32,1.9,3.21,1.09,2.89-.8l-1.09-6.59c-.32-1.9-3.21-1.1-2.9.8Z"/><path d="M797.33,533.81l3.3,9.89c.6,1.82,3.5,1,2.89-.8l-3.3-9.89c-.6-1.82-3.5-1-2.89.8Z"/><path d="M810.48,545l.57,10.44c.1,1.92,3.1,1.93,3,0L813.48,545c-.1-1.92-3.1-1.93-3,0Z"/><path d="M820.9,529.56V542.2a1.5,1.5,0,0,0,3,0V529.56a1.5,1.5,0,0,0-3,0Z"/><path d="M818.3,511.26,821,520.6c.54,1.85,3.44,1.07,2.89-.79l-2.72-9.35a1.5,1.5,0,0,0-2.89.8Z"/><path class="o" d="M756.47,400.56c-3.56,34.63.12,53.46,9.69,86.94a7,7,0,0,0,6.72,6.22A182.69,182.69,0,0,0,829.81,497c3.05-.3,6.64-1.08,7.79-3.92a8.6,8.6,0,0,0,.3-4c-1.24-15.65-3-14.83-4.29-30.49,16.82,13.21,22,13.91,38.87,27.12,14.27-22.15,37.58-28,63.27-33.85-1.75-10-35.65-55.9-56.39-61.41-9.62-2.55-19.79-1.43-29.67-.28l-94.35,10.92,1.45-2.47"/><path d="M755,400.56c-1.44,14.37-1.92,28.8-.17,43.17,1.71,14.06,5.28,27.8,9.13,41.41,1.68,6,3.25,8.87,9.49,10.22a179.61,179.61,0,0,0,24,3.48,184.27,184.27,0,0,0,25.74.21c4.53-.29,11.86.15,15-4s.73-12.43-.1-17.22c-1.11-6.44-2.39-12.72-2.94-19.25l-2.56,1.06c12.5,9.74,26.38,17.39,38.87,27.12a1.53,1.53,0,0,0,2.35-.3c14.2-21.46,38.71-27.75,62.38-33.16a1.54,1.54,0,0,0,1.05-1.85c-1.45-7.12-7-14.06-11.15-19.8a194.38,194.38,0,0,0-23.18-27.09c-6.78-6.51-14.68-13.47-24-15.79-8.62-2.14-17.65-1.4-26.37-.43-10.11,1.12-20.21,2.33-30.31,3.5l-66.83,7.74,1.29,2.26,1.45-2.47a1.5,1.5,0,0,0-2.59-1.52L754,400.36c-.52.9.13,2.39,1.3,2.26l55-6.37c18.19-2.11,36.85-5.66,55.17-5.81,13.15-.1,22.22,4.6,31.77,13.11a176.84,176.84,0,0,1,23.48,26c4.83,6.44,11.85,14.57,13.5,22.71l1.05-1.85c-24.55,5.62-49.48,12.35-64.17,34.55l2.36-.31c-12.5-9.73-26.38-17.39-38.87-27.12-.9-.71-2.68-.39-2.56,1.06a153.25,153.25,0,0,0,2.49,17.05c.64,3.26,1.14,6.54,1.48,9.85.16,1.53.7,3.47.4,4.94-1,5-4.87,4.85-8.57,5.23-17.65,1.8-37.42,1.24-54.63-3.42-5.55-1.5-5.82-5.6-7.21-10.62-1.1-3.93-2.17-7.88-3.17-11.84-1.77-7-3.34-14.15-4.44-21.34-2.45-15.91-2.09-31.94-.49-47.91.19-1.92-2.81-1.91-3,0Z"/><path class="c" d="M691,208.18a603,603,0,0,1,233.54-17.71c16.94,2.05,35.86,6.11,45,20.53,4.3,6.78,5.74,15,6.4,22.95,4.65,55.78-23.79,108.83-56,154.6-3.86,5.49-8,11.13-14,14.23-5.11,2.66-11,3.18-16.77,3.61a1060.34,1060.34,0,0,1-121,2c-3.09-.13-6.25-.28-9.11-1.44-4.4-1.79-7.53-5.69-10.39-9.49a422.84,422.84,0,0,1-68.34-136.67c-5.3-18.31-8.41-36,7.36-46.72"/><path d="M691.4,209.63a604.52,604.52,0,0,1,174.39-21.84q21.86.48,43.63,2.55c12.52,1.19,25.45,2.2,37.45,6.23,12.72,4.28,22.38,12.47,25.78,25.85,3.28,12.93,2.8,27.42,1.34,40.58-3,27.21-13,53.23-25.76,77.28-6.3,11.89-13.31,23.38-20.75,34.59-7.22,10.87-14.66,25.54-28.37,28.76-7.34,1.73-15.3,1.67-22.79,2.13s-15.2.85-22.81,1.16q-22.82.9-45.66.84-11.42,0-22.83-.32c-7.32-.18-15.43.45-22.63-1.08-7.57-1.61-11.83-8.74-16.09-14.56q-5.92-8.1-11.45-16.49a422.06,422.06,0,0,1-42-81.81c-5.21-13.66-10.14-27.68-13.42-41.94-3.08-13.41-3.27-27.42,9-36.19,1.56-1.11.06-3.72-1.51-2.59-20.89,14.91-10.2,42.74-3.68,62.59a425.15,425.15,0,0,0,35.28,79.16,420.83,420.83,0,0,0,24.17,37.37c3.45,4.77,6.88,10.28,11.58,13.93,5,3.87,10.82,3.95,16.86,4.17q50.1,1.9,100.23-.95c13-.74,29.51.67,40.1-8.22,4.75-4,8.24-9.31,11.75-14.36q6.24-9,12.11-18.16C950.76,344,964.24,318,971.79,290.15a170.19,170.19,0,0,0,6.12-41.6c.22-13-.13-28.39-7.87-39.49-14.08-20.21-45.32-20.48-67.24-22.31a604.67,604.67,0,0,0-189.19,14.07q-11.55,2.73-23,5.92a1.5,1.5,0,0,0,.8,2.89Z"/><path class="e" d="M920.84,298.18a3.46,3.46,0,0,1,4.33,3.26c.55,26.33-7.35,51.91-19.57,75.37-2.72,5.23-5.88,10.46-10.69,13.85-5.77,4.07-82.88,6.08-113.54-.14-5.39-1.09-11-2.44-15.14-6.06-4-3.45-6.05-8.51-8-13.38-8.76-21.79-17.66-44.46-17.16-67.81a3.46,3.46,0,0,1,3.91-3.35C764.94,302.55,860.33,313.79,920.84,298.18Z"/><path d="M920.84,299.68c6.43-.45,0,31.45-.8,34.94a170.35,170.35,0,0,1-11,31.72c-3.23,7.09-7.71,19.73-15.32,23.26-2.71,1.25-6.33,1.33-9.23,1.63-26.36,2.81-53.58,2.47-80,.59-13.61-1-34.34-.86-41.74-14.27-5.3-9.62-8.86-20.92-12.36-31.3-3.7-10.94-6.69-22.25-7.58-33.8-.16-2-.92-5.4-.29-7.34.3-1,2.09-3.38,2.85-3.63.24-.08.64.14.91.12,1.68-.14,3.77.47,5.44.67q7.15.86,14.33,1.57Q787.34,306,808.71,307c37.31,1.77,76.1,1.85,112.53-7.4,1.87-.47,1.08-3.37-.79-2.89-37,9.4-76.54,9.08-114.44,7.15q-22.75-1.15-45.43-3.61c-4.6-.49-9.19-1.14-13.79-1.61-8.7-.89-7.48,7.2-7,13.79.91,11.83,3.9,23.39,7.68,34.6,3.59,10.62,7.21,22.17,12.67,32,7.6,13.67,25.9,14.23,39.85,15.41,16,1.36,32,1.64,48.05,1.47,13.15-.14,26.47-.36,39.53-2.07,3.94-.52,7.17-.95,10.23-3.64,8.65-7.63,13.32-20.55,17.5-31a159.44,159.44,0,0,0,10.17-37.82,121.62,121.62,0,0,0,1.18-18.19c-.07-3.86-1.48-6.86-5.85-6.55C918.93,296.81,918.91,299.81,920.84,299.68Z"/><path class="d" d="M778.72,347.61c-1.78,7-6.38,15-2.55,22.18,2.45,4.59,8.52,7.32,13.2,4.24,5-3.29,5.41-11.06,4.83-16.37-.71-6.41-4.79-12.15-11.7-12-3.21.05-3.22,5.05,0,5,9.74-.15,8.66,20.94,1.41,19.61-8.79-1.63-1.53-16.71-.37-21.29.79-3.12-4-4.46-4.82-1.33Z"/><path class="d" d="M810.28,349.44c-4.18,6.83-8.46,15.44-3.13,22.88,4.16,5.81,11.72,6.06,16.26.59s6.84-15.24,3.13-21.6c-3.61-6.17-11.63-7.12-16-1.32-1.93,2.58,2.41,5.07,4.31,2.53,2.7-3.61,6.53-.53,7.72,2.22a11.85,11.85,0,0,1,.3,7.17c-.62,3.09-2.13,8.1-5.34,9.57-4.44,2-7.76-2.83-8-6.71-.25-4.61,2.73-9.07,5-12.81,1.68-2.75-2.64-5.27-4.32-2.52Z"/><path class="d" d="M847,349.72c-4.52,6.6-9.13,15.12-3.62,22.57,4.3,5.82,11.83,5.38,16-.28s6.72-15.74,2.14-21.92c-3.73-5-11.39-5.31-14.61.38-1.59,2.8,2.73,5.33,4.32,2.52,3.25-5.73,7.75,1.81,7.71,5.17,0,3.56-1.56,9-4.14,11.56-5.12,5.14-9.33-1.7-8.83-6.43.45-4.11,3.09-7.72,5.37-11,1.82-2.66-2.51-5.17-4.32-2.53Z"/><path class="d" d="M884.88,347.47,873.67,374c-1.24,2.93,3.07,5.48,4.31,2.53L889.2,350c1.23-2.93-3.07-5.48-4.32-2.52Z"/><text class="p" transform="translate(757.28 327.59) rotate(9.71)"> </text><text class="p" transform="translate(763.4 328.7) rotate(8.17)">G</text><text class="p" transform="matrix(0.99, 0.11, -0.11, 0.99, 778.57, 330.86)">R</text><text class="p" transform="translate(792.74 332.43) rotate(4.82)">E</text><text class="p" transform="translate(804.54 333.42) rotate(3.4)">E</text><text class="p" transform="translate(816.33 334.14) rotate(1.77)">N</text><text class="p" transform="translate(830.62 334.54) rotate(0.41)"> </text><text class="p" transform="matrix(1, -0.02, 0.02, 1, 836.85, 334.62)">P</text><text class="p" transform="translate(849.68 334.42) rotate(-2.75)">E</text><text class="p" transform="translate(861.65 333.87) rotate(-4.91)">A</text><text class="p" transform="translate(876.35 332.6) rotate(-7.6)">C</text><text class="p" transform="translate(890.98 330.62) rotate(-10.38)">E</text><path class="e" d="M920.58,292.35a3.66,3.66,0,0,1,4.58,3.46c.59,27.93-7.78,55.05-20.74,79.94-2.89,5.54-6.24,11.08-11.34,14.68-6.12,4.31-87.89,6.45-120.4-.15-5.72-1.16-11.67-2.58-16.06-6.42-4.19-3.66-6.41-9-8.49-14.2-9.29-23.1-18.73-47.14-18.2-71.91a3.66,3.66,0,0,1,4.14-3.54C755.25,297,856.41,308.91,920.58,292.35Z"/><path d="M920.58,293.85c6.92-.47.17,33.13-.65,36.67a179.73,179.73,0,0,1-11.34,33.21c-2.14,4.75-4.39,9.48-7,14-2.25,4-5.35,9.53-9.67,11.59-2.71,1.3-6.38,1.4-9.3,1.72-27.91,3.08-56.79,2.68-84.76.74-14.27-1-36.57-.82-44.65-14.57-5.76-9.81-9.36-21.83-13-32.56-4-11.6-7.26-23.57-8.37-35.82-.37-4-1.88-12.56,3.57-13,1.78-.13,3.9.49,5.68.71q7.74.92,15.51,1.7,22.42,2.25,44.95,3.34c39.6,1.89,80.78,2,119.44-7.83,1.87-.47,1.08-3.37-.8-2.89-39,9.92-80.69,9.63-120.67,7.62q-24.25-1.21-48.43-3.81c-4.91-.53-9.8-1.09-14.69-1.71-9.23-1.18-8.24,6.84-7.71,14,.92,12.53,4,24.79,8,36.68,3.78,11.25,7.66,23.21,13.23,33.72,8,15.13,27.7,15.73,42.9,17,17,1.43,34.11,1.72,51.16,1.52,13.77-.16,27.72-.39,41.39-2.19,4.41-.59,7.81-1.11,11.17-4.2,8.57-7.91,13.29-20.66,17.6-31.22a168.37,168.37,0,0,0,11.23-40.9,128.83,128.83,0,0,0,1.31-19.82c-.08-4-1.61-7.06-6.11-6.75C918.67,291,918.65,294,920.58,293.85Z"/><path class="d" d="M770,344.81c-1.87,7.38-6.75,15.84-2.72,23.41,2.6,4.88,9.06,7.7,13.94,4.32,5.11-3.54,5.51-11.54,4.9-17.11-.74-6.71-5-12.72-12.25-12.61-3.22,0-3.23,5,0,5,8.63-.13,10.7,18.81,3.21,20.67-6.39,1.6-6.69-6.88-5.78-11,.87-3.87,2.55-7.54,3.52-11.39.79-3.12-4-4.45-4.82-1.33Z"/><path class="d" d="M803.46,346.79c-4.33,7.08-8.87,16-3.52,23.85,4.39,6.42,12.61,6.65,17.41.61s7-16.36,2.71-23.05c-3.87-6-12-6.69-16.29-.82-1.89,2.61,2.44,5.11,4.32,2.52,4.56-6.3,9.4,3.19,9.21,7.24s-1.87,10.08-5.38,12.47c-5.58,3.8-9.68-2.95-9.38-7.9.28-4.56,2.92-8.6,5.24-12.39,1.69-2.76-2.64-5.27-4.32-2.53Z"/><path class="d" d="M842.45,347.1c-4.62,6.73-9.53,15.49-4.2,23.29,4.18,6.13,12,6.49,16.67.71s7.27-16.11,3.21-22.78c-3.59-5.9-12.2-6.79-15.8-.43-1.59,2.8,2.73,5.32,4.32,2.52,2-3.55,6-1.87,7.52,1,1.21,2.3,1,5.19.55,7.63-.67,3.35-2.29,8.92-5.58,10.68-5.85,3.16-8.87-5.14-8-9.41.83-4,3.35-7.44,5.59-10.71,1.83-2.66-2.5-5.17-4.31-2.52Z"/><path class="d" d="M882.57,344.7l-11.89,28.17c-1.23,2.93,3.07,5.48,4.32,2.53l11.89-28.17c1.24-2.93-3.07-5.49-4.32-2.53Z"/><path class="d" d="M780.66,318.89a2.12,2.12,0,0,1,1.9,2.55l-.23,2c-.5,4.24-4.44,4.86-7.07,4.55-5-.58-7.19-4.59-6.69-8.86s3.58-8.17,8.44-7.6c3.53.41,5.81,2.8,5.64,4.29a1.35,1.35,0,0,1-1.44,1.27c-.3,0-.62-.09-1.35-1.05a3.92,3.92,0,0,0-3-1.78c-3.33-.38-5.12,2.4-5.44,5.11-.36,3.12,1.27,5.46,4.25,5.8s3.83-1.65,3.88-2.07l.13-1.1a.47.47,0,0,0-.46-.57l-3.51-.41a1.38,1.38,0,0,1-1.11-1.57,1.21,1.21,0,0,1,1.33-1.13Z"/><path class="d" d="M787.06,328.05a1.19,1.19,0,0,1-1.36,1.05,1.2,1.2,0,0,1-1.19-1.32l.89-9.93a1.21,1.21,0,0,1,1.39-1.08A1.2,1.2,0,0,1,788,318.2l-.06.62a3.65,3.65,0,0,1,3.43-1.64c1,.09,2.28.65,2.18,1.79a1.12,1.12,0,0,1-1.27,1.09c-.22,0-1.08-.26-1.26-.27-1.4-.13-3.41,2.69-3.45,3.21Z"/><path class="d" d="M796.71,324.77c0,.69.09,2.76,2.2,2.91a1.9,1.9,0,0,0,1.82-1c.53-.67.82-.81,1.38-.77a1.24,1.24,0,0,1,1,1.4c-.1,1.48-2,3-4.5,2.8-1.74-.12-4.93-1.26-4.58-6.32.32-4.69,3-6.19,5.28-6a4.67,4.67,0,0,1,4.24,5.2c-.1,1.44-.53,2.21-1.61,2.14Zm3.78-2.11c.42,0,.53-.06.54-.22a2,2,0,0,0-1.82-2.16c-1.7-.12-2.17,1.68-2.28,2.14Z"/><path class="d" d="M807.61,325.46c0,.68.15,2.75,2.28,2.85.66,0,1.13-.12,1.79-1,.51-.67.8-.82,1.36-.79a1.23,1.23,0,0,1,1.08,1.37c-.07,1.48-2,3-4.43,2.9-1.75-.08-5-1.15-4.73-6.22.22-4.69,2.89-6.25,5.15-6.14a4.66,4.66,0,0,1,4.36,5.1c-.07,1.44-.49,2.23-1.57,2.18Zm3.74-2.2c.42,0,.52-.07.53-.23a2,2,0,0,0-1.87-2.12c-1.7-.08-2.13,1.73-2.23,2.18Z"/><path class="d" d="M826.23,330a1.29,1.29,0,0,1-1.32,1.29,1.31,1.31,0,0,1-1.23-1.37l.15-6.27a1.93,1.93,0,0,0-2-2.24,2.77,2.77,0,0,0-2.84,2.49l-.14,5.93a1.28,1.28,0,1,1-2.56-.08l.17-7.64c0-.36-.12-1.89-.11-2.21a1.18,1.18,0,0,1,1.31-1.15,1.67,1.67,0,0,1,1.47,1.32,4.21,4.21,0,0,1,3.44-1.21,3.59,3.59,0,0,1,3.81,3.72Z"/><path class="d" d="M828.76,320.37c0-.63,0-1.41,1.08-1.41s1.24.65,1.31,1.35a3.45,3.45,0,0,1,3.06-1.38c3.55,0,5,3.05,5,6.23s-1.3,6.13-4.78,6.14a4.56,4.56,0,0,1-3.06-1v2a1.29,1.29,0,0,1-1.21,1.33,1.31,1.31,0,0,1-1.35-1.27Zm2.6,5.54a2.55,2.55,0,0,0,2.72,2.73c1.2,0,2.55-.5,2.53-3.64a4.2,4.2,0,0,0-.9-2.81,2.33,2.33,0,0,0-1.77-.57,2.65,2.65,0,0,0-2.59,2.84Z"/><path class="d" d="M843.36,325.92c.09.68.38,2.73,2.5,2.66.66,0,1.12-.22,1.71-1.14.46-.72.73-.89,1.29-.91a1.24,1.24,0,0,1,1.19,1.29c.05,1.48-1.72,3.17-4.18,3.25-1.75.06-5-.75-5.22-5.83-.16-4.69,2.37-6.46,4.64-6.53a4.67,4.67,0,0,1,4.76,4.73c0,1.45-.31,2.26-1.39,2.3Zm3.55-2.49c.42,0,.52-.12.52-.28a2,2,0,0,0-2-2c-1.7.06-2,1.89-2,2.36Z"/><path class="d" d="M862.1,326.59a4.15,4.15,0,0,0,.47,1.62,2.66,2.66,0,0,1,.25.85,1.19,1.19,0,0,1-1.23,1.18c-1,.07-1.25-.68-1.4-1.24a5.75,5.75,0,0,1-3.76,1.59c-2.91.19-4.62-1.53-4.77-3.77-.11-1.77.82-4.26,5.28-4.54a7,7,0,0,1,2.35.21c-.06-.58-.19-2-2.68-1.86a3.55,3.55,0,0,0-1.89.6c-1,.69-1.16.76-1.46.78a1.33,1.33,0,0,1-1.34-1.28c-.09-1.32,2.07-2.41,4.66-2.57,5-.32,5.19,3.22,5.29,4.83Zm-2.64-1.36c0-.34-1-.58-2.38-.49-.7.05-2.91.19-2.79,1.93.07,1.14,1.08,1.46,2.38,1.37,1.9-.12,2.88-1.45,2.84-2Z"/><path class="d" d="M873,320a1.27,1.27,0,0,1-1.18,1.48c-.42.05-.69,0-1.37-.77a2,2,0,0,0-1.89-.86c-1.72.16-2.08,2.27-1.93,3.75s1,3.45,2.81,3.27c.6-.06,1.07-.18,1.68-1.17.38-.64.68-.87,1.18-.92a1.2,1.2,0,0,1,1.38,1.16c.09.88-1.33,3.33-4,3.59s-5.26-1.68-5.65-5.71c-.22-2.28.26-6.21,4.57-6.63C870.34,317,872.83,318.27,873,320Z"/><path class="d" d="M878,323.33c.15.66.64,2.68,2.75,2.4.66-.08,1.09-.32,1.59-1.3.38-.76.64-.95,1.2-1a1.24,1.24,0,0,1,1.3,1.16c.2,1.47-1.4,3.33-3.84,3.65-1.73.23-5.09-.26-5.76-5.29-.62-4.65,1.72-6.66,4-7a4.68,4.68,0,0,1,5.2,4.25c.19,1.43-.08,2.28-1.16,2.42Zm3.29-2.83c.42-.05.5-.17.48-.32a2,2,0,0,0-2.21-1.75c-1.69.22-1.79,2.07-1.81,2.54Z"/><path class="d" d="M839.35,149.61c11.72,4,14.38,23.19,13.21,33.68-1.64,14.63-20.68,24.4-34,16.82-6.6-3.75-6.66-14.62-6.56-21.54.07-4.59,1-18.13,6.54-19.65C818.5,158.92,828.68,146,839.35,149.61Z"/><path d="M839,151.05c11.33,4.42,13.87,22.5,12,33-2.32,13-19.4,21.56-31.11,15-6.25-3.48-6.38-12.06-6.39-18.35,0-5,.23-10.18,1.75-15,1.18-3.7,3.81-5.42,6.4-8,4.53-4.6,10.67-8.6,17.36-6.69a1.5,1.5,0,0,0,.8-2.89c-9.86-2.81-16.7,4.61-23.41,10.16-7.27,6-6.57,21.32-5.52,29.74.65,5.14,2.28,10.51,6.94,13.34s11,3.4,16.34,2.26c11.42-2.41,19.72-11.68,20.18-23.33s-2.42-27.45-14.53-32.17C838,147.46,837.17,150.36,839,151.05Z"/><path class="o" d="M830.35,169.5a120.78,120.78,0,0,0-3.81,13.76,6.67,6.67,0,0,0,.08,4.24c.89,1.82,3.12,2.45,5.09,2.9,2.18.49,4.7.92,6.47-.46,1.57-1.23,1.92-3.47,1.79-5.46-.38-6-3.93-11.29-7.35-16.24C832.62,168.24,831.21,167,830.35,169.5Z"/><path d="M828.9,169.1a121.25,121.25,0,0,0-3.64,13c-.53,2.55-1,5.14.87,7.28,2.9,3.38,11.15,4.48,14,.64,3.69-4.94-.26-13-2.9-17.44-1.71-2.87-5.31-9.52-8.2-3.82-.88,1.72,1.71,3.24,2.59,1.51-.08-1.11.1-1.11.53,0l.85,1.26c.82,1.29,1.67,2.55,2.4,3.89a26.34,26.34,0,0,1,2.27,5.12c1,3.43,1.4,4.63-1.25,7-3.12,2.81-5.05,2-7-1.37-1.68-2.87-1.32-3.37-.57-6.36.83-3.34,1.84-6.63,2.92-9.89C832.4,168.06,829.51,167.27,828.9,169.1Z"/><path class="e" d="M797.86,107.15c-10.43-.17-21.06,4.77-26.77,13.49s-5.77,21.11.7,29.29,19.35,10.81,28,5c-5-4.1-13.17,2.31-12.31,8.72s7.31,10.69,13.64,12c15.83,3.35,33.23-8.58,35.8-24.56-1.29,8.83,10.26,15.08,18.71,12.19s13.72-11.15,17.83-19.07c5.2-10,9.74-21.29,7.2-32.27s-15.24-20-25.24-14.83c5,2.33,10.91-3.92,9.49-9.27s-7.68-8.28-13.17-7.61S841.5,84.34,837.36,88c4.71-6.5.31-16.48-6.94-19.93s-15.89-2-23.45.72C800.78,71,794.7,74.08,790.38,79s-6.62,12-4.56,18.27S795,108.07,801.29,106"/><path d="M797.86,105.65c-17.84.13-34.61,13.8-32.27,32.8,2,16.39,20.41,26.74,35,17.78a1.52,1.52,0,0,0,0-2.59c-5.76-3.84-13.15,1-14.44,7.24-1.69,8.25,7,14.38,13.93,16.09,17.05,4.19,35.15-8.55,38.33-25.44l-2.95-.4c-.77,9.4,9.32,15.4,17.84,14.25,12-1.6,18.88-14.67,23.5-24.39,5.23-11,9.56-25.2,2.34-36.34-5.26-8.1-15.22-13-24.44-8.8-1.26.58-.76,2.37.36,2.74,8.78,2.93,14.67-8.47,9.27-15.08-7.88-9.63-20.67-2.91-28,3.43l2.35,1.82c4.58-7.2,1-16.63-5.82-21-9.73-6.25-23.18-2.35-32.71,2.31C791,74.52,782.4,83.36,783.67,94.38c1,8.72,9.3,15.32,18,13.09,1.86-.48,1.07-3.37-.8-2.89-9.44,2.41-15.8-7.29-13.92-15.76,1.82-8.22,8.85-13.62,16.16-16.9,7.87-3.53,18.29-6.55,26.53-2.55,6.43,3.13,10.5,11.42,6.4,17.88-1,1.51,1.12,2.88,2.36,1.81,4.84-4.17,11.28-8.83,18.07-7a9.64,9.64,0,0,1,6.58,5.22c1.88,4.46-2.39,10-7.23,8.39l.35,2.74c8.32-3.81,17.42,2,21.35,9.42,5.25,9.93,1.11,22.24-3.35,31.62-3.66,7.69-8.17,16.8-16,21-7.42,4-20.64,1-19.79-9.38.14-1.67-2.63-2.07-2.94-.4A30.09,30.09,0,0,1,812,174.2c-6,1.23-12.73.51-17.85-3.09-3.53-2.46-6.54-7-4.49-11.34,1.63-3.5,5.9-5.87,9.39-3.54v-2.59c-13.83,8.51-30.43-2.71-30.67-18.15-.25-16.19,14.34-26.73,29.48-26.84a1.5,1.5,0,0,0,0-3Z"/><path d="M813.09,113.51a19.58,19.58,0,0,0-10.35-3.25c-1.93-.06-1.93,2.94,0,3a16.5,16.5,0,0,1,8.83,2.84c1.62,1.07,3.12-1.53,1.52-2.59Z"/><path d="M811.44,117.3a15.33,15.33,0,0,0-9.94,1.33c-1.73.86-.21,3.44,1.52,2.59a11.87,11.87,0,0,1,7.62-1c1.89.36,2.69-2.53.8-2.9Z"/><path d="M851.16,134.27l7.59-4.27c1.68-.94.17-3.53-1.52-2.59l-7.59,4.27a1.5,1.5,0,0,0,1.52,2.59Z"/><path d="M853.88,139.17a22.21,22.21,0,0,1,9.09-.9c1.92.2,1.9-2.8,0-3a24.46,24.46,0,0,0-9.88,1c-1.84.58-1.06,3.47.79,2.9Z"/><path d="M807.84,157.29,802.63,162c-1.43,1.3.69,3.42,2.12,2.12l5.22-4.74c1.43-1.3-.7-3.42-2.13-2.12Z"/><path d="M813.15,159.14l-1.66,4.26a1.5,1.5,0,1,0,2.89.8l1.66-4.27a1.5,1.5,0,0,0-1-1.84,1.53,1.53,0,0,0-1.85,1Z"/><path d="M821.16,157.4a13.76,13.76,0,0,0,1,6.8,1.57,1.57,0,0,0,1.85,1.05,1.51,1.51,0,0,0,1-1.85,11.85,11.85,0,0,1-.89-6c.2-1.92-2.8-1.9-3,0Z"/><path d="M827.07,89.64a15.69,15.69,0,0,0-3.4-7.24c-1.22-1.5-3.33.64-2.12,2.12a12.71,12.71,0,0,1,2.63,5.92c.33,1.9,3.23,1.09,2.89-.8Z"/><path d="M823.18,89.71l-5-2.37c-1.74-.83-3.26,1.76-1.52,2.59l5,2.37c1.74.83,3.26-1.76,1.52-2.59Z"/><path d="M816.33,92.13l-8.78,1.64c-1.9.35-1.1,3.24.79,2.89L817.12,95c1.9-.36,1.1-3.25-.79-2.9Z"/><path d="M843.49,129a52.08,52.08,0,0,1,20.36-8.72c1.89-.38,1.09-3.27-.8-2.9a54.38,54.38,0,0,0-21.07,9c-1.57,1.11-.07,3.71,1.51,2.6Z"/><path d="M821.27,123.67a46.71,46.71,0,0,0-25.9,4.26c-1.75.83-.23,3.41,1.51,2.6a43.89,43.89,0,0,1,24.39-3.86c1.91.23,1.89-2.77,0-3Z"/><path class="c" d="M691,208.18c-15.78.59-30.86,14.74-34.43,30.13s1.32,31.79,9.92,45c5.83,9,13.24,16.73,21.18,23.94A161.3,161.3,0,0,1,726.57,224a156,156,0,0,0-17.88-9.93"/><path d="M691,206.68c-20.2,1.26-35.78,19.51-37,39.11-1.58,25.28,15,46.45,32.61,62.56.75.68,2.33.53,2.51-.66a161.65,161.65,0,0,1,38.51-82.58,1.52,1.52,0,0,0-.3-2.36,166.77,166.77,0,0,0-17.88-9.94c-1.74-.82-3.26,1.77-1.51,2.59a167.74,167.74,0,0,1,17.88,9.94l-.31-2.36a164.35,164.35,0,0,0-39.28,83.91l2.5-.66c-15.92-14.58-30.9-32.82-31.78-55.42-.78-19.68,13.31-39.84,34-41.13,1.92-.11,1.93-3.12,0-3Z"/><path d="M816.61,255.37a1.5,1.5,0,0,0,0-3,1.5,1.5,0,0,0,0,3Z"/><path class="d" d="M816.61,253.87c-46.58,19.68-86.05-27.21-86.05-27.21-1.2-.81-2.54-1.69-4-2.62a161.3,161.3,0,0,0-38.9,83.25c3.79,3.44,7.69,6.75,11.61,10,31.51,26.28,73.5,37.37,111.18,37.29"/><path d="M816.21,252.42c-21.15,8.65-43.24,4.21-62.1-7.76a110.08,110.08,0,0,1-17.56-13.9c-3.19-3.1-5.43-5.57-9.22-8a1.53,1.53,0,0,0-1.82.23,163.51,163.51,0,0,0-25.74,39.1,165.72,165.72,0,0,0-8,20.51c-2.32,7.4-5,15.7-5.45,23.48-.17,2.84,1.65,3.55,3.84,5.47,3.47,3,7,6,10.57,8.9A149,149,0,0,0,719.27,333a170.42,170.42,0,0,0,41.36,16.74,196.65,196.65,0,0,0,49.83,6.37,1.5,1.5,0,0,0,0-3c-28.15-.05-56.55-5.87-81.82-18.5-13.35-6.66-25.12-15.37-36.33-25.18-2-1.74-2.84-2.34-2.67-5a39.1,39.1,0,0,1,.91-4.9q1.08-5.31,2.5-10.52a159.45,159.45,0,0,1,34.58-63.87l-1.81.23c4.13,2.67,7,6.07,10.58,9.4a111.65,111.65,0,0,0,19,14.2c18.91,11.16,40.94,14.85,61.64,6.37,1.77-.72,1-3.62-.79-2.89Z"/><path class="d" d="M959.69,230.89c-.85-14.32-4.32-19.81-11.57-32a126.47,126.47,0,0,0-18.75-.61s-201.61,17-295,55.6c0,0-23.58,26.68-14.16,30.44s33.61,10,40.3-22.84c6.37,13.19,23,17,37.48,19.28,21.82,3.36,44,6.51,65.91,4.09s31.24-7.66,45.69-24.35c0,0,33.88,63.1,126.12,63.38a115.93,115.93,0,0,0,15.81-29.56C958.87,274.13,961,252.31,959.69,230.89Z"/><path d="M961.19,230.89c-.73-10.72-3.93-19.44-9.32-28.64-.87-1.48-1.7-4.07-3.35-4.82-1.81-.82-5-.48-6.92-.58a105,105,0,0,0-12.42-.06c-5.38.34-10.77,1-16.14,1.52q-43.57,4.33-87,10.47C786.59,214.35,747.19,221,708.34,230c-18.13,4.21-36.17,9-53.82,14.86q-5.58,1.86-11.08,3.9c-3.05,1.14-7.55,2.06-10.1,4.09-3.38,2.69-6.2,7.5-8.68,11-3.27,4.57-9,11.81-8,17.89.77,4.93,8.21,6,12.21,6.65,6.34,1.1,13,.67,18.72-2.58,8.6-4.92,12.46-14.67,14.45-23.89l-2.74.36c5.9,11.37,18.23,16,30.09,18.49A312.63,312.63,0,0,0,739.68,287c14.48.62,30.35.25,44.14-4.79,11-4,19.28-12,26.87-20.67l-2.36-.31c7.49,13.88,20.2,25.73,32.71,34.95a145.67,145.67,0,0,0,44,21.91,167.52,167.52,0,0,0,28.81,6q8.46,1,17,1.23c1.75.05,4.41.69,5.94-.37,2.09-1.44,3.89-5.47,5.22-7.6,16.11-25.72,20.79-56.56,19.16-86.44-.11-1.92-3.11-1.94-3,0,1.44,26.42-2,53.53-14.34,77.24q-2.05,3.93-4.41,7.68c-1.32,2.12-2.82,5.66-5.33,6.55-2,.72-5.8-.14-8-.25q-4.62-.24-9.22-.71a164.42,164.42,0,0,1-29.75-5.82C861,307.88,837,293,819.56,271.94a77.2,77.2,0,0,1-8.64-12.21,1.51,1.51,0,0,0-2.35-.31c-7.21,8.26-15.05,16.06-25.54,19.91-13,4.75-27.75,5.21-41.4,4.76a332.44,332.44,0,0,1-48-5.59c-12.17-2.2-25.66-6-31.78-17.78a1.51,1.51,0,0,0-2.74.36c-1.88,8.71-5.41,18.16-13.82,22.5-5.24,2.7-11.39,2.79-17.06,1.6a27.67,27.67,0,0,1-6.62-1.94c-2.66-1.36-2.25-3.27-1.33-5.91,2.14-6.08,6.53-11.65,10.46-16.66,1.26-1.6,2.6-3.78,4.18-5.09s4.3-2.05,6.43-2.86c7-2.7,14.18-5.14,21.38-7.4,16.49-5.18,33.26-9.47,50.11-13.3C776.36,217.55,841.27,208.7,906,202c7.24-.75,14.49-1.53,21.74-2.11a107,107,0,0,1,16.31.1c3.82.29,4.5,2.54,6.29,5.65,1.3,2.27,2.58,4.56,3.66,7a51.92,51.92,0,0,1,4.15,18.28C958.32,232.8,961.32,232.82,961.19,230.89Z"/><path class="c" d="M948.12,198.88c7.25,12.2,10.72,17.69,11.57,32,1.27,21.42-.82,43.24-8.13,63.42a115.93,115.93,0,0,1-15.81,29.56h1.82C1025.78,323.35,1043.18,209.27,948.12,198.88Z"/><path d="M946.83,199.63c4.41,7.42,8.87,14.72,10.46,23.33,2.06,11.2,1.58,23.32.61,34.61-2,23.57-9.42,46.36-23.44,65.54a1.51,1.51,0,0,0,1.29,2.26c29.2.14,58.54-12.92,71.55-40.3,10.77-22.65,7.1-50.12-11.3-67.69-12.93-12.34-30.44-18-47.88-20-1.91-.22-1.89,2.78,0,3,27.27,3.13,54.81,17.5,61.11,46.29,5.19,23.66-6.29,48.25-25.71,62-14,9.85-30.85,13.82-47.77,13.74l1.3,2.26c14.34-19.62,21.79-43,23.85-67.06,1-11.38,1.34-23.43-.6-34.74-1.56-9.13-6.21-16.86-10.88-24.71A1.5,1.5,0,0,0,946.83,199.63Z"/><path class="d" d="M810.08,354.87c47.91-31,80-58.13,91.08-114.56,1.86-9.45,2.87-19.32.39-28.63s-9-18-18.21-20.81a24.27,24.27,0,0,0-9.26,20.92C822.4,220,789,237.35,763.2,288.06"/><path d="M810.84,356.17C836.48,339.55,862.31,321.45,880,296a138.55,138.55,0,0,0,19.15-40.87c4.71-16.37,9.35-36.54.42-52.29a30.74,30.74,0,0,0-7.94-9.3c-2.12-1.63-6.22-4.7-9-4-3.13.8-6.6,7.2-7.78,9.84a26.41,26.41,0,0,0-2.22,12.37l1.11-1.45c-23.06,3.73-46.25,9.73-66,22.69-20.29,13.31-34.81,32.91-45.79,54.27-.88,1.71,1.71,3.23,2.59,1.51C775.42,267.55,789.85,248,810.2,235c19.33-12.39,41.86-18.11,64.28-21.73a1.5,1.5,0,0,0,1.1-1.45,22.82,22.82,0,0,1,6.07-17.35c2.19-2.39,3.51-1.51,6.12.08,7.06,4.32,11.43,12.22,12.94,20.19,3,16-2.07,33.95-7.47,49-8.82,24.56-24.79,44.9-44.6,61.6-12.36,10.42-25.77,19.5-39.32,28.28-1.61,1-.11,3.64,1.52,2.59Z"/><path class="d" d="M872.21,488.49c-5,24.15-9.26,45.19-19.34,67.7a97,97,0,0,1,13.46,13c28.88-30.35,58.86-62.64,68.95-103.3,1.23-4.94,1.9-10.83-1.62-14.5a13.64,13.64,0,0,0-5.79-3.2,42.56,42.56,0,0,0-55.66,40.27"/><path d="M870.76,488.09c-4.75,23-9.67,45.81-19.19,67.35a1.53,1.53,0,0,0,.24,1.81,106.25,106.25,0,0,1,13.46,13,1.52,1.52,0,0,0,2.12,0c23-24.14,46.58-49.13,60.71-79.72a134.92,134.92,0,0,0,8.22-22.64c1.42-5.46,2.83-12.29-1.17-17s-12.32-5.85-18.26-6.12a45.33,45.33,0,0,0-20.95,4.16c-15.32,7.08-24.83,22.89-25.23,39.57-.05,1.93,2.95,1.93,3,0,.46-19.08,13.63-35.83,32.47-39.85,7.47-1.59,24.71-2.51,28.05,6.61,1.56,4.22-.09,9.33-1.23,13.46s-2.55,8.37-4.13,12.44c-13.16,33.92-38.93,61.07-63.6,87h2.12a106.25,106.25,0,0,0-13.46-13l.23,1.82c9.63-21.79,14.68-44.84,19.49-68.06.39-1.89-2.5-2.69-2.89-.8Z"/><path class="e" d="M855.47,547.87l-13.91,29.92a2.82,2.82,0,0,0-.38,1.79c.2.81,1,1.25,1.79,1.63A25.49,25.49,0,0,1,856.2,598.7c.43,2.17.67,4.6,2.3,6.08a7.79,7.79,0,0,0,3.75,1.6,39.24,39.24,0,0,0,19.66-.92c3.81-1.19,8.12-4.29,7.12-8.16-.64-2.44-3.14-3.81-5.25-5.2a29.47,29.47,0,0,1-13-23,10.94,10.94,0,0,0-.61-4.12c-.72-1.58-2.26-2.6-3.67-3.63a44.14,44.14,0,0,1-12.4-13.86"/><path d="M854.17,547.12c-4.36,9.38-8.76,18.75-13.09,28.16-1,2.1-2.21,4-.51,6s5.06,3.12,7.1,5a24.26,24.26,0,0,1,6.77,11.37c.73,2.76.75,6,3,8.12,4.46,4.13,14.19,3.21,19.59,2.31,4.94-.82,13-3,13.59-9.19s-8.17-9.11-11.49-12.91a28.42,28.42,0,0,1-6-11.32c-.89-3.32-.19-7.35-1.68-10.47s-5.21-4.78-7.55-6.89a44.77,44.77,0,0,1-8.52-10.61,1.5,1.5,0,0,0-2.59,1.52,48.23,48.23,0,0,0,11.38,13.22c1,.78,2.62,1.62,3.34,2.55,1.54,2,1.63,4.27,1.86,6.6a30.52,30.52,0,0,0,1.55,7.06,31.34,31.34,0,0,0,8.21,12.64c1.81,1.67,4.36,2.75,6,4.47,6.17,6.23-2.66,9.15-7.17,10.1a37.36,37.36,0,0,1-13.58.35c-4.42-.72-6-3.56-6.94-7.66a27.13,27.13,0,0,0-6.7-12.37c-1.78-1.89-3.94-3-5.82-4.65-1.28-.23-1.7-1-1.27-2.24a3.92,3.92,0,0,1,.79-3.32c.65-1.78,1.66-3.56,2.46-5.28l9.81-21.12c.81-1.74-1.77-3.27-2.59-1.51Z"/><path d="M913.27,577.93a104.22,104.22,0,0,1-12.77,23.78c-1.13,1.57,1.47,3.07,2.59,1.52a107.44,107.44,0,0,0,13.07-24.5c.69-1.81-2.21-2.59-2.89-.8Z"/><path d="M920.32,587.06a112.55,112.55,0,0,1-12.7,15.21,1.5,1.5,0,0,0,2.13,2.12,117.26,117.26,0,0,0,13.16-15.82c1.1-1.59-1.5-3.09-2.59-1.51Z"/><path d="M872.08,567.63c-3.5-2.55-8.49-3.63-12.34-1.08-2.75,1.82-3.57,5-.28,6.59,4,2,8.54-.34,11.69-2.82,2.09-1.64,5.81-6.57,8.62-6.16q3.9,4.56.37,4.06l-1.58-.11a27,27,0,0,1-8.39-2.37c-1.74-.78-3.27,1.81-1.51,2.59,4.29,1.92,10.63,4.21,15.33,2.38,3.24-1.27,4.65-4.79,2.32-7.67-2.94-3.65-8.22-1.92-11.46.28-2.4,1.62-4.28,3.9-6.69,5.51a12.79,12.79,0,0,1-3.6,1.75l-1.37-2.29c1.19-1.77,6.34,1.17,7.38,1.93,1.56,1.13,3.06-1.47,1.51-2.59Z"/><path d="M843.55,575.6c10.26,3.22,12.23,12.63,16,21.47,1.71,4,5,14.23,11.08,11.27,1.73-.84.21-3.43-1.52-2.59-3.63,1.76-10.62-19.88-11.89-22.44a21,21,0,0,0-12.85-10.6c-1.85-.58-2.64,2.32-.8,2.89Z"/><path d="M889.3,480.41l-5.18,11.64c-.77,1.75,1.81,3.28,2.59,1.51l5.18-11.63c.77-1.75-1.81-3.28-2.59-1.52Z"/><path d="M906.81,474.31l-3.45,10.34c-.61,1.84,2.29,2.62,2.9.8l3.44-10.34c.62-1.84-2.28-2.63-2.89-.8Z"/><path d="M918.84,469.09a21.24,21.24,0,0,1,.51,12.13c-.46,1.87,2.43,2.67,2.9.79a24.19,24.19,0,0,0-.52-13.72c-.61-1.82-3.51-1-2.89.8Z"/><path d="M894.31,508.35a83.94,83.94,0,0,1-4.15,12.14c-.76,1.75,1.82,3.28,2.59,1.51a89.58,89.58,0,0,0,4.46-12.85,1.51,1.51,0,0,0-2.9-.8Z"/><path d="M879,514l-7.38,13.76c-.91,1.7,1.68,3.22,2.6,1.52l7.37-13.77c.91-1.7-1.68-3.21-2.59-1.51Z"/><path d="M910.26,499.3l-5.6,19.39a1.5,1.5,0,0,0,2.89.8l5.6-19.39a1.5,1.5,0,0,0-2.89-.8Z"/><path d="M767.79,487.43a135.63,135.63,0,0,0,69-.65,1.5,1.5,0,0,0-.79-2.89,132.46,132.46,0,0,1-67.39.65c-1.88-.47-2.67,2.42-.8,2.89Z"/><path d="M757.89,438.77c5.85-3.11,12.35-6.14,17.22-10.71,4.66-4.36,6.95-10.72,9.16-16.56.68-1.81-2.22-2.59-2.9-.8-2.33,6.18-4.73,12.5-10.11,16.66-4.52,3.51-9.85,6.14-14.88,8.82-1.71.91-.19,3.5,1.51,2.59Z"/><path d="M757.79,447.54c7.92-2.47,14.28-7.5,20-13.41,6.46-6.71,10.19-12.73,11.84-22,.34-1.89-2.55-2.7-2.89-.8-.71,4-1.44,7.9-3.46,11.45s-4.9,6.4-7.62,9.22c-5.32,5.53-11.22,10.32-18.65,12.64-1.83.57-1,3.47.8,2.89Z"/><path d="M867.51,478.12c3.78-13.18,8.36-25,21.31-31.52,11.88-6,30.5-10.05,38.54,3.93A1.5,1.5,0,0,0,930,449c-8.09-14.07-25.86-12.2-38.74-6.79-6.83,2.87-13,6.84-17.39,12.92-4.71,6.57-7,14.5-9.2,22.17a1.5,1.5,0,0,0,2.89.8Z"/><path d="M823.52,410.08c5.71,16.46,2.5,34.53,9.12,50.77.6,1.48,2.92,1.41,2.94-.4a40.08,40.08,0,0,1,2.24-13.25c1.13-3.15,3.95-6.42,4-9.84.12-3.92-1.32-8.05-1.55-12a74.38,74.38,0,0,1,.76-15.56c.28-1.89-2.61-2.7-2.9-.79a80.61,80.61,0,0,0-1,13.53c.09,4.27,1,8.35,1.33,12.56.32,4.61-2.82,8.62-4.15,13a43,43,0,0,0-1.8,12.4l2.95-.4c-6.61-16.22-3.41-34.31-9.12-50.77-.63-1.81-3.53-1-2.89.8Z"/><path d="M827.23,581.88c-6.76-5-19.74-3.27-26.55.76-6.44,3.8-10.52,11.07-9,18.57a3.06,3.06,0,0,0,2.89,2.2l.22,0-2.89-2.2.81,4.92c.23,1.41,1.67,2.05,2.89,2.21a180.68,180.68,0,0,0,20.66,1.5c4.3,0,11,1.12,14.17-2.6,2.86-3.31,2.23-9.26,1.88-13.3-.37-4.31-1.58-8.35-4.48-11.61-2.56-2.9-6.79,1.36-4.24,4.24,2.23,2.51,2.77,6.2,2.82,9.44,0,1.21.36,4,0,5-1,2.89-3.93,2.81-6.38,2.83a179.72,179.72,0,0,1-24.42-1.51l2.9,2.2-.81-4.93a3.06,3.06,0,0,0-2.9-2.2l-.22,0,2.89,2.2c-1.12-5.54,3.22-10.57,8-12.65s14.13-3.28,18.74.1C827.32,589.34,830.31,584.14,827.23,581.88Z"/><path d="M922.52,390.06a457.16,457.16,0,0,0,27.7-44q2.89-5.31,5.59-10.72c1-1.94,1.91-3.88,2.83-5.84.6-1.29,1.44-4.79,2.39-5.65,1.31-1.17,5.38-1.6,7.07-2.21,2.3-.85,4.58-1.8,6.8-2.84a70.36,70.36,0,0,0,36-38.53c5.95-15.8,5.3-33.82-2.52-48.86-9.26-17.82-26.69-27.71-45.43-32.93-3.64-1-6.78-3-10.26-4.46a76.29,76.29,0,0,0-12.61-4c-8.64-2-17.52-2.87-26.32-3.77a610.23,610.23,0,0,0-61.8-3.12l2.89,3.8c1.84-7.73.9-16.15-1.21-23.73l-2.89,3.8c17.5-.48,27.71-22.44,31.85-36.88C885,122,885.43,112.63,881.1,105a24.25,24.25,0,0,0-18.81-12.33l2.13,5.12c6-6.45,3.91-15.27-4-19-9.19-4.36-18.32,1.13-25.23,7.09L840,89.52c5-7.88,1.18-18.3-6.37-23.09-10.26-6.52-24.16-2.62-34.22,2.31-9.71,4.75-18.36,14.08-17.19,25.64,1,9.7,10.28,17,19.91,14.54l-1.59-5.79c-6.66,2.19-13.48,1.78-20,5.18a30.91,30.91,0,0,0-15.44,18.28c-5,16.91,6,33.72,23.83,34.47l-2.59-4.52c-3.48,6.31-1.32,13,4.12,17.39,6.35,5.15,14.62,5.95,22.43,4.67l-3.8-2.89a81.4,81.4,0,0,0,.18,11.79l3-3a612.84,612.84,0,0,0-102.49,15.7c-7.92,1.92-15.72,4.06-23.72,5.55a39,39,0,0,0-16.42,7.71,44.41,44.41,0,0,0-17.14,32.63l2.21-2.89c-8.68,2.91-19.31,4.65-25.28,12-4.73,5.79-9.57,11.93-12.61,18.82-2.37,5.38-2.81,11.11,3.45,13.54s13.49,3.62,20.22,2.37c11.12-2.07,17.74-11,21.26-21.18H656c4.78,13,12.81,24.1,22.5,33.92,5.45,5.51,11.3,10.6,17.24,15.57s8.41,12.5,11.94,19.38a424.26,424.26,0,0,0,21.79,37.64q5.93,9.12,12.33,17.93c3.84,5.28,7.52,10.73,12.76,14.72L753,405.28a188.58,188.58,0,0,0,.94,43.33c1.09,7.39,2.67,14.68,4.48,21.92,1,4.07,2.12,8.12,3.24,12.16.91,3.26,1.47,7.08,3.46,9.89,1.7,2.43,3.66,3.68,5,6.49q2.75,5.81,5.22,11.74c3.06,7.31,5.87,14.72,8.53,22.19,5.36,15,10.11,30.23,14.84,45.44l.77-2.92c-2.18,2.61-2.81,6.09.4,8.25,4,2.71,10.91.57,15.39.49l-2.89-2.21q-.09-.69-.09-.24a3,3,0,0,0,3,3c3.67-.2,7.19-.68,10.88-.54a3,3,0,0,0,2.89-2.2l.2-1.13-2.09,2.1c6.39-2.35,8.51-9.75,1.18-12.51l2.1,3.69c3.71-22.73,5.41-45.69,7.51-68.6.24-2.59,0-6.17.83-8.61.47-1.34,1.47-2.34,1.86-3.76,1-3.79-.11-8.54-.64-12.36-1-7.22-2.7-14.22-3.34-21.49l-5.9.8.41,1.05c1.18,3,5.82,2.77,5.89-.8l0-1.44L832,461.13c6.34,4.91,12.88,9.43,19.66,13.71,3.06,1.94,6.12,3.89,9.11,6q2.54,1.75,5,3.59a12.08,12.08,0,0,1,2.77,2.11c1,1.49.38,2.91,0,4.83-3.77,19.6-8.47,39.21-15.91,57.77l5.48-.71-.58-.92c-1.11-1.75-4.18-2.16-5.18,0l-11.31,24.31c-2.77,6-4.47,8.91,1.64,12.71s9.24,9.4,10.85,16.34c1.49,6.4,5,7.87,11.11,9,7.43,1.36,26.18.46,27.41-10.45.66-5.9-4.78-8.08-8.61-11.19a26.85,26.85,0,0,1-7-8.87,27.15,27.15,0,0,1-2.56-8.65q.17-3.07-.86.06c1.64-1.38.78-3.65-.61-4.72l-.15-.11,1.49,2.59v-.13l-5.12,2.12.21.2a3.07,3.07,0,0,0,4.24,0l.67-.58c1.9-1.65.56-4.22-1.32-5l-.92-.38,2.2,2.89a17.57,17.57,0,0,0-.6-3.22l-.77,2.92c16.49-17.42,32.85-35.27,45.82-55.55a164.51,164.51,0,0,0,15.6-30.78c3.29-8.75,8.74-21.39,3.18-30.24l-1.79,4.41,1.42-.33a3,3,0,0,0,2.09-3.69c-1.6-7.54-7.44-14.81-11.83-20.89A199.09,199.09,0,0,0,903,402.61l-1.33,5c9.54-2.87,15.33-9.68,20.9-17.56,2.24-3.15-3-6.16-5.18-3-4.64,6.56-9.34,12.39-17.31,14.8a3,3,0,0,0-1.33,5,190,190,0,0,1,22.93,26.38c4.07,5.63,9.75,12.47,11.23,19.46L935,449l-1.42.32a3,3,0,0,0-1.79,4.41c3.06,4.87.83,11.12-.65,16.21A129.53,129.53,0,0,1,924.8,487a179.48,179.48,0,0,1-16.94,29.3,306.17,306.17,0,0,1-21.53,26.92c-3.91,4.43-7.9,8.78-11.92,13.09-1.9,2-4,4-5.76,6.12s-1.28,2.45-1,5.15a3.23,3.23,0,0,0,2.2,2.89l.92.39-1.32-5-.67.58h4.24l-.2-.2c-1.8-1.78-5.22-.53-5.13,2.12a3.49,3.49,0,0,0,1.64,2.84l-.61-4.72c-2.37,2-.45,7.84.24,10.2a33.29,33.29,0,0,0,7,12.57,31.54,31.54,0,0,0,5.07,4.59c2.8,2,7.16,4.68,2.53,7.62-4.3,2.74-11,3-15.68,2.75-3-.17-6.87-.41-8.25-3.64-.88-2-.91-4.59-1.72-6.72a28.49,28.49,0,0,0-7.58-11.13c-1.11-1-5.34-3-5.84-4.08s3.32-7.16,3.86-8.32l9.21-19.82h-5.18l.58.93c1.48,2.33,4.54,1.63,5.48-.72a241.21,241.21,0,0,0,9.92-30.91c2.56-10.13,5.76-20.89,6.86-31.29.51-4.87-2.05-6.05-5.73-8.8q-5.22-3.87-10.67-7.4c-7.68-5-15.34-9.8-22.58-15.4-2-1.54-5.06-.7-5.12,2.12l0,1.44,5.9-.8-.41-1c-1.12-2.88-6.22-2.85-5.89.8.58,6.53,1.83,12.83,3,19.27.66,3.77,2.21,9.47.77,13.05-1.8,4.51-2,9-2.45,13.9-2.06,22.38-3.68,44.81-7.3,67a3.12,3.12,0,0,0,2.09,3.69c-1.48-.55-3.32,3.31-3.48,4.16l2.9-2.2c-3.72-.14-7.18.33-10.88.54l3,3a6.12,6.12,0,0,0-.13-1.35,3,3,0,0,0-2.89-2.2c-3,0-7-.3-9.89.66-2.63.87-.93.78-.77-1.27s-1.44-5.07-2.09-7.16q-1.53-4.89-3.07-9.78c-3.74-11.79-7.62-23.55-11.92-35.15-4-11-8.29-22.11-13.67-32.51-1.15-2.24-2.64-2.2-4-4.12-1.67-2.33-2.15-7-2.88-9.65-1.69-6.11-3.29-12.24-4.65-18.43a170,170,0,0,1-4.12-32.24c-.14-5.32,0-10.65.29-16,.13-2.28,1.19-6,.42-8.16s-3.67-3.71-5.24-5.51c-8.34-9.47-15.28-20.72-22-31.37s-13.08-21.77-18.86-33.06q-2.49-4.85-4.84-9.75c-1.3-2.7-2.25-5.63-4.31-7.77-5-5.16-11.25-9.36-16.49-14.29-10.78-10.12-20.28-21.6-25.43-35.62a3,3,0,0,0-5.79,0c-3.33,9.63-9.93,17.14-20.66,17.28a34.16,34.16,0,0,1-10-1.5c-2.39-.71-4.46-.66-4.17-3.15.79-6.58,7.21-13.67,11.16-18.65,1.18-1.49,2.55-3.92,4.15-5s5.12-1.87,7.2-2.66c4.19-1.57,8.41-3,12.65-4.45a3.13,3.13,0,0,0,2.2-2.9,38.37,38.37,0,0,1,19.29-30.91c5.66-3.21,11.62-3.46,17.73-5.12q11.63-3.17,23.35-5.84a604.34,604.34,0,0,1,93.4-13.72c1.5-.1,3.15-1.29,3-3a81.4,81.4,0,0,1-.18-11.79c.11-2.12-2-3.19-3.8-2.89-4.95.81-10.08.5-14.57-1.91-4.16-2.23-7.86-6.52-5.2-11.34a3,3,0,0,0-2.59-4.51c-16.06-.68-23.75-18.23-16-31.63a27,27,0,0,1,15.45-11.9c4.56-1.42,9.21-1.13,13.73-2.61,3.65-1.2,2.18-6.75-1.59-5.79-8.31,2.13-13.68-6.56-12.08-13.91,1.71-7.84,8.53-12.91,15.48-16,7.38-3.29,17.25-6.23,25-2.56,5.74,2.72,9.52,10.08,5.87,15.83-1.92,3,2.24,5.77,4.71,3.64,3.91-3.38,8.75-7.11,14.2-6.93s11.34,5.12,6.49,10.35a3,3,0,0,0,2.12,5.12c6.62.61,12.34,5.61,14.72,11.69,2.73,6.94,1.15,14.81-1.26,21.6-3.78,10.64-11.66,28.7-25,29.06a3,3,0,0,0-2.89,3.8c1.8,6.5,2.79,13.88,1.21,20.53a3,3,0,0,0,2.89,3.8q25.56,0,51,2.12c15.45,1.3,32,2.1,46.58,7.91,3.18,1.27,6,3.41,9.24,4.49,2.6.88,5.39,1.3,8,2.13a73,73,0,0,1,14.18,6.13,56.29,56.29,0,0,1,19.38,17.72c19.62,29.79,3,68.36-27.1,83.27a70.57,70.57,0,0,1-7.88,3.31c-2.26.79-6,1.09-7.86,2.43-2.5,1.76-3.63,6.78-4.93,9.48q-3,6.3-6.29,12.43a454.09,454.09,0,0,1-29,46.47C915.12,390.2,920.32,393.2,922.52,390.06Z"/><path d="M851.49,549c.28.49.58,1,.88,1.45A3,3,0,0,0,855,552a3,3,0,0,0,2.59-1.49l.51-1.09a3.09,3.09,0,0,0,.15-2.67,2.9,2.9,0,0,0-2-1.74l-1.38-.35a3,3,0,1,0-1.6,5.78l1.39.36-1.79-4.41-.51,1.1h5.18c-.3-.48-.6-1-.88-1.45a3,3,0,1,0-5.18,3Z"/><path d="M888.77,567.92a7.06,7.06,0,0,0-7-8.51c-5-.13-8.82,3.34-12.29,6.43-1.81,1.6-.66,4.3,1.32,5,5,1.79,14.74,4.13,17.66-2.21,1.6-3.49-3.57-6.54-5.18-3-1.35,2.93-8.84.19-10.88-.55l1.32,5a27.73,27.73,0,0,1,4.59-3.66c.39-.22,5-2.12,4.66-.09C882.3,570.1,888.08,571.72,888.77,567.92Z"/><path d="M873.45,566.8l-.39-.38a3.08,3.08,0,0,0-2.12-.88,3.36,3.36,0,0,0-2.12.88l-.06,0a2.85,2.85,0,0,0-.82,2.52,3.13,3.13,0,0,0,1.43,2.2c.26.19.2.14-.16-.14a3.22,3.22,0,0,0,2.12.88,3,3,0,0,0,2.12-.88c1-1.09,1.3-3.19,0-4.24L872.4,566l.61,4.72,0-.05h-4.24l.39.38a3,3,0,0,0,4.24-4.24Z"/><path d="M633.26,271.92l-8,12.1c-1.08,1.61,1.52,3.12,2.59,1.51l8-12.1c1.07-1.61-1.52-3.11-2.59-1.51Z"/><path d="M643.3,273.62l-7.88,12.21c-.78,1.21.82,2.93,2.06,2.05l.61-.44c1.56-1.12.06-3.72-1.51-2.59l-.62.44,2,2,7.88-12.21c1.05-1.62-1.55-3.13-2.59-1.51Z"/></svg>
