<svg xmlns="http://www.w3.org/2000/svg" xmlns:xlink="http://www.w3.org/1999/xlink" viewBox="0 0 750 1150"><defs><style>.a{fill:none;}.b{clip-path:url(#a);}.c{fill:#00b997;}.d{fill:#fff;}.e{fill:#f15a24;}.f{font-size:43.11px;font-family:"PingFang TC", "HeiTi TC", "Microsoft JhengHei", sans-serif;font-weight:700;}.g{font-size:26px;}.g,.h{font-family:"PingFang TC", "HeiTi TC", "Microsoft JhengHei", sans-serif;}.h{font-size:58.03px;}.i{font-size:25.79px;}.j{fill:#f88334;}.k{fill:#66bd8d;}.l,.m{fill:#ffbc18;}.m{stroke:#000;stroke-miterlimit:10;stroke-width:2px;}</style><clipPath id="a"><rect class="a" x="904.19" y="341.14" width="750" height="612.93"/></clipPath></defs><title>injury</title><g class="b"><path class="c" d="M891.7,786.41c6.29-21.82-.79-46.93-17.54-62.27-7.24-6.64-17.86-11.6-26.75-7.42-6.9,3.25-10.55,11.25-10.82,18.87s2.25,15,4.73,22.26c-5.74-9.62-16.35-16.48-27.55-16.59s-22.4,7.14-25.88,17.79,2,23.75,12.38,27.89a42.07,42.07,0,0,0-41.19-1.12c-7.49,4-14,11.29-14.21,19.81-.16,7,4,13.49,9.39,17.89s12,7.05,18.48,9.64c-7.56-6.1-19.94-3.68-25.82,4.05s-5.54,19.13-.49,27.43S760.51,878.3,770,880.51c-3.58-2.49-8.91-.74-11.49,2.78s-3,8.18-2.65,12.54c1.39,18.14,15,34.7,32.56,39.55,1.9.53,4.2.83,5.59-.56,1.94-1.93-.09-5.72-2.82-5.81s-5,2.57-5.24,5.28.91,5.37,2.37,7.67c9.69,15.29,33.45,19.1,47.44,7.62-5.32,5.66-2.26,15.73,4.21,20s14.84,4.28,22.57,3.45c10-1.08,20.61-3.64,27.46-11s7.7-20.93-.59-26.68c13.33,6,28.47,9.91,42.58,6s26.25-17.5,24.33-32c-1.87-14-15.13-23.45-27.82-29.71,11.31,2,23,3.88,34.14,1s21.47-12,21.94-23.47c.4-9.81-6.35-18.6-14.25-24.43-5.37-4-11.74-7.1-18.41-6.91s-13.54,4.5-15,11A59.58,59.58,0,0,0,963,814.81c3.92-6,6.72-13.9,3.4-20.28-3.06-5.89-10.2-8.32-16.77-9.2-15.08-2-28.64,10.16-26.48,3.48s-3.06-14.63-10-15.45-21.55,6-21.42,13"/><path d="M893.76,787c6.56-24-1.53-52.81-22.18-67.67-9.81-7-23.91-9.5-32.06,1.29-8.53,11.29-4.4,25.71-.26,37.82l3.9-1.64c-10.25-16.39-32.33-23.81-48.42-10.93-14.2,11.38-13,35.27,4.45,42.93,2.45,1.08,4.58-2.26,2.15-3.68-16.65-9.76-41.66-8.51-53.94,7.87A21.35,21.35,0,0,0,746,817.26c5.7,9.59,16.26,14,26.16,18,2.41,1,3.42-2.59,1.64-3.9-13.34-9.81-31.08.74-33.12,15.93-2.44,18.06,12.58,31.26,28.71,35.31,2.3.58,3.81-2.7,1.64-3.9a11.12,11.12,0,0,0-14.41,3.55c-4,5.59-3.43,13.48-2,19.85a48.36,48.36,0,0,0,26.66,33c3.87,1.77,11.72,5.44,14.83.48,2.42-3.88-1.31-8.91-5.6-8.54-6.41.56-7.68,8-5.7,12.91,2.31,5.8,7.42,10.6,12.76,13.66,12.41,7.11,28.37,6.41,39.67-2.45l-3-3c-5.76,7-3.33,17.26,3.6,22.61,9,7,22.42,5.4,32.81,3.29,10-2,20.56-6.83,24.86-16.69,3.62-8.3,2.36-18.12-5-23.79l-2.15,3.68c21.4,9.48,50.38,13.45,65.32-9a27.71,27.71,0,0,0,1.65-28.62c-5.36-10.15-15.77-16.74-25.73-21.73l-1.64,3.9c13.94,2.39,29.37,5,42.54-1.81,10-5.15,17.73-15.42,15.94-27.11-1.88-12.27-13.11-22.73-24.24-27.12-10.39-4.1-23.93-1.28-27.31,10.61A2.16,2.16,0,0,0,938,838.7c12-5.41,23.36-14.85,29.19-26.91,5.43-11.22,2.29-22.6-9.92-26.9a34.26,34.26,0,0,0-17.62-1.26c-4.45.84-10.6,2.28-14.48,4.74-.2.13-1.12.19-1.2.33.07-.11.76,1.5,1.2.94a6.67,6.67,0,0,0,.54-2.74,13.92,13.92,0,0,0-1.34-7.37,14.43,14.43,0,0,0-11.22-8.3c-8.43-.84-22.94,5.59-23.55,15.18-.18,2.75,4.09,2.73,4.27,0,.34-5.35,8.39-8.74,12.69-10,6.65-2,14.43.49,15,8.6.16,2.46-2.18,6.53,1.25,7.82,2.71,1,6.94-1.63,9.32-2.51,6.19-2.3,12.5-3.75,19.12-2.55,8,1.46,15.62,6,14.35,15.28-2,14.54-17.27,26.41-29.72,32l3.13,2.41c3.49-12.26,18.3-10.34,26.79-5.18,8.81,5.36,17.78,15,16.55,26-1.08,9.8-9.89,17.15-18.86,19.9-11.15,3.44-23.17,1.33-34.39-.6-2.2-.37-4,2.74-1.64,3.9,16.44,8.25,35.75,24.8,22.55,44.51-13.57,20.25-40.33,16-59.49,7.48a2.13,2.13,0,0,0-2.15,3.68c6.32,4.85,6,14.45,2.09,20.73-4.18,6.69-12,9.94-19.4,11.64s-16,2.84-23.48,1c-7.78-1.91-17-11.35-10.29-19.46a2.13,2.13,0,0,0-3-3c-7.75,6.07-18.21,7.43-27.55,4.72a30.36,30.36,0,0,1-13-7.47,23.61,23.61,0,0,1-4.41-5.86,5.14,5.14,0,0,1-.85-4.61c-.44-2.42.33-2.82,2.33-1.17-.22-.38-3.38-.82-3.88-1a43.7,43.7,0,0,1-24.17-20.91A40.92,40.92,0,0,1,758,895.83c-.46-5.77,2.4-18.21,10.94-13.48l1.64-3.9c-13.23-3.33-25.83-12.93-25.83-27.74,0-13.62,14.9-24.58,27-15.71l1.64-3.9c-8.55-3.42-18.06-7.21-23.22-15.35-4.78-7.54-3.47-16,2.51-22.36,11.81-12.57,32.4-12.92,46.59-4.61l2.15-3.68c-15.14-6.64-15.93-27-3.23-36.47,14.1-10.55,32.66-3.62,41.36,10.3,1.24,2,4.72.73,3.9-1.64-3.71-10.87-8.33-24.78,0-34.78,9-10.74,23.64-2.67,31.39,5.19,14.84,15.09,20.41,37.84,14.86,58.15-.73,2.65,3.38,3.78,4.11,1.13Z"/></g><path class="d" d="M314.88,84.77c69.39-14.57,176.91-18.81,226.36,32S614.14,238.88,622,309.34c5.67,50.64,3.24,105-24.5,147.78-24.26,37.38-65,61.12-106.91,76.28-69.88,25.29-148.82,29.78-218.23,3.22S145,450.1,129.69,377.38c-16.67-79.08,18-162.32,72.91-221.6C202.6,155.78,244.76,99.49,314.88,84.77Z"/><path d="M315.67,87.67c44.4-9.26,91.32-13,136.38-6.58,21.69,3.11,43.49,8.76,62.75,19.48,21.06,11.71,36.9,30.52,50.31,50.22,30.87,45.37,46.75,99.65,53.35,153.71,6.64,54.28,4.87,114.86-29.84,160.07C555.08,508.25,499.16,531.23,447,543.1c-58.21,13.25-120.65,11.74-176.52-10.45-46.3-18.39-87.19-51.84-113.16-94.46-27.62-45.32-34.94-98.87-23.17-150.42a269.78,269.78,0,0,1,30.39-75.66,304.48,304.48,0,0,1,23.38-34.45q6-7.68,12.49-15c1.61-1.81,3.28-3.57,4.83-5.41.47-.56-.48.58.08-.11a210.36,210.36,0,0,1,75.12-58,174.52,174.52,0,0,1,35.27-11.53c3.78-.82,2.18-6.6-1.59-5.79-41,8.82-78.39,32.46-106.47,63.36-28.66,31.55-53.32,66.24-68.69,106.29-19.51,50.82-22.86,107.88-2.26,158.92,19,47.12,55.22,86.27,98.9,111.8,50.95,29.77,111.55,39.5,169.82,33.69a357.21,357.21,0,0,0,89.73-21c25.36-9.5,49.8-21.94,70.95-39a156.81,156.81,0,0,0,47.87-64.32c10.6-26.78,13.93-56,13.56-84.67-.74-55.93-12.66-113.83-37.11-164.29-12.11-25-27.84-48.64-47.43-68.43C527.84,99,508.2,89.1,487.85,82.82c-45.45-14-95.42-12.81-142.07-6.41q-15.94,2.19-31.7,5.47C310.3,82.67,311.9,88.45,315.67,87.67Z"/><path class="e" d="M414.43,28.13c-29.78,11.11-56.9,30-78.92,52.93-1.7,1.78-3.51,4.09-2.8,6.45.54,1.81,2.37,2.87,4.05,3.73a439,439,0,0,0,86.5,33.38c4.57,1.23,10.18,2.11,13.42-1.35,2.8-3,2.28-7.71,1.52-11.75a470.05,470.05,0,0,0-23.77-83.39"/><path d="M413.63,25.24a212.05,212.05,0,0,0-55.28,31.22,222.29,222.29,0,0,0-23.79,21.28c-2.69,2.79-6,6.31-4.75,10.57s6.79,6.23,10.41,8a443.49,443.49,0,0,0,65.3,26.25c5.6,1.75,11.24,3.49,16.94,4.92,4.14,1,8.72,1.93,12.82.24,8.55-3.53,6.5-13.57,5.1-20.73a473.76,473.76,0,0,0-23.06-79.69c-1.38-3.56-7.18-2-5.79,1.6A474.76,474.76,0,0,1,429.71,86.5c2.3,9.34,5.6,19.56,6.05,29.2.6,12.51-17.73,4.41-24.21,2.47A434.39,434.39,0,0,1,355,96.78q-6.33-2.91-12.56-6c-2.13-1.07-5.24-1.87-5.83-4.3-.67-2.78,2.63-4.92,4.56-6.85a230.09,230.09,0,0,1,20.11-17.86,204.58,204.58,0,0,1,54-30.72c3.58-1.35,2-7.15-1.59-5.78Z"/><path class="d" d="M407.75,43c-20.07,7.48-38.34,20.23-53.18,35.67-1.15,1.2-2.37,2.76-1.89,4.35.37,1.22,1.6,1.93,2.73,2.51a295.47,295.47,0,0,0,58.29,22.49c3.08.83,6.86,1.42,9-.91,1.89-2,1.54-5.19,1-7.91a316.75,316.75,0,0,0-16-56.2"/><path d="M407.35,41.59a144,144,0,0,0-38.14,21.79c-5.66,4.48-12.14,9.46-16.55,15.23-3.31,4.33-.39,7,3.64,9.09a286.91,286.91,0,0,0,45.51,18.47c5.35,1.67,13.37,5.59,19.12,3.77,5-1.58,5-6.8,4.28-11.1-3.19-19.16-9.06-38.1-16-56.2-.68-1.78-3.59-1-2.89.8a322.53,322.53,0,0,1,14.54,48.79c.71,3.33,2.84,8.79,1.67,12.18-1.94,5.59-12,1.23-15.5.2q-11.47-3.39-22.65-7.7-11.85-4.57-23.25-10.16c-1.17-.57-4.11-1.39-4.94-2.48-2.85-3.72.92-6,3-8.11q3.65-3.55,7.52-6.87a140.59,140.59,0,0,1,41.41-24.8c1.79-.68,1-3.58-.79-2.9Z"/><text class="f" transform="matrix(1, 0.06, -0.06, 1, 381.29, 89.71)">3</text><text class="g" transform="translate(223.17 424.57)">跑步時應和其他跑者保持2公<tspan x="58.5" y="34">尺以上的安全距離</tspan></text><path d="M297.57,213.12c.23,20.84.14,41.68.37,62.53a1.5,1.5,0,0,0,3,0l0-2c0-1.93-3-1.93-3,0l0,2h3c-.23-20.85-.14-41.69-.37-62.53a1.5,1.5,0,0,0-3,0Z"/><path d="M300.4,233.86c2.79-.34,5.66-1,8.47-1.07a65.27,65.27,0,0,1,8.48.83c1.92.2,1.9-2.8,0-3a65.27,65.27,0,0,0-8.48-.83c-2.81.07-5.69.73-8.47,1.07-1.89.23-1.91,3.24,0,3Z"/><path d="M423.25,233.56c5.94-.05,10.52-.47,16.6-.47a1.5,1.5,0,0,0,0-3c-5.94,0-11,.43-16.6.47a1.5,1.5,0,0,0,0,3Z"/><path d="M438.35,207.53c1.22,22.61,1.17,45.48.57,68.12-.05,1.93,2.95,1.93,3,0,.6-22.64.65-45.51-.57-68.12-.1-1.92-3.1-1.94-3,0Z"/><text class="h" transform="translate(328.5 244.47)"><tspan class="e">2</tspan><tspan class="i" x="29.02" y="0">公尺</tspan></text><path d="M209.54,280.88l2.07-28.44-1.1,1.44a72.61,72.61,0,0,1,19.43-5,68,68,0,0,1,8.91-.38c1.36,0,3.58-.22,4.84.42,2.63,1.32,2.06,4.37,2,6.55-.4,14-.89,27.92-1.34,41.88l1.1-1.45a154.31,154.31,0,0,1-26.05,8.25l-2.77.58c-2.87.27-4.2-.78-4-3.16-.82-1.92-.75-4.82-1.07-6.9l-2.31-14.78c-.3-1.9-3.19-1.09-2.89.8l3.07,19.71c.48,3,.34,7.22,4.15,7.74,4.42.61,10.62-2,14.83-3.14a157.63,157.63,0,0,0,17.81-6.2,1.59,1.59,0,0,0,1.1-1.45l.9-27.92c.15-4.65.32-9.31.44-14,.07-2.31.43-4.91-.86-7C245,244,237,245.32,232.6,245.62A74.59,74.59,0,0,0,209.72,251a1.6,1.6,0,0,0-1.11,1.45l-2.07,28.44c-.14,1.93,2.86,1.92,3,0Z"/><path class="e" d="M313.41,340.31c.56-14.92-6.22-30.09-18-39.28a48,48,0,0,0-49-5.35c2.39-9.12,2.87-12.32-.49-17.25-5.31-7.79-30.11-3.53-37.92,1.74-1.19,25.34-1,43.95,2,68.06A432.06,432.06,0,0,1,313.41,340.31Z"/><path d="M314.91,340.31c.35-16.85-7.58-33.52-21.89-42.78-14.08-9.1-32.23-10-47.38-3.15l2.21,1.69c2-7.66,4-18.07-5.24-21.86-8.21-3.37-19.18-1.36-27.35,1.16-2.34.73-7.59,1.94-8.72,4.4-.47,1-.17,3-.22,4.25q-.16,3.71-.27,7.41c-.11,3.53-.19,7.05-.22,10.58a357.09,357.09,0,0,0,2.69,46.22,1.53,1.53,0,0,0,1.9,1.44,437.15,437.15,0,0,1,103-7.86c1.93.08,1.92-2.92,0-3a440.73,440.73,0,0,0-103.79,8l1.9,1.45a353.76,353.76,0,0,1-2.64-36.07c-.11-5.71-.07-11.43.07-17.14q.11-4.56.29-9.12c.11-2.78-.59-4.58,2-5.82a50.06,50.06,0,0,1,24.22-4.33c3.72.28,7.68,1,9.78,4.4,2.91,4.68,1,10.23-.29,15.13a1.52,1.52,0,0,0,2.21,1.69,46.87,46.87,0,0,1,44.34,3.15c13.45,8.69,20.74,24.42,20.41,40.19C311.87,342.25,314.87,342.24,314.91,340.31Z"/><path class="j" d="M210,351.4c.26,2.05.52,4.12.82,6.25l101.79-7.32a45,45,0,0,0,.78-6.85A432.06,432.06,0,0,0,210,351.4Z"/><path d="M208.52,351.4c.28,2.22.57,4.43.87,6.65a1.51,1.51,0,0,0,1.45,1.1l101.79-7.32a1.51,1.51,0,0,0,1.44-1.1,62.85,62.85,0,0,0,.84-7.25,1.54,1.54,0,0,0-1.5-1.5,440.73,440.73,0,0,0-103.79,8c-1.89.38-1.09,3.27.8,2.89a437.15,437.15,0,0,1,103-7.86l-1.5-1.5a56.25,56.25,0,0,1-.73,6.46l1.45-1.11-101.79,7.32,1.45,1.1c-.27-1.95-.52-3.9-.77-5.85S208.28,349.48,208.52,351.4Z"/><path d="M247.83,295.31A48.81,48.81,0,0,1,253,288c.85-1,1.75-1.91,2.69-2.81.66-.64,4.17-4.34,3.46.87-.21,1.56-4,4-5.13,5-2.56,2.17-5.3,4.11-8,6.05l2.26,1.3a66.69,66.69,0,0,1,1.38-18.75c.44-1.91.06-2.15,2.22-2.35,3.1-.29.82,1.38-.08,2.84-1.5,2.43-3.14,4.75-4.85,7-1.16,1.55,1.44,3,2.59,1.52,1.82-2.42,13.83-18.36,3.07-17.34-4.19.39-5.31,5-6,8.4a69.89,69.89,0,0,0-1.29,18.65c.06,1,1.27,2,2.26,1.29,4-2.87,20.66-12.9,16.06-19.47-5-7.11-16.31,10.11-18.33,13.52a1.5,1.5,0,0,0,2.59,1.51Z"/><path d="M296.88,301.61a51.41,51.41,0,0,0-52-5.35l4.4,3.38c.89-3.45,2-7.05,2-10.65,0-2.81-1.24-4.72-1.82-7.3-1-4.43.19-10.26.34-14.8.15-4.85.68-9.85.44-14.7-.4-8-7.58-8.34-14.09-8.22a75,75,0,0,0-26.85,5.58,3.17,3.17,0,0,0-2.21,2.89L205,280.88l5.89-.8-.21-.61a3,3,0,0,0-5.79,1.6l.45,2.89,1.38-3.39c-1.83,1.15-1.74,2.69-1.86,4.7-.22,3.71-.3,7.43-.41,11.13-.19,7.15-.24,14.29-.05,21.43A370.75,370.75,0,0,0,208,358.45a3,3,0,0,0,2.89,2.2l101.79-7.32a3,3,0,0,0,2.89-2.2,51.58,51.58,0,0,0-18-49.06c-3-2.4-7.25,1.82-4.24,4.25a45.57,45.57,0,0,1,16.48,43.22l2.9-2.21-101.79,7.32,2.89,2.2c-3.33-24.47-3.87-48.86-2.74-73.51l-1.49,2.59.29-.18a3.15,3.15,0,0,0,1.38-3.39l-.45-2.89-5.79,1.6.22.61a3,3,0,0,0,5.89-.8l2.07-28.44-2.2,2.89a70.65,70.65,0,0,1,21.69-5.21c2.44-.17,8.69-1.32,10.7.22,2.31,1.78.78,8.27.7,10.79l-.37,11.52c-.1,3.18-.91,7.27-.2,10.39.46,2,1.74,3.27,1.86,5.43.17,3.16-1,6.57-1.78,9.58-.71,2.72,2.09,4.43,4.4,3.39a45.5,45.5,0,0,1,45.94,5.35C296.94,309.1,299.94,303.9,296.88,301.61Z"/><path d="M449.63,280.88l2.07-28.44-1.1,1.44a72.44,72.44,0,0,1,19.42-5,68.12,68.12,0,0,1,8.92-.38c1.35,0,3.57-.22,4.84.42,2.63,1.32,2.05,4.37,2,6.55-.41,14-.9,27.92-1.34,41.88l1.1-1.45a154.42,154.42,0,0,1-26.06,8.25l-2.77.58q-4.31.41-4-3.16c-.82-1.92-.75-4.82-1.08-6.9l-2.3-14.78c-.3-1.9-3.19-1.09-2.9.8l3.08,19.71c.47,3,.33,7.22,4.15,7.74,4.42.61,10.61-2,14.82-3.14a157,157,0,0,0,17.81-6.2,1.61,1.61,0,0,0,1.11-1.45l.89-27.92c.15-4.65.32-9.31.45-14,.06-2.31.42-4.91-.86-7-2.78-4.48-10.85-3.16-15.22-2.86A74.58,74.58,0,0,0,449.8,251a1.59,1.59,0,0,0-1.1,1.45l-2.07,28.44c-.14,1.93,2.86,1.92,3,0Z"/><path class="c" d="M553.49,343.42a46.91,46.91,0,0,0-67-44.57c2.39-9.12,2.87-12.32-.49-17.25-5.3-7.79-30.1-3.53-37.92,1.74-1.18,25.24-1,43.81,2,67.78A455.58,455.58,0,0,1,553.49,343.42Z"/><path d="M555,343.42c.33-16.83-7.59-33.47-21.89-42.72-14.08-9.1-32.22-10-47.37-3.15l2.2,1.69c2-7.66,4-18.07-5.24-21.86-8.21-3.37-19.18-1.36-27.34,1.16-2.35.73-7.6,1.94-8.72,4.4-.47,1-.18,3-.23,4.23-.1,2.46-.19,4.93-.27,7.39-.1,3.51-.18,7-.21,10.54a355.76,355.76,0,0,0,2.65,46,1.54,1.54,0,0,0,1.9,1.45,461,461,0,0,1,103-7.65c1.93.07,1.93-2.93,0-3a464.48,464.48,0,0,0-103.81,7.76l1.89,1.44A356.15,356.15,0,0,1,449,315.21c-.1-5.69-.06-11.38.08-17.07q.1-4.54.29-9.09c.11-2.78-.59-4.56,2-5.8a50,50,0,0,1,24.21-4.33c3.73.28,7.68,1,9.78,4.4,2.91,4.68,1,10.23-.28,15.13a1.52,1.52,0,0,0,2.2,1.69,46.89,46.89,0,0,1,44.35,3.15C545,312,552.3,327.66,552,343.42,552,345.35,555,345.35,555,343.42Z"/><path class="k" d="M450.07,351.12c.27,2.14.55,4.3.86,6.53l101.78-7.32a43.38,43.38,0,0,0,.78-6.91A455.58,455.58,0,0,0,450.07,351.12Z"/><path d="M448.57,351.12q.44,3.47.91,6.93a1.5,1.5,0,0,0,1.45,1.1l101.78-7.32a1.53,1.53,0,0,0,1.45-1.1,61.7,61.7,0,0,0,.83-7.31,1.52,1.52,0,0,0-1.5-1.5,464.48,464.48,0,0,0-103.81,7.76c-1.9.35-1.1,3.25.79,2.89a461,461,0,0,1,103-7.65l-1.5-1.5a55.55,55.55,0,0,1-.72,6.52l1.44-1.11-101.78,7.32,1.44,1.1c-.28-2-.54-4.08-.8-6.13C451.34,349.23,448.34,349.21,448.57,351.12Z"/><path d="M487.91,295.31a48.81,48.81,0,0,1,5.18-7.28c.86-1,1.76-1.91,2.69-2.81.66-.64,4.17-4.34,3.47.87-.21,1.56-4,4-5.14,5-2.56,2.17-5.3,4.11-8,6.05l2.26,1.3a66,66,0,0,1,1.38-18.75c.43-1.91.06-2.15,2.21-2.35,3.1-.29.82,1.38-.08,2.84-1.5,2.43-3.13,4.75-4.85,7-1.16,1.55,1.45,3,2.59,1.52,1.82-2.42,13.84-18.36,3.07-17.34-4.19.39-5.31,5-6,8.4a70.3,70.3,0,0,0-1.28,18.65c.06,1,1.26,2,2.25,1.29,4.05-2.87,20.66-12.9,16.06-19.47-5-7.11-16.3,10.11-18.33,13.52a1.5,1.5,0,0,0,2.59,1.51Z"/><path d="M537.47,301.61a51.43,51.43,0,0,0-52-5.35l4.41,3.38c.89-3.45,2-7.05,2-10.65,0-2.81-1.24-4.72-1.82-7.3-1-4.43.19-10.26.34-14.8.15-4.85.68-9.85.44-14.7-.4-8-7.58-8.34-14.09-8.22a75,75,0,0,0-26.85,5.58,3.17,3.17,0,0,0-2.21,2.89l-2.07,28.44,5.89-.8-.21-.61a3,3,0,0,0-5.79,1.6L446,284l1.38-3.39c-1.83,1.15-1.74,2.69-1.86,4.7-.22,3.71-.31,7.43-.41,11.13-.19,7.15-.24,14.29-.05,21.43a370.75,370.75,0,0,0,3.51,40.62,3,3,0,0,0,2.89,2.2l101.79-7.32a3.06,3.06,0,0,0,2.89-2.2,51.58,51.58,0,0,0-18-49.06c-3-2.4-7.25,1.82-4.24,4.25a45.57,45.57,0,0,1,16.48,43.22l2.9-2.21-101.79,7.32,2.89,2.2c-3.33-24.47-3.87-48.86-2.74-73.51l-1.49,2.59.29-.18a3.15,3.15,0,0,0,1.38-3.39l-.45-2.89-5.79,1.6.22.61a3,3,0,0,0,5.89-.8l2.07-28.44-2.2,2.89a70.65,70.65,0,0,1,21.69-5.21c2.44-.17,8.69-1.32,10.69.22,2.32,1.78.79,8.27.71,10.79l-.37,11.52c-.1,3.18-.91,7.27-.2,10.39.46,2,1.74,3.27,1.86,5.43.17,3.16-1,6.57-1.78,9.58-.71,2.72,2.09,4.43,4.4,3.39a45.5,45.5,0,0,1,45.94,5.35C537.53,309.1,540.53,303.9,537.47,301.61Z"/><path class="d" d="M314.88,652.08c69.39-14.57,176.91-18.81,226.36,32S614.14,806.19,622,876.65c5.67,50.64,3.24,105-24.5,147.78-24.26,37.38-65,61.12-106.91,76.28-69.88,25.29-148.82,29.78-218.23,3.22S145,1017.41,129.69,944.69c-16.67-79.08,18-162.32,72.91-221.6C202.6,723.09,244.76,666.8,314.88,652.08Z"/><path d="M315.67,655c44.4-9.26,91.32-13,136.38-6.58,21.69,3.11,43.49,8.76,62.75,19.47,21.06,11.72,36.9,30.53,50.31,50.23,30.87,45.37,46.75,99.65,53.35,153.71,6.64,54.28,4.87,114.86-29.84,160.07-33.54,43.68-89.46,66.65-141.66,78.53-58.21,13.25-120.65,11.74-176.52-10.45-46.3-18.39-87.19-51.84-113.16-94.46-27.62-45.33-34.94-98.87-23.17-150.42a269.78,269.78,0,0,1,30.39-75.66A304.48,304.48,0,0,1,187.88,745q6-7.68,12.49-15c1.61-1.81,3.28-3.57,4.83-5.41.47-.56-.48.58.08-.11a210.36,210.36,0,0,1,75.12-58A174.52,174.52,0,0,1,315.67,655c3.78-.82,2.18-6.6-1.59-5.79-41,8.82-78.39,32.46-106.47,63.36-28.66,31.54-53.32,66.24-68.69,106.29-19.51,50.82-22.86,107.88-2.26,158.92,19,47.12,55.22,86.27,98.9,111.8,50.95,29.77,111.55,39.5,169.82,33.68a356.76,356.76,0,0,0,89.73-21c25.36-9.5,49.8-21.94,70.95-39a156.81,156.81,0,0,0,47.87-64.32c10.6-26.78,13.93-56,13.56-84.67-.74-55.93-12.66-113.83-37.11-164.29-12.11-25-27.84-48.64-47.43-68.43-15.11-15.26-34.75-25.12-55.1-31.4-45.45-14-95.42-12.81-142.07-6.41q-15.94,2.19-31.7,5.47C310.3,650,311.9,655.76,315.67,655Z"/><path class="e" d="M414.43,595.44c-29.78,11.1-56.9,30-78.92,52.93-1.7,1.78-3.51,4.09-2.8,6.45.54,1.81,2.37,2.87,4.05,3.73a439,439,0,0,0,86.5,33.38c4.57,1.22,10.18,2.11,13.42-1.35,2.8-3,2.28-7.71,1.52-11.75a469.81,469.81,0,0,0-23.77-83.39"/><path d="M413.63,592.55a211.76,211.76,0,0,0-55.28,31.22,222.29,222.29,0,0,0-23.79,21.28c-2.69,2.79-6,6.31-4.75,10.57s6.79,6.23,10.41,8a443.49,443.49,0,0,0,65.3,26.25c5.6,1.75,11.24,3.49,16.94,4.92,4.14,1,8.72,1.93,12.82.24,8.55-3.53,6.5-13.58,5.1-20.73a473.76,473.76,0,0,0-23.06-79.69c-1.38-3.56-7.18-2-5.79,1.6a475.17,475.17,0,0,1,18.18,57.56c2.3,9.35,5.6,19.57,6.05,29.21.6,12.51-17.73,4.41-24.21,2.47A434.39,434.39,0,0,1,355,664.09q-6.33-2.91-12.56-6c-2.13-1.07-5.24-1.87-5.83-4.3-.67-2.78,2.63-4.92,4.56-6.85a230.09,230.09,0,0,1,20.11-17.86,204.58,204.58,0,0,1,54-30.72c3.58-1.35,2-7.15-1.59-5.78Z"/><path class="d" d="M407.75,610.35c-20.07,7.48-38.34,20.23-53.18,35.67-1.15,1.2-2.37,2.75-1.89,4.35.37,1.22,1.6,1.93,2.73,2.51a295.47,295.47,0,0,0,58.29,22.49c3.08.83,6.86,1.42,9-.91,1.89-2,1.54-5.2,1-7.91a316.75,316.75,0,0,0-16-56.2"/><path d="M407.35,608.9a143.73,143.73,0,0,0-38.14,21.79c-5.66,4.48-12.14,9.46-16.55,15.23-3.31,4.33-.39,7,3.64,9.09a286.91,286.91,0,0,0,45.51,18.47c5.35,1.67,13.37,5.59,19.12,3.77,5-1.58,5-6.8,4.28-11.1-3.19-19.16-9.06-38.1-16-56.2-.68-1.78-3.59-1-2.89.8a322.53,322.53,0,0,1,14.54,48.79c.71,3.33,2.84,8.79,1.67,12.18-1.94,5.59-12,1.23-15.5.2q-11.47-3.39-22.65-7.7-11.85-4.58-23.25-10.16c-1.17-.57-4.11-1.39-4.94-2.48-2.85-3.72.92-6,3-8.11q3.65-3.56,7.52-6.88a140.78,140.78,0,0,1,41.41-24.79c1.79-.68,1-3.58-.79-2.9Z"/><text class="f" transform="matrix(0.97, 0.25, -0.25, 0.97, 378.97, 654.58)">4</text><text class="g" transform="translate(218.27 976.91)">協助抽筋的跑者向肌肉收縮<tspan x="0" y="34">的反方向緩慢、持續伸展，</tspan><tspan x="78" y="68">並做點按摩。</tspan></text><path class="c" d="M285.36,813.41a39.55,39.55,0,0,0-29,6.56A36.93,36.93,0,0,0,241.5,844.6c-1.16,8.47.69,17.08,3.21,25.25s5.73,16.18,7.39,24.57c1,5.15,1.36,10.8-1.28,15.33-3.16,5.43-9.66,7.8-15.63,9.77,11.19,1.17,23.51-.28,31.76-7.92,5.59-5.18,8.58-12.54,10.71-19.85a94.58,94.58,0,0,0,3.87-34c-.43-5.29-1.41-10.55-1.4-15.86s1.12-10.83,4.4-15c1.28-1.64,2.87-3,4.09-4.74a7.27,7.27,0,0,0,1.51-5.87c-.53-2-2.83-3.61-4.77-2.81"/><path d="M285.76,812c-21.45-3.46-42.82,10.58-45.76,32.64-1.83,13.73,3.83,26.79,7.84,39.6,2,6.37,4.68,14.08,3.17,20.81-1.78,7.91-9.34,10.76-16.22,13.06a1.51,1.51,0,0,0,.4,2.95c11.43,1.07,24-.25,32.82-8.36,9.61-8.85,12.84-24.1,14.48-36.47a89,89,0,0,0,.38-20.24c-.74-7.63-2.48-15.68.15-23.15,1.88-5.35,8.65-9.09,8.77-15A5.61,5.61,0,0,0,285,812c-1.9.33-1.09,3.22.8,2.89l2.82,4a12.05,12.05,0,0,1-2.52,4c-.82,1-1.79,1.9-2.59,2.93a20.44,20.44,0,0,0-2.7,4.57,31.15,31.15,0,0,0-2.11,13.28c.18,5.63,1.27,11.18,1.54,16.81A87.31,87.31,0,0,1,279.06,879c-1.76,10.63-4.66,23.17-12.59,31C258.28,918,246,919,235.19,918l.4,2.94c8.67-2.89,17.44-6.94,18.61-17.08,1.41-12.21-5.24-24.78-8.57-36.18-4-13.87-4.62-28.53,5-40.29,8.17-10,21.7-14.6,34.35-12.56,1.89.31,2.7-2.58.8-2.89Z"/><path class="d" d="M520.36,817.83c-19-.41-38.28.28-57.71,4.51-.46.12-.89.25-1.31.4a18.1,18.1,0,0,0-6.56,3.35,211,211,0,0,0-40.95,38.73c-2.46,3-4.92,6.37-5.31,10.2-.51,4.92,2.49,9.41,5.62,13.19,8.21,9.88,17.39,18.71,30.5,18.53,0,0,18.6-33,24.62-57.74.87-.06,1.74-.14,2.61-.26,12.93-1.82,25-9.43,37-15.9q6-3.23,12.07-6.14C526,824.27,525.61,817.94,520.36,817.83Z"/><path d="M520.36,816.33c-18.68-.36-37.85,0-56.16,4.16-7.51,1.68-13,6.23-18.94,11A211.43,211.43,0,0,0,425,849.88c-5.56,5.76-11.95,12-15.91,19-3.59,6.37-2,12.5,2.2,18.14,8.06,11,19,21,33.32,21.23a1.49,1.49,0,0,0,1.29-.75c10.24-18.17,19.71-37.81,24.78-58.1l-1.45,1.11c15.76-1.25,29.3-10.56,42.91-17.73,4.31-2.27,12.77-4.28,13.74-10.08.63-3.8-2.07-6-5.55-6.36-1.91-.22-1.89,2.78,0,3l2.59,3-1.13,1.94a12.36,12.36,0,0,1-3.4,2c-2.29,1.19-4.62,2.29-6.91,3.49-4.58,2.39-9.06,5-13.61,7.42-8.92,4.83-18.37,9.53-28.64,10.35a1.54,1.54,0,0,0-1.45,1.1c-3.48,13.94-9.28,27.25-15.54,40.14q-3.31,6.84-6.91,13.55c-.4.75-1,2.57-1.68,3.09s-4.13-.49-6.06-1c-7.88-2.06-14.12-7.81-19.41-13.73-3-3.31-6.38-6.94-7.71-11.26-2-6.45,2.8-11.66,6.63-16.24,11.3-13.53,24.43-26.21,39-36.19,4.16-2.84,8.81-3.64,13.69-4.51,6-1.06,12-1.81,18-2.31a312.9,312.9,0,0,1,32.55-.81C522.3,819.37,522.3,816.37,520.36,816.33Z"/><path class="c" d="M386.68,901.47c-.94-5.62,8.12-25.62,22.86-28.13,2,8.06,23.47,25.7,40,23.55-.89,8-10.48,16-19.42,19.49a35,35,0,0,1-25.93-.34c-7.45-3.15-13-8.59-17.54-14.57"/><path d="M388.18,901.47c-.54-4.77,2.57-10.17,5-14,3.92-6.08,9.46-11.21,16.72-12.69l-1.85-1c2.05,6.86,9.07,12.27,14.71,16.13,7.75,5.3,17.19,9.49,26.77,8.52l-1.45-1.9c-2.12,12.73-18.16,20.4-29.82,20.7-12.85.33-23-7-30.56-16.78-1.18-1.52-3.29.62-2.12,2.12,8.83,11.39,21.19,19.1,36.06,17.44,11.83-1.33,27.2-9.86,29.34-22.68.14-.86-.39-2-1.45-1.9-8.67.88-17-2.72-24.16-7.38-5.25-3.43-12.53-8.7-14.42-15.07a1.54,1.54,0,0,0-1.85-1.05c-7.64,1.55-13.57,6.82-17.88,13.12-3,4.39-6.71,10.88-6.08,16.46.21,1.9,3.22,1.92,3,0Z"/><path class="d" d="M532.37,803.67c1.18-.55,2.53,0,3.67.11a4.14,4.14,0,0,1,3.07,1.26,4.72,4.72,0,0,1,.73,2.25c.7,5,1.08,10,1.46,15a2.76,2.76,0,0,1-3.13,3.63c-1.07.08-2.31.09-3-.72a3.19,3.19,0,0,1-.61-1.65,40,40,0,0,1-.35-4.76c-.17-5.16-1.55-9.84-1.72-15"/><path d="M532.77,805.11c5.78-1.11,5.94,4.61,6.34,8.83.24,2.47,1.69,8.31-.11,9.89-3.39,3-3.51-7.9-3.68-9.25-.45-3.61-1.13-7.16-1.34-10.79-.11-1.92-3.11-1.93-3,0,.26,4.47,1.27,8.83,1.62,13.29.19,2.44-.36,5.89.85,8.09,1.51,2.77,6.43,3.29,8.51.75,1.52-1.85.75-4.85.59-7a113.54,113.54,0,0,0-1.21-11.65c-.87-4.66-4.91-5.92-9.37-5.07-1.9.36-1.09,3.26.8,2.89Z"/><path class="c" d="M527.05,815.6c.25-1-.27-2.11-.55-3.18a7.16,7.16,0,0,1,4-8.51c2-.83,4.93-.63,6.18,1.27a5.39,5.39,0,0,1,.7,2.6l1,11.23c.09,1,.69,5.29.23,6.16-.77,1.43-17,5-22.64,5.93a2.09,2.09,0,0,1-1.59-.17,1.76,1.76,0,0,1-.51-1.67c.19-2.55.87-10.89,1.06-13.45C515,815.81,526.6,817.39,527.05,815.6Z"/><path d="M528.55,815.6c-.1-2.15-1.19-4.52-.61-6.63.84-3.06,5.62-6.18,7.84-2.12.79,1.44.48,4.76.64,6.55.19,2.08.37,4.16.57,6.23.16,1.69.87,3.86-.18,4.93s-4.85,1.5-6.33,1.88c-2.53.64-5.08,1.22-7.63,1.78-1.27.27-5.25,1.86-6.51,1.31-1.62-.72-.58-4.58-.44-6.36.2-2.45.4-4.91.58-7.36l-1.5,1.5c3.21.43,11.2,2.38,13.36-1,1-1.62-1.54-3.13-2.59-1.51-.79,1.23-9.2-.32-10.77-.53-.84-.11-1.44.78-1.5,1.5-.32,4.21-1.05,8.55-1,12.77,0,2.86.92,4.21,3.94,4,4.17-.33,8.51-1.68,12.56-2.65,2.92-.7,7.72-1.16,10.13-3.15,2.1-1.73,1.1-5,.86-7.43-.43-4.27.54-12.21-2.57-15.61-2.27-2.47-6.35-2.1-8.92-.35-4.77,3.26-3.15,7.48-2.92,12.24C525.64,817.52,528.64,817.53,528.55,815.6Z"/><path d="M525.09,814.46a7,7,0,0,1-3.56-1.47,6.38,6.38,0,0,1-1.57-1.82l-.45-1c-.26-1-.28-1.17-.07-.52,2.11,1.43,4,4.76,5,7.11l2.74-1.16a20.35,20.35,0,0,1-2.81-4.92,18.36,18.36,0,0,1-.77-2.49c-.15-.63-.27-3.1-.73-2.92s.58,1.65.81,2.15a24.87,24.87,0,0,1,1.21,3.1A26.05,26.05,0,0,1,526,817l2.26-1.3.26.44c-.73-1.76-3.64-1-2.9.8a2.14,2.14,0,0,0,1.12,1.35A1.52,1.52,0,0,0,529,817a28.89,28.89,0,0,0-2.18-9.78c-.76-1.79-2.27-5.95-5-5-2.4.81-1.65,4.15-1.29,6a22,22,0,0,0,4.06,9c.92,1.22,3.44.56,2.74-1.16-1-2.37-6.92-13-10.4-8.61-1.35,1.71-.17,4.43.87,6a9.49,9.49,0,0,0,6.52,4c1.89.28,2.7-2.61.8-2.89Z"/><path d="M523.15,817.34l.74,3.78a1.52,1.52,0,0,0,1.85,1,1.54,1.54,0,0,0,1-1.85l-.74-3.78a1.5,1.5,0,1,0-2.9.8Z"/><path d="M525.11,817.32a21.3,21.3,0,0,0,1.95,2.93,1.51,1.51,0,0,0,2.12,0,1.53,1.53,0,0,0,0-2.12,17.1,17.1,0,0,1-1.48-2.33,1.5,1.5,0,0,0-2.59,1.52Z"/><path d="M526.52,816.75a25.7,25.7,0,0,0,4.21,1.41l.4-2.95h-.19c-1.93-.06-1.93,2.94,0,3h.19a1.5,1.5,0,0,0,.39-2.94,22.82,22.82,0,0,1-3.49-1.11,1.54,1.54,0,0,0-2,.54,1.51,1.51,0,0,0,.54,2Z"/><path d="M520.37,817.47c.7,2.09-.13,5.14,3,5.39,2.36.18,5.26-1.44,7-2.9a6.06,6.06,0,0,0,2.19-6.48,4.17,4.17,0,0,0-5.4-2.54c-1.76.72-1,3.62.8,2.89s2.19,1.2,1.62,2.45a5.93,5.93,0,0,1-2.64,2.41c-.44.25-2.78,1.56-3.34,1.08-.22-.18,0-1.1-.06-1.35a6.05,6.05,0,0,0-.3-1.74c-.62-1.82-3.51-1-2.89.79Z"/><path d="M516,815.83a31.55,31.55,0,0,0,.49,14.93,1.5,1.5,0,0,0,2.89-.8,28.22,28.22,0,0,1-.49-13.33c.38-1.88-2.51-2.69-2.89-.8Z"/><path class="d" d="M418.41,821a32.9,32.9,0,0,0,1.62-3.52c4.75-12.26,3.63-26.48,3.51-40q-.06-6.76.25-13.52c.26-5.63-5.9-8.22-8.63-3.64-9.88,16.6-18.87,33.93-24.58,53.05a10.09,10.09,0,0,0-.26,1.26,17.73,17.73,0,0,0-.13,7.44,210.44,210.44,0,0,0,15.18,54.2c1.55,3.59,3.35,7.32,6.56,9.46,4.12,2.74,9.5,2.2,14.32,1.2,12.6-2.61,24.72-6.58,30.68-18.22C456.93,868.66,437.24,838.11,418.41,821Z"/><path d="M419.7,821.74c4.18-8.17,5.29-17.4,5.5-26.47.12-5.36-.07-10.71-.14-16.07s.88-11.23.18-16.53c-.57-4.34-5.18-8.08-9.37-5.31-2.8,1.85-4.4,6.21-6,9-2.77,4.85-5.43,9.77-7.93,14.77a202.68,202.68,0,0,0-11.74,28.35c-2.9,9-1,17.33.87,26.41a209.54,209.54,0,0,0,9.1,31.46c2.59,6.9,5.2,16.95,12.44,20.43,7.64,3.67,18.6,0,26-2.66,8.3-3,15.29-7.84,19.58-15.69a1.51,1.51,0,0,0,0-1.51c-11.07-17.14-23.73-34.14-38.76-48-1.42-1.31-3.55.81-2.12,2.12,12.73,11.73,23.39,25.73,33.25,39.91,1.3,1.87,2.59,3.76,3.85,5.66,1.61,2.41.81,1.33-1,3.84-5.81,7.94-15.46,11.23-24.68,13.34-4.77,1.1-10.34,2.48-14.94.14-5.5-2.79-7.68-10.52-9.76-15.84a210.49,210.49,0,0,1-9.7-32.23,121.34,121.34,0,0,1-2.91-17.11c-.37-5.56,2.12-11.17,4-16.3a226.67,226.67,0,0,1,14-30.21c1.55-2.84,3.14-5.64,4.77-8.43,1.77-3.05,5.86-8.38,7.8-2.21,1,3.08,0,7.7,0,10.95,0,3.07,0,6.13.08,9.2.23,12.52.85,26-5,37.47C416.24,822,418.82,823.47,419.7,821.74Z"/><path class="c" d="M425.17,917.29c-5.43-1.8-18.92-19.14-14.25-33.31,8.08,2,33.76-8.66,39.59-24.27,6.69,4.53,9.31,16.74,8.2,26.23a34.8,34.8,0,0,1-12.43,22.7c-6.27,5.09-13.7,7.45-21.11,8.65"/><path d="M425.57,915.85c-4.43-1.78-7.86-7.4-10-11.34-3.39-6.18-5.2-13.2-3.2-20.13l-1.84,1c7.23,1.48,15.59-2.36,21.79-5.68,8.26-4.42,16.06-10.76,19.65-19.64l-2.21.9c9.71,7.3,9.27,24.57,4.74,34.53-5.54,12.17-17.06,18.11-29.72,20.31-1.9.33-1.09,3.22.8,2.89,14.67-2.55,27.62-10.29,32.8-24.84,4-11.11,3.05-27.85-7.1-35.48-.86-.65-1.89.1-2.21.89-3.26,8.09-10.78,13.84-18.26,17.85-5.33,2.85-13.19,6.66-19.48,5.38a1.53,1.53,0,0,0-1.85,1.05c-2.22,7.69-.26,15.55,3.5,22.44,2.61,4.79,6.52,10.59,11.8,12.71,1.79.72,2.57-2.18.8-2.89Z"/><path class="k" d="M301.51,815.43c-9.61,10.43-10.94,63.22,30.06,94.91,22.9,17.69,54,19.73,82.7,15.93,8.12-1.08,17.49-4.26,19.7-12.12.94-3.34.34-6.9-.34-10.3C427.52,873,422,865.42,405.37,838.63c-2.63-4.25-5.58-8.61-10-10.89-5.72-2.93-12.57-1.81-19-1.14a118.25,118.25,0,0,1-53.05-6.66c-8.16-3-18-6.73-24.82-1.32"/><path d="M300.45,814.36c-4.4,5-5.42,12.64-5.86,19a87.68,87.68,0,0,0,4.08,32c8.62,27.6,29.86,50.64,57.74,59.23,15.77,4.86,32.67,5.53,49,4.12,10.79-.93,28.66-2.42,30.39-16.28,1-7.78-2.22-16.83-4.22-24.29a119,119,0,0,0-6.17-17.68,155.74,155.74,0,0,0-9.06-16.89c-4.05-6.74-8-13.81-12.64-20.13-4.86-6.57-11.09-9.41-19.24-9.12-10.61.38-20.79,1.86-31.46.85-11.19-1.06-21.71-4-32.25-7.79-7.5-2.66-16-5-23-.08-1.57,1.1-.07,3.7,1.51,2.59,7-4.94,15.67-1.45,22.93,1.19a123.52,123.52,0,0,0,23.31,6.14,119.75,119.75,0,0,0,23.7,1.37c7.69-.33,16.67-3,24.09-.08s11.25,11.58,15.2,18c3.22,5.19,6.45,10.38,9.42,15.72a125,125,0,0,1,12.21,32.38c1.76,7.52,5.71,18-.74,24.21-5.15,4.94-13.18,5.82-19.92,6.55-14.8,1.59-30,1.6-44.59-1.61-27.85-6.12-50.3-25.89-60.87-52.28a89.21,89.21,0,0,1-6.58-33.52c0-6.73.42-16.07,5.15-21.45,1.27-1.45-.84-3.58-2.12-2.13Z"/><path class="d" d="M407.41,742.05c.08-1.47,1.37-2.5,2-3.59a4.66,4.66,0,0,1,2.88-2.39,5.27,5.27,0,0,1,2.64.46c5.35,1.92,10.57,4.19,15.78,6.46a3.11,3.11,0,0,1,2,5c-.49,1.11-1.13,2.34-2.31,2.61a3.57,3.57,0,0,1-2-.26,47,47,0,0,1-4.94-2.16c-5.26-2.55-10.67-3.65-15.92-6.2"/><path d="M408.86,742.45a6,6,0,0,1,5.73-4.48c1.24,0,4.15,1.57,5.3,2,2.23.89,4.43,1.83,6.64,2.78.4.17,4.23,1.41,4.46,2l-2.14,4.16a46.58,46.58,0,0,1-4.59-2c-1.29-.58-2.56-1.15-3.88-1.66-4-1.56-8.11-2.75-12-4.54-1.75-.79-3.27,1.79-1.52,2.59,3.87,1.76,7.9,3,11.87,4.51,3,1.13,7.36,4.31,10.73,4.33s6.59-4.66,5.09-7.95c-1.06-2.33-4.42-3.12-6.48-4-3.6-1.55-7.2-3.12-10.88-4.45-5.61-2-9.36-.08-11.2,5.91-.56,1.86,2.33,2.65,2.9.8Z"/><path class="c" d="M416.54,753.65c-.87-.78-2.25-.85-3.46-1.13a8.09,8.09,0,0,1-6.39-8.5c.19-2.39,2-5.25,4.53-5.49a6.12,6.12,0,0,1,3,.68L426,744.12c1.09.46,5.66,2.1,6.29,3,1,1.51-4,19.55-6,25.66a2.35,2.35,0,0,1-1,1.49,2,2,0,0,1-1.94-.37c-2.46-1.54-10.44-6.62-12.9-8.16C410.39,765.77,418.1,755,416.54,753.65Z"/><path d="M417.3,752.35c-3.53-2-11.33-2.79-8.94-9.15,2.27-6.06,13.89,1,17.21,2.37,2,.8,4.78,1.24,5.29,3.07s-1.06,5.7-1.51,7.54c-.73,3-1.55,6.05-2.4,9.05-.33,1.15-1.12,6.59-2.16,7.19-1.39.79-5.47-2.77-6.67-3.53l-7-4.42.54,2.06c1.95-2.74,8.34-10,6.15-13.64a1.5,1.5,0,0,0-2.59,1.52c1,1.63-5,9.05-6.16,10.6a1.52,1.52,0,0,0,.54,2c4.11,2.59,8.11,5.44,12.34,7.82,3,1.69,4.82.84,5.93-2.34,1.52-4.34,2.65-8.87,3.78-13.32.84-3.25,2.73-7.9,2.21-11.32-.46-3-3.65-3.66-6.17-4.69-2.7-1.1-5.39-2.22-8.08-3.34s-5.84-3.23-8.82-2.79c-3.95.59-6,5-5.58,8.65a9.57,9.57,0,0,0,3.27,6.13c2.2,1.88,4.88,1.72,7.28,3.08A1.5,1.5,0,0,0,417.3,752.35Z"/><path d="M414.31,755.4a7.56,7.56,0,0,1-4.24,2.91,7.36,7.36,0,0,1-2.33.23c-.87-.45-.91-.73-.13-.82.66-.74,3.75-1,4.55-1.05a21.93,21.93,0,0,1,4.51.06l-.4-3a22.52,22.52,0,0,1-7.19,0,23.55,23.55,0,0,1-3.33-.85l-1.78-.69c-.24.36-.09.45.46.26a28.09,28.09,0,0,1,12.94,2.72v-2.59l.07,0c-1.92-.18-1.91,2.82,0,3a1.91,1.91,0,0,0,1.44-.39c.82-.59,1.13-2.08,0-2.59a32.87,32.87,0,0,0-11.63-3.07c-2-.14-5.8-.62-6.63,1.93s2.47,3.7,4.33,4.33a25.66,25.66,0,0,0,12.12.86c1.79-.27,1.15-2.8-.4-2.95-2.49-.24-16.75.33-13.42,5.88,1.24,2.06,4.68,2.13,6.71,1.78a10.83,10.83,0,0,0,6.94-4.48c1.15-1.55-1.45-3-2.59-1.51Z"/><path d="M416.2,758.24l4.17,1.26c1.85.56,2.65-2.34.8-2.89L417,755.35c-1.85-.56-2.64,2.33-.79,2.89Z"/><path d="M417.17,756.29a23.55,23.55,0,0,0,3.93-.37,1.52,1.52,0,0,0,1-1.85,1.53,1.53,0,0,0-1.84-1.05,18.41,18.41,0,0,1-3.14.27,1.5,1.5,0,0,0,0,3Z"/><path d="M417.58,754.41a27.47,27.47,0,0,0,3.3-3.17l-2.36-1.82-.11.18a1.51,1.51,0,0,0,2.6,1.52l.1-.18c.82-1.44-1.2-3.14-2.36-1.82a25.87,25.87,0,0,1-3.29,3.16,1.52,1.52,0,0,0,0,2.13,1.54,1.54,0,0,0,2.12,0Z"/><path d="M414.86,761.08c2.33.38,4.93,2.82,6.83,0,1.52-2.29,1.41-6.4.67-8.93s-2.61-4.7-5.28-4.94a4.55,4.55,0,0,0-5,4.24c-.22,1.91,2.78,1.9,3,0,.13-1.16,1.73-1.37,2.55-1a3.48,3.48,0,0,1,1.43,1.51,8.07,8.07,0,0,1,.69,4.06c0,1.31,0,3.4-1.72,3.1-.81-.14-1.54-.78-2.4-.92-1.89-.3-2.7,2.59-.8,2.89Z"/><path d="M411.05,764.6A35.1,35.1,0,0,0,426.11,772c1.88.41,2.69-2.48.8-2.89a31.91,31.91,0,0,1-13.74-6.58c-1.48-1.21-3.62.9-2.12,2.12Z"/><path class="j" d="M421.56,797.54c-.52-2.53-4.46-2.72-6.92-1.92s-4.17,3-5.33,5.35a24.16,24.16,0,0,0-2.49,12.08c.1,1.79.49,3.75,1.93,4.81a4.51,4.51,0,0,0,4.5.23,9.84,9.84,0,0,0,3.51-3.1,25.84,25.84,0,0,0,5.35-15.53c0-1-.45-2.42-1.47-2.29"/><path class="d" d="M305.73,820.63c.86,3.72,4,7,8.28,8.49a13.09,13.09,0,0,0,8,.44c2.65-.79,4.87-2.89,4.81-5.09,0-2-1.78-3.58-3.9-4.45a24.85,24.85,0,0,0-7-1.37l-5.9-.58a7.65,7.65,0,0,0-3.27.16c-1,.37-1.83,1.39-1.35,2.16"/><path d="M304.29,821a14.88,14.88,0,0,0,12.1,10.25c4.41.72,11.44-.85,11.91-6.34s-6.78-7.16-10.89-7.64c-3-.34-14.18-3-13.47,3.09.23,1.89,3.23,1.92,3,0-.18-1.58,8.16-.33,9-.24a31,31,0,0,1,4.6.69,9.82,9.82,0,0,1,2.65,1q3,1.19,1,3.54c-3.22,7.89-15.33.6-17-5.12-.55-1.85-3.44-1.06-2.89.8Z"/><path d="M304.16,829c4.15,5.38,10.67,8.27,17.46,6.57,6-1.51,11.52-7,8.84-13.46-.73-1.76-3.63-1-2.89.8,2.51,6.08-4.17,9.93-9.29,10.13a13.75,13.75,0,0,1-11.53-5.56c-1.16-1.5-3.77,0-2.59,1.52Z"/><path class="c" d="M309.22,798.48c3.55,2.14,6.18,8.54,7.52,12.45,1.41,4.1.13,9.38-3.17,13.13s-8.49,5.78-12.89,5.07c-5.18-.84-8.71-5.07-10.59-9.79a15.91,15.91,0,0,1-.8-10.79c1.19-3.74,4.65-7.28,8.43-7.65C297.72,800.9,303.94,795.29,309.22,798.48Z"/><path d="M308.47,799.77c4.83,3.51,8.49,12.36,6.8,18.14-2.33,8-12.72,13.19-19.57,7.18-5.44-4.76-8.08-15.2-2.11-20.57,1.6-1.43,4-2,5.79-3,3-1.65,5.43-3.44,9.09-1.7,1.73.83,3.26-1.76,1.51-2.59-3.65-1.73-7.2-1.26-10.66.75-3.08,1.79-6.47,2.74-8.9,5.59-6.1,7.18-2.88,19.42,4.35,24.67,7.79,5.64,18.63,1.09,22.5-7.09,3.68-7.79-.53-19-7.29-23.92C308.42,796.05,306.92,798.65,308.47,799.77Z"/><path class="d" d="M298.8,811.89c-.8,6.19,7.28,11.67,12.29,13.48,7,2.52,15.67-3.9,15.22-11.61-.22-3.82-5.12-6.27-8.28-7.77-2.09-1-8.42-3.6-10.35-1.43"/><path d="M297.3,811.89c-.28,6.72,5.95,11.65,11.55,14.16a13.33,13.33,0,0,0,16.44-4.38c3.88-5.24,3.09-11.07-2.29-14.69-3.69-2.49-11.85-6.93-16.07-3.71-1.52,1.15,0,3.76,1.51,2.59,2.61-2,7.85.88,10.36,2.18,1.9,1,4.6,2.31,5.58,4.35,1.38,2.9-.55,6.69-2.55,8.71-3.71,3.75-8.55,3.95-13,1.59-4.06-2.14-8.7-5.77-8.49-10.8.09-1.93-2.91-1.92-3,0Z"/><path class="c" d="M304.11,803.19c3.84,1.66,6,5.94,6.28,10.1s-.92,8.25-2.12,12.23a45.81,45.81,0,0,1-9.39-7.77c-1.7-1.83-3.3-3.92-3.69-6.38a7.44,7.44,0,0,1,12-7"/><path d="M303.36,804.49c7.91,4.12,5.52,13.77,3.47,20.63l2.2-.89a42.65,42.65,0,0,1-9.93-8.48c-2-2.45-3.47-5.42-1.67-8.52,2-3.44,6-3.52,9-1.57,1.62,1.06,3.12-1.54,1.51-2.59-5.47-3.56-13.1-1.09-14.18,5.77-1.24,7.86,8.13,14.32,13.77,18a1.52,1.52,0,0,0,2.21-.9c2.46-8.23,4.35-19.23-4.85-24-1.71-.9-3.23,1.69-1.51,2.59Z"/><path class="l" d="M311.61,803.6a71.71,71.71,0,0,1,8.23-1.37,4,4,0,0,1,2.46.31c1,.63,1.23,2,1.37,3.13s.24,2.78-.68,3.72a3.68,3.68,0,0,1-3.28.7c-3.46-.58-6.31-3-9-5.26C310.74,804.83,310.08,803.93,311.61,803.6Z"/><path d="M312,805c2.29-.49,4.59-.95,6.91-1.21,1.17-.13,2.25-.49,3.05.81a4.87,4.87,0,0,1,.24,2.81c-.62,2.39-4.06.75-5.49,0a16.91,16.91,0,0,1-2-1.32c-.56-.41-1.11-.84-1.64-1.28-.5-.77-.84-.7-1,.21,1.81-.63,1-3.53-.79-2.89-1.16.41-2.19,1.07-2.09,2.44s1.73,2.33,2.75,3.13c2.78,2.2,7.46,5.34,11.15,3.45,2.92-1.5,2.85-6.56,1.08-8.93-1.15-1.55-3-1.63-4.73-1.46a72.36,72.36,0,0,0-8.16,1.37C309.33,802.56,310.13,805.45,312,805Z"/><path class="e" d="M356.92,827.69a63.11,63.11,0,0,1,8.82,44.49,82,82,0,0,0,23.34-1.38c1.46-.3,3.06-.75,3.85-2s.45-2.93.09-4.39c-2.44-9.8-4.9-19.64-8.79-29-1.11-2.66-2.46-5.43-4.91-7-3.22-2-6.89-.71-11.14-.65-3.26.05-5.59-.18-11.2-.21"/><path d="M355.63,828.45a62.79,62.79,0,0,1,8.66,43.33,1.53,1.53,0,0,0,1.45,1.9,87,87,0,0,0,16.22-.24c3.35-.38,7.63-.44,10.53-2.27,2.38-1.51,2.57-3.8,2.13-6.42a142.38,142.38,0,0,0-4.27-16.32c-2-6.59-4.21-18.86-11.5-21.88-3.15-1.31-6.61-.43-9.88-.28-4,.19-8-.13-12-.17a1.5,1.5,0,0,0,0,3c5.29,0,10.46.24,15.74-.15,4.69-.35,7.64,1.7,9.64,5.91a88.7,88.7,0,0,1,4.27,11.65c1.61,5.14,8,19.76,2.05,22.84-3,1.53-7.86,1.27-11.22,1.47a88.15,88.15,0,0,1-11.72-.14l1.44,1.9a65.91,65.91,0,0,0-9-45.64c-1-1.64-3.61-.14-2.59,1.51Z"/><path class="d" d="M321.38,845.85c-6,8-5.32,19.85.34,28.1s15.52,13,25.49,14,20-1.49,29.24-5.46a93.51,93.51,0,0,0,48-47.46c3.7-8.33,6.14-17.85,3.3-26.51a11.64,11.64,0,0,0-4.26-6.3c-2.15-1.43-5.3-1.58-7.18.18-1.62,1.52-1.94,4-1.67,6.18s1,4.33,1.16,6.54c.36,5.89-3.76,11.2-8.6,14.62-7.75,5.47-16.79,7.26-27.19,7.73-9.54.44-19.12-.48-28.66.17s-22.57,2.12-29.95,8.18"/><path d="M320.08,845.09c-12.85,18.72,3.66,40,23,43.78,22.06,4.32,45.58-8.21,61.2-23A94.81,94.81,0,0,0,423.76,840c4.81-9.5,9-21.2,5.42-31.82-1.19-3.52-3.32-7-7.08-8.14a6.71,6.71,0,0,0-8.47,3.86c-1.81,4.6,1.27,9.29.42,14-1.36,7.42-8.88,12.29-15.45,14.82-14.41,5.55-30.34,2.68-45.36,3.41-11,.53-23.62,1.59-32.62,8.49-1.51,1.16,0,3.77,1.52,2.59,7.45-5.72,17.41-7,26.51-7.77,11-.91,22.05.21,33.06-.46,13.15-.81,37.29-6.89,35.47-24.58-.21-2.11-1.65-5.1-1.14-7.06l1.87-2.31q1.81-4.51,5.7-.68a12,12,0,0,1,2.68,4.67c1.94,5.69,1.27,11.93-.33,17.61-2.76,9.8-8.19,19.12-14.47,27.07-11.95,15.13-29.1,27.27-48,31.65-11.82,2.74-24.89,1.68-34.69-6s-13.45-21.9-6.09-32.63c1.1-1.59-1.5-3.09-2.59-1.51Z"/><path class="d" d="M416.33,818.56c-.78-.78-2.37-3.18-3.14-4a3,3,0,0,1-1.19-2.32,2,2,0,0,1,.86-1.26,3.06,3.06,0,0,1,4.79,1.92"/><path d="M417.39,817.5c-1-1.09-1.8-2.39-2.76-3.54-.5-.58-1.61-1.3-.59-1.89s1.94.43,2.16,1.27a1.51,1.51,0,0,0,2.9-.8c-1-3.59-6.38-5.19-8.29-1.39-.93,1.86.32,3.38,1.5,4.7s1.86,2.6,2.95,3.77c1.33,1.41,3.44-.71,2.13-2.12Z"/><path d="M415.44,804a24.14,24.14,0,0,1,4.41,6.2c.86,1.72,3.45.21,2.59-1.52a26.81,26.81,0,0,0-4.88-6.8c-1.35-1.38-3.47.74-2.12,2.12Z"/><path d="M419.19,802.29a18.84,18.84,0,0,1,3.86,6.37c.65,1.8,3.55,1,2.89-.8a22.57,22.57,0,0,0-4.63-7.69c-1.31-1.43-3.42.7-2.12,2.12Z"/><path class="d" d="M309.34,788.25c.76-9.34-2.64-17.08-9.58-21.81a4.15,4.15,0,0,0-4.25-.5,6.37,6.37,0,0,0-3.46,3.75,4.3,4.3,0,0,0,.62,3.28c3.44,6.38,8.87,12.43,16.67,15.28"/><path d="M312.34,788.25c.39-6.61-.93-13.22-4.95-18.6-3.28-4.38-8.77-9.33-14.38-5.76-13,8.26,8,24.27,15.53,27.25,3.59,1.43,5.15-4.37,1.59-5.78a27.1,27.1,0,0,1-10.05-7,32.64,32.64,0,0,1-3.52-4.67c-1.11-1.77-2.6-5.79,1.68-4.66,2.95.77,5.76,6,6.76,8.51a25,25,0,0,1,1.34,10.71c-.23,3.86,5.77,3.84,6,0Z"/><path d="M305.66,780.41A21.21,21.21,0,0,0,299,768.94c-1.45-1.28-3.58.84-2.12,2.12a18.51,18.51,0,0,1,5.93,10.14c.42,1.89,3.32,1.09,2.9-.79Z"/><path class="d" d="M287.78,787.66c-6.61-10.24-16.25-15.55-27.15-15a5.34,5.34,0,0,0-4.76,2.84,8.22,8.22,0,0,0-.59,6.6,5.54,5.54,0,0,0,3.23,2.9c8.59,3.88,19,5.84,29.27,2.63"/><path d="M290.37,786.15c-4.38-6.51-10-11.85-17.47-14.62-5.66-2.11-15.19-4-19.2,1.9-4.39,6.43-.82,12.58,5.55,15.16a44.8,44.8,0,0,0,29.33,2c3.71-1,2.13-6.84-1.6-5.79a36.66,36.66,0,0,1-18,.62c-2.68-.58-6.69-1.38-9-2.95-2.94-2-2.81-6.08,1.31-6.77,9.61-1.61,18.94,6.21,23.85,13.51,2.14,3.19,7.34.19,5.18-3Z"/><path d="M279.79,782.3a27.68,27.68,0,0,0-16.14-6.61c-1.92-.14-1.92,2.86,0,3a24.22,24.22,0,0,1,14,5.73c1.47,1.23,3.6-.88,2.12-2.12Z"/><path d="M544.3,822.28c-.39-5.1-.55-10.36-1.51-15.39-.56-2.94-1.81-4.95-4.81-5.84-6.59-2-13.48,1-14.61,8.15h5.78c-1.1-3.16-2.41-7.83-6.16-8.5a3,3,0,0,0-2.92.77c-2.48,3.19-1.17,7.28.1,10.82l5-2.92c-2.24-2.6-7.82-7.5-10.06-1.81-2,5,3.61,9.55,7.59,11l-1.33-5c-.24.2-1.86-.27-3.24-.4-1.06-.1-2.11-.22-3.17-.36-1.69-.22-2.88,1.56-3,3l-.15,1.94,3-3c-15.45-.11-30.92.65-46.16,3.36-6.89,1.22-11.94,2.81-17.58,7s-11.27,8.79-16.6,13.55h4.24c-3.2-3.92-6.49-7.77-9.92-11.5l.77,2.92c2.84-9,5-24.54-4.73-30.49l1.48,2.59c.73-9.35.19-18.71.2-28.08L422.74,777c7,2.79,8.4-9.91,9.55-14.14,1-3.86,1.88-7.72,2.72-11.62.66-3,2.37-6.18,0-8.94-2.81-3.24-9.13-4.67-13-6.25s-8.72-4.52-12.6-1.83a12,12,0,0,0-.36,19.88l2.31-5.49c-3.58-.55-8.91-1.84-11.48,1.44a3.22,3.22,0,0,0-.47,3.64c1.58,3.48,6.78,4.19,10.13,4.68v-5.79c-3.4.77-11.68,3.84-6.81,8.72,3.91,3.91,10.87,1.11,14.2-1.93l-5-1.33c.15.77-.07.69,0,.64a14.59,14.59,0,0,0-1.74,2.15c-.76,1.17-1.54,2.32-2.35,3.45a3,3,0,0,0,1.08,4.11l1.14.72L408.94,765a267.22,267.22,0,0,0-15.58,31.51,123.63,123.63,0,0,0-5.8,16.67c-1.16,4.68-.36,9.2.37,13.87l3.69-3.69c-10.68-1.57-21.7,1.25-32.51.78a117.79,117.79,0,0,1-33.89-6.68l1.79,4.41c3.13-5.26,3.18-10.74-1.6-14.94l.77,2.91c1.09-2.85.76-7.3-1.76-9.39-3-2.5-8.47-.73-11.86-.08l3.39,1.38c-4.47-7.09-11.32-9.27-18.51-4.36-2.32,1.58-4.63,1.68-7,4-3.56,3.41-4.85,8-4.66,12.77l4.52-2.59c-3.6-2.21-9.88-1.87-13.95-1.58A44.53,44.53,0,0,0,260,814.31a39.55,39.55,0,0,0-21,27.2c-2.87,13.93,2.26,27.43,6.54,40.47,2.19,6.69,5,14.34,4.14,21.49-1,8.09-8.49,10.88-15.3,13.15a3,3,0,0,0,.8,5.9c10,.93,21,.12,29.69-5.54,9.36-6.13,13.64-16.64,16.4-27.05a98.34,98.34,0,0,0,2.8-36.62c-.7-6.12-1.72-12.53-.08-18.59,1.59-5.88,6.75-9.18,8.93-14.7h-5.78a21.08,21.08,0,0,0,8.08,10.27l-1.38-3.39c-5.32,33.3,11.61,68.78,38.79,87.93,17.07,12,38.44,16.12,59,16,10.24,0,21.9-.18,31.68-3.6a24.74,24.74,0,0,0,9.49-5.53c1.13-1.14,1.86-3.07,3-4,2-1.58,5.69-2.33,7.92-3.68a37.83,37.83,0,0,0,17.61-25.74c.52-3,.16-6.19.65-9.21s2.15-5.85,3.27-8.64a161.93,161.93,0,0,0,6.85-20.67L469.26,852c17-1.34,31.5-11.65,46.2-19.25l-4.1-1.08c3.15,5.11,13.09.85,17.64-.24,3.08-.73,6.09-1.84,9.17-2.52,4-.88,6.14-2.1,6.13-6.63,0-3.86-6-3.87-6,0,0,1.21-9.88,3.12-10.89,3.37q-3.12.74-6.25,1.39c-1,.23-2.31.34-3.33.68s-2.05-.31-1.29.92a3.05,3.05,0,0,0-4.1-1.07c-13.63,7-27.44,17.18-43.18,18.43a3.08,3.08,0,0,0-2.89,2.2,148.89,148.89,0,0,1-4.84,15.42c-1.73,4.69-4.9,9.69-5.72,14.57-.45,2.72.23,5.72-.22,8.52a32.29,32.29,0,0,1-9.89,18.47c-4,3.69-8.4,4.66-12.93,7.26-1.53.88-1.67,1.63-2.68,3.13a13.89,13.89,0,0,1-5.23,4.57c-8.22,4.38-19.25,4.33-28.35,4.64-19.3.67-39.35-2.06-56.18-12.11-15.48-9.25-27.62-24.12-34.52-40.71-5.59-13.43-8.49-29-6.17-43.47a3.14,3.14,0,0,0-1.38-3.38,14.27,14.27,0,0,1-5.33-6.69,3,3,0,0,0-5.78,0c-1.83,4.64-6.36,7.6-8.19,12.44a33.94,33.94,0,0,0-1.75,13.64c.59,11.94,2.36,23,.25,35-1.82,10.26-4.6,22.72-12.63,30s-19.42,8-29.64,7l.79,5.89c10.05-3.35,19.29-8.31,19.85-20.09.62-12.88-6.27-25.51-9.49-37.68-3.62-13.65-2.9-27.88,7.4-38.49a33.88,33.88,0,0,1,15.76-9,37.05,37.05,0,0,1,9.88-1.27c2.06,0,6.05-.26,7.86.85a3,3,0,0,0,4.51-2.59c-.15-3.73.78-7.25,4.14-9.28,1.32-.8,2.72-1.16,4.06-1.91,4.52-2.5,7.52-3.41,10.82,1.83a3.13,3.13,0,0,0,3.38,1.38c2.72-.52,8.09-2.76,6.25,2.09a2.89,2.89,0,0,0,.77,2.92c2.61,2.3,2.26,5,.66,7.67a3,3,0,0,0,1.79,4.41,124.41,124.41,0,0,0,31.85,6.68,119.25,119.25,0,0,0,16.37.08c6-.39,12.15-1.75,18.19-.86a3.05,3.05,0,0,0,3.69-3.69c-.79-5-1-9,.55-13.9,1.67-5.27,3.6-10.46,5.75-15.55a266.31,266.31,0,0,1,14.1-28,3.05,3.05,0,0,0-1.08-4.1l-1.14-.72,1.08,4.1c2.37-3.32,5.54-6.63,4.69-10.86-.47-2.33-3.47-2.74-5-1.33-.55.51-4.88,3.38-5.7,1.53v3c.45-.73,3.51-1.16,4.14-1.3,2.74-.62,3-5.36,0-5.79-1.33-.19-5.86-.43-6.53-1.92l-.47,3.64c.64-.83,5.22,0,5.64.1a3,3,0,0,0,2.31-5.49c-2.58-1.92-3-6.92,0-8.91,2.36-1.59,6.92,1.26,9.2,2.19,1.26.52,8.39,2.48,9,3.9.14.34-1.05,3.77-1.17,4.47-.7,3.82-1.72,7.6-2.74,11.34q-.82,3-1.71,6a22,22,0,0,0-.76,2.51l-.27.86c-.5,1.08-.25,1.06.74-.07-1.85-.74-3.79,1.12-3.8,2.89,0,9.37.53,18.73-.2,28.08a3,3,0,0,0,1.49,2.59c7,4.27,3.9,17.64,2,23.71a3,3,0,0,0,.77,2.92c3.43,3.74,6.72,7.58,9.92,11.51,1.06,1.3,3.13,1,4.24,0,5.17-4.63,10.51-9.06,16.11-13.15,5.41-4,10.83-5.09,17.37-6.18,14.08-2.34,28.37-2.91,42.62-2.81a3.06,3.06,0,0,0,3-3l.15-1.94-3,3c3.74.49,7.58,1.51,10.65-1,1.92-1.55.57-4.31-1.32-5a5.18,5.18,0,0,0-5.34-1.32,20,20,0,0,1,2,2.13c1.92,2.24,6-.14,5-2.92a20,20,0,0,1-1-3.11q.16-3.84-.67-1.86l-2.92.77c.76.13,1.78,3.73,2,4.31.87,2.5,5.28,3.18,5.78,0,.37-2.33,1.52-4.08,4-4.35,3.2-.34,3.53.84,4,3.64.69,4,.8,8.17,1.1,12.19C538.59,826.11,544.59,826.14,544.3,822.28Z"/><path class="l" d="M541.56,715.25l-69.18,25.49a152.93,152.93,0,0,1,26.81,22.6,314.41,314.41,0,0,0-55.4,34.36Q487.49,787,530.26,773c-11.86-11.21-22.82-16.12-34.69-27.33,17.71-9.56,32.13-21,46-30.41"/><path d="M540.76,712.36l-69.18,25.49a3,3,0,0,0-.71,5.48,156.54,156.54,0,0,1,26.2,22.13l.61-4.71a321.69,321.69,0,0,0-55.4,34.36c-2.56,2-1.23,6.35,2.31,5.48q43.68-10.74,86.47-24.71c2.05-.67,3.06-3.41,1.33-5-10.85-10-23.85-17.29-34.69-27.33l-.61,4.71c16.19-8.84,30.79-20,46-30.41,3.17-2.17.17-7.37-3-5.18-15.18,10.4-29.79,21.56-46,30.41a3,3,0,0,0-.61,4.72c10.85,10,23.85,17.28,34.69,27.32l1.33-5q-42.77,14-86.47,24.71l2.31,5.49a321.69,321.69,0,0,1,55.4-34.36c1.79-.88,1.85-3.41.61-4.71a164.43,164.43,0,0,0-27.43-23.07l-.71,5.49,69.17-25.5c3.6-1.32,2-7.12-1.59-5.78Z"/><line class="m" x1="517.14" y1="771.47" x2="466.82" y2="787.67"/></svg>