<svg xmlns="http://www.w3.org/2000/svg" viewBox="0 0 1020 540"><defs><style>.a{fill:#fffcd9;}.b,.j{fill:#fff;}.c{fill:#9bd9da;}.d{fill:#a7b733;}.e{fill:#c5d83e;}.f{fill:#00b997;}.g{fill:#f15a24;}.h{fill:#ffbc18;}.i{fill:#f88334;}.j{stroke:#000;stroke-miterlimit:10;stroke-width:2px;}</style></defs><title>q1</title><rect class="a" x="140.3" y="333.39" width="755.37" height="188.01"/><path d="M140.3,338.1q147.42-3.64,294.88-4.69t295.11.55q82.69.89,165.38,2.6c3.87.08,3.87-5.92,0-6q-147.46-3-295-3.49T305.6,328.83Q223,330,140.3,332.1c-3.85.1-3.87,6.1,0,6Z"/><path d="M158.82,386.27l136.9-1.8a1.5,1.5,0,0,0,0-3l-136.9,1.8c-1.93,0-1.93,3,0,3Z"/><path d="M715,386.27l136.9-1.8a1.5,1.5,0,0,0,0-3L715,383.27c-1.93,0-1.94,3,0,3Z"/><path d="M665.28,431l136.91-1.8c1.93,0,1.93-3,0-3L665.28,428a1.5,1.5,0,0,0,0,3Z"/><path d="M191.14,415,328,413.2c1.93,0,1.93-3,0-3L191.14,412a1.5,1.5,0,0,0,0,3Z"/><path class="b" d="M564.59,331.48l-45.1-.14-45.11.14s-53.3,54.66-64.75,113.34H629.35C617.9,386.14,564.59,331.48,564.59,331.48Z"/><path d="M564.59,327c-22.38-.07-44.77-.14-67.16-.07l-20.65.07a8.76,8.76,0,0,0-7.36,3.21,321,321,0,0,0-29.25,36.92c-15.83,23.12-29.31,48.85-34.88,76.52a4.56,4.56,0,0,0,4.34,5.69H629.35a4.56,4.56,0,0,0,4.34-5.69c-5.83-29-20.28-55.77-37.13-79.75-8.73-12.42-18.18-24.68-28.78-35.58-4-4.16-10.41,2.21-6.37,6.37a273.73,273.73,0,0,1,27.38,33.75c16.45,23.41,30.53,49.33,36.22,77.6l4.34-5.7H409.63L414,446c5.69-28.27,19.77-54.19,36.22-77.6a273.73,273.73,0,0,1,27.38-33.75L474.38,336c23.88-.07,47.75-.13,71.62-.06l18.59.06C570.39,336,570.39,327,564.59,327Z"/><path class="c" d="M163.66,301.55c2.21-8.81,10.63-14.64,19.15-16.14s17.2.46,25.63,2.42c6.81,1.58,13.76,3.23,19.67,7.13,6.69,4.41,11.47,11.34,16.09,18.1,3.58,5.25,7.25,10.71,8.46,17.05,2.07,10.93-3.59,22.14-2.08,33.18.79,5.86,3.58,11.28,4.29,17.16a24.75,24.75,0,0,1-7.48,20.78,21.84,21.84,0,0,1-20.52,4.95c-5.71,15-23.3,23.71-37.88,18.67-7.27-2.52-13.52-7.86-21-9.77-8.82-2.28-18.59.49-26.92-3.32-8.06-3.69-12.68-12.52-16.72-20.75-6.36-13-12.83-28.18-7.31-41.56,1.83-4.43,4.94-8.48,5.15-13.31.16-3.57-1.31-7-1.57-10.55-.73-10,8.05-17.88,16.52-22.52l.15-.09a30.37,30.37,0,0,1,25.11-1.87Z"/><path d="M166.55,302.35c5.49-18.8,28.53-14.63,42.8-11.23,8.53,2,16.48,4.67,22.75,11.11a94.79,94.79,0,0,1,14.21,19.69c4.87,8.77,3.74,17.1,2.17,26.57-1.29,7.83-1.44,14.83.85,22.48,2.5,8.33,4.35,16.23-.7,24.12a19.1,19.1,0,0,1-21,8.2,3.08,3.08,0,0,0-3.69,2.09c-5.07,12.45-19.65,20.89-32.94,17-7.6-2.24-13.78-7.72-21.42-9.94s-15.91-.44-23.71-2.21c-8.13-1.85-12.81-9-16.48-15.88-3.9-7.33-7.6-15-9.81-23-2.65-9.65-1.4-17.25,2.88-26.11a24.1,24.1,0,0,0,2.65-8.25c.39-4.37-1.66-8.44-1.53-12.76.25-8.31,7.81-14.43,14.47-18.17,7.87-4.43,16.41-4.62,24.77-1.55,3.63,1.33,5.2-4.47,1.6-5.79-15.35-5.62-32.77,0-42.44,13.23A21.91,21.91,0,0,0,117.81,322c-.65,4.91,1.74,9.35,1.42,14.16s-3.72,8.93-5.35,13.32a32.73,32.73,0,0,0-1.74,14.12c.83,9.67,4.73,18.73,8.9,27.38,3.7,7.68,7.72,16,14.8,21.14,7.89,5.73,17.15,4.38,26.29,5.09,10.31.8,17.68,8.17,27.32,10.95,16.71,4.82,34-5.67,40.31-21.16l-3.69,2.09a25.5,25.5,0,0,0,30.62-17.19c2.3-7.08,1.08-13.88-1-20.81-1.32-4.3-2.45-8.48-2.31-13,.15-4.75,1.25-9.41,2-14.09,1.16-7.66,1.07-14.83-2.22-22s-8.18-13.69-13-19.71c-10.46-13.07-25.81-17.11-41.79-19.59-15.07-2.35-32.71,1.59-37.52,18.07C159.68,304.47,165.47,306.06,166.55,302.35Z"/><path d="M162.89,309.84a11.63,11.63,0,0,0-11.83-2.31c-1.79.66-1,3.57.8,2.89a8.63,8.63,0,0,1,8.91,1.54c1.45,1.26,3.58-.85,2.12-2.12Z"/><path d="M145.4,309.11a14.22,14.22,0,0,0-9.75,2.94c-1.5,1.17,0,3.77,1.52,2.59a11.67,11.67,0,0,1,8.23-2.53c1.93.13,1.92-2.87,0-3Z"/><path d="M129.35,318.16l-4.29,5.43a1.57,1.57,0,0,0,0,2.13,1.52,1.52,0,0,0,2.12,0l4.29-5.43a1.57,1.57,0,0,0,0-2.13,1.52,1.52,0,0,0-2.12,0Z"/><path d="M154.83,314.11a14.7,14.7,0,0,0-10.1,4.47c-1.35,1.37.77,3.5,2.12,2.12a11.59,11.59,0,0,1,8-3.59c1.92-.06,1.93-3.06,0-3Z"/><path d="M138.78,322.69a29.82,29.82,0,0,0-5.55,10.16c-.58,1.84,2.31,2.63,2.89.8a26,26,0,0,1,4.78-8.84c1.22-1.47-.89-3.6-2.12-2.12Z"/><path d="M130.7,338.74A23.66,23.66,0,0,0,127.24,350c-.11,1.93,2.9,1.92,3,0a20.4,20.4,0,0,1,3-9.74c1-1.65-1.58-3.16-2.59-1.52Z"/><path d="M128.68,379.72l4.71,7.7c1,1.64,3.61.13,2.6-1.52l-4.72-7.69c-1-1.65-3.6-.14-2.59,1.51Z"/><path d="M142.09,333.72,139,346c-.47,1.87,2.42,2.67,2.89.8L145,334.51c.48-1.87-2.42-2.67-2.89-.79Z"/><path d="M135.19,355.88l0,8.6a1.5,1.5,0,0,0,3,0l0-8.6a1.5,1.5,0,0,0-3,0Z"/><path d="M136.76,378,141.9,387a1.5,1.5,0,0,0,2.59-1.51l-5.14-9.05a1.5,1.5,0,0,0-2.59,1.51Z"/><path d="M135.62,394.61l4.2,7.29a1.5,1.5,0,0,0,2.59-1.52l-4.2-7.29a1.5,1.5,0,0,0-2.59,1.52Z"/><path d="M147,397.91a14,14,0,0,0,6.21,7.29c1.69.94,3.2-1.65,1.51-2.59a10.74,10.74,0,0,1-4.83-5.5c-.7-1.77-3.6-1-2.89.8Z"/><path d="M161.71,320a13.54,13.54,0,0,0-8.31,7.85c-.75,1.78,2.15,2.56,2.89.8a10.27,10.27,0,0,1,6.22-5.76c1.83-.59,1-3.49-.8-2.89Z"/><path d="M151.82,334.31a22.93,22.93,0,0,0-4.11,10.7c-.24,1.91,2.76,1.9,3,0a19.87,19.87,0,0,1,3.7-9.18c1.14-1.57-1.46-3.07-2.59-1.52Z"/><path d="M145.12,353.62l.41,8.15c.1,1.92,3.1,1.93,3,0l-.41-8.15c-.1-1.92-3.1-1.93-3,0Z"/><path d="M149.68,375.65l2.57,5.43c.82,1.74,3.41.22,2.59-1.51l-2.57-5.43c-.83-1.75-3.42-.23-2.59,1.51Z"/><path d="M157.39,394.21a20.86,20.86,0,0,0,6.54,8.23c1.53,1.17,3-1.43,1.51-2.59a18,18,0,0,1-5.46-7.16c-.78-1.76-3.36-.24-2.59,1.52Z"/><path d="M170.06,403.55l7.28,6.34c1.45,1.26,3.58-.85,2.12-2.12l-7.28-6.34c-1.45-1.26-3.58.85-2.12,2.12Z"/><path d="M182.9,414.42a17.59,17.59,0,0,0,8.38,4.46c1.88.41,2.68-2.48.8-2.89A14.69,14.69,0,0,1,185,412.3c-1.4-1.32-3.53.8-2.12,2.12Z"/><path d="M165,323.8l-3,11.77c-.48,1.87,2.42,2.67,2.89.8l3-11.77c.48-1.87-2.41-2.67-2.89-.8Z"/><path d="M160.68,342.36,159,353.22c-.3,1.89,2.59,2.71,2.89.8l1.71-10.86c.3-1.89-2.59-2.7-2.89-.8Z"/><path d="M160.67,367.14l1.28,6.79c.36,1.9,3.25,1.1,2.89-.79l-1.28-6.79c-.36-1.9-3.25-1.1-2.89.79Z"/><path d="M165.47,382.48l4.67,8.17a1.5,1.5,0,0,0,2.59-1.51L168.06,381a1.5,1.5,0,0,0-2.59,1.52Z"/><path d="M178.19,396.32l6.43,6.79c1.33,1.4,3.45-.72,2.12-2.12l-6.43-6.79c-1.33-1.41-3.45.72-2.12,2.12Z"/><path d="M194,407.78l7.29,5.42c1.55,1.15,3-1.45,1.51-2.59l-7.29-5.42c-1.54-1.16-3,1.44-1.51,2.59Z"/><path d="M173.84,307a12.35,12.35,0,0,1,4.45-6.35c1.55-1.12.06-3.72-1.51-2.59a15.65,15.65,0,0,0-5.83,8.14c-.58,1.85,2.32,2.64,2.89.8Z"/><path d="M187.82,296.74l12-.46c1.92-.07,1.93-3.07,0-3l-12,.46c-1.92.07-1.93,3.07,0,3Z"/><path d="M172.07,319.22a5.18,5.18,0,0,1,2.4-4.08c1.63-1,.12-3.62-1.52-2.59a8.39,8.39,0,0,0-3.88,6.67c-.13,1.92,2.87,1.92,3,0Z"/><path d="M183,312.7l9.87-2.65a1.5,1.5,0,0,0-.8-2.89l-9.87,2.65a1.5,1.5,0,0,0,.8,2.89Z"/><path d="M205.81,307.12l10.72-.47c1.92-.09,1.93-3.09,0-3l-10.72.47c-1.92.08-1.93,3.08,0,3Z"/><path d="M207.53,298.55h9.85a1.5,1.5,0,0,0,0-3h-9.85a1.5,1.5,0,0,0,0,3Z"/><path d="M171.84,330l3,9.5c.58,1.84,3.47,1.05,2.89-.8l-3-9.5c-.58-1.83-3.48-1.05-2.9.8Z"/><path d="M169.88,346.32l1.07,7.25c.28,1.9,3.17,1.09,2.89-.8l-1.07-7.24c-.28-1.91-3.17-1.1-2.89.79Z"/><path d="M175.36,370l2.78,6.12c.8,1.75,3.38.23,2.59-1.52L178,368.49c-.8-1.75-3.38-.23-2.59,1.51Z"/><path d="M184.8,384.82l6.2,6.56c1.33,1.41,3.45-.72,2.13-2.12l-6.21-6.57c-1.33-1.4-3.45.72-2.12,2.13Z"/><path d="M204,400.44l5.35,3.17a1.5,1.5,0,0,0,1.52-2.59l-5.36-3.17a1.5,1.5,0,0,0-1.51,2.59Z"/><path d="M180.51,349.19l4.89,7.94c1,1.64,3.61.13,2.59-1.52l-4.89-7.94c-1-1.64-3.61-.13-2.59,1.52Z"/><path d="M190,367.05l3.86,6.34c1,1.64,3.6.14,2.59-1.52l-3.86-6.33a1.5,1.5,0,0,0-2.59,1.51Z"/><path d="M204.77,385.22l4.5,5.43c1.24,1.48,3.35-.65,2.12-2.13l-4.5-5.42c-1.24-1.49-3.35.64-2.12,2.12Z"/><path d="M218.68,398.36l2.79,2.94c1.33,1.4,3.44-.72,2.12-2.12l-2.79-2.95c-1.33-1.4-3.45.72-2.12,2.13Z"/><path d="M183.42,325.72l3.86,2.94a1.5,1.5,0,0,0,2.05-.53,1.55,1.55,0,0,0-.54-2.06l-3.85-2.94a1.5,1.5,0,1,0-1.52,2.59Z"/><path d="M196.58,335.15l3.24,5.64a1.5,1.5,0,0,0,2.59-1.52l-3.24-5.63a1.5,1.5,0,0,0-2.59,1.51Z"/><path d="M205,350.76a38.34,38.34,0,0,1,3.7,8.24c.58,1.83,3.48,1.05,2.9-.8a42.1,42.1,0,0,0-4-9,1.5,1.5,0,0,0-2.59,1.52Z"/><path d="M213.53,367.72l3.65,7.47c.84,1.73,3.43.21,2.59-1.52l-3.65-7.46c-.84-1.74-3.43-.22-2.59,1.51Z"/><path d="M223.79,384l2.72,6.37c.75,1.77,3.34.24,2.59-1.52l-2.72-6.37c-.75-1.77-3.34-.24-2.59,1.52Z"/><path d="M202.83,325.26l3.64,2.94a1.54,1.54,0,0,0,2.12,0,1.51,1.51,0,0,0,0-2.12L205,323.14a1.55,1.55,0,0,0-2.12,0,1.5,1.5,0,0,0,0,2.12Z"/><path d="M216.32,340.11l4.31,9.5c.79,1.75,3.38.23,2.59-1.52l-4.31-9.49c-.79-1.76-3.38-.24-2.59,1.51Z"/><path d="M226.82,362.18l2.31,5.91c.7,1.78,3.6,1,2.89-.8l-2.31-5.9c-.69-1.78-3.59-1-2.89.79Z"/><path d="M232.86,379.14l1.29,5.66c.43,1.88,3.32,1.08,2.89-.8l-1.28-5.66c-.43-1.88-3.33-1.08-2.9.8Z"/><path d="M196.79,316.59a23.29,23.29,0,0,1,8.84.45c1.88.45,2.68-2.44.8-2.89a27.39,27.39,0,0,0-10.44-.46c-1.9.28-1.09,3.17.8,2.9Z"/><path d="M215.08,316.32l5.36,2.24a1.52,1.52,0,0,0,1.85-1.05,1.55,1.55,0,0,0-1-1.85l-5.37-2.23a1.5,1.5,0,0,0-1.84,1.05,1.52,1.52,0,0,0,1.05,1.84Z"/><path d="M226.38,329.57a15.43,15.43,0,0,1,4,6.33c.6,1.83,3.5,1,2.9-.8a18.75,18.75,0,0,0-4.73-7.65c-1.38-1.35-3.5.77-2.12,2.12Z"/><path d="M235.22,348.81l1.28,4.08c.58,1.83,3.48,1.05,2.9-.8L238.11,348c-.58-1.84-3.47-1-2.89.79Z"/><path d="M240.63,367.81l1.29,8.38c.29,1.9,3.18,1.09,2.89-.8L243.52,367c-.29-1.91-3.18-1.1-2.89.79Z"/><path d="M242.72,390.79l-1.5,3.62a1.5,1.5,0,0,0,1.05,1.84,1.53,1.53,0,0,0,1.84-1l1.5-3.63a1.51,1.51,0,0,0-1.05-1.84,1.53,1.53,0,0,0-1.84,1.05Z"/><path d="M223.84,308.67a5.68,5.68,0,0,1,4,3.17c.86,1.72,3.45.21,2.59-1.52a8.55,8.55,0,0,0-5.82-4.55c-1.88-.39-2.69,2.51-.8,2.9Z"/><path d="M234.3,318.62A40.39,40.39,0,0,1,238,326c.68,1.78,3.58,1,2.9-.8a43.8,43.8,0,0,0-4-8.05c-1-1.63-3.63-.12-2.59,1.51Z"/><path d="M241,336.36l1.5,7.24c.4,1.89,3.29,1.09,2.9-.79l-1.51-7.24c-.39-1.89-3.28-1.09-2.89.79Z"/><path class="d" d="M772.65,360.36c.59-3.91-1.27-8.32-1.89-12.37a51.39,51.39,0,0,1,2.12-24.05c2.19-6.8,13.91-27.39,22.1-14.08-14.42-8.38,2.57-32.72,11.29-36.79,8.4-3.91,35.39-4.27,32.1,13-1.52-28.32,48.13-15.68,45.93,10.69-.28,3.37-6.67,21.34-10,11.06-2.68-8.28,7.71-12.34,12.79-10.52,13.08,4.68,17.21,24.85,11.3,36.67-4.51,9-7.59,2.47-3.49-4.35,11.37-18.9,36.31,5.2,23.79,15.5A6.11,6.11,0,0,1,923,337.2c5.6-1.57,12.1,6.41,14.59,11.11,4.84,9.13,4,18.45,0,27.46-3,6.63-10.8,21.06-19.56,19.34-10.36-2-2.16-22.06,1.71-3.81,4.63,21.81-22.28,43.56-39.41,27.82-13-11.94,3.94-21.39,5.38-4.2,2.3,27.58-36.26,21.6-48.46,11-2.63-2.29-13.35-14.88-10.86-19.63s5.6,2.72.38,7.19c-16.64,14.23-41.48-10.24-39.69-30,.25-2.69,3.35-11.81,7.06-6.46s-9.21,7.45-11.08,7.11c-9.8-1.82-13.64-15.91-7.72-23.66"/><path d="M775.65,360.36c.49-6.52-2.39-12.84-2.46-19.41a45.63,45.63,0,0,1,3.34-18.21c2.1-4.91,10.15-19.89,15.86-11.37l4.1-4.1c-11.43-7.27,3-28.39,12-31.87,8-3.09,29-3.09,27,9.87l5.89.8C841,275,850.31,271.53,860,273.6s20.11,9.07,21.32,19.57c.61,5.2-2.12,9.23-4.07,13.79-.18.42-.66.68-.87,1.05l.64,0c.88.22.95-.12.21-1,.32-2.09-.7-3,1.11-4.88a8.27,8.27,0,0,1,9.32-1.36c6.73,3.31,9.82,11.64,10.33,18.67a28.18,28.18,0,0,1-.89,9.63c-.47,1.69-2.53,4.17-2.61,5.6l-.53.71c1.49.74,2.22.55,2.18-.59.64-.74.8-2.64,1.39-3.66,8-13.89,28.65,3.32,19.07,11.86l5,1.32c-1.79-7.3,6.59-2.94,8.68-.87a26.56,26.56,0,0,1,6.23,9.95c2.94,8.26.6,16.87-3.27,24.38-2.52,4.9-6.1,11.73-11.51,13.91-1.92.77-4.28.87-5.41-1.15-.71-1.26.49-3.37.09-4.12-.3-.57-1.44.47-1.41.38-.06.18.63,1.09.68,1.33.33,1.63,1,3.16,1.25,4.83a22.48,22.48,0,0,1-.67,9.85,27.41,27.41,0,0,1-11.1,14.91c-4.9,3.22-11,4.89-16.75,2.92-2.54-.88-13.14-7.61-9.73-11.51,2.78-3.18,4.07,6.91,4.07,8,0,4.39-1.41,8.56-5,11.24-6.8,5-17.28,3.83-24.9,1.79A33,33,0,0,1,832.74,416a58.55,58.55,0,0,1-3.62-6.87c-.62-1.21-.85-3.42-2.66-1.28-.25.3-.36,1.61-.61,2.06a8.76,8.76,0,0,1-3.09,2.73c-5.06,3.11-11,2.37-16-.36-10-5.41-20.72-20.48-15.61-32.22.82-1.88,1.52-1.44-.06-.86-1.18.43-2.23,1-3.47,1.35-2.45.66-4.43,1-6.71-.34-6.18-3.62-6.81-12.74-3-18.19,2.21-3.18-3-6.18-5.18-3-5.3,7.65-3.89,19.42,3.53,25.26,5.32,4.18,15.28,3.81,19.94-1.54,5.48-6.29-4.9-14.58-9.74-6.55-4.76,7.88-2.06,18.27,2.1,25.77,4.59,8.3,12.58,16.07,22.08,18.21,8.09,1.82,20.93-1.66,21.86-11.5.29-3.06-1.17-7.24-4.94-6.81-3.6.41-4.84,4.63-4.4,7.66,1,7.24,7.88,15.62,13.63,19.9,11,8.2,31.08,12.29,43.33,4.62,6.82-4.28,9.31-12,8.49-19.76-.61-5.82-5.49-15.36-12.76-10.6s-1.49,14.42,3.33,18.46c7.8,6.51,18.27,6.74,27,2a33,33,0,0,0,16.72-23.7c.68-4.62,0-22.25-8.71-19.49-5.95,1.89-5,11.55-1.25,14.94,7.71,7,17.18-2.11,21.49-8.31,6.75-9.72,11.59-22.17,8.41-34-2.17-8.13-11.41-23.2-21.84-18.75-4.51,1.92-6.29,6.56-5.17,11.14a3,3,0,0,0,5,1.32c14.47-12.92-9.92-35.83-24.11-24.29-3.73,3-7.18,8.42-6.69,13.43.4,4,4,6.46,7.48,3.81,8.58-6.46,7.54-22.68,4.13-31.4-3.51-9-12.46-17.86-22.8-13.85-4.43,1.72-8,5.54-8,10.53.06,3.46,2,8.7,6.25,8.46,6.58-.37,10.14-13.29,10.25-18.54.18-8.63-4.88-16.2-11.63-21.16-13.71-10.08-41.14-11.18-40.37,11.84.11,3.21,5.35,4.28,5.9.79,3-18.79-21.73-22.07-35-17-13.87,5.29-29,32.31-12.84,42.62,2.48,1.57,5.78-1.61,4.11-4.11-7.81-11.65-18.22-2.59-23.53,6.25a47.61,47.61,0,0,0-6.23,17.86,52.82,52.82,0,0,0-.28,13.76c.53,4.74,2.48,9.36,2.12,14.15-.3,3.85,5.71,3.83,6,0Z"/><path class="e" d="M813.4,310.71c-1-6.4-6.95-16.81-11.84-19.23-6.53-3.22-17.25-1.39-24.43-.12,5.09,9,9.44,18.6,18.66,22.8,5.53,2.53,13.77.08,19.56-1.13a7.17,7.17,0,0,0-.86-1.47"/><path d="M814.85,310.32c-1.36-7-5.7-16.19-12.12-19.89-7.49-4.33-18-1.92-26-.52a1.52,1.52,0,0,0-.9,2.21c4.21,7.51,8.13,16,15.35,21.1,7.64,5.43,16.08,3.09,24.56,1.25a1.52,1.52,0,0,0,.9-2.2,7.29,7.29,0,0,0-.87-1.47c-1.06-1.6-3.66-.1-2.59,1.51a7.29,7.29,0,0,1,.87,1.47l.89-2.2c-8.73,1.9-16.88,4.08-24.19-2.55-5.5-5-8.76-12-12.33-18.43l-.9,2.21c7-1.23,17.12-3.63,23.68.21,5.68,3.31,9.55,11.94,10.74,18.09.37,1.9,3.26,1.09,2.9-.79Z"/><path d="M813.18,309.8c-10.19-2.75-18.31-9.5-26.22-16.19-1.47-1.24-3.6.87-2.12,2.12,8.31,7,16.84,14.07,27.54,17a1.51,1.51,0,0,0,.8-2.9Z"/><path d="M793.08,299.73a17.13,17.13,0,0,1-7,1c-1.93-.13-1.92,2.87,0,3a19.21,19.21,0,0,0,7.81-1.09c1.81-.65,1-3.55-.79-2.89Z"/><path d="M797.37,303.61a13.22,13.22,0,0,1-5.9,3.39,1.5,1.5,0,0,0,.79,2.89,16.2,16.2,0,0,0,7.23-4.16c1.38-1.36-.75-3.48-2.12-2.12Z"/><path d="M803.63,306.86a24.69,24.69,0,0,1-5.56,3c-1.79.67-1,3.57.8,2.89a28,28,0,0,0,6.27-3.29c1.57-1.11.07-3.71-1.51-2.6Z"/><path d="M797.7,303A16.23,16.23,0,0,0,791,290.58c-1.57-1.12-3.07,1.48-1.51,2.59A13,13,0,0,1,794.7,303c.11,1.92,3.11,1.93,3,0Z"/><path d="M803.53,307.18c.74-1.81.06-3.76-.54-5.52a36.11,36.11,0,0,0-2.77-6.19c-.94-1.69-3.53-.18-2.59,1.51a32.65,32.65,0,0,1,2.22,4.76c.49,1.36,1.36,3.23.79,4.64-.72,1.79,2.18,2.57,2.89.8Z"/><path class="e" d="M859.49,351.09c3.91-4.74,7.52-16.1,6.08-21.74-1.91-7.53-10.13-15.6-15.66-21-3.14,9.79-7.19,19.3-4.24,29.73,1.77,6.26,8.83,11.83,13.43,16.06a7.49,7.49,0,0,0,.49-1.63"/><path d="M860.79,351.85c4.34-5.67,7.63-14.76,6.41-22-1.52-9-10-16.53-16.23-22.58a1.52,1.52,0,0,0-2.51.67c-3,9.22-6.79,18.83-4.69,28.69,1.72,8,8.48,13.29,14.27,18.55a1.52,1.52,0,0,0,2.51-.66,7.84,7.84,0,0,0,.49-1.63c.45-1.87-2.44-2.67-2.89-.8a7.51,7.51,0,0,1-.5,1.63l2.51-.66c-5.4-4.9-11.87-9.73-13.49-17.23-2-9.21,1.88-18.49,4.68-27.1l-2.5.66c5.66,5.51,13.55,12.24,15.28,20.32,1.42,6.66-1.93,15.36-5.93,20.59-1.18,1.53,1.43,3,2.59,1.51Z"/><path d="M860,350.13c-4.51-10.17-5-21.3-5.3-32.26-.06-1.93-3.06-1.93-3,0,.35,11.55,1,23.06,5.71,33.77.78,1.76,3.37.24,2.59-1.51Z"/><path d="M854.2,327a19.37,19.37,0,0,1-5-5.19c-1.06-1.61-3.66-.1-2.59,1.51a23.33,23.33,0,0,0,6.06,6.27c1.58,1.11,3.08-1.49,1.51-2.59Z"/><path d="M854.55,333.18a13.83,13.83,0,0,1-6.27-2.95c-1.48-1.22-3.61.89-2.12,2.12a16.76,16.76,0,0,0,7.59,3.72c1.89.37,2.69-2.52.8-2.89Z"/><path d="M855.9,340.39a26.55,26.55,0,0,1-5.7-3c-1.6-1.1-3.1,1.5-1.52,2.59a29.56,29.56,0,0,0,6.42,3.31c1.81.68,2.59-2.22.8-2.89Z"/><path d="M854.94,332.79a15.68,15.68,0,0,0,4.53-12.92c-.19-1.9-3.19-1.92-3,0a12.87,12.87,0,0,1-3.65,10.8c-1.39,1.35.74,3.47,2.12,2.12Z"/><path d="M855.4,340.48c1.89-.44,2.88-2.17,3.78-3.75a34.55,34.55,0,0,0,2.76-6.37c.6-1.84-2.3-2.63-2.89-.8a30.12,30.12,0,0,1-1.87,4.56c-.53,1-1.33,3.17-2.58,3.47-1.88.44-1.08,3.34.8,2.89Z"/><path class="e" d="M854.1,297c-.29-5.51-4.38-14.91-8.3-17.47-5.25-3.42-14.5-3-20.69-2.74,3.5,8.12,6.32,16.67,13.75,21.21,4.47,2.72,11.66,1.55,16.69,1.16a7,7,0,0,0-.6-1.34"/><path d="M855.6,297c-.56-6.14-3.24-14-8.16-18.09-5.8-4.81-15.36-3.95-22.33-3.62a1.52,1.52,0,0,0-1.29,2.25c3.06,7.2,5.79,15.19,12.13,20.22,5.74,4.55,12.76,3.49,19.6,2.9a1.53,1.53,0,0,0,1.29-2.26l-.6-1.33c-.79-1.76-3.38-.24-2.59,1.51l.6,1.33,1.3-2.25c-7.21.62-14.12,1.77-19.67-4-4.65-4.85-6.9-11.57-9.47-17.63l-1.3,2.26c6.06-.28,14-1.13,19.38,2.21,4.94,3.08,7.61,11,8.11,16.5.17,1.91,3.17,1.92,3,0Z"/><path d="M853.92,296c-8.33-3.39-14.58-10.06-20.62-16.48-1.33-1.41-3.45.71-2.12,2.12,6.46,6.86,13.07,13.64,22,17.25,1.78.73,2.56-2.17.79-2.89Z"/><path d="M837.67,285.4a13.62,13.62,0,0,1-5.58.07c-1.88-.37-2.69,2.52-.79,2.89a17.32,17.32,0,0,0,7.17-.07c1.89-.42,1.09-3.31-.8-2.89Z"/><path d="M841.2,289a11.34,11.34,0,0,1-5.54,2.33,1.51,1.51,0,0,0-1,1.84,1.54,1.54,0,0,0,1.85,1.05,13.08,13.08,0,0,0,6.25-2.63,1.54,1.54,0,0,0,.54-2.05,1.51,1.51,0,0,0-2-.54Z"/><path d="M845.93,292.61a20.68,20.68,0,0,1-4.93,1.86c-1.88.45-1.09,3.34.79,2.89a23.54,23.54,0,0,0,5.66-2.16c1.7-.91.19-3.5-1.52-2.59Z"/><path d="M841.71,288.7a14.14,14.14,0,0,0-4.51-11.1c-1.42-1.3-3.55.82-2.12,2.12a11.2,11.2,0,0,1,3.63,9c-.08,1.93,2.92,1.93,3,0Z"/><path d="M846.16,293.25c1.68-3.09-.48-7.82-1.73-10.74-.75-1.77-3.34-.25-2.59,1.51a26.71,26.71,0,0,1,1.32,3.9c.26,1,1,2.83.41,3.82-.92,1.7,1.67,3.21,2.59,1.51Z"/><path class="e" d="M880.94,369.18c3.31,5.47,12.53,12.45,17.84,12.5,7.1.06,16.09-6.41,22.09-10.78-7.93-6-15.43-13-25.31-12.76-5.93.14-12.46,6.07-17.24,9.78a7,7,0,0,0,1.33,1"/><path d="M879.65,369.94c3.75,5.74,10.91,12.23,18,13.14,8.62,1.1,17.51-6.19,24-10.89a1.53,1.53,0,0,0,0-2.59c-6.91-5.31-14-11.74-23-12.8-8.6-1-15.05,5.11-21.35,10.06a1.5,1.5,0,0,0,0,2.12,16,16,0,0,0,1.63,1.21c1.63,1,3.13-1.55,1.51-2.59l-1-.74V369c6.56-5.16,12.79-11,21.73-8.66,7.26,1.91,13.21,7.41,19,11.87V369.6c-5.75,4.19-12.86,10-20.24,10.48-6.77.41-14.18-6.38-17.63-11.65-1-1.61-3.65-.11-2.59,1.51Z"/><path d="M881.7,369.86c10.09-1.94,19.94.66,29.63,3.33a1.5,1.5,0,0,0,.8-2.89c-10.26-2.83-20.57-5.38-31.22-3.33-1.9.36-1.1,3.25.79,2.89Z"/><path d="M903.54,370.18a16.93,16.93,0,0,1,5.65-3.88c1.76-.72,1-3.63-.8-2.89a20.62,20.62,0,0,0-7,4.64c-1.36,1.38.76,3.51,2.12,2.13Z"/><path d="M898.15,368.49a14.79,14.79,0,0,1,4.13-5.75c1.47-1.26-.66-3.38-2.12-2.12a17.83,17.83,0,0,0-4.9,7.08c-.71,1.79,2.19,2.57,2.89.79Z"/><path d="M891.33,368.28a27.18,27.18,0,0,1,3.93-5.24c1.34-1.39-.78-3.52-2.12-2.12a30.59,30.59,0,0,0-4.4,5.85,1.5,1.5,0,0,0,2.59,1.51Z"/><path d="M898,369.37a14.67,14.67,0,0,0,10.45,8.33c1.89.34,2.7-2.55.8-2.9a11.9,11.9,0,0,1-8.66-6.94c-.82-1.75-3.41-.23-2.59,1.51Z"/><path d="M891.12,367.77c0,2.07,1.32,3.62,2.61,5.11a32.42,32.42,0,0,0,4.91,4.53c1.53,1.18,3-1.43,1.51-2.59a28.89,28.89,0,0,1-3.53-3.2c-.93-1-2.53-2.39-2.5-3.85,0-1.93-3-1.93-3,0Z"/><path class="e" d="M815.82,387.09c5.26,3.12,16.29,4.45,20.9,1.69,6.15-3.69,11.07-14.19,14.33-21.24-9.51-1.19-19-3.4-27.47,2-5.07,3.25-8.09,12-10.58,17.79a5.94,5.94,0,0,0,1.57.16"/><path d="M815.06,388.38c6,3.24,15.66,5.22,22,1.91,7.76-4.06,11.83-14.53,15.28-22a1.52,1.52,0,0,0-1.29-2.26c-9.11-1.19-19.09-3.22-27.48,1.78-6.56,3.93-9.05,12.11-11.87,18.77a1.53,1.53,0,0,0,1.3,2.26l1.57.16c1.92.21,1.9-2.79,0-3l-1.57-.16,1.29,2.26c2.57-6.09,4.87-14,10.8-17.69,7.7-4.76,17.59-2.47,26-1.38l-1.3-2.26c-3,6.56-6.18,14.27-11.73,19.14s-15.45,3.12-21.45-.13c-1.69-.92-3.21,1.67-1.51,2.59Z"/><path d="M816.85,387.28c7.65-6.91,17.37-9.93,27.08-12.72a1.5,1.5,0,0,0-.8-2.89c-10.25,2.95-20.34,6.21-28.4,13.48-1.44,1.3.69,3.42,2.12,2.13Z"/><path d="M835.83,376.06a20.36,20.36,0,0,1,3.42-6.76c1.17-1.53-1.43-3-2.59-1.51a22.59,22.59,0,0,0-3.73,7.47,1.51,1.51,0,0,0,2.9.8Z"/><path d="M830.45,377.8a17.51,17.51,0,0,1,1-7.69c.67-1.81-2.23-2.6-2.89-.8a19.49,19.49,0,0,0-1.13,8.49c.16,1.91,3.16,1.93,3,0Z"/><path d="M824.43,380.82a32,32,0,0,1,1.11-6.73,1.5,1.5,0,0,0-2.89-.8,35.43,35.43,0,0,0-1.22,7.53c-.1,1.93,2.9,1.92,3,0Z"/><path d="M830.68,378.17a13.33,13.33,0,0,0,12.77,1.9c1.79-.68,1-3.58-.8-2.89a10.56,10.56,0,0,1-10.45-1.6c-1.55-1.15-3.05,1.45-1.52,2.59Z"/><path d="M824,380.43c.78,1.64,2.38,2.3,4,2.93A29.25,29.25,0,0,0,834.8,385c1.91.25,1.89-2.76,0-3a26.34,26.34,0,0,1-4.71-1.08c-1.19-.39-2.94-.8-3.52-2-.83-1.75-3.41-.23-2.59,1.51Z"/><path class="e" d="M884.75,394.49c.69,4.26,4.64,11.17,7.89,12.76,4.34,2.14,11.46.91,16.23.05-3.39-6-6.29-12.34-12.42-15.12-3.68-1.68-9.15,0-13,.77a4.78,4.78,0,0,0,.58,1"/><path d="M883.3,394.89c1,4.86,4,11.17,8.58,13.66,5.1,2.75,12,1.15,17.39.2a1.51,1.51,0,0,0,.89-2.2c-2.85-5.09-5.56-10.86-10.51-14.27-5.2-3.57-10.87-2-16.6-.77a1.5,1.5,0,0,0-.89,2.2l.57,1a1.5,1.5,0,0,0,2.59-1.52l-.57-1-.9,2.2c5.91-1.31,11.31-2.68,16.09,2,3.32,3.26,5.38,7.64,7.63,11.65l.9-2.2c-4.32.76-10,2.07-14.29.41s-7.08-7.93-8-12.18c-.4-1.89-3.3-1.09-2.9.8Z"/><path d="M884.76,395.58c6.7,1.81,12,6.21,17.22,10.6,1.47,1.23,3.6-.88,2.12-2.12-5.6-4.72-11.34-9.43-18.54-11.37a1.5,1.5,0,0,0-.8,2.89Z"/><path d="M898.4,402.25a10.76,10.76,0,0,1,4.53-.64c1.92.12,1.92-2.88,0-3a13.07,13.07,0,0,0-5.33.75c-1.8.65-1,3.55.8,2.89Z"/><path d="M895.77,399.55a8.09,8.09,0,0,1,3.69-2.13,1.51,1.51,0,0,0-.8-2.9,11.37,11.37,0,0,0-5,2.91c-1.37,1.36.75,3.48,2.13,2.12Z"/><path d="M891.5,397.47a16.29,16.29,0,0,1,3.57-2,1.53,1.53,0,0,0,1-1.84,1.51,1.51,0,0,0-1.85-1.05,19.22,19.22,0,0,0-4.28,2.25,1.54,1.54,0,0,0-.54,2.05,1.51,1.51,0,0,0,2,.54Z"/><path d="M894.69,399.57a11.33,11.33,0,0,0,4.73,8.7c1.58,1.13,3.08-1.48,1.52-2.59a8.09,8.09,0,0,1-3.25-6.11c-.12-1.91-3.12-1.93-3,0Z"/><path d="M890.83,396.69a5.64,5.64,0,0,0,.36,3.93,25.18,25.18,0,0,0,1.9,4.24c.94,1.68,3.54.17,2.59-1.52a20.06,20.06,0,0,1-1.43-3c-.29-.8-.87-2-.53-2.81.72-1.79-2.18-2.57-2.89-.8Z"/><path class="e" d="M888,335.5c3.82,1.16,11.1.2,13.68-2.36,3.44-3.42,5.16-11.07,6.28-16.21-6.29.8-12.71.95-17.39,5.87-2.81,3-3.54,9.14-4.35,13.34a4,4,0,0,0,1-.15"/><path d="M887.61,337c4.58,1.14,11.1.74,14.83-2.49,4.56-4,5.75-11.58,7-17.13.19-.84-.42-2-1.44-1.9-5.86.71-12.09,1.05-16.88,4.9s-5.28,9.87-6.3,15.41a1.52,1.52,0,0,0,1.84,1.84l1-.15c1.9-.28,1.09-3.17-.8-2.89l-1,.15,1.84,1.85c.8-4.33,1.14-10,4.48-13.17,4.18-4,10.37-4.28,15.81-4.94l-1.45-1.9c-1,4.59-1.92,9.83-4.55,13.81-2.76,4.16-9,4.85-13.56,3.72-1.87-.47-2.67,2.42-.8,2.89Z"/><path d="M889.17,335.69c3.87-5.65,9.68-9.19,15.49-12.58a1.5,1.5,0,0,0-1.51-2.59c-6.3,3.67-12.38,7.54-16.57,13.66-1.1,1.6,1.5,3.1,2.59,1.51Z"/><path d="M899.87,325a13.11,13.11,0,0,1,1.11-4.48,1.55,1.55,0,0,0-.54-2.05,1.51,1.51,0,0,0-2.05.54,17.24,17.24,0,0,0-1.52,6c-.14,1.92,2.86,1.91,3,0Z"/><path d="M896.62,326.88a10.78,10.78,0,0,1-.43-4.65,1.53,1.53,0,0,0-1-1.84,1.5,1.5,0,0,0-1.85,1,14.2,14.2,0,0,0,.43,6.25c.56,1.84,3.45,1.05,2.89-.8Z"/><path d="M893.17,329.84a21.26,21.26,0,0,1-.19-4.44c.11-1.92-2.89-1.92-3,0a24.2,24.2,0,0,0,.3,5.24,1.5,1.5,0,0,0,1.84,1,1.53,1.53,0,0,0,1-1.84Z"/><path d="M895.89,327.56a9.34,9.34,0,0,0,9.22-.79c1.57-1.1.08-3.7-1.51-2.59a6.3,6.3,0,0,1-6.19.79c-1.76-.75-3.29,1.83-1.52,2.59Z"/><path d="M892,330.17c1.61,2,5.47,1.63,7.72,1.36,1.89-.23,1.91-3.23,0-3a18.08,18.08,0,0,1-3,.13c-.79,0-2,0-2.57-.61-1.22-1.5-3.33.63-2.12,2.12Z"/><path class="e" d="M827.51,345.38c-2.68-3.22-9.38-6.75-12.85-6.17-4.64.78-9.89,6.09-13.39,9.66,5.76,3.07,11.33,6.77,17.76,5.47,3.87-.77,7.55-5.44,10.32-8.43a4.15,4.15,0,0,0-1-.49"/><path d="M828.57,344.32c-3.24-3.5-8.9-7.15-13.91-6.61-5.76.62-10.68,6.26-14.45,10.1a1.52,1.52,0,0,0,.3,2.36c5.24,2.83,10.9,6.45,17.13,5.87,5.64-.53,9.21-5.16,12.77-9.07a1.52,1.52,0,0,0-.3-2.36l-1-.49c-1.72-.87-3.24,1.72-1.52,2.59l1,.49-.3-2.35c-3.06,3.37-6.17,7.72-11,8.15-5.53.48-10.57-2.9-15.24-5.42l.31,2.35c3.15-3.21,7-7.8,11.55-9s9.7,2.41,12.57,5.5c1.32,1.41,3.44-.71,2.12-2.12Z"/><path d="M827,344.48c-6.43,2.43-13.09,1.92-19.8,1.27-1.92-.18-1.9,2.82,0,3,7,.67,13.93,1.14,20.6-1.38,1.79-.67,1-3.58-.8-2.89Z"/><path d="M812.16,347.16a11.06,11.06,0,0,1-3.17,3c-1.63,1-.13,3.62,1.51,2.59a14.62,14.62,0,0,0,4.25-4.08,1.51,1.51,0,0,0-.54-2.05,1.52,1.52,0,0,0-2.05.54Z"/><path d="M815.88,347.52a9.76,9.76,0,0,1-2,4.09,1.54,1.54,0,0,0,0,2.12,1.51,1.51,0,0,0,2.12,0,12.89,12.89,0,0,0,2.72-5.41c.43-1.88-2.46-2.68-2.89-.8Z"/><path d="M820.29,347.12a18.59,18.59,0,0,1-2,3.78,1.51,1.51,0,0,0,.53,2.05,1.54,1.54,0,0,0,2.06-.53,22.32,22.32,0,0,0,2.33-4.5,1.5,1.5,0,0,0-1-1.84,1.54,1.54,0,0,0-1.85,1Z"/><path d="M816.86,347.12a10.09,10.09,0,0,0-8.28-4.66,1.5,1.5,0,0,0,0,3,6.92,6.92,0,0,1,5.69,3.18c1.07,1.59,3.67.09,2.59-1.52Z"/><path d="M821.53,347.66c-.38-2.84-3.65-4.77-6-6-1.7-.91-3.22,1.68-1.52,2.59a19.17,19.17,0,0,1,2.51,1.57c.37.28.73.58,1.07.89s.87.64.92,1a1.54,1.54,0,0,0,1.5,1.5,1.52,1.52,0,0,0,1.5-1.5Z"/><path class="f" d="M903.32,404.93a37.92,37.92,0,0,0-10.59-37.62c-4.38-4-10.79-7-16.16-4.48-4.17,2-6.38,6.8-6.53,11.4s1.35,9.09,2.85,13.45c-3.46-5.82-9.87-10-16.64-10S842.72,382,840.62,388.4s1.19,14.35,7.47,16.85a25.38,25.38,0,0,0-24.88-.68c-4.52,2.45-8.46,6.82-8.58,12-.1,4.21,2.41,8.15,5.67,10.81s7.25,4.26,11.17,5.82c-4.57-3.69-12.05-2.23-15.6,2.45s-3.35,11.55-.3,16.57,8.51,8.24,14.22,9.58c-2.16-1.51-5.38-.45-6.94,1.68s-1.8,4.94-1.6,7.57a27.66,27.66,0,0,0,19.67,23.9c1.14.31,2.54.5,3.38-.34,1.16-1.17-.06-3.46-1.71-3.51a3.42,3.42,0,0,0-3.16,3.19,7.41,7.41,0,0,0,1.43,4.63c5.85,9.23,20.2,11.54,28.65,4.6-3.21,3.42-1.36,9.5,2.55,12.1s9,2.58,13.63,2.08c6.06-.65,12.45-2.19,16.59-6.67s4.65-12.64-.36-16.12c8.06,3.64,17.2,6,25.72,3.66s15.86-10.57,14.7-19.33c-1.13-8.48-9.14-14.17-16.8-17.95,6.83,1.17,13.91,2.34,20.62.6s13-7.26,13.25-14.18c.24-5.93-3.84-11.24-8.61-14.76-3.24-2.4-7.09-4.29-11.12-4.17s-8.17,2.72-9.06,6.65a35.87,35.87,0,0,0,15.77-13.32c2.37-3.64,4.06-8.39,2.06-12.25-1.85-3.56-6.16-5-10.14-5.55-9.1-1.22-17.29,6.13-16,2.1s-1.85-8.84-6.06-9.33-13,3.64-12.94,7.88"/><path d="M906.22,405.73c4.13-15.62-1.28-34.94-15.59-43.75-6.34-3.91-14.74-4.5-19.82,1.73-5.93,7.27-3.56,16.72-.81,24.77l5.48-2.32c-6.94-10.76-21.38-15.61-32-6.88-9.39,7.72-8.27,23.28,3.1,28.56,3.44,1.6,6.44-3.24,3-5.18-11-6.24-27-5.44-34.92,5.38a14.54,14.54,0,0,0-.65,16.67c3.71,6.05,10.32,8.82,16.63,11.35,3.35,1.34,4.91-3.67,2.31-5.48-8.86-6.18-20.73,0-22.45,10.21-2,12.07,7.66,21,18.47,23.87,3.17.83,5.48-4,2.31-5.48-5.49-2.59-11.1.48-12.65,6.3s.46,12.74,3.35,17.89A30.93,30.93,0,0,0,835.39,496c3.58,1.72,11.22,4.33,12.28-1.84.87-5.06-5.11-7.56-8.73-4.73-4.68,3.65-1.89,10,1.29,13.58,7.6,8.62,21.7,10,30.8,3.06l-4.11-4.1c-3.81,5-1.8,12.11,3,15.73,5.86,4.41,14.35,3.56,21.11,2.17,6.58-1.36,13.38-4.64,16.15-11.14,2.33-5.47,1.62-12.09-3.16-16l-3.63,4.71c13.91,6.08,32.6,8.46,42-6.36,8.89-14-3.38-26.37-15.37-32.44l-2.31,5.48c9.27,1.58,19.56,3.19,28.1-1.86,6.65-3.93,11-11.23,9.06-19-3.24-13.19-28.2-27-34.17-8.67-.88,2.72,2.21,4.4,4.41,3.39,9-4.11,20.23-13.47,20.16-24.34-.07-11-13.32-13.85-22-11.72-1.84.45-5,1.08-6.51,2.27-1.13.87-2.52-.51,0,1.71,2.17,1.88,1.74.6,1.76-1.38a10.66,10.66,0,0,0-6.59-9.8c-6.82-2.74-17.8,2.71-18.68,10.2-.44,3.83,5.56,3.8,6,0,.32-2.66,6.22-4.76,8.4-4.84a4.37,4.37,0,0,1,4.77,3.38c.3,1.4-.53,2.56-.26,3.86.92,4.44,4.85,3.12,8,1.95,5.72-2.15,20.58-4.52,19,6-1.24,8-10.35,14.49-17.06,17.57l4.41,3.39c4.06-12.51,24.28,2.79,22.73,12.42-2.17,13.47-20.53,11.35-29.92,9.74-3.1-.52-5.58,3.83-2.31,5.49,8.92,4.52,20.21,13.17,13.22,24.23-7.42,11.73-23.09,8.89-33.8,4.21-2.82-1.23-6.53,2.36-3.64,4.71,3.23,2.63,3.47,7,1.34,10.52s-6.32,5.27-10.17,6.24a35.7,35.7,0,0,1-11.6,1.11c-4.73-.46-11.26-4.59-7.27-9.87,1.78-2.34-1.76-5.88-4.1-4.1a17.22,17.22,0,0,1-14.22,3.23,17.48,17.48,0,0,1-6.17-2.57,15.07,15.07,0,0,1-3.13-2.78c-1.75-2.14-1.32-5.56-3.45-7s-4.92-2.05-7.15-3.75a25.59,25.59,0,0,1-6-6.49,23.85,23.85,0,0,1-3.08-7.12c-.52-2.13-1.67-12.49,3.44-10.09l2.31-5.49c-6.88-1.8-13.68-6.3-14.27-14-.57-7.47,6.81-13.84,13.63-9.08l2.31-5.49c-8.14-3.26-21-11.42-11-20.68,6.84-6.33,17.53-6.15,25.27-1.75l3-5.18c-8-3.72-8.64-14.16-1.63-19.28,7.76-5.67,17.53-1.61,22.32,5.81,1.76,2.73,6.63,1.06,5.48-2.31-2-5.83-5-14.09-.31-19.47,5.16-5.85,13.23-.23,17.22,4.1a35.2,35.2,0,0,1,7.74,32.62c-1,3.74,4.8,5.33,5.79,1.6Z"/><path d="M846.81,416.7a10,10,0,0,0-2.84-3.3,1.51,1.51,0,0,0-2.05.54,1.54,1.54,0,0,0,.54,2.05,6.67,6.67,0,0,1,1.76,2.22,1.5,1.5,0,1,0,2.59-1.51Z"/><path d="M844.73,419.84l-6.43-5.52c-1.46-1.25-3.59.87-2.12,2.13l6.43,5.51c1.46,1.25,3.59-.86,2.12-2.12Z"/><path d="M840.69,421h-4.37a1.5,1.5,0,0,0,0,3h4.37a1.5,1.5,0,0,0,0-3Z"/><path d="M882.31,484.51a10.16,10.16,0,0,0-.08-4.39c-.45-1.87-3.34-1.08-2.89.8a6.57,6.57,0,0,1,.08,2.79,1.54,1.54,0,0,0,1,1.85,1.52,1.52,0,0,0,1.85-1.05Z"/><path d="M878.72,485.26l-1.59-8.32c-.36-1.89-3.25-1.09-2.89.8l1.59,8.32c.36,1.89,3.25,1.09,2.89-.8Z"/><path d="M875,484l-3.41-2.73a1.57,1.57,0,0,0-2.13,0,1.53,1.53,0,0,0,0,2.13l3.42,2.72a1.56,1.56,0,0,0,2.12,0,1.51,1.51,0,0,0,0-2.12Z"/><path d="M871.59,487.32l-3.42-2.72a1.55,1.55,0,0,0-2.12,0,1.51,1.51,0,0,0,0,2.12l3.41,2.72a1.55,1.55,0,0,0,2.13,0,1.52,1.52,0,0,0,0-2.12Z"/><path d="M900.25,473.49a10.16,10.16,0,0,0-.07-4.39c-.45-1.87-3.35-1.08-2.9.8a6.57,6.57,0,0,1,.08,2.79,1.54,1.54,0,0,0,1,1.85,1.51,1.51,0,0,0,1.84-1.05Z"/><path d="M896.67,474.24l-1.6-8.32c-.36-1.89-3.25-1.09-2.89.8l1.59,8.32c.37,1.89,3.26,1.09,2.9-.8Z"/><path d="M892.94,473l-3.41-2.73a1.56,1.56,0,0,0-2.12,0,1.51,1.51,0,0,0,0,2.12l3.41,2.73a1.56,1.56,0,0,0,2.12,0,1.5,1.5,0,0,0,0-2.12Z"/><path d="M889.53,476.3l-3.41-2.72a1.54,1.54,0,0,0-2.12,0,1.5,1.5,0,0,0,0,2.12l3.41,2.72a1.54,1.54,0,0,0,2.12,0,1.51,1.51,0,0,0,0-2.12Z"/><path d="M849.82,479.47a10.14,10.14,0,0,0,2.37-3.65,1.52,1.52,0,0,0-1.05-1.85,1.54,1.54,0,0,0-1.85,1,6.54,6.54,0,0,1-1.59,2.33c-1.39,1.34.73,3.46,2.12,2.12Z"/><path d="M846.22,478.39l2.3-5.16a1.55,1.55,0,0,0-.54-2.05,1.5,1.5,0,0,0-2.05.54l-2.3,5.16a1.55,1.55,0,0,0,.54,2.05,1.5,1.5,0,0,0,2.05-.54Z"/><path d="M844,474.84l-1.25-4.18c-.56-1.85-3.45-1.06-2.9.79l1.26,4.19c.55,1.84,3.44,1.05,2.89-.8Z"/><path d="M839.28,475.62,838,471.44c-.56-1.84-3.45-1.06-2.9.8l1.25,4.18c.56,1.85,3.45,1.06,2.9-.8Z"/><path d="M853.33,477.43l-4.13,1.83a1.5,1.5,0,1,0,1.51,2.59l4.14-1.83a1.51,1.51,0,0,0,.53-2.06,1.53,1.53,0,0,0-2-.53Z"/><path d="M858.67,457.05a8.71,8.71,0,0,0-.06-3.7,1.5,1.5,0,1,0-2.89.8,5.12,5.12,0,0,1,.06,2.1,1.52,1.52,0,0,0,1.05,1.84,1.5,1.5,0,0,0,1.84-1Z"/><path d="M855.77,457.5l-1.28-6.72c-.36-1.9-3.26-1.1-2.89.79l1.28,6.73c.36,1.89,3.26,1.09,2.89-.8Z"/><path d="M852.69,456.35l-2.75-2.2a1.56,1.56,0,0,0-2.13,0,1.52,1.52,0,0,0,0,2.12l2.76,2.2a1.55,1.55,0,0,0,2.12,0,1.5,1.5,0,0,0,0-2.12Z"/><path d="M849.94,459l-2.76-2.2a1.54,1.54,0,0,0-2.12,0,1.5,1.5,0,0,0,0,2.12l2.75,2.2a1.56,1.56,0,0,0,2.13,0,1.52,1.52,0,0,0,0-2.12Z"/><path d="M839.63,447.56a7.81,7.81,0,0,0,1.34-3,1.5,1.5,0,1,0-2.9-.8,5.45,5.45,0,0,1-1,2.29,1.51,1.51,0,0,0,.54,2.05,1.54,1.54,0,0,0,2-.54Z"/><path d="M836.63,447.09l1.71-6.62a1.5,1.5,0,0,0-2.89-.8l-1.71,6.63a1.5,1.5,0,0,0,2.89.79Z"/><path d="M834.25,444.34l-1.55-3.17a1.5,1.5,0,0,0-2.59,1.52l1.55,3.17a1.5,1.5,0,0,0,2.59-1.52Z"/><path d="M830.61,445.59l-1.55-3.17a1.5,1.5,0,1,0-2.59,1.52L828,447.1a1.51,1.51,0,0,0,2.05.54,1.53,1.53,0,0,0,.54-2.05Z"/><path d="M891.44,413a8.45,8.45,0,0,0-1.1-3.59,1.5,1.5,0,0,0-2.59,1.51,5,5,0,0,1,.69,2.08,1.54,1.54,0,0,0,1.5,1.5,1.5,1.5,0,0,0,1.5-1.5Z"/><path d="M888.74,414.33l-3.2-6.25c-.88-1.72-3.46-.21-2.59,1.51l3.2,6.26c.88,1.72,3.47.2,2.59-1.52Z"/><path d="M885.05,413.94l-3.35-1.38a1.51,1.51,0,0,0-1.84,1.05,1.54,1.54,0,0,0,1,1.85l3.35,1.37a1.51,1.51,0,0,0,1.85-1.05,1.53,1.53,0,0,0-1.05-1.84Z"/><path d="M883.11,417.38,879.76,416a1.53,1.53,0,0,0-1.85,1.05A1.55,1.55,0,0,0,879,418.9l3.35,1.37a1.5,1.5,0,0,0,1.84-1,1.53,1.53,0,0,0-1-1.84Z"/><path d="M878.6,442.12a8.72,8.72,0,0,0,1.21-3.56,1.51,1.51,0,0,0-1.5-1.5,1.53,1.53,0,0,0-1.5,1.5,5.56,5.56,0,0,1-.8,2,1.5,1.5,0,0,0,2.59,1.52Z"/><path d="M875.52,441.9l1.22-6.92c.33-1.89-2.56-2.7-2.89-.8l-1.22,6.92c-.34,1.89,2.55,2.7,2.89.8Z"/><path d="M873,439.29l-1.84-3.12a1.5,1.5,0,0,0-2.59,1.52l1.84,3.11a1.5,1.5,0,0,0,2.59-1.51Z"/><path d="M869.33,440.86l-1.84-3.12a1.5,1.5,0,0,0-2.59,1.52l1.84,3.11a1.5,1.5,0,0,0,2.59-1.51Z"/><path d="M866.06,398.06a7,7,0,0,0,0-3,1.5,1.5,0,0,0-2.9.79,3.69,3.69,0,0,1,0,1.44,1.53,1.53,0,0,0,1.05,1.84,1.51,1.51,0,0,0,1.84-1.05Z"/><path d="M863.84,398.23l-1-5.17c-.37-1.9-3.26-1.09-2.9.8l1,5.17c.37,1.89,3.26,1.09,2.9-.8Z"/><path d="M861.38,397.19l-2.12-1.69a1.56,1.56,0,0,0-2.13,0,1.52,1.52,0,0,0,0,2.12l2.12,1.69a1.55,1.55,0,0,0,2.13,0,1.52,1.52,0,0,0,0-2.12Z"/><path d="M859.26,399.26l-2.13-1.69a1.54,1.54,0,0,0-2.12,0,1.52,1.52,0,0,0,0,2.12l2.12,1.69a1.56,1.56,0,0,0,2.13,0,1.52,1.52,0,0,0,0-2.12Z"/><path d="M888.72,384.67a7,7,0,0,0,0-3,1.5,1.5,0,0,0-2.9.8,3.46,3.46,0,0,1,.05,1.43,1.55,1.55,0,0,0,1,1.85,1.51,1.51,0,0,0,1.84-1.05Z"/><path d="M886.5,384.84l-1-5.17c-.36-1.9-3.26-1.1-2.9.79l1,5.17c.37,1.9,3.26,1.1,2.9-.79Z"/><path d="M884,383.8l-2.12-1.69a1.54,1.54,0,0,0-2.12,0,1.5,1.5,0,0,0,0,2.12l2.12,1.69a1.55,1.55,0,0,0,2.12,0,1.52,1.52,0,0,0,0-2.12Z"/><path d="M881.92,385.86l-2.12-1.69a1.57,1.57,0,0,0-2.13,0,1.52,1.52,0,0,0,0,2.12l2.13,1.7a1.56,1.56,0,0,0,2.12,0,1.53,1.53,0,0,0,0-2.13Z"/><path d="M925.57,451.1a8.45,8.45,0,0,0-1.1-3.59,1.5,1.5,0,0,0-2.59,1.51,5,5,0,0,1,.69,2.08,1.54,1.54,0,0,0,1.5,1.5,1.5,1.5,0,0,0,1.5-1.5Z"/><path d="M922.87,452.41l-3.2-6.25c-.88-1.72-3.47-.21-2.59,1.51l3.2,6.25c.88,1.72,3.47.21,2.59-1.51Z"/><path d="M919.18,452l-3.35-1.38a1.5,1.5,0,0,0-1.84,1.05,1.52,1.52,0,0,0,1,1.84l3.35,1.38a1.52,1.52,0,0,0,1.85-1.05,1.54,1.54,0,0,0-1.05-1.84Z"/><path d="M917.24,455.46l-3.35-1.38a1.52,1.52,0,0,0-1.85,1.05,1.54,1.54,0,0,0,1.05,1.84l3.35,1.38a1.5,1.5,0,0,0,1.84-1.05,1.52,1.52,0,0,0-1-1.84Z"/><path d="M883.63,459.64a8.65,8.65,0,0,0,1.2-3.56,1.51,1.51,0,0,0-1.5-1.5,1.54,1.54,0,0,0-1.5,1.5,5.35,5.35,0,0,1-.79,2.05,1.5,1.5,0,1,0,2.59,1.51Z"/><path d="M880.54,459.43l1.23-6.92c.33-1.89-2.56-2.7-2.9-.8l-1.22,6.92c-.33,1.89,2.56,2.7,2.89.8Z"/><path d="M878,456.82l-1.84-3.12a1.5,1.5,0,0,0-2.59,1.51l1.84,3.12a1.5,1.5,0,0,0,2.59-1.51Z"/><path d="M874.36,458.39l-1.84-3.12a1.5,1.5,0,0,0-2.59,1.51l1.84,3.12a1.5,1.5,0,0,0,2.59-1.51Z"/><path d="M900.19,436.14a6.84,6.84,0,0,0-.05-3,1.5,1.5,0,0,0-2.89.79,3.69,3.69,0,0,1,0,1.44,1.52,1.52,0,0,0,1.05,1.84,1.51,1.51,0,0,0,1.84-1.05Z"/><path d="M898,436.31l-1-5.17c-.37-1.9-3.26-1.1-2.9.79l1,5.17c.36,1.9,3.26,1.1,2.9-.79Z"/><path d="M895.51,435.27l-2.13-1.69a1.54,1.54,0,0,0-2.12,0,1.52,1.52,0,0,0,0,2.12l2.12,1.69a1.55,1.55,0,0,0,2.13,0,1.52,1.52,0,0,0,0-2.12Z"/><path d="M893.38,437.34l-2.12-1.69a1.54,1.54,0,0,0-2.12,0,1.52,1.52,0,0,0,0,2.12l2.12,1.69a1.55,1.55,0,0,0,2.12,0,1.5,1.5,0,0,0,0-2.12Z"/><path d="M922.85,422.75a7,7,0,0,0,0-3,1.5,1.5,0,0,0-2.9.8A3.64,3.64,0,0,1,920,422a1.54,1.54,0,0,0,1,1.85,1.51,1.51,0,0,0,1.84-1.05Z"/><path d="M920.63,422.91l-1-5.17c-.37-1.89-3.26-1.09-2.9.8l1,5.17c.37,1.9,3.26,1.09,2.9-.8Z"/><path d="M918.17,421.88l-2.12-1.69a1.55,1.55,0,0,0-2.13,0,1.52,1.52,0,0,0,0,2.12l2.13,1.69a1.55,1.55,0,0,0,2.12,0,1.52,1.52,0,0,0,0-2.12Z"/><path d="M916.05,423.94l-2.12-1.69a1.56,1.56,0,0,0-2.13,0,1.52,1.52,0,0,0,0,2.12l2.12,1.69a1.55,1.55,0,0,0,2.13,0,1.52,1.52,0,0,0,0-2.12Z"/><path class="f" d="M128.47,418.33a38,38,0,0,1,10.6-37.62c4.38-4,10.79-7,16.16-4.48,4.17,2,6.37,6.8,6.53,11.4s-1.35,9.09-2.85,13.45c3.46-5.82,9.87-10,16.64-10s13.53,4.32,15.63,10.75-1.19,14.35-7.47,16.85a25.38,25.38,0,0,1,24.88-.68c4.52,2.45,8.46,6.82,8.58,12,.1,4.21-2.41,8.14-5.68,10.8s-7.24,4.26-11.16,5.83c4.57-3.69,12-2.23,15.6,2.44s3.35,11.56.29,16.58-8.5,8.24-14.21,9.58c2.16-1.51,5.38-.45,6.94,1.68s1.8,4.94,1.6,7.57a27.66,27.66,0,0,1-19.67,23.9c-1.15.31-2.54.49-3.38-.35-1.16-1.16.06-3.45,1.71-3.5a3.42,3.42,0,0,1,3.16,3.19,7.47,7.47,0,0,1-1.43,4.63c-5.85,9.23-20.2,11.54-28.65,4.6,3.21,3.42,1.36,9.5-2.55,12.1s-9,2.58-13.63,2.08c-6.06-.65-12.45-2.2-16.59-6.67s-4.65-12.64.36-16.12c-8.06,3.64-17.2,6-25.72,3.66S88.3,501.36,89.46,492.6c1.13-8.47,9.14-14.16,16.8-17.94-6.83,1.17-13.91,2.34-20.62.6s-13-7.26-13.25-14.18c-.24-5.93,3.84-11.24,8.61-14.76,3.24-2.4,7.09-4.29,11.12-4.17s8.17,2.71,9,6.65a36,36,0,0,1-15.76-13.32c-2.37-3.64-4.06-8.39-2.06-12.25,1.85-3.56,6.16-5,10.13-5.55,9.11-1.22,17.3,6.13,16,2.1s1.85-8.84,6.06-9.33,13,3.64,12.93,7.88"/><path d="M131.37,417.53a35.25,35.25,0,0,1,7.74-32.62c4-4.39,12-9.91,17.22-4.1,4.77,5.33,1.66,13.68-.31,19.47-1.14,3.33,3.7,5.07,5.48,2.31,4.79-7.43,14.56-11.48,22.32-5.81,7,5.12,6.39,15.56-1.63,19.28l3,5.18c7.74-4.41,18.43-4.58,25.27,1.75,10,9.26-2.81,17.41-11,20.68l2.31,5.49c6.79-4.74,14.2,1.58,13.63,9.08-.59,7.73-7.39,12.23-14.27,14l2.31,5.49c4.46-2.1,4.08,7.17,3.6,9.39a24.5,24.5,0,0,1-3.24,7.82,25.42,25.42,0,0,1-5.14,5.86,24.24,24.24,0,0,1-4.09,2.76c-1.18.63-2.89.86-3.88,1.62-1.89,1.46-1.8,4.88-3.45,7a12.77,12.77,0,0,1-2.44,2.26,17.5,17.5,0,0,1-21.08-.14c-2.34-1.78-5.88,1.76-4.1,4.1,4,5.26-2.53,9.43-7.27,9.86a35.18,35.18,0,0,1-11.6-1.11c-3.81-.95-8.05-2.69-10.17-6.23s-1.91-7.87,1.34-10.52c2.87-2.33-.8-5.95-3.64-4.71-10.73,4.69-26.37,7.52-33.8-4.21-7-11.06,4.3-19.72,13.22-24.23,3.24-1.64.82-6-2.31-5.49-9.27,1.58-27.94,3.75-29.92-9.74-1.41-9.55,18.64-25,22.73-12.42l4.41-3.39c-6.73-3.09-15.82-9.59-17.06-17.57-1.62-10.45,13.21-8.12,19-6,3.13,1.17,7.08,2.47,8-1.95.27-1.3-.56-2.46-.26-3.86a4.49,4.49,0,0,1,4.13-3.46c2.3-.17,8.71,2.18,9,4.92.45,3.79,6.45,3.83,6,0-.86-7.37-11.53-12.77-18.31-10.35a10.75,10.75,0,0,0-7,9.33c0,.49-.11,2.82.38,3.27q4.69-2.13,2.46-2.63a7.61,7.61,0,0,1-1.05-.35c-1.49-1.24-4.65-1.81-6.52-2.27-8.25-2-21.36.38-22,10.93-.64,11.17,11.05,20.95,20.17,25.13,2.19,1,5.29-.68,4.41-3.39-6-18.38-30.93-4.52-34.17,8.67-1.87,7.56,2.15,14.6,8.47,18.64,8.59,5.5,19.21,3.86,28.69,2.24l-2.31-5.48c-12,6.07-24.26,18.43-15.37,32.43,9.41,14.83,28.1,12.45,42,6.37l-3.63-4.71c-4.78,3.89-5.49,10.51-3.16,16,2.77,6.5,9.57,9.78,16.15,11.14,6.76,1.39,15.25,2.24,21.11-2.17,4.82-3.62,6.83-10.71,3-15.74l-4.11,4.11c9.1,6.91,23.2,5.55,30.8-3.06,3.23-3.67,5.89-9.87,1.29-13.58-3.6-2.91-9.59-.27-8.73,4.73,1.06,6.17,8.71,3.56,12.28,1.84a31,31,0,0,0,13.38-12.64c2.9-5.16,4.91-12,3.35-17.89s-7.15-8.89-12.65-6.3c-3.14,1.47-.89,6.32,2.31,5.48,10.81-2.84,20.51-11.79,18.47-23.87C219.55,444,207.68,437.8,198.82,444c-2.57,1.79-1.07,6.83,2.31,5.48,6.05-2.43,12.42-5,16.21-10.68a14.66,14.66,0,0,0-.23-17.34c-8-10.81-24-11.62-34.92-5.38-3.41,1.94-.41,6.78,3,5.18,11.36-5.28,12.49-20.84,3.1-28.56-10.62-8.73-25.06-3.88-32,6.88l5.48,2.31c2.67-7.81,5.06-17-.39-24.22-5-6.68-13.62-6.35-20.24-2.27-14.31,8.81-19.72,28.13-15.59,43.75,1,3.73,6.78,2.15,5.79-1.6Z"/><path d="M187.58,431.61a7.07,7.07,0,0,1,2.07-2.45,1.51,1.51,0,0,0-1.82-2.36,10,10,0,0,0-2.84,3.3,1.54,1.54,0,0,0,.54,2,1.52,1.52,0,0,0,2.05-.54Z"/><path d="M189.19,435.36l6.43-5.51c1.47-1.26-.66-3.38-2.12-2.13l-6.44,5.52c-1.46,1.26.67,3.37,2.13,2.12Z"/><path d="M191.11,437.41h4.37a1.5,1.5,0,0,0,0-3h-4.37a1.5,1.5,0,0,0,0,3Z"/><path d="M152.38,497.11a6.57,6.57,0,0,1,.08-2.79c.45-1.88-2.44-2.68-2.89-.8a10.16,10.16,0,0,0-.08,4.39,1.5,1.5,0,1,0,2.89-.8Z"/><path d="M156,499.46l1.59-8.32c.36-1.89-2.53-2.7-2.89-.8l-1.59,8.32c-.36,1.89,2.53,2.7,2.89.8Z"/><path d="M158.92,499.52l3.41-2.73a1.5,1.5,0,0,0,0-2.12,1.55,1.55,0,0,0-2.12,0l-3.41,2.72a1.52,1.52,0,0,0,0,2.13,1.55,1.55,0,0,0,2.12,0Z"/><path d="M162.33,502.84l3.42-2.72a1.51,1.51,0,0,0,0-2.12,1.53,1.53,0,0,0-2.12,0l-3.42,2.72a1.5,1.5,0,0,0,2.12,2.12Z"/><path d="M134.44,486.09a6.57,6.57,0,0,1,.08-2.79c.45-1.88-2.45-2.68-2.9-.8a10.16,10.16,0,0,0-.07,4.39,1.51,1.51,0,0,0,1.84,1.05,1.54,1.54,0,0,0,1.05-1.85Z"/><path d="M138,488.44l1.59-8.32c.36-1.89-2.53-2.7-2.9-.8l-1.59,8.32c-.36,1.89,2.53,2.7,2.9.8Z"/><path d="M141,488.5l3.41-2.73a1.51,1.51,0,0,0,0-2.12,1.55,1.55,0,0,0-2.12,0l-3.41,2.72a1.51,1.51,0,0,0,0,2.13,1.55,1.55,0,0,0,2.12,0Z"/><path d="M144.39,491.82l3.41-2.72a1.5,1.5,0,0,0,0-2.12,1.53,1.53,0,0,0-2.12,0l-3.41,2.72a1.51,1.51,0,0,0,0,2.12,1.53,1.53,0,0,0,2.12,0Z"/><path d="M184.1,490.75a6.54,6.54,0,0,1-1.59-2.33,1.55,1.55,0,0,0-1.85-1.05,1.52,1.52,0,0,0-1,1.85,10.14,10.14,0,0,0,2.37,3.65c1.39,1.34,3.51-.78,2.12-2.12Z"/><path d="M188.17,490.28l-2.3-5.16a1.5,1.5,0,0,0-2.05-.54,1.54,1.54,0,0,0-.54,2.05l2.3,5.16a1.5,1.5,0,0,0,2,.54,1.54,1.54,0,0,0,.54-2.05Z"/><path d="M190.71,489l1.26-4.18c.55-1.85-2.34-2.64-2.9-.79l-1.25,4.18c-.55,1.85,2.34,2.64,2.89.79Z"/><path d="M195.41,489.82l1.26-4.18c.55-1.86-2.34-2.65-2.9-.8L192.52,489c-.55,1.86,2.34,2.65,2.89.8Z"/><path d="M177,493.42l4.14,1.83a1.54,1.54,0,0,0,2-.53,1.52,1.52,0,0,0-.54-2.06l-4.13-1.83a1.56,1.56,0,0,0-2.06.53,1.53,1.53,0,0,0,.54,2.06Z"/><path d="M176,469.65a5.12,5.12,0,0,1,.06-2.1,1.5,1.5,0,1,0-2.89-.8,8.51,8.51,0,0,0-.06,3.69,1.5,1.5,0,1,0,2.89-.79Z"/><path d="M178.92,471.7,180.2,465c.37-1.88-2.53-2.69-2.89-.79L176,470.9c-.36,1.88,2.53,2.69,2.9.8Z"/><path d="M181.23,471.87l2.76-2.2a1.52,1.52,0,0,0,0-2.12,1.54,1.54,0,0,0-2.13,0l-2.75,2.2a1.5,1.5,0,0,0,0,2.12,1.53,1.53,0,0,0,2.12,0Z"/><path d="M184,474.56l2.75-2.2a1.5,1.5,0,0,0,0-2.12,1.53,1.53,0,0,0-2.12,0l-2.76,2.19a1.53,1.53,0,0,0,0,2.13,1.56,1.56,0,0,0,2.13,0Z"/><path d="M194.76,459.45a5.45,5.45,0,0,1-1-2.29,1.51,1.51,0,0,0-1.85-1.05,1.54,1.54,0,0,0-1,1.84,7.79,7.79,0,0,0,1.34,3,1.54,1.54,0,0,0,2.05.54,1.52,1.52,0,0,0,.54-2.05Z"/><path d="M198.06,459.69l-1.71-6.62a1.5,1.5,0,0,0-2.89.8l1.71,6.62a1.5,1.5,0,0,0,2.89-.8Z"/><path d="M200.14,459.25l1.55-3.16a1.53,1.53,0,0,0-.54-2,1.51,1.51,0,0,0-2.05.53l-1.55,3.17a1.53,1.53,0,0,0,.54,2.05,1.5,1.5,0,0,0,2-.54Z"/><path d="M203.78,460.5l1.55-3.16a1.54,1.54,0,0,0-.54-2.06,1.52,1.52,0,0,0-2,.54L201.19,459a1.54,1.54,0,0,0,.54,2.05,1.51,1.51,0,0,0,2.05-.54Z"/><path d="M143.36,426.42a5,5,0,0,1,.69-2.08,1.5,1.5,0,0,0-2.59-1.51,8.45,8.45,0,0,0-1.1,3.59,1.5,1.5,0,0,0,1.5,1.5,1.54,1.54,0,0,0,1.5-1.5Z"/><path d="M145.65,429.25l3.2-6.26c.87-1.71-1.71-3.23-2.6-1.51l-3.2,6.25c-.87,1.72,1.71,3.24,2.6,1.52Z"/><path d="M147.55,430.23l3.34-1.37a1.55,1.55,0,0,0,1.05-1.85A1.5,1.5,0,0,0,150.1,426l-3.35,1.38a1.54,1.54,0,0,0-1.05,1.84,1.51,1.51,0,0,0,1.85,1.05Z"/><path d="M149.49,433.67l3.35-1.37a1.56,1.56,0,0,0,1-1.85A1.51,1.51,0,0,0,152,429.4l-3.35,1.38a1.53,1.53,0,0,0-1,1.84,1.5,1.5,0,0,0,1.84,1.05Z"/><path d="M155.79,454A5.31,5.31,0,0,1,155,452a1.54,1.54,0,0,0-1.5-1.5A1.51,1.51,0,0,0,152,452a8.67,8.67,0,0,0,1.21,3.56,1.5,1.5,0,1,0,2.59-1.51Z"/><path d="M159.17,454.5,158,447.58c-.33-1.9-3.22-1.09-2.89.8l1.22,6.92c.34,1.9,3.23,1.09,2.89-.8Z"/><path d="M161.43,454.2l1.84-3.11a1.5,1.5,0,0,0-2.59-1.52l-1.84,3.12a1.5,1.5,0,0,0,2.59,1.51Z"/><path d="M165.06,455.77l1.84-3.11a1.5,1.5,0,0,0-2.59-1.52l-1.84,3.12a1.5,1.5,0,0,0,2.59,1.51Z"/><path d="M168.63,410.67a3.69,3.69,0,0,1,.05-1.44,1.5,1.5,0,0,0-2.9-.79,7,7,0,0,0,0,3,1.51,1.51,0,0,0,1.84,1.05,1.54,1.54,0,0,0,1-1.84Z"/><path d="M170.86,412.43l1-5.18c.36-1.88-2.53-2.69-2.9-.79l-1,5.17c-.36,1.88,2.53,2.69,2.9.8Z"/><path d="M172.54,412.71l2.13-1.69a1.52,1.52,0,0,0,0-2.12,1.54,1.54,0,0,0-2.13,0l-2.12,1.69a1.5,1.5,0,0,0,2.12,2.12Z"/><path d="M174.67,414.78l2.12-1.69a1.52,1.52,0,0,0,0-2.12,1.54,1.54,0,0,0-2.13,0l-2.12,1.69a1.52,1.52,0,0,0,0,2.12,1.56,1.56,0,0,0,2.13,0Z"/><path d="M146,397.27a3.46,3.46,0,0,1,.05-1.43,1.5,1.5,0,0,0-2.9-.8,7.2,7.2,0,0,0-.05,3,1.52,1.52,0,0,0,1.85,1.05,1.54,1.54,0,0,0,1.05-1.85Z"/><path d="M148.2,399l1-5.17c.37-1.88-2.52-2.69-2.89-.8l-1,5.17c-.36,1.89,2.53,2.7,2.9.8Z"/><path d="M149.88,399.32l2.12-1.69a1.5,1.5,0,0,0,0-2.12,1.53,1.53,0,0,0-2.12,0l-2.12,1.69a1.51,1.51,0,0,0,0,2.12,1.54,1.54,0,0,0,2.12,0Z"/><path d="M152,401.38l2.12-1.69a1.5,1.5,0,0,0,0-2.12,1.55,1.55,0,0,0-2.12,0l-2.12,1.69a1.5,1.5,0,0,0,2.12,2.12Z"/><path d="M109.23,464.5a5,5,0,0,1,.69-2.08,1.5,1.5,0,0,0-2.59-1.51,8.45,8.45,0,0,0-1.1,3.59,1.5,1.5,0,0,0,1.5,1.5,1.54,1.54,0,0,0,1.5-1.5Z"/><path d="M111.52,467.32l3.2-6.25c.87-1.72-1.71-3.24-2.59-1.51l-3.2,6.25c-.88,1.72,1.71,3.23,2.59,1.51Z"/><path d="M113.42,468.31l3.35-1.38a1.54,1.54,0,0,0,1-1.84,1.5,1.5,0,0,0-1.84-1l-3.35,1.37a1.56,1.56,0,0,0-1.05,1.85,1.51,1.51,0,0,0,1.85,1.05Z"/><path d="M115.36,471.75l3.35-1.38a1.54,1.54,0,0,0,1.05-1.84,1.51,1.51,0,0,0-1.85-1l-3.35,1.37a1.54,1.54,0,0,0-1,1.85,1.5,1.5,0,0,0,1.84,1.05Z"/><path d="M150.76,471.53a5.41,5.41,0,0,1-.79-2,1.55,1.55,0,0,0-1.5-1.5c-.73,0-1.61.69-1.5,1.5a8.65,8.65,0,0,0,1.2,3.56,1.5,1.5,0,1,0,2.59-1.51Z"/><path d="M154.15,472l-1.22-6.92c-.34-1.9-3.23-1.09-2.9.8l1.23,6.91c.33,1.9,3.22,1.1,2.89-.79Z"/><path d="M156.41,471.73l1.84-3.12a1.5,1.5,0,0,0-2.59-1.51l-1.85,3.12a1.5,1.5,0,0,0,2.6,1.51Z"/><path d="M160,473.3l1.84-3.12a1.5,1.5,0,0,0-2.59-1.51l-1.84,3.12A1.5,1.5,0,0,0,160,473.3Z"/><path d="M134.5,448.74a3.64,3.64,0,0,1,.05-1.43,1.5,1.5,0,0,0-2.9-.8,7,7,0,0,0,0,3,1.51,1.51,0,0,0,1.84,1,1.53,1.53,0,0,0,1.05-1.85Z"/><path d="M136.73,450.5l1-5.17c.36-1.88-2.53-2.69-2.9-.79l-1,5.17c-.36,1.88,2.53,2.69,2.9.79Z"/><path d="M138.42,450.79l2.12-1.69a1.52,1.52,0,0,0,0-2.12,1.54,1.54,0,0,0-2.13,0l-2.12,1.69a1.52,1.52,0,0,0,0,2.12,1.54,1.54,0,0,0,2.13,0Z"/><path d="M140.54,452.86l2.12-1.69a1.53,1.53,0,0,0,0-2.13,1.55,1.55,0,0,0-2.12,0l-2.13,1.7a1.52,1.52,0,0,0,0,2.12,1.56,1.56,0,0,0,2.13,0Z"/><path d="M111.84,435.35a3.64,3.64,0,0,1,0-1.43,1.5,1.5,0,0,0-2.9-.8,7,7,0,0,0,0,3,1.51,1.51,0,0,0,1.84,1.05,1.54,1.54,0,0,0,1-1.85Z"/><path d="M114.07,437.11l1-5.17c.36-1.89-2.53-2.69-2.9-.8l-1,5.17c-.36,1.89,2.53,2.7,2.9.8Z"/><path d="M115.75,437.4l2.13-1.69a1.53,1.53,0,0,0,0-2.13,1.56,1.56,0,0,0-2.13,0l-2.12,1.7a1.52,1.52,0,0,0,0,2.12,1.55,1.55,0,0,0,2.12,0Z"/><path d="M117.88,439.46l2.12-1.69a1.52,1.52,0,0,0,0-2.12,1.55,1.55,0,0,0-2.13,0l-2.12,1.69a1.52,1.52,0,0,0,0,2.12,1.54,1.54,0,0,0,2.13,0Z"/><path class="g" d="M543.65,390.77a66.53,66.53,0,0,0-1.75,12.88c-.08,2.31,0,4.8,1.42,6.63,1.76,2.29,5,2.8,7.86,3,2.07.13,4.3.13,6-1.06,2.08-1.45,2.72-4.23,2.89-6.76A32.79,32.79,0,0,0,558.79,394c-.64-2.15-1.59-4.35-3.43-5.62a7.44,7.44,0,0,0-6.38-.72,14.57,14.57,0,0,0-5.55,3.56"/><path d="M542.21,390.37c-1.34,6-4.58,17.41,1.2,22.09,4.48,3.63,14.14,3.76,17-1.91s1.56-15.91-1.9-21.07c-4.19-6.25-11.51-3.46-16.1.63-1.44,1.29.68,3.4,2.12,2.12,2.87-2.55,7.17-5.37,10.81-2,1.37,1.28,2.06,3.93,2.47,5.69.87,3.63,1.83,9.16.11,12.65-3.25,6.6-14.2,2.93-14.49-3.55a53.7,53.7,0,0,1,1.71-13.88c.42-1.88-2.47-2.69-2.89-.8Z"/><path class="b" d="M530.82,388.7c23.8,24.84,51.62-15.75,51.77-39.87,0-4.75-27.31,16.43-31.75,16.44-8.84,0-20.17,1.67-26.57-5a35.4,35.4,0,0,0,6.55,28.47"/><path d="M529.76,389.76c7.46,7.49,17.17,10.52,27,5.74,10-4.88,17.24-15.06,21.8-24.92a59.53,59.53,0,0,0,5.06-16.26c.32-2.18,1.68-6.69-1.23-7.61-2.26-.71-5.78,1.82-7.56,2.84-4.21,2.4-8.25,5.1-12.34,7.7-3.41,2.17-7.44,5.53-11.45,6.48-3.42.81-8,.32-11.55.21-5.22-.16-10.25-1.05-14.18-4.77a1.5,1.5,0,0,0-2.5.66c-2.51,10.17.63,21.37,6.7,29.63,1.13,1.54,3.74,0,2.59-1.52-5.6-7.62-8.72-17.88-6.4-27.31l-2.51.66c3.75,3.55,8.36,5,13.43,5.48,4.61.42,10.86,1,15.4-.2,6.48-1.64,12.84-7.31,18.38-10.81,3.1-2,6.29-3.68,9.47-5.49a6.76,6.76,0,0,1,1.75-.62c-.39.08-.49-1.72-.56-.33a14.93,14.93,0,0,1-.06,1.5,63.56,63.56,0,0,1-1.37,8.09,60.32,60.32,0,0,1-15.95,27.95c-9.8,9.41-21.87,10.77-31.81.78a1.5,1.5,0,0,0-2.13,2.12Z"/><path class="h" d="M520.41,331.79a251.54,251.54,0,0,0-7.7,29.11c16,9.34,37.56,19.85,55.73,11,16-7.74,21.12-40.91,12.38-55.09-13.36,4.1-41.58,3.47-57.06,9.36"/><path d="M519,331.39a241.86,241.86,0,0,0-7.7,29.12,1.53,1.53,0,0,0,.69,1.69c17.49,10.16,48.34,24.9,64.72,4.88,10.45-12.77,14-36.42,5.44-51a1.52,1.52,0,0,0-1.7-.69c-18.55,5.42-38.74,2.69-57.06,9.36-1.8.66-1,3.56.8,2.9,18.32-6.68,38.5-3.94,57.06-9.37l-1.69-.69c7.81,13.35,4.51,35.23-4.77,47.09-15.11,19.31-45,4.39-61.29-5.08l.69,1.69a244.09,244.09,0,0,1,7.7-29.11c.59-1.85-2.31-2.64-2.89-.8Z"/><path class="h" d="M467.76,386.06c3.4-14.62,3.46-27.72,20.61-32.82,12.15-3.62,20.78.62,31.93,4.09-.56-12.11,5.37-21.56,6.75-32.93-15.44-1-55.29-17.35-66.88-3.77C460.17,320.63,441.14,346.68,467.76,386.06Z"/><path d="M469.2,386.45c2.11-9.27,2.8-20.81,10.69-27.31,12.07-9.92,27-4.5,40-.36a1.52,1.52,0,0,0,1.9-1.45c-.24-11.35,5.14-21.47,6.69-32.54a1.52,1.52,0,0,0-1.44-1.89c-10.19-.82-20.2-4.34-30.17-6.45-9.55-2-20.78-4.46-30.38-1.44-11.72,3.69-14.34,19.05-14.42,29.69-.11,15.25,6.09,29.6,14.38,42.11,1.06,1.61,3.66.1,2.59-1.51-11.33-17.1-19-39.35-10.14-59.23,6.41-14.41,26.9-9,39-6.32,9.61,2.11,19.26,5.36,29.11,6.15L525.6,324c-1.59,11.34-7.05,21.69-6.8,33.33l1.9-1.45c-13.8-4.38-28.66-9.37-41.69.17-9.36,6.86-10.33,19.16-12.7,29.61C465.88,387.54,468.78,388.34,469.2,386.45Z"/><path class="b" d="M534.21,446.5c3.18,12.22,3.45,13.55-10.44,17.24-14.31-32.44-68-57.49-54.39-99.85,13.21-41.13,52.76-21.31,57.73,12.52C527.11,376.41,532,438,534.21,446.5Z"/><path d="M532.76,446.89c.74,2.85,2.86,7.8,1.33,10.67-1.65,3.11-7.73,3.93-10.72,4.74l1.69.69c-15.81-34.84-73.89-61-51.26-106.08,4.2-8.36,11.65-15.26,21.55-14.57,9.25.64,17.32,7.19,22.46,14.53,8.41,12,8.26,25.64,9.47,39.6.87,10,1.77,20.06,2.81,30.07.69,6.72,1,13.77,2.67,20.35.46,1.88,3.36,1.08,2.89-.79-1.64-6.65-2-13.76-2.67-20.55-1-9.85-1.89-19.7-2.74-29.56-1.29-14.91-1.34-29.33-10.78-41.93C509.39,340.61,490,333,477,347c-15.39,16.52-13.39,41-1.82,58.7,13.73,21,36.82,35.64,47.33,58.8a1.51,1.51,0,0,0,1.7.69c4-1.07,10.27-2.07,12.51-6.11,2.11-3.79,0-9.2-1-13A1.5,1.5,0,0,0,532.76,446.89Z"/><path class="i" d="M414.25,249.76c5.53,12.75,27.54,71.38,45.39,73.69,14,1.81,96.66,5.92,113.2-.3,13.82-5.19,21.11-22.7,29.63-34.76a142,142,0,0,0,23.47-55.54c15.82.6,37.4-13.55,45.94-24C661,174,604.3,140.91,582.59,136.6s-53.06-2.95-68.34,13.06c-43.31-11.57-89.92,0-123.18,29.39C391.07,179.05,379,216.75,414.25,249.76Z"/><path d="M413,250.51c7.57,17.58,14.43,35.48,24.21,52,4.27,7.23,9.29,15.44,16.49,20.11,4.65,3,10.55,2.84,15.9,3.22C490,327.3,510.54,328,531,328c9.78,0,19.6-.14,29.34-1.06,7.33-.7,14.1-1.78,20.13-6.37,5.63-4.3,9.81-10.24,13.6-16.15,4.18-6.53,8.35-13.05,12.59-19.54a144.69,144.69,0,0,0,20.69-51.59l-1.44,1.1c15.8.23,32-9.65,43.11-20.28,1.54-1.47,4.23-3.36,4.28-5.62,0-2.47-2.49-6.5-3.61-8.66a86.42,86.42,0,0,0-13.15-18.34c-10.72-11.77-23.66-21.6-37.2-29.9-10.6-6.49-22.18-12.88-34.33-15.93a101,101,0,0,0-47-.1c-7.42,1.8-14.73,4.73-20.77,9.46-1.32,1-2.51,2.57-4.14,2.82s-4.5-1.07-6.29-1.43a136.67,136.67,0,0,0-95.87,16.42A133.62,133.62,0,0,0,399,170.7c-2.68,2-7.65,4.69-9.23,7.59-1.08,2-1.23,4.92-1.54,7.08a69.3,69.3,0,0,0-.32,16.66c1.94,19,11.55,35.72,25.27,48.79,1.4,1.33,3.52-.79,2.12-2.12-12.15-11.58-21.12-26-23.87-42.78-1.19-7.28-2.29-18.07.72-25.18a4.22,4.22,0,0,1,.77-1.48c2.81-3.41,7.82-6.23,11.47-8.75a134.19,134.19,0,0,1,75-23.77,129.55,129.55,0,0,1,27.36,2.69c2.3.48,6.17,2.39,8.38,1.41.94-.43,2.05-2,2.89-2.7a39.22,39.22,0,0,1,6-4.12c13.67-7.73,30.73-8.9,46.08-7.64,26,2.12,50.1,17.15,69.75,33.43A136.15,136.15,0,0,1,657.43,187c4.54,5.42,10.77,13,12.3,20.18.4,1.89-.05,2-1.52,3.52-1.31,1.35-2.7,2.63-4.13,3.85a82.73,82.73,0,0,1-11.27,8.05c-8.07,4.83-17.3,8.91-26.87,8.77a1.51,1.51,0,0,0-1.45,1.1,142.83,142.83,0,0,1-16.75,45c-3.64,6.25-8,12.06-11.74,18.21-3.51,5.68-6.9,11.53-11.24,16.63-6.24,7.33-13.16,10.41-22.39,11.44a263.78,263.78,0,0,1-26.81,1.25c-19.83.18-39.69-.48-59.48-1.67-5.56-.34-12.08,0-17.47-1.57-7.52-2.19-12.95-11.22-16.83-17.38C430.86,287,423.63,267.74,415.55,249,414.79,247.23,412.2,248.76,413,250.51Z"/><path class="g" d="M590.52,232.3a2.77,2.77,0,0,1,3.46,2.62c.44,21.1-5.89,41.61-15.68,60.42-2.18,4.18-4.72,8.37-8.57,11.09-4.63,3.26-66.44,4.88-91-.11-4.32-.87-8.82-1.95-12.14-4.85-3.17-2.77-4.84-6.83-6.41-10.73-7-17.47-14.17-35.64-13.76-54.36a2.77,2.77,0,0,1,3.13-2.68C465.55,235.8,542,244.82,590.52,232.3Z"/><path d="M590.52,233.8c1.4,0,1.9,4,2,4.73a18.78,18.78,0,0,1-.08,2.7c-.09,2.09-.23,4.18-.45,6.27a113,113,0,0,1-2.54,14.61,136.5,136.5,0,0,1-8.82,25.13c-2.58,5.61-6.11,15.42-12.17,18.15-2.25,1-5.33,1-7.74,1.28-21.24,2.15-43.15,1.92-64.42.33-4.91-.37-9.83-.83-14.69-1.67-8.17-1.4-14.86-3.65-18.57-11.69-7.36-16-14.09-34.15-15-51.84-.09-1.7-.49-5.75,1.55-6.6.38-.16,1.18.24,1.6.21a25.76,25.76,0,0,1,4.44.54q6.06.72,12.13,1.32,16.94,1.66,33.94,2.46c29.62,1.36,60.34,1.34,89.27-6,1.87-.48,1.07-3.37-.8-2.9-29.94,7.58-61.86,7.29-92.51,5.68q-18.39-1-36.71-3c-3.48-.38-7-1-10.49-1.24-7-.48-5.65,7.24-5.22,12.18a116.37,116.37,0,0,0,6.06,26.92c2.89,8.59,5.81,17.91,10.23,25.86,6.12,11,20.77,11.53,32,12.49,13.1,1.13,26.29,1.35,39.43,1.19,10.45-.13,21.07-.29,31.45-1.72,3.7-.51,6-1.07,8.8-3.76,6.49-6.35,10.11-16.31,13.39-24.57a126.13,126.13,0,0,0,8-29.85c.69-5.1,1.76-11.22.92-16.34-.44-2.71-2.26-4-4.93-3.92C588.59,230.85,588.58,233.85,590.52,233.8Z"/><path class="b" d="M476.12,271.79c-1.47,5.77-5.17,12.27-2,18.17,2.11,3.92,7.27,6.16,11.26,3.57,4.19-2.71,4.59-9.1,4.12-13.55-.58-5.4-4.06-10.23-9.87-10.15-3.22.05-3.23,5.05,0,5,7.1-.1,6.28,15.61,1.26,14.75-6.52-1.12-.78-13.18.05-16.46.79-3.12-4-4.45-4.82-1.33Z"/><path class="b" d="M501.46,273.14c-3.49,5.71-6.91,12.85-2.38,19,3.62,4.94,10.14,4.87,13.89.15s5.5-12.82,2.09-18.09c-3.23-5-9.81-5.37-13.37-.62-1.93,2.57,2.41,5.07,4.32,2.52,1.64-2.19,4-.5,5,1.06s.92,3.64.66,5.37c-.38,2.5-1.46,6.2-3.67,7.68-3.86,2.55-6.31-2.39-6.1-5.54.22-3.31,2.18-6.27,3.86-9s-2.64-5.26-4.32-2.52Z"/><path class="b" d="M530.93,273.37c-3.73,5.46-7.4,12.44-2.9,18.59,3.64,5,10.13,4.62,13.67-.22s5.47-13,1.67-18.13c-3.19-4.31-9.77-4.5-12.53.36-1.59,2.8,2.73,5.32,4.32,2.52,2.29-4,5.29,1.67,5.26,3.89,0,2.72-1.21,7-3.21,9-3.71,3.63-6.55-1.45-6.2-4.79s2.46-6.07,4.24-8.67-2.51-5.16-4.32-2.52Z"/><path class="b" d="M561.26,271.56l-9,21.3c-1.23,2.92,3.07,5.48,4.32,2.52l9-21.3c1.24-2.92-3.07-5.48-4.32-2.52Z"/><path class="b" d="M476.91,250.59a1.8,1.8,0,0,1,1.57,2.19l-.24,1.72c-.5,3.58-3.86,4-6.08,3.72-4.18-.59-6-4-5.49-7.63s3.18-6.85,7.29-6.28c3,.42,4.87,2.48,4.7,3.75a1.16,1.16,0,0,1-1.25,1c-.25,0-.52-.09-1.12-.91a3.31,3.31,0,0,0-2.48-1.57c-2.81-.39-4.39,1.93-4.71,4.22-.37,2.64,1,4.65,3.49,5s3.28-1.33,3.33-1.68l.12-.93a.4.4,0,0,0-.37-.5l-3-.41a1.15,1.15,0,0,1-.91-1.34,1,1,0,0,1,1.14-.94Z"/><path class="b" d="M482.15,258.45a1,1,0,0,1-1.17.86,1,1,0,0,1-1-1.13l.92-8.4a1.09,1.09,0,0,1,2.15.34l-.06.53a3.11,3.11,0,0,1,2.94-1.34c.81.09,1.91.58,1.81,1.55a1,1,0,0,1-1.09.9c-.19,0-.91-.23-1.07-.25-1.18-.13-2.92,2.23-3,2.67Z"/><path class="b" d="M490.35,255.82c0,.58,0,2.34,1.84,2.49a1.61,1.61,0,0,0,1.55-.78c.46-.56.7-.68,1.18-.64a1.06,1.06,0,0,1,.87,1.21c-.11,1.25-1.77,2.49-3.85,2.31-1.48-.13-4.17-1.15-3.8-5.43.34-4,2.65-5.2,4.56-5a4,4,0,0,1,3.53,4.46c-.11,1.22-.49,1.87-1.4,1.79Zm3.24-1.74c.36,0,.45,0,.46-.18a1.71,1.71,0,0,0-1.51-1.85c-1.44-.13-1.86,1.39-2,1.77Z"/><path class="b" d="M499.62,256.55c0,.58.09,2.34,1.89,2.45a1.62,1.62,0,0,0,1.54-.82c.44-.57.69-.69,1.16-.66a1.05,1.05,0,0,1,.9,1.18c-.08,1.25-1.71,2.53-3.8,2.4-1.47-.09-4.19-1-3.92-5.34.24-4,2.52-5.26,4.44-5.14a4,4,0,0,1,3.63,4.38c-.08,1.23-.44,1.88-1.36,1.83Zm3.2-1.81c.35,0,.44-.06.45-.2a1.73,1.73,0,0,0-1.56-1.81c-1.44-.09-1.82,1.43-1.91,1.82Z"/><path class="b" d="M515.3,260.6a1.09,1.09,0,0,1-1.13,1.08,1.11,1.11,0,0,1-1-1.18l.19-5.31a1.63,1.63,0,0,0-1.65-1.91,2.35,2.35,0,0,0-2.44,2.07l-.17,5a1.09,1.09,0,1,1-2.18-.1l.23-6.47c0-.3-.08-1.6-.07-1.87a1,1,0,0,1,1.12-1,1.42,1.42,0,0,1,1.24,1.13,3.56,3.56,0,0,1,2.92-1,3,3,0,0,1,3.19,3.19Z"/><path class="b" d="M517.53,252.46c0-.52,0-1.19.92-1.18s1,.56,1.1,1.16a2.93,2.93,0,0,1,2.61-1.15c3,0,4.2,2.62,4.19,5.33s-1.15,5.17-4.1,5.16a3.88,3.88,0,0,1-2.58-.88v1.72a1.1,1.1,0,0,1-1,1.12,1.13,1.13,0,0,1-1.14-1.1Zm2.15,4.72a2.17,2.17,0,0,0,2.29,2.34c1,0,2.16-.4,2.17-3.07a3.49,3.49,0,0,0-.74-2.38,1.94,1.94,0,0,0-1.49-.5,2.24,2.24,0,0,0-2.22,2.39Z"/><path class="b" d="M529.85,257.28c.06.58.3,2.32,2.1,2.28.56,0,.95-.18,1.45-1,.4-.61.63-.75,1.11-.76a1.05,1.05,0,0,1,1,1.1c0,1.25-1.48,2.67-3.57,2.73-1.48,0-4.27-.68-4.39-5-.1-4,2.06-5.46,4-5.51a4,4,0,0,1,4,4c0,1.22-.28,1.91-1.19,1.93Zm3-2.09c.36,0,.44-.09.44-.23a1.73,1.73,0,0,0-1.71-1.67c-1.45,0-1.69,1.59-1.75,2Z"/><path class="b" d="M545.94,257.91a3.71,3.71,0,0,0,.39,1.38,2.55,2.55,0,0,1,.22.71,1,1,0,0,1-1,1c-.86.05-1.06-.59-1.19-1.06a4.8,4.8,0,0,1-3.19,1.34c-2.46.15-3.91-1.31-4-3.21-.09-1.49.7-3.6,4.49-3.83a5.79,5.79,0,0,1,2,.18c-.05-.49-.16-1.71-2.26-1.58a2.87,2.87,0,0,0-1.61.51c-.88.58-1,.63-1.24.65a1.13,1.13,0,0,1-1.14-1.09c-.06-1.12,1.77-2,4-2.16,4.21-.26,4.39,2.74,4.47,4.1Zm-2.23-1.15c0-.29-.83-.5-2-.43-.6,0-2.46.15-2.37,1.63.06,1,.91,1.24,2,1.17a2.4,2.4,0,0,0,2.42-1.71Z"/><path class="b" d="M555.41,252.3a1.08,1.08,0,0,1-1,1.26c-.36,0-.58,0-1.16-.65a1.66,1.66,0,0,0-1.61-.73c-1.45.14-1.75,1.93-1.63,3.18s.89,2.92,2.39,2.77a1.61,1.61,0,0,0,1.42-1c.33-.55.58-.74,1-.78a1,1,0,0,1,1.18,1,3.78,3.78,0,0,1-3.42,3.06c-2.24.22-4.47-1.42-4.81-4.84-.19-1.93.21-5.27,3.87-5.63C553.15,249.77,555.27,250.83,555.41,252.3Z"/><path class="b" d="M559.67,255.09c.13.57.56,2.27,2.34,2,.56-.08.92-.29,1.34-1.12.32-.64.54-.81,1-.88a1,1,0,0,1,1.11,1c.18,1.25-1.16,2.82-3.23,3.11-1.47.21-4.32-.18-4.91-4.44-.55-3.94,1.42-5.66,3.32-5.92a4,4,0,0,1,4.43,3.56c.17,1.22-.06,1.93-1,2.06Zm2.77-2.41c.35-.05.42-.15.41-.28a1.74,1.74,0,0,0-1.89-1.47c-1.43.2-1.5,1.77-1.52,2.17Z"/><path class="b" d="M464.34,281.27s.6-7.76-3.36-3.17a14.23,14.23,0,0,0-3.24,7s-9.75,7.14-20.32,10.51c-15.72,5-33.25,1.65-23.24-46-35.19-32.95-23.13-70.59-23.11-70.64-31.43,22.41-76.76,70.88-79.36,121.87-3.73,73.12,101.4,73.33,145,16a90,90,0,0,0,7.62-11.79s11.91-.66,11.81-7.12S481.54,277.46,464.34,281.27Z"/><path d="M465.84,281.27c.17-2.62-.43-7.39-4.18-5.74-2.43,1.07-4,4.6-4.82,6.94-.13.4-1.12,3.24-.25,2s-1.55.75-2,1c-8.32,5.46-22.84,14.14-33.37,9.05-12-5.78-8.7-26.44-7.07-36.55.65-4,2.8-7.57-.24-10.63a90.63,90.63,0,0,1-11.53-13.81,71.49,71.49,0,0,1-10.3-24.26c-2-9.4-2.59-20.52.44-29.84.38-1.19-1.13-2.47-2.2-1.7-28.13,20.2-53.18,47.69-68.16,79.08-11.6,24.32-19.65,58.11-1.32,81.36,14.36,18.22,39.6,23.06,61.57,20.82,26-2.65,51.39-14.62,69.26-33.79a97.38,97.38,0,0,0,7.39-8.94c1.63-2.23,3.82-4.74,4.83-7.31,1.07-2.73,0-1.75,1.87-2.49,4.47-1.73,10.6-1.37,11.8-7.39.85-4.23,1.65-10.5.28-14.64-2-6.05-8.74-5.65-13.9-4.63-1.89.38-1.09,3.27.8,2.9,3-.59,7.55-1.52,9.67,1.4,1.29,1.77,1,4.47.92,6.53s-.4,3.9-.62,5.84c-.39,3.54-1.76,5.09-5.25,6.19-1.53.48-3.62.32-5,.94-2.14.94-2.78,3.31-4,5.34a92.15,92.15,0,0,1-13.92,17.31,108.32,108.32,0,0,1-64.56,29.79c-20.1,1.95-42.95-2-57-17.7-18.57-20.76-12.2-52.73-2.05-75.84,14.36-32.71,40.11-61.44,69-82.18l-2.2-1.69c-7.69,23.65,3.37,51.18,19.64,68.28,2.82,3,3.11,3.86,2.42,7.73-.41,2.31-.78,4.62-1.08,7a88.82,88.82,0,0,0-.85,13.54c.14,5.48.88,11.39,3.79,16.17,4.19,6.88,11.88,8.4,19.35,7,8-1.46,15.61-5.4,22.4-9.75,1.81-1.15,3.06-1.79,4-3.57.42-.82,2.09-7.17,3.43-6.67.35.13.16,2.59.14,2.91C462.72,283.2,465.72,283.19,465.84,281.27Z"/><path class="b" d="M501.33,170.12c-1.2,6.76.47,27.49,11.68,25.6,8.71-1.47,13.19-17.35,13.06-24.7-.25-13.53-21-4.29-25,3a7,7,0,0,1,1.2-.77"/><path d="M499.88,169.72c-1.19,7.65-.39,19,5.35,24.81,7.74,7.87,16.37-1.93,19.3-9.11,2.51-6.14,6.75-20.25-2.9-22.55-7.54-1.8-18,4-21.9,10.41a1.51,1.51,0,0,0,2,2.05l1.2-.76c1.63-1,.13-3.64-1.51-2.59l-1.2.76,2.05,2c3.09-5.08,11-9.43,17-9.19,8.67.36,4.66,13,2.77,17.92-2.59,6.84-11,16.33-16.49,6.37-3-5.46-3.76-13.26-2.81-19.37.3-1.89-2.59-2.7-2.89-.8Z"/><path class="b" d="M502.23,173.27l-.2-.69a9.51,9.51,0,0,0-1,1.46A7,7,0,0,1,502.23,173.27Z"/><path d="M503.67,172.87l-.19-.69a1.51,1.51,0,0,0-2.51-.66,13.59,13.59,0,0,0-1.24,1.76,1.49,1.49,0,0,0,.39,1.93,1.54,1.54,0,0,0,2-.11,6.15,6.15,0,0,1,.89-.53,1.5,1.5,0,1,0-1.51-2.59,11.54,11.54,0,0,0-1.51,1l2.36,1.82a10,10,0,0,1,.77-1.15l-2.51-.66.2.69a1.5,1.5,0,1,0,2.89-.8Z"/><path class="b" d="M517.13,138.31c9.19,3.15,11.28,18.18,10.36,26.41-1.29,11.47-16.22,19.13-26.69,13.19-5.18-2.94-5.23-11.47-5.15-16.89.05-3.6.76-14.22,5.13-15.41C500.78,145.61,508.76,135.44,517.13,138.31Z"/><path d="M516.73,139.75c8.44,3.39,10.13,16.1,9.35,24-1,10.45-13.93,18.24-23.59,13.28-7.51-3.86-6.2-18.84-4-25.83.85-2.75,2.86-4.13,4.76-6.1,3.53-3.66,8.24-6.79,13.51-5.38a1.5,1.5,0,0,0,.8-2.89c-7.71-2.07-13.7,3.42-18.83,8.18-5.52,5.11-5.13,16.58-4.26,23.42,1.23,9.78,8.81,14.52,18.44,12.59a19.83,19.83,0,0,0,16.28-18.78c.33-9.27-2-21.56-11.63-25.41C515.74,136.14,515,139,516.73,139.75Z"/><path class="g" d="M510.07,153.9a96.94,96.94,0,0,0-3,10.79,5.19,5.19,0,0,0,.07,3.33c.69,1.43,2.44,1.93,4,2.28,1.71.38,3.69.72,5.07-.37s1.51-2.71,1.41-4.27c-.3-4.72-3.08-8.86-5.77-12.74C511.85,152.92,510.74,151.9,510.07,153.9Z"/><path d="M508.63,153.51a91.44,91.44,0,0,0-2.86,10.18c-.43,2.07-.79,4.26.73,6,2.43,2.76,9.13,3.73,11.51.5,3-4-.08-10.41-2.24-14-1.47-2.45-4.56-7.78-7-3-.87,1.72,1.71,3.24,2.59,1.51-.48-.71-.53-.72-.14,0l.66,1c.63,1,1.31,2,1.89,3.05a20.27,20.27,0,0,1,1.74,3.93c.75,2.48,1.11,3.54-.83,5.26-2.22,2-3.74,1.34-5.13-1-1.22-2.08-.88-2.6-.33-4.79.65-2.62,1.44-5.19,2.29-7.76C512.12,152.47,509.23,151.68,508.63,153.51Z"/><path class="g" d="M484.6,105c-8.18-.13-16.52,3.75-21,10.59s-4.52,16.54.55,23,15.18,8.48,22,3.93c-3.92-3.22-10.32,1.81-9.65,6.83s5.73,8.39,10.69,9.44c12.42,2.63,26.06-6.73,28.08-19.26-1,6.93,8,11.83,14.67,9.56s10.76-8.74,14-15c4.07-7.83,7.63-16.69,5.64-25.29s-11.95-15.7-19.8-11.64c3.94,1.83,8.56-3.07,7.45-7.27s-6-6.49-10.33-6-8,3.19-11.3,6.06c3.7-5.1.25-12.92-5.44-15.63s-12.45-1.54-18.39.57c-4.85,1.72-9.61,4.15-13,8s-5.19,9.44-3.57,14.33,7.23,8.44,12.13,6.84"/><path d="M484.6,103.51c-14.11.18-27.37,10.82-25.66,25.88,1.5,13.27,16.2,21.44,27.94,14.39a1.52,1.52,0,0,0,0-2.59c-4.43-2.81-9.91.19-11.5,4.9-2.14,6.36,3.93,11.72,9.37,13.55,13.88,4.67,29.23-5.93,31.94-19.74l-3-.4c-.5,7.37,7.06,12.23,13.89,11.56,9.47-.94,15.06-11,18.76-18.58,4.29-8.82,8-20.24,2.38-29.33-4.2-6.75-12.26-10.6-19.78-7.27-1.26.55-.77,2.39.35,2.74,6.86,2.13,12-6.34,7.94-11.91-6.06-8.35-16.78-2.91-22.78,2.23l2.36,1.82c3.62-5.92.84-13.53-4.87-17.08-7.79-4.82-18.48-1.7-26,2.07s-14.24,11.13-12.7,20.06a11.94,11.94,0,0,0,14.41,9.77c1.88-.45,1.08-3.34-.8-2.89-7.45,1.77-12.1-6-10.37-12.54,1.66-6.29,7.25-10.25,12.92-12.69,5.4-2.32,12.08-4.35,17.91-2.52s10.54,8.41,6.93,14.3c-.93,1.52,1.11,2.89,2.36,1.82,3.51-3,7.73-6.18,12.64-5.55,2.42.3,4.56,1.27,5.71,3.5,1.66,3.2-.45,8.08-4.84,6.71l.36,2.75c7.18-3.18,15,2.67,17.24,9.46,2.58,7.63-.61,16.19-3.94,23-2.81,5.78-6.18,12.29-12,15.59s-15.64.8-15.1-7.05c.12-1.67-2.62-2.06-3-.4a23.23,23.23,0,0,1-17,17.9,18.69,18.69,0,0,1-13.45-1.23c-2.67-1.45-5.06-3.76-5.17-6.93-.11-3.45,3.57-7.38,7.23-5.06v-2.59c-11,6.6-23.81-2.48-23.58-14.67s11.41-19.86,22.81-20a1.5,1.5,0,0,0,0-3Z"/><path d="M482.66,370.19v10a1.5,1.5,0,0,0,3,0v-10a1.5,1.5,0,0,0-3,0Z"/><path d="M486.93,392.52l1.11,8.93c.23,1.89,3.24,1.91,3,0l-1.11-8.93c-.24-1.89-3.24-1.91-3,0Z"/><path d="M473.9,385.07l1.12,7.81c.27,1.9,3.16,1.1,2.89-.8l-1.11-7.81c-.27-1.9-3.16-1.09-2.9.8Z"/><path d="M495.13,375.41l3.35,7.81c.76,1.76,3.34.24,2.59-1.52l-3.35-7.81c-.76-1.77-3.34-.24-2.59,1.52Z"/><path d="M499.59,403.3l3.35,6.69c.86,1.73,3.45.21,2.59-1.51l-3.35-6.7c-.86-1.72-3.45-.21-2.59,1.52Z"/><path d="M515.32,421.83,518.63,433c.55,1.85,3.44,1.06,2.89-.79L518.22,421c-.55-1.85-3.45-1.06-2.9.8Z"/><path d="M511.36,396.36l2.27,6.68c.62,1.82,3.52,1,2.9-.79l-2.27-6.68c-.62-1.82-3.52-1-2.9.79Z"/><path d="M515.06,371.7l3.35,11.16c.55,1.84,3.45,1.06,2.89-.8L518,370.9c-.55-1.84-3.45-1-2.89.8Z"/><path d="M499.11,357.92l4.42,2.31c1.71.89,3.23-1.7,1.52-2.59l-4.43-2.31c-1.71-.89-3.23,1.7-1.51,2.59Z"/><path d="M470.2,289.31a15.58,15.58,0,0,0,6.35-.79c1.81-.63,1-3.52-.8-2.9a13.24,13.24,0,0,1-5.55.69c-1.93-.15-1.92,2.85,0,3Z"/><path d="M470.2,294.9a11,11,0,0,0,6-1.33c1.7-.92.19-3.51-1.52-2.59a8.05,8.05,0,0,1-4.44.92c-1.93-.13-1.92,2.87,0,3Z"/><path d="M470.18,299.64a8.2,8.2,0,0,0,7-1.84c1.47-1.25-.66-3.36-2.12-2.12a4.94,4.94,0,0,1-4.11,1.06c-1.89-.36-2.7,2.53-.8,2.9Z"/><path d="M497.1,175.87c-1.63,9.73,3.82,26.33,16.5,24.59,14.23-1.94,14.63-22.48,14.4-32.93,0-1.92-3-1.93-3,0,.2,9.16.63,21.21-7.23,27.66-11.38,9.34-19.29-9.5-17.78-18.52.32-1.89-2.58-2.7-2.89-.8Z"/><path d="M415.55,250.51a36.24,36.24,0,0,1,14-15.91c1.64-1,.14-3.61-1.51-2.59A38.91,38.91,0,0,0,413,249c-.82,1.73,1.76,3.26,2.59,1.51Z"/><path d="M394,175a91.17,91.17,0,0,0,6.35,50.84c.76,1.77,3.35.24,2.59-1.52a87.51,87.51,0,0,1-6.05-48.52c.3-1.89-2.59-2.7-2.89-.8Z"/><path d="M624.32,274.35a6.89,6.89,0,0,0,6,2.53,1.54,1.54,0,0,0,1.5-1.5,1.52,1.52,0,0,0-1.5-1.5,4.17,4.17,0,0,1-3.9-1.65,1.52,1.52,0,0,0-2.13,0,1.55,1.55,0,0,0,0,2.12Z"/><path d="M624.66,280.65a5.53,5.53,0,0,0,4.63.35,1.53,1.53,0,0,0,1-1.84,1.5,1.5,0,0,0-1.84-1.05,2.63,2.63,0,0,1-2.32-.05c-1.7-.9-3.22,1.68-1.51,2.59Z"/><path d="M629.65,285.33a6,6,0,0,0,3.38-2,1.56,1.56,0,0,0,0-2.13,1.53,1.53,0,0,0-2.13,0,3.21,3.21,0,0,1-2,1.27,1.5,1.5,0,0,0-1.05,1.84,1.53,1.53,0,0,0,1.85,1.05Z"/><path d="M499.77,421.33l4,5.46c1.12,1.54,3.72,0,2.59-1.52l-4-5.45c-1.12-1.55-3.73-.05-2.59,1.51Z"/><path class="g" d="M511.49,454.34c-1.47-3.26.81-8.43,3.93-10.2s7.09-1.47,10.35,0a27.09,27.09,0,0,1,8.37,6.62,83.71,83.71,0,0,1,7.59,9.51,9.23,9.23,0,0,1,2,4.59c.1,2.12-1.16,4-2.37,5.78-1.34,1.92-2.91,4-5.21,4.44-2.59.48-5-1.29-7-3-7.24-5.93-13.6-9.32-17.59-17.79"/><path d="M512.94,454a7.66,7.66,0,0,1,3.24-8.51c4-2.53,9.26-.2,12.56,2.33a42.12,42.12,0,0,1,6.08,6c2,2.28,5.66,5.7,6.53,8.69a9.89,9.89,0,0,1-2.08,8.41c-2.94,3-6.24,2.37-9.13.19-1.76-1.33-3.49-2.74-5.24-4.1-5-3.83-9.24-7.69-12.11-13.38-.87-1.73-3.46-.21-2.59,1.51a35.29,35.29,0,0,0,9.43,11.53c3.85,3.16,8.08,7.54,12.73,9.4,7,2.81,14.6-7.11,12.3-13.55-1.8-5-6.84-10.13-10.52-13.88-3.37-3.44-7.46-6.61-12.43-7.07-7.24-.68-14.08,5.71-11.66,13.21.59,1.83,3.49,1.05,2.89-.79Z"/><path class="h" d="M511.46,453.36a15.84,15.84,0,0,1,11.18-7.93l17.55,16.82c1.56,1.48,3.19,3.11,3.61,5.22.69,3.41-2,6.5-4.43,9s-5.71,5.17-9.07,4.16c-2-.59-3.35-2.34-4.56-4a225,225,0,0,1-14.25-22.24"/><path d="M512.75,454.12c1.56-2.56,4.91-6.57,8.23-6.74,2.73-.13,5.41,3.72,7.35,5.58l6.75,6.46c2.58,2.48,6.14,4.87,6.77,8.49s-2.64,7.37-5.72,9.37c-6.48,4.23-9.38-1.75-12.37-6.08-3.93-5.7-7.56-11.59-11-17.61a1.5,1.5,0,0,0-2.59,1.51c3.1,5.48,6.38,10.84,9.91,16,2.36,3.49,5.16,9.21,9.44,10.74,6.43,2.3,15.18-6.58,15.8-12.58.35-3.41-1.84-5.88-4.1-8.13-4.19-4.17-8.55-8.19-12.82-12.28-3.72-3.57-4.56-6-9.58-3.93a18.14,18.14,0,0,0-8.69,7.63,1.5,1.5,0,0,0,2.59,1.52Z"/><path d="M518.44,460.27l5.95-6.44c1.31-1.42-.81-3.55-2.12-2.13l-5.95,6.45c-1.3,1.42.81,3.54,2.12,2.12Z"/><path d="M522.92,465.73l6.88-7c1.35-1.38-.77-3.5-2.12-2.12l-6.89,7c-1.35,1.38.77,3.5,2.13,2.12Z"/><path d="M528,472.31l7.42-7.47a1.5,1.5,0,0,0-2.13-2.12l-7.41,7.47a1.5,1.5,0,0,0,2.12,2.12Z"/><path class="b" d="M671.88,208.85c7.21,11,6.15,28.77,3.89,41.75s-12.47,22.28-24.28,28.13a15.31,15.31,0,0,0-3.66,2.17,28.37,28.37,0,0,0-2.56,3.19,10.22,10.22,0,0,1-9.58,3.72c-3.54-.68-9.21-5.21-10.4-7.11a8.34,8.34,0,0,1-.71-6.5,9.89,9.89,0,0,1,4.34-6.07,7.25,7.25,0,0,1,7.3-.11c-.22-14.2-3.61-22.06-10.08-37.5Z"/><path d="M670.59,209.61c5.23,8.51,5.8,18.9,5.18,28.64-.65,10.08-2.26,19.7-9.15,27.5a47.18,47.18,0,0,1-10.76,8.85c-3.35,2.06-7.29,3.34-10,6.24-2.09,2.23-3.31,4.58-6.58,5.39-2.87.7-5.43-.5-7.78-2.05-1.62-1.06-3.88-2.52-4.9-4.24-3.12-5.23,2.55-13.49,8.87-10.63a1.52,1.52,0,0,0,2.26-1.29c-.34-13.63-4.92-25.47-10.13-37.9l-.69,1.7,45.74-21.67c1.74-.83.22-3.42-1.52-2.59l-45.74,21.67a1.5,1.5,0,0,0-.69,1.69c5.1,12.16,9.7,23.74,10,37.1l2.25-1.3c-11.31-5.13-18.73,10.5-10,17.84,3.67,3.08,8.14,5.81,13.08,4.56a13.32,13.32,0,0,0,6.5-4.27,22.17,22.17,0,0,1,4.4-4.2c1.62-1,3.48-1.74,5.15-2.71,11.42-6.66,19.53-16.44,21.54-29.69s2.77-28.36-4.48-40.15C672.17,206.45,669.57,208,670.59,209.61Z"/><path d="M625.38,281.63a8.86,8.86,0,0,0,7.19-2.89c1.3-1.42-.82-3.55-2.12-2.12a6,6,0,0,1-5.07,2c-1.92-.13-1.91,2.87,0,3Z"/><path d="M629.49,285.47a7.93,7.93,0,0,0,6.88-4.09c.93-1.69-1.66-3.2-2.59-1.51a4.9,4.9,0,0,1-4.29,2.6,1.5,1.5,0,0,0,0,3Z"/><path d="M635,288.27a9,9,0,0,0,6-4c1-1.63-1.55-3.13-2.59-1.52a6.07,6.07,0,0,1-4.18,2.67c-1.9.33-1.09,3.22.8,2.89Z"/><path d="M627.31,233.18l3.35-26.73c.24-1.91-2.77-1.89-3,0l-3.35,26.73c-.24,1.91,2.76,1.89,3,0Z"/><path d="M560.33,326.49a33.07,33.07,0,0,0,22.43,15c1.88.32,2.69-2.57.79-2.9A30.15,30.15,0,0,1,562.92,325c-1-1.62-3.63-.12-2.59,1.51Z"/><path d="M565.32,325.92a33,33,0,0,0,19.45,10.94c1.89.33,2.7-2.56.79-2.89a30.59,30.59,0,0,1-18.12-10.17c-1.27-1.46-3.39.67-2.12,2.12Z"/><path d="M455.6,341.27a44.58,44.58,0,0,0,16.27-14.68c1.08-1.61-1.51-3.11-2.59-1.52a41.37,41.37,0,0,1-15.2,13.61c-1.71.9-.19,3.49,1.52,2.59Z"/><path d="M454.34,347.88a65.44,65.44,0,0,0,23-20.66c1.09-1.59-1.5-3.09-2.59-1.51a62.45,62.45,0,0,1-21.88,19.58c-1.7.92-.19,3.51,1.51,2.59Z"/><path d="M593.81,221.65c-2.84,3.82-5.73,7.75-7,12.33a6.07,6.07,0,0,0-.13,3.81,2.6,2.6,0,0,0,3.06,1.71l9-12.88a7.1,7.1,0,0,0,1.54-3.37c.2-2.64-3.38-4.65-5.54-3.11"/><path d="M442.09,227.57c1.64,4.48,3.33,9.06,6.43,12.68a6.09,6.09,0,0,0,3.11,2.2,2.61,2.61,0,0,0,3.11-1.62l-5.83-14.56a7.12,7.12,0,0,0-2-3.14c-2.1-1.62-5.75.27-5.65,2.92"/><path d="M496.7,109.72a15.74,15.74,0,0,0-8.28-2.59c-1.93-.06-1.93,2.94,0,3a12.65,12.65,0,0,1,6.76,2.18c1.62,1.07,3.12-1.53,1.52-2.59Z"/><path d="M495.33,112.66a12.41,12.41,0,0,0-8,1.08c-1.73.85-.21,3.44,1.51,2.59a8.87,8.87,0,0,1,5.73-.77c1.89.36,2.69-2.53.8-2.9Z"/><path d="M526.55,126.56l6-3.34a1.5,1.5,0,0,0-1.51-2.6L525,124a1.5,1.5,0,0,0,1.51,2.59Z"/><path d="M528.61,130.43a17.3,17.3,0,0,1,7-.69c1.92.2,1.9-2.8,0-3a19.45,19.45,0,0,0-7.84.8c-1.83.57-1,3.47.8,2.89Z"/><path d="M492.19,144.1l-4.09,3.72c-1.43,1.3.7,3.42,2.13,2.12l4.09-3.72c1.43-1.3-.7-3.42-2.13-2.12Z"/><path d="M496.27,145.69,495,149a1.5,1.5,0,1,0,2.89.8l1.3-3.35a1.5,1.5,0,0,0-1-1.84,1.54,1.54,0,0,0-1.85,1Z"/><path d="M502.54,144.42a11.06,11.06,0,0,0,.8,5.42,1.56,1.56,0,0,0,1.84,1,1.52,1.52,0,0,0,1.05-1.85,9.14,9.14,0,0,1-.69-4.62,1.51,1.51,0,0,0-1.5-1.5,1.53,1.53,0,0,0-1.5,1.5Z"/><path d="M507.81,91.2a12.46,12.46,0,0,0-2.75-5.82c-1.22-1.5-3.33.63-2.12,2.12a9.58,9.58,0,0,1,2,4.5c.34,1.89,3.23,1.09,2.89-.8Z"/><path d="M504.61,91.06l-3.9-1.86a1.55,1.55,0,0,0-2.06.54,1.52,1.52,0,0,0,.54,2.05l3.91,1.86a1.54,1.54,0,0,0,2-.54,1.51,1.51,0,0,0-.54-2Z"/><path d="M499,92.93l-6.89,1.28c-1.89.35-1.09,3.24.8,2.89l6.89-1.28c1.89-.35,1.09-3.24-.8-2.89Z"/><path d="M520.54,122.38a40.69,40.69,0,0,1,15.88-6.8c1.9-.37,1.1-3.26-.79-2.89a42.85,42.85,0,0,0-16.61,7.1c-1.56,1.11-.06,3.71,1.52,2.59Z"/><path d="M503,117.64A37,37,0,0,0,482.48,121c-1.75.83-.23,3.41,1.51,2.59a34.19,34.19,0,0,1,19-3c1.91.23,1.89-2.77,0-3Z"/><path class="b" d="M589.54,122.67a68.77,68.77,0,0,1,61.9-21.07c3.84.69,9.68,6.4,10.45,10.23s-2.74,7.13-6.43,7.87-7.47-.37-11.14-1.23c-18-4.22-38.12-3.75-54.78,4.2"/><path d="M591.66,124.79a66,66,0,0,1,48.48-21.19c5.89,0,11.71,0,16,4.53,2.93,3.05,3.88,6.77-1,8.38-3.74,1.22-7.93-.5-11.63-1.3a102.55,102.55,0,0,0-19.36-2.35,81.27,81.27,0,0,0-36.1,7.22c-3.5,1.61-.45,6.78,3,5.18,16.4-7.55,35.1-7.86,52.47-3.9,6.45,1.47,13.88,3.17,18.94-2.37,4.15-4.54,2.39-10-1.19-14.14-8.5-9.87-24.7-8.09-36.21-5.65a72,72,0,0,0-37.64,21.35c-2.63,2.82,1.6,7.07,4.24,4.24Z"/><path class="j" d="M614.27,112.2s27.31-6.36,39.19,3.23"/><path class="b" d="M419,64.31a68.77,68.77,0,0,0-58-30.18c-3.9.11-10.54,4.87-11.88,8.53s1.64,7.46,5.17,8.76,7.44.76,11.2.46c18.39-1.46,38.25,2.06,53.52,12.43"/><path d="M421.61,62.79a72.58,72.58,0,0,0-33.18-26.65C377,31.55,360.07,27,350,36.58c-4.23,4-5.68,9.49-1.56,14.25,5,5.77,12.8,4.26,19.52,3.89,17.34-.95,34.94,2.53,49.56,12.18,3.23,2.13,6.24-3.06,3-5.18A80.28,80.28,0,0,0,386.9,49.49a101.4,101.4,0,0,0-19.78-.72c-3.06.19-6.23.77-9.3.34-5-.7-7.48-4.61-3.59-8.28,8.32-7.85,24.47-2.39,33.64,1.54a66,66,0,0,1,28.56,23.45c2.16,3.17,7.36.18,5.18-3Z"/><path class="j" d="M396.15,50.23s-26-10.42-39.22-2.74"/><path class="b" d="M429.11,113.29C392.47,86.52,365.26,83.2,323,100.07c-7.25,2.89-15.32,8-15.31,15.79,0,7.51,8.2,12.81,15.73,12.79s14.49-3.73,21.33-6.89c33.52-15.46,48.59-17.28,84.38-8.47"/><path d="M430.62,110.7c-15.06-10.91-31.69-20.39-50.35-23.1C362.15,85,344.09,89,327.12,95.27c-7.69,2.85-16.8,6.25-20.82,14-3.55,6.86-.74,14.58,5.44,18.77,8,5.4,17.44,3.71,25.81.25,9.81-4.06,19.17-9,29.24-12.4,20.78-7,40.55-4.84,61.52.28,3.75.91,5.35-4.87,1.59-5.79-15.2-3.7-30.84-6.76-46.52-4.65-16.59,2.23-31.39,9.72-46.53,16.37-7.52,3.31-21.72,6.89-25.64-3.69-3.6-9.69,10.9-14.92,17.51-17.37,15.33-5.7,31.68-9.7,48.12-7.89,18.88,2.07,35.64,11.76,50.75,22.72,3.13,2.26,6.13-2.94,3-5.19Z"/><path class="j" d="M326.49,119s37.11-25,69.13-17.34"/><path class="b" d="M574.34,82.62c16.17-42.39,37.2-60,81.85-68.83,7.66-1.51,17.21-1.61,21.43,4.93,4.08,6.31.1,15.21-6.23,19.29s-14.18,4.75-21.64,5.82c-36.55,5.25-50.19,11.93-75.41,38.79"/><path d="M577.23,83.42c5.78-15,13.16-29.82,24.67-41.27,10.77-10.71,24.49-17.34,38.94-21.57,8.11-2.37,17.52-5.48,26-4.51,13.7,1.56,10,16.34.18,20.9-9.24,4.3-20.72,4.15-30.64,6A122.47,122.47,0,0,0,614,49.08c-16.66,6.57-29.65,18.56-41.77,31.42-2.65,2.81,1.58,7.06,4.24,4.24,12.63-13.39,26.1-25.72,43.9-31.6,9.28-3.06,19-4.77,28.61-6.19,10.19-1.5,22.12-2.24,29-11,5.35-6.8,6.2-17-1.36-22.55s-18.37-3.22-26.86-1.3c-16.7,3.78-33.07,9.8-46.46,20.73-15.47,12.63-24.8,30.68-31.85,49-1.39,3.61,4.4,5.17,5.78,1.6Z"/><path class="j" d="M663.52,31.55s-44.74-.8-67.43,23.06"/><path d="M416.3,247.57l-.09-.09L412,251.72c1.32,1.26,2.36,6,3.08,7.7,1.53,3.69,3.07,7.38,4.65,11.05,4,9.27,8.26,18.42,13.06,27.31l1.79-4.41c-6,1.54-13,1.83-16.83-3.87-7.07-10.44-2.93-27.86-.64-39,.77-3.77-5-5.38-5.79-1.6-2.72,13.28-7,32.76,2,44.75,5.47,7.28,14.65,7.62,22.81,5.52a3,3,0,0,0,1.79-4.41c-5-9.33-9.48-19-13.66-28.71-1.62-3.8-3.2-7.62-4.77-11.43-.88-2.12-1.62-5.52-3.3-7.13-2.79-2.67-7,1.56-4.24,4.24l.09.09C414.85,254.49,419.1,250.25,416.3,247.57Z"/><path d="M674.77,208.05c-6.4-19.61-22.66-34.84-38.7-46.94C621.29,150,603.93,139,585.8,134.27c-14.06-3.65-29.5-3.58-43.73-1.14l3.39,4.41c4.71-8.65,9.13-18.6,7.14-28.67A20,20,0,0,0,535.12,93l2.12,5.12c4.81-5.35,3.43-12.64-3.1-15.84-7.52-3.7-15,.7-20.7,5.59l4.72,3.63c4-6.57,1-15.22-5.42-19.12-8.33-5.07-19.44-2-27.52,2.07s-14.87,11.87-13.45,21.35A13.44,13.44,0,0,0,488.08,107l-1.6-5.78c-5.32,1.75-10.77,1.46-15.92,4.19A24.84,24.84,0,0,0,458.29,120c-4.14,13.78,4.9,27.16,19.29,27.91L475,143.42l-.21.34,2.59-1.49a140.89,140.89,0,0,0-84.06,31l5.12,2.12v0c-.4-3-5.34-4.5-5.9-.8.08-.53-3.37,2.31-3.81,2.68-1.78,1.48,1.26-.37-1,.56-2.5,1-5.17,3.9-7.28,5.59q-7.79,6.24-15,13.16a234.21,234.21,0,0,0-28.79,33.08c-16.2,22.65-29.83,51.08-27.87,79.64,1.27,18.55,11,34.83,27.58,43.59,17.12,9,37.66,9.77,56.34,6.14,24.17-4.7,47-17.37,63-36.1l-3.63.47a21.2,21.2,0,0,0,5.72,2.78l-1.8-4.4c-10.76,21-3.43,47.5,9.15,65.83,1.36,2,4.87,2,5.48-.72l.19-.85h-5.78c5.49,26.08,29.45,43.37,45.59,62.85l-.47-3.64c-3,5.13-2.31,9.21.66,14.09,3.88,6.4,7.85,12.77,12.31,18.79,3.12,4.22,7.19,7.12,12.51,4.81,4.44-1.93,9.56-7,10.89-11.8,1.64-5.88-1.23-11.17-4.66-15.68-2.1-2.77-3.5-4.63-4.35-8-.37-1.44-.71-2.84-1-4.31-1.45-8.59-2.1-17.36-2.93-26q-1.59-16.56-2.93-33.13l-5.59,1.51a27.26,27.26,0,0,0,16.73,13.44l-2.1-3.69c-.72,5.14-2.25,12,1,16.61,2.73,3.91,8.38,4.77,12.8,4.48,11.94-.8,10.49-16,7.8-24.2L560,395.46c9.27-5.94,16-15.26,20.43-25.24A69.07,69.07,0,0,0,585,355.1c1.25-6.65,2.89-12.86,3-19.71l-3.8,2.9.13,0c3.17.56,5.46-3.71,2.31-5.49l-.13-.07,1.49,2.59c-.1-6.62-1.08-13-4.06-19l-.47,3.63c5.68-5.21,9.92-11.65,14-18.16,4.31-6.95,9.07-13.63,13.27-20.64a146.4,146.4,0,0,0,18.09-47.53l-2.89,2.2h1.18l-2.89-2.2c4.71,11.26,8.68,22,9,34.36l4.51-2.59c-12.8-5.81-21.92,11.68-11.8,20.19C630,289,635,292,640.47,290.57a14.56,14.56,0,0,0,7.39-5c2.67-3.11,5.52-4.33,9-6.37,11.72-6.83,20.18-17,22.24-30.59s2.84-29.15-4.64-41.31c-2-3.28-7.21-.27-5.18,3,5.1,8.28,5.58,18.4,5,27.88-.62,9.65-2.11,19-8.71,26.44a45.63,45.63,0,0,1-10.46,8.62c-3.42,2.1-7.61,3.41-10.31,6.47-3.87,4.37-7.06,6.72-12.54,3.11-1.39-.92-3.51-2.22-4.37-3.71-2.29-3.95,1.88-10.81,6.82-8.57,2,.89,4.58-.13,4.52-2.59-.33-12.89-4.28-24.17-9.21-36a3.14,3.14,0,0,0-2.89-2.2h-1.18a3,3,0,0,0-2.9,2.2,141.59,141.59,0,0,1-17.48,46.1c-3.93,6.55-8.41,12.75-12.42,19.26s-8.14,13.07-13.87,18.33a3.05,3.05,0,0,0-.47,3.63,32.61,32.61,0,0,1,3.13,12.39c.14,2.11-.49,5,1.72,6.25l2.31-5.49-.12,0a3,3,0,0,0-3.8,2.89c-.11,6.3-1.65,12-2.8,18.11a63.39,63.39,0,0,1-3.91,13.36c-3.91,9.14-9.93,18-18.41,23.42a3.07,3.07,0,0,0-1.38,3.39,31.42,31.42,0,0,1,1.53,7.62c.22,3.22.49,6.76-2.59,8.29-2.85,1.42-8,.84-9.39-2.56-1.09-2.71.08-7.55.46-10.24a3.1,3.1,0,0,0-2.1-3.7c-5.88-1.6-10.18-5.43-13.14-10.68-1.4-2.47-5.84-1.52-5.59,1.52,1.57,18.93,3,37.95,5.5,56.79a75.34,75.34,0,0,0,1.53,8.28c.85,3.38,1.18,4.82,3.37,7.48,3,3.57,5.06,6.12,5.5,10.85.33,3.49-3,7.95-6.32,9.52-5,2.4-7.94-4.47-10.13-7.7q-3-4.49-5.87-9.13c-2.36-3.86-5.56-7.24-2.94-11.77a3.09,3.09,0,0,0-.47-3.63c-15.44-18.65-38.8-35.28-44.05-60.2-.6-2.89-5.14-2.84-5.78,0l-.19.85,5.48-.72c-11.26-16.41-18.91-40.67-9.15-59.77a3,3,0,0,0-1.79-4.41,15,15,0,0,1-4.28-2.18,3,3,0,0,0-3.64.47C426.84,347.39,381,364.78,344.39,350,328.11,343.43,317,329.42,315,311.9c-3.12-27,9.73-54.42,24.61-76.09a224.47,224.47,0,0,1,30.57-35.51c5-4.71,10.1-9.21,15.47-13.45,2.47-1.95,5.07-3.74,7.54-5.68,1-.77,1.09-1.12,2.16-1.85s2.76-1.78,3-3.17l-5.89-.8v0a3,3,0,0,0,5.12,2.12,133.5,133.5,0,0,1,63.93-27.9A125.28,125.28,0,0,1,474,148.39c2.38-.11,4.74.33,6.16-1.94a3,3,0,0,0-2.59-4.52c-12.7-.66-18-14.72-11.39-24.82a20.92,20.92,0,0,1,12.05-8.31c3.31-.89,6.57-.7,9.84-1.78,3.65-1.2,2.18-6.68-1.6-5.78-6.33,1.51-10-5.28-8.53-10.69,1.54-5.83,6.82-9.46,12.06-11.72s11.39-4.11,16.93-2.44c5,1.5,9.09,7.11,6,12.1-1.86,3,2.23,5.76,4.72,3.63,2.69-2.31,5.78-4.75,9.43-5.13s9.88,2.45,5.88,6.9A3,3,0,0,0,535.12,99c7.91.84,12.25,8.51,12,15.84-.28,7-3.52,13.62-6.81,19.66-1.33,2.45.86,4.84,3.39,4.41,14.2-2.44,30.16-2.35,44,2.15,10.37,3.37,20.19,8.68,29.45,14.37,20.5,12.56,44.12,30.38,51.9,54.21C670.18,213.3,676,211.74,674.77,208.05Z"/><path d="M358.17,240.23c-1.64,4.75-8.77,24.73,2.28,24.62,3.71,0,6.32-3.08,7.33-6.37a20.2,20.2,0,0,0,.63-3.54c.26-2,1.64-6.75,2.28-1.41.36,3,.74,6,1.2,9,.54,3.48,1.13,6.95,1.88,10.39.34,1.61.59,3.8,1.89,5,2.76,2.56,5.64-.25,6.94-2.77,4.7-9.09-2.41-21.78,5.08-29.53,1.34-1.39-.77-3.52-2.12-2.12-4.95,5.12-4.39,11.94-4.15,18.56.08,2.49-.61,16.25-4.55,11-1.28-1.69-1.28-6.46-1.62-8.48q-.84-5-1.44-10.06c-.24-2.11,0-5.52-2.17-6.83-1.77-1.09-3.56-.13-4.66,1.36a9.49,9.49,0,0,0-1.4,4.14,25,25,0,0,1-.5,3.76,3.64,3.64,0,0,1-2,2.78q-1.68,3.93-3.7.19c-2.37-2.23-2-3-1.6-6,.18-1.25.41-2.5.67-3.73a72,72,0,0,1,2.59-9.1c.63-1.83-2.27-2.61-2.9-.8Z"/><path d="M434.48,161.31c-1.28,5.11-8.6,22.49.65,24.94,3.35.89,6-1.59,7.55-4.29,3-5.29,2.09-14.25,8.8-16.71,6.26-2.29,6.75,3.9,6.62,8.58a26.29,26.29,0,0,0,.95,8.23c.94,3.22,2.87,8.86,6.9,9.22,3.3.3,5.36-3,6.32-5.73,1.59-4.52.79-21.87,6.78-22.12,1.92-.08,1.93-3.08,0-3a7.17,7.17,0,0,0-6.58,4.52c-2.3,5.27-1.29,12.19-2.58,17.79-.21.9-.56,3.36-1.43,3.9l-4.1,0A14.32,14.32,0,0,1,463,184a21.89,21.89,0,0,1-1.92-9.41c.07-4,1.13-8.72-2.64-11.48-5.54-4-12.18.77-14.57,5.93a50.15,50.15,0,0,0-2.33,7.57,15.77,15.77,0,0,1-1.76,4.36c-1.77,2.67-5.12,2.69-6-1.11-.58-2.49.51-5.43,1.11-7.81l2.51-10c.47-1.87-2.42-2.67-2.9-.8Z"/><path d="M534.72,154.41c2.07-3.69,5,2.5,5.33,4.32a38.65,38.65,0,0,0,1.07,5.22,1.52,1.52,0,0,0,1.44,1.1c3.85-.15,5.83-3,6.83-6.5.68-2.38.34-6.34,2.19-8.22,3.13-.93,4.9-.4,5.32,1.61a10.22,10.22,0,0,1,.48,2.45,31.58,31.58,0,0,1,0,4.24c-.11,4.09-1.6,11.18,2.42,14.08a4.7,4.7,0,0,0,7-1.34c1-1.65-1.58-3.16-2.59-1.52Q560,170,560.27,167a12.21,12.21,0,0,1-.08-2.49c0-1.31.09-2.63.13-3.94a38.39,38.39,0,0,0-.11-7.58c-.43-2.59-1.44-5.47-4-6.69-10.37-5-7.2,15.46-13.69,15.71l1.45,1.1c-1.26-4-.62-9.62-5-11.88-2.59-1.34-5.45-1-6.91,1.62a1.5,1.5,0,0,0,2.59,1.52Z"/><path d="M590.39,183.68a86.66,86.66,0,0,0,.47,15.86c.24,1.93.43,5.1,3,5.54,6.18,1.07,7.8-14,8.53-17.58a45.32,45.32,0,0,1,1.55-6.2c1-2.72,3.63-4.18,5-.84a11.72,11.72,0,0,1,.26,3.46c.15,2.6.5,5.54,2.51,7.44,3.34,3.16,8.79.69,8.14-3.88-.27-1.91-3.16-1.1-2.89.79q-5.07.43-4.73-3.61l-.06-1.47a26.82,26.82,0,0,0-.24-3.35,7.76,7.76,0,0,0-2.16-4.65c-3-2.51-6.16,0-7.69,2.81-2.69,5-2.77,11.16-4.21,16.53-.38,1.4-1.11,4.56-2.05,5.51-2.81,2.82-2.2-2.87-2.33-4.6a88.74,88.74,0,0,1-.05-11.76c.11-1.92-2.89-1.92-3,0Z"/><path d="M519.3,210.67c0,4.28-2.49,19.72,5.29,19.5,2.77-.08,4.34-2.49,5.3-4.82a63.11,63.11,0,0,0,2.21-7.8c.38-1.44.76-2.89,1.15-4.34l.46-1.73q.39-3,4.21-3.3c-.34,1.89,2.55,2.7,2.89.8a3.9,3.9,0,0,0-3.11-4.82c-3-.7-5,1.57-6.07,4-2.2,5-2.41,10.72-4.4,15.78-.18,1.88-1.07,2.43-2.7,1.63q-2.6.52-2.15-2.17a34,34,0,0,1,0-3.64l0-9.13a1.5,1.5,0,0,0-3,0Z"/><path d="M649.61,234.35c-1.34,3.75-5.82,16.2,1.49,16.67,7.06.46,6.65-8.07,10.73-11.31,1.51-1.2-.62-3.31-2.12-2.12-3.08,2.44-2.89,6.93-5.72,9.35-.61.52-2.14,1.45-3,1.05-1.53-.69-.67-4-.5-5.13a42.92,42.92,0,0,1,2-7.71c.65-1.82-2.25-2.6-2.89-.8Z"/><path d="M337.66,302.36a86.33,86.33,0,0,0-1.28,18.44c.14,3-.17,8.67,3.08,10.44,7.78,4.23,7-16.5,6.79-19.56-.16-1.91-3.16-1.93-3,0a47.89,47.89,0,0,1,0,9c0,.3-.57,6-1.27,6.65-2,1.75-2.33-2.92-2.41-3.78a78,78,0,0,1,1-20.35c.32-1.89-2.57-2.7-2.89-.8Z"/><path d="M375.31,309.09l1.48,9.4c.48,3,.51,6.67,1.71,9.5.95,2.23,3,3.74,5.49,2.61,3.61-1.66,4.14-6.79,4.74-10.09l3.8-20.68c.35-1.88-2.55-2.69-2.89-.79-1.44,7.82-2.7,15.71-4.32,23.49-.38,1.81-2.43,6.17-4.31,3.36-.8-1.19-.66-3.94-.88-5.38l-1.93-12.22c-.3-1.9-3.19-1.1-2.89.8Z"/><path d="M418.57,312.2c.41,3.52.65,7.13,1.29,10.62.41,2.27,1.56,4.7,4.06,5.21,2.22.46,4.36-.95,5.58-2.72,2.13-3.09,1.24-7,2.41-10.4.63-1.83-2.27-2.62-2.89-.8a22.36,22.36,0,0,0-.89,5.26c-.16,1.74-1.63,8.21-4.74,4.77-1.08-1.2-.93-4.36-1.11-5.87l-.71-6.07c-.22-1.89-3.23-1.91-3,0Z"/><path class="b" d="M429.28,157.2a68.75,68.75,0,0,0-62.41,19.5c-2.69,2.83-4,10.88-2.41,14.43s6.42,4.13,9.84,2.56,5.81-4.71,8.27-7.57c12-14,28.57-25.51,46.71-28.92"/><path d="M430.08,154.3a72.72,72.72,0,0,0-43.78,5.12c-11.36,5.11-26,13.94-25.53,28,.18,5.74,3.82,10,9.81,10,7.41,0,11.74-6.72,16.21-11.61,11.56-12.64,26.35-22.37,43.29-25.78,3.78-.76,2.18-6.55-1.6-5.79a80.25,80.25,0,0,0-32.92,15.42A100.79,100.79,0,0,0,382,182.22c-2.75,3.05-13.79,16-15.25,5.24-.84-6.12,3.5-10.28,7.77-13.79a63.89,63.89,0,0,1,16.87-9.95,66.17,66.17,0,0,1,37.07-3.63c3.77.73,5.39-5.05,1.6-5.79Z"/><path class="j" d="M403.14,163.34s-25.81,11-29.75,25.72"/></svg>