<svg xmlns="http://www.w3.org/2000/svg" viewBox="0 0 1020 540"><defs><style>.a{fill:#fffcd9;}.b{fill:#fff;}.c,.f{fill:#ffbc18;}.d{fill:#f15a24;}.e{fill:#f88334;}.f{stroke:#000;stroke-miterlimit:10;stroke-width:2px;}.g{fill:#a7b733;}.h{fill:#c5d83e;}.i{fill:#9bd9da;}.j{fill:#00b997;}</style></defs><title>q2</title><rect class="a" x="140.3" y="334.14" width="755.37" height="188.01"/><path d="M140.3,338.85q147.42-3.64,294.88-4.69t295.11.55q82.69.89,165.38,2.6c3.87.08,3.87-5.92,0-6q-147.46-3-295-3.49T305.6,329.58q-82.65,1.21-165.3,3.27c-3.85.1-3.87,6.1,0,6Z"/><path d="M158.82,387l136.9-1.8a1.5,1.5,0,0,0,0-3L158.82,384c-1.93,0-1.93,3,0,3Z"/><path d="M715,387l136.9-1.8a1.5,1.5,0,0,0,0-3L715,384c-1.93,0-1.94,3,0,3Z"/><path d="M665.28,431.75,802.19,430c1.93,0,1.93-3,0-3l-136.91,1.8a1.5,1.5,0,0,0,0,3Z"/><path d="M191.14,415.75,328,414c1.93,0,1.93-3,0-3l-136.9,1.8a1.5,1.5,0,0,0,0,3Z"/><path class="b" d="M564.59,332.23l-45.1-.14-45.11.14s-53.3,54.66-64.75,113.34H629.35C617.9,386.89,564.59,332.23,564.59,332.23Z"/><path d="M564.59,327.73c-22.38-.07-44.77-.14-67.16-.07l-20.65.07a8.76,8.76,0,0,0-7.36,3.21,321,321,0,0,0-29.25,36.92c-15.83,23.13-29.31,48.85-34.88,76.52a4.56,4.56,0,0,0,4.34,5.69H629.35a4.56,4.56,0,0,0,4.34-5.69c-5.83-28.95-20.28-55.77-37.13-79.75-8.73-12.42-18.18-24.67-28.78-35.58-4-4.16-10.41,2.21-6.37,6.37a274.48,274.48,0,0,1,27.38,33.75c16.45,23.41,30.53,49.33,36.22,77.6l4.34-5.7H409.63l4.34,5.7c5.69-28.27,19.77-54.19,36.22-77.6a273.73,273.73,0,0,1,27.38-33.75l-3.19,1.31c23.88-.07,47.75-.13,71.62-.05l18.59.05C570.39,336.75,570.39,327.75,564.59,327.73Z"/><path class="c" d="M637.34,431.73c3.92,2.18,7-.47,8-2.71s.81-4.83.46-7.26c-1.6-11-5.72-21.45-10.85-31.28-1.41-2.71-3.74-7.27-6.5-8.59s-11.91.61-12.53,3.61c-.28,1.38,5.94,3.68,6.43,5l15,41.22"/><path d="M636.94,433.18c4,1.67,8,.33,9.82-3.76,2.33-5.34-.27-13.08-1.77-18.3a113.44,113.44,0,0,0-8-19.84c-2-4-4.42-9.94-9.22-11.13-3.71-.92-17.95,2.49-11.8,7.85a15.33,15.33,0,0,0,2.06,1.32c2.28,1.37,3.09,2.88,4.18,5.33,1.6,3.63,2.73,7.52,4.09,11.25l9.56,26.23c.66,1.8,3.56,1,2.9-.8l-11.95-32.79c-1.16-3.17-1.8-7.65-4.34-10a23.09,23.09,0,0,0-3.39-2.1c-2.16-1.37-1.53-1.43,1.06-2.45,4.59-1.81,8.31-1.22,11.11,3.05a84.72,84.72,0,0,1,6.16,12.08A95.17,95.17,0,0,1,643,415.29a50,50,0,0,1,1.46,7.94c.31,4.14-1.57,9.22-6.71,7.06-1.78-.75-2.56,2.15-.8,2.89Z"/><path class="b" d="M482.05,416.24A71.12,71.12,0,0,1,445.53,397c-3.27-3.24-6.4-8.05-4.26-12.12,1.82-3.46,6.41-4.22,10.33-4.2a66.25,66.25,0,0,1,49.09,22.47c2.09,2.4,4.11,5.43,3.4,8.53-.95,4.15-6.17,5.72-10.4,5.21s-8.36-2.31-12.59-1.78"/><path d="M482.45,414.79a71,71,0,0,1-31.08-14.54,49.58,49.58,0,0,1-5.86-5.45c-3.26-3.74-5.19-10.19,1.17-12.08,5.23-1.56,11.94-.36,17.14.71A65.25,65.25,0,0,1,493.45,398c3.92,3.42,14.7,13.23,5.51,16.78-5.64,2.18-12-1.52-17.86-1.21-1.92.1-1.93,3.11,0,3,7-.37,14.78,4.37,21.27-.11,4.87-3.36,3.56-9.05.41-13.16-9.39-12.22-24.75-20.39-39.72-23.09-6-1.08-14.38-2.61-19.93.7-4.95,3-4.71,8.66-1.93,13.13,3.91,6.3,11.31,11.3,17.59,15a74.05,74.05,0,0,0,22.86,8.63c1.88.39,2.69-2.5.8-2.89Z"/><path class="c" d="M451.05,372.9c-4.51-.17-6.82-.73-10.42,6.3l-22.58,34.63c1.79.71,3.66,1.4,5.55,2a425.77,425.77,0,0,0,29.13-42.79A15.66,15.66,0,0,0,451.05,372.9Z"/><path d="M451.05,371.4c-8-.34-9.74,4-13.87,10.35l-20.43,31.32a1.53,1.53,0,0,0,.9,2.21c1.84.71,3.68,1.39,5.55,2a1.54,1.54,0,0,0,1.69-.69A440.31,440.31,0,0,0,454,373.82a1.52,1.52,0,0,0-1.29-2.26l-1.68-.16c-1.92-.19-1.91,2.82,0,3l1.68.16-1.3-2.26a440.45,440.45,0,0,1-29.13,42.8l1.7-.69c-1.87-.64-3.71-1.31-5.55-2l.89,2.21q8.07-12.37,16.13-24.74c2.46-3.76,4.78-7.64,7.26-11.38s4.18-4.24,8.32-4.07C453,374.48,453,371.48,451.05,371.4Z"/><path class="d" d="M463.56,377.69c-3.41-2-7-4-10.83-4.63a425.77,425.77,0,0,1-29.13,42.79c6.8,2.24,14,3.43,20,0,4.45-2.53,7.26-7.12,9.88-11.52l12.35-20.71a4.83,4.83,0,0,0,.82-2C466.8,379.83,465.08,378.57,463.56,377.69Z"/><path d="M464.32,376.39a37.54,37.54,0,0,0-11.19-4.78,1.58,1.58,0,0,0-1.7.69,440.45,440.45,0,0,1-29.13,42.8c-.62.8.08,1.94.9,2.2,6.22,1.95,13,3.35,19.3.76,5.28-2.19,8.63-6.94,11.51-11.65q6.21-10.14,12.19-20.44c2.46-4.21,2.49-6.76-1.88-9.58-1.63-1.05-3.14,1.55-1.52,2.59,4.65,3-3.07,12-4.89,15-2.29,3.85-4.53,7.74-6.89,11.54-2.7,4.35-5.8,8.56-10.89,10.2-5.32,1.72-11,.26-16.13-1.34l.89,2.2A440.31,440.31,0,0,0,454,373.82l-1.69.69A35,35,0,0,1,462.8,379,1.5,1.5,0,0,0,464.32,376.39Z"/><path class="b" d="M462.18,381.62C472,391,470,409.09,481,417.05c5.76,4.16,13.43,4.21,20.54,4.09,6-.1,12.39-.31,17.36-3.67,6.46-4.35,8.74-12.78,9.28-20.55s-.13-15.8,2.46-23.15l-69.33,4.16"/><path d="M461.12,382.68c7.46,7.67,7.71,19,12.66,28.1,5.17,9.48,14.49,11.84,24.67,11.89,10.46.06,21.75-.59,27.36-10.81,6.36-11.6,2.37-25.45,6.26-37.69a1.52,1.52,0,0,0-1.45-1.9l-69.33,4.16c-1.92.12-1.93,3.12,0,3l69.33-4.16-1.44-1.9C525.8,384,528.45,395.44,525,406c-2,6.21-6,10.86-12.44,12.6-5.41,1.45-11.65,1.27-17.23,1-5.74-.25-11.48-1.45-15.65-5.67-3.22-3.26-4.91-7.71-6.33-12-2.54-7.6-4.38-15.5-10.13-21.42-1.35-1.38-3.47.74-2.12,2.12Z"/><path class="c" d="M451.26,353.36c1.47,16.35,4.63,18.3,9.42,30.57,1,2.66,2.28,5.54,4.91,6.91,2,1.05,4.48,1,6.79.87l58-2.61,8.46-36.39-87.54.65"/><path d="M449.76,353.36c.69,7.09,1.95,13.8,4.82,20.34,1.56,3.55,3.16,7.05,4.65,10.62,1.26,3,2.58,6.18,5.6,7.81,3.62,2,8.47,1,12.38.86l17.38-.78,35.75-1.61a1.52,1.52,0,0,0,1.44-1.1l8.46-36.39a1.52,1.52,0,0,0-1.44-1.9l-87.54.65a1.5,1.5,0,0,0,0,3l87.54-.65-1.45-1.9-8.46,36.39,1.45-1.1c-19.27.87-38.68,2.51-58,2.61-4.08,0-7-.36-9.25-4.37a47.32,47.32,0,0,1-2.08-5c-1.09-2.62-2.3-5.17-3.46-7.75a61.64,61.64,0,0,1-4.83-19.76c-.19-1.9-3.19-1.92-3,0Z"/><path class="b" d="M532.93,381.59c-.23,7.88.34,16,3.46,23.21s9.17,13.55,16.84,15.37c7.27,1.73,14.81-.69,21.89-3.07l48-16.16-.71-11.29-26.1-.84,8.34-22.7c.58-1.58,1-3.63-.24-4.71-1.06-.88-2.64-.51-3.95-.1L533.1,382.62"/><path d="M531.43,381.59c-.35,16.46,4.73,38.48,24.54,40.52,10.93,1.13,22.35-4.51,32.47-7.91l35.07-11.81a1.53,1.53,0,0,0,1.1-1.45l-.71-11.29a1.52,1.52,0,0,0-1.5-1.5l-26.1-.84,1.45,1.9,5.13-14c1.23-3.36,4-8,3.84-11.67-.4-7.54-10.38-2.54-14.15-1.35L532.7,381.17c-1.84.58-1.05,3.48.8,2.89L581.21,369l12.16-3.85c1.77-.56,3.79-1.6,5.61-1.78l1.87-.59c2.51.35,3.29,1.33,2.34,3-.18,3.26-2.73,7.42-3.85,10.48l-4.49,12.22a1.51,1.51,0,0,0,1.45,1.9l26.1.84-1.5-1.5.71,11.29,1.1-1.45L595,408.82c-9.39,3.16-18.79,6.94-28.42,9.3-10.63,2.61-20.32-.15-26.45-9.5-5.23-8-5.92-17.76-5.72-27,0-1.93-3-1.93-3,0Z"/><path class="c" d="M525.92,350.46a63.45,63.45,0,0,0,1.93,31.13c.72,2.24,1.66,4.56,3.54,6,2.23,1.68,5.26,1.69,8.05,1.63l20.12-.44c7.13-.15,14.41-.33,21.12-2.74,5.66-2,10.64-5.56,15.54-9,13.81-9.8,28-20,36.85-34.43a747.46,747.46,0,0,1-109.5,8.37"/><path d="M524.48,350.06a67.58,67.58,0,0,0-.53,21.1c.76,5.45,1.69,13.75,6.38,17.46,4.29,3.4,11.43,2,16.42,1.91,7.53-.16,15.14,0,22.64-.72,14.61-1.34,25.51-9.78,36.93-18.28,10.74-8,20.84-16.81,28-28.22.77-1.23-.5-2.39-1.7-2.21a756.06,756.06,0,0,1-109.1,8.32,1.5,1.5,0,0,0,0,3A761.38,761.38,0,0,0,633.47,344l-1.69-2.21c-6.32,10-15,18-24.34,25.16S587.73,383.1,576,385.79s-25.23,1.9-37.29,1.91c-4.4,0-7.57-1.49-9.2-5.83a50.85,50.85,0,0,1-2.25-8.77,63.66,63.66,0,0,1,.09-22.24c.33-1.89-2.56-2.7-2.89-.8Z"/><path class="d" d="M608.47,388.4c2.27,18.51,13.29,35.48,29.67,44.4a127.51,127.51,0,0,0-13.75-47.86,3.94,3.94,0,0,0-1.95-2.15,4,4,0,0,0-2.44.27c-4.46,1.49-7.07,3.85-11.53,5.34"/><path d="M607,388.8a61.13,61.13,0,0,0,30.36,45.29,1.51,1.51,0,0,0,2.26-1.29,132.43,132.43,0,0,0-10-40.17c-1.32-3.09-3.06-10.12-6.82-11.28-4.37-1.36-11,4.2-14.77,5.6-1.79.67-1,3.57.8,2.89,3.43-1.28,9.54-6.07,12.88-4.74,2.36.94,3.42,4.75,4.45,7,1.29,2.87,2.45,5.81,3.51,8.77a129.35,129.35,0,0,1,6.93,31.88l2.26-1.3c-16.16-9.08-26.52-25.24-29-43.5-.25-1.91-3.14-1.09-2.89.8Z"/><path d="M544.57,397.63l2.4,6c.71,1.77,3.61,1,2.89-.8l-2.39-6c-.71-1.77-3.61-1-2.9.8Z"/><path d="M555.74,400.09l3.59,4.19a1.51,1.51,0,0,0,2.12,0,1.53,1.53,0,0,0,0-2.12L557.86,398a1.51,1.51,0,0,0-2.12,0,1.53,1.53,0,0,0,0,2.12Z"/><path d="M554.28,411.68l4.33,5.28c1.22,1.49,3.33-.64,2.12-2.12l-4.33-5.28c-1.23-1.49-3.34.64-2.12,2.12Z"/><path d="M570.17,408.26l7.19,1.2c1.88.31,2.7-2.58.79-2.9L571,405.37c-1.89-.32-2.7,2.57-.8,2.89Z"/><path d="M572.37,398.13h5.38a1.5,1.5,0,0,0,0-3h-5.38a1.5,1.5,0,0,0,0,3Z"/><path d="M589.13,404.12h7.79a1.5,1.5,0,0,0,0-3h-7.79a1.5,1.5,0,0,0,0,3Z"/><path d="M585.92,393.81l3-.59a1.51,1.51,0,0,0,1.05-1.84,1.54,1.54,0,0,0-1.85-1.05l-3,.58a1.5,1.5,0,0,0,.8,2.9Z"/><path d="M482.9,396.83l-1.2,8.39c-.27,1.88,2.62,2.7,2.9.79l1.19-8.38c.27-1.89-2.62-2.7-2.89-.8Z"/><path d="M490.61,413.22l.59,1.8a1.53,1.53,0,0,0,1.84,1.05,1.52,1.52,0,0,0,1-1.85l-.58-1.8a1.54,1.54,0,0,0-1.85-1,1.52,1.52,0,0,0-1.05,1.84Z"/><path d="M494.79,398.6a9.86,9.86,0,0,0,.87,7.75c.94,1.69,3.53.18,2.59-1.51a6.81,6.81,0,0,1-.57-5.44c.56-1.85-2.34-2.65-2.89-.8Z"/><path d="M506.2,403.22V411a1.5,1.5,0,0,0,3,0v-7.78a1.5,1.5,0,0,0-3,0Z"/><path d="M517,403.22v6.59a1.5,1.5,0,0,0,3,0v-6.59a1.5,1.5,0,0,0-3,0Z"/><path d="M510.44,395l-1.19,3a1.5,1.5,0,0,0,1,1.85,1.55,1.55,0,0,0,1.85-1.05l1.2-3a1.51,1.51,0,0,0-1.05-1.84,1.54,1.54,0,0,0-1.85,1.05Z"/><path d="M470.13,404.92l-4.19-1.8a1.55,1.55,0,0,0-2.05.54,1.51,1.51,0,0,0,.54,2l4.19,1.8a1.55,1.55,0,0,0,2.05-.54,1.51,1.51,0,0,0-.54-2.05Z"/><path d="M467.47,397.34a5.69,5.69,0,0,0-5.66-1.5c-1.85.54-1.06,3.44.8,2.9a2.65,2.65,0,0,1,2.74.72c1.35,1.39,3.47-.73,2.12-2.12Z"/><path d="M563.29,350.89a58.62,58.62,0,0,0,55.63,9.67c1.81-.63,1-3.53-.8-2.89a55.6,55.6,0,0,1-52.71-8.9c-1.49-1.19-3.63.92-2.12,2.12Z"/><path d="M571.72,350.56a72.67,72.67,0,0,0,52.85,5,1.5,1.5,0,0,0-.8-2.89A69.52,69.52,0,0,1,573.23,348c-1.72-.87-3.24,1.72-1.51,2.59Z"/><path d="M455.92,372.78a34.12,34.12,0,0,0,26.8-18.47c.87-1.71-1.72-3.23-2.6-1.51a31.06,31.06,0,0,1-24.2,17c-1.89.22-1.92,3.22,0,3Z"/><path d="M454.43,368.9a33.51,33.51,0,0,0,18.86-14c1.06-1.62-1.54-3.13-2.59-1.52A30.22,30.22,0,0,1,453.63,366c-1.85.54-1.06,3.44.8,2.9Z"/><path d="M611.17,404.71a48.38,48.38,0,0,0-8.6,14.41c-.91,2.45-3.35,7.93,0,9.76,7.72,4.22,11.63-17,11.77-21,.06-1.65-2.69-2.09-3-.4-.71,4.65-1.56,11.52,1.09,15.78,1.65,2.66,4.74,3.17,6.79.59,2.82-3.56,3.5-10.94,2.27-15.2a10,10,0,0,0-8.71-7.46c-1.92-.22-1.9,2.78,0,3,4.75.56,6.37,5.11,6.23,9.17-.06,1.66-.34,5.55-1.39,6.86-4.72,5.85-3.7-9.86-3.38-11.94l-2.95-.4a31.9,31.9,0,0,1-1.52,9,19.68,19.68,0,0,1-2.48,5.48c-.86,1.08-2.69,3.64-3.12,1.31s2.38-6.71,3.38-8.61a45.53,45.53,0,0,1,5.67-8.31c1.24-1.46-.88-3.6-2.12-2.12Z"/><path d="M450.14,404.14c-1.92,4.68-6.85,28,4.32,26.12,7.83-1.35,4.53-18.63,1.67-22.9-4.79-7.12-16.16-2.11-16.42,5.93-.11,3.26,2.38,3.91,5,2.71,4.51-2.09,8.22-7.28,10.61-11.43l-2.59-1.52-.55,1.21c-.8,1.74,1.79,3.27,2.59,1.51l.55-1.2c.79-1.72-1.6-3.22-2.59-1.52-.44.78-8.79,11.54-9.53,10.36a6.31,6.31,0,0,1,2-4.36c1.66-2,3.88-2.64,6.64-1.84,2.42,1.27,3.19,4.53,3.64,7a33.18,33.18,0,0,1,.4,8.09q.75,4.75-4.68,2.29a24.65,24.65,0,0,1-.74-4.44A32.48,32.48,0,0,1,453,404.94c.73-1.78-2.17-2.56-2.89-.8Z"/><path class="e" d="M619.26,349.07c44.2-12.26,55.78-109.07,36-150.43S593,128.38,547.52,122.21s-92.8,9.5-127.63,39.35c0,0-76.47,64.63-32,159.86C387.92,321.42,460.56,393.11,619.26,349.07Z"/><path d="M619.66,350.52c25.14-7.31,36.55-36.52,41.83-59.61,6.27-27.44,7.55-59.21-2.09-86.07-12.06-33.63-42.58-60.29-74.82-73.93-37.49-15.87-80.05-14.65-117.6.43-21.72,8.73-42.59,21.62-58.16,39.31-15.91,18.07-27.87,40-33.18,63.54A128.07,128.07,0,0,0,374.07,282a142.49,142.49,0,0,0,7.84,29.11c1.41,3.69,2.72,8.71,5.3,11.73,2.05,2.4,5.14,4.35,7.66,6.2a146.44,146.44,0,0,0,17.38,10.86c52.61,28.25,116,29.58,173.4,18.62,11.45-2.18,22.78-4.89,34-8a1.5,1.5,0,0,0-.79-2.9c-61.35,16.89-129.73,22.19-189.68-3-12.78-5.37-25.33-12.09-36.18-20.79-3-2.43-3.95-3.39-5.54-7.05-7.53-17.25-12-35.88-12-54.75,0-42.57,22.85-84.29,57.41-108.77,33.74-23.89,76.75-35.78,117.86-29.08,37.23,6.08,72.19,27.35,93.56,58.61A99.74,99.74,0,0,1,660.76,222a166.2,166.2,0,0,1,1.69,42.79c-2.06,25.65-8.74,57.31-29.2,75a38.21,38.21,0,0,1-14.38,7.9C617,348.16,617.8,351.06,619.66,350.52Z"/><path class="b" d="M437.05,220c2.95,3.71,3.55,8.72,5.43,13.08s6.37,8.5,10.87,7c2.08-.69,3.62-2.44,4.88-4.24,8.69-12.33,8.38-30.29-.74-42.32-2.35-3.11-5.93-6.05-9.75-5.23-3.08.66-5.13,3.57-6.55,6.38a45.49,45.49,0,0,0-4.13,28.47"/><path d="M435.75,220.78c3.94,5.59,3.83,13.33,9,18.16,3.45,3.21,8.09,4,11.9,1,8.73-7,10.63-22,8.65-32.22-1.49-7.7-8.84-25.14-19.58-20.24-5.27,2.4-7.67,9.76-9.11,14.87a49.08,49.08,0,0,0-1,21.26c.31,1.9,3.2,1.09,2.89-.8-1.56-9.64-.48-21.49,5.37-29.69C452.76,180.6,462,204.27,462.8,211c1,8.31-.87,17.34-5.87,24.16-5.65,7.73-11.88.88-14.11-5.4-1.3-3.69-2.2-7.21-4.48-10.46-1.1-1.56-3.7-.07-2.59,1.52Z"/><path class="b" d="M436.15,175.91c11.74,0,20,16.41,22.1,26.18,3,13.61-11.11,28.17-25.39,25.44-7.07-1.35-10.43-11.08-12.45-17.31-1.33-4.13-4.65-16.55-.12-19.61C420.29,190.61,425.47,175.87,436.15,175.91Z"/><path d="M436.15,177.41c11.43.55,18.72,15.24,20.66,25.08,1.4,7.1-1.95,14.2-7.33,18.78s-15.11,7.86-20.82,2.2c-3.84-3.8-5.63-9.67-7.13-14.73-1.32-4.39-3.61-11.43-1.22-15.73,3.55-6.38,7.3-15.21,15.84-15.6,1.92-.09,1.93-3.09,0-3-9.6.44-12.87,8.24-17.12,15.33A14.89,14.89,0,0,0,416.65,200a60,60,0,0,0,3.79,14.9c1.76,4.68,4.12,10,8.58,12.7,4.75,2.89,11.38,2,16.21-.18,10.64-4.7,17.12-16.32,14-27.7-3-10.73-10.5-24.72-23.06-25.32C434.22,174.32,434.23,177.32,436.15,177.41Z"/><path class="c" d="M427,208.36a113.93,113.93,0,0,0-1.88,13.38,6.34,6.34,0,0,0,.6,4c1.06,1.6,3.23,1.92,5.13,2.09,2.12.2,4.54.29,6-1.23,1.32-1.35,1.38-3.49,1-5.34-1.1-5.6-5.08-10.12-8.91-14.34C428.94,206.9,427.46,205.86,427,208.36Z"/><path d="M425.52,208a123.78,123.78,0,0,0-1.81,12.29c-.22,2.63-.47,5.63,1.83,7.46,3.31,2.63,11.2,2.83,13.32-1.45,2.68-5.42-2.11-12.4-5.37-16.42-2.14-2.63-6.11-7.64-8-1.88-.59,1.84,2.3,2.63,2.89.8,0,.11,5.19,6.27,5.43,6.66,1.91,3.1,5.33,9.91-.85,11a12.53,12.53,0,0,1-4.09-.41c-3-1.27-2.38-3.53-2.19-5.76a114,114,0,0,1,1.7-11.49C428.77,206.87,425.88,206.06,425.52,208Z"/><path d="M438.44,196.41,441.66,210c.45,1.88,3.34,1.08,2.89-.8l-3.22-13.61c-.44-1.88-3.34-1.08-2.89.8Z"/><path d="M443.47,197.56l2.92,14.56c.38,1.89,3.27,1.09,2.89-.8l-2.91-14.56c-.38-1.89-3.27-1.09-2.9.8Z"/><path d="M449.13,195.49l1.9,14.24c.26,1.89,3.26,1.91,3,0l-1.9-14.24c-.25-1.89-3.25-1.91-3,0Z"/><path d="M450,284.46a45.62,45.62,0,0,1,.15-15.2c.33-1.89-2.56-2.7-2.89-.8a49.87,49.87,0,0,0-.15,16.8c.3,1.9,3.19,1.09,2.89-.8Z"/><path class="d" d="M459.54,278c5.37,15.75,6.75,34.6,2.78,50.77,32.23,3.62,74.21,6.57,104.44-5.19,5.24-2,10.72-4.56,13.73-9.32,2.58-4.1,2.9-9.19,2.91-14,.05-16.67-13.92-52.49-19.29-68.27-33.68,16.61-67.49,40-104.57,46"/><path d="M458.09,278.44c5.31,16.06,6.64,33.43,2.79,50a1.53,1.53,0,0,0,1.44,1.9c30.68,3.41,63.11,6.17,93.36-1.59,12.17-3.12,26.94-7.64,28.85-22,1.59-11.88-2-24.05-5.42-35.31-4-13.45-9-26.57-13.55-39.85a1.53,1.53,0,0,0-2.2-.9c-33.91,16.83-66.21,39.47-104.22,45.89-1.9.32-1.09,3.21.8,2.89,38.26-6.46,70.81-29.25,104.93-46.19l-2.2-.89c3.47,10.16,7.23,20.23,10.58,30.44,3.62,11,7.58,22.58,8.51,34.2.6,7.45,0,15.57-6.35,20.43-5.74,4.41-13.6,6.58-20.52,8.36-14.26,3.65-29.09,4.68-43.76,4.68a442.6,442.6,0,0,1-48.81-3.2l1.45,1.89A95.8,95.8,0,0,0,461,277.64c-.61-1.83-3.51-1.05-2.9.8Z"/><path class="b" d="M482,297.8c-.68,5.86-3.42,12.54.65,17.83,2.78,3.61,8.33,4.82,11.72,1.34s2.83-9.41,1.73-13.62c-1.39-5.34-5.57-9.06-11.21-8.22-3.18.47-1.83,5.29,1.32,4.82,5.76-.85,8.06,13.24,3.35,14-7,1.13-2.93-13-2.56-16.15s-4.64-3.16-5,0Z"/><path class="b" d="M507,295.18c-2.65,6-5.29,13.43-.16,18.95,4,4.27,10.27,3.87,13.49-1.05s4-13.26.16-18.08c-3.53-4.42-10.32-4.58-13.21.58-1.57,2.81,2.75,5.34,4.32,2.53,1.31-2.34,4-1.44,5.28.37a8.79,8.79,0,0,1,1.1,5.15c-.06,2.25-.61,5.29-2.09,7.05-2.42,2.88-5.82.68-6.79-2.33-1.1-3.45.86-7.56,2.22-10.65,1.29-2.91-3-5.46-4.32-2.52Z"/><path class="b" d="M535.65,291.59c-2.82,5.58-5.74,12.71-1.07,18.2,3.77,4.44,10.25,4.45,13.44-.66,3-4.81,4-12.86.54-17.62-3.25-4.44-10.55-4.92-12.92.67-1.24,2.93,3.07,5.48,4.32,2.52,2.17-5.12,5.67,1.4,5.72,3.86s-.48,5.95-2,8c-2.79,3.92-6.6-.6-6.63-3.85,0-3.05,1.56-6,2.89-8.64,1.45-2.87-2.86-5.4-4.31-2.52Z"/><path class="b" d="M564.62,286.5l-6,21.84c-.85,3.11,4,4.43,4.82,1.33l6-21.84c.85-3.11-4-4.44-4.82-1.33Z"/><path class="b" d="M489.87,284.6a1.29,1.29,0,0,1,1.66,1l.34,1.2c.7,2.51-1.38,3.76-2.94,4.2-2.92.82-5.11-.93-5.82-3.45s.13-5.44,3-6.24c2.09-.58,3.93.23,4.18,1.12a.83.83,0,0,1-.52,1c-.18,0-.37.09-1-.28a2.34,2.34,0,0,0-2.08-.31c-2,.55-2.34,2.53-1.89,4.13a2.93,2.93,0,0,0,3.74,2.3c1.85-.52,1.78-1.82,1.71-2.07l-.18-.65a.29.29,0,0,0-.39-.22l-2.08.58a.82.82,0,0,1-1-.62.73.73,0,0,1,.48-.95Z"/><path class="b" d="M495.61,288.28a.72.72,0,0,1-.52.91.74.74,0,0,1-1-.47l-1.79-5.81a.74.74,0,0,1,.54-.93.73.73,0,0,1,1,.54l.11.36a2.26,2.26,0,0,1,1.56-1.72c.56-.17,1.44-.15,1.64.51a.68.68,0,0,1-.46.91c-.13,0-.67.11-.78.14-.82.25-1.3,2.3-1.21,2.61Z"/><path class="b" d="M500.31,284.21c.17.38.69,1.54,1.92,1.13.38-.12.61-.32.8-1s.28-.64.61-.75a.76.76,0,0,1,.91.55c.28.86-.47,2.15-1.9,2.62-1,.33-3.08.42-4-2.52-.89-2.72.29-4.19,1.6-4.62a2.84,2.84,0,0,1,3.59,2c.27.84.21,1.38-.42,1.58Zm1.65-2.06c.25-.08.29-.16.26-.25a1.25,1.25,0,0,0-1.53-.8c-1,.32-.84,1.44-.79,1.73Z"/><path class="b" d="M506.64,282.08c.17.38.71,1.53,1.94,1.1.38-.14.6-.33.78-1,.13-.5.26-.65.59-.76a.75.75,0,0,1,.92.53c.3.85-.42,2.15-1.84,2.65-1,.36-3.07.49-4.09-2.43-.95-2.7.19-4.19,1.5-4.65a2.85,2.85,0,0,1,3.63,1.88c.29.84.23,1.37-.39,1.59Zm1.6-2.09c.25-.09.28-.17.25-.26A1.24,1.24,0,0,0,507,279c-1,.34-.81,1.46-.76,1.74Z"/><path class="b" d="M518.18,280.38a.77.77,0,0,1-.44,1,.79.79,0,0,1-1-.49l-1.36-3.58a1.18,1.18,0,0,0-1.63-.81,1.71,1.71,0,0,0-1,2.06L514,282a.78.78,0,1,1-1.47.54l-1.65-4.35c-.08-.21-.5-1-.57-1.23a.73.73,0,0,1,.48-.95,1,1,0,0,1,1.13.41,2.57,2.57,0,0,1,1.67-1.47,2.18,2.18,0,0,1,3,1.23Z"/><path class="b" d="M517.45,274.36c-.15-.35-.33-.8.28-1.05a.77.77,0,0,1,1,.47,2.12,2.12,0,0,1,1.42-1.47c2-.82,3.51.58,4.25,2.38s.66,3.75-1.3,4.56a2.84,2.84,0,0,1-2,.13l.47,1.14a.79.79,0,0,1-.39,1,.8.8,0,0,1-1-.42Zm2.73,2.54a1.55,1.55,0,0,0,2.16.92c.68-.27,1.32-.85.6-2.63a2.5,2.5,0,0,0-1.15-1.38,1.42,1.42,0,0,0-1.13.08,1.61,1.61,0,0,0-.82,2.19Z"/><path class="b" d="M527,274.17a1.54,1.54,0,0,0,2,.94c.37-.16.58-.37.71-1,.09-.51.21-.67.52-.8a.75.75,0,0,1,1,.45c.36.83-.26,2.19-1.64,2.79-1,.43-3,.72-4.27-2.11-1.15-2.62-.12-4.2,1.15-4.75a2.84,2.84,0,0,1,3.76,1.6c.36.81.34,1.35-.26,1.61Zm1.45-2.21c.23-.1.26-.18.22-.27a1.23,1.23,0,0,0-1.59-.65c-.95.42-.69,1.52-.63,1.8Z"/><path class="b" d="M537.73,270.33a2.56,2.56,0,0,0,.63.82,1.62,1.62,0,0,1,.33.42.74.74,0,0,1-.43.95c-.56.26-.86-.11-1.07-.39a3.51,3.51,0,0,1-1.77,1.75,2.48,2.48,0,0,1-3.55-1.07c-.46-1-.5-2.59,2-3.76a4,4,0,0,1,1.37-.4c-.16-.32-.56-1.11-1.93-.46a2.11,2.11,0,0,0-.93.77c-.44.63-.49.69-.66.77a.83.83,0,0,1-1.05-.42c-.34-.73.64-1.83,2.06-2.51,2.74-1.29,3.67.66,4.09,1.55Zm-1.8-.17c-.09-.19-.69-.11-1.46.26-.39.18-1.6.75-1.15,1.72.3.63.94.58,1.66.24a1.72,1.72,0,0,0,1.15-1.79Z"/><path class="b" d="M542.37,264.19a.78.78,0,0,1-.34,1.11c-.23.12-.39.16-.95-.13a1.2,1.2,0,0,0-1.27-.07c-.93.48-.67,1.76-.26,2.56s1.37,1.73,2.33,1.23c.33-.16.57-.34.7-1,.07-.45.19-.64.46-.78a.73.73,0,0,1,1,.34,2.72,2.72,0,0,1-1.49,2.95c-1.44.73-3.36.22-4.48-2-.64-1.25-1.24-3.59,1.11-4.79C540.19,263.1,541.89,263.25,542.37,264.19Z"/><path class="b" d="M545.84,265a1.56,1.56,0,0,0,2.09.76c.36-.19.55-.43.62-1.09s.15-.68.45-.85a.75.75,0,0,1,1,.37c.44.79-.06,2.2-1.38,2.92-.93.51-2.94,1-4.44-1.73-1.38-2.5-.49-4.16.72-4.83a2.85,2.85,0,0,1,3.89,1.26c.43.78.46,1.32-.12,1.64Zm1.25-2.33c.22-.12.24-.21.2-.29a1.26,1.26,0,0,0-1.65-.51c-.91.5-.55,1.58-.46,1.85Z"/><path class="e" d="M509.65,202c10.4,7.24,15.3,11.22,22.83,20a366.69,366.69,0,0,0,88.75-32.64,85.28,85.28,0,0,0-6.48-9.7c-17.76-23-46.68-36.43-75.71-36.85"/><path d="M508.9,203.27A120.34,120.34,0,0,1,531.42,223a1.5,1.5,0,0,0,1.46.38A374.1,374.1,0,0,0,622,190.6a1.51,1.51,0,0,0,.54-2C605.3,159.18,572.72,142,539,141.26c-1.93,0-1.93,3,0,3,32.63.74,64.2,17.35,80.89,45.8l.54-2.05a369,369,0,0,1-62,25.45q-7.39,2.28-14.91,4.23c-2.6.68-5.29,1.56-8,2-3.15.5-3.63-.61-5.67-2.8-5.83-6.25-12.57-11.32-19.55-16.2-1.59-1.11-3.09,1.49-1.51,2.59Z"/><path class="e" d="M511.84,289.55a8.86,8.86,0,0,0-2.58.68A2.58,2.58,0,0,0,511.84,289.55Z"/><path d="M511.84,288.05a10.93,10.93,0,0,0-3,.73,1.58,1.58,0,0,0-1.1,1.45,1.52,1.52,0,0,0,1.1,1.44,4.23,4.23,0,0,0,4-1.06,1.5,1.5,0,0,0-2.12-2.12c-.14.12-.17.15-.07.09l-.27.17c.2-.11-.17.05-.21.06-.29.08.1,0-.2,0h-.31c.15,0,.13,0-.06,0v2.89a9.06,9.06,0,0,1,2.18-.62,1.54,1.54,0,0,0,1.5-1.5A1.51,1.51,0,0,0,511.84,288.05Z"/><path class="b" d="M532.48,222c.38.43.75.87,1.15,1.34,8.2,9.7,14.62,21.92,13.5,34.58s-12,24.9-24.68,23.88c-3.13-.26-6.2-1.26-9.33-1.12s-6.56,1.92-7.13,5c-.39,2.07,1.4,4.13,3.27,4.59a8.86,8.86,0,0,1,2.58-.68,2.58,2.58,0,0,1-2.58.68,9.81,9.81,0,0,0-5.86,7.4c18.7,7.75,38.37,15,58.58,13.8,29-1.75,55.55-22.36,65.88-49.5,8.95-23.5,5.89-50.81-6.63-72.62A366.69,366.69,0,0,1,532.48,222Z"/><path d="M531.42,223c7.39,8.64,13.89,19.05,14.31,30.75.37,10.41-5.42,21.63-15.59,25.4-5.23,1.94-9.85.3-15.15,0-3.19-.18-6.77.52-8.95,3.09a5.58,5.58,0,0,0-.52,7c2,2.76,3.8,2.26,6.72,1.73l-1.16-2.74c-2,1.18-3.85,1-5.79,2.85a11.61,11.61,0,0,0-3.34,6.13,1.55,1.55,0,0,0,1.05,1.84c15.93,6.57,32.45,12.85,49.83,13.85a74.36,74.36,0,0,0,39.49-8.79,80.27,80.27,0,0,0,42-66.09,91.18,91.18,0,0,0-11.85-49.5,1.53,1.53,0,0,0-2-.54,371,371,0,0,1-88.39,32.49c-1.88.43-1.09,3.32.8,2.89A374.1,374.1,0,0,0,622,190.6l-2.05-.54c14.07,25.07,16.09,57,1.31,82.22C608,295,583,310.39,556.48,310.06c-18.38-.23-35.92-7-52.68-13.87l1.05,1.84A8.18,8.18,0,0,1,509.7,292c1.06-.53,1.76-.46,2.9-1.11,1.54-.89.46-3-1.16-2.74l-1.31.24-.2-5.36c.63-1,4-.84,5.06-.82,2.72.05,5.42,1,8.16,1.11a20.94,20.94,0,0,0,9.41-1.89,28.31,28.31,0,0,0,13.92-14.88c6.81-16.23-2.5-33.42-12.94-45.63C532.28,219.42,530.17,221.55,531.42,223Z"/><path d="M509.82,291.27a10.8,10.8,0,0,0,7.24-2.14c1.52-1.15,0-3.75-1.52-2.59a8.24,8.24,0,0,1-5.72,1.73c-1.92-.13-1.91,2.87,0,3Z"/><path d="M505.5,295.38a19.07,19.07,0,0,0,11.44,1.72c1.9-.29,1.1-3.18-.8-2.89a15.44,15.44,0,0,1-9.12-1.42c-1.73-.84-3.25,1.74-1.52,2.59Z"/><path class="b" d="M386.88,320.32c3.16,7,8,13.07,13.17,18.75,8.79,9.71,19,18.76,31.44,22.82a47.09,47.09,0,0,0,61.6-47.67,5.5,5.5,0,0,0-1.95-10.49l-1.21-5.79a24.31,24.31,0,0,1-41.12-13.88l-58.4,37.06"/><path d="M385.58,321.08c5.59,11.79,15.22,22.25,25.19,30.53,9.48,7.87,20.64,13.48,33.12,14a49,49,0,0,0,50.3-42c.37-2.62-.26-6.51.84-8.79,1-2,2.56-2.58,2.74-5.15a6.82,6.82,0,0,0-1.87-5.11c-.79-.84-2.09-1.12-2.81-1.86-1.25-1.27-1.34-3.34-1.71-5.11a1.51,1.51,0,0,0-2.51-.66,23.11,23.11,0,0,1-38.62-13.22,1.5,1.5,0,0,0-2.2-.89l-58.4,37.06c-1.62,1-.12,3.62,1.52,2.59l58.39-37.06-2.2-.9C451,305.09,475.71,313.09,491,299l-2.5-.66,1.2,5.79a1.49,1.49,0,0,0,1.05,1.05c3.57.65,5.15,5.58,1.59,7.75a1.46,1.46,0,0,0-.74,1.29c1.15,25.95-19.16,48.15-45.34,48.4-13.14.12-24.83-5.77-34.61-14.19-9.28-8-18.19-17.73-23.47-28.86-.82-1.75-3.41-.23-2.59,1.51Z"/><path d="M453.73,272.55c1.79,3.43,3.65,6.95,6.54,9.53a4.86,4.86,0,0,0,2.75,1.44,2.12,2.12,0,0,0,2.34-1.63l-6.28-11.13a5.75,5.75,0,0,0-1.92-2.32,3,3,0,0,0-4.24,3"/><path class="d" d="M384.68,161.1c-9.4,3-17.43,10.69-19.9,20.26s1.26,20.68,9.55,26,20.65,3.8,26.65-4c-5.73-2.16-11.1,6.08-8.38,11.56s9.81,7.37,15.89,6.64c15.22-1.82,27.18-17.82,24.63-32.93,1.53,8.32,13.79,10.4,20.48,5.24s8.9-14.18,10.18-22.53c1.62-10.54,2.25-22.06-3.37-31.12s-19.76-13.3-27.15-5.62c5.21.56,8.59-6.84,5.69-11.2s-9.41-5.08-14.13-2.81-8,6.77-10.56,11.32c2.25-7.27-4.74-14.88-12.29-15.76s-14.84,3.07-20.81,7.79c-4.88,3.86-9.38,8.48-11.76,14.23s-2.27,12.81,1.49,17.77,11.54,6.84,16.52,3.11"/><path d="M384.28,159.66c-15.78,5.49-26.65,22.29-19.41,38.65,6.45,14.56,26.58,18.84,37.17,6.11a1.52,1.52,0,0,0-.66-2.51c-6.35-1.7-11.7,4.71-10.93,10.85.95,7.72,10,10.78,16.73,10.42,17.22-.93,29.7-18.48,27.38-35l-2.89.8c2.1,8.51,12.46,11,19.82,7.78,10.59-4.62,13-18.55,14.24-28.66,1.43-11.41,1.24-25.55-8.33-33.64-7.12-6-18-7.74-25.2-1a1.51,1.51,0,0,0,1.06,2.56c8.28,0,10.83-11.11,4.72-15.88-9.82-7.68-20.3,2.92-25,10.93l2.74,1.16c2-8.33-4.58-16-12.68-17.49-10.37-1.88-20.65,5.25-27.62,12.19s-11.83,17.15-7.55,26.69c3.45,7.68,13,11.35,20.31,6.65,1.61-1,.11-3.64-1.52-2.59-8,5.15-16.72-1.94-17.3-10.41-.53-7.68,3.94-14.28,9.31-19.31s12.48-10.07,20.09-10.48,16,5.65,14.06,13.95a1.51,1.51,0,0,0,2.75,1.16c3.12-5.32,7.54-11.62,14.38-11.83,3.11-.1,6.26,1,7.79,3.79,1.84,3.39-.14,8.48-4.47,8.47l1.06,2.56c6.45-6.1,16.53-3.52,22.33,2.24,6.91,6.86,7.29,17.94,6.44,27-.8,8.6-2.09,19.4-8.37,25.91-5.36,5.56-17.87,6.65-20.16-2.6-.47-1.92-3.15-1-2.89.8,1.62,11.48-4.85,23.11-15.05,28.44-5.07,2.65-11.47,3.77-16.93,1.65-3.12-1.2-6.3-3.87-6.32-7.48,0-3.78,3.14-7.92,7.21-6.84l-.66-2.5c-10,12-28.56,6.77-33.18-7.41s5.06-27.72,18.34-32.34c1.81-.63,1-3.53-.8-2.89Z"/><path d="M385.6,140.32a10.85,10.85,0,0,1,8.16,6.78c.67,1.79,3.57,1,2.89-.8a13.84,13.84,0,0,0-10.26-8.87c-1.88-.37-2.69,2.52-.79,2.89Z"/><path d="M394.81,139a8.93,8.93,0,0,1,2.64,5.35c.2,1.9,3.2,1.92,3,0a12.25,12.25,0,0,0-3.51-7.47,1.5,1.5,0,0,0-2.13,2.12Z"/><path d="M401.8,136.11l.56,7.63c.14,1.91,3.14,1.92,3,0l-.56-7.63c-.14-1.91-3.15-1.93-3,0Z"/><path d="M414.28,157.54a86.06,86.06,0,0,1,17-16.08c1.56-1.11.07-3.71-1.51-2.59a88.55,88.55,0,0,0-17.65,16.55c-1.2,1.49.91,3.63,2.12,2.12Z"/><path d="M421.78,155.69a27.34,27.34,0,0,1,10.46-7.91c1.75-.73,1-3.64-.79-2.89a30.27,30.27,0,0,0-11.79,8.68c-1.21,1.48.9,3.61,2.12,2.12Z"/><path d="M428,156.52l6.12-1.72a1.51,1.51,0,0,0-.8-2.9l-6.11,1.72a1.5,1.5,0,0,0,.79,2.9Z"/><path d="M410.37,177.77a36.65,36.65,0,0,1,10.77,15.06c.69,1.79,3.59,1,2.9-.8a39.79,39.79,0,0,0-11.55-16.39c-1.46-1.23-3.6.88-2.12,2.13Z"/><path d="M406.57,182.25A16.66,16.66,0,0,1,411,192c.2,1.9,3.2,1.92,3,0a20,20,0,0,0-5.33-11.83c-1.32-1.41-3.43.71-2.12,2.12Z"/><path d="M372.19,183.05l-3,7.26c-.74,1.79,2.17,2.56,2.89.8l3-7.26c.73-1.78-2.17-2.56-2.9-.8Z"/><path d="M375.69,189.59a33.63,33.63,0,0,0-3,12.94c-.06,1.93,2.94,1.93,3,0a29.59,29.59,0,0,1,2.62-11.42c.8-1.75-1.79-3.28-2.59-1.52Z"/><path d="M379.81,198.85l-.71,8.25c-.17,1.92,2.84,1.91,3,0l.71-8.25c.17-1.93-2.83-1.92-3,0Z"/><path d="M432.26,171.35a27.51,27.51,0,0,1,13.82,3.74,1.5,1.5,0,0,0,1.51-2.59,30.69,30.69,0,0,0-15.33-4.15,1.5,1.5,0,0,0,0,3Z"/><path d="M436.21,177.19a6.72,6.72,0,0,1,6,2.79c1.1,1.57,3.7.07,2.59-1.51a9.76,9.76,0,0,0-8.57-4.28c-1.92.1-1.93,3.1,0,3Z"/><path d="M483.13,309.22l8.13-4.15c1.72-.88.21-3.47-1.51-2.59l-8.14,4.15c-1.72.88-.2,3.46,1.52,2.59Z"/><path d="M485.35,313.13a59,59,0,0,0,9.66-5c1.61-1,.11-3.64-1.52-2.59a53.3,53.3,0,0,1-8.94,4.7c-1.77.72-1,3.63.8,2.9Z"/><path d="M485.85,317.43a23.47,23.47,0,0,0,9.07-2.69c1.69-.93.18-3.52-1.52-2.59a19.43,19.43,0,0,1-7.55,2.28c-1.9.19-1.92,3.19,0,3Z"/><path d="M637.51,389c-2.8-5.35-5.84-10.71-12.53-10.48s-11.24,4.77-17.31,7a3.13,3.13,0,0,0-2.1,3.69l.12.8,2.89-3.8-12.28-.39,2.89,3.8,3.95-10.76c1.63-4.43,3.38-5.56,7.12-8.44,2.59-2,5.14-4,7.61-6.15q2-1.75,4-3.61c.54-.5,3.11-3.66,3.1-3.65,3.41-1,2.46-5.6-.8-5.9h0l2.12,5.13a86.38,86.38,0,0,0,9.37-12.17c1.55-2.45-1-4.75-3.38-4.4l-1.19.17,2.32,5.48c16.46-12.67,24.71-33.47,29.31-53.12a179.15,179.15,0,0,0,2.73-69.38c-8.38-51.08-55.44-89.68-104-101.07-35.33-8.28-72.45-2.62-105.07,12.64l3.63.47c-5.91-5.59-13.75-8.46-21.81-6.56l3.39,4.41c3.37-7.55-.6-15.06-9-16.2-9.72-1.31-16.43,6.29-20.9,13.89l5.48,2.32c2.15-9.1-4.8-17.7-13.72-19.34-10.94-2-21.69,5.23-29.08,12.58s-12.26,18-7.93,28.15c3.67,8.59,14.41,12.76,22.5,7.54l-3-5.18c-4.52,3.4-10,4.93-14.33,8.75a30.37,30.37,0,0,0-10.26,18.52c-2,15.08,8.35,29,23.73,29.81L382.44,209c-16,36.89-14,76.52,2.45,112.94l3.39-4.4-.6-.14a3,3,0,0,0-3.39,4.41c6.07,12.81,16.85,24.27,28,32.88,11.77,9.1,25.55,13.76,40.46,11.89l-2.89-2.21a64.55,64.55,0,0,0,3.93,11.16l3.39-4.41c-3.5-1.14-8.06-2-11.72-.95s-5.51,4.34-7.42,7.49c-7.1,11.77-15.06,23.11-22.57,34.63-1.15,1.76.09,3.74,1.79,4.4,12.35,4.78,25.39,7.18,34.59-4.41l-5-2.92c-1.15,5.54-1.8,12.26.48,17.63,1.62,3.81,6.24,6.48,10,3.57,3.91-3,3.37-10,3-14.29-.49-5.14-1.78-9.73-6-12.91l1.07,4.1.63-1a3,3,0,0,0-1.79-4.41l-.16,0,1.8,4.41c.19-.33.39-.66.59-1l-4.11,1.07.12.09-1.08-4.11-.55,1a3,3,0,0,0,1.8,4.4l.13,0a3,3,0,0,0,3.39-1.38l.44-1-4.11,1.07a77.25,77.25,0,0,0,13.75,7.77c4.06,1.76,9,2.52,12.75,4.76,7.73,4.63,15.4,5.19,24.31,4.94,8.38-.23,16.83-1.65,22.17-8.77,5.6-7.48,5.87-17.21,6.12-26.16l-3,3,1.88-.08a3.08,3.08,0,0,0,2.89-2.2c.16-.68.31-1.36.47-2l-5,1.33a11.38,11.38,0,0,0,2.77,1.83L530,388.43c.89,15,7.74,32.59,24.68,35,9.52,1.37,19-2.7,27.79-5.68l30.83-10.38-3.69-3.69c-.36,1.76-2.39,3.52-3.38,5a46.39,46.39,0,0,0-4.19,7.79c-1.47,3.43-4.27,9.1-1.45,12.52,6.87,8.31,13.79-10.83,14.67-15.06l-5.89-.8c0,4.24,0,11.95,5.07,13.72,5.69,2,7.59-5.11,8.53-9l-5,1.32a62,62,0,0,0,18.69,16.19c1.83,1,4.74-.24,4.52-2.59l-.07-.71-3.8,2.89c9.28,2.57,12.49-6.49,11.39-14-1.65-11.27-6-21.92-11.15-32-1.76-3.44-6.94-.41-5.18,3a114.5,114.5,0,0,1,7.83,18.64c1,3.11,6.4,20.69-1.29,18.56-1.73-.49-4,.92-3.8,2.89l.07.71,4.51-2.59A57.56,57.56,0,0,1,622.18,415c-1.4-1.81-4.54-.69-5,1.32-.26,1.2-.57,2.39-.92,3.57.25,1.39.22,1.55-.08.47-1.18-1.45-.79-5.31-.81-7.15,0-3.28-5.18-4.2-5.89-.8s-2.16,6.24-3.45,9.41c-.28.67-1.76,4.29-.32,2.37.86-1.16,1.11-3.56,1.69-5a41.83,41.83,0,0,1,4.46-8.11c1.39-2,3-3.35,3.53-5.76.43-2.1-1.37-4.47-3.69-3.69L587.4,409.8c-7.57,2.55-15.19,5.72-23,7.29-18.57,3.72-27.43-12.56-28.39-28.66a3,3,0,0,0-1.49-2.59,5.08,5.08,0,0,1-1.56-.9c-1.62-1.39-4.47-1-5,1.33l-.48,2,2.9-2.2-1.88.08a3.06,3.06,0,0,0-3,3c-.22,7.78-.12,17-5.49,23.32s-14.83,5.75-22.29,5.67a34.76,34.76,0,0,1-10.55-1.36c-3.3-1.09-5.46-3.51-8.74-4.47a77.23,77.23,0,0,1-23-10.88,3,3,0,0,0-4.1,1.08l-.44,1,3.38-1.38-.13,0,1.79,4.41.56-.95a3.08,3.08,0,0,0-1.08-4.1l-.12-.09a3,3,0,0,0-4.1,1.08c-.2.33-.4.66-.59,1a3,3,0,0,0,1.79,4.4l.16,0-1.8-4.4-.63,1a3.08,3.08,0,0,0,1.08,4.1c1.83,1.37,2.47,3.86,2.85,6,.35,1.95,1.23,7,.24,8.75-.66,1.21-.8,1.41-1.78.18-.63-.8-.49-3.07-.56-4.06a31.07,31.07,0,0,1,.7-8.44c.54-2.63-3-5.48-5-2.92-3.92,4.95-8.55,7.43-15,6.78-4.76-.49-9.31-2.2-13.74-3.91l1.79,4.4q8.6-13.18,17.2-26.38c1.43-2.19,2.91-4.37,4.3-6.59,1-1.64,2.07-4.42,3.67-5.61,2.61-2,7-.73,9.77.18s4.36-2.21,3.38-4.41a55.72,55.72,0,0,1-3.32-9.72,3,3,0,0,0-2.9-2.2c-14.6,1.83-27.57-2.93-38.79-12.18-9.72-8-19.06-18.17-24.48-29.62l-3.39,4.41.6.13a3,3,0,0,0,3.39-4.41c-15.49-34.23-17.48-72.16-2.45-106.88.91-2.11-.14-4.39-2.59-4.52-13.59-.73-21.11-15.12-16.73-27.4A26.3,26.3,0,0,1,379.17,167c3.24-2,6.69-3,9.75-5.34s.3-7.32-3-5.18c-7,4.52-14.47-1.72-15-9.11s3.81-13.51,8.87-18.25,11.83-9.61,19-10c6.51-.39,14.35,4.72,12.62,12.05-.77,3.26,3.72,5.31,5.48,2.31,2.41-4.09,5.32-8.67,10-10.44,4.49-1.71,12.37.36,9.54,6.69-1.06,2.35.67,5.05,3.38,4.41,5.93-1.4,11.67.94,16,5a3.1,3.1,0,0,0,3.63.47c28.39-13.28,60.67-19,91.75-13.79a142.66,142.66,0,0,1,69.39,32.67c17.41,15.11,32.16,35,37.53,57.72,4.93,20.89,4.56,43.42.93,64.48s-10.89,45.88-28.58,59.49a3,3,0,0,0,2.31,5.48l1.18-.17L630.48,341A76.54,76.54,0,0,1,622,352a3,3,0,0,0,2.13,5.12h0l-.8-5.89c-2.77.78-5.59,5.11-7.72,7-3.38,3-6.94,5.89-10.57,8.63-3.09,2.33-5.07,3.25-6.41,6.8-1.79,4.77-3.51,9.56-5.26,14.34-.7,1.91,1.09,3.74,2.89,3.8l12.28.39c2.16.07,3.14-2,2.89-3.79l-.11-.81-2.1,3.69c4.24-1.57,7.88-4.7,12-6.08,1.47-.49,4.13-1.25,5.67-.66,2.55,1,4.19,5.2,5.36,7.45C634.12,395.42,639.3,392.39,637.51,389Z"/><path class="c" d="M464.73,313.8,383.6,310a168.59,168.59,0,0,1,17.47,34.49,345.81,345.81,0,0,0-71,11.15q48.92,7.88,98.33,12c-7.21-16.49-16.2-26.19-23.41-42.68,22.07-2.12,41.6-7.53,59.72-11.19"/><path d="M464.73,310.8,383.6,307a3,3,0,0,0-2.59,4.51,172.74,172.74,0,0,1,17.16,33.77l2.9-3.79a358.54,358.54,0,0,0-71.78,11.26c-2.69.71-3,5.3,0,5.79q49.32,7.9,99.13,12.1c2.5.21,3.43-2.65,2.59-4.51-6.65-14.88-16.76-27.81-23.41-42.68L405,328c20.5-2.07,40.37-7.18,60.52-11.29,3.78-.77,2.18-6.56-1.6-5.79-19.61,4-39,9.07-58.92,11.08a3,3,0,0,0-2.59,4.51c6.65,14.88,16.76,27.81,23.41,42.69l2.59-4.52q-49-4.11-97.53-11.89v5.79a349.23,349.23,0,0,1,70.18-11.05c1.78-.1,3.62-1.87,2.89-3.8a179.47,179.47,0,0,0-17.77-35.21L383.6,313l81.13,3.77c3.86.18,3.85-5.82,0-6Z"/><line class="f" x1="395.34" y1="373.06" x2="337.34" y2="367.93"/><path class="b" d="M314.11,104.14c-11.93,20.22-15,43.2-8.73,64.76.9,3.1,2.52,6.62,6.58,7.68a10.51,10.51,0,0,0,10.1-3.26c2.09-2.5,2.49-5.54,2.7-8.47,1.49-19.91-.77-42.15-10.65-60.71"/><path d="M311.52,102.62c-8.08,14-12.72,29.85-12.3,46.1.25,9.81,1.08,31,14.88,31.12,16.09.16,14.4-20.65,14-31.53-.63-15.87-4-31.53-11.37-45.69-1.78-3.42-7-.39-5.18,3a97.07,97.07,0,0,1,10.11,35.92,137.71,137.71,0,0,1,.48,16.75c-.17,5.63.21,15.91-8,15.4-6-.37-6.74-8.44-7.63-13.13a76.21,76.21,0,0,1-1.13-18.65,82.47,82.47,0,0,1,11.36-36.29c1.93-3.35-3.25-6.37-5.18-3Z"/><path d="M310.9,122.33a119.25,119.25,0,0,0-1.67,44.82c.29,1.91,3.18,1.1,2.89-.79a115,115,0,0,1,1.67-43.23c.44-1.88-2.46-2.68-2.89-.8Z"/><path class="b" d="M485.13,98.58c-11.93,20.22-15,43.2-8.73,64.76.9,3.1,2.52,6.62,6.58,7.69a10.53,10.53,0,0,0,10.1-3.27c2.09-2.49,2.49-5.54,2.7-8.47,1.49-19.91-.77-42.15-10.65-60.71"/><path d="M482.54,97.07c-8.08,14-12.72,29.84-12.3,46.09.25,9.81,1.08,31,14.88,31.12,16.09.16,14.4-20.65,14-31.52-.63-15.88-4-31.54-11.37-45.69-1.78-3.43-7-.4-5.18,3A96.93,96.93,0,0,1,492.65,136a137.55,137.55,0,0,1,.48,16.74c-.17,5.63.21,15.91-8,15.4-6-.37-6.74-8.44-7.63-13.13a76.21,76.21,0,0,1-1.13-18.65,82.6,82.6,0,0,1,11.36-36.29c1.93-3.35-3.25-6.37-5.18-3Z"/><path d="M481.92,116.78a119.24,119.24,0,0,0-1.67,44.82c.29,1.9,3.18,1.09,2.89-.8a115,115,0,0,1,1.67-43.23c.44-1.87-2.45-2.68-2.89-.79Z"/><path class="b" d="M345.08,187.93c-9.8,16.63-12.35,35.53-7.18,53.26.75,2.55,2.08,5.44,5.41,6.32a8.68,8.68,0,0,0,8.32-2.68c1.71-2.06,2-4.56,2.22-7,1.22-16.38-.64-34.67-8.77-49.93"/><path d="M342.49,186.41c-6.77,11.8-10.64,25.1-10.16,38.77.3,8.63,1.33,26.33,13.68,25.51,12.63-.83,11.42-16.84,11.11-25.81-.45-13.37-3.29-26.54-9.45-38.47-1.77-3.43-6.95-.4-5.18,3a79,79,0,0,1,8.12,28,107.37,107.37,0,0,1,.56,13.18c-.07,4.42.81,12.45-4.63,13.93-8.66,2.36-8.43-20.47-8.15-25.32a67.75,67.75,0,0,1,9.28-29.79c1.93-3.35-3.25-6.38-5.18-3Z"/><path d="M342.19,202.82a98.92,98.92,0,0,0-1.38,37c.29,1.9,3.18,1.09,2.9-.8a94.83,94.83,0,0,1,1.37-35.41c.43-1.88-2.46-2.68-2.89-.8Z"/><path class="g" d="M181,429.36c-3.83-1-8.41.39-12.5.58a51.48,51.48,0,0,1-23.71-4.62c-6.53-2.88-25.78-16.69-11.69-23.44-9.84,13.46-32.27-6-35.41-15.08-3-8.76-.55-35.63,16.28-30.57-28.33-1.44-10.57-49.5,15.43-44.56,3.32.63,20.53,8.87,10,11.11-8.52,1.8-11.47-9-9.13-13.83,6-12.51,26.51-14.51,37.65-7.41,8.52,5.44,1.66,7.81-4.69,3-17.62-13.28,9-35.57,17.9-22a6.11,6.11,0,0,1-7.43-5.07c-1-5.74,7.63-11.37,12.56-13.35,9.6-3.86,18.77-2,27.31,2.9,6.29,3.63,19.82,12.93,17.2,21.47-3.11,10.09-22.17-.16-3.61-2.1,22.17-2.33,41,26.71,23.55,42.1-13.23,11.67-20.86-6.15-3.62-5.79,27.67.59,17.7,38.32,5.89,49.34-2.56,2.38-16.2,11.73-20.67,8.75s3.29-5.28,7.19.38c12.42,18-14.51,40.18-33.94,36.34-2.64-.53-11.39-4.57-5.68-7.7s6.45,9.95,5.91,11.76c-2.83,9.56-17.24,11.91-24.34,5.21"/><path d="M181.77,426.46c-6.18-1.13-12.36.82-18.62.45a45.4,45.4,0,0,1-19.09-5.32c-5-2.77-18.88-12.16-9.47-17.12L131,399.75c-8.6,10.83-27.76-5-30.66-14.62-2.6-8.62,0-29.45,12.85-26l.8-5.89c-23.78-1.7-6.08-41.44,13.58-38.82a17.73,17.73,0,0,1,5.38,1.82,39.14,39.14,0,0,1,3.65,2c.68.43,2.26,2.12,3,2.27s1-.79.29-1c-.44-.12-1.46.38-2,.39a4.34,4.34,0,0,1-4-2.22,8.23,8.23,0,0,1,.13-9.17c4-5.9,11.82-8.07,18.59-8.06a28.09,28.09,0,0,1,10.29,1.85c1.52.61,3,2,4.51,2.52l1,.71q2.85-1.65.34-1.57c-.67-.71-2.59-1.11-3.47-1.75-13.32-9.58,6.33-28,13.36-18.19l1.8-4.41c-3.29.45-4.18-3.12-2.87-5.39a14.48,14.48,0,0,1,3.92-4,26.4,26.4,0,0,1,9.88-4.61c8.35-1.93,16.34,1,23.33,5.47,4.71,3,12.43,8,13.4,14,.37,2.3-.52,4.4-3,4.7-.62.07-1.39-.31-1.95-.21-.34.06-.72-.49-1-.43-.72.14-.3,1.09.26,1.28s4.6-1.09,4.79-1.11a22.47,22.47,0,0,1,13.21,2.6,27.93,27.93,0,0,1,11.9,12.29c2.45,5,3.21,11.06.81,16.25-1.33,2.87-7.9,11.32-12,8.72-3.7-2.32,4.69-3.57,6-3.55,4.75.08,9.51,1.63,12.22,5.74,4.81,7.28,2.37,18-.48,25.56-3.28,8.64-8.39,14.2-16.47,18.56-2.38,1.29-4.86,1.79-7.28,2.79a3.25,3.25,0,0,1-1.38-.26c-.78.61-.19,2.5-.06,2.67s1.76.59,2.3,1a7.88,7.88,0,0,1,1.92,2.47c2.94,5.2,1.89,11.1-1.18,16-3.71,5.9-9.91,10.37-16.38,12.78a29.31,29.31,0,0,1-9.65,1.95c-3.42.06-5.32-1.2-8.36-2.06-1.61-.45-.53-1-.59.15,0,.92.78,2.39,1,3.35.34,2,.56,4-.3,5.76-3.23,6.68-13.73,6.87-18.77,2.52-2.92-2.51-7.18,1.72-4.25,4.24,7,6.07,18.47,6.44,25.4-.13,5.1-4.84,5.78-14.31,1.36-20-5.09-6.49-15.36,1.91-8.61,7.94,7,6.26,18.2,4.62,26.12,1.35,8.92-3.68,17.43-10.7,20.76-20,2.78-7.79.77-20.7-8.64-23.08-2.87-.73-7-.07-7.63,3.35-.71,3.7,3.44,6,6.59,6,7.29,0,16.52-6.06,21.41-11.19,9.64-10.13,15.93-30.3,9.19-43.37-3.83-7.41-12.07-10.57-20.11-10.05-5.79.37-14.36,5.08-10,12.05,4.59,7.41,14.65,2.1,19-2.48,6.71-7,7.91-17,4.28-25.83a33.3,33.3,0,0,0-20.58-19c-4.87-1.49-22-3.19-21.71,5.54.23,6.75,10.88,6.89,14.7,3.63,8.31-7.12-.65-18.05-6.65-23-9.21-7.52-20.69-13.31-32.87-11.17-8.21,1.45-23.85,9.27-20.2,19.95,1.63,4.75,6.14,6.56,10.78,5.93,1.84-.25,2.83-3,1.8-4.41-11.43-15.87-36.66,5.11-27.2,20.69,2.51,4.13,7.39,8,12.33,8.38,3.88.3,7.48-2.53,5.41-6.61-2.32-4.58-9.17-7.1-13.84-8.14a36.48,36.48,0,0,0-16.37.14c-9.21,2.24-19.39,9.8-17.24,20.43.91,4.48,3.81,8.75,8.48,9.83,3.39.77,9.34-.17,10.36-4.2,1.7-6.64-11.07-11.84-15.88-12.83-8.61-1.76-17.28,2.36-23.1,8.54-12,12.76-16.18,40.31,7.34,42,3.41.25,4-5,.8-5.89-18.27-4.87-24,20-20.23,33.38C98.4,400.43,123.45,418.8,135.2,404c2.05-2.58-.45-6.4-3.63-4.72-12.2,6.44-4,17.76,3.87,23.76a47.54,47.54,0,0,0,16.73,8.1A53.77,53.77,0,0,0,164.91,433c5,.12,10.31-1.64,15.27-.73,3.77.69,5.39-5.09,1.59-5.79Z"/><path class="h" d="M135.85,383.64c-6.48.35-17.45,5.16-20.36,9.77-3.89,6.16-3.18,17-2.67,24.28,9.48-4.12,19.48-7.44,24.62-16.17,3.09-5.24,1.52-13.69.92-19.58a7.33,7.33,0,0,0-1.56.71"/><path d="M135.85,382.14c-7.13.63-16.56,3.84-21.1,9.75-5.27,6.86-4,17.78-3.43,25.8a1.52,1.52,0,0,0,2.26,1.29c8.24-3.54,17.44-6.68,23.24-13.94,5.41-6.77,3.91-15.07,3-23.1-.1-.86-.9-1.83-1.9-1.44a16.32,16.32,0,0,0-1.91.85c-1.71.9-.2,3.49,1.51,2.59l1.2-.55-1.9-1.45c.92,8.44,2.49,16.54-4.1,23.16-5.59,5.6-13.6,8.25-20.7,11.29l2.26,1.3c-.49-7.05-1.58-15.94,1.86-22.45,3.3-6.24,13.12-9.52,19.67-10.1,1.91-.16,1.93-3.17,0-3Z"/><path d="M134.88,383.92c-3.8,9.82-11.46,17.2-18.92,24.34-1.39,1.34.73,3.46,2.13,2.12,7.88-7.56,15.67-15.3,19.68-25.67.69-1.8-2.21-2.58-2.89-.79Z"/><path d="M122.84,402.86a16.23,16.23,0,0,1,.25,6.69c-.33,1.89,2.56,2.7,2.89.8a19.92,19.92,0,0,0-.25-8.28c-.46-1.88-3.35-1.08-2.89.79Z"/><path d="M127.21,399a13.2,13.2,0,0,1,2.69,6.26c.3,1.9,3.2,1.1,2.9-.8a16.28,16.28,0,0,0-3.46-7.58c-1.2-1.51-3.31.63-2.13,2.12Z"/><path d="M131.08,393.1a25.16,25.16,0,0,1,2.36,5.85,1.5,1.5,0,0,0,2.89-.79,28.21,28.21,0,0,0-2.66-6.57c-.94-1.69-3.54-.18-2.59,1.51Z"/><path d="M126.42,398.45a16.1,16.1,0,0,0-12.78,5.23c-1.28,1.44.83,3.57,2.12,2.12a13.18,13.18,0,0,1,10.66-4.35c1.93.08,1.92-2.92,0-3Z"/><path d="M131.52,393.19c-3.56-1.89-9,.6-12.34,2-1.77.76-.25,3.35,1.51,2.59a33,33,0,0,1,4.61-1.58c1.27-.33,3.45-1.13,4.7-.46,1.71.91,3.23-1.68,1.52-2.59Z"/><path class="h" d="M180.82,342c-4.3-4.39-15.23-9.15-21-8.32-7.7,1.12-16.58,8.45-22.5,13.39,9.4,4.15,18.44,9.16,29.12,7.32,6.41-1.11,12.69-7.54,17.37-11.68a7.17,7.17,0,0,0-1.56-.66"/><path d="M181.89,341c-5.36-5.06-14.49-9.61-22-8.76-9,1-16.9,8.28-23.56,13.83a1.51,1.51,0,0,0,.3,2.36c8.61,3.84,17.52,8.55,27.25,7.83,8.76-.66,14.84-6.86,21.06-12.43a1.51,1.51,0,0,0-.3-2.36,19,19,0,0,0-1.92-.81c-1.83-.64-2.61,2.25-.8,2.9l1.21.5-.31-2.35c-6.13,5.48-11.89,11.52-20.67,11.62-8.56.09-16.39-4.1-24-7.49l.3,2.35c5.84-4.87,12.8-11.23,20.54-12.76,7-1.39,15.86,3,20.82,7.69,1.41,1.33,3.53-.79,2.13-2.12Z"/><path d="M180.14,341.33c-10.75,3.48-21.91,2.8-33,2-1.93-.14-1.92,2.86,0,3,11.36.84,22.81,1.47,33.81-2.09,1.83-.59,1-3.49-.8-2.89Z"/><path d="M156.45,344.59a20.21,20.21,0,0,1-6,4.66c-1.71.89-.2,3.48,1.51,2.59a22.34,22.34,0,0,0,6.58-5.13c1.26-1.45-.85-3.58-2.12-2.12Z"/><path d="M162.45,345.22a13.81,13.81,0,0,1-3.66,5.88c-1.38,1.35.74,3.47,2.12,2.12a16.88,16.88,0,0,0,4.43-7.21c.56-1.85-2.33-2.64-2.89-.79Z"/><path d="M169.9,344.27a26,26,0,0,1-3.54,5.39c-1.25,1.46.86,3.59,2.12,2.12a29.09,29.09,0,0,0,4-6c.86-1.72-1.72-3.24-2.59-1.51Z"/><path d="M162,344.52a15.68,15.68,0,0,0-12.42-5.75,1.5,1.5,0,0,0,0,3,12.86,12.86,0,0,1,10.3,4.87c1.2,1.52,3.31-.62,2.12-2.12Z"/><path d="M169.87,345.23c-.26-2-1.6-3.09-3.17-4.25a32.48,32.48,0,0,0-6-3.46c-1.75-.77-3.28,1.81-1.52,2.59a33.05,33.05,0,0,1,4.13,2.16c.87.55,3.44,1.81,3.59,3,.24,1.89,3.24,1.91,3,0Z"/><path class="h" d="M126.49,341.74c-5.5-.29-15.29,2.8-18.24,6.43-4,4.86-4.53,14.1-4.89,20.29,8.45-2.63,17.25-4.55,22.54-11.47,3.17-4.15,2.76-11.43,2.89-16.46a6.1,6.1,0,0,0-1.39.45"/><path d="M126.49,340.24c-6.31-.09-14.95,1.92-19.3,6.87-4.81,5.47-4.93,14.5-5.33,21.35a1.51,1.51,0,0,0,1.9,1.44c7.34-2.25,15.48-4.1,21.19-9.6,5.51-5.31,5.21-12.64,5.34-19.77a1.52,1.52,0,0,0-1.9-1.45l-1.39.46c-1.82.6-1,3.49.8,2.89l1.39-.46-1.9-1.44c-.12,6.88.26,13.81-5.56,18.63-5.26,4.36-12.38,5.89-18.76,7.85l1.89,1.45c.35-5.88.33-13.61,4-18.57s11.94-6.73,17.65-6.65a1.5,1.5,0,0,0,0-3Z"/><path d="M125.52,341.59c-4.24,8-11.41,13.51-18.46,18.87-1.51,1.16,0,3.76,1.52,2.59,7.46-5.67,15-11.51,19.53-19.94.91-1.71-1.68-3.23-2.59-1.52Z"/><path d="M113.19,356.61a14.43,14.43,0,0,1-.54,5.95c-.57,1.85,2.32,2.64,2.89.8a16.56,16.56,0,0,0,.65-6.75c-.21-1.89-3.22-1.92-3,0Z"/><path d="M117.26,353.87a10.8,10.8,0,0,1,1.64,5.37c.06,1.93,3.06,1.93,3,0a14,14,0,0,0-2.05-6.88c-1-1.65-3.6-.14-2.59,1.51Z"/><path d="M121.17,349.18a20.8,20.8,0,0,1,1.39,5.08,1.54,1.54,0,0,0,1.5,1.5,1.52,1.52,0,0,0,1.5-1.5,23.86,23.86,0,0,0-1.5-5.88,1.55,1.55,0,0,0-1.85-1,1.49,1.49,0,0,0-1,1.84Z"/><path d="M117.16,353.23a14.32,14.32,0,0,0-11.87,3.39c-1.44,1.28.68,3.4,2.12,2.12a11.08,11.08,0,0,1,9-2.62c1.89.28,2.71-2.61.8-2.89Z"/><path d="M121.78,349.15c-1.37-.93-3-.78-4.58-.62a31.66,31.66,0,0,0-5.94,1.23c-1.84.56-1.06,3.45.8,2.89a29.17,29.17,0,0,1,4.13-1c1.17-.18,3-.65,4.07.07,1.6,1.1,3.1-1.5,1.52-2.59Z"/><path class="h" d="M201.06,322.57c5.78-2.71,13.68-11.16,14.28-16.43.81-7.05-4.69-16.67-8.41-23.1-6.84,7.26-14.52,14-15.33,23.85-.48,5.91,4.74,13,7.92,18.16a6.39,6.39,0,0,0,1.11-1.22"/><path d="M201.81,323.87c6.15-3.15,13.47-9.79,14.9-16.88,1.68-8.4-4.51-17.83-8.48-24.7a1.52,1.52,0,0,0-2.36-.31c-6,6.3-13.14,12.7-15.24,21.49-2,8.47,3.32,15.54,7.6,22.34a1.51,1.51,0,0,0,2.35.3,6.77,6.77,0,0,0,1.11-1.22c1.2-1.49-.91-3.62-2.12-2.12a6.77,6.77,0,0,1-1.11,1.22l2.36.3c-4.14-6.57-9.43-13.28-6.9-21.45,2.34-7.57,8.79-13.18,14.07-18.74l-2.35-.3c3.59,6.22,9.14,14.46,8.19,22-.83,6.43-8.1,12.73-13.53,15.52-1.72.88-.2,3.47,1.51,2.59Z"/><path d="M201.83,322.14c-.89-10.4,2.71-20,6.44-29.52.7-1.8-2.2-2.58-2.9-.8-3.82,9.76-7.45,19.67-6.54,30.32.16,1.9,3.16,1.92,3,0Z"/><path d="M204.3,300.09a16.84,16.84,0,0,1-3.2-6.06,1.5,1.5,0,0,0-2.89.8,20.5,20.5,0,0,0,4,7.38c1.22,1.5,3.34-.64,2.12-2.12Z"/><path d="M202.38,305.49a14.66,14.66,0,0,1-5.38-4.63c-1.09-1.57-3.69-.08-2.59,1.52a17.87,17.87,0,0,0,6.45,5.7c1.71.89,3.23-1.7,1.52-2.59Z"/><path d="M201.11,312.07a27.81,27.81,0,0,1-4.77-4.49c-1.25-1.48-3.36.65-2.13,2.12a30.56,30.56,0,0,0,5.39,5,1.52,1.52,0,0,0,2.05-.54,1.53,1.53,0,0,0-.54-2.05Z"/><path d="M202.81,305.68a14.82,14.82,0,0,0,9.64-9.75c.54-1.86-2.36-2.65-2.9-.8a11.66,11.66,0,0,1-7.54,7.65c-1.81.63-1,3.53.8,2.9Z"/><path d="M200.87,312.32c2,.2,3.78-1.06,5.37-2.2a34.09,34.09,0,0,0,4.7-4.11c1.33-1.4-.79-3.53-2.12-2.12a29.37,29.37,0,0,1-3.5,3.19c-1.22.94-2.83,2.4-4.45,2.24-1.92-.19-1.9,2.81,0,3Z"/><path class="h" d="M212.06,389.21c3.65-4.9,6.13-15.74,3.87-20.61-3-6.5-13-12.49-19.63-16.47-2.18,9.34-5.37,18.58-.86,27.53C198.15,385,206.5,389,212,392.05a6.4,6.4,0,0,0,.33-1.55"/><path d="M213.36,390c3.86-5.63,6.76-15.12,4-21.76-3.32-8-13.26-13.16-20.31-17.37a1.52,1.52,0,0,0-2.21.89c-2.08,8.74-5.11,18.25-1.46,27,3.1,7.45,11.24,10.94,17.88,14.6a1.51,1.51,0,0,0,2.2-.89l.33-1.55c.4-1.88-2.49-2.69-2.89-.8l-.33,1.55,2.2-.9c-5.55-3.06-12.87-6-16-11.84-4.43-8.12-1-18.09,1-26.38l-2.21.9c6.3,3.76,14.93,8.09,18.53,14.85,3.16,6,.24,15-3.3,20.18-1.1,1.59,1.5,3.1,2.59,1.51Z"/><path d="M212.49,388.39c-6.16-8.46-8.19-18.49-10-28.6-.34-1.89-3.23-1.09-2.89.8,1.83,10.36,4,20.66,10.28,29.32,1.12,1.54,3.73,0,2.59-1.52Z"/><path d="M203,368.11a19.3,19.3,0,0,1-6-3.91c-1.4-1.32-3.53.79-2.12,2.12a23.3,23.3,0,0,0,7.37,4.69c1.79.73,2.56-2.18.8-2.9Z"/><path d="M204.2,373.68A16.59,16.59,0,0,1,197,372c-1.72-.85-3.24,1.74-1.51,2.6a20.16,20.16,0,0,0,8.69,2.11c1.93,0,1.93-3,0-3Z"/><path d="M207,380a33.6,33.6,0,0,1-7-1.9c-1.8-.71-2.58,2.19-.8,2.89a33,33,0,0,0,7,1.9c1.89.3,2.7-2.59.8-2.89Z"/><path d="M204.6,373.67a13.5,13.5,0,0,0,3.34-12.82,1.51,1.51,0,0,0-2.9.8,10.37,10.37,0,0,1-2.56,9.9c-1.31,1.42.81,3.54,2.12,2.12Z"/><path d="M206.08,380.48c3.64-1.29,5.06-6.76,5.86-10.12.45-1.88-2.45-2.68-2.89-.8a26.27,26.27,0,0,1-1.46,4.5c-.47,1.07-1.12,3.11-2.31,3.53-1.81.63-1,3.53.8,2.89Z"/><path class="h" d="M226.62,321.43c4.31-.24,11.59-3.45,13.52-6.51,2.57-4.1,2.09-11.31,1.74-16.14-6.29,2.75-12.93,5-16.34,10.77-2,3.49-1,9.1-.58,13a4.36,4.36,0,0,0,1-.47"/><path d="M226.62,322.93c4.88-.5,11.1-2.56,14.28-6.55,3.71-4.65,2.87-12.09,2.48-17.6a1.52,1.52,0,0,0-2.25-1.29c-5.65,2.43-12.09,4.64-15.87,9.81-3.34,4.57-2.4,10-1.8,15.26a1.53,1.53,0,0,0,2.26,1.3l1-.47c1.75-.8.23-3.39-1.52-2.59l-1,.47,2.26,1.29c-.62-5.52-1.61-10.9,2.74-15.22,3.6-3.58,8.88-5.3,13.44-7.26l-2.26-1.3c.32,4.41.88,9.43-.7,13.65-1.77,4.7-8.45,7-13.06,7.5-1.9.19-1.92,3.2,0,3Z"/><path d="M227.76,321.38c2.47-6.44,7.53-11.28,12.4-16,1.39-1.34-.73-3.46-2.12-2.12-5.3,5.1-10.49,10.31-13.18,17.3-.69,1.8,2.21,2.58,2.9.79Z"/><path d="M235.73,308.51a10.11,10.11,0,0,1-.18-4.17c.33-1.89-2.56-2.7-2.89-.8a13.86,13.86,0,0,0,.18,5.77c.46,1.88,3.35,1.08,2.89-.8Z"/><path d="M232.7,310.89A8.3,8.3,0,0,1,231,307a1.5,1.5,0,0,0-1.84-1,1.53,1.53,0,0,0-1.05,1.84,11.27,11.27,0,0,0,2.44,5.26,1.51,1.51,0,0,0,2.12,0,1.53,1.53,0,0,0,0-2.12Z"/><path d="M230.22,314.89a16.48,16.48,0,0,1-1.53-3.77,1.5,1.5,0,0,0-2.89.8,19.44,19.44,0,0,0,1.83,4.48c.94,1.69,3.53.18,2.59-1.51Z"/><path d="M232.87,312.09a11.19,11.19,0,0,0,8.84-3.64c1.28-1.44-.83-3.57-2.12-2.12a8.3,8.3,0,0,1-6.72,2.76c-1.93-.08-1.93,2.92,0,3Z"/><path d="M229.23,315.52c2.56,1.35,6.29-.33,8.71-1.37,1.77-.76.24-3.35-1.51-2.59a20.48,20.48,0,0,1-3,1c-.67.18-2,.73-2.73.37-1.71-.91-3.22,1.68-1.52,2.59Z"/><path class="h" d="M168.3,312c1.55-3.67,1.35-11-.93-13.85-3-3.78-10.47-6.29-15.46-7.94.14,6.33-.38,12.74,4,17.91,2.65,3.1,8.72,4.48,12.81,5.71a3.63,3.63,0,0,0,0-1"/><path d="M169.74,312.43c1.62-4.51,1.82-11.15-1.19-15.16-3.57-4.76-10.87-6.69-16.24-8.47a1.51,1.51,0,0,0-1.9,1.44c.1,6.19-.2,12.87,3.76,18.06,3.34,4.36,9.18,5.54,14.18,7a1.51,1.51,0,0,0,1.89-1.45l0-1c-.08-1.93-3.08-1.94-3,0l0,1,1.9-1.44c-4.7-1.39-10.47-2.35-13.23-6.87s-2.41-10.16-2.5-15.31l-1.9,1.45c4.53,1.5,9.7,2.94,13.35,6.14s3.55,9.47,2,13.8c-.65,1.82,2.24,2.6,2.89.8Z"/><path d="M168.78,311.05c-5.33-4.56-8.31-10.73-11.14-17-.8-1.76-3.39-.24-2.6,1.51,3,6.51,6.1,12.9,11.62,17.62,1.46,1.25,3.59-.87,2.12-2.12Z"/><path d="M159.32,299.18a14,14,0,0,1-4.71-1.7,1.5,1.5,0,0,0-1.51,2.59,16.05,16.05,0,0,0,5.42,2c1.89.34,2.7-2.55.8-2.89Z"/><path d="M160.47,302.6a10.82,10.82,0,0,1-4.67-.14c-1.87-.47-2.67,2.42-.79,2.89a14.22,14.22,0,0,0,6.26.14c1.89-.36,1.09-3.25-.8-2.89Z"/><path d="M163.45,306.29a21.87,21.87,0,0,1-4.43-.21,1.55,1.55,0,0,0-1.85,1,1.51,1.51,0,0,0,1.05,1.85,24.77,24.77,0,0,0,5.23.32c1.92-.1,1.93-3.1,0-3Z"/><path d="M161.31,303.23a9.38,9.38,0,0,0,0-9.26c-.94-1.69-3.53-.18-2.59,1.52a6.24,6.24,0,0,1,0,6.23c-.94,1.69,1.65,3.2,2.59,1.51Z"/><path d="M163.22,307.62c2.34-1.45,2.4-5.37,2.36-7.81,0-1.93-3-1.94-3,0a17.15,17.15,0,0,1-.2,3c-.08.49-.18,1.89-.67,2.19-1.64,1-.14,3.62,1.51,2.59Z"/><path class="h" d="M171.8,373.23c-3.48,2.33-7.69,8.63-7.47,12.14.29,4.7,5,10.47,8.21,14.32,3.65-5.41,7.91-10.56,7.29-17.09-.37-3.93-4.62-8.08-7.31-11.14a4.11,4.11,0,0,0-.59.9"/><path d="M171,371.93c-3.83,2.88-8.06,7.92-8.19,13-.16,6,5.07,11.55,8.63,15.86a1.51,1.51,0,0,0,2.35-.31c3.34-4.88,7.43-10,7.56-16.25.11-5.7-4.28-9.86-7.81-13.8a1.51,1.51,0,0,0-2.36.3l-.58.9c-1.06,1.63,1.54,3.13,2.59,1.52l.58-.91-2.35.31c3.77,4.22,8,8.15,6.56,14.34-1.05,4.49-4.23,8.35-6.78,12.08l2.36-.31c-2.75-3.33-6.61-7.46-7.5-11.85-.94-4.61,3-9.63,6.46-12.26,1.52-1.14,0-3.75-1.52-2.59Z"/><path d="M170.88,373.84c1.7,6.52.53,13-.78,19.43-.39,1.89,2.5,2.69,2.89.8,1.42-7,2.62-14,.79-21a1.51,1.51,0,0,0-2.9.8Z"/><path d="M171.8,388.53a12,12,0,0,1,2.9,3.76,1.52,1.52,0,0,0,2.05.54,1.55,1.55,0,0,0,.54-2.06,14.19,14.19,0,0,0-3.37-4.36c-1.45-1.26-3.58.85-2.12,2.12Z"/><path d="M172.87,385.07a9.75,9.75,0,0,1,3.82,2.43c1.35,1.39,3.47-.73,2.12-2.12a13,13,0,0,0-5.15-3.2c-1.83-.63-2.61,2.27-.79,2.89Z"/><path d="M172.58,380.49a19.32,19.32,0,0,1,3.58,2.37,1.53,1.53,0,0,0,2.12,0,1.51,1.51,0,0,0,0-2.12,22.07,22.07,0,0,0-4.19-2.84c-1.71-.89-3.23,1.7-1.51,2.59Z"/><path d="M172.29,384.08a10,10,0,0,0-5.38,7.83c-.21,1.91,2.79,1.9,3,0a7,7,0,0,1,3.89-5.24c1.71-.9.19-3.49-1.51-2.59Z"/><path d="M173.29,379.41c-1.56,0-2.66,1-3.73,2.06a21.73,21.73,0,0,0-2.8,3.4c-1.09,1.6,1.51,3.1,2.59,1.51a18.27,18.27,0,0,1,1.84-2.29c.47-.5,1.36-1.66,2.1-1.68,1.92-.05,1.93-3.05,0-3Z"/><path class="i" d="M817.15,268.8c2.2-8.82,10.63-14.64,19.14-16.15s17.21.47,25.64,2.43c6.8,1.58,13.76,3.23,19.66,7.12,6.69,4.42,11.48,11.35,16.09,18.11,3.59,5.25,7.26,10.71,8.46,17.05,2.08,10.93-3.58,22.14-2.08,33.18.8,5.86,3.58,11.28,4.3,17.16a24.69,24.69,0,0,1-7.49,20.77,21.8,21.8,0,0,1-20.51,5c-5.71,15-23.3,23.71-37.88,18.66-7.28-2.51-13.52-7.85-21-9.77-8.83-2.27-18.59.5-26.93-3.32-8.05-3.68-12.67-12.51-16.71-20.74-6.36-13-12.84-28.18-7.31-41.56,1.82-4.43,4.94-8.48,5.15-13.31.16-3.57-1.32-7-1.57-10.55-.73-10,8-17.88,16.52-22.53l.14-.08a30.33,30.33,0,0,1,25.11-1.87Z"/><path d="M820,269.6c5.49-18.8,28.52-14.64,42.8-11.23,8.53,2,16.48,4.67,22.75,11.11a94.11,94.11,0,0,1,14.2,19.69c4.88,8.77,3.74,17.1,2.18,26.57-1.3,7.83-1.44,14.82.85,22.47,2.5,8.34,4.34,16.24-.71,24.12a19.08,19.08,0,0,1-21,8.2,3.1,3.1,0,0,0-3.69,2.1c-5.06,12.45-19.64,20.89-32.93,17-7.6-2.24-13.79-7.72-21.42-9.94s-15.92-.44-23.71-2.21c-8.13-1.85-12.81-9-16.48-15.88-3.9-7.33-7.61-15-9.81-23-2.65-9.65-1.4-17.25,2.88-26.11a23.94,23.94,0,0,0,2.64-8.25c.39-4.37-1.65-8.44-1.52-12.76.24-8.32,7.8-14.43,14.46-18.17,7.88-4.43,16.41-4.62,24.78-1.55,3.63,1.33,5.2-4.47,1.59-5.79-15.34-5.62-32.76,0-42.44,13.23a22,22,0,0,0-4.2,10.09c-.65,4.91,1.74,9.35,1.42,14.16s-3.72,8.92-5.35,13.32a32.71,32.71,0,0,0-1.74,14.12c.83,9.67,4.72,18.72,8.9,27.38,3.7,7.68,7.72,16,14.8,21.14,7.88,5.73,17.14,4.38,26.29,5.09,10.31.8,17.68,8.17,27.31,10.95,16.72,4.81,34-5.67,40.32-21.17l-3.69,2.1a25.49,25.49,0,0,0,30.61-17.19c2.31-7.08,1.09-13.88-1-20.82-1.31-4.29-2.44-8.47-2.3-13,.15-4.75,1.25-9.41,2-14.1,1.16-7.65,1.07-14.82-2.23-22s-8.18-13.69-13-19.71c-10.46-13.08-25.81-17.11-41.79-19.59-15.07-2.35-32.71,1.58-37.53,18.07C813.17,271.72,819,273.3,820,269.6Z"/><path d="M816.38,277.09a11.65,11.65,0,0,0-11.83-2.32c-1.8.67-1,3.57.79,2.9a8.63,8.63,0,0,1,8.92,1.54c1.45,1.26,3.58-.85,2.12-2.12Z"/><path d="M798.89,276.35a14.27,14.27,0,0,0-9.75,2.95c-1.51,1.16,0,3.77,1.51,2.59a11.75,11.75,0,0,1,8.24-2.54c1.93.14,1.92-2.86,0-3Z"/><path d="M782.83,285.41l-4.28,5.43a1.54,1.54,0,0,0,0,2.12,1.5,1.5,0,0,0,2.12,0l4.28-5.43a1.54,1.54,0,0,0,0-2.12,1.52,1.52,0,0,0-2.12,0Z"/><path d="M808.31,281.36a14.7,14.7,0,0,0-10.09,4.46c-1.36,1.38.76,3.51,2.12,2.13a11.56,11.56,0,0,1,8-3.59c1.93-.06,1.94-3.06,0-3Z"/><path d="M792.26,289.94a29.8,29.8,0,0,0-5.54,10.16c-.59,1.84,2.31,2.63,2.89.8a25.9,25.9,0,0,1,4.77-8.84c1.23-1.47-.88-3.61-2.12-2.12Z"/><path d="M784.18,306a23.64,23.64,0,0,0-3.45,11.26c-.11,1.93,2.89,1.92,3,0a20.46,20.46,0,0,1,3-9.75c1-1.65-1.58-3.15-2.59-1.51Z"/><path d="M782.17,347l4.71,7.69c1,1.65,3.6.14,2.59-1.51l-4.71-7.69c-1-1.65-3.6-.14-2.59,1.51Z"/><path d="M795.57,301l-3.12,12.31c-.48,1.87,2.42,2.67,2.89.8l3.13-12.31c.47-1.87-2.42-2.67-2.9-.8Z"/><path d="M788.68,323.13l0,8.6a1.5,1.5,0,0,0,3,0l0-8.6a1.5,1.5,0,0,0-3,0Z"/><path d="M790.25,345.2l5.14,9.05a1.5,1.5,0,0,0,2.59-1.51l-5.14-9.06a1.5,1.5,0,0,0-2.59,1.52Z"/><path d="M789.1,361.85l4.21,7.3a1.5,1.5,0,0,0,2.59-1.52l-4.21-7.29a1.5,1.5,0,0,0-2.59,1.51Z"/><path d="M800.46,365.16a14,14,0,0,0,6.22,7.29c1.69.94,3.2-1.65,1.51-2.59a10.7,10.7,0,0,1-4.83-5.5c-.7-1.78-3.6-1-2.9.8Z"/><path d="M815.2,287.28a13.52,13.52,0,0,0-8.31,7.85c-.75,1.78,2.15,2.55,2.89.8a10.25,10.25,0,0,1,6.21-5.76c1.83-.59,1-3.49-.79-2.89Z"/><path d="M805.31,301.56a22.82,22.82,0,0,0-4.11,10.7c-.25,1.91,2.75,1.89,3,0a19.91,19.91,0,0,1,3.7-9.19c1.13-1.56-1.47-3.06-2.59-1.51Z"/><path d="M798.6,320.87,799,329c.1,1.92,3.1,1.93,3,0l-.42-8.15c-.09-1.92-3.1-1.93-3,0Z"/><path d="M803.16,342.9l2.57,5.43c.83,1.74,3.42.22,2.59-1.52l-2.57-5.43c-.82-1.74-3.41-.22-2.59,1.52Z"/><path d="M810.88,361.45a20.89,20.89,0,0,0,6.53,8.24c1.53,1.17,3-1.43,1.52-2.59a17.9,17.9,0,0,1-5.46-7.16c-.78-1.76-3.36-.24-2.59,1.51Z"/><path d="M823.54,370.8l7.29,6.34c1.45,1.26,3.58-.85,2.12-2.12l-7.29-6.34c-1.45-1.26-3.58.85-2.12,2.12Z"/><path d="M836.39,381.67a17.69,17.69,0,0,0,8.37,4.46c1.89.41,2.69-2.48.8-2.89a14.71,14.71,0,0,1-7-3.69c-1.41-1.32-3.53.8-2.12,2.12Z"/><path d="M818.44,291.05l-3,11.77c-.48,1.87,2.41,2.67,2.89.8l3-11.77c.48-1.87-2.42-2.67-2.89-.8Z"/><path d="M814.16,309.61l-1.71,10.86c-.29,1.89,2.6,2.7,2.9.8l1.7-10.86c.3-1.89-2.59-2.71-2.89-.8Z"/><path d="M814.15,334.39l1.29,6.79c.36,1.9,3.25,1.09,2.89-.8L817,333.59c-.35-1.89-3.25-1.09-2.89.8Z"/><path d="M819,349.72l4.67,8.18a1.5,1.5,0,0,0,2.59-1.52l-4.67-8.17a1.5,1.5,0,0,0-2.59,1.51Z"/><path d="M831.68,363.57l6.42,6.79c1.33,1.4,3.45-.72,2.12-2.12l-6.42-6.79c-1.33-1.41-3.45.72-2.12,2.12Z"/><path d="M847.47,375l7.29,5.43c1.55,1.15,3-1.45,1.51-2.59L849,372.43c-1.55-1.15-3.05,1.45-1.51,2.59Z"/><path d="M827.33,274.2a12.29,12.29,0,0,1,4.45-6.35c1.55-1.12.05-3.73-1.51-2.59a15.6,15.6,0,0,0-5.83,8.14c-.58,1.85,2.31,2.64,2.89.8Z"/><path d="M841.31,264l12-.45c1.93-.07,1.94-3.07,0-3l-12,.45c-1.93.08-1.94,3.08,0,3Z"/><path d="M825.55,286.47a5.24,5.24,0,0,1,2.4-4.08c1.63-1,.13-3.63-1.51-2.59a8.4,8.4,0,0,0-3.89,6.67c-.13,1.92,2.87,1.91,3,0Z"/><path d="M836.5,280l9.87-2.65a1.51,1.51,0,0,0-.8-2.9l-9.87,2.66a1.5,1.5,0,0,0,.8,2.89Z"/><path d="M859.3,274.36,870,273.9c1.93-.09,1.94-3.09,0-3l-10.71.46c-1.92.09-1.93,3.09,0,3Z"/><path d="M861,265.79h9.85a1.5,1.5,0,0,0,0-3H861a1.5,1.5,0,0,0,0,3Z"/><path d="M825.33,297.27l3,9.5c.58,1.83,3.48,1.05,2.9-.8l-3-9.5c-.58-1.84-3.47-1.05-2.89.8Z"/><path d="M823.36,313.57l1.08,7.24c.28,1.91,3.17,1.1,2.89-.79l-1.07-7.24c-.28-1.91-3.18-1.1-2.9.79Z"/><path d="M828.85,337.25l2.77,6.12c.8,1.75,3.39.23,2.59-1.52l-2.77-6.11c-.8-1.76-3.39-.23-2.59,1.51Z"/><path d="M838.28,352.06l6.21,6.57c1.33,1.41,3.45-.72,2.12-2.12l-6.21-6.57c-1.33-1.4-3.44.72-2.12,2.12Z"/><path d="M857.45,367.69l5.36,3.17a1.5,1.5,0,0,0,1.51-2.59L859,365.1a1.5,1.5,0,0,0-1.52,2.59Z"/><path d="M834,316.43l4.9,7.95c1,1.64,3.61.13,2.59-1.52l-4.9-7.94c-1-1.64-3.6-.14-2.59,1.51Z"/><path d="M843.44,334.3l3.86,6.33a1.5,1.5,0,0,0,2.59-1.51L846,332.78c-1-1.64-3.6-.14-2.59,1.52Z"/><path d="M858.25,352.47l4.51,5.42c1.23,1.49,3.35-.64,2.12-2.12l-4.51-5.42c-1.23-1.49-3.34.64-2.12,2.12Z"/><path d="M872.17,365.6l2.78,2.95c1.33,1.4,3.45-.72,2.12-2.13l-2.78-2.94c-1.33-1.4-3.45.72-2.12,2.12Z"/><path d="M836.91,293l3.85,2.94a1.52,1.52,0,0,0,2.06-.54,1.54,1.54,0,0,0-.54-2.05l-3.86-2.94a1.51,1.51,0,0,0-2,.54,1.53,1.53,0,0,0,.54,2.05Z"/><path d="M850.06,302.4l3.25,5.64a1.5,1.5,0,0,0,2.59-1.52l-3.25-5.63a1.5,1.5,0,0,0-2.59,1.51Z"/><path d="M858.44,318a38.92,38.92,0,0,1,3.7,8.25c.58,1.83,3.48,1.05,2.89-.8a42.57,42.57,0,0,0-4-9,1.5,1.5,0,0,0-2.59,1.51Z"/><path d="M867,335l3.64,7.47c.85,1.73,3.44.21,2.59-1.52l-3.64-7.47c-.85-1.73-3.43-.21-2.59,1.52Z"/><path d="M877.28,351.28l2.71,6.37c.76,1.77,3.34.24,2.59-1.52l-2.71-6.37c-.76-1.77-3.34-.24-2.59,1.52Z"/><path d="M856.31,292.51l3.65,2.94a1.54,1.54,0,0,0,2.12,0,1.52,1.52,0,0,0,0-2.12l-3.65-2.94a1.54,1.54,0,0,0-2.12,0,1.52,1.52,0,0,0,0,2.12Z"/><path d="M869.81,307.36l4.3,9.49c.8,1.76,3.39.24,2.59-1.51l-4.3-9.5c-.8-1.75-3.38-.23-2.59,1.52Z"/><path d="M880.31,329.43l2.31,5.91c.69,1.78,3.59,1,2.89-.8l-2.31-5.9c-.7-1.78-3.6-1-2.89.79Z"/><path d="M886.35,346.39l1.28,5.65c.43,1.89,3.33,1.09,2.9-.79l-1.29-5.66c-.43-1.88-3.32-1.09-2.89.8Z"/><path d="M850.27,283.83a23.55,23.55,0,0,1,8.85.46c1.88.45,2.68-2.44.8-2.9a27.4,27.4,0,0,0-10.44-.45c-1.91.27-1.1,3.17.79,2.89Z"/><path d="M868.56,283.57l5.37,2.23a1.5,1.5,0,0,0,1.84-1,1.54,1.54,0,0,0-1-1.85l-5.37-2.23a1.52,1.52,0,0,0-1.85,1,1.55,1.55,0,0,0,1,1.85Z"/><path d="M879.87,296.82a15.46,15.46,0,0,1,4,6.33c.6,1.82,3.5,1,2.89-.8A18.62,18.62,0,0,0,882,294.7c-1.38-1.35-3.51.77-2.12,2.12Z"/><path d="M888.71,316.06l1.28,4.08c.58,1.83,3.48,1.05,2.89-.8l-1.28-4.08c-.58-1.83-3.48-1.05-2.89.8Z"/><path d="M894.12,335.06l1.28,8.37c.29,1.91,3.19,1.1,2.89-.79L897,334.26c-.29-1.9-3.19-1.09-2.89.8Z"/><path d="M896.2,358l-1.5,3.63a1.51,1.51,0,0,0,1,1.84,1.54,1.54,0,0,0,1.85-1.05l1.5-3.62a1.5,1.5,0,0,0-1.05-1.84,1.54,1.54,0,0,0-1.85,1Z"/><path d="M877.33,275.91a5.68,5.68,0,0,1,4,3.17c.87,1.73,3.45.21,2.59-1.51a8.51,8.51,0,0,0-5.81-4.55c-1.89-.39-2.69,2.5-.8,2.89Z"/><path d="M887.79,285.87a40.71,40.71,0,0,1,3.7,7.34c.68,1.78,3.58,1,2.89-.8a43.76,43.76,0,0,0-4-8.05c-1-1.63-3.64-.13-2.59,1.51Z"/><path d="M894.51,303.61l1.5,7.24c.39,1.89,3.29,1.09,2.89-.8l-1.5-7.24c-.4-1.88-3.29-1.08-2.89.8Z"/><path class="j" d="M903.32,405.68a37.9,37.9,0,0,0-10.59-37.61c-4.38-4-10.79-7-16.16-4.49-4.17,2-6.38,6.8-6.53,11.4s1.35,9.09,2.85,13.45c-3.46-5.81-9.87-10-16.64-10s-13.53,4.31-15.63,10.74,1.19,14.35,7.47,16.85a25.41,25.41,0,0,0-24.88-.68c-4.52,2.45-8.46,6.83-8.58,12-.1,4.21,2.41,8.15,5.67,10.81s7.25,4.26,11.17,5.82c-4.57-3.69-12.05-2.22-15.6,2.45s-3.35,11.55-.3,16.57,8.51,8.24,14.22,9.58c-2.16-1.5-5.38-.44-6.94,1.68s-1.8,4.94-1.6,7.57a27.65,27.65,0,0,0,19.67,23.9c1.14.31,2.54.5,3.38-.34,1.16-1.17-.06-3.46-1.71-3.51a3.42,3.42,0,0,0-3.16,3.19,7.41,7.41,0,0,0,1.43,4.63c5.85,9.24,20.2,11.54,28.65,4.6-3.21,3.42-1.36,9.51,2.55,12.1s9,2.59,13.63,2.08c6.06-.65,12.45-2.19,16.59-6.67s4.65-12.64-.36-16.12c8.06,3.64,17.2,6,25.72,3.66s15.86-10.57,14.7-19.33c-1.13-8.48-9.14-14.17-16.8-17.95,6.83,1.18,13.91,2.34,20.62.6s13-7.26,13.25-14.18c.24-5.93-3.84-11.24-8.61-14.76-3.24-2.4-7.09-4.29-11.12-4.17s-8.17,2.72-9.06,6.65a35.92,35.92,0,0,0,15.77-13.31c2.37-3.65,4.06-8.4,2.06-12.26-1.85-3.55-6.16-5-10.14-5.55-9.1-1.22-17.29,6.13-16,2.1s-1.85-8.84-6.06-9.33-13,3.64-12.94,7.88"/><path d="M906.22,406.48c4.13-15.62-1.28-34.94-15.59-43.75-6.34-3.9-14.74-4.5-19.82,1.73-5.93,7.27-3.56,16.72-.81,24.77l5.48-2.32c-6.94-10.76-21.38-15.61-32-6.88-9.39,7.72-8.27,23.28,3.1,28.56,3.44,1.6,6.44-3.23,3-5.18-11-6.24-27-5.43-34.92,5.38a14.54,14.54,0,0,0-.65,16.67c3.71,6.05,10.32,8.82,16.63,11.35,3.35,1.34,4.91-3.67,2.31-5.48-8.86-6.18-20.73,0-22.45,10.22-2,12.07,7.66,21,18.47,23.86,3.17.83,5.48-4,2.31-5.48-5.49-2.59-11.1.48-12.65,6.3s.46,12.74,3.35,17.89a30.93,30.93,0,0,0,13.38,12.64c3.58,1.72,11.22,4.33,12.28-1.84.87-5.06-5.11-7.56-8.73-4.73-4.68,3.65-1.89,10,1.29,13.58,7.6,8.62,21.7,10,30.8,3.06l-4.11-4.1c-3.81,5-1.8,12.11,3,15.73,5.86,4.41,14.35,3.56,21.11,2.17,6.58-1.36,13.38-4.64,16.15-11.14,2.33-5.47,1.62-12.09-3.16-16l-3.63,4.71c13.91,6.08,32.6,8.47,42-6.36,8.89-14-3.38-26.37-15.37-32.44l-2.31,5.48c9.27,1.58,19.56,3.19,28.1-1.86,6.65-3.92,11-11.23,9.06-19-3.24-13.19-28.2-27-34.17-8.66-.88,2.71,2.21,4.39,4.41,3.38,9-4.11,20.23-13.47,20.16-24.34-.07-11-13.32-13.85-22-11.72-1.84.45-5,1.08-6.51,2.27-1.13.87-2.52-.5,0,1.71,2.17,1.88,1.74.6,1.76-1.38a10.66,10.66,0,0,0-6.59-9.8c-6.82-2.74-17.8,2.71-18.68,10.2-.44,3.83,5.56,3.8,6,0,.32-2.66,6.22-4.76,8.4-4.84a4.37,4.37,0,0,1,4.77,3.39c.3,1.39-.53,2.56-.26,3.85.92,4.44,4.85,3.13,8,1.95,5.72-2.15,20.58-4.52,19,6-1.24,8-10.35,14.49-17.06,17.57l4.41,3.39c4.06-12.51,24.28,2.79,22.73,12.42-2.17,13.47-20.53,11.35-29.92,9.75-3.1-.53-5.58,3.82-2.31,5.48,8.92,4.52,20.21,13.17,13.22,24.23-7.42,11.74-23.09,8.9-33.8,4.21-2.82-1.22-6.53,2.36-3.64,4.72,3.23,2.63,3.47,7,1.34,10.51s-6.32,5.27-10.17,6.24a35.7,35.7,0,0,1-11.6,1.11c-4.73-.46-11.26-4.59-7.27-9.87,1.78-2.34-1.76-5.88-4.1-4.1a17.18,17.18,0,0,1-14.22,3.23,17.48,17.48,0,0,1-6.17-2.57,15.07,15.07,0,0,1-3.13-2.78c-1.75-2.14-1.32-5.55-3.45-7s-4.92-2.05-7.15-3.75a25.59,25.59,0,0,1-6-6.49,23.74,23.74,0,0,1-3.08-7.12c-.52-2.13-1.67-12.49,3.44-10.09l2.31-5.48c-6.88-1.81-13.68-6.31-14.27-14-.57-7.47,6.81-13.84,13.63-9.08l2.31-5.48c-8.14-3.27-21-11.43-11-20.69,6.84-6.33,17.53-6.15,25.27-1.75l3-5.18c-8-3.72-8.64-14.16-1.63-19.28,7.76-5.67,17.53-1.61,22.32,5.81,1.76,2.73,6.63,1.06,5.48-2.31-2-5.83-5-14.09-.31-19.47,5.16-5.85,13.23-.23,17.22,4.1a35.2,35.2,0,0,1,7.74,32.62c-1,3.74,4.8,5.33,5.79,1.6Z"/><path d="M846.81,417.45a10,10,0,0,0-2.84-3.3,1.51,1.51,0,0,0-2.05.54,1.53,1.53,0,0,0,.54,2.05,6.67,6.67,0,0,1,1.76,2.22,1.5,1.5,0,1,0,2.59-1.51Z"/><path d="M844.73,420.59l-6.43-5.51c-1.46-1.25-3.59.86-2.12,2.12l6.43,5.51c1.46,1.25,3.59-.86,2.12-2.12Z"/><path d="M840.69,421.76h-4.37a1.5,1.5,0,0,0,0,3h4.37a1.5,1.5,0,0,0,0-3Z"/><path d="M882.31,485.26a10.11,10.11,0,0,0-.08-4.38c-.45-1.88-3.34-1.09-2.89.79a6.57,6.57,0,0,1,.08,2.79,1.54,1.54,0,0,0,1,1.85,1.52,1.52,0,0,0,1.85-1.05Z"/><path d="M878.72,486l-1.59-8.32c-.36-1.89-3.25-1.09-2.89.8l1.59,8.32c.36,1.89,3.25,1.09,2.89-.8Z"/><path d="M875,484.75,871.59,482a1.57,1.57,0,0,0-2.13,0,1.53,1.53,0,0,0,0,2.13l3.42,2.72a1.55,1.55,0,0,0,2.12,0,1.51,1.51,0,0,0,0-2.12Z"/><path d="M871.59,488.07l-3.42-2.72a1.55,1.55,0,0,0-2.12,0,1.51,1.51,0,0,0,0,2.12l3.41,2.72a1.55,1.55,0,0,0,2.13,0,1.52,1.52,0,0,0,0-2.12Z"/><path d="M900.25,474.24a10.11,10.11,0,0,0-.07-4.38c-.45-1.88-3.35-1.09-2.9.79a6.57,6.57,0,0,1,.08,2.79,1.54,1.54,0,0,0,1,1.85,1.51,1.51,0,0,0,1.84-1.05Z"/><path d="M896.67,475l-1.6-8.32c-.36-1.89-3.25-1.09-2.89.8l1.59,8.32c.37,1.89,3.26,1.09,2.9-.8Z"/><path d="M892.94,473.73,889.53,471a1.56,1.56,0,0,0-2.12,0,1.52,1.52,0,0,0,0,2.13l3.41,2.72a1.55,1.55,0,0,0,2.12,0,1.5,1.5,0,0,0,0-2.12Z"/><path d="M889.53,477.05l-3.41-2.72a1.55,1.55,0,0,0-2.12,0,1.5,1.5,0,0,0,0,2.12l3.41,2.72a1.54,1.54,0,0,0,2.12,0,1.51,1.51,0,0,0,0-2.12Z"/><path d="M849.82,480.22a10.14,10.14,0,0,0,2.37-3.65,1.52,1.52,0,0,0-1.05-1.85,1.54,1.54,0,0,0-1.85,1,6.45,6.45,0,0,1-1.59,2.33c-1.39,1.35.73,3.47,2.12,2.12Z"/><path d="M846.22,479.15l2.3-5.17a1.55,1.55,0,0,0-.54-2.05,1.5,1.5,0,0,0-2.05.54l-2.3,5.16a1.55,1.55,0,0,0,.54,2.05,1.51,1.51,0,0,0,2.05-.53Z"/><path d="M844,475.59l-1.25-4.18c-.56-1.85-3.45-1.06-2.9.79l1.26,4.19c.55,1.84,3.44,1.06,2.89-.8Z"/><path d="M839.28,476.37,838,472.19c-.56-1.84-3.45-1.06-2.9.8l1.25,4.18c.56,1.85,3.45,1.06,2.9-.8Z"/><path d="M853.33,478.18,849.2,480a1.5,1.5,0,0,0-.54,2.05,1.54,1.54,0,0,0,2.05.54l4.14-1.84a1.5,1.5,0,0,0,.53-2,1.53,1.53,0,0,0-2-.54Z"/><path d="M858.67,457.8a8.71,8.71,0,0,0-.06-3.7,1.5,1.5,0,1,0-2.89.8,5.12,5.12,0,0,1,.06,2.1,1.52,1.52,0,0,0,1.05,1.84,1.5,1.5,0,0,0,1.84-1Z"/><path d="M855.77,458.25l-1.28-6.72c-.36-1.9-3.26-1.09-2.89.79l1.28,6.73c.36,1.89,3.26,1.09,2.89-.8Z"/><path d="M852.69,457.1l-2.75-2.2a1.56,1.56,0,0,0-2.13,0,1.52,1.52,0,0,0,0,2.12l2.76,2.2a1.54,1.54,0,0,0,2.12,0,1.5,1.5,0,0,0,0-2.12Z"/><path d="M849.94,459.79l-2.76-2.2a1.54,1.54,0,0,0-2.12,0,1.5,1.5,0,0,0,0,2.12l2.75,2.2a1.56,1.56,0,0,0,2.13,0,1.52,1.52,0,0,0,0-2.12Z"/><path d="M839.63,448.31a7.74,7.74,0,0,0,1.34-3,1.54,1.54,0,0,0-1.05-1.85,1.53,1.53,0,0,0-1.85,1.05,5.45,5.45,0,0,1-1,2.29,1.51,1.51,0,0,0,.54,2.05,1.52,1.52,0,0,0,2-.54Z"/><path d="M836.63,447.84l1.71-6.62a1.5,1.5,0,0,0-2.89-.8l-1.71,6.63a1.5,1.5,0,0,0,2.89.79Z"/><path d="M834.25,445.09l-1.55-3.16a1.5,1.5,0,0,0-2.59,1.51l1.55,3.17a1.5,1.5,0,0,0,2.59-1.52Z"/><path d="M830.61,446.34l-1.55-3.17a1.5,1.5,0,0,0-2.59,1.52l1.55,3.16a1.51,1.51,0,0,0,2.05.54,1.53,1.53,0,0,0,.54-2.05Z"/><path d="M891.44,413.77a8.45,8.45,0,0,0-1.1-3.59,1.5,1.5,0,0,0-2.59,1.51,5,5,0,0,1,.69,2.08,1.54,1.54,0,0,0,1.5,1.5,1.5,1.5,0,0,0,1.5-1.5Z"/><path d="M888.74,415.08l-3.2-6.25c-.88-1.72-3.46-.2-2.59,1.51l3.2,6.26c.88,1.72,3.47.2,2.59-1.52Z"/><path d="M885.05,414.69l-3.35-1.38a1.51,1.51,0,0,0-1.84,1.05,1.54,1.54,0,0,0,1,1.85l3.35,1.37a1.51,1.51,0,0,0,1.85-1.05,1.53,1.53,0,0,0-1.05-1.84Z"/><path d="M883.11,418.13l-3.35-1.38a1.53,1.53,0,0,0-1.85,1.05,1.55,1.55,0,0,0,1.05,1.85l3.35,1.37a1.5,1.5,0,0,0,1.84-1,1.53,1.53,0,0,0-1-1.84Z"/><path d="M878.6,442.87a8.72,8.72,0,0,0,1.21-3.56,1.51,1.51,0,0,0-1.5-1.5,1.53,1.53,0,0,0-1.5,1.5,5.56,5.56,0,0,1-.8,2,1.5,1.5,0,0,0,2.59,1.52Z"/><path d="M875.52,442.65l1.22-6.92c.33-1.89-2.56-2.7-2.89-.8l-1.22,6.92c-.34,1.89,2.55,2.7,2.89.8Z"/><path d="M873,440l-1.84-3.12a1.5,1.5,0,0,0-2.59,1.52l1.84,3.11A1.5,1.5,0,0,0,873,440Z"/><path d="M869.33,441.61l-1.84-3.12A1.5,1.5,0,0,0,864.9,440l1.84,3.11a1.5,1.5,0,0,0,2.59-1.51Z"/><path d="M866.06,398.81a7,7,0,0,0,0-3,1.5,1.5,0,1,0-2.9.8,3.63,3.63,0,0,1,0,1.43,1.53,1.53,0,0,0,1.05,1.84,1.51,1.51,0,0,0,1.84-1.05Z"/><path d="M863.84,399l-1-5.17c-.37-1.9-3.26-1.09-2.9.8l1,5.17c.37,1.89,3.26,1.09,2.9-.8Z"/><path d="M861.38,397.94l-2.12-1.69a1.56,1.56,0,0,0-2.13,0,1.52,1.52,0,0,0,0,2.12l2.12,1.69a1.55,1.55,0,0,0,2.13,0,1.52,1.52,0,0,0,0-2.12Z"/><path d="M859.26,400l-2.13-1.69a1.54,1.54,0,0,0-2.12,0,1.52,1.52,0,0,0,0,2.12l2.12,1.69a1.56,1.56,0,0,0,2.13,0,1.52,1.52,0,0,0,0-2.12Z"/><path d="M888.72,385.42a7,7,0,0,0,0-3,1.5,1.5,0,0,0-2.9.8,3.46,3.46,0,0,1,.05,1.43,1.55,1.55,0,0,0,1,1.85,1.51,1.51,0,0,0,1.84-1.05Z"/><path d="M886.5,385.59l-1-5.17c-.36-1.9-3.26-1.1-2.9.79l1,5.17c.37,1.9,3.26,1.1,2.9-.79Z"/><path d="M884,384.55l-2.12-1.69a1.54,1.54,0,0,0-2.12,0,1.5,1.5,0,0,0,0,2.12l2.12,1.69a1.55,1.55,0,0,0,2.12,0,1.52,1.52,0,0,0,0-2.12Z"/><path d="M881.92,386.62l-2.12-1.7a1.57,1.57,0,0,0-2.13,0,1.53,1.53,0,0,0,0,2.13l2.13,1.69a1.56,1.56,0,0,0,2.12,0,1.52,1.52,0,0,0,0-2.12Z"/><path d="M925.57,451.85a8.45,8.45,0,0,0-1.1-3.59,1.5,1.5,0,0,0-2.59,1.51,5,5,0,0,1,.69,2.08,1.54,1.54,0,0,0,1.5,1.5,1.5,1.5,0,0,0,1.5-1.5Z"/><path d="M922.87,453.16l-3.2-6.25c-.88-1.72-3.47-.21-2.59,1.51l3.2,6.26c.88,1.71,3.47.2,2.59-1.52Z"/><path d="M919.18,452.77l-3.35-1.38a1.51,1.51,0,0,0-1.84,1.05,1.54,1.54,0,0,0,1,1.85l3.35,1.37a1.51,1.51,0,0,0,1.85-1.05,1.54,1.54,0,0,0-1.05-1.84Z"/><path d="M917.24,456.21l-3.35-1.38a1.53,1.53,0,0,0-1.85,1.05,1.55,1.55,0,0,0,1.05,1.85l3.35,1.37a1.5,1.5,0,0,0,1.84-1.05,1.52,1.52,0,0,0-1-1.84Z"/><path d="M883.63,460.39a8.65,8.65,0,0,0,1.2-3.56,1.51,1.51,0,0,0-1.5-1.5,1.54,1.54,0,0,0-1.5,1.5,5.35,5.35,0,0,1-.79,2.05,1.5,1.5,0,1,0,2.59,1.51Z"/><path d="M880.54,460.18l1.23-6.92c.33-1.89-2.56-2.7-2.9-.8l-1.22,6.92c-.33,1.89,2.56,2.7,2.89.8Z"/><path d="M878,457.57l-1.84-3.12a1.5,1.5,0,0,0-2.59,1.52l1.84,3.11a1.5,1.5,0,0,0,2.59-1.51Z"/><path d="M874.36,459.14,872.52,456a1.5,1.5,0,0,0-2.59,1.52l1.84,3.11a1.5,1.5,0,0,0,2.59-1.51Z"/><path d="M900.19,436.89a6.84,6.84,0,0,0-.05-3,1.5,1.5,0,0,0-2.89.79,3.69,3.69,0,0,1,0,1.44,1.52,1.52,0,0,0,1.05,1.84,1.51,1.51,0,0,0,1.84-1.05Z"/><path d="M898,437.06l-1-5.17c-.37-1.9-3.26-1.09-2.9.8l1,5.17c.36,1.89,3.26,1.09,2.9-.8Z"/><path d="M895.51,436l-2.13-1.69a1.55,1.55,0,0,0-2.12,0,1.52,1.52,0,0,0,0,2.12l2.12,1.69a1.55,1.55,0,0,0,2.13,0,1.52,1.52,0,0,0,0-2.12Z"/><path d="M893.38,438.09l-2.12-1.69a1.54,1.54,0,0,0-2.12,0,1.52,1.52,0,0,0,0,2.12l2.12,1.69a1.55,1.55,0,0,0,2.12,0,1.5,1.5,0,0,0,0-2.12Z"/><path d="M922.85,423.5a7,7,0,0,0,0-3,1.5,1.5,0,0,0-2.9.8,3.64,3.64,0,0,1,.05,1.43,1.54,1.54,0,0,0,1,1.85,1.51,1.51,0,0,0,1.84-1.05Z"/><path d="M920.63,423.67l-1-5.18c-.37-1.89-3.26-1.09-2.9.8l1,5.17c.37,1.9,3.26,1.09,2.9-.79Z"/><path d="M918.17,422.63l-2.12-1.69a1.55,1.55,0,0,0-2.13,0,1.52,1.52,0,0,0,0,2.12l2.13,1.69a1.55,1.55,0,0,0,2.12,0,1.52,1.52,0,0,0,0-2.12Z"/><path d="M916.05,424.69,913.93,423a1.57,1.57,0,0,0-2.13,0,1.52,1.52,0,0,0,0,2.12l2.12,1.7a1.57,1.57,0,0,0,2.13,0,1.53,1.53,0,0,0,0-2.13Z"/><path class="b" d="M754.75,22c-15.34,4.44-30.17,11.44-42.39,22s-21.69,24.87-25.11,40.94c-5.89,27.65,7.1,57,27.4,76,9.53,8.93,20.88,16.18,33.47,18.93,18.47,4,38.07-2.06,53.57-13.18,27.21-19.53,42.88-55,39.33-89C839,58.5,830.6,39.18,815,28.6c-14.7-10-40.74-10.57-60.26-6.65"/><path d="M754,19.06c-33.42,9.88-65.69,33.62-70.51,70.45-4.44,33.89,16.42,68.86,45.28,85.75,32,18.69,70.12,4.29,92.28-22.71,20.45-24.92,29.2-60.22,19.77-91.42-5-16.47-15.52-32.38-31.9-39.14-17-7-37.16-6.38-54.92-2.93-3.79.73-2.18,6.52,1.6,5.78,14.66-2.84,30.6-3.39,45.1.65s24.69,14.62,30.86,28c12.63,27.34,7.51,60.87-8.25,85.79-16.61,26.26-49.77,46.94-81.29,35.65-29.07-10.41-51.59-42.45-53.07-73-1.91-39.75,31.73-66.72,66.65-77,3.69-1.09,2.12-6.88-1.6-5.78Z"/><path class="b" d="M681.83,168.6a24.13,24.13,0,0,0-3.53,5.15,8.28,8.28,0,0,0-.49,6.13c.79,2.14,2.68,3.61,4.61,4.73,2.3,1.32,5,2.32,7.54,1.58,2.95-.86,4.86-3.83,5.87-6.81a13.34,13.34,0,0,0,.28-8.79c-1-2.79-3.76-5-6.64-4.77-2.61.23-4.77,2.33-7.36,2.65"/><path d="M679.71,166.48c-4.19,5.13-7.92,12.09-2.52,17.86,4.44,4.75,12.65,7.27,17.78,2.22,4.45-4.37,6.41-12.9,3.27-18.5a10.08,10.08,0,0,0-7.3-5.17c-3.62-.45-6.27,2-9.63,2.69-3.77.82-2.17,6.6,1.6,5.79,2.9-.63,6.63-4,9.28-1.46s1.59,7.36.12,10.15c-2.14,4.07-6,3.83-9.33,1.37-4.42-3.24-1.79-7.33,1-10.7,2.42-3-1.8-7.24-4.24-4.25Z"/><path class="b" d="M728.43,122.57c4.8,5.27,10.07,10.81,17,12.3,1.92.41,3.94.51,5.73,1.32,5.25,2.4,6,9.37,6.47,15.13a3.22,3.22,0,0,0,.75,2.19c.81.75,2.09.51,3.15.23l14-3.78a3.65,3.65,0,0,0,2.11-1.13,3.75,3.75,0,0,0,.49-1.93,68.93,68.93,0,0,1,7.17-26c3.82-7.55,9.2-15.07,8.58-23.51Z"/><path d="M727.37,123.63c3.51,3.83,7.17,7.81,11.75,10.37,4.74,2.64,12.06,1.82,14.87,7,1.48,2.73,1.72,6,2.06,9.06.16,1.42.09,3,1.07,4.2,2.45,2.91,8.25,0,10.94-.74,3.48-.94,9.4-1.15,11.19-4.76,1.18-2.37.75-6.05,1.21-8.64a66.32,66.32,0,0,1,2.46-9.63c3.7-11.09,12.81-20.92,12.44-33.09a1.51,1.51,0,0,0-1.9-1.45L728,121.13c-1.78.68-1,3.58.8,2.89l65.43-25.17-1.9-1.44c.32,10.62-7.36,19.41-11.1,28.89A69.58,69.58,0,0,0,777,142.9c-.37,2.8,0,4.56-2.78,5.85-2.53,1.19-6,1.63-8.72,2.36-3.43.93-5.28,1.91-6.6-2.32-.47-1.52-.38-3.3-.76-4.86-.71-2.91-1.88-5.78-4.23-7.74-3.37-2.82-8.11-2.27-12-4.09-5-2.35-8.82-6.6-12.48-10.59C728.19,120.08,726.07,122.21,727.37,123.63Z"/><path class="b" d="M756.23,84.69c-12.71,6.2-19.86,17.34-26.41,29.87-1.58,3-2.87,6.87-.88,9.63a7.51,7.51,0,0,0,3.76,2.5c5.26,1.8,11,.56,16.41-.75,8.53-2.07,17.11-4.32,24.93-8.3s27.46-18.18,16.75-23.36C779.92,89,768.3,85,756.23,84.69"/><path d="M755.48,83.39c-12,6.12-19.63,16.74-25.86,28.34-2.11,3.92-5,9.37-1.74,13.52,3.68,4.73,11.52,4.14,16.7,3.22,12.8-2.29,26.2-6.18,37-13.67,4.8-3.33,15.62-10.55,13.68-17.77-1.27-4.73-8.44-6.32-12.33-7.87a80.13,80.13,0,0,0-26.67-6c-1.93-.08-1.92,2.92,0,3a74.55,74.55,0,0,1,22.48,4.57c3.94,1.42,15.78,3.95,13.07,10-3.39,7.54-13.66,13.43-20.87,16.73-6.8,3.12-14.09,5-21.35,6.8-3.65.9-7.4,1.86-11.19,1.79-4.19-.07-4.94-.25-7-3.88s-1.74-3.9.12-7.57c5.9-11.69,13.6-22.56,25.51-28.64,1.72-.87.2-3.46-1.51-2.59Z"/><path class="b" d="M755,85.42c.83-12.28,1.79-25,8.65-35.92a22.44,22.44,0,0,1,7.86-8,23.13,23.13,0,0,1,12.21-2.62c14.43.67,25.13,12.76,25.65,24.58s-6.77,23-15.56,32.35a5,5,0,0,1-1.52,1.25c-1.5.72-3.4.19-5-.33-10.85-3.4-20.65-10.92-32.26-11.31"/><path d="M756.53,85.42c.93-13.7,2-33.92,15.05-42.18,12.5-7.89,29.72.53,34.8,13.35,2.38,6,1.74,12.55-.45,18.51-2.33,6.34-6.81,14.05-12,18.42-5.87,4.93-15-1.85-21-4.53-5.77-2.6-11.56-4.67-17.92-5.07-1.93-.12-1.92,2.88,0,3,8.08.51,15.16,4.13,22.4,7.45,4.09,1.87,10.65,6,15.29,4.13C797,96.78,801,90,803.5,86.18c3.55-5.34,6.34-11.33,7.17-17.73,2.81-21.82-25.56-41.78-43.54-25.56C755.7,53.2,754.5,71.14,753.53,85.42c-.14,1.93,2.87,1.92,3,0Z"/><path d="M756.36,93.78A30.09,30.09,0,0,0,745.91,103c-2.26,3.14-6.49,8.45-5.88,12.65,1.44,9.79,21.05,1.88,25.69-.16,4.42-1.94,13.28-6.75,13.68-12.38.21-3.07-2.51-4.12-4.92-5.18a49,49,0,0,0-17.36-4.36c-1.93-.1-1.92,2.9,0,3,3.51.18,20.68,2.48,18.54,7.89-1.41,3.58-7.63,6.69-10.94,8.18A61.29,61.29,0,0,1,754.56,116c-1.69.43-5.43,1.89-6.85,1.29l-3.88-4.94c.35-.69.72-1.37,1.1-2,3.19-5.78,7-10.77,13-13.91,1.71-.9.19-3.49-1.52-2.59Z"/><path class="i" d="M743.09,112.62c4.17-5.31,11.18-7.66,17.91-8a15,15,0,0,1,5.43.47,6.76,6.76,0,0,1,4.16,3.33,1.8,1.8,0,0,1,.16,1.54,2.19,2.19,0,0,1-.86.82,45.17,45.17,0,0,1-24.21,6.92,5.1,5.1,0,0,1-2.48-.47,2.77,2.77,0,0,1-.12-4.5"/><path d="M744.15,113.68a20.52,20.52,0,0,1,10.07-6.45,30.36,30.36,0,0,1,5.34-1c3-.31,6-.93,7.3,2.22q2.05,2.19-.67,2.73a40.32,40.32,0,0,1-4.28,2,43.62,43.62,0,0,1-4.85,1.59,42.13,42.13,0,0,1-6.28,1.19c-.21,0-9.27.63-6.64-2.14,1.33-1.4-.79-3.53-2.12-2.12a4.4,4.4,0,0,0-.95,5.42c1.42,2.5,4.71,2.17,7.16,2a46.73,46.73,0,0,0,12.88-2.49c3-1,8.92-2.76,10.7-5.62,3.07-4.92-5.7-7.87-9-8-7.71-.19-15.74,2.61-20.81,8.53-1.25,1.46.86,3.59,2.12,2.12Z"/><path d="M761.34,82.69c2.29-11.13,9.17-39.15,26.12-32,1.76.74,3.29-1.84,1.52-2.59-19.55-8.25-27.76,20.32-30.54,33.78-.38,1.89,2.51,2.69,2.9.8Z"/><path d="M738.3,132.66c10.53,1,20.56-1.79,30.11-6,5-2.22,9.82-4.77,14.57-7.42,3.8-2.13,7.25-4.35,9.29-8.32.88-1.72-1.71-3.24-2.59-1.52-2.33,4.55-7.08,6.66-11.38,9-3.74,2-7.52,4-11.4,5.7-9.08,4-18.6,6.59-28.6,5.64-1.92-.18-1.91,2.82,0,3Z"/><path d="M796.9,98.58c0-.39,0-.78,0-1.17-.05-1.78-1.9-3.62-3.8-2.9l-.08,0,3.38,1.38-.47-1.08-.47,3.63c8.72-8.78,16.87-20.66,17-33.48.11-11-7-21.33-16.83-26.09-11-5.33-24.73-3.76-32.49,6.18C754.25,56.44,753,71.49,752,85.32l1.49-2.59c-12.35,6.8-21.91,19.44-27.25,32.37-1.11,2.71-1.85,5.76-.89,8.64s3.43,4.14,5.74,6c3.22,2.55,5.93,5.18,9.79,6.82,3,1.28,7.18.95,9.82,2.83,5.55,3.95,1.1,13.16,6.17,16.75,2.2,1.55,4.86.65,7.2,0,4-1,8.24-2,12.21-3.31,2.65-.87,4.1-2.18,4.68-4.94.89-4.19,1-8.49,2.08-12.68,2.22-8.47,6.53-15.88,10.49-23.61,1.07-2.08-.76-5.44-3.39-4.4h0l3.38,4.41a34.63,34.63,0,0,0,3.37-13.06c.14-3.87-5.87-3.86-6,0a26.54,26.54,0,0,1-2.55,10c-.92,2.07.67,5.48,3.39,4.4h0l-3.39-4.4c-4.2,8.19-8.74,16.05-11.1,25a71.1,71.1,0,0,0-1.46,7.08c-.18,1.19,0,5.5-.71,6.19-.83.84-13.64,4.5-14.34,3.94-1.13-.9-1.14-7.55-1.66-9.14a13.75,13.75,0,0,0-4.89-7.16c-3.5-2.47-7.93-2-11.72-3.84-3.47-1.65-9.41-5.8-10.76-9.29-1.54-4,2.76-9.38,4.81-12.82a69.71,69.71,0,0,1,7.8-11,43.79,43.79,0,0,1,10.18-8.57c4-2.39,3.5-4.18,3.87-8.76.81-10.1,2.33-20.56,7.87-29.28,5.91-9.3,17.27-11.53,26.92-6.62,8,4,13.59,12.32,13.21,21.37-.47,10.9-7.8,21-15.22,28.48a3.1,3.1,0,0,0-.47,3.63l.47,1.09a3,3,0,0,0,3.39,1.37l.09,0-3.8-2.89c0,.39,0,.78,0,1.17C791,102.43,797,102.44,796.9,98.58Z"/><path class="b" d="M180.83,214.92c.82,63,12,155.94,12.84,218.91a42.87,42.87,0,0,1,18.5-7.28c-6.29-58.87-13.11-147.46-12.88-206.67,0-2.11-.15-4.57-1.88-5.77-1.29-.89-3-.75-4.56-.57l-12,1.38"/><path d="M177.83,214.92c.82,58,7.56,115.79,11,173.66.9,15.07,1.61,30.16,1.82,45.25,0,2.16,2.57,3.9,4.52,2.59a43.77,43.77,0,0,1,17.78-7,3,3,0,0,0,2.2-2.9c-6.67-62.61-11.71-125.68-12.75-188.66-.06-3.76-.11-7.51-.12-11.26,0-3.46.52-7.4-.43-10.76-2.47-8.74-14.6-4.69-21-4-3.79.44-3.83,6.44,0,6s8.3-1.69,12-1.38c2.31.19,3,1,3.44,3.34a31.18,31.18,0,0,1,0,5.38q0,10,.27,19.93c.34,14.56.94,29.11,1.68,43.66,1.56,30.45,3.78,60.87,6.44,91.25q2,23.25,4.49,46.45l2.21-2.89a47.81,47.81,0,0,0-19.22,7.58l4.51,2.59c-.81-58-7.55-115.79-11-173.66-.9-15.07-1.61-30.15-1.83-45.25-.05-3.86-6.05-3.87-6,0Z"/><path class="b" d="M91,249.29l3.31,103a4.59,4.59,0,0,0,.16,1.17c1.32,4.21,4.86,3.69,7.86,3.11l188.72-36.46a4.76,4.76,0,0,0,2.5-1,3.39,3.39,0,0,0,.68-2.84c-1.67-23.72-6.16-69.22-7.83-92.93a7,7,0,0,0-.4-2c-1.53-4-6-3.43-9.55-2.66C215.85,231.56,151.64,236.35,91,249.29"/><path d="M88,249.29l2.09,64.8L91.2,348c.08,2.65-.17,5.83,1.22,8.18,1.92,3.24,5.17,4,8.68,3.58,7.19-.79,14.4-2.71,21.51-4.08l87.55-16.92,44.74-8.64L276.3,326,286,324.1c2.84-.55,6.64-.57,9.06-2.42,3.05-2.33,2.1-6.44,1.84-9.76-.38-5.05-.8-10.1-1.23-15.14-.95-11.25-2-22.5-3-33.76-.9-10.21-1.81-20.42-2.63-30.64-.63-8-.15-18.28-11.16-17.2-7.26.71-14.57,2.9-21.74,4.24q-11.17,2.09-22.39,3.91c-16.31,2.66-32.67,5-49,7.33-32,4.54-64,9-95.56,15.73-3.77.81-2.17,6.59,1.6,5.79,52.12-11.05,105.24-16,157.67-25.29q9.3-1.63,18.57-3.48c3.07-.61,6.13-1.34,9.21-1.9,3.65-.66,6-.45,6.3,3.92.65,8.85,1.41,17.69,2.19,26.53,1.71,19.6,3.58,39.19,5.09,58.81.09,1.21.9,4.31.4,5.48-.81,1.9-6.79,2.06-8.76,2.44l-21.4,4.14-40.86,7.89-81.71,15.79-19.45,3.76-9.73,1.88c-2.74.53-6.71,2.21-9.43,1.73-3.37-.59-2.63-3.17-2.71-5.88l-1-31L94,249.29c-.12-3.85-6.12-3.87-6,0Z"/><path d="M117.13,270.23l3.15,25.51-3.89.48-2.58-20.83a13.88,13.88,0,0,1-5.46,3.94l-.48-3.86a14.59,14.59,0,0,0,6.33-4.88Z"/><path d="M138.58,270.91q2.68,3.25,3.42,9.19c.48,3.93.13,7.2-1.08,9.75A8.37,8.37,0,0,1,127,291.57c-1.79-2.17-2.93-5.22-3.42-9.19s-.14-7.24,1.07-9.74a8.37,8.37,0,0,1,13.94-1.73Zm-11,4.38a17.84,17.84,0,0,0-.13,6.61,18.08,18.08,0,0,0,1.74,6.39c1.14,2.18,2.75,3.18,4.85,2.92s3.43-1.62,4-4a23.49,23.49,0,0,0-1.61-13c-1.15-2.21-2.79-3.17-4.86-2.92S128.12,272.86,127.55,275.29Z"/><path d="M147.19,271.87l1.46,11.78,5.49-6.69,3.81-.47-5.64,6.71,8,7.59-3.78.46-6-5.91-1.45,1.73.62,5-2.94.36-2.51-20.23Z"/><path d="M171.84,276.83a6,6,0,0,1,1.82-2.14,5.06,5.06,0,0,1,2.38-.84,4.91,4.91,0,0,1,3.85,1,5.35,5.35,0,0,1,1.93,3.69L183,288l-2.94.36-1.11-8.92a3.65,3.65,0,0,0-1.06-2.46,3.21,3.21,0,0,0-2.55-.51,2.66,2.66,0,0,0-1.94,1.18,3.67,3.67,0,0,0-.52,2.63l1.09,8.83-2.94.37-1.11-8.89c-.28-2.28-1.41-3.27-3.36-3a2.75,2.75,0,0,0-2.14,1.37,3.74,3.74,0,0,0-.58,2.66l1.07,8.65-2.94.36-1.78-14.37,2.94-.36.2,1.58A5.22,5.22,0,0,1,167,275,4.81,4.81,0,0,1,171.84,276.83Z"/><path d="M126.64,315,125,325.81c9.06-2.81,43.28-9.92,52.9-9.77q.06-4.37-.12-8.73c0-1-.22-2.13-1.16-2.57a3,3,0,0,0-1.47-.16c-9.37.52-43.25,8-52.08,10.76"/><path d="M125.19,314.6l-1.62,10.81c-.16,1.07.64,2.21,1.85,1.85A260.36,260.36,0,0,1,151,321.38c8.75-1.7,17.92-3.85,26.88-3.84a1.52,1.52,0,0,0,1.5-1.5c.05-5.29,1.83-13.24-5.41-12.87-5.31.27-10.7,1.55-15.9,2.55-11.84,2.28-23.89,4.59-35.42,8.17-1.84.57-1.06,3.47.79,2.89,9.43-2.92,19.23-4.87,28.88-6.86,5.19-1.07,10.39-2.1,15.62-2.94,1.85-.29,4.15-1,6-.81,3.78.41,2.44,6.78,2.41,9.87l1.5-1.5c-8.81,0-17.84,2.06-26.44,3.71a264.28,264.28,0,0,0-26.86,6.12l1.84,1.84,1.62-10.81c.28-1.89-2.61-2.71-2.89-.8Z"/><path d="M130.62,301.29q2.19,16.13,3.66,32.34l-18.22-9.55c-.58-.3-1.22-.68-1.36-1.32a2.32,2.32,0,0,1,.72-1.82L130.53,302"/><path d="M129.18,301.69q2.13,15.93,3.6,31.94l2.25-1.29-9.93-5.21-5-2.61c-2.29-1.2-4.06-1.06-2.49-4,1.66-3.09,4.79-6,7-8.74l7-8.74c1.19-1.49-.92-3.63-2.12-2.12l-9.88,12.38c-1.68,2.11-6.5,6.13-6.36,9.23.11,2.59,3.49,3.56,5.39,4.55l14.9,7.82c.92.48,2.37-.1,2.26-1.3q-1.51-16.41-3.71-32.74c-.26-1.9-3.15-1.09-2.89.8Z"/><path d="M214.55,259.94c-2.47,1.84-5.07,4.36-4.78,7.42a6.28,6.28,0,0,0,2.6,4.25c3.55,2.69,9.29,2,11.86-1.67s1.18-9.49-2.86-11.37-9.56,1.08-10,5.51"/><path d="M213.79,258.65c-2.47,1.9-5.09,4.2-5.47,7.49a7.48,7.48,0,0,0,3.3,6.77c4.44,3.21,11.49,2.06,14.28-2.81,2.55-4.44.64-10.93-4.13-13a8.9,8.9,0,0,0-11.88,6.55c-.31,1.89,2.58,2.7,2.9.79a5.93,5.93,0,0,1,7.2-4.8c3.28.9,4.73,5,3.72,8-1.1,3.31-5.15,4.7-8.31,3.79-2.26-.66-4.56-2.73-4.07-5.32.39-2.06,2.4-3.69,4-4.9s0-3.77-1.51-2.59Z"/><path d="M214.71,280.34A108,108,0,0,0,205.58,310l19.29-2.46c1.5-.2,3.24-.56,3.87-1.94a4.52,4.52,0,0,0-.3-3.31q-3.44-9.54-6.85-19.09a8,8,0,0,0-2.31-3.87c-1.21-.92-3.28-.88-4,.46"/><path d="M213.41,279.58a115.81,115.81,0,0,0-9.28,30c-.14.83.38,2,1.45,1.9,6.72-.86,14.33-.85,20.84-2.71,5.07-1.44,4-5.31,2.53-9.5-2.17-6.05-3.69-13.43-7-19-1.76-2.95-5.09-4.3-7.73-1.6-1.35,1.38.77,3.51,2.12,2.12,2.35-2.4,6.52,10.35,6.9,11.43,1.06,2.93,3,6.48,3.43,9.54.74,5.54-5.59,4.7-9.53,5.2l-11.57,1.48,1.44,1.89a113.21,113.21,0,0,1,9-29.26c.81-1.74-1.78-3.27-2.59-1.52Z"/><path d="M248,251.64c-2.29,2.06-4.64,4.8-4.07,7.83a6.28,6.28,0,0,0,3,4c3.78,2.35,9.42,1.1,11.65-2.76s.3-9.55-3.89-11-9.42,1.95-9.48,6.4"/><path d="M246.93,250.58c-2.37,2.2-4.8,5-4.55,8.44a7.75,7.75,0,0,0,4.75,6.24c4.74,2.2,11.12.15,13.19-4.78,1.9-4.56-.45-10.67-5.26-12.27-5.37-1.79-11,2.42-11.38,7.84-.15,1.93,2.85,1.92,3,0a5.89,5.89,0,0,1,7.58-5c3,1.11,4.4,5,3.41,7.93-1.11,3.28-5.2,4.76-8.35,3.86-1.93-.54-3.92-2.15-4-4.32-.06-2.38,2.13-4.39,3.72-5.87,1.42-1.31-.71-3.43-2.12-2.12Z"/><path d="M261.93,299.66a108.13,108.13,0,0,0,5.54-30.5L248.6,273.9c-1.46.37-3.15.94-3.6,2.38a4.47,4.47,0,0,0,.69,3.25q4.53,9.08,9.07,18.14a8.11,8.11,0,0,0,2.75,3.57c1.32.77,3.36.48,3.91-.94"/><path d="M263.38,300.06a116.09,116.09,0,0,0,5.59-30.9,1.52,1.52,0,0,0-1.9-1.45c-6.49,1.63-14.26,2.45-20.34,5.22-4.83,2.19-3,5.93-1.1,9.83l5,9.9c1.34,2.68,2.55,6.27,4.61,8.53,2.29,2.51,5.47,2.55,7.53-.13,1.17-1.53-1.43-3-2.59-1.52-2,2.62-6.88-8.24-7.37-9.22-1.58-3.16-3.95-6.52-4.95-9.9l-.63-4.44a21.7,21.7,0,0,1,3.71-1.11c1.87-.51,3.77-.95,5.66-1.42l11.31-2.85L266,269.16a113.34,113.34,0,0,1-5.48,30.1c-.6,1.84,2.29,2.63,2.89.8Z"/><path d="M233,255q4.32,25.77,7.4,51.72c.22,1.9,3.22,1.92,3,0q-3.12-26.34-7.51-52.51c-.32-1.9-3.21-1.1-2.89.79Z"/><path d="M186.52,215.66,186.3,232a1.5,1.5,0,0,0,3,0l.22-16.33a1.5,1.5,0,0,0-3,0Z"/><path d="M190.29,340.68c3.75,29.23,7.49,58.63,9.42,88,.13,1.91,3.13,1.93,3,0-1.93-29.41-5.67-58.81-9.42-88-.24-1.88-3.24-1.91-3,0Z"/><path d="M192.56,245.73q46.42-6.25,92.06-17.08c1.88-.44,1.09-3.33-.79-2.89q-45.6,10.81-92.07,17.08c-1.9.25-1.09,3.14.8,2.89Z"/><path d="M95.67,350.93q37.86-7,75.43-15.36c1.89-.41,1.09-3.31-.79-2.89Q132.73,341,94.87,348c-1.89.35-1.09,3.24.8,2.89Z"/><path class="j" d="M124.51,411a37.94,37.94,0,0,1,10.59-37.61c4.38-4,10.79-7,16.16-4.49,4.17,2,6.38,6.8,6.54,11.4s-1.36,9.09-2.85,13.45c3.46-5.82,9.87-10,16.63-10s13.54,4.31,15.64,10.74-1.19,14.35-7.48,16.85a25.38,25.38,0,0,1,24.88-.68c4.53,2.45,8.47,6.83,8.58,12,.1,4.21-2.4,8.15-5.67,10.81s-7.25,4.26-11.16,5.82c4.57-3.69,12-2.23,15.6,2.45s3.34,11.55.29,16.57-8.5,8.24-14.22,9.58c2.17-1.51,5.38-.45,6.94,1.68s1.81,4.94,1.61,7.57A27.67,27.67,0,0,1,186.92,501c-1.15.31-2.54.5-3.38-.34-1.17-1.17.06-3.46,1.7-3.51a3.43,3.43,0,0,1,3.17,3.19,7.47,7.47,0,0,1-1.43,4.63c-5.86,9.23-20.21,11.54-28.66,4.6,3.22,3.42,1.37,9.5-2.54,12.1s-9,2.59-13.63,2.08c-6.06-.65-12.45-2.19-16.59-6.67s-4.65-12.64.35-16.12c-8,3.64-17.19,6-25.71,3.66S84.34,494,85.5,485.24c1.12-8.48,9.13-14.17,16.8-17.95-6.83,1.17-13.91,2.34-20.62.6s-13-7.26-13.25-14.18c-.25-5.93,3.83-11.24,8.6-14.76,3.25-2.4,7.09-4.29,11.12-4.17s8.18,2.72,9.06,6.65a36,36,0,0,1-15.77-13.32c-2.37-3.64-4.06-8.39-2-12.25,1.85-3.56,6.16-5,10.13-5.55,9.11-1.22,17.3,6.13,16,2.1a7.52,7.52,0,0,1,6.07-9.33c4.21-.5,13,3.64,12.93,7.88"/><path d="M127.4,410.16a35.26,35.26,0,0,1,7.75-32.62c4-4.39,12-9.91,17.21-4.1,4.77,5.33,1.67,13.68-.31,19.47-1.13,3.33,3.71,5.07,5.49,2.31,4.79-7.42,14.55-11.48,22.31-5.81,7,5.12,6.39,15.56-1.62,19.28l3,5.18c7.73-4.4,18.42-4.58,25.27,1.75,10,9.26-2.81,17.42-11,20.68l2.31,5.49c6.8-4.74,14.21,1.58,13.63,9.08-.59,7.73-7.38,12.23-14.27,14l2.32,5.49c4.45-2.1,4.08,7.18,3.59,9.39a24.18,24.18,0,0,1-3.24,7.82,25.61,25.61,0,0,1-5.13,5.86,25.07,25.07,0,0,1-4.09,2.76c-1.18.63-2.9.86-3.89,1.62-1.89,1.46-1.8,4.88-3.44,7a13.39,13.39,0,0,1-2.44,2.26,17.41,17.41,0,0,1-6.86,3.09,17.18,17.18,0,0,1-14.22-3.23c-2.35-1.78-5.88,1.76-4.11,4.1,4,5.26-2.52,9.43-7.27,9.87a35.66,35.66,0,0,1-11.59-1.11c-3.82-1-8.05-2.7-10.18-6.24S124.78,505.68,128,503c2.87-2.34-.79-6-3.63-4.72C113.67,503,98,505.85,90.59,494.11c-7-11.06,4.31-19.72,13.22-24.23,3.24-1.64.82-6-2.31-5.48-9.26,1.57-27.93,3.74-29.92-9.75-1.4-9.55,18.64-25,22.74-12.42l4.4-3.39c-6.73-3.09-15.81-9.58-17-17.57-1.62-10.45,13.21-8.12,19-6,3.13,1.17,7.08,2.47,8-1.95.26-1.3-.57-2.46-.27-3.86a4.51,4.51,0,0,1,4.14-3.46c2.29-.17,8.71,2.18,9,4.92.44,3.79,6.45,3.84,6,0-.86-7.37-11.53-12.77-18.32-10.35a10.76,10.76,0,0,0-7,9.33c0,.49-.11,2.82.38,3.27q4.68-2.13,2.46-2.63a7.61,7.61,0,0,1-1-.35c-1.49-1.24-4.66-1.81-6.52-2.27-8.25-2-21.37.39-22,10.93-.65,11.17,11,20.95,20.17,25.13,2.19,1,5.28-.68,4.4-3.38-6-18.38-30.92-4.53-34.17,8.66-1.86,7.56,2.15,14.6,8.47,18.64,8.6,5.5,19.21,3.86,28.7,2.24l-2.32-5.48c-12,6.07-24.26,18.43-15.37,32.44,9.42,14.83,28.1,12.44,42,6.36l-3.64-4.71c-4.78,3.89-5.49,10.51-3.15,16,2.76,6.5,9.56,9.78,16.14,11.14,6.76,1.39,15.26,2.24,21.12-2.17,4.81-3.62,6.82-10.7,3-15.73l-4.1,4.1c9.1,6.91,23.2,5.56,30.79-3.06,3.23-3.67,5.9-9.87,1.29-13.58-3.6-2.91-9.59-.27-8.73,4.73,1.06,6.17,8.71,3.56,12.28,1.84a31,31,0,0,0,13.39-12.64c2.89-5.16,4.9-12,3.34-17.89s-7.15-8.89-12.64-6.3c-3.14,1.47-.9,6.32,2.31,5.48,10.81-2.83,20.5-11.79,18.46-23.86-1.72-10.19-13.58-16.4-22.45-10.22-2.57,1.79-1.06,6.84,2.32,5.48,6-2.43,12.42-5,16.21-10.68a14.64,14.64,0,0,0-.24-17.34c-7.95-10.81-23.95-11.62-34.91-5.38-3.41,1.94-.42,6.78,3,5.18,11.36-5.28,12.49-20.84,3.09-28.56-10.61-8.73-25.06-3.88-32,6.88l5.48,2.32c2.66-7.82,5.06-17-.4-24.23-5-6.67-13.61-6.35-20.23-2.27-14.31,8.81-19.73,28.13-15.59,43.75,1,3.73,6.77,2.15,5.78-1.6Z"/><path d="M183.62,424.24a6.93,6.93,0,0,1,2.06-2.45,1.5,1.5,0,0,0-1.82-2.36,9.88,9.88,0,0,0-2.83,3.3,1.5,1.5,0,1,0,2.59,1.51Z"/><path d="M185.22,428l6.44-5.51c1.46-1.26-.67-3.38-2.13-2.12l-6.43,5.51c-1.47,1.26.66,3.37,2.12,2.12Z"/><path d="M187.15,430h4.36a1.5,1.5,0,0,0,0-3h-4.36a1.5,1.5,0,0,0,0,3Z"/><path d="M148.42,489.74a6.57,6.57,0,0,1,.08-2.79c.45-1.87-2.45-2.67-2.9-.79a10.11,10.11,0,0,0-.07,4.38,1.51,1.51,0,0,0,1.84,1,1.54,1.54,0,0,0,1-1.85Z"/><path d="M152,492.09l1.59-8.32c.36-1.89-2.53-2.7-2.9-.8l-1.59,8.32c-.36,1.89,2.53,2.7,2.9.8Z"/><path d="M155,492.15l3.41-2.72a1.52,1.52,0,0,0,0-2.13,1.55,1.55,0,0,0-2.12,0L152.84,490a1.5,1.5,0,0,0,0,2.12,1.55,1.55,0,0,0,2.12,0Z"/><path d="M158.37,495.47l3.41-2.72a1.5,1.5,0,0,0,0-2.12,1.53,1.53,0,0,0-2.12,0l-3.41,2.72a1.51,1.51,0,0,0,0,2.12,1.53,1.53,0,0,0,2.12,0Z"/><path d="M130.48,478.72a6.41,6.41,0,0,1,.07-2.79c.45-1.87-2.44-2.67-2.89-.8a10.32,10.32,0,0,0-.08,4.39,1.52,1.52,0,0,0,1.85,1.05,1.54,1.54,0,0,0,1-1.85Z"/><path d="M134.06,481.07l1.59-8.32c.36-1.89-2.53-2.7-2.89-.8l-1.59,8.32c-.36,1.89,2.53,2.7,2.89.8Z"/><path d="M137,481.13l3.42-2.72a1.53,1.53,0,0,0,0-2.13,1.55,1.55,0,0,0-2.12,0L134.89,479a1.51,1.51,0,0,0,0,2.12,1.55,1.55,0,0,0,2.12,0Z"/><path d="M140.43,484.45l3.41-2.72a1.51,1.51,0,0,0,0-2.12,1.53,1.53,0,0,0-2.12,0l-3.41,2.72a1.5,1.5,0,0,0,0,2.12,1.53,1.53,0,0,0,2.12,0Z"/><path d="M180.14,483.38a6.56,6.56,0,0,1-1.6-2.33A1.55,1.55,0,0,0,176.7,480a1.51,1.51,0,0,0-1,1.85A9.89,9.89,0,0,0,178,485.5c1.39,1.34,3.51-.77,2.12-2.12Z"/><path d="M184.2,482.91l-2.29-5.16a1.51,1.51,0,0,0-2-.54,1.53,1.53,0,0,0-.54,2.05l2.29,5.16a1.51,1.51,0,0,0,2,.54,1.53,1.53,0,0,0,.54-2Z"/><path d="M186.75,481.67l1.25-4.19c.56-1.85-2.34-2.64-2.89-.79l-1.25,4.18c-.56,1.85,2.34,2.64,2.89.8Z"/><path d="M191.45,482.45l1.25-4.18c.56-1.85-2.34-2.65-2.89-.8l-1.25,4.18c-.56,1.86,2.34,2.65,2.89.8Z"/><path d="M173,486.05l4.13,1.84a1.57,1.57,0,0,0,2.06-.54,1.53,1.53,0,0,0-.54-2.06l-4.14-1.83a1.54,1.54,0,0,0-2.05.53,1.52,1.52,0,0,0,.54,2.06Z"/><path d="M172.06,462.28a4.8,4.8,0,0,1,.06-2.1,1.53,1.53,0,0,0-1.05-1.85,1.52,1.52,0,0,0-1.84,1.05,8.55,8.55,0,0,0-.07,3.7,1.52,1.52,0,0,0,1.85,1,1.53,1.53,0,0,0,1.05-1.84Z"/><path d="M175,464.33l1.29-6.73c.36-1.88-2.53-2.69-2.89-.79l-1.29,6.72c-.36,1.89,2.53,2.69,2.89.8Z"/><path d="M177.26,464.5l2.76-2.2a1.5,1.5,0,0,0,0-2.12,1.53,1.53,0,0,0-2.12,0l-2.76,2.2a1.5,1.5,0,0,0,2.12,2.12Z"/><path d="M180,467.19l2.76-2.2a1.51,1.51,0,0,0,0-2.12,1.53,1.53,0,0,0-2.12,0l-2.76,2.2a1.51,1.51,0,0,0,0,2.12,1.55,1.55,0,0,0,2.12,0Z"/><path d="M190.79,452.08a5.58,5.58,0,0,1-1-2.29,1.5,1.5,0,1,0-2.89.8,7.79,7.79,0,0,0,1.33,3,1.55,1.55,0,0,0,2.06.54,1.5,1.5,0,0,0,.53-2.05Z"/><path d="M194.1,452.33l-1.72-6.63c-.48-1.87-3.37-1.08-2.89.8l1.72,6.62a1.5,1.5,0,0,0,2.89-.79Z"/><path d="M196.18,451.89l1.55-3.17a1.55,1.55,0,0,0-.54-2.05,1.5,1.5,0,0,0-2.05.53l-1.55,3.17a1.53,1.53,0,0,0,.53,2.05,1.52,1.52,0,0,0,2.06-.53Z"/><path d="M199.82,453.13l1.55-3.16a1.55,1.55,0,0,0-.54-2.06,1.52,1.52,0,0,0-2.05.54l-1.55,3.17a1.53,1.53,0,0,0,.54,2.05,1.51,1.51,0,0,0,2-.54Z"/><path d="M139.39,419.05a5.17,5.17,0,0,1,.69-2.08,1.5,1.5,0,0,0-2.59-1.51,8.74,8.74,0,0,0-1.1,3.59,1.51,1.51,0,0,0,1.5,1.5,1.53,1.53,0,0,0,1.5-1.5Z"/><path d="M141.68,421.88l3.2-6.26c.88-1.71-1.71-3.23-2.59-1.51l-3.2,6.25c-.88,1.72,1.71,3.24,2.59,1.52Z"/><path d="M143.58,422.86l3.35-1.37a1.56,1.56,0,0,0,1-1.85,1.51,1.51,0,0,0-1.85-1.05L142.78,420a1.54,1.54,0,0,0-1,1.84,1.5,1.5,0,0,0,1.84,1.05Z"/><path d="M145.53,426.3l3.34-1.37a1.55,1.55,0,0,0,1-1.85,1.5,1.5,0,0,0-1.84-1.05l-3.35,1.38a1.54,1.54,0,0,0-1,1.84,1.51,1.51,0,0,0,1.85,1.05Z"/><path d="M151.82,446.63a5.47,5.47,0,0,1-.79-2,1.54,1.54,0,0,0-1.5-1.5,1.51,1.51,0,0,0-1.5,1.5,8.7,8.7,0,0,0,1.2,3.56,1.54,1.54,0,0,0,2.06.53,1.52,1.52,0,0,0,.53-2.05Z"/><path d="M155.21,447.13,154,440.21c-.34-1.89-3.23-1.09-2.89.8l1.22,6.92c.33,1.9,3.22,1.09,2.89-.8Z"/><path d="M157.47,446.83l1.84-3.11a1.5,1.5,0,0,0-2.59-1.52l-1.84,3.12a1.5,1.5,0,0,0,2.59,1.51Z"/><path d="M161.09,448.4l1.84-3.11a1.5,1.5,0,0,0-2.59-1.52l-1.84,3.12a1.5,1.5,0,0,0,2.59,1.51Z"/><path d="M164.66,403.3a3.89,3.89,0,0,1,.05-1.44,1.5,1.5,0,1,0-2.89-.79,7.15,7.15,0,0,0,0,3,1.5,1.5,0,1,0,2.89-.79Z"/><path d="M166.89,405.06l1-5.17c.36-1.89-2.53-2.7-2.89-.8l-1,5.17c-.36,1.89,2.53,2.69,2.89.8Z"/><path d="M168.58,405.34l2.12-1.69a1.5,1.5,0,0,0,0-2.12,1.53,1.53,0,0,0-2.12,0l-2.12,1.69a1.51,1.51,0,0,0,0,2.12,1.53,1.53,0,0,0,2.12,0Z"/><path d="M170.7,407.41l2.12-1.69a1.5,1.5,0,0,0,0-2.12,1.53,1.53,0,0,0-2.12,0l-2.12,1.69a1.51,1.51,0,0,0,0,2.12,1.53,1.53,0,0,0,2.12,0Z"/><path d="M142,389.9a3.84,3.84,0,0,1,.05-1.43,1.5,1.5,0,0,0-2.89-.8,7,7,0,0,0,0,3,1.5,1.5,0,1,0,2.89-.8Z"/><path d="M144.23,391.66l1-5.17c.36-1.88-2.53-2.69-2.89-.79l-1,5.17c-.36,1.88,2.53,2.69,2.89.79Z"/><path d="M145.92,392l2.12-1.69a1.51,1.51,0,0,0,0-2.12,1.53,1.53,0,0,0-2.12,0l-2.12,1.69a1.5,1.5,0,0,0,0,2.12,1.53,1.53,0,0,0,2.12,0Z"/><path d="M148,394l2.12-1.69a1.52,1.52,0,0,0,0-2.13,1.55,1.55,0,0,0-2.12,0l-2.12,1.69a1.51,1.51,0,0,0,0,2.13,1.55,1.55,0,0,0,2.12,0Z"/><path d="M105.26,457.13a5.33,5.33,0,0,1,.69-2.08,1.5,1.5,0,0,0-2.59-1.51,8.74,8.74,0,0,0-1.1,3.59,1.51,1.51,0,0,0,1.5,1.5,1.53,1.53,0,0,0,1.5-1.5Z"/><path d="M107.55,460l3.2-6.26c.88-1.71-1.71-3.23-2.59-1.51l-3.2,6.25c-.88,1.72,1.71,3.24,2.59,1.52Z"/><path d="M109.45,460.94l3.35-1.37a1.56,1.56,0,0,0,1-1.85,1.51,1.51,0,0,0-1.85-1.05l-3.35,1.38a1.54,1.54,0,0,0-1,1.84,1.5,1.5,0,0,0,1.84,1.05Z"/><path d="M111.4,464.38l3.35-1.37a1.55,1.55,0,0,0,1-1.85,1.5,1.5,0,0,0-1.84-1.05l-3.35,1.38a1.54,1.54,0,0,0-1,1.84,1.51,1.51,0,0,0,1.85,1.05Z"/><path d="M146.8,464.16a5.37,5.37,0,0,1-.8-2.05,1.54,1.54,0,0,0-1.5-1.5,1.51,1.51,0,0,0-1.5,1.5,8.67,8.67,0,0,0,1.21,3.56,1.5,1.5,0,0,0,2.59-1.51Z"/><path d="M150.18,464.66,149,457.74c-.33-1.9-3.22-1.09-2.89.8l1.22,6.92c.34,1.89,3.23,1.09,2.89-.8Z"/><path d="M152.44,464.36l1.84-3.12a1.5,1.5,0,0,0-2.59-1.51l-1.84,3.12a1.5,1.5,0,0,0,2.59,1.51Z"/><path d="M156.07,465.93l1.84-3.12a1.5,1.5,0,0,0-2.59-1.51l-1.84,3.12a1.5,1.5,0,0,0,2.59,1.51Z"/><path d="M130.54,441.38a3.68,3.68,0,0,1,0-1.44,1.5,1.5,0,1,0-2.89-.79,7.15,7.15,0,0,0,0,3,1.52,1.52,0,0,0,1.85,1.05,1.54,1.54,0,0,0,1-1.84Z"/><path d="M132.76,443.14l1-5.18c.36-1.88-2.53-2.69-2.89-.79l-1,5.17c-.36,1.88,2.53,2.69,2.89.8Z"/><path d="M134.45,443.42l2.12-1.69a1.5,1.5,0,0,0,0-2.12,1.53,1.53,0,0,0-2.12,0l-2.12,1.69a1.51,1.51,0,0,0,0,2.12,1.53,1.53,0,0,0,2.12,0Z"/><path d="M136.57,445.49l2.12-1.69a1.5,1.5,0,0,0,0-2.12,1.53,1.53,0,0,0-2.12,0l-2.12,1.69a1.51,1.51,0,0,0,0,2.12,1.55,1.55,0,0,0,2.12,0Z"/><path d="M107.87,428a3.84,3.84,0,0,1,0-1.43,1.5,1.5,0,0,0-2.89-.8,7,7,0,0,0,0,3,1.5,1.5,0,1,0,2.89-.8Z"/><path d="M110.1,429.74l1-5.17c.36-1.88-2.53-2.69-2.89-.8l-1,5.17c-.36,1.89,2.53,2.7,2.89.8Z"/><path d="M111.79,430l2.12-1.69a1.51,1.51,0,0,0,0-2.12,1.53,1.53,0,0,0-2.12,0l-2.12,1.69a1.5,1.5,0,0,0,0,2.12,1.54,1.54,0,0,0,2.12,0Z"/><path d="M113.91,432.09,116,430.4a1.5,1.5,0,0,0,0-2.12,1.55,1.55,0,0,0-2.12,0L111.79,430a1.51,1.51,0,0,0,0,2.12,1.53,1.53,0,0,0,2.12,0Z"/></svg>