<?xml version="1.0" encoding="utf-8"?>
<!-- Generator: Adobe Illustrator 22.1.0, SVG Export Plug-In . SVG Version: 6.00 Build 0)  -->
<svg version="1.1" id="圖層_1" xmlns="http://www.w3.org/2000/svg" xmlns:xlink="http://www.w3.org/1999/xlink" x="0px" y="0px"
	 viewBox="0 0 1020 540" style="enable-background:new 0 0 1020 540;" xml:space="preserve">
<style type="text/css">
	.st0{fill:#FFFCD9;}
	.st1{fill:#E0F5F4;}
	.st2{fill:#F88334;}
	.st3{fill:#FFBC18;}
	.st4{fill:#FFFFFF;}
	.st5{fill:#F15A24;}
</style>
<title>q6</title>
<path class="st0" d="M286,428.9c-32.9-20.1-50.8-60.5-48.2-99s23.8-74.4,53.2-99.3s66.6-39.6,104.5-46.9c28.2-5.4,57.6-6.9,85.6-0.4
	s54.7,21.4,71.9,44.4s24.1,54.4,14.5,81.6c-9.1,25.7-31.1,44.7-54.3,59c-69.3,42.7-153,53.3-233.9,62.8"/>
<path class="st1" d="M605.1,371.3c-2.3-9.2-8.3-17.2-15.9-23s-16.6-9.3-25.8-11.6l-5.4,3c6.5-8.8,11-18.9,13.2-29.6
	c0.8-4.1,1.3-8.3,0.2-12.3c-1.6-5.6-6.2-9.7-10.8-13.2c-14.9-11.2-32.3-18.6-50.7-21.5l-2.9,5.7c3.2-7.4,5.4-15.1,6.7-23
	c0,0-71.3-49.4-136.8-6c-14.6,9.7-27.8,22.1-37.4,36.4l-6.6-0.5c-4.6-0.6-9.2-1-13.9-1l-3.5-0.3l-0.7,0.3
	c-21,0.6-41.5,7.2-58.8,19.1c2,7.2,5.4,14,10.2,19.8c0,0,0,0.9,0,2.5c-16.4,9.8-31.9,20.9-46.5,33.2l21.2,22.3l0,0
	c-1.2,0.7-2.3,1.3-3.3,2c-6.5,2.4-12.6,5.5-18.3,9.5c-3.4,2.3-6.8,5.4-7,9.5c-0.1,3.4,2.2,6.5,4.7,8.7c3.3,2.9,7.3,5.1,11.6,6.2
	l0.6,0.2c-4.5,2.6-8.9,5.4-13.2,8.4l0,0c-4.2,2.9-8.3,6-12.2,9.3c9.1,7.8,18.5,15.5,28.9,21.4c5.4,3.1,12.1,5.7,17.8,3
	c5.4-2.6,8.2-9.4,14-10.9c4.6-1.2,9.3,1.6,13.4,4c16.9,10.2,35.2,17.9,54.3,22.8c7.4,1.9,15.3,3.4,22.5,0.9c5.8-2,10.5-6.3,15-10.5
	c2.2-2.1,4.4-4.2,6.6-6.3l4.4,1.3l-4.7,1.2c17.6-0.3,35.1,1.1,52.5,4c8,1.4,16,3,24,2.9s16.5-2.4,22.4-7.8l25.8,18.1
	c3.3,2.3,6.9,4.8,10.9,4.9c3.5,0.1,6.8-1.5,10-3c7.6-3.8,15.5-7.8,21.4-13.8l0,0c1.2-0.8,2.4-1.6,3.5-2.5c10.1,1.7,20.1-3.4,29-8.5
	c6.5-3.8,13.5-8.3,15.7-15.5c1.9-6.3-0.6-13.3-4.8-18.4s-9.9-8.7-15.5-12.2c3.6-1.4,6.6-4.4,8.8-7.4l0.3-0.4
	c0.7-0.8,1.2-1.7,1.6-2.6c0.9-1.5,1.6-3,2.3-4.5l0,0c1.4,2,3.8,3.2,6.3,3.1c3.2-0.1,6.1-2,8.8-3.8c2.3-1.5,4.7-3.2,5.8-5.7
	S605.7,373.9,605.1,371.3z"/>
<path d="M281.4,323.3c-0.1,1.8-0.2,3.6-0.3,5.4c-0.2,1.2-0.1,2.4,0.3,3.5c0.7,1.6,2.5,2.3,4,1.6c0.3-0.1,0.6-0.3,0.9-0.6
	c2.3-2,0.8-5.1,0.7-7.6c0-2.3-0.4-5.1-3.4-5c-0.8,0-1.5,0.7-1.5,1.5c0,0.1,0,0.2,0,0.4l0.1,0.5c0.6,1.8,3.5,1,2.9-0.8l-0.1-0.5
	l-1.5,1.9c0.7,0,0.4,2.9,0.4,3.4s0.9,3.7,0.2,3.6s0-6.1,0.1-7.2C284.5,321.4,281.5,321.5,281.4,323.3L281.4,323.3z"/>
<path d="M349,371.1l-5.4-0.1c-1.2-0.1-2.4,0-3.5,0.5c-1.5,0.7-2.2,2.5-1.5,4.1c0.2,0.3,0.4,0.7,0.6,0.9c2.1,2.3,5.1,0.5,7.6,0.5
	c2.3-0.1,5.2-0.6,4.9-3.5c0-0.8-0.7-1.5-1.5-1.5c-0.1,0-0.3,0-0.4,0.1l-0.5,0.2c-1.8,0.7-1,3.6,0.8,2.9l0.5-0.2l-1.9-1.4
	c0.1,0.9-2.4,0.5-3,0.6c-0.8,0.1-3.4,1.1-3.8,0.4c-0.3-0.6,0.3-0.3,0.8-0.4s1.3,0,1.9,0l4.2,0.1c0.8,0,1.5-0.7,1.5-1.5
	S349.8,371.1,349,371.1L349,371.1z"/>
<path d="M390.7,359.5c0.8,0,1.5-0.7,1.5-1.5s-0.7-1.5-1.5-1.5s-1.5,0.7-1.5,1.5S389.9,359.5,390.7,359.5z"/>
<path d="M338.9,275.3c-29.1-5.5-59.2,0.7-83.7,17.3c-0.6,0.3-0.9,1-0.7,1.7c2.1,7.4,5.7,14.4,10.5,20.4c1.2,1.5,3.3-0.6,2.1-2.1
	c-4.5-5.7-7.8-12.2-9.8-19.1l-0.7,1.7c23.8-16.2,53.1-22.3,81.4-17C339.9,278.5,340.7,275.6,338.9,275.3L338.9,275.3z"/>
<path d="M282.7,305c-22.8,12.1-44.3,26.6-64.1,43.2c-0.6,0.6-0.6,1.5,0,2.1l39.1,41.2l20.2,21.3c4.6,4.9,9.4,10.8,16.2,12.5
	c6.4,1.6,12.8-0.9,18.4-4c7.7-4.4,14.9-9.8,22-15c13.6-10.1,26.5-21.1,38.6-32.9c1.4-1.4-0.7-3.5-2.1-2.1
	c-11.5,11.2-23.7,21.7-36.6,31.4c-6.2,4.7-12.6,9.2-19.2,13.5c-7.2,4.7-16,9.6-24.4,4.6c-6.8-4-12.2-11.4-17.6-17.1l-17.5-18.5
	l-35.1-36.9v2.1c19.6-16.4,40.9-30.7,63.5-42.7C286,306.7,284.5,304.1,282.7,305L282.7,305z"/>
<path d="M357,389.6l16.6,10.3c2.5,1.5,6,5.1,9,3.4c1.3-0.7,1.9-2.2,2.6-3.5c1.6-2.7,3.2-5.5,4.8-8.3l9.6-16.5c0.4-0.7,0.1-1.6-0.6-2
	s-1.6-0.1-2,0.5l-7.7,13.2c-2.1,3.7-4,8.4-6.7,11.5c-0.1,1.3-1.2,2.2-2.5,2.1H380l-3.3-2l-5-3.1l-13.3-8.2
	C356.8,386.1,355.3,388.6,357,389.6L357,389.6z"/>
<path d="M253.2,347.5c14.6,16.9,28.7,34.7,44.1,50.9c6.5,6.8,12.9,0.6,19.3-3.4l29.3-18.2c0.7-0.4,0.9-1.4,0.5-2.1
	c-0.1-0.1-0.1-0.2-0.2-0.3c-16.1-14.5-32.9-28.4-50.3-41.5c-6.8-5.1-13.6-9.2-22.2-5.9s-13.5,11.2-18,18.6c-0.4,0.7-0.1,1.6,0.6,2
	s1.6,0.1,2-0.5c4.5-7.5,9.9-16.4,19.2-18.1c9.6-1.9,18.7,7.8,25.7,13.2c14.1,10.9,27.7,22.3,40.9,34.3l0.3-2.4l-25.1,15.6
	c-3.7,2.3-7.7,5.6-11.7,7.3c-7.1,2.9-10.5-3.5-14.5-8.1l-37.8-43.7C254,343.9,251.9,346,253.2,347.5L253.2,347.5z"/>
<path d="M509.5,264.6c14.9,2.4,29.2,7.7,42,15.6c6.3,3.9,14,8.6,17.4,15.5c3.6,7.2,0.6,16.7-2,23.9c-8.8,25-31.7,45.3-59.2,43.6
	c-14.8-0.9-29-7.9-37.4-20.2c-1.1-1.6-3.7-0.1-2.6,1.5c16,23.4,49.3,27.9,72.8,13.4c12.5-7.7,21.9-19.6,27.6-33
	c2.8-6.7,5.4-14.4,5.4-21.8c0-8-4.6-13.8-10.6-18.6c-15.1-12.1-33.6-19.8-52.6-22.9C508.3,261.5,507.5,264.4,509.5,264.6
	L509.5,264.6z"/>
<path d="M503.8,275.7l23.7,11.1l-0.5-2l-14.7,30.3c-0.8,1.7,1.8,3.3,2.6,1.5l14.7-30.4c0.4-0.7,0.1-1.6-0.5-2l-23.7-11.1
	C503.6,272.4,502.1,275,503.8,275.7L503.8,275.7z"/>
<path d="M383.1,398.9c4.4,12,18.6,7.8,27.4,4.3c13.2-5.2,25.5-12.3,38.9-16.9c14.5-4.9,29.4-4.4,44.3-6.4c9.7-1.3,22.6-4,25.8-14.8
	c0.2-0.8-0.3-1.6-1.1-1.8c-0.8-0.2-1.5,0.3-1.7,1c-3.5,11.9-21.8,12.7-31.8,13.5c-11.1,0.9-22.2,1.3-32.9,4.5
	c-10.4,3.1-20,8-29.8,12.5c-8,3.7-31.1,16.8-36.1,3.2C385.4,396.3,382.5,397.1,383.1,398.9L383.1,398.9z"/>
<path d="M436.9,391.6c26.3,14.6,55,30,86.2,26c14.5-1.9,28-7.6,41-13.9c10.5-5.1,23.6-10.2,19.4-24.5c-4.5-14.9-22.8-18.1-32.3-28.5
	c-1.3-1.4-3.4,0.7-2.1,2.1c9.4,10.4,32.5,15.1,32.2,31.9c-0.2,9.7-12.2,13.3-19.5,16.8c-7.8,3.9-15.8,7.1-24.1,9.8
	c-35.8,11-68.5-5.3-99.2-22.3C436.7,388.1,435.2,390.7,436.9,391.6L436.9,391.6z"/>
<path d="M550.5,367.5c-5.7,5.9-12.6,10.5-20.3,13.4c-3.4,1.3-11.5,1.7-10.3,7.1c0.6,3.1,3.3,6.3,4.8,9c1.8,3.7,3.9,7.2,6.1,10.6
	c3,4.2,7.3,6.7,12.3,4.5c1.8-0.8,0.2-3.4-1.5-2.6c-2.9,1.3-6.2-0.9-7.8-2.9c-1-1.3-1.8-2.6-2.5-4c-1.4-2.4-2.7-4.8-4-7.2
	c-1.2-2.1-3.4-4.8-4-7.2c-0.7-3.2,4-3.3,6.3-4.1c8.7-3.1,16.7-8.1,23.1-14.7c0.6-0.6,0.5-1.6-0.1-2.1
	C552,366.9,551.1,366.9,550.5,367.5L550.5,367.5z"/>
<path d="M523.1,365.7c11.5,5.3,25.1,3.1,34.3-5.7c1.4-1.3-0.7-3.5-2.1-2.1c-8.2,7.8-20.3,9.9-30.7,5.2
	C522.9,362.3,521.4,364.9,523.1,365.7z"/>
<path d="M530.2,363.1c8.3,0.6,16.7-1.6,23.6-6.3c1.6-1.1,0.1-3.7-1.5-2.6c-6.5,4.4-14.3,6.5-22.1,5.9
	C528.2,359.9,528.3,362.9,530.2,363.1z"/>
<path d="M316.7,419.7c9.2,7.6,21,11.3,32.9,10.2c13.8-1.3,26.5-7.6,39.8-11.3c29-7.9,59.4-7.4,89.3-6.9c1.9,0,1.9-3,0-3
	c-27-0.5-54.5-0.9-81,4.8c-13.2,2.8-25.6,8.4-38.7,11.7c-14.2,3.6-28.5,1.7-40.1-7.7C317.3,416.4,315.2,418.5,316.7,419.7z"/>
<path d="M260.2,391.5c-20.9,7.6-40.3,18.8-57.5,32.9c-0.6,0.6-0.6,1.5,0,2.1c6.4,5.6,13.1,10.9,20.1,15.9c6,4.1,12.8,9,20.2,9.9
	c6.8,0.9,10.9-2.7,15.3-7.3c3.4-3.6,6.6-5.7,11.8-4.3c4.4,1.2,8.4,4.5,12.3,6.7c15.2,8.6,31.4,15.2,48.3,19.6
	c7.3,1.9,15.1,3.5,22.5,1.6s13-7.4,18.5-12.5c12.5-11.7,25-24.3,29.9-41.1c0.5-1.9-2.4-2.6-2.9-0.8c-4.2,14.5-14.4,25.7-25.1,35.9
	c-5.8,5.5-11.8,12.4-19.5,15c-8.5,2.9-17.8,0.3-26.1-2.1c-15.7-4.4-30.8-10.7-45-18.8c-5.2-3-11-7.8-17.4-7.2
	c-5.3,0.5-8.3,4.7-11.8,8.1c-8.2,7.9-17.8,2.2-25.9-2.9c-8.3-5.3-15.8-11.5-23.3-17.9v2.1c16.8-13.8,35.8-24.6,56.2-32.1
	C262.8,393.7,262,390.8,260.2,391.5L260.2,391.5z"/>
<path d="M205.4,426.9c16.9,0.3,33.3,6.8,43.2,20.9c1.1,1.6,3.7,0.1,2.6-1.5c-10.5-15-27.8-22.1-45.8-22.4
	C203.4,423.9,203.4,426.9,205.4,426.9z"/>
<path d="M216,417.6c17.6-0.4,32.4,10.6,39,26.6c0.7,1.8,3.6,1,2.9-0.8c-7.1-17.2-22.9-29.2-41.9-28.8
	C214.1,414.6,214.1,417.6,216,417.6L216,417.6z"/>
<path d="M267,439.9l13.3-7.7c0.7-0.4,1-1.3,0.5-2.1s-1.3-1-2.1-0.5l-13.3,7.7c-0.7,0.4-1,1.3-0.5,2.1S266.3,440.3,267,439.9z"/>
<path d="M353.2,467.4c19.6-10.9,25.5-33.9,39.7-49.8c1.3-1.4-0.8-3.6-2.1-2.1c-13.9,15.6-19.9,38.6-39.1,49.3
	C350,465.7,351.5,468.3,353.2,467.4z"/>
<path d="M376,453.7c19.6-0.1,39.2,1.6,58.5,5.1c14.2,2.4,29.8,3.7,41.5-6.5l-1.8,0.2l22.6,15.9c5.4,3.8,10.9,8.4,17.9,7.1
	c6.7-1.2,13.9-5.8,19.6-9.3c5.8-3.4,10.8-8.1,14.6-13.7c0.4-0.7,0.2-1.6-0.5-2c-13.4-8.2-24.5-19.6-32.3-33.1
	c-0.4-0.7-1.4-0.9-2.1-0.5c-0.7,0.4-0.9,1.3-0.5,2c8.1,14,19.5,25.8,33.4,34.2l-0.5-2.1c-3.6,5.6-8.5,9.6-14.2,13.1
	c-5.3,3.2-12.7,8-18.9,8.6c-7,0.6-13.6-5.9-18.9-9.6L475.6,450c-0.6-0.3-1.3-0.2-1.8,0.2c-13.4,11.7-32.1,6.6-47.9,4.1
	c-16.5-2.6-33.3-3.8-50-3.6c-0.8,0-1.5,0.7-1.5,1.5S375.1,453.7,376,453.7L376,453.7z"/>
<path d="M461.4,438.1l20.8,20.5c1.4,1.4,3.5-0.8,2.1-2.1L463.5,436C462.1,434.6,460,436.8,461.4,438.1z"/>
<path d="M570.2,401.8c11.3,7.1,28.6,21.2,15.7,35.3c-4.3,4.6-10.3,7.8-15.8,10.7c-7.2,3.9-15,7-23.4,5.8c-1.9-0.3-2.7,2.6-0.8,2.9
	c8.9,1.2,17.1-1.6,24.9-5.7c6.8-3.5,14.6-7.6,19.1-14c11-15.7-6.2-30-18.3-37.6C570,398.2,568.5,400.8,570.2,401.8L570.2,401.8z"/>
<path d="M562.9,338.2c12.5,3.3,24.8,8.7,33.2,18.8c4,4.8,9.5,13.6,7.8,20.2c-1.5,5.7-17.5,15.4-19.2,5.6c-0.3-1.9-3.2-1.1-2.9,0.8
	c1.3,7.6,10,7,15.2,4.1c7.8-4.3,11.7-9.5,9.1-18.5c-5.6-19.1-24.3-29.4-42.4-34c-0.8-0.2-1.6,0.3-1.8,1.1
	C561.7,337.3,562.2,338,562.9,338.2L562.9,338.2z"/>
<path d="M584.3,386.2c8.3-1.6,15.4-6.6,19.7-13.9c0.4-0.7,0.2-1.6-0.5-2.1c-0.7-0.4-1.6-0.2-2.1,0.5l0,0
	c-3.9,6.6-10.4,11.1-17.9,12.5C581.7,383.6,582.5,386.6,584.3,386.2L584.3,386.2z"/>
<path d="M239.4,371.3c-6.3,2.1-12.3,5-18,8.5c-3.8,2.4-8.3,5.2-10,9.6c-3.9,10,9.1,17.3,16.7,19.6c1.9,0.6,2.6-2.3,0.8-2.9
	c-8.1-2.5-21.4-11-11.4-19.9c6.3-5.6,14.8-9.3,22.7-12C242.1,373.6,241.3,370.7,239.4,371.3L239.4,371.3z"/>
<path d="M314.1,278.6c-8.3,22.4-8.9,47-1.6,69.7c0.6,1.8,3.5,1,2.9-0.8c-7.1-22.2-6.6-46.2,1.5-68.1
	C317.7,277.6,314.8,276.8,314.1,278.6L314.1,278.6z"/>
<path d="M305.9,273.8c-9.9,21.8-10.5,46.8-1.5,69.1c0.7,1.8,3.6,1,2.9-0.8c-8.7-21.5-8.3-45.6,1.2-66.8
	C309.2,273.6,306.6,272.1,305.9,273.8z"/>
<path d="M289.3,277.9c-4.7,19.8-2.3,40.6,6.9,58.7c0.9,1.7,3.5,0.2,2.6-1.5c-8.8-17.4-11.1-37.4-6.6-56.4
	C292.6,276.8,289.7,276,289.3,277.9z"/>
<path d="M288.3,385.6c-9.4,4.7-20.4,5-30.1,0.8c-1.8-0.8-3.3,1.8-1.5,2.6c10.6,4.7,22.8,4.4,33.1-0.8
	C291.5,387.3,290,384.8,288.3,385.6z"/>
<path d="M265.7,400.1c9.6,4.4,20.9,2.1,28.1-5.7c1.3-1.4-0.8-3.5-2.1-2.1c-6.2,6.8-16.1,8.9-24.5,5.2
	C265.4,396.8,263.9,399.4,265.7,400.1L265.7,400.1z"/>
<path d="M277.2,410.8c9.9,2.4,20.3-1.6,26-10c1.1-1.6-1.5-3.1-2.6-1.5c-5,7.3-14,10.7-22.6,8.6C276.1,407.5,275.3,410.4,277.2,410.8
	L277.2,410.8z"/>
<path d="M309.1,456.8c16.7-13.7,40.5-14.9,58.5-3c1.6,1,3.1-1.5,1.5-2.6c-19.2-12.6-44.4-11.2-62.2,3.5
	C305.5,455.9,307.6,458,309.1,456.8L309.1,456.8z"/>
<path d="M303.2,454.1c18.2-18.2,46.9-20.6,67.8-5.6c1.6,1.1,3.1-1.5,1.5-2.6c-22.1-15.7-52.3-13.2-71.4,6c-0.6,0.6-0.5,1.6,0.1,2.1
	C301.7,454.6,302.6,454.6,303.2,454.1L303.2,454.1z"/>
<path d="M418,413.5c0.3,12.6-3.5,24.9-10.8,35.2c-1.1,1.6,1.5,3.1,2.6,1.5c7.5-10.8,11.5-23.6,11.2-36.8
	C421,411.6,418,411.6,418,413.5L418,413.5z"/>
<path d="M432.3,412.9c0.5,14.6-1.9,29.1-7.1,42.8c-0.7,1.8,2.2,2.6,2.9,0.8c5.3-13.9,7.7-28.7,7.2-43.6
	C435.3,411,432.3,411,432.3,412.9z"/>
<path d="M446.6,411.6c2.8,15.2,2.9,30.7,0.1,45.9c-0.3,1.9,2.5,2.7,2.9,0.8c2.8-15.7,2.8-31.8-0.1-47.4
	C449.2,409,446.3,409.8,446.6,411.6z"/>
<path class="st2" d="M394.5,292.6c5.8-22.8,8.4-47.5,1.6-69.8c-12.6,3.5-24.6,8.9-35.4,16.2c-32.2,21.3-58.5,54.5-61.1,91.9
	c12.7-0.4,25.4,1.4,37.5,5.4c4.2,1.3,8.2,3.1,11.8,5.5l6.4-12.5c6.6,6.9,11.9,14.8,15.7,23.5c2-3.7,4-7.5,5.8-11.3
	C384.3,325.9,390.2,309.5,394.5,292.6z"/>
<path d="M396,293c5.8-23.1,8.4-47.4,1.6-70.6c-0.2-0.8-1-1.3-1.8-1c-48,13.5-93.7,58.2-97.6,109.5c0,0.8,0.7,1.5,1.5,1.5
	c16-0.4,34.9,1.8,48.6,10.7c0.7,0.4,1.6,0.1,2-0.5l6.4-12.5l-2.4,0.3c6.4,6.8,11.6,14.7,15.4,23.3c0.4,0.7,1.4,0.9,2.1,0.5
	c0.2-0.1,0.4-0.3,0.5-0.5C382.7,334.5,390.6,314.1,396,293c0.5-1.9-2.4-2.7-2.9-0.8c-5.3,20.9-13.1,41-23.4,60h2.6
	c-3.9-8.8-9.3-16.8-15.9-23.9c-0.6-0.6-1.6-0.6-2.1,0c-0.1,0.1-0.2,0.2-0.2,0.3l-6.4,12.5l2-0.5c-14.1-9.3-33.6-11.5-50.1-11.1
	l1.5,1.5c3.8-50,48.8-93.5,95.4-106.6l-1.8-1c6.7,22.6,4.1,46.4-1.6,69C392.6,294.1,395.5,294.9,396,293z"/>
<path class="st3" d="M501,265.1c-1.9,3.2-4,6.3-6.4,9.2l-2.9,3.7c4.7,1.4,9.4,2.8,14,4.2c0,0,9.5-16.5,12.4-36.2c0,0-3-2-8.3-5
	l-4.2,12.6C504.5,257.5,502.9,261.4,501,265.1z"/>
<path d="M499.7,264.4c-2.8,4.5-5.8,8.8-9.2,12.9c-0.4,0.7-0.2,1.7,0.6,2.1c0.1,0.1,0.2,0.1,0.3,0.1c4.7,1.4,9.3,2.8,14,4.1
	c0.7,0.2,1.3-0.1,1.7-0.7c6.3-11.4,10.6-23.7,12.5-36.6c0.1-0.7-0.1-1.3-0.7-1.7c-2.7-1.8-5.5-3.4-8.3-5c-0.7-0.4-1.7-0.1-2.1,0.6
	c-0.1,0.1-0.1,0.2-0.1,0.3C505.8,248.5,503.6,256.9,499.7,264.4c-0.8,1.7,1.7,3.3,2.6,1.5c4-7.7,6.3-16.3,9-24.5l-2.2,0.9
	c2.8,1.6,5.6,3.2,8.3,5l-0.7-1.7c-1.9,12.6-6,24.7-12.2,35.9l1.7-0.7c-4.7-1.4-9.3-2.8-14-4.1l0.9,2.2c3.3-4.1,6.4-8.4,9.2-12.9
	c0.3-0.8,0-1.6-0.8-2C500.8,263.6,500.1,263.8,499.7,264.4z"/>
<path class="st3" d="M299.6,330.9c-0.3,5.1-0.2,10.2,0.3,15.3c14.9-0.5,29.7,1.3,44.1,5.2c1.6-3.2,3.3-6.4,4.9-9.5
	c-3.7-2.4-7.6-4.3-11.8-5.5C325,332.3,312.3,330.5,299.6,330.9z"/>
<path d="M298.1,330.9c-0.3,5.1-0.2,10.2,0.3,15.3c0,0.8,0.7,1.5,1.5,1.5c14.7-0.4,29.5,1.3,43.7,5.1c0.7,0.2,1.3-0.1,1.7-0.7
	c1.6-3.2,3.3-6.4,4.9-9.6c0.4-0.7,0.2-1.6-0.5-2c-14.1-9.3-33.6-11.5-50.1-11.1c-1.9,0-1.9,3,0,3c16-0.4,34.9,1.8,48.6,10.7l-0.5-2
	l-4.9,9.5l1.7-0.7c-14.5-3.9-29.5-5.6-44.5-5.3l1.5,1.5c-0.5-5.1-0.6-10.2-0.3-15.3C301.2,329,298.2,329,298.1,330.9z"/>
<path class="st2" d="M455.6,267.7c0,0,17.6,4.9,36.1,10.3l2.9-3.7c2.4-2.9,4.5-6,6.4-9.2c1.9-3.7,3.4-7.6,4.6-11.6l4.2-12.6
	c-12.4-7-37.7-19-68.1-21.8c-0.7,12.1-2.2,24.1-4.7,35.9c-6.8,32.8-20.4,63.8-37.2,92.7c-6.4,11.1-13.5,22-22,31.6
	c1,4.6,2.8,8.8,6.8,10.8c5,2.4,10.8,0.1,15.8-2.3c36.5-17.2,72-30.5,108.4-47.7c2.9-1.4,5.9-2.9,7.4-5.7c2.7-5.1-1.2-11.2-5.2-15.4
	C497.2,304,474.2,276.3,455.6,267.7z"/>
<path d="M455.2,269.1c12.1,3.3,24.1,6.8,36.1,10.3c0.7,0.2,1.3-0.1,1.7-0.7c4-5.2,8.3-10.4,10.9-16.5c2.9-6.8,5-14,7.3-21
	c0.2-0.7-0.1-1.3-0.7-1.7c-21.2-12-44.6-19.5-68.9-22c-0.8,0-1.5,0.7-1.5,1.5c-1.9,32.8-10.7,64.6-24.3,94.4
	c-6.5,14.2-13.8,28-22.1,41.3c-4.4,7.2-9.3,14.1-14.7,20.6c-1.1,1.4-2.7,2.4-2.8,4.2c-0.1,2.2,1.6,5.4,2.8,7.3
	c7.5,11.8,22.9,1.7,31.9-2.5c15.3-7,30.7-13.5,46.1-20s30.9-13.1,46.2-20.2c4.8-2.2,11.7-4.2,14.3-9.3s-0.2-10.4-3.2-14.4
	c-8-10.5-17.9-20.2-27.2-29.6s-19-18.9-30.9-24.6c-1.7-0.8-3.3,1.8-1.5,2.6c19.7,9.4,34.7,28.4,49,44.3c3.6,4,8.4,8.1,10.7,13.1
	c4.5,9.9-8.6,13.5-15.4,16.5c-13.5,6.2-27.2,12-40.8,17.8S430.9,372,417.4,378c-6.5,2.9-12.9,6.1-19.4,8.9c-3.5,1.5-7.8,3.2-11.6,2
	s-7.8-6.4-6.5-10.3c0.6-1.8,3.6-4.4,4.9-6c2.3-2.9,4.4-5.9,6.5-8.9c4.1-6.1,7.9-12.4,11.5-18.7c6.8-11.9,13-24.2,18.5-36.9
	c12.2-28.5,20-58.4,21.8-89.4l-1.5,1.5c23.6,2.3,46.6,10,67.3,21.6l-0.7-1.7c-2.1,6.4-4.1,13-6.6,19.3c-2.6,6.5-7,11.9-11.3,17.4
	l1.7-0.7c-12-3.5-24-7-36.1-10.3c-0.8-0.2-1.6,0.3-1.9,1.1C453.9,268.1,454.4,268.9,455.2,269.1L455.2,269.1z"/>
<path class="st0" d="M415.9,262.2c1.8-14.3,0.5-28.6-1.4-42.9c-6.2,0.7-12.4,1.9-18.4,3.5c6.8,22.3,4.2,47-1.6,69.8
	c-4.3,16.9-10.3,33.3-17.8,49c-1.8,3.8-3.7,7.6-5.8,11.3c1.6,3.8,3,7.7,4,11.7c10.8-17.1,18.9-36,26.5-54.9
	C407.8,294.4,413.8,278.7,415.9,262.2z"/>
<path d="M417.4,262.2c1.6-14.3,0.5-28.6-1.4-42.9c-0.1-0.7-0.6-1.6-1.5-1.5c-6.3,0.8-12.6,2-18.8,3.6c-0.8,0.2-1.3,1-1,1.8
	c7.3,24.7,3.6,50.9-3.3,75.3c-3.5,12.5-7.9,24.6-13.2,36.5c-2.5,5.5-5.9,10.8-8.1,16.4c-0.8,1.9-0.7,1.6,0.2,3.8
	c1.3,3.2,2.4,6.5,3.3,9.9c0.2,0.8,1.1,1.3,1.9,1c0.3-0.1,0.6-0.3,0.8-0.6c9.9-15.8,17.5-32.9,24.6-50.1S414.9,280.8,417.4,262.2
	c0.3-1.9-2.8-1.9-3,0c-2.4,18.2-9.4,35.4-16.4,52.3s-14.5,33.8-24.3,49.4l2.7,0.4c-0.9-3.1-2.3-6.1-3-9.3c-0.7-2.8,0.5-4.3,1.8-6.9
	c3-5.8,5.6-11.6,8.1-17.6c4.9-11.6,8.9-23.5,12.1-35.7c6.2-23.5,9-48.7,2-72.4l-1,1.8c5.9-1.6,11.9-2.7,18-3.5l-1.5-1.5
	c1.8,14.3,3,28.6,1.4,42.9C414.2,264.1,417.2,264.1,417.4,262.2z"/>
<path class="st3" d="M437.1,255c2.5-11.8,4-23.8,4.7-35.9c-9.1-0.9-18.2-0.8-27.2,0.2c1.9,14.3,3.1,28.6,1.4,42.9
	c-2,16.5-8.1,32.2-14.3,47.5c-7.6,18.8-15.7,37.8-26.5,54.9c0.7,2.6,1.3,5.3,1.7,8c0.3,2.1,0.7,4.4,1.2,6.7
	c8.5-9.5,15.6-20.5,22-31.6C416.7,318.8,430.3,287.7,437.1,255z"/>
<path d="M438.5,255.4c2.4-12,4-24.1,4.7-36.3c0-0.8-0.7-1.5-1.5-1.5c-9.1-0.8-18.2-0.7-27.2,0.2c-0.7,0.1-1.6,0.6-1.5,1.5
	c2,15.3,3.4,30.8,0.9,46.1c-2.2,14-7.2,27.4-12.4,40.5c-5.5,13.6-11.1,27.2-17.8,40.3c-1.5,3-3.1,6-4.8,9c-1.4,2.5-4.7,6-5.2,8.7
	c-0.4,1.9,0.6,4,1,5.9c0.6,3.3,1,6.6,1.7,9.9c0.2,0.8,1.1,1.3,1.9,1c0.2-0.1,0.4-0.2,0.6-0.4c15.4-17.5,26.9-38.6,37-59.6
	C426,300,433.6,278,438.5,255.4c0.4-1.8-2.4-2.6-2.8-0.7c-4.9,22.4-12.4,44.1-22.3,64.6c-9.9,20.7-21.3,41.7-36.5,59l2.5,0.7
	c-0.7-3.3-1.1-6.6-1.7-9.9c-0.8-4,0.1-5.7,2.1-9.1c3.6-6.1,6.9-12.4,9.9-18.8c5.9-12.4,11.1-25.1,16.1-37.8s9.5-25.7,11.4-39.3
	c2.1-14.9,0.8-29.9-1.1-44.7l-1.5,1.5c9.1-0.9,18.2-1,27.2-0.2l-1.5-1.5c-0.7,11.9-2.2,23.8-4.6,35.5
	C435.2,256.5,438.1,257.3,438.5,255.4z"/>
<path d="M439.8,263.1c7.8,2.9,16,5.6,23.2,9.9c2.6,1.6,4.9,3.6,7.4,5.3c1.6,1.1,3.1-1.5,1.5-2.6c-2.7-1.8-5.1-4-8-5.6
	c-7.3-4.2-15.5-7-23.3-9.9C438.7,259.5,438,262.4,439.8,263.1z"/>
<path d="M339.6,258.7c9.1,7.7,25.8,14.8,37.5,8.7c5.9-3.1,7.1-10.8,8.6-16.6c2.1-8,3.3-16.1,2-24.4c-0.2-1.2-1.7-1.3-2.5-0.7
	l-1.5,1.3c-1.5,1.2,0.6,3.3,2.1,2.1l1.5-1.2l-2.5-0.7c1.1,7.1,0.2,14.1-1.5,21c-1.4,5.5-2.5,14.2-8.1,16.8
	c-10.5,4.9-25.4-1.6-33.4-8.4C340.2,255.4,338.1,257.5,339.6,258.7L339.6,258.7z"/>
<path class="st4" d="M377.2,231.1c4.2-1.2,2.4,8.5,2.5,12.9c0.1,3.3-0.1,6.7-1.7,9.6c-3.1,5.7-10.5,7.9-16.9,6.9s-12.1-4.7-17.5-8.2
	C343.6,252.3,361.9,235.4,377.2,231.1z"/>
<path d="M377.6,232.5c1.5-0.2,0.7,8.6,0.6,9.6c-0.2,5.6,0,11.4-5.3,14.8c-9.6,6.1-20.5-0.6-28.6-5.9l0.3,2.4
	C354,244.7,365.3,236.2,377.6,232.5c1.8-0.6,1-3.5-0.8-2.9c-12.8,3.9-24.5,12.6-34.3,21.6c-0.6,0.6-0.6,1.6,0,2.1
	c0.1,0.1,0.2,0.2,0.3,0.2c9.8,6.4,27,14.9,35.9,1.9c3.5-5.2,2.9-12.9,2.9-18.9c0-3.3-0.5-7.5-4.7-6.9
	C374.9,229.9,375.7,232.8,377.6,232.5z"/>
<path d="M340.5,319.7c11.2,6.9,20.4,16.6,26.6,28.2c0.9,1.7,3.5,0.2,2.6-1.5c-6.5-12-16-22.1-27.7-29.2
	C340.4,316.1,338.8,318.7,340.5,319.7L340.5,319.7z"/>
<path class="st5" d="M385.3,332.9c10.4,11.1,19,23.8,25.3,37.6c25-20.2,52.1-37.8,80.6-52.5c-8.2-11.5-19.1-20.8-31.7-27.1
	c-2.2-1.3-4.6-2-7.2-2.1c-3,0-5.7,1.6-8.2,3.1c-20.9,12.1-41.9,24.4-60.1,40.3"/>
<path d="M384.2,334c10.3,11,18.7,23.6,25.1,37.3c0.4,0.7,1.4,0.9,2.1,0.5c0.1-0.1,0.2-0.1,0.3-0.2c25-20,51.9-37.5,80.4-52.2
	c0.7-0.4,1-1.3,0.5-2c-6.2-8.5-13.7-15.9-22.4-21.9c-4-2.7-8.3-5.5-12.9-7.1c-4.8-1.7-8.7-0.5-13,1.9c-21.4,11.9-42.7,24.9-61.2,41
	c-1.5,1.3,0.7,3.4,2.1,2.1c16.1-14,34.4-25.2,52.8-36c4.9-2.9,11.2-8.1,17.1-6.6c4.5,1.1,9.1,4.3,12.9,6.9c8.5,5.7,16,12.9,22,21.3
	l0.5-2.1c-28.7,14.8-55.8,32.5-80.9,52.7l2.4,0.3c-6.5-13.9-15.1-26.7-25.5-37.9C385,330.4,382.9,332.5,384.2,334L384.2,334z"/>
<path d="M385.2,321.7l5.6,4.3c1,0.8,2.4,1.6,3.5,0.9c0.8-0.6,1.1-1.8,0.6-2.7c-0.5-0.9-1.4-1.6-2.3-1.9c-1-0.3-1.9-0.8-2.8-1.3
	c-0.8-0.7-1.7-1.2-2.6-1.8c-1-0.4-2.3-0.2-2.6,0.8l0.5,0.2"/>
<path d="M384.5,323c1.7,1.3,3.3,2.6,5,3.9c1,1,2.3,1.6,3.7,1.8c2.8,0.2,4.2-2.7,3.1-5c-0.7-1.2-1.7-2.1-3-2.6
	c-1.4-0.6-2.8-1.4-4.2-2.3c-1.9-1.3-4.6-1.8-5.9,0.6c-0.4,0.7-0.1,1.7,0.6,2.1c0.1,0.1,0.2,0.1,0.3,0.1l0.5,0.2
	c1.9,0.5,2.6-2.4,0.8-2.9l-0.5-0.2l0.9,2.2c0.5-0.9,2.9,1.3,3.4,1.6c1.1,0.6,2.7,0.9,3.6,1.7c1.6,1.4,0,1.2-0.8,0.9
	c-0.7-0.4-1.2-0.8-1.8-1.4l-4.3-3.4C384.5,319.3,383,321.9,384.5,323L384.5,323z"/>
<path d="M444.5,284.4l2.7,6.6c0.5,1.2,1.3,2.6,2.5,2.5c1.1-0.1,1.9-1,1.9-2.1c0-1-0.4-2-1.1-2.8s-1.3-1.6-1.8-2.5
	c-0.4-1-0.8-1.9-1.3-2.8c-0.6-0.8-1.9-1.3-2.7-0.6l0.4,0.4"/>
<path d="M443.1,284.8l2.4,5.8c0.4,1.4,1.2,2.7,2.3,3.6c1.5,1.1,3.6,0.8,4.7-0.7c0.3-0.4,0.5-0.8,0.6-1.2c0.9-3.1-2.2-5.3-3.3-7.8
	c-1-2.3-3-4.8-5.8-3.2c-0.7,0.4-0.9,1.4-0.5,2.1c0.1,0.1,0.1,0.2,0.2,0.3l0.4,0.4c1.3,1.4,3.5-0.7,2.1-2.1l-0.4-0.4l-0.3,2.4
	c0.9-0.5,1.8,2.5,2.1,3.1c0.7,1.2,2,2.2,2.4,3.5c0.4,0.6,0.3,1-0.2,1.1c-0.4,0.3-0.6,0.1-0.8-0.5c-0.4-0.7-0.7-1.4-0.9-2.1L446,284
	C445.3,282.2,442.4,283,443.1,284.8L443.1,284.8z"/>
<path class="st4" d="M406.7,333.5c-0.6,4.3-1,10,3.7,12.3c4.2,2,8-1.6,9.1-5.4c1.3-4.4,0.5-10.1-4-12.4c-2.9-1.6-6.6-0.6-8.2,2.3
	c-0.3,0.6-0.6,1.2-0.7,1.9c-0.3,1.9,2.6,2.7,2.9,0.8c0.5-3.1,4.1-3.4,6-1.3s1.8,5.3,1.1,7.8c-0.8,2.8-3.7,5.3-6.2,2.4
	c-1.8-2-1.2-5.3-0.9-7.7C409.9,332.4,407,331.6,406.7,333.5L406.7,333.5z"/>
<path class="st4" d="M422.3,323c-0.6,4.3-1,10,3.7,12.3c4.2,2,8-1.6,9.1-5.4c1.3-4.4,0.5-10.1-4-12.4c-2.9-1.6-6.6-0.6-8.2,2.3
	c-0.3,0.6-0.6,1.2-0.7,1.9c-0.3,1.9,2.6,2.7,2.9,0.8c0.5-3.1,4.1-3.4,6-1.3s1.8,5.3,1.1,7.8c-0.8,2.8-3.7,5.3-6.2,2.4
	c-1.8-2-1.2-5.3-0.9-7.7C425.5,321.9,422.6,321.1,422.3,323L422.3,323z"/>
<path class="st4" d="M439.5,314.8c-0.6,4.3-1,10.1,3.7,12.3c4.2,2,8-1.5,9.1-5.4c1.3-4.4,0.5-10.1-4-12.4c-2.9-1.6-6.6-0.6-8.2,2.3
	c-0.3,0.6-0.6,1.2-0.7,1.9c-0.3,1.9,2.6,2.7,2.9,0.8c0.5-3.1,4.1-3.4,6-1.3s1.8,5.3,1.1,7.8c-0.8,2.8-3.7,5.3-6.2,2.4
	c-1.8-2-1.2-5.3-0.9-7.7C442.7,313.7,439.8,312.9,439.5,314.8L439.5,314.8z"/>
<path class="st4" d="M456.9,301.4c2.3,6.1,4.2,12.4,5.5,18.9c0.3,1.7,3,1.3,3-0.4V319c0-0.8-0.7-1.5-1.5-1.5s-1.5,0.7-1.5,1.5v0.8
	l3-0.4c-1.3-6.4-3.1-12.7-5.5-18.9C459.2,298.7,456.3,299.5,456.9,301.4L456.9,301.4z"/>
<path d="M301.6,342.1c15-3.4,30.6-2.2,45,3.3c1.8,0.7,2.6-2.2,0.8-2.9c-14.9-5.6-31-6.8-46.5-3.3
	C298.9,339.6,299.7,342.5,301.6,342.1L301.6,342.1z"/>
<path d="M509.5,244.3c-1.3,12.8-5.8,25-13.1,35.5c-1.1,1.6,1.5,3.1,2.6,1.5c7.6-11,12.2-23.7,13.5-37
	C512.8,242.4,509.8,242.4,509.5,244.3L509.5,244.3z"/>
<path d="M510.2,470.6c8.1-9.6,18.8-16.7,30.7-20.6c1.8-0.6,1-3.5-0.8-2.9c-12.4,4.1-23.5,11.5-32,21.4
	C506.8,470,509,472.1,510.2,470.6L510.2,470.6z"/>
<path d="M502,468.3c8.8-11.3,21.4-19,35.5-21.7c1.9-0.4,1.1-3.3-0.8-2.9c-14.6,2.8-27.7,10.8-36.8,22.5
	C498.7,467.7,500.8,469.8,502,468.3L502,468.3z"/>
<path d="M277.8,347.3c-0.2-2,1.2-3.8,3.2-4.1c1.8-0.2,3,1.5,3.2,3.1c0.4,3.7-5,4.6-6.3,1.4c-0.7-1.8-3.6-1-2.9,0.8
	c1.2,3,4.3,4.7,7.5,4c3.2-0.6,5.3-3.7,4.6-6.9v-0.1c-0.6-3.3-3.5-5.9-6.9-5.2c-3.6,0.7-5.9,4.2-5.3,7.8
	C275.2,350,278.1,349.2,277.8,347.3L277.8,347.3z"/>
<path d="M287.5,359.6c0.3,3.6,3.2,6.5,6.9,6.7c3.7,0.2,6.4-2.9,6.6-6.4c0.3-3.5-2.3-6.7-5.8-7s-6.7,2.1-7.6,5.5
	c-0.4,1.9,2.5,2.7,2.9,0.8c0.8-4.2,7.5-4.5,7.5,0.3c0,1.9-1.2,3.8-3.2,3.8c-2.2,0-4-1.6-4.3-3.7
	C290.4,357.7,287.4,357.7,287.5,359.6L287.5,359.6z"/>
<path d="M295.6,370.4c-2.9,3.4-0.9,9,4,8.6c4.5-0.4,5.9-5.9,2.8-8.8c-0.6-0.6-1.6-0.5-2.1,0.1s-0.5,1.5,0,2c2,2.5,5.7,2.9,8.2,0.9
	s2.9-5.7,0.9-8.2c-0.6-0.7-1.3-1.3-2.2-1.7c-1.7-0.8-3.3,1.8-1.5,2.6c1.5,0.5,2.2,2.2,1.7,3.6s-2.2,2.2-3.6,1.7
	c-0.5-0.2-1-0.6-1.3-1l-2.1,2.1c1.1,1.1,1.2,3.1-0.5,3.6c-1,0.4-2.2-0.1-2.6-1.2c-0.3-0.8-0.1-1.7,0.6-2.2
	C299,371,296.9,368.9,295.6,370.4L295.6,370.4z"/>
<path d="M302,385.5c-0.7,3.9,2.5,7.7,6.6,6.3c2.7-1,4.1-4,3.1-6.7c-0.3-0.9-1-1.7-1.7-2.3l-1.8,2.4c3.3,1.8,7.9,0.8,9.5-2.9
	s-1-8-4.8-8.9c-1.9-0.5-2.7,2.4-0.8,2.9c5.4,1.3,2.4,8.9-2.3,6.3c-1.4-0.8-3.2,1.3-1.8,2.4s1.5,1.9,0.5,3.2c-0.4,1.1-1.1,1.3-2,0.5
	c-1.3-0.1-1.8-0.9-1.5-2.3C305.2,384.5,302.3,383.7,302,385.5L302,385.5z"/>
<path d="M498.2,287.4c0.9,1.9,2.2,4,4.5,4.2c1.2,0.1,2.6-0.8,3.8-0.2c0.9,0.6,1.2,1.8,0.7,2.7c-0.2,0.4-0.6,0.7-1.1,0.9
	c-1.8,0.6-1,3.5,0.8,2.9c3.2-1.1,4.9-4.8,2.7-7.7c-1-1.3-2.5-2-4.1-2c-1,0-2.1,0.6-3,0.2s-1.4-1.7-1.7-2.5
	C500,284.1,497.4,285.6,498.2,287.4L498.2,287.4z"/>
<path d="M501.3,288.2l3.5-3.9c1.3-1.4-0.8-3.5-2.1-2.1l-3.5,3.9C497.9,287.5,500,289.7,501.3,288.2z"/>
<path d="M505.9,241.6c-1.7,11.8-5.2,23.3-10.2,34.1c-0.8,1.7,1.8,3.3,2.6,1.5c5.2-11,8.8-22.8,10.5-34.9
	C509.1,240.5,506.2,239.7,505.9,241.6z"/>
<path d="M608,370.5c-3.5-13.1-13.1-23.3-25-29.6c-3-1.6-6-2.9-9.2-4.1c-2.8-1-6.7-2.9-9.7-3c-2.8-0.1-5.3,2-7.7,3.3l4.1,4.1
	c5.1-7,9-14.8,11.6-23.1c2.8-8.9,4.8-19-0.9-27.1c-5.5-7.9-15-13.5-23.3-18c-10.5-5.7-21.8-9.7-33.5-12.1l2.1,3.7
	c2-5.8,3.4-11.8,4.4-17.9c0.3-1.3-0.2-2.7-1.4-3.4c-14.2-9.8-31.1-16.7-47.6-21.5c-33.4-9.7-69.5-8.6-100.8,7.5
	c-20.2,10.4-38,26-51.8,43.9l2.6-1.5c-5-0.2-9.9,0-14.9,0.5l3,3v-0.7c0.1-2.8-4.3-4.3-5.6-1.5l-0.3,0.7l2.6-1.5
	c-14.9,1.5-29.4,5.9-42.7,13c-3.1,1.7-7.2,3.5-9.7,6c-1.8,1.8-1.6,2.8-0.9,5.2c1.2,4.1,3,8,5.1,11.7c1.1,2,2.5,3.8,3.8,5.6
	c0.7,1.1,0.7-0.3,0.7,2.3l1.5-2.6c-14,8.4-27.5,17.8-40.2,28c-4.4,3.5-10.4,6-5.5,11.3c6.5,7.1,13.2,13.9,19.9,20.9l0.6-4.7
	c-9.3,5.3-23.3,8.5-28.7,18.7c-6,11.4,8.7,20.3,17.7,22.9l-0.7-5.5c-2.5,1.5-5,3-7.4,4.5c-0.6,0.4-4.6,3.5-4.3,3.5c-1.7,0-3,1.3-3,3
	l0,0l3-3l0,0c-1.7,0-3,1.3-3,3c0,1.1,0.6,2,1.5,2.6l-0.6-0.5l0.6-4.7c-4.4,3.1-8.7,6.4-12.8,9.8c-1.2,1.2-1.2,3.1,0,4.2
	c6.7,5.8,13.7,11.3,20.9,16.5c6.2,4.3,13.5,9.3,21.2,9.8c8.6,0.6,12-5,17.7-9.9c7.4-6.3,18.1,3.7,24.9,7.3
	c15.6,8.3,32.7,15.2,50,18.6c7.7,1.5,15.5,1.7,22.6-1.9c7.4-3.7,13.4-10.3,19.3-16l-2.9,0.8l4.4,1.3v-5.8l-4.6,1.1
	c-3.3,0.8-2.6,5.9,0.8,5.9l0,0c3.9,0,3.9-6,0-6l0,0v6c16.7-0.2,33.4,1,49.9,3.6l-2.1-3.7v0.1c-0.4,1.6,0.6,3.2,2.2,3.6
	c1.5,0.4,3.1-0.5,3.6-2l0.1-0.1l-3.7,2.1c17.3,2.7,36.4,7.3,51.1-5.4l-3.6,0.5l24.4,17.2c6,4.2,11.9,7.8,19.5,5.4
	c5.5-1.7,11-4.9,15.9-7.8c3.8-2.3,7.3-4.9,10.7-7.7c0.9-0.8,2.4-2.5,3.6-2.9c1.4-0.4,4.4,0.3,6.1,0.2c8.6-0.9,16.6-5.1,23.9-9.4
	c6.3-3.7,12.9-8,15.8-15c6.8-16.1-9-28.5-20.8-36v5.2c7-3.1,11.5-9.9,14.4-16.7l-5.5,0.7c4.3,5.8,11,5.2,16.8,1.9
	C605.7,384.6,609.9,379.5,608,370.5c-0.9-3.8-6.7-2.2-5.9,1.6c1.2,5.5-1.2,8.1-5.7,10.9c-2.6,1.6-7.4,4.4-9.9,1
	c-0.8-1.4-2.7-1.9-4.1-1.1c-0.7,0.4-1.2,1-1.4,1.8c-2.3,5.5-6.2,10.7-11.7,13.1c-2.2,1-1.7,4.1,0,5.2c6.3,4,13.3,8.1,17,14.9
	c3.9,7.1,2.7,14.3-3.3,19.7c-4.9,4.4-11.4,7.8-17.3,10.6c-3.9,2-8.2,3.3-12.6,3.9c-3,0.3-6.1-0.8-8.8,0.7c-5.4,3.1-9.5,7.9-15,11
	c-4.3,2.4-9,5.3-13.7,6.8c-7.4,2.3-13.4-3.7-19-7.7l-20.3-14.3c-1.2-0.7-2.7-0.5-3.6,0.5c-12.7,11-30.5,6.2-45.3,3.9
	c-1.6-0.4-3.2,0.5-3.7,2.1v0.1l5.8,1.6v-0.1c0.2-1.5-0.4-3.4-2.1-3.7c-17-2.7-34.2-4-51.4-3.8c-3.9,0-3.9,6,0,6l0,0c3.9,0,3.9-6,0-6
	l0,0l0.8,5.9l4.6-1.1c2.9-0.7,2.8-5,0-5.8l-4.4-1.3c-1-0.3-2.1,0-2.9,0.8c-5.5,5.3-11.1,11.7-18,15.1c-8.4,4.1-18.1,1.5-26.6-0.9
	c-16.2-4.5-31.7-11-46.2-19.3c-5.4-3.1-11.3-7.7-17.9-6.9c-7,0.8-9.7,7.3-15.1,10.8c-7.7,4.9-18.4-3.4-24.7-7.6
	c-6.8-4.8-13.4-10-19.7-15.5v4.2c3.8-3.1,7.6-6,11.6-8.8c1.4-1,2.3-3.4,0.6-4.7l-0.6-0.5l-1.5,5.6l0,0c1.7,0,3-1.3,3-3l0,0l-3,3
	c1.9,0,3.6-1.9,5.1-2.9c3.1-2.1,6.3-4.1,9.6-6c1.4-0.8,1.9-2.7,1.1-4.1c-0.4-0.7-1-1.2-1.8-1.4c-4.2-1.1-8.1-3.2-11.4-6.2
	c-6.1-5.7-1.6-10.6,3.9-14.2c6.3-4.1,13.4-6.6,19.9-10.3c1.4-0.8,1.9-2.7,1.1-4.1c-0.1-0.2-0.3-0.4-0.5-0.6l-11.3-11.9
	c-2-2.1-4-4.2-5.9-6.3c-0.3-0.4-2.3-2.8-2.6-2.8c-1.8,2.8-2,3.6-0.7,2.3l1.2-1c8.3-6.9,16.9-13.4,25.8-19.5
	c3.8-2.6,7.6-5.1,11.4-7.5c2.5-1.6,7.2-3.1,8.2-6c1.3-3.6-1.6-6.2-3.4-8.8c-1.3-1.9-2.4-3.8-3.4-5.9c-1-2-3.4-6-3.4-8.3l-1.5,2.6
	c7.4-5,15.4-9.2,23.8-12.3c4.9-1.8,9.8-3.2,14.9-4.2c3.2-0.7,6.5-1,9.7-1.6c1.9-0.3,3-0.4,3.8-2.3l-5.6-1.5v0.7c0,1.7,1.3,3,3,3
	c2.5-0.2,5.2-0.1,7.6-0.5c0.9-0.1,2.7-0.3,1-0.3c2.8-0.1,6,1.1,8.4-0.6c1.8-1.3,3.8-4.8,5.3-6.6s3-3.4,4.5-5
	c3.9-4.1,8-8.1,12.4-11.8c16.6-14.2,35.9-24.9,57.4-29.4c31.9-6.8,65.6,0.3,94.6,14.3c6.3,2.9,12.4,6.3,18.1,10.1l-1.4-3.4
	c-1,6.1-2.4,12.1-4.4,17.9c-0.4,1.6,0.5,3.2,2.1,3.7l0,0c10.1,2,19.9,5.3,29,9.9c8.1,4.1,17.4,9.2,23.2,16.3s3.5,16.5,0.9,24.5
	c-2.5,7.5-6.1,14.5-10.7,20.8c-1.8,2.5,1.7,5.5,4.1,4.1l2.7-1.5c0.6-0.4,1.2-0.7,1.8-1c1.4-0.4-0.1,0.2,0.2,0.3
	c5.3,0.8,11.1,3.5,15.8,6c10.5,5.6,19.1,14.3,22.2,26C603.2,375.8,609,374.3,608,370.5z"/>
<path d="M775.1,29.6l-3-3.3l-2.1,2.1c17.9,16.8,34.9,34.7,50.8,53.5l1.5-2.5c-21.1-8.1-40-21-55.1-37.8l-2.1,2.1l53.6,46.4l1.5-2.5
	C799.3,81,779.9,70.5,763,56.5l-1.8,2.4c15.6,10.2,30,22.3,42.9,35.8l1.5-2.5c-16.9-6.2-33-14.4-47.9-24.5l-1.5,2.6
	c11.2,5.7,20.9,13.9,28.2,24.1l1.7-2.2c-12.1-5-23.6-11.5-34.1-19.4c-1.3-1-3.2,1.3-1.8,2.4c8.4,6.6,16,14.4,22.4,23l1.7-2.2
	c-8.7-3.4-16.8-8.1-24.1-14l-1.8,2.3C755.2,89,761,95,765.5,102l1.7-2.2c-7.9-2.9-15.1-7.2-21.3-12.8c-1.4-1.3-3.5,0.8-2.1,2.1
	c5.3,5,9.2,11.3,11.2,18.2l2.2-1.7l-3.6-2.1c-0.7-0.4-1.6-0.2-2.1,0.5s-0.2,1.6,0.5,2.1l0,0l3.6,2.1c0.7,0.4,1.7,0.1,2.1-0.6
	c0.2-0.3,0.2-0.7,0.1-1.1c-2.2-7.5-6.3-14.2-12-19.6l-2.1,2.1c6.6,5.9,14.3,10.6,22.7,13.7c0.8,0.2,1.6-0.3,1.8-1.1
	c0.1-0.4,0-0.8-0.1-1.1c-4.8-7.4-10.9-13.8-18.2-18.8c-1.4-1-3.2,1.3-1.8,2.4c7.6,6.2,16.2,11.2,25.4,14.8c0.8,0.2,1.6-0.3,1.8-1.1
	c0.1-0.4,0-0.8-0.1-1.1c-6.5-8.9-14.2-16.8-22.8-23.7l-1.8,2.3c10.7,8,22.4,14.7,34.8,19.7c0.8,0.2,1.6-0.3,1.8-1.1
	c0.1-0.4,0-0.8-0.1-1.1c-7.6-10.6-17.6-19.2-29.3-25.2c-0.7-0.4-1.6-0.2-2.1,0.5s-0.2,1.6,0.5,2.1l0,0
	c15.1,10.2,31.4,18.6,48.6,24.8c1.5,0.5,2.4-1.5,1.5-2.5c-13-13.8-27.6-25.9-43.5-36.3c-1.4-0.9-3.2,1.3-1.8,2.3
	c17.3,14.3,37.2,25.1,58.6,31.8c0.8,0.2,1.6-0.3,1.8-1.1c0.1-0.5,0-1-0.4-1.4l-53.5-46.4c-0.6-0.6-1.6-0.5-2.1,0.1s-0.5,1.5,0,2
	c15.5,17.2,34.8,30.4,56.4,38.6c1.5,0.6,2.3-1.5,1.5-2.5C807,61,790,43.2,772.1,26.3c-0.6-0.5-1.6-0.4-2.1,0.2
	c-0.4,0.6-0.4,1.3,0,1.9l3,3.3C774.3,33.2,776.4,31.1,775.1,29.6L775.1,29.6z"/>
<path d="M586.2,32.5l3-3.3c0.6-0.6,0.5-1.6-0.1-2.1s-1.5-0.5-2,0c-17.8,17-34.6,35-50.3,53.9c-0.8,1-0.1,3.1,1.5,2.5
	c21.5-8.4,40.8-21.8,56.1-39.1c0.6-0.6,0.5-1.6-0.1-2.1s-1.5-0.5-2,0l-53.2,46.8c-0.6,0.6-0.6,1.6,0,2.1c0.4,0.4,0.9,0.5,1.4,0.4
	c21.3-6.9,41.1-17.9,58.3-32.3c1.3-1.1-0.4-3.3-1.8-2.4c-15.8,10.5-30.3,22.8-43.2,36.7c-1,1,0,3.1,1.5,2.5
	c17.1-6.4,33.4-14.8,48.4-25.2c0.7-0.4,0.9-1.4,0.5-2.1s-1.3-0.9-2-0.5c-11.6,6-21.5,14.7-29,25.4c-0.7,1,0.5,2.7,1.7,2.2
	c12.4-5.2,24-11.9,34.6-20l-1.8-2.3c-8.6,6.9-16.2,14.9-22.6,23.8c-0.4,0.7-0.1,1.6,0.6,2.1c0.3,0.2,0.7,0.2,1.1,0.1
	c9.2-3.6,17.7-8.7,25.3-15c1.3-1.1-0.4-3.3-1.8-2.3c-7.2,5-13.3,11.5-18,18.9c-0.4,0.7-0.1,1.6,0.6,2.1c0.3,0.2,0.7,0.2,1.1,0.1
	c8.3-3.1,16-7.8,22.5-13.8l-2.1-2.1c-5.6,5.4-9.7,12.2-11.8,19.6c-0.2,0.8,0.3,1.6,1.1,1.8c0.4,0.1,0.8,0,1.1-0.1l3.6-2.1
	c0.7-0.4,1-1.3,0.5-2.1s-1.3-1-2.1-0.5l-3.6,2.1l2.2,1.7c1.9-7,5.7-13.3,11-18.3c1.4-1.3-0.7-3.4-2.1-2.1
	c-6.2,5.7-13.4,10.1-21.2,13l1.7,2.2c4.4-7,10.2-13.1,17-17.8l-1.8-2.4c-7.2,6-15.3,10.8-24,14.2l1.7,2.2
	c6.3-8.7,13.8-16.5,22.2-23.2c1.3-1.1-0.5-3.4-1.8-2.4c-10.4,8-21.8,14.6-33.9,19.7l1.7,2.2c7.2-10.2,16.9-18.6,28-24.3l-1.6-2.6
	c-14.8,10.2-30.8,18.6-47.7,24.9l1.5,2.5c12.7-13.7,27-25.8,42.6-36.2l-1.8-2.3c-16.8,14.1-36.1,24.8-57,31.5l1.5,2.5l53.2-46.8
	l-2.1-2.1c-14.9,16.9-33.7,30.1-54.8,38.3l1.5,2.5c15.7-18.9,32.6-36.9,50.4-53.9l-2.1-2.1l-3,3.3C582.7,31.8,584.8,34,586.2,32.5
	L586.2,32.5z"/>
<path class="st4" d="M741,374.1c-2.6,23.5-4.2,55.5-8.6,78.7c-4.7-0.3-13.2,0.2-17.9,0c-6.9-22.3-14.5-57.5-25.3-78.2
	C689.3,374.6,711,369.4,741,374.1z"/>
<path d="M739.5,374.1c-2.8,26.1-3.7,52.5-8.5,78.3l1.5-1.1c-6-0.2-11.9,0.2-17.9,0l1.4,1.1c-8.1-26.1-12.9-54-25.4-78.5l-0.9,2.2
	c16.4-3.9,34.5-3,51-0.5c1.9,0.3,2.7-2.6,0.8-2.9c-17-2.6-35.6-3.5-52.5,0.5c-0.8,0.2-1.3,1.1-1,1.9c0,0.1,0.1,0.2,0.1,0.3
	c12.4,24.3,17.1,51.9,25.1,77.8c0.2,0.6,0.8,1.1,1.5,1.1c6,0.2,11.9-0.2,17.9,0c0.7,0,1.3-0.5,1.5-1.1c4.9-26.1,5.8-52.8,8.6-79.1
	C742.7,372.2,739.7,372.2,739.5,374.1z"/>
<path class="st4" d="M683.5,374.7c-2.2,23.5-3.1,47.3-6.8,70.4c-4-0.2-11.3,0.3-15.3,0c-5.9-22.3-13-49.2-22.2-69.9
	C639.2,375.2,657.8,370,683.5,374.7z"/>
<path d="M682,374.7c-2.2,23.4-3.1,46.9-6.8,70.1l1.4-1.1c-5.1-0.2-10.2,0.2-15.3,0l1.5,1.1c-6.3-23.7-12.4-47.7-22.3-70.3l-0.9,2.2
	c13.9-3.8,29.6-3,43.6-0.5c1.9,0.3,2.7-2.6,0.8-2.9c-14.6-2.5-30.7-3.4-45.2,0.5c-0.8,0.2-1.3,1.1-1,1.9c0,0.1,0.1,0.2,0.1,0.3
	c9.8,22.3,15.8,46.1,22,69.5c0.2,0.6,0.8,1.1,1.5,1.1c5.1,0.2,10.2-0.2,15.3,0c0.7,0,1.3-0.4,1.5-1.1c3.8-23.5,4.7-47.2,6.9-70.9
	C685.2,372.8,682.2,372.8,682,374.7z"/>
<path class="st3" d="M624.4,307.1c-0.7,26.5,0.7,45.3,16.2,71.4c20.3,4.8,38.9-0.5,38.3-2.4c17.1,7.8,43.9,12.8,58.5,7.6
	c17.1-6.2,23.3-52.9,22.7-61.1s-4.6-16.6-12.1-21.4c-11.8,3-24.4,0.7-36.5-1C676.2,295.4,659.1,300.5,624.4,307.1"/>
<path d="M622.9,307.1c-0.3,11.4-0.3,22.8,1.7,34c2.1,11.6,6.1,22.8,11.9,33.1c0.9,1.7,1.9,4.6,3.6,5.6c2,1.2,5.8,1.2,8.1,1.5
	c6,0.8,12.1,0.8,18.1,0.1c2.5-0.3,14.3-1,14.1-5.3l-2.3,1.3c9.7,4.3,20,7.3,30.6,8.8c9.1,1.4,19.1,2.1,28-0.8
	c12.5-4,17.3-20.5,20.2-31.7c3-11.5,6.9-26.2,3.3-38.1c-1.3-4.3-3.5-8.3-6.5-11.6c-1.1-1.2-3.3-3.6-5-4.1c-2-0.6-5.9,0.8-7.9,1
	c-13.5,1.3-27-2.3-40.4-3.4c-26-2.2-50.9,3.4-76.3,8.2c-1.9,0.4-1.1,3.3,0.8,2.9c20.1-3.8,40.2-8.7,60.7-8.8
	c11.2,0,22.1,1.4,33.2,2.9c5.5,0.8,11,1.3,16.5,1.4c2.6,0,5.1-0.2,7.7-0.5c3.7-0.5,6-0.3,8.6,2.5c9.9,10.5,7,25.6,4.4,38.3
	c-2.3,11.7-5.8,28.7-16.1,36.2c-7,5-18.2,4.1-26.3,3.3c-11.7-1.2-23.2-4.3-34-9c-0.7-0.4-1.7-0.1-2.1,0.6c-0.1,0.2-0.2,0.5-0.2,0.7
	c0-0.7-1.2,0.2-2.1,0.5c-1.2,0.4-2.5,0.7-3.8,1c-4.2,0.9-8.5,1.3-12.8,1.3c-4.8,0.1-12.7,0.6-16.7-2.2c-3.8-2.6-6.4-10.8-8.1-15
	c-7.4-17.5-8.3-35.9-7.9-54.6C625.9,305.2,622.9,305.2,622.9,307.1L622.9,307.1z"/>
<path class="st4" d="M652.2,170.7c1.6,6.6,6.5,12.7,13.1,14s13.2-2.3,18.6-6.4c15.7-12,26.5-28.9,36.6-45.9
	c-19.1-3.6-38.6-4.1-57.8-1.4c-3.7,6.2-6.7,12.9-8.8,19.8C651.9,157.2,650.7,164.1,652.2,170.7z"/>
<path d="M650.8,171.1c1.8,6.7,6.4,13.1,13.4,14.9c8.2,2.1,16-2.8,22.1-7.6c15.2-12.1,25.7-28.8,35.5-45.2c0.4-0.7,0.2-1.6-0.6-2.1
	c-0.1-0.1-0.2-0.1-0.3-0.1c-18.4-3.4-37.2-4-55.8-1.7c-3.6,0.5-3.8,0.9-5.6,4.2c-2.1,3.8-3.9,7.8-5.4,11.9
	C651.1,153.6,649,162.2,650.8,171.1c0.4,1.9,3.3,1.1,2.9-0.8c-1.7-8.3,0.5-16.5,3.4-24.3c1.3-3.4,2.8-8.2,5.1-11.1
	c1.6-2.1,3-2.6,5.5-3.1c2-0.3,4-0.5,6-0.6c15.5-1.1,31.2-0.3,46.5,2.5l-0.9-2.2c-7.7,12.9-15.7,25.9-26.3,36.7
	c-5.5,5.6-12.1,12-19.8,14.4c-9.5,2.9-17-3.4-19.5-12.3c-0.2-0.8-1.1-1.3-1.9-1.1S650.6,170.3,650.8,171.1z"/>
<path class="st0" d="M783.2,155.8c-14.7-10.7-30.3-15.4-45.4-19.5c-5.8-1.6-11.6-2.9-17.2-3.9c-10.1,17-20.9,34-36.6,45.9
	c-5.4,4.1-12,7.7-18.6,6.4s-11.5-7.4-13.1-14s-0.3-13.5,1.7-19.9c2.1-6.9,5.1-13.5,8.8-19.8c-69.3,10.1-72.8,43.8-82.1,98.7
	c9.8,44.1,29.1,102.2,33.3,104.7c4.6,2.8,68.3,3.3,95,4.2c6.9,0.2,36,2.6,47.6-11.2c12-14.3,21.7-30.5,28.6-47.9
	C808.6,220.7,798,166.6,783.2,155.8z M717.5,174.2c2-11.8,7.8-22.6,15.2-32c-7.4,9.4-12.1,22.2-14.1,34c-2.2,11.6-0.8,23.7,3.9,34.6
	C717.8,199.2,715.5,186.4,717.5,174.2z"/>
<path d="M783.9,154.5c-18.4-13.1-41-19.5-63-23.6c-0.7-0.2-1.3,0.1-1.7,0.7c-10.4,17.6-22.2,37.5-40.2,48.3
	c-5.3,3.2-11.8,5-17.5,1.6c-5.4-3.2-7.9-9.4-8.4-15.4c-0.9-11.8,5.1-24.5,10.9-34.4c0.4-0.7,0.1-1.7-0.6-2.1
	c-0.3-0.2-0.7-0.2-1.1-0.1c-18.9,2.9-38.9,7.8-53.7,20.8c-11.8,10.3-18,24.8-21.9,39.6c-2.3,8.8-3.9,17.8-5.5,26.8
	c-0.7,4.2-2.4,9.2-2.2,13.4c0.3,6.3,3.1,13.3,4.7,19.3c5.9,23.4,12.9,46.5,21.1,69.1c1.8,5,3.5,11.9,7,16c2.2,2.5,6.3,2.4,9.4,2.6
	c19,1.8,38.1,1.8,57.1,2.2c16.5,0.4,33.6,2.1,50.1,0.7c9-0.8,18.6-2.7,25.8-8.5c4.7-3.8,8.3-9.3,11.8-14.2c4.3-6,8.1-12.2,11.6-18.7
	c13.6-25.3,21.3-53.4,22.5-82.1c0.7-18.2-0.4-40.9-11.1-56.5C787.7,157.9,786,156.1,783.9,154.5c-1.5-1.2-3,1.4-1.5,2.6
	c5.4,4.1,8.2,11.4,10.2,17.6c2.8,9.5,4.4,19.3,4.7,29.2c1.1,27.7-4.9,55.8-16.1,81.1c-5.4,12.2-12.2,23.8-20.3,34.5
	c-3.5,4.7-6.9,9.3-12.1,12.2c-4.4,2.3-9.2,3.9-14.2,4.6c-15.1,2.6-31.1,0.7-46.4,0.3c-18.6-0.4-37.1-0.7-55.7-1.7
	c-3.5-0.2-7-0.4-10.5-0.7c-2-0.2-4.8,0-6.6-0.9c-2.9-1.3-4.3-7-5.4-9.8c-7.7-19.4-13.7-39.6-19.3-59.7c-1.5-5.6-3-11.2-4.5-16.8
	c-1.4-5.6-4.3-12.4-4.1-18.2c0.2-4.3,1.5-8.9,2.2-13.1c0.8-4.4,1.6-8.9,2.5-13.3c3.3-16.3,8-33.4,19.6-45.9
	c14.5-15.6,36.3-21.1,56.6-24.1l-1.7-2.2c-6.5,11.2-13,25.4-11,38.7c1.5,9.8,9.4,18.6,19.9,17.4c11.7-1.3,22-12.5,29.3-20.8
	c8.6-9.9,15.6-21.1,22.3-32.4l-1.7,0.7c21.7,4.1,44.1,10.4,62.3,23.3C784,158.2,785.5,155.6,783.9,154.5z"/>
<path d="M719,174.6c2.1-11.7,7.6-22,14.8-31.4l-2.4-1.8c-14.9,19.4-19.5,46.9-10.3,69.6l2.9-0.8C719.4,198.9,717.2,186.8,719,174.6
	c0.3-1.9-2.6-2.7-2.9-0.8c-1.9,12.8,0.2,25.3,5,37.3c0.7,1.8,3.6,1,2.9-0.8c-8.9-22.1-4.4-48.5,10-67.3c1-1.3-1.3-3.2-2.3-1.8
	c-7.5,9.7-13.3,20.5-15.6,32.7C715.8,175.7,718.7,176.5,719,174.6z"/>
<path class="st4" d="M689.5,105.9c9.9,4.3,10.9,21.2,9.2,30.3c-2.4,12.6-19.7,19.8-30.8,12.3c-5.5-3.7-4.8-13.2-4.2-19.2
	c0.4-4,2.1-15.7,7-16.7C670.7,112.6,680.4,102,689.5,105.9z"/>
<path d="M688.7,107.2c9.5,4.6,10.5,19.4,8.5,28.6c-2.4,11.3-16.9,17.8-27.1,12.4c-8.7-4.6-5.8-21.3-3-29c1.2-3.3,3.4-4.6,5.9-6.8
	c4.4-3.9,10-7.1,16-5c1.8,0.6,2.6-2.2,0.8-2.9c-8.4-3-15.4,3-21.5,7.6c-6.5,4.9-7,18.5-6.6,25.8c0.3,4.5,1.4,9.2,5.3,12
	c4,2.9,9.5,3.7,14.3,3c9.7-1.4,17.7-8.5,19-18.3c1.4-10.1,0.1-24.8-10.2-29.9C688.5,103.8,687,106.4,688.7,107.2z"/>
<path class="st5" d="M656.2,66.1c-9.1-0.9-18.7,2.7-24.3,9.9s-6.5,18-1.4,25.6s16.1,10.8,24.1,6.3c-4.1-3.9-11.6,1.1-11.3,6.8
	s5.6,9.8,11,11.4c13.6,4,29.6-5.2,32.9-19c-1.7,7.6,7.9,13.9,15.5,11.9s12.7-8.8,16.8-15.4c5.2-8.4,10-17.9,8.5-27.6
	s-11.9-18.5-21-14.7c4.2,2.4,9.8-2.7,8.9-7.4s-6.1-7.7-11-7.5s-9.2,2.9-13,5.8c4.6-5.3,1.4-14.3-4.7-17.8s-13.7-2.8-20.5-1
	c-5.5,1.5-11,3.8-15.2,7.8s-6.6,10-5.2,15.6s7.3,10,12.9,8.7"/>
<path d="M656.2,64.6c-15.7-1.1-31.5,10-30.5,27c0.9,14.6,16.3,24.4,29.6,17.6c0.7-0.4,1-1.4,0.5-2.1c-0.1-0.1-0.1-0.2-0.2-0.3
	c-4.6-3.6-10.9-1-13.2,4.2c-3,6.9,3.5,13.4,9.4,15.8c15,6.1,32.6-4.3,36.8-19.3l-2.9-0.8c-1.2,8.1,6.2,14.1,13.8,14.1
	c10.3,0.1,17.4-10.1,22.1-18c5.5-9.1,10.9-20.9,6.5-31.6c-3.4-8.3-12.6-14.7-21.6-11.5c-0.8,0.3-1.2,1.1-1,1.9c0.1,0.5,0.5,0.8,1,1
	c7.4,3.1,13.4-6.4,9.4-12.6c-6-9.3-17.9-4.5-24.9,0.6l2,2c4.5-6.1,1.9-14.8-4-19.1c-8.2-5.9-20.2-3.4-28.8,0.1
	c-8.2,3.3-15.9,10.2-15.9,19.8c-0.1,7.3,5.8,13.3,13.1,13.3c0.7,0,1.4,0,2.1-0.1c1.9-0.3,1.1-3.2-0.8-2.9c-9.7,1.6-13.4-9.8-9.7-17
	c3.3-6.4,9.9-9.7,16.5-11.7s14.6-3.3,20.8,0.4c5.4,3.2,8,10.5,4.2,15.8c-0.9,1.2,0.9,2.9,2,2.1c4.2-3.1,9.3-6.4,14.8-5.3
	c3,0.6,6,2.4,6.7,5.6c0.9,3.8-2.7,7.9-6.7,6.2v2.9c8.1-2.9,16.1,3.3,18.5,11c2.7,8.3-1,17.4-5,24.6c-3.5,6.2-7.6,13.2-13.8,17.1
	c-6.3,4-20.1,2.3-18.5-7.9c0.3-1.9-2.4-2.7-2.9-0.8c-2.8,9.8-11.2,17.1-21.3,18.5c-5,0.7-10.4,0-14.6-2.9c-2.9-2-5.9-5.7-4.9-9.5
	c0.9-3.2,5.4-6.4,8.5-3.9l0.3-2.4c-12.6,6.4-26-4.6-25.1-17.9c1-14.1,14.4-22,27.5-21.1C658.2,67.7,658.2,64.7,656.2,64.6
	L656.2,64.6z"/>
<path d="M669.4,72.7c-2.6-2.1-5.8-3.4-9.2-3.8c-1.9-0.2-1.9,2.8,0,3c2.6,0.3,5,1.3,7.1,2.9C668.7,76,670.9,73.9,669.4,72.7z"/>
<path d="M667.3,75.7c-2.8-0.8-5.8-0.6-8.5,0.4c-1.8,0.7-1,3.6,0.8,2.9c2.2-0.9,4.6-1.1,6.9-0.4c0.8,0.2,1.6-0.4,1.8-1.2
	C668.4,76.6,668,75.9,667.3,75.7L667.3,75.7z"/>
<path d="M701,93.5l6.9-3.2c1.8-0.8,0.2-3.4-1.5-2.6l-6.9,3.2C697.7,91.7,699.3,94.3,701,93.5z"/>
<path d="M703,98c2.5-0.6,5-0.6,7.5-0.2c1.9,0.4,2.7-2.5,0.8-2.9c-3-0.6-6.1-0.5-9.1,0.2C700.3,95.5,701.1,98.4,703,98z"/>
<path d="M661.3,110.4l-4.9,3.8c-0.6,0.6-0.6,1.5,0,2.1s1.5,0.6,2.1,0l4.9-3.8c0.6-0.6,0.6-1.5,0-2.1S661.9,109.8,661.3,110.4
	L661.3,110.4z"/>
<path d="M665.9,112.1l-1.7,3.6c-0.4,0.7-0.1,1.6,0.5,2c0.7,0.4,1.6,0.1,2-0.5l1.7-3.6c0.4-0.7,0.2-1.6-0.5-2.1
	C667.2,111.1,666.3,111.4,665.9,112.1L665.9,112.1z"/>
<path d="M672.9,111.2c-0.4,2.1-0.3,4.4,0.4,6.4c0.6,1.8,3.5,1,2.9-0.8c-0.5-1.6-0.7-3.2-0.4-4.8
	C676.2,110.1,673.3,109.3,672.9,111.2z"/>
<path d="M683.1,53.1c-0.2-2.4-1-4.7-2.4-6.7c-1.1-1.6-3.7-0.1-2.6,1.5c1.1,1.5,1.8,3.3,2,5.2S683.3,55,683.1,53.1L683.1,53.1z"/>
<path d="M679.5,52.4l-4.2-2.4c-0.7-0.4-1.6-0.2-2.1,0.5s-0.2,1.6,0.5,2.1L678,55c0.7,0.4,1.6,0.2,2.1-0.5S680.2,52.8,679.5,52.4
	L679.5,52.4z"/>
<path d="M673.6,54.1l-7.8,0.8c-1.9,0.2-1.9,3.2,0,3l7.8-0.8C675.5,56.9,675.5,53.9,673.6,54.1z"/>
<path d="M694.7,88.3c5.5-3.3,11.6-5.4,17.9-6.1c1.9-0.2,1.9-3.2,0-3c-6.9,0.8-13.5,3-19.4,6.5c-0.7,0.4-0.9,1.4-0.5,2.1
	C693.1,88.5,694,88.7,694.7,88.3z"/>
<path d="M675.8,82c-7.7-1.6-15.7-1-23,1.8c-1.8,0.7-1,3.6,0.8,2.9c6.8-2.6,14.2-3.3,21.4-1.8C676.9,85.3,677.7,82.4,675.8,82z"/>
<path class="st3" d="M673.5,118c-1.6,3.8-3.1,7.7-4.3,11.7c-0.5,1.2-0.6,2.5-0.2,3.7c0.7,1.6,2.5,2.4,4.2,2.9c1.9,0.6,4,1.1,5.7,0
	c1.5-1,1.9-2.9,1.9-4.6c0.1-5.3-2.7-10.1-5.3-14.7C675.5,117.1,674.4,115.8,673.5,118z"/>
<path d="M672,117.6c-1.5,3.6-2.9,7.3-4,11.1c-0.6,2.2-1.2,4.6,0.4,6.6c2.5,3.1,9.7,4.8,12.5,1.4c3.5-4.3,0.7-11.4-1.4-15.6
	c-1.4-2.9-4.2-8.7-7.2-3.7c-1,1.6,1.6,3.2,2.6,1.5c-0.2,0.3,3.3,6.4,3.5,7c1.2,3.5,2.9,9.9-3.5,9.4c-7.9-0.5-1.4-13.1,0.2-16.8
	C675.7,116.6,672.8,115.8,672,117.6z"/>
<path d="M727.9,340.5c2.9,4.5,6.8,8.2,11.4,11c3.7,2.3,9.5,5.3,13.9,4c1.8-0.6,1-3.5-0.8-2.9c-3.9,1.2-9.7-2.4-12.8-4.4
	c-3.6-2.4-6.7-5.6-9.1-9.2C729.4,337.4,726.8,338.9,727.9,340.5L727.9,340.5z"/>
<path d="M733.5,339.8c4.7,6.5,11.6,11.1,19.5,12.8c1.9,0.4,2.7-2.5,0.8-2.9c-7.1-1.5-13.4-5.6-17.7-11.4
	C735,336.7,732.4,338.2,733.5,339.8L733.5,339.8z"/>
<path class="st3" d="M706.7,457.1l1,6.1c8.7,1.2,17.5,1.6,26.3,1.3c1.2,0.1,2.3-0.2,3.3-0.7c1-0.7,1.7-1.8,1.8-3.1
	c0.1-1.2,0.1-2.4-0.1-3.6c-10.7-0.8-21.5-1-32.2-0.7"/>
<path d="M705.3,457.5l1,6.1c0.2,0.6,0.8,1.1,1.5,1.1c8.6,1.1,17.6,2,26.3,1.3c5.4-0.4,7-3.6,6.5-8.9c0-0.8-0.7-1.5-1.5-1.5
	c-10.7-0.7-21.5-1-32.2-0.7c-1.9,0-1.9,3,0,3c10.7-0.2,21.5,0,32.2,0.7l-1.5-1.5c0.8,7.9-9.9,6.1-14.8,5.9s-10-0.6-15-1.3l1.5,1.1
	l-1-6.1C707.9,454.8,705,455.7,705.3,457.5L705.3,457.5z"/>
<path class="st5" d="M706.6,457.9c-0.9-5.6,2.8-11.1,7.8-13.8s10.9-2.9,16.5-2.2c1.8,0.1,3.5,0.7,4.8,1.8c3.3,3.2,4,10.7,3.1,15.4
	c-10.4,2-21.6,0.5-32.1-0.5"/>
<path d="M708.1,457.9c-0.7-7.5,5.3-12.9,12.2-14.3c3.4-0.7,6.8-0.7,10.2-0.2c4.2,0.6,6,3.1,6.8,7.2c0.4,1.9,1.2,5.9-0.6,7.3
	s-8,0.6-10.3,0.6c-6.6-0.1-13.2-0.9-19.7-1.5c-1.9-0.2-1.9,2.8,0,3c10.8,1,21.7,2.3,32.5,0.4c0.5-0.1,0.9-0.5,1-1
	c0.7-4.5,0.7-9.5-1.3-13.7c-2.3-4.7-6.6-5.5-11.4-5.6c-10.6-0.5-23.6,5.2-22.4,17.8C705.3,459.9,708.3,459.9,708.1,457.9
	L708.1,457.9z"/>
<path d="M727.6,440.6c-0.7-3.1-3-4.9-6.1-5.5c-2.7-0.5-8.2-0.6-9.9,2.1c-5.1,8.1,13.6,4.8,15.9,4.6c0.7,0,1.2-0.5,1.5-1.1
	c0.5-1.8,1.6-3.4,3.2-4.5c0.7-0.6,1.5-1,2.4-1.1c2.1-1.1,2.7-0.1,1.8,3c-1.7,1.7-7.9,1.4-10.1,1.5c-1.9,0.1-1.9,3.1,0,3
	c3.2-0.2,20.7-1.9,14.4-9.3c-4.8-5.6-13,1.6-14.6,6.4l1.4-1.1l-5.3,0.5c-1.1,0.1-4.2,0.9-5.3,0.5h-1.1c0.1-1.7,0.9-2.4,2.4-2
	c2.5-0.8,5.9,0.7,6.6,3.5C725.1,443.2,728,442.4,727.6,440.6L727.6,440.6z"/>
<path d="M654.2,390.5c0,2.9,0.8,5.7,2.2,8.3c0.4,0.7,1.3,1,2.1,0.5c0.7-0.4,1-1.3,0.5-2.1l0,0c-1.2-2.1-1.8-4.4-1.8-6.7
	C657.2,388.6,654.2,388.6,654.2,390.5L654.2,390.5z"/>
<path d="M662.3,396.8l0.7,5c0.2,0.8,1.1,1.2,1.8,1c0.8-0.2,1.2-1.1,1-1.9l-0.7-5c-0.2-0.8-1.1-1.2-1.8-1
	C662.6,395.2,662.2,396,662.3,396.8L662.3,396.8z"/>
<path d="M657.3,409l2.2,7.5c0.3,0.8,1.1,1.2,1.9,1c0.7-0.2,1.2-1,1-1.7l-2.2-7.6c-0.2-0.8-1.1-1.2-1.9-1
	C657.6,407.4,657.1,408.2,657.3,409L657.3,409z"/>
<path d="M665.9,417.4l0.4,8c0.1,1.9,3.1,1.9,3,0l-0.4-8C668.8,415.5,665.8,415.5,665.9,417.4z"/>
<path d="M672.7,405.6v9.6c0,0.8,0.7,1.5,1.5,1.5s1.5-0.7,1.5-1.5v-9.6c0-0.8-0.7-1.5-1.5-1.5S672.7,404.8,672.7,405.6z"/>
<path d="M671,391.8l1.8,7.1c0.5,1.9,3.4,1.1,2.9-0.8l-1.8-7.1C673.5,389.1,670.6,389.9,671,391.8L671,391.8z"/>
<path d="M705.1,391.6l1.7,5.5c0.6,1.8,3.5,1,2.9-0.8l-1.6-5.5C707.4,389,704.5,389.8,705.1,391.6L705.1,391.6z"/>
<path d="M710.2,404.6l2.5,8.4c0.5,1.9,3.4,1.1,2.9-0.8l-2.5-8.4C712.5,402,709.6,402.8,710.2,404.6z"/>
<path d="M715.1,395l2.5,8c0.6,1.8,3.5,1,2.9-0.8l-2.5-8C717.4,392.4,714.5,393.2,715.1,395z"/>
<path d="M722.2,408.9v8.8c0,0.8,0.7,1.5,1.5,1.5s1.5-0.7,1.5-1.5v-8.8c0-0.8-0.7-1.5-1.5-1.5S722.2,408,722.2,408.9z"/>
<path d="M730.1,398.4l-0.8,6.7c-0.2,1.9,2.8,1.9,3,0l0.8-6.7C733.4,396.4,730.4,396.5,730.1,398.4z"/>
<path d="M728.1,423.6l-0.4,2.5c-0.2,0.8,0.2,1.6,1,1.9c0.8,0.2,1.6-0.3,1.8-1l0.4-2.5c0.2-0.8-0.2-1.6-1-1.8
	C729.2,422.3,728.3,422.8,728.1,423.6L728.1,423.6z"/>
<path d="M716.4,423.1l1.7,7.1c0.4,1.9,3.3,1.1,2.9-0.8l-1.7-7.1C718.9,420.4,716,421.2,716.4,423.1z"/>
<path class="st5" d="M679.7,456.1c0.1-3.3,0.3-6.5,0.4-9.8c0.1-1.5,0-3.2-1-4.2c-1-0.7-2.2-1.1-3.4-1l-15.4-0.9l3.2-0.5
	c-6.5,0.2-12.5,3.6-18.1,6.9l-15.2,8.9C646.5,458.9,663.3,459.1,679.7,456.1z"/>
<path d="M681.2,456.1c0.2-3.9,2.3-12.3-1.4-15.3c-1.7-1.4-4.1-1.2-6.1-1.4c-4.5-0.3-9-0.5-13.5-0.8l0.4,3l3.2-0.5
	c1.7-0.3,1.3-3.1-0.4-3c-12.4,0.9-23.7,9.9-34,16c-0.7,0.4-0.9,1.4-0.5,2.1c0.2,0.3,0.5,0.6,0.9,0.7c16.6,3.4,33.7,3.6,50.3,0.7
	c1.9-0.3,1.1-3.2-0.8-2.9c-16.2,2.8-32.7,2.6-48.8-0.6l0.4,2.7c9.8-5.7,20.9-14.8,32.5-15.6l-0.4-2.9l-3.2,0.5
	c-1.8,0.3-1.2,2.9,0.4,3c4.5,0.3,10-0.2,14.4,0.9c6,1.5,3.7,8.8,3.5,13.6C678.1,458.1,681.1,458.1,681.2,456.1z"/>
<path class="st3" d="M630.1,455.5l-0.3,0.2c-0.8,0.4-1.6,1-2.1,1.8c-1.1,1.8,0,4.3,1.8,5.4s4,1.1,6.2,1.1h37c1.7,0,3.5,0,4.9-1.1
	c1.8-1.4,2-3.9,2.1-6.1c0-0.2,0-0.4,0-0.6C663.2,459.1,646.4,458.9,630.1,455.5z"/>
<path d="M629.4,454.2c-3.4,2-5.1,5.6-2,8.9c1.7,1.8,4.3,2.1,6.6,2.3c4.7,0.4,9.6,0,14.3,0c8.5,0,17.9,1,26.3-0.1
	c5.2-0.7,6.4-4.5,6.6-9.2c0-0.8-0.7-1.5-1.5-1.5c-0.1,0-0.2,0-0.4,0c-16.2,2.8-32.7,2.6-48.8-0.6c-1.9-0.4-2.7,2.5-0.8,2.9
	c16.6,3.4,33.7,3.6,50.3,0.7l-1.9-1.5c-0.3,6.8-5.4,6.3-10.4,6.3h-30.2c-1.2,0-2.4,0-3.5,0c-4.2-2.7-5.3-4.5-3.1-5.6
	c0.7-0.4,1-1.3,0.5-2.1S630.1,453.8,629.4,454.2z"/>
<path d="M658.8,439c-2.1-2.5-14.3-17.1-17.4-9.8c-1.2,2.8,0.8,6.3,2.8,8.2c3.5,3.3,8.1,2.5,12.5,3.2l0.4-2.9
	c-4.5-0.5-21.2-4.6-19.9,4.9c0.5,2.5,2.6,4.3,5.1,4.5c4.3,0.5,8.4-2.8,11.8-4.9c0.7-0.4,0.9-1.4,0.5-2.1s-1.3-0.9-2-0.5
	c-1.6,0.9-3.2,1.9-4.8,2.8c-1.3,0.7-3.1,1.8-4.6,1.7l-1.9-0.5c-1-2.7-0.5-4.1,1.7-4.1c4-1.3,10,0.6,14.1,1.1c1.7,0.2,2.1-2.7,0.4-3
	c-2.6-0.4-5.3-0.2-7.8-0.8c-1.5-0.3-2.9-1.2-4-2.4c-0.6-0.6-1.1-1.4-1.4-2.3c-0.7-1.3-0.5-1.8,0.5-1.4c1.5-0.5,5.3,3.6,6.5,4.7
	c1.9,1.8,3.6,3.6,5.3,5.6C657.9,442.6,660,440.5,658.8,439L658.8,439z"/>
<path d="M647.8,446.5l2.9,4.8c0.4,0.7,1.3,1,2.1,0.5c0.7-0.4,1-1.3,0.5-2.1l0,0l-2.9-4.8c-0.4-0.7-1.4-0.9-2.1-0.5
	C647.6,444.9,647.4,445.8,647.8,446.5z"/>
<path d="M650.8,445.1l4,4.5c1.3,1.5,3.4-0.7,2.1-2.1L653,443C651.7,441.5,649.6,443.7,650.8,445.1L650.8,445.1z"/>
<path d="M655.4,443.6c1.6,0.8,2.9,1.9,4,3.3c0.6,0.6,1.5,0.6,2.1,0s0.6-1.5,0-2.1c-1.2-1.6-2.8-2.8-4.5-3.7
	C655.2,440.1,653.7,442.7,655.4,443.6L655.4,443.6z"/>
<path class="st4" d="M805.8,186.5c-5.2-24.9-42.7-52.4-68.1-50.3c-23.3,16.7-20.2,53.4-30,83.4c-0.1,0.2-0.2,0.4-0.3,0.6L628,235.6
	c31.5,61.7,86,58.7,105.9,54.2c16.8-3.9,31.8-13.3,44-25.5c2.3-2.3,4.5-4.7,6.6-7.2C800.9,237.7,811,211.4,805.8,186.5z"/>
<path d="M807.3,186.1c-4.8-21.1-25.5-38-44.5-46.2c-4.8-2.1-9.8-3.7-15-4.6c-3.8-0.6-8.8-1.7-12,0.6c-8.5,5.8-13.5,16.1-16.5,25.5
	c-3.8,11.7-5.4,24-7.7,36c-1.2,6.2-2.4,12.4-4.2,18.4c-0.3,0.9-1.9,4.1-0.3,3c-0.1,0-0.2,0-0.2,0c-0.5,0.2-1,0.3-1.6,0.3
	c-13.4,2.1-26.7,5.1-39.9,7.7l-37.8,7.3c-0.8,0.2-1.3,1.1-1,1.9c0,0.1,0.1,0.2,0.1,0.3c15.8,30.4,42.5,53,77.3,56.5
	c33.1,3.4,63.8-11.8,84.2-37.9C803.3,235.6,812.1,210.7,807.3,186.1c-0.4-1.9-3.3-1.1-2.9,0.8c8.4,43.3-26.8,89.4-67.8,100.6
	c-21.8,6-46.5,2.8-66.2-8c-18.2-10.1-31.6-26.4-41.1-44.6l-0.9,2.2l72.2-13.9c2.1-0.4,6.3-0.4,8.1-1.8c1.2-1,1.5-4,1.9-5.4
	c0.8-2.8,1.5-5.6,2.1-8.4c1.4-6.2,2.5-12.4,3.5-18.6c2-11.1,3.8-22.6,8.4-33c2.1-4.9,4.9-9.5,8.5-13.4c1.9-2.1,4-4.4,6.9-4.7
	s6.1,0.3,8.9,0.9c12.9,2.6,25,9.6,35,18.1c9.3,7.9,17.8,18.1,20.6,30.3C804.8,188.8,807.7,188,807.3,186.1z"/>
<path class="st4" d="M704.8,206c-8.9,2.3-62.3,28.1-93.3,14.3c-46.9-20.9,41.4-87.6,41.4-87.6c-21,2.8-40.8,6.3-55.9,14
	c-16.3,8.3-49.1,29.8-62.7,64c-7,17.7-12.5,70.6,70.3,76.4c53.1,3.7,79.8-18.8,102.8-66.8C707.5,220.3,715.2,203.3,704.8,206z"/>
<path d="M704.5,204.5c-5.2,1.4-10.3,3.8-15.3,5.7c-8.7,3.3-17.7,6.2-26.7,8.5c-17.2,4.3-41.7,8.7-56.8-3.7
	c-10.2-8.4-5.8-21.5-0.1-31.1c7.2-12.3,17.4-22.8,27.8-32.4c6.5-6.2,13.3-12,20.5-17.4c0.7-0.5,0.9-1.4,0.4-2.1
	c-0.3-0.5-1-0.8-1.6-0.7c-20.8,2.8-42,6.2-60.6,16.6c-13.8,7.6-26.3,17.3-37.1,28.8c-15.6,16.7-28.2,38.3-25.1,61.8
	c3.3,24,22.8,38.9,45,45.2c31.3,9,70.1,8.8,96.9-11.9c14.2-10.9,24.3-26.1,32.6-41.7C706.8,225.3,719.4,201.4,704.5,204.5
	c-1.9,0.4-1.1,3.3,0.8,2.9c6.3-1.3,2.5,8.6,1.2,11.6c-2.9,6.6-6.3,12.9-10.1,19c-7.5,12.6-16.8,24.5-28.8,33.1
	c-25.8,18.3-62,18-91.3,9.8c-21-5.9-39.8-19.4-43.3-42.1c-3.2-20.9,7.1-40.4,20.3-55.9c11-12.7,24.1-23.4,38.7-31.6
	c18.8-10.8,40.3-14.3,61.5-17.1l-1.2-2.8c-18.2,13.8-36.7,30.3-48.7,49.9c-5.8,9.4-11,22.4-3.4,32.4c10.8,14.1,33.6,13.2,49.1,10.8
	c11.8-2,23.5-5.1,34.7-9.3c7.1-2.5,14-5.8,21.3-7.8c0.8-0.3,1.2-1.1,1-1.9C706,204.8,705.2,204.4,704.5,204.5z"/>
<path class="st4" d="M617.3,207.4c-4-1.4-8.8-1.2-12,1.5c-2.8,2.3-4.1,6-5,9.5c-0.9,2.8-1.2,5.7-1,8.6c0.4,2.9,2,5.7,4.6,6.9
	c2.4,0.9,5.1,0.8,7.4-0.4c2.3-1.1,4.5-2.4,6.6-3.8c6.5-3.9,14.1-5.6,21.7-5.1C636.8,219,622.9,210.3,617.3,207.4"/>
<path d="M617.7,205.9c-5.9-1.7-12.1-0.9-15.8,4.5c-3.5,5.1-5.8,14.1-3.2,20c2.5,5.5,8.1,6.6,13.4,4.5c4.4-1.8,8-5,12.5-6.6
	c4.8-1.7,9.9-2.4,15-2c0.8,0,1.5-0.7,1.5-1.5c0-0.3-0.1-0.5-0.2-0.7c-4.5-8-15-13.6-22.8-17.8c-1.7-0.9-3.2,1.7-1.5,2.6
	c7.4,4,17.5,9.3,21.7,16.7l1.3-2.3c-4.8-0.3-9.6,0.2-14.2,1.6c-4.7,1.5-8.5,4.2-12.8,6.5c-4.1,2.2-10,2.4-11.6-3.2
	c-0.9-3.2,0-6.9,0.9-10c2.2-7.6,7.1-11.5,15-9.2c0.8,0.2,1.6-0.3,1.8-1.1C618.8,206.9,618.4,206.2,617.7,205.9L617.7,205.9z"/>
<path d="M630.7,351.5c4.2-2.9,7.1-7.3,8-12.3c0.3-1.9-2.5-2.7-2.9-0.8c-0.7,4.2-3.1,8-6.6,10.5C627.6,350.1,629.1,352.7,630.7,351.5
	L630.7,351.5z"/>
<path d="M633.5,358.5c5.5-4.7,9.2-11.3,10.4-18.5c0.3-1.9-2.6-2.7-2.9-0.8c-1.1,6.7-4.5,12.8-9.6,17.1
	C629.9,357.6,632.1,359.7,633.5,358.5L633.5,358.5z"/>
<path d="M668.9,339.7c-0.4,13.2,2.6,26.3,8.7,38.1c0.9,1.7,3.5,0.2,2.6-1.5c-5.8-11.3-8.6-23.9-8.3-36.6
	C671.9,337.8,668.9,337.8,668.9,339.7z"/>
<path d="M680.3,373.8c0.5-1.8,1.5-4,1.4-5.9c-0.1-2.5-2.1-5.8-2.7-8.4c-1.5-6.7-1.6-13.6-0.3-20.3c0.3-1.9-2.6-2.7-2.9-0.8
	c-1,5.4-1.2,11-0.6,16.5c0.8,6.3,4,11.9,2.2,18.1c-0.2,0.8,0.4,1.6,1.2,1.8C679.4,374.9,680.1,374.5,680.3,373.8L680.3,373.8z"/>
<path d="M654.2,132c-8.3,13-10.5,28.5-8.1,43.6c1.4,9.6,9.6,16.7,19.3,16.7c14.6-0.3,27.3-10.4,37-20.3c10.8-10.8,19-23.9,23.9-38.4
	c0.6-1.8-2.3-2.6-2.9-0.8c-4.2,12.4-10.9,23.9-19.8,33.6c-8.6,9.5-19.4,19.3-32.3,22.1c-12.5,2.8-21.4-4.1-22.7-16.7
	c-1.4-13.5,0.8-26.7,8.1-38.3C657.8,131.9,655.2,130.4,654.2,132L654.2,132z"/>
<path d="M607.6,232.7c1.9-4.8,6-8.4,11-9.6c1.9-0.5,1.1-3.4-0.8-2.9c-6,1.5-10.9,5.9-13.1,11.7C604,233.7,606.9,234.5,607.6,232.7
	L607.6,232.7z"/>
<path d="M601.6,229.3c1.5-3.6,4.5-6.3,8.3-7.4c1.8-0.5,1.1-3.4-0.8-2.9c-4.7,1.4-8.5,4.9-10.3,9.5
	C598,230.3,600.9,231.1,601.6,229.3L601.6,229.3z"/>
<path d="M798.8,241.6c7.6-14.2,12.4-30.2,11.2-46.5c-0.9-12.8-5.9-23.4-14.3-33c-8.7-9.9-19.5-17.9-31.6-23.3
	c-5.3-2.4-10.8-4.2-16.5-5.1c-2.6-0.4-5.1-0.5-7.7-0.6c-4.8-0.2-9.6-1.9-14.3-2.9l1.3,5l0,0c1.2-1.2,1.2-3.1,0-4.2
	c-0.6-0.6-1.3-0.9-2.1-0.9c-4,0-8.5-1.6-12.5-2.2c-4.3-0.6-8.7-1-13-1.4l3,3c0-3.7-0.3-7.5-1-11.2l-2.9,3.8
	c15.2,0.8,25.4-17.5,30.2-29.5c5.3-13.5,2.1-32.2-14.6-35.1l1.3,5c5.7-5.4,4.4-13.4-2.3-17.3c-7.7-4.4-16.1-0.5-22.5,4.2l4.1,4.1
	c5-6.7,2-16.4-4.4-21c-8.6-6.2-21-3.9-30.1-0.2c-8.8,3.6-17.1,11-17,21.2c0,8.1,6.5,14.8,14.6,14.8c0.8,0,1.6-0.1,2.4-0.2l-1.6-5.8
	c-6.3,1.5-12.4,0.7-18.5,3.6c-6.7,3-11.8,8.6-14.3,15.5c-5.1,14.7,3.9,29.4,19.3,31.3l-2.6-4.5c-3.5,5.3-1.9,11.4,2.5,15.6
	c5,4.9,12.3,6.4,19.1,5.8l-3-3c-0.2,1.4-0.3,2.7-0.4,4.1l2.2-2.9c-25.2,3.4-51.5,6.9-73.8,19.9c-18,10.5-34.4,24.4-46.3,41.6
	c-15.1,21.8-21.6,51-4,73.5c13.6,17.3,36.3,23.6,57.2,26.2l-2.9-2.2c4.3,13.8,8.6,27.8,14.2,41.2c1.1,2.6,2.2,6.2,4.5,8.2
	c3.2,2.8,9.9,2.3,13.8,2.6l-3-3c1,8,2.9,15.9,5.7,23.5c3.4,9,8.7,17,12.2,25.9c7,18,12,36.8,17,55.5l2.1-3.7
	c-6.5,1.5-12.2,4.9-17.9,8.3l-9.3,5.5c-2.1,1.2-4.9,2.4-6.5,4.4c-2.5,3.2-1.1,7.7,2.1,9.9c4.7,3.2,12.4,1.8,17.7,1.8h21.5
	c4.7,0,11.2,1.1,14.2-3.5c2.6-4,1.8-10.7,2-15.1s-0.1-8.4-4.9-9.9l2.1,3.7c3.1-21.3,4.2-42.7,6.1-64.1l-3.8,2.9
	c2.6,1,6.5,1.5,8.1,3.7c1.5,2.1,2.2,5.5,3,7.9c2.1,5.9,4,11.9,5.8,18c3.5,11.9,6.6,23.9,10,35.8l0.8-2.9c-4.8,4-7.6,9.8-6.3,16
	c0.4,1.3,1.6,2.2,2.9,2.2h0.2l-2.9-2.2c0.3,1.5,0.5,3.1,0.8,4.6s1.7,2,2.9,2.2c6.8,0.9,13.7,1.4,20.6,1.4c4.4,0,10.1,0.8,12.7-3.6
	c2.1-3.5,1.4-9.5,0.8-13.4c-0.6-4.2-2.3-8.5-6.3-10.5l1.4,3.4l0.4-2.5l-2.1,2.1c3.7-0.8,7.8-2.7,7.7-7.1c-0.1-4-4-6-7.6-5.7l3,3
	c2-17,3.2-34.1,4.8-51.1l-1.5,2.6c8.2-5.9,12.2-16.2,15.1-25.5c3.1-10.1,5.1-20.5,6-31c0.1-1.3-0.2-3.1,0.2-4.4
	c0.5-1.9,4.6-6.1,6.2-8.4c5.1-7.4,9.6-15.2,13.5-23.3c7.8-16.3,13.3-33.5,16.4-51.3c0.7-3.8-5.1-5.4-5.8-1.6
	c-3,17.2-8.3,34-15.8,49.8c-3.6,7.6-7.8,14.8-12.5,21.8c-2.2,3.3-6.1,7-7.7,10.6c-0.4,1.3-0.6,2.7-0.4,4.1c-0.5,9.3-2,18.6-4.6,27.6
	c-2.7,10.2-6.3,19-13.7,26.5c-2.4,2.4-1.8,6.3-2.1,9.5c-0.4,4.9-0.8,9.7-1.3,14.6c-0.9,9.9-1.8,19.8-2.9,29.6c0,1.7,1.3,3,3,3
	c1.8-0.1-1.2,0.9-1.7,1c-1,0.3-1.8,1.1-2.1,2.1c-0.1,0.8-0.2,1.7-0.3,2.5c-0.3,1.3,0.2,2.7,1.4,3.4c2.8,1.4,3.5,5.4,3.6,8.3
	c0.1,1.4,0.1,2.7-0.1,4.1c0.5,1.8-0.2,3.1-2.1,4c-0.9,0-1.9,0-2.8,0.1c-7.8,0.1-15.7-0.4-23.5-1.4l2.9,2.2l-0.8-4.6
	c-0.4-1.3-1.5-2.2-2.9-2.2H707l2.9,2.2c-0.8-4.2,1.8-7.7,4.8-10.2c0.8-0.8,1.1-1.9,0.8-2.9c-3.9-13.5-7.3-27.2-11.5-40.6
	c-2-6.6-4.2-13.2-6.8-19.7c-0.8-1.9-1.3-4.6-3.1-5.9c-2.5-1.7-7-2.3-9.8-3.4c-2-0.8-3.7,1.1-3.8,2.9c-1.8,20.8-2.8,41.8-5.8,62.5
	c-0.4,1.6,0.5,3.2,2.1,3.7s0.3,9.9,0.2,11c-0.3,5-2.3,5.8-7,5.8h-24.4c-3.3,0-8.2,1-11.3,0c-7-2.4,2.3-5.6,4.4-6.8
	c7.1-4.2,14.3-9.3,22.4-11.1c1.6-0.4,2.5-2.1,2.1-3.7c-4.8-18.1-9.7-36.3-16.3-53.9c-3.3-8.8-8.4-16.6-11.9-25.3
	c-3.1-7.8-5.3-15.9-6.3-24.3c-0.1-1.6-1.4-2.9-3-3c-3-0.2-8.6,0-10.2-1.7c-2.1-2.4-3.2-6.7-4.3-9.6c-4.6-11.9-8.5-24.1-12.2-36.2
	c-0.4-1.3-1.6-2.2-2.9-2.2c-18.2-2.3-38.1-7.6-50.8-21.8c-7.7-8.6-11.3-20-11.1-31.5c0.2-12.3,4.9-23.4,11.4-33.8
	c10.8-17,26.5-30.8,43.6-41.3c22.7-13.9,49.4-17.6,75.4-21.1c1.4-0.2,2.1-1.7,2.2-2.9c0.1-1.4,0.3-2.7,0.4-4.1c0-1.7-1.3-3-3-3
	c-5.8,0.5-22.5-3.1-16.4-12.5c1.4-2.1-0.5-4.3-2.6-4.5c-13.7-1.7-18.5-17.4-11.2-28.2c3.4-4.9,8.9-8,14.7-9.2
	c3.9-0.8,7.8-0.3,11.7-1.2s2.1-6.4-1.6-5.8c-8.4,1.4-11-8.8-8-14.8s9.4-9.2,15.6-11s13.9-3.3,19.7,0.3c4.7,2.8,7,9.1,3.6,13.7
	c-1.8,2.4,1.7,5.8,4.1,4.1c3.3-2.4,7.3-5.2,11.6-5.3c4.7-0.1,11,4.3,6,9c-1.5,1.5-0.9,4.6,1.3,5c15,2.7,14.4,19.4,9.3,30.3
	c-4.2,8.9-11.8,23.2-23.3,22.6c-2.1-0.1-3.2,2-2.9,3.8c0.6,3.2,0.8,6.4,0.8,9.6c0,1.6,1.4,3,3,3c5,0.4,10,0.9,15,1.6
	c3.4,0.5,7.1,1.9,10.5,1.9l-2.1-5.1l0,0c-1.5,1.5-0.9,4.5,1.3,5c4.2,0.9,8.7,2.6,12.9,3.1c2.1,0.2,4.3-0.1,6.4,0.1
	c5.3,0.5,10.5,1.8,15.4,3.8c11.3,4.6,21.6,11.5,30,20.3c8.1,8.4,13.9,18.1,15.1,30c1.6,15.8-2.8,31.4-10.3,45.2
	C791.8,242,797,245,798.8,241.6z"/>
<path d="M640.2,435.6c-6.5,3-5.7,11.9,1.6,13c3.8,0.6,7.2-1.6,10.3-3.5c2-1.1,4.1-1.8,6.4-2.1c2.3-0.5,2.7-3.4,1.3-5
	c-1.7-1.9-3.3-1.8-5.8-2.1v6l2.1,0.2c2.9,0.5,5-2.6,2.9-5c-3-3.4-12.6-15.2-17.9-10.1c-4.9,4.7,1.5,12.7,6.5,14.1l0.8-5.9
	c-2.5-0.4-5-0.4-7.5,0.1c-3.8,0.9-2.2,6.6,1.6,5.8c2-0.3,3.9-0.3,5.9,0.1c3.4,0.4,3.9-5,0.8-5.9c-0.7-0.2-1.3-0.6-1.8-1.1
	c-0.7-0.6-1.2-1.5-1.5-2.4c-0.1-1.5-0.4-1.4-0.9,0.3c0.8,0.6,1.7,1.2,2.5,1.9c2.6,2.2,5.1,4.6,7.4,7.2l2.9-5
	c-1.3-0.2-2.4-0.4-3.7-0.4c-3.9-0.3-3.8,5.6,0,6l2.9,0.3l-2.1-0.9l0.8,0.9l1.3-5c-1.8,0.2-3.5,0.6-5.2,1.2c-1.6,0.9-3.2,1.8-4.8,2.8
	c-0.9,0.5-2.8,1.8-3.8,1.5c-1.6-0.4-1.4-1.2,0.1-1.9C646.7,439.2,643.7,434,640.2,435.6z"/>
<path d="M657.8,436.3L657.8,436.3c-1.7-0.4-3.3,0.5-3.8,2.1c-0.3,1,0,2.1,0.8,2.9c0.6,0.6,1.4,0.9,2.3,0.9c0.8,0,1.6-0.3,2.1-0.9
	c0.6-0.6,0.9-1.3,0.9-2.1c0-0.8-0.3-1.6-0.9-2.1c-0.6-0.5-1.3-0.8-2.1-0.9H657l2.1,0.9l0,0l-2.9,5h0.1c0.8,0.2,1.6,0.1,2.3-0.3
	s1.2-1,1.4-1.8C660.3,438.5,659.5,436.6,657.8,436.3z"/>
</svg>
