<?xml version="1.0" standalone="no"?>
<!DOCTYPE svg PUBLIC "-//W3C//DTD SVG 20010904//EN"
 "http://www.w3.org/TR/2001/REC-SVG-20010904/DTD/svg10.dtd">
<svg version="1.0" xmlns="http://www.w3.org/2000/svg"
 width="700.000000pt" height="700.000000pt" viewBox="0 0 700.000000 700.000000"
 preserveAspectRatio="xMidYMid meet">
<metadata>
Created by potrace 1.11, written by Peter Selinger 2001-2013
</metadata>
<g transform="translate(0.000000,700.000000) scale(0.100000,-0.100000)"
fill="#000000" stroke="none">
<path d="M2530 6597 c-65 -43 -470 -617 -710 -1007 -743 -1203 -1298 -2566
-1634 -4010 -68 -293 -83 -374 -92 -486 -8 -106 13 -225 51 -289 75 -129 239
-196 435 -180 1497 126 3056 391 4490 765 1261 329 1541 436 1714 656 118 151
152 308 106 490 -57 221 -177 382 -662 884 -1086 1124 -2166 2090 -3333 2982
-315 240 -306 235 -365 195z m465 -1017 c457 -349 961 -773 1410 -1185 373
-343 1022 -994 1244 -1249 204 -235 226 -433 67 -592 -103 -102 -201 -145
-591 -259 -1147 -334 -2290 -557 -3495 -681 -318 -32 -411 -33 -472 -6 -70 31
-108 101 -108 201 0 61 40 251 120 566 275 1085 708 2071 1295 2945 178 265
305 433 319 421 6 -4 101 -77 211 -161z"/>
<path d="M2824 4711 c-94 -32 -154 -90 -179 -173 -32 -110 -27 -143 141 -811
86 -342 163 -642 171 -667 30 -91 87 -140 162 -140 83 0 143 44 166 124 14 45
12 107 -20 690 -19 353 -41 676 -49 718 -18 98 -49 160 -105 209 -75 66 -184
85 -287 50z"/>
<path d="M3119 2793 c-105 -35 -195 -137 -220 -250 -33 -147 64 -316 211 -368
55 -20 164 -19 223 1 53 18 128 80 163 136 74 117 61 277 -31 386 -79 93 -229
135 -346 95z"/>
</g>
</svg>
