<svg xmlns="http://www.w3.org/2000/svg" viewBox="0 0 750 830"><defs><style>.a{fill:#fffcd9;}.b,.f{fill:#fff;}.c{fill:#ffbc18;}.d{fill:#f88334;}.e{fill:#f15a24;}.f{font-size:17.13px;font-family:Jun501Pro-Bold-90ms-RKSJ-H, A-OTF Jun Pro;}.g{font-size:30px;font-family:"PingFang TC", "HeiTi TC", "Microsoft JhengHei", sans-serif;font-weight:700;}</style></defs><title>smallquestion</title><path class="a" d="M153.94,800.2C108.4,756.14,80.49,694.57,77.48,631.49s18.89-127,60-175.14C197.66,386,292.59,353.46,385.15,344.87c50.8-4.71,104.81-2.45,148.59,23.6,37.94,22.57,64.08,60.77,81.92,101,20.12,45.34,31.18,95.67,24.32,144.75-7.56,54.1-36,102.78-63.78,149.89-5.55,9.39-11.52,19.21-21.07,24.56-9,5.07-19.93,5.35-30.32,5.5l-375.66,5.49"/><path class="b" d="M424.66,704.68c-2.61,23.79-4.23,56.24-8.71,79.75-4.77-.25-13.36.25-18.13,0-7-22.56-14.7-58.23-25.59-79.21C372.23,705.22,394.29,699.92,424.66,704.68Z"/><path d="M423.16,704.68c-2.85,26.43-3.77,53.18-8.66,79.35l1.45-1.1c-6-.23-12.09.23-18.13,0l1.45,1.1c-8.17-26.49-13.06-54.69-25.74-79.56l-.9,2.2c16.6-3.93,34.94-3.06,51.63-.54,1.89.28,2.7-2.61.8-2.9-17.27-2.6-36.06-3.51-53.23.55a1.51,1.51,0,0,0-.89,2.2c12.55,24.62,17.35,52.63,25.44,78.85a1.53,1.53,0,0,0,1.44,1.1c6,.23,12.09-.23,18.13,0a1.51,1.51,0,0,0,1.45-1.1c4.93-26.44,5.88-53.45,8.76-80.15C426.37,702.76,423.36,702.78,423.16,704.68Z"/><path class="b" d="M360.75,704.68c-2.61,23.79-3.61,47.87-8.09,71.38-4.77-.25-13.36.25-18.13,0-7-22.56-15.33-49.86-26.21-70.84C308.32,705.22,330.37,699.92,360.75,704.68Z"/><path d="M359.25,704.68c-2.55,23.68-3.67,47.53-8,71l1.45-1.1c-6-.23-12.09.23-18.13,0l1.45,1.1c-7.5-24.13-14.79-48.63-26.36-71.19l-.9,2.2c16.6-3.93,34.94-3.06,51.63-.54,1.89.28,2.7-2.61.79-2.9-17.26-2.6-36.05-3.51-53.22.55a1.52,1.52,0,0,0-.9,2.2c11.46,22.33,18.64,46.6,26.07,70.48a1.53,1.53,0,0,0,1.44,1.1c6,.23,12.09-.23,18.13,0a1.52,1.52,0,0,0,1.45-1.1c4.42-23.72,5.56-47.83,8.14-71.78C362.45,702.76,359.45,702.78,359.25,704.68Z"/><path class="c" d="M289.14,634.58c-.7,26.81,1.28,46.19,17,72.59,19.85,8.52,56.21,1.46,55.53-.44,17.32,7.89,44.5,13,59.25,7.65,17.3-6.27,12-21.46,18.12-37.29,3.05-7.94,5.44-16.25,4.83-24.62s-4.63-16.87-12.27-21.7c-12,3-24.7.67-37-1a337,337,0,0,0-107.33,2.8"/><path d="M287.64,634.58c-.35,14.61.06,29.3,4,43.46a115.19,115.19,0,0,0,8.64,21.68c1.32,2.57,2.79,7,5.1,8.74,1.78,1.33,5,1.85,7.12,2.35,11.47,2.78,23.79,2.39,35.42.88,2.23-.29,15.32-.94,15.25-5L360.9,708c16.09,7.18,35.68,12.06,53.37,9.49,6.8-1,13.81-3.62,17.86-9.49,4.29-6.21,4.44-14.27,5.84-21.43,2-10.09,7-19.21,7.43-29.65.39-8.53-2.18-17.27-8.19-23.51-1-1.08-3.37-3.53-4.87-4s-3.18.34-4.77.6c-6.59,1.08-13.35.67-20-.06-12.34-1.37-24.55-3.32-37-4.09a342,342,0,0,0-83.78,5.21c-1.9.36-1.1,3.25.79,2.9a338.36,338.36,0,0,1,66.62-5.74q16.38.24,32.68,2c10.57,1.18,21.15,3.39,31.83,3.39a62.4,62.4,0,0,0,7.36-.44c1.78-.22,4.16-1.09,5.92-.38,4.43,1.78,7.71,8.87,9,13,3.28,10.35,0,20.95-3.53,30.75-2.4,6.7-3,13.64-4.48,20.56-1.73,8.18-6,13.7-14.18,16.2-8.82,2.69-18.82,1.83-27.78.39a116,116,0,0,1-28.73-8.41,1.51,1.51,0,0,0-2.25,1.3c0-1.1.66-.85-.23-.55l-1.45.47a40.39,40.39,0,0,1-4.22,1A112.13,112.13,0,0,1,341,709.41c-10.13.77-20.85.75-30.63-2.29-5.66-1.77-8.25-10.08-10.53-15.2a104.53,104.53,0,0,1-6.42-19.09c-2.88-12.55-3.08-25.44-2.77-38.25.05-1.93-2.95-1.93-3,0Z"/><path class="d" d="M488.35,484.81c-120.72-55.8-227.93-10.14-228-10-20.58,5.91-38,21.79-46.25,41.57a74,74,0,0,0-4.75,16.73,83,83,0,0,0,45.2,26.43c9.95,44.64,30.38,100.71,34.65,103.27,4.65,2.78,75.85,5.05,102.82,6,7,.24,45.39,4,55.21-11.35C470.78,620.5,483,580.83,496.39,538.9l13.87,60.29C565.2,526.35,504.69,492.36,488.35,484.81Z"/><path d="M489.11,483.52a307.74,307.74,0,0,0-185.74-22.38c-14.08,2.69-28.26,6.19-41.62,11.46-7.75,3.06-15.3,5.66-22.27,10.45A75.32,75.32,0,0,0,212.66,516a74.53,74.53,0,0,0-4.11,13.31c-.83,3.94-.83,4.36,1.92,7.27a83.77,83.77,0,0,0,18.6,14.71c7,4.11,14.3,6.42,22,9,3.75,1.26,3.52,5.9,4.41,9.5q1.62,6.6,3.41,13.15Q265.14,606,273,628.65c3.55,10.21,7.11,20.65,12,30.34,2.31,4.6,3.92,5.64,8.94,6.32,9.34,1.25,18.82,1.64,28.22,2.15,23.34,1.25,46.71,1.77,70.06,2.79,8.81.38,17.57.9,26.38.18,9.54-.78,21.28-2.44,28.12-9.91,5.09-5.56,8.61-13.42,12.15-20,4.28-8,8.17-16.12,11.77-24.41,7.13-16.45,13.09-33.38,18.69-50.4,2.89-8.78,5.7-17.59,8.52-26.4H495l13.86,60.29a1.52,1.52,0,0,0,2.74.36c14.45-19.36,27.1-43.82,21.39-68.67-3.64-15.88-14.47-28.79-27.43-38.16a99.36,99.36,0,0,0-16.4-9.6c-1.74-.81-3.27,1.77-1.52,2.59,27.43,12.74,49.1,38.15,42.43,70.07-3.27,15.6-11.63,29.62-21.06,42.26l2.74.36-13.86-60.29a1.51,1.51,0,0,0-2.89,0c-11.41,35.57-22.52,71.57-40.79,104.35-3.57,6.41-7,14.7-13.46,18.72-4.73,2.95-10.4,4.29-15.84,5.13-10.12,1.57-20.41,1.19-30.59.65-22.46-1.21-45-1.53-67.44-2.66-10.16-.51-20.36-1-30.48-2.1-1.71-.19-4.89-.06-6.38-1.11-1.78-1.26-2.9-5-3.75-6.9-5.94-13.1-10.52-26.91-15-40.58-5.86-18.07-11.09-36.36-15.26-54.9a1.49,1.49,0,0,0-1-1.05,82.55,82.55,0,0,1-40.1-21.36c-3.32-3.23-4-4.52-2.84-9.19a72.22,72.22,0,0,1,4.29-12.46,70.54,70.54,0,0,1,11.58-17.79c10.79-12.13,24.74-18.35,39.15-23.43,36.24-12.78,76-17.05,114.18-14.65a300.88,300.88,0,0,1,106.37,26.93C489.34,486.91,490.86,484.32,489.11,483.52Z"/><path class="e" d="M440.19,558.27a3.12,3.12,0,0,1,3.91,3c.5,23.85-6.65,47-17.71,68.26-2.47,4.73-5.33,9.46-9.69,12.54-5.23,3.68-75.05,5.5-102.81-.13-4.88-1-10-2.21-13.71-5.49-3.58-3.12-5.48-7.71-7.25-12.12-7.93-19.73-16-40.25-15.55-61.4a3.14,3.14,0,0,1,3.54-3C299,562.22,385.39,572.41,440.19,558.27Z"/><path d="M440.19,559.77c5.49-.38-.06,28-.76,31A153.27,153.27,0,0,1,429.79,619c-3,6.58-7.21,18.67-14.28,21.92-2.43,1.12-5.71,1.18-8.32,1.45-23.95,2.54-48.69,2.23-72.68.5-12.66-.91-31-.9-37.71-13.53-4.67-8.84-7.95-19-11.1-28.46-3.29-9.9-5.94-20.14-6.64-30.59a24.16,24.16,0,0,1-.17-3.72c.13-1.17.45-4.73,2-5.25.48-.16,1.32.25,1.83.24a34.71,34.71,0,0,1,4.73.58q6.6.78,13.22,1.44,19.21,1.92,38.52,2.83c33.62,1.57,68.54,1.6,101.37-6.73,1.87-.47,1.07-3.36-.8-2.89-33.64,8.53-69.51,8.23-103.94,6.46q-20.37-1-40.65-3.24c-4.23-.45-8.46-1.12-12.69-1.48-8.33-.71-6.85,7.45-6.3,13.61,1,10.72,3.73,21.18,7.21,31.33,3.24,9.5,6.42,20.09,11.55,28.77,7,11.92,23.79,12.33,36.18,13.37,15,1.26,30,1.49,45,1.28,11.47-.16,23.12-.36,34.5-1.94,4.28-.59,6.95-1.29,10.08-4.5,7.32-7.52,11.49-18.91,15.23-28.54a141.57,141.57,0,0,0,8.61-33c.7-5.41,2.06-12.32,1-17.74-.58-3-2.23-4.67-5.41-4.45C438.27,556.9,438.26,559.9,440.19,559.77Z"/><path class="b" d="M311.26,603c-1.62,6.41-5.8,13.7-2.28,20.27,2.28,4.26,7.93,6.78,12.27,3.92,4.61-3,5-10.12,4.49-15-.64-5.93-4.44-11.23-10.83-11.14-3.21,0-3.22,5,0,5,8.49-.13,7.53,18.4,1.34,17.29-7.71-1.38-1.17-15-.17-19,.79-3.12-4-4.46-4.82-1.33Z"/><path class="b" d="M339.86,604.57c-3.87,6.34-7.75,14.3-2.69,21.15,4,5.38,11.07,5.29,15.15.14s6.11-14.23,2.35-20.09c-3.49-5.43-10.69-5.85-14.55-.7-1.93,2.58,2.41,5.07,4.32,2.52,2-2.7,4.95-.77,6.24,1.2,1.16,1.79,1.08,4.28.77,6.32-.45,2.91-1.7,7.12-4.27,8.84-4.62,3.1-7.66-2.72-7.4-6.56s2.48-7.15,4.4-10.3c1.68-2.75-2.64-5.27-4.32-2.52Z"/><path class="b" d="M373.15,604.83c-4.14,6-8.3,13.84-3.28,20.67,4,5.42,11,5,14.89-.25s6.12-14.44,1.92-20.12c-3.48-4.7-10.63-4.92-13.63.37-1.58,2.81,2.73,5.33,4.32,2.53,2.79-4.93,6.58,1.74,6.55,4.56,0,3.16-1.4,8-3.7,10.32-4.45,4.42-8-1.58-7.58-5.64.4-3.7,2.79-6.94,4.83-9.92,1.82-2.66-2.51-5.16-4.32-2.52Z"/><path class="b" d="M407.42,602.78l-10.16,24.06c-1.23,2.93,3.07,5.48,4.32,2.52l10.16-24.05c1.23-2.93-3.07-5.48-4.32-2.53Z"/><text class="f" transform="matrix(0.99, 0.17, -0.17, 0.99, 292.07, 584.91)"> </text><text class="f" transform="matrix(0.99, 0.14, -0.14, 0.99, 297.62, 585.91)">G</text><text class="f" transform="translate(311.35 587.87) rotate(6.36)">R</text><text class="f" transform="translate(324.19 589.28) rotate(4.82)">E</text><text class="f" transform="translate(334.87 590.19) rotate(3.4)">E</text><text class="f" transform="translate(345.55 590.84) rotate(1.77)">N</text><text class="f" transform="translate(358.49 591.2) rotate(0.41)"> </text><text class="f" transform="translate(364.13 591.27) rotate(-0.92)">P</text><text class="f" transform="matrix(1, -0.05, 0.05, 1, 375.77, 591.08)">E</text><text class="f" transform="translate(386.43 590.6) rotate(-4.88)">A</text><text class="f" transform="translate(399.72 589.46) rotate(-7.56)">C</text><text class="f" transform="translate(412.99 587.67) rotate(-10.34)">E</text><path class="b" d="M417.56,571.76a12.7,12.7,0,0,0-3.78,1.08l-3.64-.19c-22.77-1.23-46.86-2.89-65.56-15.94-7-4.9-13-11.28-20.45-15.48a81.26,81.26,0,0,1-114.77-8.15,80.45,80.45,0,0,0,7.19,48.1c9.85,20,28,35.56,49.08,43,22.51,7.93,47.26,6.72,70.75,2.52,21.52-3.85,43.47-10.63,59.33-25.68,5.07-4.81,10-10.68,16.07-13.61,2.57,3.38,5.65,6.91,9.84,7.23A10.71,10.71,0,0,0,428.9,592C432.36,589.18,443.17,568,417.56,571.76Z"/><path d="M417.16,570.31c-8.18,1.5-16.78.39-25.06-.41a139.73,139.73,0,0,1-24.55-4.29,73.59,73.59,0,0,1-22.21-10.2c-7-4.9-13-11.08-20.46-15.48a1.55,1.55,0,0,0-1.82.24,81.61,81.61,0,0,1-59.15,19.2c-20.63-1.75-39.79-12-53.49-27.35a1.51,1.51,0,0,0-2.51.66c-5.35,35.44,12.59,69.69,43.79,86.87,16.34,9,35,12.24,53.53,11.91a191.48,191.48,0,0,0,57.16-9.7A100.2,100.2,0,0,0,388.28,609c8.59-6.08,14.91-15.4,24.26-20.31l-1.82-.24c4.76,6.13,12.24,11,19.24,4.58a19.54,19.54,0,0,0,4.84-8.5c1.08-3.51,1.38-7.66-1-10.73-3.66-4.79-11-4.23-16.27-3.54-1.89.25-1.91,3.25,0,3,7.65-1,17.23-.14,14.53,9.85a18.26,18.26,0,0,1-3.14,6.56c-5.41,6.69-12.09,1.83-16.11-3.34a1.51,1.51,0,0,0-1.81-.23c-7,3.65-11.84,9.76-17.58,14.95a82,82,0,0,1-21.52,13.77c-16.48,7.44-35,11-52.89,12.81-35.58,3.53-72.24-5.3-94.15-35.52a79.75,79.75,0,0,1-14.09-58.63l-2.5.66a84.62,84.62,0,0,0,55.61,28.23c22.17,1.88,44.39-5.78,61.28-20.08l-1.82.23c7.87,4.66,14.19,11.37,21.8,16.4a78.46,78.46,0,0,0,23.14,10,149.5,149.5,0,0,0,24.61,4c4.37.41,8.75.7,13.14.95a51.81,51.81,0,0,0,6.81.37,49.14,49.14,0,0,0,5.09-1.08C419.86,572.86,419.05,570,417.16,570.31Z"/><path d="M411.3,578.43c-.67,2.42-1.6,5.32-1,7.85.55,2.26,2.4,4,3.74,5.78,1.13,1.53,3.74,0,2.59-1.52-1-1.33-2.43-2.63-3.1-4.16-1-2.23,0-4.94.65-7.15a1.51,1.51,0,0,0-2.9-.8Z"/><path class="b" d="M357.83,465.38a15,15,0,0,0-.54,29.74c5.85.88,11.85-1.85,16-6.1s6.6-9.85,8.29-15.52c.72-2.43,1.25-5.26-.19-7.34-1.25-1.82-3.6-2.46-5.77-2.83a46.73,46.73,0,0,0-21.84,1.59"/><path d="M357.43,463.94c-9.37,1.55-16.46,10.95-13.83,20.45a17,17,0,0,0,22.9,11,25.12,25.12,0,0,0,11.94-10.69c2.61-4.35,5.76-10.74,5.29-15.93-1.06-11.79-23.48-7.33-30.38-5.27-1.84.55-1.06,3.45.8,2.9a47.55,47.55,0,0,1,14.11-2.17,38.07,38.07,0,0,1,6.93.58,13.14,13.14,0,0,1,3.47,1l1.84,5.82c.06,3.48-2.87,8.65-4.65,11.55a23.06,23.06,0,0,1-8.67,8.59c-7.71,4.08-17.14,1.41-20.29-7.08-3.07-8.28,3.08-16.47,11.34-17.83,1.9-.32,1.09-3.21-.8-2.89Z"/><path d="M356.76,462.12a18.24,18.24,0,0,0-18,22.57c2.89,11.86,15.2,18.11,26.73,15.52s21.56-14.78,20.84-26.92a13.15,13.15,0,0,0-8-11.65c-7.88-3.47-16.59-.19-24.79-1.42-1.89-.28-2.7,2.61-.8,2.89,8.45,1.27,23.59-3.89,29.08,5.19,5.72,9.44-3.57,22.8-11.9,27.12-9.22,4.79-21.7,2.25-26.69-7.31-5.42-10.36,1.34-23.26,13.5-23,1.93,0,1.93-3,0-3Z"/><path class="b" d="M380.42,439.92c8.44,7,4.61,23.73.33,32.05-6,11.59-24.81,13.68-33.48,3.2-4.29-5.18-.91-14.2,1.35-19.9,1.5-3.78,6.51-14.71,11.61-14.21C360.23,441.06,372.74,433.53,380.42,439.92Z"/><path d="M379.36,441c7.9,7.23,4.57,21.89.1,30.23-5.17,9.63-19.29,12.1-28,5.85-9.64-6.93-2-24.35,4.38-31.76,1.9-2.21,4.64-2.82,7.21-4,5.3-2.48,11.56-3.76,16.6-.07,1.56,1.14,3.05-1.46,1.51-2.59-7.3-5.35-15.74-1.4-22.95,1.2-7.87,2.83-12.33,16.43-13.9,23.75-1.1,5.13-.8,10.12,3.09,14a21.12,21.12,0,0,0,12.4,5.74c9.93,1.17,19.31-3.66,23.31-12.89,4.08-9.39,6.89-23.72-1.65-31.53C380.06,437.55,377.94,439.67,379.36,441Z"/><path class="e" d="M359.44,391.7c-8.58-3.43-18.94-2.69-26.42,2.74s-11.42,15.65-8.64,24.46S337,434,346,431.88c-2.85-5-11.64-2.24-12.94,3.34s2.68,11.16,7.5,14.26c12.06,7.76,30.22,3.36,37.38-9.06-3.85,6.9,3.75,15.72,11.65,16s14.87-4.91,20.77-10.17c7.45-6.64,14.78-14.56,16.13-24.45s-6.32-21.37-16.24-20.23c3.43,3.51,10.28.19,10.79-4.69s-3.76-9.27-8.52-10.44-9.77.13-14.36,1.86c5.95-3.9,5.45-13.55.53-18.69s-12.53-6.63-19.64-6.79c-5.82-.12-11.82.52-17,3.25s-9.27,7.89-9.53,13.7,4.25,11.82,10.06,12.09"/><path d="M359.84,390.25c-14.93-5.49-33.34.75-37.22,17.4-3.37,14.47,8.86,28.42,23.78,25.67a1.5,1.5,0,0,0,.9-2.2c-3.39-4.76-10.22-4-13.86.24-5.15,6-.21,14.49,5,18.47,12.86,9.75,32.6,4.61,40.77-8.66l-2.59-1.51c-3.72,8.08,3,16.7,11.23,18.07,10.74,1.77,20.64-7.33,27.61-14.25s14.11-16.71,12.37-27.32c-1.43-8.67-8.32-16.68-17.61-16.11-1.16.07-2.14,1.67-1.06,2.56,5.56,4.54,14-.4,13.32-7.46-1.2-12.4-16.43-11.3-24.75-8.32l1.16,2.75c5.94-4.47,6.47-12.79,2.54-18.88-5.49-8.51-17.6-9.87-26.79-9.32-9.43.57-19.82,4.63-22.9,14.45-2.5,8,2.46,16.48,10.85,17.51,1.91.24,1.9-2.76,0-3-9.46-1.17-10.28-12.58-5.16-18.68s13.3-7.42,20.72-7.36c6.52,0,14,1.06,18.91,5.83,4.45,4.35,5.82,12.72.32,16.86-1.24.92-.6,3.37,1.15,2.74,5.3-1.91,11.77-3.81,16.9-.39,2.53,1.67,4.95,5,3.91,8.22s-5.25,5.22-8.06,2.93l-1.06,2.56c8.28-.51,14.09,7.11,14.82,14.82.76,8-4.28,15.57-9.47,21.19s-11.53,11.75-18.82,14.54c-4.16,1.6-8.77,1.94-12.71-.47s-7-7.25-4.83-12a1.5,1.5,0,0,0-2.59-1.51,26.39,26.39,0,0,1-26.28,11.87c-5.36-.81-10.74-3.39-13.84-8-2-3-3.32-7.1-.8-10.18,2.06-2.52,6.72-3.9,9-.74l.9-2.2c-14.06,2.59-23.92-12-19.31-24.63,4.9-13.41,20.31-17.23,32.74-12.66,1.82.67,2.6-2.23.8-2.89Z"/><path d="M370.31,401.83a17.73,17.73,0,0,0-7.88-6.23c-1.79-.73-2.56,2.17-.8,2.9a14,14,0,0,1,6.09,4.85c1.11,1.56,3.71.06,2.59-1.52Z"/><path d="M367.46,404.16a13.3,13.3,0,0,0-8.4-2c-1.9.19-1.92,3.19,0,3a10.62,10.62,0,0,1,6.88,1.59c1.65,1,3.15-1.58,1.52-2.59Z"/><path d="M395.21,431.07l7.63-1.14c1.9-.29,1.09-3.18-.8-2.89l-7.63,1.14c-1.9.29-1.09,3.18.8,2.89Z"/><path d="M395.87,436a18.93,18.93,0,0,1,7.4,2c1.71.87,3.24-1.72,1.51-2.59a22.54,22.54,0,0,0-8.91-2.41c-1.93-.11-1.92,2.89,0,3Z"/><path d="M352.06,436.12l-5.81,2.28c-1.78.7-1,3.6.8,2.9l5.81-2.29c1.78-.69,1-3.6-.8-2.89Z"/><path d="M355.74,439.28l-2.72,3a1.54,1.54,0,0,0,0,2.12,1.51,1.51,0,0,0,2.12,0l2.72-3a1.5,1.5,0,0,0-2.12-2.12Z"/><path d="M362.85,440.36a13,13,0,0,0-1.43,6.35c.06,1.93,3.06,1.94,3,0a9.76,9.76,0,0,1,1-4.84c.87-1.72-1.72-3.24-2.59-1.51Z"/><path d="M389.27,386.67a14.26,14.26,0,0,0-.43-7.19c-.6-1.83-3.5-1.05-2.89.79a11.11,11.11,0,0,1,.42,5.6c-.35,1.89,2.54,2.7,2.9.8Z"/><path d="M385.92,385l-3.37-3.53c-1.34-1.4-3.46.73-2.13,2.12l3.38,3.53c1.34,1.4,3.46-.72,2.12-2.12Z"/><path d="M379.73,385,372,383.54c-1.89-.34-2.7,2.55-.8,2.9l7.79,1.41c1.88.34,2.69-2.55.79-2.9Z"/><path d="M390.54,424.25a45.49,45.49,0,0,1,19.15-.82c1.89.32,2.7-2.57.79-2.9a49.37,49.37,0,0,0-20.74.83c-1.87.47-1.08,3.37.8,2.89Z"/><path d="M373.91,412.69a41.66,41.66,0,0,0-22.86-4.76c-1.91.15-1.93,3.15,0,3a38.65,38.65,0,0,1,21.34,4.35c1.71.9,3.23-1.69,1.52-2.59Z"/><path class="c" d="M361.46,447.09A107.54,107.54,0,0,0,354,457.28a5.92,5.92,0,0,0-1.27,3.54c.16,1.79,1.8,3,3.3,4s3.6,2.24,5.5,1.65c1.68-.52,2.68-2.26,3.2-4,1.58-5.09.31-10.58-1-15.76C363.73,446.77,363,445.25,361.46,447.09Z"/><path d="M360.39,446c-2.29,2.83-4.52,5.71-6.56,8.74-1.39,2.05-3.1,4.34-2.45,7,1,3.95,7.54,7.69,11.34,5.82,5.11-2.52,4.47-10.91,3.71-15.44-.55-3.29-1.51-10.19-6-6.08-1.43,1.3.7,3.42,2.13,2.12-.42.38,1.39,7.61,1.41,8.7.06,3.26-.48,9.17-5.23,7.75-8.82-2.62.84-12.78,3.82-16.45C363.72,446.67,361.61,444.53,360.39,446Z"/><path class="b" d="M406.82,443a159.87,159.87,0,0,0-15.74,10c-2.57,1.84-5.17,3.86-6.6,6.68s-1.35,6.66,1,8.76,7,1,7.45-2.14c-6.32,13.32-2.36,29.09,2.65,42.95A322.11,322.11,0,0,0,422.06,565c9.43,15.76,20.9,31.31,37.41,39.34a56.41,56.41,0,0,0,55.15-3.8c16-10.79,25.51-30.57,23.81-49.79S523.81,513.67,506,506.18c-13.42-5.64-28.47-5.52-42.77-8.29a106.67,106.67,0,0,1-39.36-16.3c-7.25-4.9-14.61-12.77-12.32-21.22.75-2.78,2.49-5.18,3.75-7.77s2-5.74.73-8.32-7.45-3.55-9.23-1.29"/><path d="M406.06,441.7a137.79,137.79,0,0,0-17.32,11.12c-3.65,2.84-7,6.5-6.65,11.46.53,6.76,10.13,9.61,12.32,2.37.48-1.58-2.05-2.73-2.74-1.15-7,15.88-1.74,33,4.07,48.37a323.69,323.69,0,0,0,24.1,50.32c8,13.54,17.23,26.95,30.18,36.23a58,58,0,0,0,43.36,10c29.86-4.94,51.2-34.43,45.92-64.41A56.49,56.49,0,0,0,517.39,511c-14.22-10.55-31.73-11.06-48.57-13.65a109,109,0,0,1-30-9c-8.84-4.17-19.84-9.72-24.54-18.75-3.58-6.9.56-11.33,2.93-17.57,1-2.6,1.64-5.93.15-8.5-2.16-3.73-8.51-4.4-11.58-1.59-1.43,1.31.69,3.42,2.12,2.12,2.11-1.93,4.83-.5,6.1,1.27,1.84,2.53.93,4.6-.36,7.29-1.44,3-3.35,5.67-3.83,9.05-.79,5.59,2.11,10.78,5.75,14.79,9.3,10.25,24.3,16.58,37.31,20.44,15.11,4.49,31.12,4.05,46.21,8.44a52.94,52.94,0,0,1,32.44,26.88c13.83,27,.1,61.94-28.37,72.56a55.18,55.18,0,0,1-44.31-2.44c-13.37-7-23.22-18.93-31.29-31.38a300.73,300.73,0,0,1-25.22-48.58c-6.93-16.77-16-37.45-8.05-55.36l-2.75-1.15L388.4,468,385,463.6c-.38-1.71,1.31-4.29,2.28-5.49,1.83-2.22,4.48-3.86,6.81-5.48,4.35-3,8.85-5.76,13.45-8.34a1.5,1.5,0,0,0-1.51-2.59Z"/><path d="M294.63,678.7a24.46,24.46,0,0,0,16.16-11.59,1.5,1.5,0,0,0-2.59-1.51,21.52,21.52,0,0,1-14.37,10.21c-1.89.39-1.09,3.28.8,2.89Z"/><path d="M295.46,683.11a30.4,30.4,0,0,0,23-16.69c.86-1.72-1.73-3.24-2.59-1.51a27.71,27.71,0,0,1-21.24,15.31c-1.91.27-1.1,3.16.8,2.89Z"/><path d="M411.4,670.67a37.11,37.11,0,0,0,11.53,11.16c3.77,2.29,9.61,5.4,14.09,4,1.84-.57,1.05-3.47-.8-2.89-4,1.23-9.86-2.4-13-4.51a33.66,33.66,0,0,1-9.21-9.29c-1.07-1.59-3.67-.09-2.59,1.51Z"/><path d="M417.11,669.88a33,33,0,0,0,19.73,13c1.88.41,2.68-2.48.79-2.89a30,30,0,0,1-17.93-11.58c-1.13-1.54-3.73,0-2.59,1.51Z"/><path d="M356.22,668.06l3,39.11c.14,1.91,3.14,1.93,3,0l-3-39.11c-.14-1.91-3.14-1.93-3,0Z"/><path d="M362.3,667.79c.15,6.79,2.34,13.35,2.4,20.13.06,7.35-4.54,12.91-6.54,19.7-.54,1.85,2.35,2.64,2.9.79,1.91-6.51,6.2-11.79,6.6-18.77.42-7.35-2.2-14.52-2.36-21.85,0-1.93-3-1.94-3,0Z"/><path class="c" d="M328.18,789.65l.83,5a132.41,132.41,0,0,0,21.8,1.11,5.44,5.44,0,0,0,2.77-.6,3.71,3.71,0,0,0,1.5-2.53,11,11,0,0,0-.08-3q-13.33-.95-26.72-.61"/><path d="M326.74,790.05l.82,5a1.55,1.55,0,0,0,1.45,1.1c7.07.9,14.69,1.83,21.8,1.11,4.67-.47,6.13-3.06,5.69-7.66a1.54,1.54,0,0,0-1.5-1.5q-13.35-.9-26.72-.61c-1.93,0-1.94,3,0,3q13.38-.28,26.72.61l-1.5-1.5c.59,6.25-7.82,4.78-11.79,4.63-4.25-.16-8.48-.54-12.7-1.08l1.45,1.1-.83-5c-.31-1.9-3.2-1.1-2.89.8Z"/><path class="e" d="M328.09,790.29c-.73-4.62,2.36-9.25,6.49-11.44s9.05-2.37,13.7-1.8a6.84,6.84,0,0,1,4,1.48c2.76,2.68,3.33,8.85,2.56,12.74-8.63,1.68-17.9.42-26.65-.4"/><path d="M329.59,790.29c-.47-6.08,4.16-10.28,9.74-11.57,6.06-1.4,13.19-.59,14.15,6.58.41,3,.29,4.33-3,5.07a30.82,30.82,0,0,1-7.12.2c-5.08-.13-10.12-.72-15.17-1.2-1.92-.19-1.91,2.81,0,3,9.05.87,18,1.9,27.05.34a1.44,1.44,0,0,0,1.05-1c.6-3.82.56-8-1.17-11.58-2-4.07-5.77-4.65-10-4.8-9-.33-19.37,4.6-18.56,15,.15,1.91,3.16,1.93,3,0Z"/><path d="M345.71,775.82c-.79-2.91-2.92-4.43-5.87-4.82-2.31-.31-6.61-.35-8,2.1-4.13,7.11,11.72,4.27,13.49,4.09a1.57,1.57,0,0,0,1.45-1.1,6.23,6.23,0,0,1,2.91-3.89q4.48-2.62,1.9,1.77c-1.27,1.19-5.75.92-7.31,1-1.92.11-1.94,3.11,0,3,3-.18,17.57-1.75,12.17-8.11-4.16-4.89-11.18,1.24-12.56,5.42l1.44-1.1c-2.51.25-5.34.92-7.84.79-.67,0-2.28.66-1.44-.42,1.5-1.94,6.48.89,6.79,2.06a1.51,1.51,0,0,0,2.9-.8Z"/><path class="c" d="M393.4,789.65l.83,5A132.41,132.41,0,0,0,416,795.8a5.38,5.38,0,0,0,2.76-.6,3.68,3.68,0,0,0,1.5-2.53,10.62,10.62,0,0,0-.07-3q-13.34-.95-26.73-.61"/><path d="M392,790.05l.83,5a1.55,1.55,0,0,0,1.45,1.1c7.06.9,14.68,1.83,21.8,1.11,4.67-.47,6.12-3.06,5.69-7.66a1.54,1.54,0,0,0-1.5-1.5q-13.35-.9-26.73-.61c-1.92,0-1.93,3,0,3q13.39-.28,26.73.61l-1.5-1.5c.59,6.25-7.82,4.78-11.79,4.63-4.25-.16-8.48-.54-12.7-1.08l1.44,1.1-.82-5c-.32-1.9-3.21-1.1-2.9.8Z"/><path class="e" d="M393.31,790.29c-.74-4.62,2.35-9.25,6.49-11.44s9.05-2.37,13.69-1.8a6.87,6.87,0,0,1,4,1.48c2.76,2.68,3.33,8.85,2.56,12.74-8.63,1.68-17.9.42-26.65-.4"/><path d="M394.81,790.29c-.48-6.08,4.16-10.28,9.74-11.57,6.06-1.4,13.18-.59,14.15,6.58.4,3,.28,4.33-3,5.07a30.78,30.78,0,0,1-7.12.2c-5.07-.13-10.12-.72-15.16-1.2-1.92-.19-1.91,2.81,0,3,9,.87,18,1.9,27.05.34a1.41,1.41,0,0,0,1-1c.61-3.82.56-8-1.17-11.58-2-4.07-5.76-4.65-10-4.8-9-.33-19.38,4.6-18.56,15,.15,1.91,3.15,1.93,3,0Z"/><path d="M410.92,775.82c-.78-2.91-2.91-4.43-5.86-4.82-2.31-.31-6.61-.35-8,2.1-4.14,7.11,11.71,4.27,13.49,4.09a1.58,1.58,0,0,0,1.45-1.1,6.16,6.16,0,0,1,2.91-3.89c3-1.75,3.62-1.16,1.89,1.77-1.26,1.19-5.74.92-7.31,1-1.92.11-1.93,3.11,0,3,3-.18,17.58-1.75,12.17-8.11-4.15-4.89-11.17,1.24-12.56,5.42l1.45-1.1c-2.51.25-5.35.92-7.85.79-.66,0-2.27.66-1.43-.42,1.5-1.94,6.48.89,6.79,2.06a1.5,1.5,0,0,0,2.89-.8Z"/><path d="M326.37,720.77a15.75,15.75,0,0,0,2.6,8.35c1,1.61,3.65.11,2.59-1.51a12.9,12.9,0,0,1-2.19-6.84c-.05-1.93-3.05-1.94-3,0Z"/><path d="M336,727.11l.85,5.1c.32,1.9,3.21,1.1,2.89-.79l-.85-5.1c-.31-1.9-3.21-1.1-2.89.79Z"/><path d="M330,739.44l2.55,7.65c.61,1.82,3.51,1,2.89-.8l-2.55-7.65c-.61-1.82-3.5-1-2.89.8Z"/><path d="M340.18,748l.44,8.08c.1,1.92,3.1,1.93,3,0l-.44-8.08c-.1-1.92-3.1-1.93-3,0Z"/><path d="M348.24,736.06v9.78a1.5,1.5,0,0,0,3,0v-9.78a1.5,1.5,0,0,0-3,0Z"/><path d="M346.24,722l2.11,7.23c.53,1.85,3.43,1.07,2.89-.79l-2.11-7.23c-.54-1.85-3.43-1.07-2.89.79Z"/><path d="M388.25,722.44,390,728c.56,1.84,3.46,1.06,2.89-.79l-1.7-5.53c-.57-1.84-3.46-1-2.89.8Z"/><path d="M393.44,735.59l2.52,8.5c.55,1.85,3.44,1.06,2.89-.79l-2.52-8.51c-.54-1.85-3.44-1.06-2.89.8Z"/><path d="M398.45,725.84l2.55,8.07c.58,1.84,3.47,1.05,2.89-.79L401.34,725c-.58-1.83-3.48-1-2.89.8Z"/><path d="M405.62,739.89v8.92a1.5,1.5,0,0,0,3,0v-8.92a1.5,1.5,0,0,0-3,0Z"/><path d="M413.66,729.26l-.84,6.8c-.24,1.91,2.76,1.9,3,0l.84-6.8c.24-1.91-2.76-1.89-3,0Z"/><path d="M411.62,754.79l-.42,2.55a1.55,1.55,0,0,0,1,1.85,1.53,1.53,0,0,0,1.85-1.05l.42-2.55a1.55,1.55,0,0,0-1-1.85,1.53,1.53,0,0,0-1.85,1Z"/><path d="M399.76,754.3l1.69,7.23c.44,1.88,3.34,1.08,2.9-.8l-1.69-7.22c-.44-1.88-3.34-1.09-2.9.79Z"/><path d="M302.54,517.23a287.84,287.84,0,0,1,19.84,25c1.11,1.57,3.71.07,2.59-1.51a293,293,0,0,0-20.31-25.64c-1.28-1.45-3.4.68-2.12,2.12Z"/><path d="M209.24,528.48a91.71,91.71,0,0,0,70.36,26.09c1.91-.13,1.93-3.13,0-3a88.75,88.75,0,0,1-68.24-25.21c-1.37-1.36-3.5.76-2.12,2.12Z"/><path d="M541.43,550.74a61.45,61.45,0,0,0-6.95-22.5c-3.21-6.08-5.51-12.43-9.57-18.08-6.85-9.56-16-17.25-26.1-23.22-11.49-6.82-24.35-11.67-36.92-16.05a302.08,302.08,0,0,0-49.7-12.67l2.09,3.69C416,454.84,424.59,446,415.74,440l.61,4.71c6.54-6.55,12.82-14.69,13.28-24.34.39-8.3-4.2-16.82-11.71-20.52v5.18c6.51-3.22,7.95-10.81,3.39-16.42-6-7.43-15.9-6.15-23.93-3.26l2.31,5.48c6.6-5,7.45-14.06,3.08-20.93-5.74-9-18.35-10.64-28.09-10.06-10.14.61-21,5.05-24.34,15.55a14.88,14.88,0,0,0,12.29,19.41v-6c-2.94-.13-5.42-1.18-8.32-1.7a32.42,32.42,0,0,0-10.81-.1,27.43,27.43,0,0,0-18.36,11.33c-8.54,12.3-4.65,29.2,9.35,35.25l-.61-4.71c-4.83,4.1-5,10.6-1.95,15.88,3.56,6.15,10.12,9.66,16.89,11l-1.79-4.4c-.76,1.71-1.46,3.44-2.13,5.19l2.89-2.21c-25.5,1.25-51.05,5.25-75.44,12.92-15,4.72-30,10.21-41.85,20.91a76.93,76.93,0,0,0-22.9,38.45l3.69-2.1-.19-.07c-2.88-1.06-5,3-2.92,5l.17.16-.78-2.92c-.54,2.39-2.28,6.31-.31,8.45,2.63,2.84,6.86-1.41,4.24-4.24l0,0c-1.42-1.53-4.68-.92-5,1.32-6.82,45.22,23.27,85.91,66.66,97.26L271,627.45c3.22,9.27,6.55,18.53,10.48,27.54,1.76,4,3.4,9.39,7.86,11l-2.09-2.1a107.25,107.25,0,0,0,7.23,26.91,135.27,135.27,0,0,0,6.65,13.71c.94,1.69,1.81,4,3.45,5.21,2.17,1.54,3,.66,4.23,3.31,9.2,19.56,15.53,40.38,21.93,61l.77-2.91c-1.93,2.29-2.42,5.32.26,7.34,3.15,2.39,8.86.64,12.43.57l-2.89-2.2-.09-.37a3,3,0,0,0,3,3,81.38,81.38,0,0,1,8.41-.42,3,3,0,0,0,2.89-2.2l.16-.87-2.09,2.09c5-1.83,7.55-8,1.63-10.68l1.38,3.39c3.4-20.94,4.64-42.13,6.81-63.21L362,710.17a5,5,0,0,0,2.3-1.93l-4.11,1.08c3.52,1.56,7.26,2.64,10.76,4.2,3.23,1.43,3.64,4,4.87,7.32,2.54,6.81,4.73,13.75,6.8,20.71,4,13.38,7.37,26.92,11.33,40.3l.77-2.92c-3.27,3.58-5.13,7.84-4.13,12.73a3.07,3.07,0,0,0,2.89,2.21h.17l-2.89-2.2.62,3.81c.24,1.41,1.68,2,2.9,2.2a139.47,139.47,0,0,0,16.34,1.17c3.87,0,9.1.76,11.59-2.94,1.88-2.79,1.42-7.58,1-10.76s-1.37-6.95-4-9.13l.77,2.92c.15-.94.3-1.88.44-2.81l-2.1,2.09c6-1.88,8.13-9.6.78-11.25l2.2,2.89c2.47-18.84,3.76-37.81,5.54-56.72l-1.49,2.59c7.23-3.89,10.71-10.19,12.29-18.06.84-4.21,1.29-8.48,2.22-12.67,1.21-5.39,3.52-10.41,5-15.72.67-2.43.83-5.08,2.35-7.11s2.86-3.57,4.16-5.65q4.64-7.44,8.78-15.17a351.22,351.22,0,0,0,14.95-31.94l-3.69,2.09c18.42,3.5,37.85-1,51.73-13.94a58.84,58.84,0,0,0,18.33-46.83c-.28-3.83-6.29-3.86-6,0a53,53,0,0,1-15.5,41.57c-12.3,12.13-30.18,16.6-47,13.42a3.12,3.12,0,0,0-3.7,2.09,312.37,312.37,0,0,1-22.63,44.89,31.28,31.28,0,0,1-3.22,4.73c-.9,1-2.12,1.64-2.71,2.87-1.49,3.12-1.63,7.46-2.74,10.85-2.16,6.65-4.17,12.85-5.28,19.78-.9,5.58-1.57,11.91-5.62,16.21-1.66,1.75-4.6,2.5-5.86,4.48-1.42,2.24-.95,7.38-1.19,10-1.42,16.09-2.66,32.21-4.76,48.23a3,3,0,0,0,2.2,2.89l-.77-.31a3,3,0,0,0-2.1,2.09c-.46,3-.66,3.79.81,6.11,1.65,2.63,2.9,6.93,1.92,10-1.09,3.43-7.19,2.2-10.39,2.08-4.25-.15-8.48-.54-12.7-1.08l2.89,2.2-.62-3.81c-.23-1.37-1.68-2.08-2.9-2.2h-.17l2.89,2.2c-.81-4,3.25-5.63,3.48-9s-2.23-8.11-3.12-11.33c-2.39-8.59-4.69-17.21-7.16-25.77-2.4-8.31-4.94-16.59-8-24.7-1-2.73-2.08-8-4.4-9.84-1.42-1.14-3.84-1.4-5.54-2-2.87-1-5.67-2.07-8.44-3.29a3.1,3.1,0,0,0-4.1,1.07,6,6,0,0,0-1.58,2c-.79,2.44-.58,5.67-.82,8.21-.55,5.86-1.05,11.73-1.58,17.6-1.08,12.1-2.3,24.2-4.25,36.2-.2,1.21.1,2.81,1.38,3.39-1.35-.61-2.24,1.5-2.45,2.68l2.89-2.2a81.52,81.52,0,0,0-8.41.42l3,3a5.71,5.71,0,0,0-.13-1.23,3,3,0,0,0-2.89-2.2c-1.54,0-3,.08-4.57.21l-1.54.15c-1.14-.33-1.79,0-1.94,1.06-1.23.51.31,1.26.37-.42a8,8,0,0,0-.24-2.37c-1.25-5.72-3.56-11.43-5.36-17-3.77-11.68-7.79-23.31-12.51-34.65-1-2.33-2-4.65-3-6.95-.86-1.92-1.78-5.16-3.29-6.62-.81-.78-1.68-.7-2.66-1.21-1.31-.67-1.33-.83-2.2-2.09a61.86,61.86,0,0,1-4.28-8,106.87,106.87,0,0,1-9.93-32.78,3,3,0,0,0-2.09-2.1c-1.9-.7-3.78-7.1-4.52-8.83-2.83-6.58-5.31-13.32-7.71-20.06-.84-2.36-1.31-6.1-3.66-7.44-2.79-1.59-7-2-10.08-3.17a85.18,85.18,0,0,1-18.16-9.45c-25.21-17.15-39.17-47-34.59-77.41l-5,1.32,0,0c2.63,2.84,6.86-1.41,4.24-4.24l0,0,.77,2.92c.44-2.52,2.36-6.45.17-8.58l-2.91,5,.18.07a3,3,0,0,0,3.69-2.1,71,71,0,0,1,28.37-41.34c6.31-4.34,13-7,20.14-9.58-.65.24.19-.08.81-.32,1-.41,2.05-.79,3.09-1.17,26.16-9.54,54.28-14.1,82-15.46a3.12,3.12,0,0,0,2.89-2.2c.49-1.26,1-2.51,1.53-3.76.72-1.63.29-4-1.79-4.4-5.88-1.2-21-9.52-12.29-16.9,1.35-1.15,1.09-4-.61-4.71-12.34-5.33-14.36-20.3-5-29.63,4.49-4.47,10.91-6.41,17.15-6.16,4.49.18,8.49,2,13,2.19,3.95.18,3.73-5.54,0-6-8.14-1-8.26-11.07-4.1-16.12,4.72-5.73,12.66-7,19.66-6.92,6.12,0,13.24.92,17.84,5.39,3.7,3.59,5.33,11,.63,14.5-2.47,1.85-1.19,6.74,2.31,5.48,4.4-1.58,10-3.51,14.57-1.22,4.16,2.1,6.57,7.36,1.35,9.94a3,3,0,0,0,0,5.18,16.17,16.17,0,0,1,8.46,17.43c-1.37,7.18-6.23,13-11.24,18a3,3,0,0,0,.61,4.71c3.57,2.4-3.48,12-4.22,15.1-.34,1.45.45,3.41,2.09,3.69,28.17,4.72,57.63,12.74,82.72,26.69a83.17,83.17,0,0,1,24.4,19.84c4.29,5.28,6.8,11,9.54,17.09,1.63,3.65,3.89,6.85,5.29,10.66a51.68,51.68,0,0,1,2.89,12.45C535.83,554.54,541.83,554.58,541.43,550.74Z"/><path d="M353.81,775.94c-10.75-7.21-31.41,1.31-28.49,15.72a3.08,3.08,0,0,0,2.89,2.21h.18l-2.9-2.2.63,3.81c.23,1.41,1.67,2,2.89,2.2a139.63,139.63,0,0,0,16.34,1.17c3.72,0,8.84.79,11.36-2.64,1.92-2.62,1.59-6.53,1.41-9.63a16.54,16.54,0,0,0-3.7-10.18c-2.49-2.95-6.72,1.31-4.24,4.24,1.88,2.23,1.94,5.3,2,8.05.05,3.92-1.35,4.15-5,4.16A137.86,137.86,0,0,1,329,791.69l2.89,2.2c-.21-1.27-.41-2.54-.62-3.81a3.06,3.06,0,0,0-2.89-2.2h-.18l2.89,2.2c-1.88-9.31,13.76-12.92,19.69-9C354,783.28,357,778.09,353.81,775.94Z"/><path class="b" d="M360.3,264c-113.68-4.57-137,1.12-242.71-33.3-31-10.08-63.18-24.69-75.53-50-8.52-17.42-5.91-37.62,3.76-54.63S71.65,95,89.73,83.45c61.1-39.12,142-50.4,219.53-54,99.95-4.59,201.17,1.62,297.51,23.83,34.07,7.85,69.63,19,90.08,42.57,24.11,27.81,20.08,67.9-3.62,95.94s-63.79,44.82-104.87,50.83c-14.92,2.19-173.91,5.54-186.84,12-19.25,9.63-27.51,28.65-34.4,46.2-.63-11.15-6.19-25.69-6.82-36.84"/><path d="M360.3,261c-47.19-1.88-95.14-.66-142-7.68-22.55-3.38-44.72-8.83-66.6-15.19-27.17-7.9-55.83-15.63-79.95-30.89-10.89-6.9-21-15.76-26.83-27.42-7.08-14.06-6.16-30.62-.16-44.87C56.16,108,83,89.57,108,76.26,161,48,222.35,38.42,281.59,34.11a1193.73,1193.73,0,0,1,198.84,2A982.82,982.82,0,0,1,580.86,50.8c28.8,5.78,58.83,11.84,85.12,25.47,24.16,12.52,43.4,33.31,44.08,61.76.67,27.8-15.27,52.2-36.81,68.55-22.67,17.21-50.49,27-78.3,32-9.5,1.7-20.69,2.12-31.43,2.6-35.45,1.58-70.91,2.72-106.34,4.72-14.44.82-28.94,1.6-43.31,3.35a66.33,66.33,0,0,0-11.64,2c-8.82,2.76-16.58,10.53-22,17.69-7.13,9.37-11.69,20.29-16,31.17l5.9.8c-.92-12.52-5.9-24.34-6.82-36.84-.28-3.83-6.28-3.86-6,0,.92,12.52,5.9,24.34,6.82,36.84a3,3,0,0,0,5.89.79c4.8-12.18,10.11-24.7,19.31-34.27,5.44-5.66,11-9.89,18.07-11.2,12.65-2.37,25.78-2.83,38.59-3.64,36.84-2.33,73.75-3.53,110.63-5.09,10.34-.44,20.84-.52,31.12-1.72,26.74-3.13,54.11-12.16,77.1-26.21,22.71-13.88,42.16-34.29,48.82-60.66,6.44-25.47-.6-52.07-19.65-70.33C673.88,69.26,645.82,60,619.4,53.29,587,45,553.93,39.21,520.83,34.77c-69.11-9.27-139.06-11.46-208.68-8.41C251,29,188,35.58,130.82,59c-26.68,10.94-53.53,25.58-73.47,46.79C38,126.37,26.11,156.63,40.08,183.49,52.3,207,78.9,219.75,102.54,228.66a645.17,645.17,0,0,0,80.48,24c43.55,10.15,87.66,11.59,132.18,12.88,15,.44,30.07.92,45.1,1.52,3.86.15,3.86-5.85,0-6Z"/><text class="g" transform="translate(195 158.14)">「嗯？好像還少了兩題？」</text><path d="M97.74,393.87c-12.44-2.73-21.84-14.51-23.33-27.15s4.21-25.54,13.45-34.29,21.67-13.64,34.28-15.38c9.45-1.3,19.55-.8,27.82,3.95,9.44,5.44,15.3,16,16.42,26.88s-2.12,21.83-7.58,31.27c-5.6,9.67-13.85,19.14-12.89,30.28.71,8.26,6.43,15.16,9,23s-.23,19.15-8.5,19.78c-7.23.55-11.89-7.3-14.74-14-4.78-11.2-9.59-23.89-5-35.18,2.82-6.95,8.78-12.1,12.63-18.53,6.13-10.27,6.12-24.23-1-33.82s-21.4-13.52-32-7.94-15.21,20.64-8.74,30.69c2.16,3.36,5.27,6,7.45,9.36s3.27,7.92,1,11.23-8.54,3.13-9.37-.77"/><path d="M160.51,468.13c-6.66.5-11.42,8-10,14.56s7.89,11.2,14.54,11.73c7.7.6,15.7-4.25,18.12-11.59s-1.56-16.38-8.83-19-16.46,2.33-17.71,10"/><path d="M585,361.36C583.1,350,588.85,338.75,597.73,334s20.21-3.41,29.61,2.08,16.95,14.76,22.22,25.05c3.94,7.71,6.77,16.46,5.86,24.82a27.52,27.52,0,0,1-14.69,21.38c-7.67,3.92-16.82,4.17-25.52,2.1-8.93-2.13-18.55-6.58-26.48-2.71-5.89,2.87-9.18,9.64-14.17,14s-14.24,5-17.32-1.84c-2.7-6,1.64-12.15,5.68-16.41,6.78-7.14,14.64-14.73,24.44-13.92,6,.5,11.72,4.18,17.7,5.7,9.53,2.42,19.85-1.42,24.7-10.14s3.23-22-4.24-29.46-20.07-7.33-25.47.95c-1.8,2.76-2.78,6.14-4.56,8.91s-4.83,5-8,4-5-6.44-2.39-8.21"/><path d="M549.91,435.27c-2.47-5.54-9.55-7.54-13.92-4.53s-5.8,9.8-4.08,15.62c2,6.74,8.1,12.24,14.3,12.29s11.62-5.82,11.27-12.74-6.94-13.41-13-12.39"/><path d="M49.89,804.93q127.53-3.64,255.11-4.69t255.33.54q71.76.88,143.52,2.6c3.86.1,3.86-5.9,0-6q-127.59-3-255.22-3.48t-255.3,1.75q-71.73,1.22-143.44,3.28c-3.86.11-3.87,6.11,0,6Z"/></svg>
