<svg xmlns="http://www.w3.org/2000/svg" xmlns:xlink="http://www.w3.org/1999/xlink" viewBox="0 0 390 434"><defs><style>.a{fill:none;}.b{fill:#fff;}.c{fill:#f88334;}.d{fill:#f15a24;}.e{clip-path:url(#a);}.f{fill:#ffbc18;}.g{font-size:33px;font-family:"PingFang TC", "HeiTi TC", "Microsoft JhengHei", sans-serif;font-weight:700;}</style><clipPath id="a"><path class="a" d="M101.75,424.12l112.07-55.5c4.2-2.08,8.86-4.22,13.4-3.05,4.2,1.08,7.17,4.72,9.75,8.2A246.53,246.53,0,0,1,262.24,415C207,421,153.85,428.32,98.32,428.86"/></clipPath></defs><title>thanks</title><path class="b" d="M217.51,164c-58.79-3-117.18-2.32-171.86-25.21C29.62,132,13,122.33,6.58,105.51c-4.4-11.59-3.05-25,1.95-36.34S21.89,48.48,31.24,40.79c31.6-26,73.44-33.53,113.54-35.9,51.69-3,104.05,1.08,153.87,15.85,17.62,5.23,36,12.63,46.59,28.32,12.47,18.5,10.39,45.16-1.87,63.81s-33,29.81-54.24,33.81c-7.72,1.45-43.61,6.74-50.3,11-10,6.41-14.22,19-17.79,30.73-.32-7.42-3.2-17.09-3.53-24.5"/><path d="M217.51,161c-31-1.58-62.08-2.13-92.92-5.77-29.93-3.54-61.17-9.9-88.09-24-11.54-6-22.75-14.59-27.31-27.29-5.11-14.24-1.14-30,6.92-42.36C31.48,38.09,59.37,24.2,85.62,16.86,113.66,9,143.25,7.19,172.25,7a446.89,446.89,0,0,1,96.17,9.21c14.5,3.07,29.16,6.66,43,12,12.46,4.82,24.78,12,32,23.62,14.66,23.43,5.76,54.68-13.72,72.29-9.81,8.87-22,14.85-34.76,18.18-8.07,2.11-16.42,3.12-24.62,4.57-9,1.59-18.19,3.1-27,5.8-9.08,2.81-15.07,9.82-19.1,18.26a118.62,118.62,0,0,0-6.16,16.74l5.89.8c-.52-8.26-3-16.25-3.53-24.5-.24-3.84-6.24-3.87-6,0,.53,8.26,3,16.24,3.53,24.5a3,3,0,0,0,5.89.79c3.24-10.53,7.4-25.65,18.86-30.07,9-3.46,19.15-4.76,28.6-6.43,8.88-1.58,17.94-2.65,26.65-5.07a89.68,89.68,0,0,0,34.8-18.32c20-17.31,29.85-46.64,20.07-71.93-10.28-26.6-39.24-36-64.44-42.65-32.55-8.62-66.3-12.88-100-13.69-31.27-.76-63.39.5-94,7.38-27.89,6.27-56.1,18.52-75.62,40C.14,69-6.89,100.56,13.87,122.23c9,9.36,20.86,15.28,32.71,20.13a262,262,0,0,0,47.5,14.07c32.38,6.5,65.49,8,98.4,9.38,8.35.36,16.69.72,25,1.15,3.86.19,3.85-5.81,0-6Z"/><path class="c" d="M3.63,418.41a257.81,257.81,0,0,1,48.74-51c25.91-20.53,55.53-35.88,85.7-49.37,28.6-12.79,59-24.23,90.29-22.54,29.33,1.58,57.29,14.88,79.54,34.05s39.14,43.93,52.31,70.18A1860.49,1860.49,0,0,1,12.27,430"/><path d="M4.92,419.17A261.27,261.27,0,0,1,67.61,358c23.28-16.08,48.74-28.78,74.59-40.17,27.07-11.92,56.12-22.46,86.16-20.83,27.92,1.51,54.55,13.82,75.94,31.47,23.52,19.41,41,45,54.62,72l.89-2.2A1863.82,1863.82,0,0,1,88.89,427.48q-38.29,1.31-76.62,1a1.5,1.5,0,1,0,0,3A1871.11,1871.11,0,0,0,284,413.56q38.43-5.38,76.62-12.36a1.51,1.51,0,0,0,1-1.86,1.43,1.43,0,0,0-.14-.34C337,350.39,296.85,304.27,240.3,295.31c-29.68-4.7-59.11,3.27-86.46,14.38C126.1,321,98.72,334.14,73.58,350.44A268.64,268.64,0,0,0,2.33,417.65c-1.14,1.57,1.47,3.07,2.59,1.52Z"/><path class="d" d="M101.75,424.12l112.07-55.5c4.2-2.08,8.86-4.22,13.4-3.05,4.2,1.08,7.17,4.72,9.75,8.2A246.53,246.53,0,0,1,262.24,415C207,421,153.85,428.32,98.32,428.86"/><path d="M102.51,425.41,194.12,380c7.34-3.63,14.61-7.48,22-10.9,5.36-2.47,10.64-3.64,15.46.7,2.83,2.56,5,5.93,7.2,9a263.14,263.14,0,0,1,22.11,36.88l1.3-2.26c-54.52,6-109,13.28-163.92,13.89a1.5,1.5,0,0,0,0,3c54.93-.61,109.4-7.89,163.92-13.89a1.53,1.53,0,0,0,1.47-1.58,1.47,1.47,0,0,0-.18-.68A259.66,259.66,0,0,0,238.26,373c-3.23-4.29-7-8.79-12.75-9.24-7.66-.59-15.74,5.17-22.23,8.39L101,422.82C99.27,423.68,100.79,426.27,102.51,425.41Z"/><path d="M91.06,427.58c4.09,1,8.28,2,12.15,1.33a4,4,0,0,0,2.74-1.4,2.77,2.77,0,0,0-.29-3.35l-13.48-2.78a5.22,5.22,0,0,0-3.13,0c-2,.87-1.61,4.81.54,6.09"/><g class="e"><path class="b" d="M195.93,427.14c-.71,6.66-.76,14.64,5.86,18.41,5.38,3.06,11.76.6,13.12-5.55,1.31-5.89-.69-14.25-5.71-17.9-5.24-3.81-12.79-1.18-13,5.65-.12,3.22,4.88,3.21,5,0,.17-4.33,4.86-2.2,6.25-.6a11.15,11.15,0,0,1,2.07,4.45c.74,2.66,1.75,7.34-.61,9.45-2.8,2.5-6.41-.66-7.5-3.36-1.34-3.3-.8-7.1-.43-10.55.34-3.19-4.66-3.17-5,0Z"/><path class="b" d="M223.65,410,226,434.67c.3,3.18,5.3,3.21,5,0L228.65,410C228.35,406.82,223.34,406.79,223.65,410Z"/><path class="b" d="M131.5,432.81a2.16,2.16,0,0,1,2.89,1c0,.09.08.19.11.28l.84,1.92c1.75,4-1.43,6.58-3.92,7.66-4.67,2-8.72-.37-10.47-4.4s-1-9.06,3.56-11.06c3.33-1.45,6.58-.52,7.2.89a1.39,1.39,0,0,1-.63,1.86c-.28.13-.59.24-1.73-.22a3.94,3.94,0,0,0-3.54-.05c-3.14,1.36-3.3,4.75-2.19,7.31,1.29,3,3.92,4.18,6.75,2.95s2.54-3.43,2.36-3.83l-.45-1a.49.49,0,0,0-.62-.32l-.08,0-3.31,1.44a1.39,1.39,0,0,1-1.79-.81,1.24,1.24,0,0,1,.54-1.67l0,0Z"/><path class="b" d="M142,437.63a1.32,1.32,0,0,1-2.41,1.06l-4.24-9.28a1.32,1.32,0,0,1,2.44-1l.26.58a3.77,3.77,0,0,1,2.22-3.21c.89-.41,2.35-.58,2.84.49a1.15,1.15,0,0,1-.46,1.56l-.11.05c-.21.1-1.1.32-1.26.4-1.31.6-1.66,4.12-1.44,4.61Z"/><path class="b" d="M148.89,429.81c.35.61,1.47,2.42,3.43,1.48a1.86,1.86,0,0,0,1.14-1.76c.14-.87.32-1.14.84-1.39a1.27,1.27,0,0,1,1.64.72c.66,1.38-.31,3.68-2.59,4.77-1.62.77-5,1.35-7.28-3.34-2.07-4.33-.42-7,1.68-8a4.78,4.78,0,0,1,6.34,2.35l.06.15c.63,1.34.63,2.25-.37,2.72ZM151.2,426c.39-.19.44-.32.37-.47a2.09,2.09,0,0,0-2.71-1c-1.58.75-1.09,2.59-1,3.05Z"/><path class="b" d="M159,424.92c.37.59,1.51,2.39,3.46,1.42.61-.3.95-.68,1.11-1.79.12-.86.3-1.14.82-1.39a1.26,1.26,0,0,1,1.65.68h0c.67,1.36-.26,3.68-2.52,4.81-1.6.79-5,1.43-7.33-3.22-2.14-4.3-.53-7,1.54-8.06a4.77,4.77,0,0,1,6.37,2.25,1,1,0,0,1,.07.15c.66,1.32.68,2.23-.31,2.72Zm2.25-3.83c.39-.19.43-.33.36-.47a2.1,2.1,0,0,0-2.73-1c-1.56.78-1,2.61-.9,3.07Z"/><path class="b" d="M178,419.73a1.34,1.34,0,0,1-.51,1.8h0a1.33,1.33,0,0,1-1.78-.61h0l-3-5.71a2,2,0,0,0-2.59-1.13,1.43,1.43,0,0,0-.28.13,2.85,2.85,0,0,0-1.33,3.64l2.81,5.39a1.32,1.32,0,0,1-2,1.71,1.31,1.31,0,0,1-.28-.55l-3.61-6.94c-.17-.33-1-1.64-1.19-1.93a1.22,1.22,0,0,1,.53-1.64l.08,0a1.72,1.72,0,0,1,2,.46,4.31,4.31,0,0,1,2.49-2.78,3.68,3.68,0,0,1,5.08,1.14l.18.32Z"/><path class="b" d="M175.61,409.8c-.3-.56-.69-1.26.29-1.79a1.29,1.29,0,0,1,1.77.44l.07.14a3.52,3.52,0,0,1,2.08-2.73c3.19-1.75,6,.31,7.55,3.18s1.82,6.14-1.32,7.86a4.77,4.77,0,0,1-3.24.58l1,1.82a1.33,1.33,0,0,1-.44,1.79,1.34,1.34,0,0,1-1.84-.5Zm5,3.73a2.63,2.63,0,0,0,3.47,1.31l.31-.17c1.08-.59,2-1.68.51-4.51a4.25,4.25,0,0,0-2.17-2.09,2.4,2.4,0,0,0-1.88.34,2.72,2.72,0,0,0-1,3.69l.08.13Z"/><path class="b" d="M191.55,407.7c.4.57,1.65,2.29,3.53,1.21.59-.34.91-.73,1-1.85.07-.87.24-1.15.74-1.44a1.27,1.27,0,0,1,1.69.59c.75,1.32,0,3.69-2.23,5-1.55.89-4.92,1.73-7.51-2.77-2.39-4.17-1-7,1.07-8.14a4.79,4.79,0,0,1,6.5,1.86l.07.14c.73,1.28.8,2.19-.16,2.74Zm2-3.95c.37-.22.41-.36.33-.5a2.1,2.1,0,0,0-2.78-.8c-1.51.87-.89,2.66-.72,3.11Z"/><path class="b" d="M208.92,399.37a4.21,4.21,0,0,0,1.19,1.26,2.59,2.59,0,0,1,.63.65,1.21,1.21,0,0,1-.52,1.63l0,0a1.32,1.32,0,0,1-1.86-.46,5.8,5.8,0,0,1-2.67,3.21c-2.55,1.54-4.92.79-6.1-1.18-.94-1.55-1.27-4.25,2.65-6.61a7.26,7.26,0,0,1,2.23-.92c-.32-.49-1.12-1.74-3.3-.43A3.65,3.65,0,0,0,199.7,398c-.62,1.12-.7,1.24-1,1.4a1.37,1.37,0,0,1-1.83-.53c-.7-1.16.75-3.17,3-4.53,4.36-2.63,6.24.48,7.09,1.89Zm-3,0c-.18-.3-1.17-.06-2.4.68-.62.37-2.55,1.54-1.63,3.07.6,1,1.67.81,2.81.13,1.67-1,1.94-2.68,1.63-3.19Z"/><path class="b" d="M215.76,388.37a1.33,1.33,0,0,1-.31,1.84l-.09.06c-.37.23-.62.32-1.61-.08a2,2,0,0,0-2.13.09c-1.49,1-.85,3,0,4.32s2.54,2.67,4.08,1.7a2,2,0,0,0,1-1.85c.05-.76.22-1.11.65-1.39a1.25,1.25,0,0,1,1.73.3l.07.12c.48.77.32,3.66-2,5.16s-5.59.89-7.81-2.62c-1.25-2-2.62-5.8,1.13-8.17C211.94,386.87,214.8,386.86,215.76,388.37Z"/><path class="b" d="M221.59,389.32c.44.55,1.8,2.18,3.61,1a1.94,1.94,0,0,0,.88-1.91c0-.88.16-1.17.64-1.49a1.25,1.25,0,0,1,1.71.46v0c.84,1.27.21,3.68-1.89,5.08-1.49,1-4.8,2.06-7.68-2.27-2.66-4-1.41-6.9.52-8.19a4.79,4.79,0,0,1,6.62,1.45l.07.12c.82,1.23.95,2.13,0,2.75Zm1.76-4.08c.36-.24.39-.38.29-.51a2.08,2.08,0,0,0-2.82-.62c-1.45,1-.71,2.72-.52,3.16Z"/></g><path d="M102.51,425.41,194.12,380c7.34-3.63,14.61-7.48,22-10.9,5.36-2.47,10.64-3.64,15.46.7,2.83,2.56,5,5.93,7.2,9a263.14,263.14,0,0,1,22.11,36.88l1.3-2.26c-54.52,6-109,13.28-163.92,13.89a1.5,1.5,0,0,0,0,3c54.93-.61,109.4-7.89,163.92-13.89a1.53,1.53,0,0,0,1.47-1.58,1.47,1.47,0,0,0-.18-.68A259.66,259.66,0,0,0,238.26,373c-3.23-4.29-7-8.79-12.75-9.24-7.66-.59-15.74,5.17-22.23,8.39L101,422.82C99.27,423.68,100.79,426.27,102.51,425.41Z"/><path class="b" d="M109.54,324c.69,8.62,9.32,33.35,22.38,27.48,10.15-4.57,10.56-25.34,8.05-34.26-4.6-16.4-27,1.46-29.55,11.64a9.43,9.43,0,0,1,1.22-1.31"/><path d="M108,324c1.08,11,13.65,41.42,28.38,26,7.82-8.18,12-44.86-7-40.59-8.62,1.93-18,10.53-20.46,19a1.51,1.51,0,0,0,2.51,1.45l1.22-1.31c1.31-1.41-.8-3.54-2.12-2.12l-1.22,1.31,2.51,1.46c2.18-7.46,11-15.75,18.79-17,10.8-1.79,9.56,16.43,8.63,23-.67,4.73-2,10.39-5.9,13.56-4.09,3.35-8.68,2.2-12.2-1.28C115.39,341.71,111.83,332,111,324,110.82,322.1,107.82,322.08,108,324Z"/><path class="b" d="M111.64,327.51l-.46-.78a11.86,11.86,0,0,0-.76,2.09A9.43,9.43,0,0,1,111.64,327.51Z"/><path d="M112.94,326.75l-.47-.78a1.5,1.5,0,0,0-2.07-.52,1.61,1.61,0,0,0-.52.52,16.49,16.49,0,0,0-.91,2.46,1.51,1.51,0,0,0,.87,1.77,1.53,1.53,0,0,0,1.87-.62,9.44,9.44,0,0,1,1-1,1.5,1.5,0,0,0-2.12-2.12,13.19,13.19,0,0,0-1.46,1.62l2.75,1.15a10.52,10.52,0,0,1,.6-1.74h-2.59l.47.79a1.5,1.5,0,1,0,2.59-1.52h0Z"/><path class="b" d="M118.68,280.16c12.2.92,19.53,18.57,21,28.9,2.09,14.38-13.68,28.47-28.33,24.56-7.25-1.94-10-12.31-11.64-18.95-1.08-4.4-3.6-17.57,1.35-20.4C101.08,294.27,107.57,279.32,118.68,280.16Z"/><path d="M118.68,281.66c11.92,1.41,18.93,18.15,19.66,28.7.52,7.46-3.88,14.5-9.92,18.57-5.53,3.72-15,6.17-20.42,1-4.21-4-5.73-10.8-7-16.29-1-4.61-2.63-11.06-.82-15.64.82-2.08,3.28-5.3,4.57-7.28,3.2-4.88,7.71-9.2,13.91-9a1.5,1.5,0,0,0,0-3c-5.17-.13-9.54,2.3-13,6-2.49,2.68-3.77,5.91-5.86,8.77-2.65,3.64-3.41,6.75-3.11,11.58a65.88,65.88,0,0,0,3,15.22c1.57,5.1,3.89,11,8.79,13.79s11.58,2,16.58,0c11.25-4.47,18.15-16,15.66-27.89-2.37-11.29-9.13-26-22-27.53C116.76,278.44,116.78,281.44,118.68,281.66Z"/><path class="d" d="M115,301.41a118.45,118.45,0,0,0-.21,14.1,6.61,6.61,0,0,0,1.14,4c1.3,1.51,3.58,1.57,5.58,1.5,2.21-.07,4.73-.3,6.07-2.05,1.19-1.57,1-3.79.35-5.66-1.86-5.65-6.57-9.82-11.08-13.69C116.89,299.65,115.22,298.76,115,301.41Z"/><path d="M113.54,301.41a100.54,100.54,0,0,0-.21,14.1c.18,2.3.55,4.58,2.62,6,3.65,2.43,11.81,1.59,13.59-2.91,2.31-5.82-3.65-12.61-7.46-16.28-2.28-2.2-7.32-7.38-8.49-1.26-.35,1.88,2.54,2.69,2.9.79.08-.45,5.7,4.85,6.32,5.6,2.42,2.9,7.28,10.14.78,11.94-2.13.59-6.11.33-7.07-2.09-.53-1.36-.27-3.47-.3-4.88-.06-3.66.09-7.31.32-11C116.66,299.49,113.66,299.49,113.54,301.41Z"/><path class="d" d="M68.44,249.94c-10,2.44-18.93,9.81-22.22,19.57s-.25,21.61,8,27.81,21.2,5.5,28-2.2c-5.8-2.67-12,5.49-9.58,11.4s9.65,8.4,16,8.1c16-.75,29.61-16.49,28.09-32.41,1,8.77,13.56,11.86,20.91,7S148,275.12,150,266.53c2.47-10.85,4-22.78-1.17-32.63S129.23,218.58,121,226c5.38,1,9.46-6.47,6.77-11.23s-9.41-6-14.49-4-8.79,6.44-11.83,11c2.88-7.39-3.82-15.83-11.61-17.31S74.13,206.55,67.57,211c-5.36,3.65-10.4,8.12-13.3,13.92s-3.32,13.16.21,18.6,11.49,8,17,4.48"/><path d="M68,248.49c-17,4.57-29.56,21.77-22.7,39.31,6,15.26,26.23,20.6,37.94,8.38a1.53,1.53,0,0,0,0-2.15,1.56,1.56,0,0,0-.62-.36c-6.46-2.23-12.37,4.22-12,10.55.44,7.59,8.88,11.43,15.46,11.87,18.12,1.2,33.36-16.42,32.18-33.88l-3,.4c1.5,8.88,12,12.14,19.79,9.49,11.59-4,15.14-18.74,17.18-29.29,2.27-11.78,3-26.44-6.61-35.37-7-6.56-17.94-8.91-25.77-2.48-1.09.9-.1,2.47,1.06,2.56,9.17.68,11.87-11.82,5.09-16.76-10-7.25-20.5,2.37-25.94,10.27l2.74,1.16c2.62-8.24-3.43-16.52-11.36-18.85-11-3.21-22.93,4.09-30.77,11.1-7.4,6.6-13,17.08-9,27,3.22,8,12.73,12.09,20.44,7.82,1.69-.93.18-3.52-1.52-2.59-8.36,4.64-17-3-17.2-11.59-.22-8,4.69-14.71,10.6-19.63,6.12-5.09,14.15-10,22.39-9.85,8,.17,16.2,7.24,13.5,15.75-.54,1.7,1.82,2.5,2.74,1.16,3.61-5.26,8.54-11.19,15.53-11.17,3,0,6.72,1.28,8.2,4.17,2,3.94-1,9.31-5.47,9l1.07,2.56c7-5.77,17.27-2.4,22.85,3.82,7.41,8.25,6.45,21,4.5,31.11-1.7,8.82-4,19.34-11.47,25.12-6.21,4.78-18.18,3.71-19.71-5.31-.28-1.66-3.06-1.29-2.94.39a29.73,29.73,0,0,1-18.83,29.25c-5.31,2-11.87,2.54-17.08-.13-3.37-1.73-6.36-5-5.61-9.06.7-3.78,4.16-7.06,8.08-5.71l-.66-2.5c-11.09,11.57-29.77,5-33.82-9.71-4.25-15.4,7.06-29.09,21.5-33a1.5,1.5,0,0,0-.8-2.89Z"/><path d="M106.6,332.33c1,12.13,12.89,30.36,27.42,24.34,6.79-2.82,9.81-10.8,10.66-17.55,1.15-9.08-1.37-18.07-3.84-26.72a1.5,1.5,0,0,0-2.89.8c3.27,11.46,8.21,28.4-1.56,38.23-5.61,5.64-13.67,2.77-18.76-2a26.17,26.17,0,0,1-8-17.11c-.15-1.91-3.16-1.92-3,0Z"/><path d="M84.57,252.2a19.36,19.36,0,0,0-10.72-.52c-1.88.43-1.08,3.32.8,2.89a16.5,16.5,0,0,1,9.13.52C85.61,255.71,86.4,252.81,84.57,252.2Z"/><path d="M83.93,256.24A15,15,0,0,0,74.77,260c-1.46,1.27.67,3.38,2.12,2.12a11.63,11.63,0,0,1,7-2.87c1.91-.12,1.93-3.12,0-3Z"/><path d="M126.15,262.57l6.19-6c1.39-1.34-.73-3.46-2.12-2.12l-6.19,6C122.64,261.8,124.76,263.92,126.15,262.57Z"/><path d="M130,266.57a21.8,21.8,0,0,1,8.47-3.12c1.9-.29,1.09-3.18-.8-2.89a23.86,23.86,0,0,0-9.19,3.42C126.85,265,128.35,267.6,130,266.57Z"/><path d="M90.47,295.35l-3.8,5.84c-1.06,1.62,1.54,3.12,2.59,1.51l3.8-5.83c1.06-1.63-1.54-3.13-2.59-1.52Z"/><path d="M96,295.82l-.52,4.5a1.5,1.5,0,0,0,1.5,1.5,1.54,1.54,0,0,0,1.5-1.5l.52-4.5a1.5,1.5,0,0,0-3,0Z"/><path d="M103.22,292.17a13.64,13.64,0,0,0,2.66,6.24,1.54,1.54,0,0,0,2.05.54,1.51,1.51,0,0,0,.54-2.05,11.72,11.72,0,0,1-2.35-5.53,1.5,1.5,0,1,0-2.9.8Z"/><path d="M92,225.9a15.45,15.45,0,0,0-5.06-6.07c-1.57-1.13-3.07,1.47-1.52,2.59a12.45,12.45,0,0,1,4,5c.8,1.75,3.38.23,2.59-1.52Z"/><path d="M88.28,226.94l-5.35-1c-1.89-.36-2.69,2.53-.8,2.9l5.35,1c1.89.36,2.7-2.53.8-2.89Z"/><path d="M82.32,231l-8,3.75c-1.74.82-.22,3.41,1.52,2.59l8-3.75C85.58,232.77,84.06,230.18,82.32,231Z"/><path d="M117.49,259.4A51.18,51.18,0,0,1,134.77,246c1.74-.84.22-3.42-1.51-2.59a53,53,0,0,0-17.89,13.87c-1.23,1.48.88,3.61,2.12,2.13Z"/><path d="M95.3,259.82a46.23,46.23,0,0,0-24.07,10.59c-1.48,1.24.65,3.36,2.12,2.12a42.58,42.58,0,0,1,22-9.71c1.89-.26,1.91-3.26,0-3Z"/><path d="M41.57,388.64c19.61-16.55,43.67-27.38,63.28-43.94,1.48-1.25-.65-3.36-2.12-2.12C83.13,359.13,59.06,370,39.45,386.52c-1.48,1.25.66,3.36,2.12,2.12Z"/><path d="M154.37,324.93a184.59,184.59,0,0,1,52.35-21.74c1.88-.45,1.09-3.34-.79-2.89a187.16,187.16,0,0,0-53.07,22,1.5,1.5,0,0,0,1.51,2.59Z"/><path d="M270,281.2c26.08,9.63,29.06,40.91,30.34,64.64.1,1.92,3.1,1.94,3,0-1.36-25.31-5-57.36-32.55-67.53-1.81-.67-2.59,2.23-.79,2.89Z"/><path class="b" d="M235.42,370c11.7,19.07,28.09,34.94,49.06,42.76s45,9.62,65.89,1.64c39.46-15,33.53-72.89,27.8-76.73-3.59-2.4-129.87,21.11-142.06,32.33"/><path d="M234.12,370.79c10.17,16.35,23.76,30.8,41.09,39.57,18.72,9.48,41.33,13.07,62,9.3,15.36-2.8,28.85-10,37.07-23.55,6.36-10.55,9.12-23.09,9.49-35.31.2-6.52.71-17.62-3.66-23.19-2.48-3.17-8.86-1.15-12.19-.71-23.3,3.09-46.47,7.84-69.42,12.87-13.77,3-27.53,6.2-41.06,10.14-7.13,2.08-16.64,4-22.39,9.07-1.45,1.28.67,3.39,2.12,2.12,4.51-4,12.05-5.56,17.63-7.27,10.27-3.15,20.73-5.72,31.19-8.17q34.35-8,69.2-13.82c6.7-1.1,13.55-2.47,20.35-2.76,2-.08,1.9-.46,2.61,1.14a31.55,31.55,0,0,1,2.18,9.34c2.69,22.84-4.43,50.65-26.44,61.71-20.92,10.51-47.73,8.13-69,.08-20.64-7.81-36.67-23.58-48.17-42.07-1-1.64-3.61-.13-2.59,1.51Z"/><path class="b" d="M313.39,258.94c-4.57,3.87-10.11,6.4-15.17,9.61s-9.89,7.46-11.7,13.17,8.15,17.41,13.79,19.44c5,1.81,10.44-.93,15-3.66q8.73-5.21,17.25-10.77c6.86-4.48,14.18-10,15.6-18.05,1.84-10.47-8-20.22-18.54-21.75s-21,3-30.07,8.49-17.75,12.05-27.87,15.3c1.59-19.32,7.74-38.59-.41-56.18-3.35-7.23-33.7-42.49-51.13-13.26-8.31,13.93,19.41,49,14.8,64.56-1.94,6.55-5.25,12.76-6.06,19.55C228,292.92,209.69,392,274.8,394.23c75.74,2.65,96.51-36,106.15-64"/><path d="M312.33,257.88c-8.15,6.58-31.65,14.56-26.84,28.93,1.73,5.15,5.89,10,10.12,13.26,5,3.92,10.48,3.72,16.16,1.06,8.55-4,16.89-9.73,24.6-15.15,5.36-3.78,10.7-8.38,12.74-14.83,4.18-13.3-8.86-24.94-21.22-25.92-21.73-1.72-37.38,17.5-56.59,24l1.9,1.44c1.95-21.76,9.63-46.53-6.33-64.84-8.9-10.21-25.32-23.46-39.32-14.75-6.34,4-10.93,10.82-10.38,18.39.61,8.42,4.45,16.53,7.71,24.19,3.57,8.37,8.44,17.5,9.05,26.75.34,5.19-2.16,9.9-3.87,14.67a58.78,58.78,0,0,0-2.78,11.16c-3.3,22.65-5,46.47.88,68.85,3.44,13.07,10.05,25.8,21.66,33.32a47,47,0,0,0,20.72,7c11.93,1.26,24.47.45,36.3-1.34,20-3,39.48-10.84,53.73-25.56,10.33-10.68,17-24,21.83-37.9.63-1.83-2.26-2.61-2.89-.8-4.06,11.72-9.44,23.07-17.47,32.6-10.27,12.19-24.08,20.48-39.27,25.06a132.52,132.52,0,0,1-32.79,5.2c-9.5.4-19.46.71-28.64-2.15-13.5-4.2-22.7-15-27.65-27.94-8.41-21.93-7.33-47.21-4.29-70.12.37-2.79.7-5.61,1.2-8.38,1.64-9.2,7.57-17.06,6-26.66-2.75-16.43-14.42-30.42-16.31-47-1-9.23,6.79-18.49,16.16-19,9.11-.51,17.69,6,23.9,12,6,5.78,10.47,11.67,12.38,20,3.59,15.58-1.1,31.85-2.49,47.42a1.5,1.5,0,0,0,1.52,1.5,1.58,1.58,0,0,0,.38,0c16.8-5.72,29.77-20.23,47.5-23.49,9.3-1.71,19.4.93,24.73,9.24,5.67,8.83.61,17.55-6.67,23.36-7.09,5.67-15.26,10.37-23.09,14.92-4,2.33-9.06,5.31-13.86,3.52-2.95-1.11-5.45-3.74-7.48-6.06s-4.73-5.76-5.27-9c-.66-4,2.62-7.84,5.31-10.41,6.18-5.9,14.56-8.85,21.18-14.2,1.5-1.22-.63-3.33-2.12-2.12Z"/><path class="b" d="M345.92,275.54a25.6,25.6,0,0,1,19.21,7.81A20.8,20.8,0,0,1,370,303.18c-2.49,7.95-9.87,13.23-17,17.5-5.79,3.45-11.93,6.7-18.63,7.45S320.2,326.59,316.5,321s-7.41-20.95-1.15-23.46"/><path d="M345.92,277c11.67.1,23.74,8.08,23.34,20.91-.37,11.42-11.07,18.13-20,23.13-9.15,5.12-24.1,10-31.47-.88-2.84-4.19-7.86-18.23-1.68-21.41,1.71-.88.2-3.47-1.52-2.59-8,4.11-3.24,19.09.17,24.79,7.08,11.86,22.58,9.54,33,4.29,11-5.53,24.77-14.14,24.5-28.09C372,283,359.1,274.15,345.91,274a1.5,1.5,0,0,0,0,3Z"/><path class="b" d="M370.28,307.53c5.77,1.11,10.27,6.28,11.48,12s-.53,11.85-3.81,16.72-8,8.62-13,11.69c-5.27,3.23-11.08,5.82-17.24,6.29s-12.71-1.4-16.88-6-6.85-14.63-3.34-19.72"/><path d="M369.88,309c9.47,2.38,12.58,12.65,9.52,21.18-3,8.35-10.58,14.16-18.13,18.21-7.9,4.24-18,6.72-26.15,1.56-6.07-3.85-10.21-14-6.34-20.58a1.5,1.5,0,0,0-2.59-1.52h0c-4.21,7.19-.83,18,5.26,23.11,8.56,7.19,20.53,5.4,29.83.8C371,347,380.88,339,383.16,327.89c1.92-9.42-2.77-19.35-12.48-21.78-1.87-.47-2.67,2.42-.8,2.89Z"/><path d="M312.33,257.88c-8.15,6.58-31.65,14.56-26.84,28.93,1.73,5.15,5.89,10,10.12,13.26,5,3.92,10.48,3.72,16.16,1.06,8.55-4,16.89-9.73,24.6-15.15,5.36-3.78,10.7-8.38,12.74-14.83,4.18-13.3-8.86-24.94-21.22-25.92-21.73-1.72-37.38,17.5-56.59,24l1.9,1.44c1.95-21.76,9.63-46.53-6.33-64.84-8.9-10.21-25.32-23.46-39.32-14.75-6.34,4-10.93,10.82-10.38,18.39.61,8.42,4.45,16.53,7.71,24.19,3.57,8.37,8.44,17.5,9.05,26.75.34,5.19-2.16,9.9-3.87,14.67a58.78,58.78,0,0,0-2.78,11.16c-3.3,22.65-5,46.47.88,68.85,3.44,13.07,10.05,25.8,21.66,33.32a47,47,0,0,0,20.72,7c11.93,1.26,24.47.45,36.3-1.34,20-3,39.48-10.84,53.73-25.56,10.33-10.68,17-24,21.83-37.9.63-1.83-2.26-2.61-2.89-.8-4.06,11.72-9.44,23.07-17.47,32.6-10.27,12.19-24.08,20.48-39.27,25.06a132.52,132.52,0,0,1-32.79,5.2c-9.5.4-19.46.71-28.64-2.15-13.5-4.2-22.7-15-27.65-27.94-8.41-21.93-7.33-47.21-4.29-70.12.37-2.79.7-5.61,1.2-8.38,1.64-9.2,7.57-17.06,6-26.66-2.75-16.43-14.42-30.42-16.31-47-1-9.23,6.79-18.49,16.16-19,9.11-.51,17.69,6,23.9,12,6,5.78,10.47,11.67,12.38,20,3.59,15.58-1.1,31.85-2.49,47.42a1.5,1.5,0,0,0,1.52,1.5,1.58,1.58,0,0,0,.38,0c16.8-5.72,29.77-20.23,47.5-23.49,9.3-1.71,19.4.93,24.73,9.24,5.67,8.83.61,17.55-6.67,23.36-7.09,5.67-15.26,10.37-23.09,14.92-4,2.33-9.06,5.31-13.86,3.52-2.95-1.11-5.45-3.74-7.48-6.06s-4.73-5.76-5.27-9c-.66-4,2.62-7.84,5.31-10.41,6.18-5.9,14.56-8.85,21.18-14.2,1.5-1.22-.63-3.33-2.12-2.12Z"/><path d="M345.92,277c11.67.1,23.74,8.08,23.34,20.91-.37,11.42-11.07,18.13-20,23.13-9.15,5.12-24.1,10-31.47-.88-2.84-4.19-7.86-18.23-1.68-21.41,1.71-.88.2-3.47-1.52-2.59-8,4.11-3.24,19.09.17,24.79,7.08,11.86,22.58,9.54,33,4.29,11-5.53,24.77-14.14,24.5-28.09C372,283,359.1,274.15,345.91,274a1.5,1.5,0,0,0,0,3Z"/><path d="M369.88,309c9.47,2.38,12.58,12.65,9.52,21.18-3,8.35-10.58,14.16-18.13,18.21-7.9,4.24-18,6.72-26.15,1.56-6.07-3.85-10.21-14-6.34-20.58a1.5,1.5,0,0,0-2.59-1.52h0c-4.21,7.19-.83,18,5.26,23.11,8.56,7.19,20.53,5.4,29.83.8C371,347,380.88,339,383.16,327.89c1.92-9.42-2.77-19.35-12.48-21.78-1.87-.47-2.67,2.42-.8,2.89Z"/><path d="M253.91,286.26c15.32-1.45,29.73,6.39,39.16,18.18,10.2,12.77,14.46,29.11,16.86,45,.29,1.9,3.18,1.09,2.9-.8-2.56-16.9-7.34-34.22-18.63-47.49-9.92-11.66-24.78-19.34-40.29-17.87-1.9.18-1.92,3.18,0,3Z"/><path d="M379,334.82h0l2.09,3.69c3.57-9,6.56-18.76.08-27.25a17.49,17.49,0,0,0-8.75-6.3c-2.84-.84-4.57.44-7.07,1.67l4.1,4.11a23.48,23.48,0,0,0-1.67-28.93,27.14,27.14,0,0,0-12.74-8c-3.71-1.11-8.54-2.32-11.88.07l4.11,4.11c10.51-14.89-2-32.35-18.47-34.14-22.35-2.42-38.24,17.32-57.87,24l3.8,2.89c1.68-18.81,9.18-42.57-2.09-59.87-6.23-9.56-16.24-18.71-27.09-22.51-12-4.17-26.64,2.48-29.53,15.54-1.31,6,.62,12.43,2.57,18,2.51,7.2,5.78,14.11,8.66,21.16,2.54,6.22,6.25,14,5.1,20.93-.93,5.63-4.11,10.89-5.51,16.43-1.23,4.88-1.67,10.1-2.29,15.09l3-3c-31-1.19-60.49,9.54-88.47,21.86l4.41,1.8c-1.22-4.39-.83-9.08-2.09-13.56a56.83,56.83,0,0,0-5.57-13L134,294c16.81-4.89,21.14-29.15,21.24-44.14,0-8.25-2-17.05-8-23A24,24,0,0,0,126.35,220l3.39,4.41c4.32-8-.58-16.2-9.43-17.36-9.57-1.25-16.53,6-21.5,13.23l5.49,2.31c2.86-9-3.73-18.16-12.41-20.7-11.51-3.36-24,4.11-32.24,11.48-7.86,7-13.5,18.17-9.27,28.68,3.56,8.83,14.08,13.25,22.57,8.55l-3-5.18c-5.83,3.75-12.42,5.06-17.78,9.93A30.47,30.47,0,0,0,41.93,277.1c-.33,17.32,14.36,30.31,31.46,26.61L69.7,300c-1.78,7,2.14,12.91,8.54,15.72,7.31,3.21,15.33,1.9,22.4-1.24l-4.41-1.79c1.57,7.57,3.68,16.52,10,21.58l.61-4.71-.27.16a3,3,0,0,0-1.49,2.59h0l1.48-2.59C65.17,351.12,28.62,379,1,416.9a2.89,2.89,0,0,0,0,3l6.57,8.81a20.4,20.4,0,0,0,2.3,3.08C12.49,434.13,17.71,433,21,433q29.82.08,59.62-.81c18.84-.55,37.62-.66,56.47-1.78,19.72-1.18,39.4-3,59-5.08,22-2.33,44-4.95,66-7.4a3.05,3.05,0,0,0,3-3.14,3,3,0,0,0-.37-1.37h0L262.24,418q7-.9,14-1.85c2.54-.34,4.94-.94,7.45-.43s5.09,1.79,7.57,2.51a107.72,107.72,0,0,0,27.09,4.37c15.45.44,32.77-2.45,45.27-12.15,16.75-13,22.64-36,21.59-56.34-.29-5.66-.47-15.13-5.52-19-3.07-2.33-6.07,2.88-3,5.18-.61-.47.14.32.36,1,.31.93.61,1.86.85,2.81a50.68,50.68,0,0,1,1.32,9.57,79,79,0,0,1-2.77,26c-2.65,9.36-7.39,18.19-14.79,24.64-11.07,9.63-27.3,12.4-41.51,12.25a100.94,100.94,0,0,1-29-4.7c-4.41-1.37-7.21-2.84-11.8-2.21q-8.55,1.19-17.11,2.28c-2.33.3-3.65,2.3-2.59,4.51h0l2.59-4.51c-32.31,3.59-64.57,7.6-97,10.4-32.11,2.78-64.15,3.43-96.32,4.17q-28.33.66-56.68.46l2.59,1.48L6.22,416.9v3c27-37,63-64.13,103.4-85a3,3,0,0,0,1.49-2.59h0l-1.48,2.6.26-.17c1.48-.92,2.18-3.46.61-4.71-5.51-4.4-7.11-12.36-8.47-18.94-.43-2.08-2.77-2.52-4.41-1.79-6,2.65-25.17,4.32-22.13-7.71a3,3,0,0,0-2.09-3.69,3.1,3.1,0,0,0-1.6,0c-15.28,3.31-26.75-11-23.25-25.58A26.23,26.23,0,0,1,60.49,256.5c4-2.48,8.51-3.37,12.47-5.92,3.23-2.09.37-7.06-3-5.18-7.37,4.08-14.71-2.89-15-10.3-.24-7.62,4.56-13.93,10.16-18.57,5.83-4.82,13.5-9.59,21.33-9.41,7,.15,14.45,6.3,12,13.85-1.08,3.4,3.64,5,5.49,2.31,2.76-4,6.29-8.62,11.24-10,5.15-1.44,12.79,1.61,9.32,8.08-1.32,2.46.84,4.83,3.39,4.41,6.13-1,12.58,2.06,16.42,6.81,4.58,5.65,5.21,13.62,4.73,20.59-.77,11.32-3.83,31.26-16.69,35a3,3,0,0,0-2.09,3.69,3.23,3.23,0,0,0,.3.72A49.86,49.86,0,0,1,136,305.69c1,4.07.58,8.05,1.69,12.06a3.08,3.08,0,0,0,4.41,1.8c27-11.91,55.49-22.2,85.44-21.05a3.08,3.08,0,0,0,3-3c.49-3.94.91-7.95,1.7-11.83,1-5.05,3.2-9.74,4.85-14.59,1.82-5.36,1.55-10.33.12-15.77-3.33-12.66-10.31-24-14-36.59-1.5-5.05-2.72-10.46.32-15.14,3.54-5.46,8.93-9.4,15.67-8.62,10.79,1.24,20.74,10.81,27,19.12,12.16,16.2,4.18,40.42,2.55,58.64a3,3,0,0,0,3,3,3.09,3.09,0,0,0,.8-.11c15.53-5.29,27.5-17.71,43.23-22.42,8-2.41,16.74-2.32,23.45,3.25s7.92,13.36,2.88,20.5c-1.7,2.4,1.7,5.83,4.1,4.1,1.8-1.29,5.19-.09,7.26.54a21.05,21.05,0,0,1,9.59,5.89c5.85,6.46,6,15.19,1.23,22.24-1.81,2.68,1.63,5.32,4.11,4.1.57-.28,1.14-.58,1.72-.85s1.78-.37,1.1-.47c1.26.19,4.82,3.6,6,5.54,4.1,6.73.71,14.3-1.89,20.88-.64,1.61.71,3.17,2.09,3.69h0C381,342,382.54,336.19,379,334.82Z"/><path class="f" d="M306.49,207.3c9.25-15.06,18.11-29.63,23.89-46.33a25.38,25.38,0,0,0,16.29,12l-32.86,42a11.34,11.34,0,0,0-7.32-7.71"/><path d="M309.08,208.82c9.26-15.09,18.26-30.3,24.2-47l-5.49.72A29.49,29.49,0,0,0,345.87,176l-1.32-5-32.86,42,5,1.32a15.31,15.31,0,0,0-9.42-9.8c-3.59-1.43-5.15,4.37-1.6,5.79a8.69,8.69,0,0,1,5.23,5.61c.65,1.89,3.52,3.24,5,1.32l32.86-42c1.33-1.69,1.07-4.4-1.32-5A23.24,23.24,0,0,1,333,159.46a3,3,0,0,0-5.48.71c-5.75,16.26-14.61,31-23.59,45.62-2,3.3,3.16,6.32,5.18,3Z"/><path class="f" d="M337.29,213.13c13.6-11.27,26.69-22.22,37.54-36.16a25.4,25.4,0,0,0,11.54,16.65q-22.31,14.59-44.63,29.17a11.36,11.36,0,0,0-4.45-9.66"/><path d="M339.41,215.26c13.42-11.13,26.7-22.43,37.55-36.17l-5-1.32a29.43,29.43,0,0,0,12.92,18.45V191l-44.65,29.2,4.51,2.59A14.91,14.91,0,0,0,339.41,211c-2.92-2.49-7.18,1.73-4.24,4.25a9.25,9.25,0,0,1,3.57,7.53,3,3,0,0,0,4.51,2.59l44.64-29.16a3,3,0,0,0,0-5.19,23.21,23.21,0,0,1-10.16-14.86c-.46-2-3.62-3.09-5-1.32-10.84,13.74-24.12,25-37.54,36.16-3,2.47,1.29,6.69,4.24,4.25Z"/><text class="g" transform="translate(31.78 95.51)">感謝你一起無拘無塑</text></svg>
