<svg xmlns="http://www.w3.org/2000/svg" viewBox="0 0 860 900"><defs><style>.a{fill:#8e8e93;}.b{fill:#fff;}.c{opacity:0.5;}</style></defs><title>trashes</title><path class="a" d="M566.71,223.91c-28.09,22.78-48.72,57.38-41.36,92.79a122.84,122.84,0,0,1,36.62.76l7.54-19a66.48,66.48,0,0,1,21,33.79c1.36,5.34,2.78,11.76,7.94,13.7,4.25,1.59,8.87-.81,12.77-3.14,28.55-17,56.66-30.74,85.21-47.79,2.23-1.33,4.61-2.82,5.6-5.23,1.83-4.43-1.88-9.08-5.46-12.26-12.61-11.21-33.71-32.12-49.63-37.69,0,0,23.35,4.11,42.29,7.9a94.86,94.86,0,0,0,7.27-30.72S624.64,176.94,566.71,223.91Z"/><path d="M565.65,222.85c-27.69,22.71-49,57.29-41.74,94.25a1.49,1.49,0,0,0,1.44,1.1,127.41,127.41,0,0,1,36.22.71,1.57,1.57,0,0,0,1.85-1.05l7.54-19-2.51.66a66.92,66.92,0,0,1,17,22.83c3,6.72,3.34,15.54,7.87,21.46s11.41,4.28,17.13,1.16c9.13-5,18-10.46,27.09-15.48,19.05-10.5,38.32-20.58,57-31.65,5.5-3.24,11.56-7,8.52-14.34-2.58-6.17-9.68-10.8-14.5-15.19-12.26-11.16-25.45-24.08-41.29-29.91l-.8,2.89c14.12,2.49,28.22,5.09,42.29,7.9a1.53,1.53,0,0,0,1.69-.69A91.55,91.55,0,0,0,698,217.05a1.49,1.49,0,0,0-.75-1.3c-27.17-15.09-62.77-20.51-92.81-12.68a104.33,104.33,0,0,0-38.78,19.78c-1.51,1.2.63,3.31,2.12,2.12,23.13-18.44,52.1-25.13,81.18-21.25a148.32,148.32,0,0,1,30.22,7.44c3.44,1.23,6.85,2.58,10.19,4.08,1.5.67,4.16,1.38,5.35,2.56.9.89.44.09.59.8.24,1.18-1.15,6.52-1.35,7.71q-.56,3.19-1.33,6.34a84,84,0,0,1-4.7,14.36l1.69-.69q-21.09-4.2-42.28-7.89a1.5,1.5,0,0,0-.8,2.89C659.23,246,670,255.77,680,264.61c4.78,4.23,9.47,8.57,14.2,12.85,3.73,3.37,8.85,7.93,5.36,13.43-2,3.16-8.49,5.6-11.6,7.39-15.42,8.94-31.17,17.29-46.81,25.84-8,4.38-16,8.81-23.86,13.39-3.67,2.14-7.33,4.8-11.31,6.33-6.23,2.39-10.33-.35-12.44-6.26-2.55-7.15-4-14.29-7.63-21.06a69.44,69.44,0,0,0-15.34-19.09,1.53,1.53,0,0,0-2.51.66l-7.53,19,1.84-1.05a130.1,130.1,0,0,0-37-.81l1.45,1.1c-7-35.9,14.18-69.36,41-91.33C569.27,223.74,567.13,221.63,565.65,222.85Z"/><path d="M633.36,237.57c6.62,1.73,13.56,3.32,19.79,6.25,2.27,1.07,4.27,2.54,6.45,3.74,1.69.93,3.21-1.66,1.51-2.59-8.72-4.81-17.2-7.75-27-10.29a1.5,1.5,0,0,0-.79,2.89Z"/><path d="M556.3,291.88a61.76,61.76,0,0,1,24,20.87c1.08,1.58,3.68.08,2.59-1.52a64.86,64.86,0,0,0-25.11-21.94c-1.73-.85-3.25,1.74-1.52,2.59Z"/><path d="M551,242.06c8.13,5.57,23,10.22,32,3.8,4.43-3.18,4.76-9.58,5.55-14.52,1.07-6.7,1.37-13.3-.28-19.93a1.52,1.52,0,0,0-2.51-.66l-1.17,1.13c-1.39,1.34.74,3.46,2.13,2.12l1.16-1.13-2.51-.66a44,44,0,0,1,.43,17.42c-.73,5-1,12.08-6.1,14.58-8.35,4.12-20.06.11-27.13-4.74-1.6-1.1-3.1,1.5-1.52,2.59Z"/><path class="b" d="M579.68,216.07c3.37-1.31,2.6,6.77,3.1,10.36a15.36,15.36,0,0,1-.65,8c-2.08,4.94-8,7.35-13.36,7s-10.29-2.88-15-5.35C553.72,236.12,567.42,220.82,579.68,216.07Z"/><path d="M580.08,217.51c.94-.2,1,6.29,1,7.14.24,3.9,1,7.76-1.58,11.12-6.33,8.16-17.94,2.74-25.07-1l.31,2.36c7-7.78,15.53-15.63,25.29-19.67,1.76-.73,1-3.63-.8-2.89-10.28,4.25-19.23,12.24-26.62,20.44a1.51,1.51,0,0,0,.31,2.35c8.88,4.59,25,10.44,30.53-2.35,1.93-4.51.94-10.87.31-15.65-.36-2.7-1.31-5.48-4.53-4.79C577.39,215,578.19,217.92,580.08,217.51Z"/><path d="M590,290.62a114.84,114.84,0,0,1,19.66,31.76,393.4,393.4,0,0,1,68.12-40.65,72,72,0,0,0-25.23-23.34,13.09,13.09,0,0,0-5.83-2c-2.44-.06-4.72,1.11-6.87,2.26C622.26,268,604.54,277.44,589.05,290"/><path d="M589,291.68a117.77,117.77,0,0,1,19.28,31.1c.33.79,1.33,1.54,2.2.9A401.73,401.73,0,0,1,678.56,283a1.5,1.5,0,0,0,.53-2,75.83,75.83,0,0,0-17.17-18.3c-6.14-4.63-13.06-9.87-20.83-6.31A258.72,258.72,0,0,0,588,288.93c-1.5,1.21.63,3.32,2.13,2.12C604,280,619.42,271.27,635,262.93c4.23-2.26,8.64-5.66,13.56-4.5,3.82.9,7.42,3.63,10.55,5.91a71.55,71.55,0,0,1,17.37,18.15l.54-2.05a402,402,0,0,0-68.11,40.65l2.2.89a122.37,122.37,0,0,0-20-32.42c-1.26-1.47-3.37.66-2.12,2.12Z"/><path d="M590.34,281.4l4.49,3.74c.82.68,1.92,1.4,2.85.89a1.77,1.77,0,0,0,.56-2.24,3.8,3.8,0,0,0-1.87-1.66,17.21,17.21,0,0,1-2.28-1.12,15,15,0,0,0-2.05-1.53c-.78-.36-1.91-.22-2.21.58l.43.15"/><path d="M589.28,282.46l4,3.33a6.56,6.56,0,0,0,3.44,1.88,3.07,3.07,0,0,0,3-4.28c-.86-2.36-3.92-3-5.73-4.42s-4.15-1.81-5.42.33a1.53,1.53,0,0,0,.9,2.21l.43.15c1.84.61,2.63-2.28.8-2.9l-.44-.14.9,2.2c.16-.28,2,1.34,2.21,1.48.93.61,2.15.84,3,1.55.67.58.77,1-.13.44a12.2,12.2,0,0,1-1.54-1.25l-3.25-2.7c-1.47-1.23-3.6.88-2.12,2.12Z"/><path d="M640.39,252.49l2,5.49c.37,1,1,2.17,2,2.19a1.76,1.76,0,0,0,1.61-1.66,3.86,3.86,0,0,0-.79-2.37,15.51,15.51,0,0,1-1.41-2.11,15.84,15.84,0,0,0-1-2.35,1.64,1.64,0,0,0-2.21-.6l.3.34"/><path d="M638.94,252.89c.6,1.63,1.19,3.26,1.79,4.88a7.82,7.82,0,0,0,1.51,2.9,3,3,0,0,0,5-1.08c1.08-2.72-1.64-5.09-2.55-7.4-.81-2-2.68-3.57-4.88-2.41a1.52,1.52,0,0,0-.3,2.36l.3.34c1.28,1.46,3.4-.67,2.13-2.12l-.31-.34-.3,2.35c-.11.06,2.92,5.28,3,5.63.07,1.27-.31-.06-.47-.42-.26-.58-.45-1.22-.67-1.83l-1.34-3.66c-.66-1.79-3.56-1-2.9.8Z"/><path class="b" d="M611.73,298c-.19,3.7.21,8.59,4.44,9.93,3.9,1.24,6.74-2.4,7.24-5.87.55-3.81-.73-8.38-4.71-9.76a5.24,5.24,0,0,0-7.07,4.73c-.09,1.93,2.91,1.92,3,0,.15-3,3.85-2.1,5-.35a7.51,7.51,0,0,1,.62,5.89c-.67,2.23-3.06,3.46-4.66,1.29-1.2-1.63-1-4-.87-5.86s-2.9-1.93-3,0Z"/><path class="b" d="M623.66,288.16c-.19,3.71.21,8.59,4.44,9.94,3.9,1.23,6.74-2.4,7.24-5.87.55-3.82-.73-8.38-4.71-9.76a5.24,5.24,0,0,0-7.07,4.73c-.09,1.92,2.91,1.92,3,0,.15-3,3.85-2.1,5-.36a7.54,7.54,0,0,1,.62,5.9c-.67,2.22-3.06,3.46-4.66,1.28-1.2-1.63-1-3.95-.87-5.86s-2.9-1.92-3,0Z"/><path class="b" d="M647.9,274.93c-.19,3.71.21,8.59,4.44,9.94,3.91,1.24,6.75-2.4,7.25-5.87.55-3.81-.73-8.38-4.72-9.76a5.23,5.23,0,0,0-7.06,4.73c-.09,1.93,2.91,1.92,3,0,.15-3,3.85-2.1,5-.35a7.47,7.47,0,0,1,.63,5.89c-.67,2.23-3.07,3.46-4.67,1.28-1.19-1.62-1-4-.87-5.86s-2.9-1.92-3,0Z"/><path class="b" d="M636.71,275.63a93.45,93.45,0,0,1,5.82,14.7c.47,1.55,3.12,1.35,3-.4l-.06-.65c-.19-1.91-3.19-1.93-3,0l.06.65,2.95-.4a98.33,98.33,0,0,0-6.13-15.41c-.86-1.73-3.45-.21-2.59,1.51Z"/><path d="M526.36,313.46a64.48,64.48,0,0,1,37-1,1.51,1.51,0,0,0,.8-2.9,67.51,67.51,0,0,0-38.61,1c-1.83.59-1.05,3.49.79,2.89Z"/><path d="M689.07,216.24a62.42,62.42,0,0,1-7.85,30.06c-.93,1.69,1.66,3.2,2.59,1.51a65.73,65.73,0,0,0,8.26-31.57,1.5,1.5,0,0,0-3,0Z"/><path d="M601.6,206.16c17.45,14.94-.51,37.58-11.21,50.23-10.46,12.36-21.49,26-20,43.21.17,1.91,3.17,1.93,3,0-1.85-21.76,16.56-36.31,28.12-52.28,9.1-12.56,16.26-31.27,2.24-43.28-1.46-1.25-3.6.86-2.13,2.12Z"/><path d="M577.8,304.5a58.9,58.9,0,0,1,7.83-29.4c5.58-9.63,14.27-16.18,21.76-24.19,5.39-5.76,10.18-12.72,11.08-20.76,1.08-9.59-3.81-18.36-8.47-26.35a1.5,1.5,0,0,0-2.59,1.52c5.26,9,10.68,19.07,6.86,29.68-3.57,9.94-12,16.71-19.35,23.84-12.6,12.25-20,27.94-20.12,45.66a1.5,1.5,0,0,0,3,0Z"/><path d="M581.34,309.42A71.28,71.28,0,0,1,594,275.8c6.75-9.48,16.49-16.17,23.52-25.39,11.2-14.71,8.91-35.88-4.47-48.56-1.4-1.32-3.53.8-2.12,2.13a35.59,35.59,0,0,1,10.86,27.44c-.6,11.49-8.2,19.7-16.08,27.27-7.12,6.84-13.78,13.71-18.59,22.43a75.21,75.21,0,0,0-8.8,28.3c-.21,1.91,2.8,1.9,3,0Z"/><path d="M673.9,260c2.28,6.24,3.45,12.93,1.35,19.41-2,6.17-6.52,11.14-11,15.65-7.3,7.37-15.2,14.55-17.18,25.21-.35,1.89,2.54,2.69,2.89.8,2.51-13.46,14.78-20.61,22.6-30.78,7.27-9.46,8.28-20,4.22-31.09-.65-1.8-3.55-1-2.89.8Z"/><path d="M677.58,264.31c8.93,8.29,2.16,20.68-4.2,28.12-6.1,7.13-13.07,13.45-15.6,22.81a1.5,1.5,0,0,0,2.89.8c3.44-12.69,15.78-19.49,21.41-30.93,3.72-7.57,4.18-16.83-2.37-22.92-1.42-1.31-3.54.8-2.13,2.12Z"/><path d="M685.92,269.84c10.81,14.83-8.49,24.88-13.45,37.32-.71,1.79,2.19,2.57,2.89.8,3.49-8.75,12.44-13.84,15.86-22.58,2.14-5.46.68-12.41-2.71-17.06-1.13-1.54-3.73-.05-2.59,1.52Z"/><path d="M601.65,338.54l7-.3c1.92-.08,1.94-3.08,0-3l-7,.3c-1.92.08-1.93,3.08,0,3Z"/><path d="M601.55,334.45l10.61-.17a1.52,1.52,0,0,0,1.3-2.26l-.27-.44c-1-1.64-3.61-.14-2.59,1.52l.27.44,1.29-2.26-10.61.17c-1.93,0-1.94,3,0,3Z"/><path d="M607.36,330a22.81,22.81,0,0,0,10.8.27c1.89-.39,1.09-3.29-.8-2.89a19.35,19.35,0,0,1-9.2-.28,1.51,1.51,0,0,0-.8,2.9Z"/><path d="M616.09,325.86l9.3.24c1.93,0,1.93-3,0-3l-9.3-.24c-1.93-.05-1.93,2.95,0,3Z"/><path d="M621.58,321.73l6.75,1c1.88.28,2.7-2.61.79-2.89l-6.74-1c-1.89-.27-2.71,2.62-.8,2.9Z"/><path d="M539.23,283.21l8.11-1.53c1.9-.35,1.09-3.25-.8-2.89l-8.1,1.53c-1.9.36-1.1,3.25.79,2.89Z"/><path d="M539.75,277.27l8.75-1.68c1.89-.36,1.09-3.25-.8-2.89L539,274.37c-1.9.37-1.09,3.26.8,2.9Z"/><path d="M543,271.22l9.91-1.46c1.9-.28,1.1-3.17-.8-2.89l-9.91,1.46c-1.9.28-1.09,3.17.8,2.89Z"/><path d="M546.48,265.11l10.11.7c1.93.14,1.92-2.87,0-3l-10.11-.7c-1.93-.13-1.92,2.87,0,3Z"/><path d="M550.24,259l10.36,2.76a1.5,1.5,0,0,0,.8-2.89L551,256.06a1.5,1.5,0,0,0-.8,2.89Z"/><path d="M635.12,217.44a18,18,0,0,0,4.25,8.73c1.26,1.46,3.38-.67,2.12-2.12a15.14,15.14,0,0,1-3.48-7.41c-.34-1.9-3.23-1.1-2.89.8Z"/><path d="M639.77,219.83l1.42,2.07a1.53,1.53,0,0,0,2,.54,1.51,1.51,0,0,0,.54-2.05l-1.42-2.08a1.5,1.5,0,1,0-2.59,1.52Z"/><path d="M643.4,219.38l5.49,7.42c1.13,1.53,3.74,0,2.59-1.52L646,217.87c-1.13-1.54-3.74-.05-2.59,1.51Z"/><path d="M649.68,218.39a40.11,40.11,0,0,0,11.64,10.45,1.5,1.5,0,0,0,1.51-2.59,36.45,36.45,0,0,1-10.56-9.38c-1.15-1.52-3.76,0-2.59,1.52Z"/><path d="M659.54,222l4.59,4.68a1.5,1.5,0,0,0,2.35-1.82L666,224c-.92-1.7-3.51-.19-2.59,1.51l.47.89,2.36-1.82-4.59-4.68c-1.35-1.38-3.47.74-2.12,2.12Z"/><path d="M663.31,221.21l2.05,1.89a1.53,1.53,0,0,0,2.12,0,1.51,1.51,0,0,0,0-2.12l-2.05-1.89a1.53,1.53,0,0,0-2.12,0,1.51,1.51,0,0,0,0,2.12Z"/><path d="M564.59,221.79c-28.15,23.08-49.5,58.21-42.13,95.71a3,3,0,0,0,2.89,2.2,126.15,126.15,0,0,1,35.83.65,3.13,3.13,0,0,0,3.69-2.09l7.53-19-5,1.32a65.89,65.89,0,0,1,16.79,22.52c3,6.79,3.36,15.43,7.86,21.46,5,6.68,12.71,5.23,19.19,1.71,9.12-5,18-10.47,27.09-15.49,19-10.5,38.32-20.58,57-31.64,6.12-3.62,12.41-8,9.2-16-2.59-6.5-9.85-11.28-14.88-15.86-12.48-11.36-25.84-24.37-42-30.3l-1.59,5.78q21.18,3.74,42.29,7.9a3.07,3.07,0,0,0,3.39-1.37,93.57,93.57,0,0,0,7.68-32.24,3,3,0,0,0-1.49-2.59c-27.53-15.29-63.55-20.77-94-12.84a106.24,106.24,0,0,0-39.44,20.17c-3,2.4,1.25,6.63,4.25,4.24,24.29-19.38,55.18-25.35,85.43-20,13.9,2.47,28.29,6.68,40.7,13.58l-1.48-2.59a86.28,86.28,0,0,1-6.87,29.21l3.39-1.38q-21.09-4.2-42.29-7.9a3,3,0,0,0-1.59,5.78c12.44,4.58,23,14.26,32.81,22.91,4.78,4.23,9.47,8.57,14.2,12.85,2.9,2.62,8.27,6.9,5.36,11.31-2,3.07-8.24,5.39-11.3,7.16-15.42,8.93-31.17,17.29-46.8,25.84-8,4.38-16,8.8-23.86,13.39-3.62,2.1-7.23,4.74-11.14,6.25-5.37,2.06-8.59-.21-10.42-5.29-2.61-7.26-4.05-14.53-7.77-21.42a70.61,70.61,0,0,0-15.58-19.39,3,3,0,0,0-5,1.32l-7.54,19,3.69-2.09a131.45,131.45,0,0,0-37.42-.87l2.9,2.2c-7-35.36,14.25-68.27,40.59-89.87C571.82,223.58,567.56,219.36,564.59,221.79Z"/><path class="b" d="M614,121.51c-3.16-.31-4.58,5-2.58,7.71s5.49,3.17,8.65,3.48c25.75,2.56,52.77,4.91,76.72-6.33,3.78-1.78,8.13-5.8,6.37-9.8-1-2.23-3.44-3.07-5.64-3.68-14.54-4-29.25-8.11-44.32-8.34s-30.75,3.72-42.57,14.18"/><path d="M614,120c-3.8.3-5.66,4.18-4.83,7.75,1.3,5.6,8,6.15,12.65,6.62,17.44,1.74,35.18,3.18,52.58.33,6.39-1.05,37.39-7.11,29.68-19.49-1.39-2.22-3.77-3-6.16-3.77-4.51-1.39-9.12-2.54-13.69-3.68A145.78,145.78,0,0,0,657,103.18c-17.08-1-34.22,3.21-47.39,14.49-1.47,1.26.66,3.37,2.12,2.12,11.34-9.71,26-13.83,40.73-13.75A117.72,117.72,0,0,1,677,109.13c4,.88,8,1.9,11.92,3,2.13.57,4.26,1.14,6.39,1.74,2.89.82,9.09,1.8,5.21,8-2,3.16-7.55,4.7-10.73,5.85a86,86,0,0,1-11,3.17,117.53,117.53,0,0,1-23.22,2.48c-7.72.12-15.43-.32-23.12-.95-3.54-.3-7.08-.61-10.62-1a29.57,29.57,0,0,1-5.46-.78c-2.28-.7-7.33-7.2-2.36-7.59,1.91-.15,1.93-3.15,0-3Z"/><path class="b" d="M184,353.88c-3.15-.3-4.57,5.05-2.58,7.72s5.49,3.17,8.65,3.48c25.75,2.56,52.77,4.91,76.72-6.33,3.78-1.78,8.13-5.8,6.37-9.81-1-2.23-3.44-3.06-5.63-3.67-14.55-4-29.26-8.11-44.33-8.35s-30.75,3.73-42.57,14.19"/><path d="M184,352.38c-3.8.3-5.66,4.19-4.83,7.76,1.31,5.6,8,6.15,12.66,6.62,17.43,1.74,35.17,3.18,52.57.33,6.4-1,37.39-7.11,29.68-19.49-1.38-2.22-3.77-3.05-6.16-3.78-4.5-1.38-9.11-2.53-13.69-3.68A145.63,145.63,0,0,0,227,335.56c-17.08-1-34.22,3.21-47.39,14.49-1.47,1.25.66,3.37,2.12,2.12,11.34-9.71,26-13.83,40.73-13.75A117.05,117.05,0,0,1,247,341.51c4,.88,8,1.9,11.92,2.95,2.14.57,4.26,1.15,6.39,1.75,2.89.82,9.09,1.8,5.21,8-2,3.16-7.55,4.69-10.73,5.85a84.33,84.33,0,0,1-11,3.16,116.05,116.05,0,0,1-23.22,2.48c-7.71.12-15.43-.31-23.12-.95q-5.31-.44-10.61-1a28.53,28.53,0,0,1-5.46-.79c-2.28-.69-7.34-7.2-2.37-7.59,1.92-.15,1.93-3.15,0-3Z"/><path d="M553.11,171l-12.39,11.7c-1.41,1.33.72,3.45,2.12,2.12l12.39-11.7c1.41-1.33-.72-3.45-2.12-2.12Z"/><path d="M561.8,170.2l-19,13.51c-1.29.92-.57,3.3,1.16,2.74l1.27-.42c1.82-.6,1-3.49-.8-2.89l-1.27.41,1.16,2.75,19-13.51c1.56-1.11.07-3.72-1.51-2.59Z"/><path d="M565.12,172.29l-19.39,10.28c-1.53.81-.47,3.17,1.15,2.75l3.31-.87a1.5,1.5,0,0,0-.8-2.89l-3.31.86,1.16,2.75,19.39-10.29c1.71-.9.19-3.49-1.51-2.59Z"/><path d="M568.57,176.61l-22.68,8c-1.79.63-1.08,3.42.8,2.89l2.1-.6A1.5,1.5,0,0,0,548,184l-2.11.6.8,2.89,22.68-8c1.81-.64,1-3.54-.8-2.9Z"/><path d="M572.12,178.8l-17.31,5.68c-1.82.6-1.07,3.44.79,2.9l2.6-.76c1.85-.54,1.07-3.43-.79-2.89l-2.6.75.79,2.9,17.32-5.69c1.83-.6,1.05-3.49-.8-2.89Z"/><path d="M579.23,179.61l-18.29,4.91a1.5,1.5,0,0,0,.8,2.89L580,182.5a1.5,1.5,0,0,0-.8-2.89Z"/><path d="M353,315.58l-12.39,11.7c-1.41,1.33.71,3.45,2.12,2.12l12.39-11.7c1.4-1.33-.72-3.45-2.12-2.12Z"/><path d="M361.66,314.77l-19,13.51c-1.29.92-.57,3.3,1.16,2.74l1.26-.42c1.83-.6,1.05-3.49-.79-2.89l-1.27.41,1.15,2.75,19-13.51c1.56-1.11.07-3.71-1.51-2.59Z"/><path d="M365,316.86l-19.39,10.29c-1.52.8-.46,3.16,1.16,2.74l3.31-.87a1.5,1.5,0,0,0-.8-2.89l-3.31.86,1.16,2.75,19.39-10.29c1.7-.9.19-3.49-1.52-2.59Z"/><path d="M368.43,321.19l-22.68,8c-1.8.63-1.08,3.43.8,2.89l2.1-.6a1.5,1.5,0,0,0-.8-2.89l-2.1.6.8,2.89,22.68-8c1.81-.64,1-3.54-.8-2.89Z"/><path d="M372,323.37l-17.31,5.68c-1.83.6-1.07,3.44.79,2.9l2.6-.76a1.5,1.5,0,0,0-.8-2.89l-2.59.75.79,2.9,17.32-5.69c1.83-.59,1-3.49-.8-2.89Z"/><path d="M379.09,324.18l-18.29,4.91a1.5,1.5,0,0,0,.8,2.89l18.29-4.91a1.5,1.5,0,0,0-.8-2.89Z"/><path d="M236.12,199.22l29-4.52c1.9-.3,1.09-3.19-.8-2.89l-29,4.52c-1.9.3-1.1,3.19.8,2.89Z"/><path d="M240.1,203.09l28.54-5.86c1.89-.39,1.09-3.28-.8-2.89l-28.53,5.86c-1.89.39-1.09,3.28.79,2.89Z"/><path d="M239.73,209.15a162.86,162.86,0,0,1,38.66-7v-3l-1.64.15c-1.91.16-1.93,3.16,0,3l1.64-.15c1.9-.16,1.95-3.11,0-3a166.51,166.51,0,0,0-39.46,7.07c-1.84.56-1.05,3.46.8,2.89Z"/><g class="c"><path class="a" d="M660.94,99.85c-5.24,7.06-10.9,14.45-19.06,17.71-6,2.39-12.64,2.27-19.08,2.12-25.85-.62-51.72-1.24-77.52-2.89a19.39,19.39,0,0,1-6.86-1.29A6,6,0,0,1,537,104.77a19.79,19.79,0,0,1,5.71-2.83c-2.56-1.59-5.11-3.81-5.51-6.8s2.69-6.32,5.43-5.06c-2.69-.48-5.57-1.62-6.76-4.08s.67-6.21,3.37-5.74c-2.24.83-4.77-1.38-4.84-3.77s1.73-4.52,3.88-5.57a18.57,18.57,0,0,1,7-1.39c24.18-1.59,48.44-1.64,72.67-1.69,6.92,0,14.09,0,20.36,3,7.94,3.71,13.54,11.66,21.88,14.37a18,18,0,0,0-.21,16.18"/></g><path d="M669.19,86.36a21.46,21.46,0,0,1,1.48,5.49c.18,1.56.58,4.84-.2,6.26-1.3,2.38-2-3.62-2.06-4.43,0-.63-.39-7.31,1.47-6.43s3.26-1.76,1.52-2.59c-8.32-4-6.66,12.77-3.95,16.37,2.22,3,5.29.87,5.92-2.12a23.52,23.52,0,0,0-1.28-13.35c-.7-1.78-3.6-1-2.9.8Z"/><path d="M669.35,99.37a17,17,0,0,0-4.83-.12,7,7,0,0,1-2.64-.21c-1.22-.62-1.39-2.16-1.65-3.29-.48-2-1.54-5.68-.38-7.69,1.46-2.53,6.24-1.4,8.44-.9,1.87.43,2.68-2.46.79-2.89-3-.7-7.83-1.65-10.49.52-2.3,1.87-2.28,5.45-2,8.12s.68,6.63,2.94,8.32c2.58,1.94,6.13.36,9,1,1.88.44,2.68-2.45.8-2.89Z"/><path d="M664.19,84.79a16.16,16.16,0,0,0-.14,16c.93,1.69,3.52.18,2.59-1.51a13,13,0,0,1,.14-12.93,1.5,1.5,0,0,0-2.59-1.52Z"/><path d="M660.85,84.25a20.13,20.13,0,0,0-.27,16c.73,1.76,3.64,1,2.9-.79a17.21,17.21,0,0,1,0-13.75c.76-1.75-1.82-3.28-2.59-1.51Z"/><path d="M670.41,98.81a25.1,25.1,0,0,0,.14-11.69c-.42-1.88-3.31-1.09-2.89.8A21.51,21.51,0,0,1,667.51,98c-.47,1.88,2.43,2.68,2.9.8Z"/><path d="M659.65,99.09c-6.47,8.69-13.37,17-24.73,18.69-11,1.6-22.89.15-34-.15-11.27-.31-22.53-.67-33.79-1.17q-9-.4-17.88-.93c-2.81-.17-6.11,0-8.79-.89-3.79-1.26-6-5.38-2.36-8.71a15.35,15.35,0,0,1,5-2.54,1.52,1.52,0,0,0,.36-2.74,9.45,9.45,0,0,1-3.06-2.55q-3.24-2.7,1.82-6.57l.8-2.89a9.24,9.24,0,0,1-2.47-.73q-3.77-.84-1.32-6.15l-.4-2.94-2.42-4.26,3.92-2.83c1.56-.72,4.11-.64,5.9-.76,2.62-.18,5.23-.32,7.85-.45q8.82-.45,17.67-.69c11.45-.32,22.92-.41,34.38-.46,10.54,0,23-1.66,32.69,3.37,7.56,3.92,12.78,10.89,20.94,13.87l-.9-2.21a20.33,20.33,0,0,0-.21,17.69c.78,1.77,3.37.24,2.59-1.51a17,17,0,0,1,.21-14.66,1.52,1.52,0,0,0-.89-2.2c-6-2.18-10.36-6.63-15.34-10.36a32.26,32.26,0,0,0-15.16-6.43c-7.23-1-14.68-.59-22-.56-7.86,0-15.73.07-23.59.19s-15.71.32-23.56.64c-6.83.28-14.82-.33-21.42,1.64-3.38,1-6.92,4-6.61,7.85.29,3.6,3.38,5.53,6.71,5,1.68-.26,1.27-3-.4-2.95a5.36,5.36,0,0,0-5.2,6.12c.47,4.1,4.68,5.87,8.19,6.65,1.88.42,2.69-2.46.8-2.89a5.87,5.87,0,0,0-7.24,4.81c-.82,4.37,2.94,7.64,6.16,9.79l.36-2.74c-4,1.51-8.88,3.65-9.5,8.51-.55,4.27,3,7.46,6.84,8.52,7,2,15.32,1.35,22.5,1.7q12.42.6,24.84,1,11.94.39,23.87.67c8,.2,16.3,1,24.26-.1,12.43-1.69,20-10.67,27.11-20.19,1.15-1.55-1.45-3-2.59-1.51Z"/><path d="M645.55,114.1c3.45-9.3,7.75-27.19-1.42-34.68-1.49-1.21-3.62.9-2.12,2.12,8.15,6.66,3.69,23.55.65,31.76-.68,1.81,2.22,2.59,2.89.8Z"/><path d="M636.18,105.42A99.23,99.23,0,0,1,633,90.17c-.27-2.74-1.11-17.59,4.8-15.29,1.8.7,2.58-2.2.79-2.89-6-2.36-8,5.06-8.57,9.46-1,8.38,1.14,16.73,3.24,24.76a1.5,1.5,0,0,0,2.89-.79Z"/><path d="M558.91,103.82c1.69-7.29,3.41-14.82,2.66-22.35-.24-2.4-1.07-10.66-5.58-8.89-1.76.68-2.07,3-2.52,4.54a98.29,98.29,0,0,0-2.89,12.2c-1.15,7-1,14,1.51,20.76a1.52,1.52,0,0,0,2.74.35l1-1.4c1.16-1.54-1.45-3-2.59-1.51l-1,1.4,2.74.36c-3.65-9.8-1.81-19.72.86-29.5q.52-1.87,1-3.72a9.2,9.2,0,0,1,1.68,5.41,37.16,37.16,0,0,1,.14,5.48c-.22,5.44-1.47,10.78-2.69,16.07-.44,1.88,2.45,2.68,2.89.8Z"/><path d="M618.05,105.36A29.17,29.17,0,0,1,626.58,116c.84,1.74,3.43.22,2.6-1.51a32.45,32.45,0,0,0-9.61-11.67c-1.53-1.17-3,1.43-1.52,2.59Z"/><path d="M611,104.6l6.47,8.93c1.13,1.55,3.73,0,2.59-1.51l-6.47-8.93c-1.12-1.55-3.73,0-2.59,1.51Z"/><path d="M600.7,105.15a25.35,25.35,0,0,1,7.14,9.48c.77,1.77,3.35.24,2.59-1.51A27.21,27.21,0,0,0,602.82,103c-1.47-1.23-3.61.89-2.12,2.12Z"/><path d="M591,103.44a17,17,0,0,1,5.79,9.46c.43,1.88,3.32,1.09,2.89-.8a19.66,19.66,0,0,0-6.56-10.78c-1.47-1.23-3.6.88-2.12,2.12Z"/><path d="M585.43,106l4.12,6.21c1.07,1.6,3.67.1,2.6-1.52l-4.13-6.2c-1.07-1.6-3.67-.1-2.59,1.51Z"/><path d="M586,71.84l10.63,16.69c1,1.62,3.63.12,2.59-1.51l-10.63-16.7c-1-1.62-3.63-.12-2.59,1.52Z"/><path d="M579.76,78.18,588,90.59c1.07,1.6,3.67.1,2.6-1.51l-8.26-12.41c-1.07-1.6-3.67-.1-2.59,1.51Z"/><path d="M564.92,72.7,576,89.89c1,1.62,3.64.12,2.59-1.51l-11.12-17.2c-1-1.61-3.65-.11-2.59,1.52Z"/><path d="M551.35,71.27A107.45,107.45,0,0,1,562.6,89.12c.86,1.73,3.45.21,2.59-1.51a110.34,110.34,0,0,0-11.72-18.46c-1.19-1.52-3.3.62-2.12,2.12Z"/><path d="M537.25,110.27c.17-3.37,3.69-4.47,6.27-5.43a3.05,3.05,0,0,0,.71-5.49c-.53-.35-7.77-5.62-2-6.64,3.08-.55,2.62-5,0-5.79Q539,86.67,539.36,83a3,3,0,0,0-.72-5.48l-.92-2.2,3-2.13c1.6-.64,3.76-.6,5.5-.71,2.62-.18,5.23-.32,7.85-.45q8.82-.45,17.67-.69c11.45-.32,22.92-.41,34.38-.46,10.23,0,22.54-1.7,31.94,3.16,7.69,4,13,11,21.29,14l-1.79-4.4-.23.47c-1.05,2.13.73,5.38,3.38,4.41a3.08,3.08,0,0,1,1.35-.38A3.16,3.16,0,0,0,665,86l.06-.15-5.89-.8v.15a3,3,0,0,0,3,3c2.31-.09,5.48-.14,7.7.7l-2.09-2.09a21.19,21.19,0,0,1,1.51,6.13,16.62,16.62,0,0,1,0,2.34q-1.56,3,1.18,2.68A3,3,0,0,0,666,100.5v.31l3.8-2.89c-2.73-.55-5.6.29-8.24-.62a3,3,0,0,0-3.38,1.38l-.75,1.14h5.18l0-.11v3l.78-1c1-1.35.15-3.29-1.08-4.1-.72-.48-1-4.49-1.16-5.34-.59-3.36-6-2.54-5.89.8a24.92,24.92,0,0,0,2.16,9.69v-3c-5.89,7.82-12.4,15.11-22.6,16.6s-21.42.15-31.81-.13c-10.6-.28-21.21-.61-31.81-1.05q-8.45-.34-16.89-.81c-4.59-.26-15.79.92-17.06-4.85-.84-3.77-6.62-2.17-5.79,1.59,2.49,11.26,19.3,9.09,27.82,9.52,13.91.71,27.82,1.17,41.74,1.55,12.15.33,25.63,2.26,37.58-.42,10.68-2.38,17.71-10.62,24-19a3.06,3.06,0,0,0,0-3,17,17,0,0,1-1.35-6.66l-5.9.79c.56,3.19,1,7,3.92,8.93l-1.07-4.11-.79,1a3.06,3.06,0,0,0,0,3l.06.11c1,2.18,4.06,1.71,5.18,0l.75-1.14-3.39,1.38c2.83,1,5.42,0,8.23.62a3,3,0,0,0,3.8-2.9v-.31l-4.52,2.59c6.75,3.85,8.09-5.66,7.83-10.2-.16-2.78-.54-7.38-2.8-9.29s-7.61-1.55-10.32-1.45l3,3V85c0-3.61-4.7-3.77-5.9-.8l-.06.15,2.9-2.2a9.79,9.79,0,0,0-2.94.59l3.39,4.41.23-.47A3.06,3.06,0,0,0,661,82.27c-5.68-2.07-10-6.39-14.68-10a33.85,33.85,0,0,0-15.43-6.76c-6.52-1-13.23-.7-19.81-.68-7.53,0-15.06,0-22.6.15-14.93.18-30.12.12-45,1.66-4.73.48-9.65,2.07-11.49,6.91-1.68,4.42.88,8.25,5.06,9.72l-.72-5.49c-7.72,4.74-2.3,12.86,4.32,14.9V86.92a7.82,7.82,0,0,0-6.42,7.58c-.12,4.53,3.53,7.73,7,10l.71-5.48c-5.46,2-10.35,4.83-10.67,11.22C531.06,114.13,537.06,114.12,537.25,110.27Z"/><path class="b" d="M500.16,780.7c-3.16-.3-4.58,5-2.58,7.72s5.49,3.17,8.65,3.48C532,794.46,559,796.81,583,785.56c3.78-1.77,8.13-5.79,6.37-9.8-1-2.23-3.44-3.06-5.64-3.67-14.55-4.05-29.26-8.12-44.32-8.35s-30.75,3.73-42.57,14.19"/><path d="M500.16,779.2c-3.8.3-5.66,4.19-4.83,7.76,1.3,5.6,8,6.15,12.65,6.61,17.44,1.75,35.18,3.19,52.58.33,6.39-1,37.39-7.1,29.68-19.48-1.39-2.22-3.77-3-6.16-3.78-4.51-1.38-9.12-2.53-13.69-3.68a145.9,145.9,0,0,0-27.27-4.58c-17.09-1-34.22,3.21-47.39,14.49-1.47,1.25.66,3.37,2.12,2.12,11.34-9.71,26-13.83,40.73-13.75a117.05,117.05,0,0,1,24.58,3.09c4,.88,8,1.89,11.92,2.95q3.2.86,6.38,1.75c2.89.81,9.09,1.8,5.22,8-2,3.16-7.56,4.69-10.73,5.85a88,88,0,0,1-11,3.16,116.13,116.13,0,0,1-23.22,2.48c-7.72.12-15.44-.31-23.12-1-3.54-.29-7.08-.61-10.62-1a28.75,28.75,0,0,1-5.46-.78c-2.28-.69-7.33-7.2-2.36-7.59,1.91-.15,1.93-3.15,0-3Z"/><path d="M439.23,830.2l-12.39,11.71c-1.41,1.33.71,3.45,2.12,2.12l12.39-11.7c1.4-1.33-.72-3.45-2.12-2.13Z"/><path d="M447.92,829.39l-19,13.51c-1.3.92-.57,3.31,1.16,2.74l1.26-.41c1.83-.6,1.05-3.5-.79-2.9l-1.27.42,1.15,2.74,19-13.51c1.56-1.11.07-3.71-1.51-2.59Z"/><path d="M451.23,831.49l-19.39,10.28c-1.52.81-.46,3.17,1.16,2.74l3.31-.87a1.5,1.5,0,0,0-.8-2.89l-3.31.87,1.16,2.74,19.39-10.28c1.7-.91.19-3.5-1.52-2.59Z"/><path d="M454.69,835.81l-22.68,8c-1.8.64-1.08,3.43.8,2.9l2.1-.6a1.5,1.5,0,0,0-.8-2.89l-2.1.59.8,2.9,22.68-8c1.81-.64,1-3.54-.8-2.89Z"/><path d="M458.24,838l-17.31,5.68c-1.83.6-1.08,3.44.79,2.89l2.6-.75c1.85-.54,1.06-3.44-.8-2.9l-2.59.76.79,2.89L459,840.89c1.83-.6,1-3.5-.8-2.89Z"/><path d="M465.35,838.8l-18.29,4.91a1.51,1.51,0,0,0,.8,2.9l18.29-4.91a1.51,1.51,0,0,0-.8-2.9Z"/><g class="c"><path class="a" d="M547.06,759c-5.24,7.06-10.9,14.45-19.06,17.72-6,2.39-12.64,2.27-19.08,2.12-25.85-.63-51.72-1.25-77.53-2.9a19.59,19.59,0,0,1-6.85-1.28A6,6,0,0,1,423.13,764a19.64,19.64,0,0,1,5.71-2.82c-2.57-1.59-5.11-3.81-5.51-6.8s2.69-6.33,5.43-5.06c-2.69-.49-5.57-1.62-6.77-4.09s.68-6.2,3.38-5.73c-2.24.82-4.78-1.39-4.84-3.78s1.73-4.51,3.88-5.56a18.34,18.34,0,0,1,7-1.39c24.18-1.59,48.44-1.64,72.67-1.69,6.91,0,14.09,0,20.36,2.94,7.94,3.71,13.54,11.67,21.88,14.38a18,18,0,0,0-.22,16.17"/></g><path d="M555.31,745.55a22,22,0,0,1,1.48,5.5c.18,1.56.57,4.84-.2,6.26-1.3,2.38-2-3.62-2.06-4.44,0-.62-.39-7.31,1.47-6.42s3.26-1.76,1.51-2.59c-8.31-4-6.65,12.76-3.94,16.36,2.22,2.95,5.29.88,5.92-2.12a23.5,23.5,0,0,0-1.29-13.34c-.69-1.78-3.6-1-2.89.79Z"/><path d="M555.47,758.56a17.83,17.83,0,0,0-4.84-.12,7,7,0,0,1-2.63-.21c-1.22-.61-1.39-2.15-1.66-3.29-.47-2-1.53-5.68-.37-7.68,1.46-2.53,6.23-1.41,8.43-.9,1.88.43,2.69-2.46.8-2.89-3-.7-7.83-1.66-10.5.51-2.29,1.88-2.27,5.46-2,8.13s.69,6.63,2.94,8.32c2.59,1.94,6.14.36,9,1,1.88.44,2.68-2.45.8-2.9Z"/><path d="M550.31,744a16.14,16.14,0,0,0-.14,16c.93,1.69,3.52.18,2.59-1.52a13,13,0,0,1,.14-12.93,1.5,1.5,0,0,0-2.59-1.51Z"/><path d="M547,743.44a20.16,20.16,0,0,0-.27,16.06c.73,1.76,3.64,1,2.89-.8a17.23,17.23,0,0,1,0-13.74c.76-1.76-1.82-3.29-2.59-1.52Z"/><path d="M556.53,758a25.15,25.15,0,0,0,.14-11.7c-.42-1.88-3.31-1.08-2.89.8a21.55,21.55,0,0,1-.15,10.1c-.47,1.87,2.43,2.67,2.9.8Z"/><path d="M545.77,758.29C539.3,767,532.39,775.33,521,777c-11,1.59-22.89.15-34-.15-11.27-.31-22.53-.67-33.8-1.17q-8.94-.4-17.88-.93c-2.8-.17-6.1,0-8.78-.89-3.79-1.26-6-5.38-2.36-8.71a15.25,15.25,0,0,1,5-2.54,1.53,1.53,0,0,0,.36-2.75,9.42,9.42,0,0,1-3.06-2.54q-3.24-2.7,1.82-6.58l.8-2.89a8.87,8.87,0,0,1-2.47-.72q-3.78-.86-1.32-6.15l-.4-3-2.43-4.26,3.93-2.82c1.56-.72,4.11-.65,5.9-.77,2.61-.17,5.23-.31,7.85-.45q8.82-.45,17.66-.68c11.46-.32,22.93-.42,34.39-.46,10.54,0,23-1.66,32.69,3.37,7.55,3.92,12.78,10.89,20.94,13.86l-.9-2.2a20.33,20.33,0,0,0-.21,17.69c.78,1.76,3.37.24,2.59-1.51a17,17,0,0,1,.21-14.66,1.53,1.53,0,0,0-.89-2.21c-6-2.17-10.36-6.63-15.34-10.35a32.19,32.19,0,0,0-15.17-6.43c-7.22-1-14.68-.59-22-.57-7.86,0-15.72.07-23.58.2s-15.71.31-23.57.64c-6.82.28-14.81-.33-21.41,1.63-3.39,1-6.92,4-6.61,7.85.28,3.6,3.38,5.53,6.71,5,1.68-.26,1.27-3-.4-2.95a5.36,5.36,0,0,0-5.21,6.12c.48,4.1,4.69,5.87,8.2,6.64,1.88.42,2.69-2.45.8-2.89a5.89,5.89,0,0,0-7.25,4.82c-.81,4.37,2.95,7.63,6.17,9.78l.36-2.74c-4,1.51-8.88,3.66-9.5,8.51-.55,4.28,3,7.46,6.84,8.53,7,2,15.32,1.35,22.5,1.7,8.27.4,16.56.71,24.84,1q11.94.39,23.87.68c8,.2,16.3,1,24.26-.1,12.43-1.7,20-10.68,27.11-20.19,1.15-1.55-1.45-3-2.59-1.51Z"/><path d="M531.67,773.29c3.45-9.29,7.75-27.18-1.42-34.68-1.49-1.21-3.62.9-2.13,2.12,8.16,6.67,3.7,23.55.65,31.76-.67,1.82,2.23,2.6,2.9.8Z"/><path d="M522.3,764.61a99.35,99.35,0,0,1-3.15-15.24c-.27-2.75-1.11-17.59,4.8-15.29,1.8.7,2.58-2.2.79-2.89-6-2.36-8,5.06-8.57,9.46-1,8.37,1.14,16.72,3.23,24.76a1.51,1.51,0,0,0,2.9-.8Z"/><path d="M445,763c1.68-7.28,3.41-14.81,2.65-22.34-.24-2.4-1.06-10.66-5.57-8.9-1.76.69-2.07,3-2.52,4.54a98.44,98.44,0,0,0-2.89,12.21c-1.15,7-1,14,1.51,20.75a1.52,1.52,0,0,0,2.74.36l1.05-1.4c1.16-1.55-1.45-3.05-2.59-1.52l-1.05,1.41,2.74.35c-3.65-9.79-1.81-19.72.86-29.5l1.05-3.72a9.24,9.24,0,0,1,1.67,5.42,37,37,0,0,1,.15,5.47c-.22,5.45-1.47,10.79-2.69,16.08-.44,1.88,2.45,2.68,2.89.79Z"/><path d="M504.17,764.56a29.11,29.11,0,0,1,8.53,10.59c.84,1.74,3.43.22,2.59-1.51a32.16,32.16,0,0,0-9.6-11.67c-1.54-1.17-3,1.43-1.52,2.59Z"/><path d="M497.1,763.8l6.47,8.93c1.12,1.55,3.73,0,2.59-1.52l-6.47-8.93c-1.12-1.54-3.73,0-2.59,1.52Z"/><path d="M486.82,764.34a25.47,25.47,0,0,1,7.14,9.49c.77,1.76,3.35.24,2.59-1.52a27.37,27.37,0,0,0-7.61-10.09c-1.47-1.22-3.61.89-2.12,2.12Z"/><path d="M477.16,762.64A17,17,0,0,1,483,772.1c.42,1.88,3.32,1.08,2.89-.8a19.63,19.63,0,0,0-6.56-10.78c-1.47-1.24-3.6.88-2.12,2.12Z"/><path d="M471.54,765.17l4.13,6.2c1.07,1.6,3.67.1,2.59-1.51l-4.13-6.2c-1.06-1.6-3.66-.1-2.59,1.51Z"/><path d="M472.16,731l10.63,16.7c1,1.62,3.63.12,2.59-1.52l-10.63-16.69c-1-1.63-3.64-.12-2.59,1.51Z"/><path d="M465.87,737.38l8.26,12.41c1.07,1.6,3.67.1,2.59-1.52l-8.26-12.4c-1.06-1.6-3.66-.1-2.59,1.51Z"/><path d="M451,731.89l11.12,17.2c1,1.61,3.64.11,2.59-1.52l-11.12-17.19c-1.05-1.62-3.65-.11-2.59,1.51Z"/><path d="M437.46,730.47a105.76,105.76,0,0,1,11.25,17.85c.87,1.72,3.46.2,2.6-1.52a109.67,109.67,0,0,0-11.73-18.45c-1.18-1.52-3.29.61-2.12,2.12Z"/><path d="M423.37,769.46c.17-3.36,3.69-4.46,6.27-5.43a3,3,0,0,0,.71-5.48c-.53-.36-7.77-5.62-2-6.64,3.08-.55,2.62-5,0-5.79q-3.25-.27-2.88-3.93a3,3,0,0,0-.72-5.48l-.92-2.2,3-2.14c1.6-.64,3.76-.59,5.5-.71,2.61-.17,5.23-.31,7.85-.45q8.82-.45,17.66-.68c11.46-.32,22.93-.42,34.39-.46,10.23,0,22.53-1.71,31.94,3.16,7.68,4,13,11,21.29,14l-1.79-4.41-.24.48c-1,2.12.73,5.37,3.39,4.4a3.18,3.18,0,0,1,1.34-.38,3.14,3.14,0,0,0,2.9-2.2l.06-.14-5.9-.8v.14a3,3,0,0,0,3,3c2.31-.08,5.48-.14,7.7.71l-2.09-2.1a21.33,21.33,0,0,1,1.51,6.14,16.61,16.61,0,0,1,0,2.34c-1,2-.64,2.91,1.19,2.68a3,3,0,0,0-4.52,2.59V760l3.8-2.89c-2.74-.55-5.6.28-8.24-.62a3.05,3.05,0,0,0-3.39,1.37l-.75,1.15h5.19l-.06-.11v3l.78-1.05c1-1.35.16-3.29-1.07-4.11-.72-.47-1-4.49-1.16-5.34-.59-3.35-6-2.53-5.89.8a25,25,0,0,0,2.16,9.7v-3c-5.89,7.82-12.4,15.11-22.6,16.59s-21.42.16-31.81-.12c-10.61-.28-21.21-.61-31.81-1q-8.45-.36-16.89-.82c-4.59-.25-15.79.93-17.06-4.84-.84-3.77-6.62-2.18-5.79,1.59,2.49,11.26,19.3,9.08,27.82,9.52,13.9.71,27.82,1.17,41.74,1.55,12.14.33,25.63,2.25,37.58-.42,10.68-2.39,17.71-10.63,24-19a3,3,0,0,0,0-3,17.23,17.23,0,0,1-1.34-6.67l-5.9.8c.56,3.18,1,7,3.92,8.92l-1.08-4.1-.78,1a3,3,0,0,0,0,3l0,.11c1,2.18,4.06,1.71,5.19,0l.75-1.15L546,762.28c2.82,1,5.41.06,8.23.62a3,3,0,0,0,3.8-2.89v-.31l-4.51,2.59c6.74,3.84,8.09-5.66,7.83-10.2-.16-2.78-.54-7.39-2.8-9.29s-7.61-1.56-10.32-1.46l3,3v-.14c0-3.61-4.69-3.77-5.89-.8l-.06.15,2.89-2.21a10.12,10.12,0,0,0-2.93.6l3.38,4.4.24-.47a3.05,3.05,0,0,0-1.8-4.4c-5.67-2.08-9.94-6.4-14.67-10A33.76,33.76,0,0,0,517,724.73c-6.52-1-13.23-.7-19.81-.68q-11.3,0-22.6.15c-14.93.19-30.12.13-45,1.66-4.74.49-9.65,2.08-11.49,6.91-1.68,4.43.88,8.26,5.06,9.72l-.72-5.48c-7.72,4.74-2.3,12.85,4.31,14.9v-5.79a7.82,7.82,0,0,0-6.42,7.57c-.11,4.53,3.54,7.74,7,10l.72-5.48c-5.46,2-10.35,4.82-10.67,11.21C417.18,773.32,423.18,773.31,423.37,769.46Z"/><g class="c"><path class="a" d="M246.19,335.26c-5.25,7.06-10.9,14.44-19.07,17.71-6,2.39-12.63,2.27-19.08,2.12-25.85-.62-51.71-1.24-77.52-2.89a19.61,19.61,0,0,1-6.86-1.29,6,6,0,0,1-1.41-10.73,19.92,19.92,0,0,1,5.71-2.83c-2.56-1.59-5.1-3.81-5.51-6.8s2.69-6.32,5.44-5.06c-2.7-.49-5.58-1.62-6.77-4.08s.68-6.21,3.37-5.74c-2.24.83-4.77-1.39-4.84-3.77s1.74-4.52,3.88-5.57a18.38,18.38,0,0,1,7-1.39c24.19-1.59,48.44-1.64,72.67-1.69,6.92,0,14.09,0,20.36,2.95,8,3.7,13.54,11.66,21.88,14.37a18,18,0,0,0-.21,16.18"/></g><path d="M254.44,321.77a21.86,21.86,0,0,1,1.47,5.49c.18,1.56.58,4.84-.19,6.26-1.3,2.38-2-3.62-2.07-4.44,0-.62-.39-7.3,1.48-6.42s3.25-1.76,1.51-2.59c-8.32-3.95-6.66,12.76-3.95,16.36,2.23,3,5.29.88,5.92-2.11A23.43,23.43,0,0,0,257.33,321c-.7-1.78-3.6-1-2.89.8Z"/><path d="M254.59,334.78a17,17,0,0,0-4.83-.12,7,7,0,0,1-2.64-.21c-1.21-.62-1.39-2.16-1.65-3.3-.48-2-1.54-5.67-.38-7.68,1.46-2.53,6.24-1.4,8.44-.9,1.88.43,2.68-2.46.8-2.89-3.05-.7-7.83-1.66-10.5.52-2.3,1.87-2.28,5.45-2,8.12s.69,6.63,2.94,8.32c2.59,1.94,6.13.36,9,1,1.87.44,2.68-2.45.79-2.89Z"/><path d="M249.43,320.2a16.14,16.14,0,0,0-.13,16c.92,1.69,3.51.18,2.59-1.52a13,13,0,0,1,.13-12.92,1.5,1.5,0,0,0-2.59-1.52Z"/><path d="M246.09,319.65a20.12,20.12,0,0,0-.26,16.06c.73,1.76,3.63,1,2.89-.79a17.26,17.26,0,0,1,0-13.75c.77-1.75-1.82-3.28-2.59-1.52Z"/><path d="M255.65,334.22a25,25,0,0,0,.14-11.69c-.42-1.89-3.31-1.09-2.89.79a21.55,21.55,0,0,1-.14,10.1c-.47,1.88,2.42,2.68,2.89.8Z"/><path d="M244.89,334.5c-6.47,8.69-13.37,17-24.73,18.69-11,1.6-22.89.15-34-.15-11.27-.31-22.54-.67-33.8-1.17q-8.94-.4-17.88-.93c-2.8-.17-6.11,0-8.79-.89-3.78-1.26-6-5.38-2.35-8.71a15.2,15.2,0,0,1,5-2.54,1.52,1.52,0,0,0,.36-2.74,9.41,9.41,0,0,1-3-2.55q-3.26-2.7,1.82-6.57l.79-2.9a8.87,8.87,0,0,1-2.47-.72q-3.77-.84-1.32-6.15l-.39-2.94L121.67,310l3.92-2.82c1.56-.72,4.11-.64,5.91-.76,2.61-.18,5.22-.32,7.84-.45q8.83-.45,17.67-.69c11.46-.32,22.92-.42,34.38-.46,10.55,0,23-1.66,32.7,3.37C231.64,312.07,236.87,319,245,322l-.89-2.21a20.33,20.33,0,0,0-.22,17.69c.78,1.77,3.37.24,2.59-1.51a17,17,0,0,1,.22-14.66,1.55,1.55,0,0,0-.9-2.21c-5.95-2.17-10.35-6.62-15.34-10.35a32.26,32.26,0,0,0-15.16-6.43c-7.23-1-14.68-.59-22-.57-7.86,0-15.72.08-23.58.2s-15.72.32-23.57.64c-6.83.28-14.82-.33-21.41,1.64-3.39,1-6.93,4-6.62,7.84.29,3.6,3.38,5.54,6.71,5,1.68-.26,1.27-3-.4-2.95a5.36,5.36,0,0,0-5.2,6.12c.48,4.1,4.68,5.87,8.2,6.65,1.88.41,2.68-2.46.79-2.9a5.89,5.89,0,0,0-7.24,4.82c-.82,4.37,2.94,7.63,6.17,9.79l.35-2.74c-4,1.51-8.88,3.65-9.5,8.5-.55,4.28,3,7.46,6.84,8.53,7,2,15.32,1.35,22.5,1.7q12.42.6,24.85,1,11.92.39,23.86.67c8,.2,16.3,1,24.26-.1,12.43-1.69,20-10.67,27.11-20.19,1.15-1.55-1.45-3-2.59-1.51Z"/><path d="M230.79,349.5c3.45-9.29,7.75-27.18-1.42-34.67-1.48-1.22-3.62.89-2.12,2.12,8.16,6.66,3.7,23.55.65,31.76-.67,1.81,2.23,2.59,2.89.79Z"/><path d="M221.42,340.83a101.66,101.66,0,0,1-3.15-15.25c-.27-2.74-1.1-17.59,4.8-15.29,1.8.7,2.58-2.2.8-2.89-6.05-2.36-8.05,5.06-8.57,9.46-1,8.37,1.14,16.73,3.23,24.76a1.5,1.5,0,0,0,2.89-.79Z"/><path d="M144.15,339.23c1.69-7.29,3.41-14.82,2.66-22.35-.24-2.4-1.07-10.66-5.58-8.89-1.75.68-2.07,3-2.52,4.53a100.7,100.7,0,0,0-2.89,12.21c-1.14,7-1,14,1.51,20.75a1.52,1.52,0,0,0,2.74.36l1.05-1.4c1.16-1.55-1.44-3-2.59-1.51l-1.05,1.4,2.74.36c-3.64-9.8-1.81-19.73.87-29.51q.51-1.86,1-3.72a9.24,9.24,0,0,1,1.67,5.42,37.16,37.16,0,0,1,.14,5.48c-.21,5.44-1.47,10.78-2.69,16.07-.43,1.88,2.46,2.68,2.89.8Z"/><path d="M203.3,340.77a29.29,29.29,0,0,1,8.53,10.59c.84,1.74,3.43.22,2.59-1.51a32.35,32.35,0,0,0-9.61-11.67c-1.53-1.17-3,1.43-1.51,2.59Z"/><path d="M196.22,340l6.48,8.93c1.12,1.55,3.72.05,2.59-1.51l-6.48-8.93c-1.12-1.55-3.72-.06-2.59,1.51Z"/><path d="M186,340.56a25.43,25.43,0,0,1,7.13,9.48c.77,1.77,3.36.24,2.59-1.51a27.18,27.18,0,0,0-7.6-10.09c-1.48-1.23-3.61.88-2.12,2.12Z"/><path d="M176.28,338.85a17,17,0,0,1,5.79,9.46c.43,1.88,3.32,1.08,2.89-.8a19.6,19.6,0,0,0-6.56-10.78c-1.47-1.23-3.6.88-2.12,2.12Z"/><path d="M170.67,341.38l4.13,6.21c1.06,1.6,3.66.1,2.59-1.52l-4.13-6.2c-1.07-1.6-3.67-.1-2.59,1.51Z"/><path d="M171.28,307.24l10.63,16.7c1,1.62,3.63.12,2.59-1.51l-10.63-16.7c-1-1.62-3.63-.12-2.59,1.51Z"/><path d="M165,313.59,173.26,326c1.06,1.6,3.66.1,2.59-1.51l-8.26-12.41c-1.07-1.6-3.66-.1-2.59,1.51Z"/><path d="M150.16,308.11l11.12,17.19c1.05,1.62,3.64.11,2.59-1.51l-11.12-17.2c-1-1.61-3.64-.11-2.59,1.52Z"/><path d="M136.59,306.68a106.8,106.8,0,0,1,11.25,17.85c.87,1.72,3.45.21,2.59-1.52a110.66,110.66,0,0,0-11.72-18.45c-1.19-1.52-3.3.61-2.12,2.12Z"/><path d="M122.5,345.68c.17-3.37,3.68-4.47,6.26-5.43a3.05,3.05,0,0,0,.72-5.49c-.54-.35-7.77-5.62-2-6.64,3.08-.55,2.63-5,0-5.79q-3.24-.25-2.88-3.93a3,3,0,0,0-.71-5.48l-.93-2.2,3-2.13a19,19,0,0,1,5.51-.71c2.61-.18,5.22-.32,7.84-.45q8.83-.45,17.67-.69c11.46-.32,22.92-.42,34.38-.46,10.24,0,22.54-1.7,31.94,3.16,7.69,4,13,11,21.29,14l-1.79-4.4-.23.47c-1,2.13.73,5.38,3.39,4.41a3,3,0,0,1,1.34-.38,3.16,3.16,0,0,0,2.89-2.2l.06-.15-5.89-.8v.14a3,3,0,0,0,3,3c2.3-.08,5.47-.13,7.69.71L253,322.17a21.19,21.19,0,0,1,1.51,6.13,16.62,16.62,0,0,1,0,2.34c-1,2-.64,2.91,1.18,2.68a3,3,0,0,0-4.51,2.59v.31l3.79-2.89c-2.73-.55-5.6.29-8.23-.62a3,3,0,0,0-3.39,1.38l-.75,1.14h5.18l-.05-.11v3l.78-1c1-1.35.15-3.29-1.08-4.1-.71-.48-1-4.5-1.16-5.34-.59-3.36-6-2.54-5.89.79a24.93,24.93,0,0,0,2.17,9.7v-3c-5.9,7.82-12.41,15.11-22.61,16.6s-21.41.15-31.8-.13c-10.61-.28-21.22-.61-31.82-1q-8.44-.35-16.89-.81c-4.58-.26-15.78.92-17.06-4.85-.83-3.77-6.62-2.18-5.79,1.59,2.49,11.26,19.31,9.09,27.82,9.52,13.91.71,27.83,1.17,41.75,1.55,12.14.33,25.62,2.25,37.57-.42,10.68-2.39,17.71-10.62,24-19a3.06,3.06,0,0,0,0-3,17.39,17.39,0,0,1-1.35-6.67l-5.89.8c.56,3.19,1,7,3.91,8.93l-1.07-4.11-.78,1.05a3,3,0,0,0,0,3l.05.11c1,2.18,4.06,1.71,5.18,0l.75-1.15-3.39,1.38c2.83,1,5.42.06,8.24.63a3,3,0,0,0,3.8-2.9v-.31l-4.51,2.59c6.74,3.84,8.08-5.66,7.82-10.2-.16-2.78-.54-7.38-2.8-9.29s-7.61-1.56-10.31-1.46l3,3v-.14c0-3.61-4.7-3.77-5.89-.8l-.06.15,2.89-2.2a9.79,9.79,0,0,0-2.94.59l3.39,4.41.23-.48a3,3,0,0,0-1.79-4.4c-5.67-2.07-9.94-6.4-14.67-10A33.9,33.9,0,0,0,216.12,301c-6.53-1-13.23-.7-19.81-.69-7.54,0-15.07.06-22.6.15-14.93.19-30.12.13-45,1.66-4.73.49-9.65,2.08-11.48,6.92-1.68,4.42.87,8.25,5.05,9.72l-.71-5.49c-7.73,4.74-2.31,12.86,4.31,14.9v-5.79a7.82,7.82,0,0,0-6.42,7.58c-.11,4.53,3.53,7.73,7,10l.72-5.48c-5.46,2-10.35,4.82-10.67,11.22C116.31,349.54,122.31,349.53,122.5,345.68Z"/><path class="a" d="M356.73,474.13c-29.79-20.78-68.91-31.06-101-14.1a123.36,123.36,0,0,1,9.45,35.54l20.4,2a66.72,66.72,0,0,1-26.77,29.64c-4.77,2.8-10.57,6-11,11.47-.36,4.55,3.25,8.33,6.58,11.45,24.38,22.81,45.41,46.12,69.8,68.93,1.91,1.78,4,3.66,6.6,4,4.78.53,8.24-4.34,10.32-8.68,7.3-15.29,21.62-41.46,22.56-58.37,0,0,2.53,23.68,4.14,43a95,95,0,0,0,31.66-1.53S418.16,517,356.73,474.13Z"/><path d="M357.49,472.83c-29.61-20.4-68.9-31.38-102.54-14.1a1.53,1.53,0,0,0-.54,2,126.75,126.75,0,0,1,9.24,34.79,1.56,1.56,0,0,0,1.5,1.5l20.4,2-1.29-2.26a67.24,67.24,0,0,1-16.44,22,72.91,72.91,0,0,1-10.91,7.72c-3,1.81-6.31,3.68-8.46,6.57-4.07,5.48-1.58,11.35,2.63,15.87,7.26,7.81,15.49,14.86,23,22.41,15.35,15.36,30.36,31.08,46.13,46,4.48,4.24,9.78,9.75,16.12,5.48,5.51-3.72,7.95-11.82,10.76-17.52,7.57-15.33,16.76-32.06,18-49.43h-3c1.52,14.32,2.93,28.65,4.14,43a1.53,1.53,0,0,0,1.1,1.45,92.29,92.29,0,0,0,32.46-1.53,1.49,1.49,0,0,0,1.05-1c7-30.18,2.41-65.75-13.17-92.45a104.59,104.59,0,0,0-30.23-32.55c-1.58-1.11-3.08,1.49-1.51,2.59,37.68,26.66,50.7,75.34,42.47,119.37-.08.4-.09,1.58-.37,1.87-.06.07,0,.3-.08.35,1.4-1-2.81-.47-1.84-.41-1.91-.11-4.25.73-6.18.95a91.4,91.4,0,0,1-21.81,0l1.11,1.45c-1.21-14.35-2.62-28.68-4.14-43a1.5,1.5,0,0,0-3,0c-1,14-7.81,27.65-13.8,40.12q-4.08,8.52-8.31,17c-1.91,3.83-4.4,8.72-9.3,8s-9.14-6.43-12.6-9.76c-12.86-12.38-25.27-25.23-37.85-37.91-6.55-6.6-13.16-13.16-19.89-19.59-3-2.89-6.65-5.66-9-9.13-3.54-5.17-1.59-9.63,3.12-13,6.25-4.48,12.77-7.84,18.32-13.32a69.57,69.57,0,0,0,14.05-20,1.52,1.52,0,0,0-1.3-2.25l-20.4-2,1.5,1.5a131.67,131.67,0,0,0-9.65-36.3l-.54,2.05c32.69-16.79,70.85-5.65,99.52,14.1C357.57,476.52,359.07,473.92,357.49,472.83Z"/><path d="M362.09,542.21c.18,6.87.57,14-.52,20.83-.39,2.48-1.26,4.82-1.81,7.26-.43,1.88,2.46,2.68,2.89.79a112.77,112.77,0,0,0,2.44-28.88c0-1.93-3-1.94-3,0Z"/><path d="M288.27,483a62.26,62.26,0,0,1-13.43,29c-1.23,1.47.88,3.6,2.12,2.12a65.24,65.24,0,0,0,14.2-30.32c.34-1.89-2.55-2.7-2.89-.8Z"/><path d="M334.87,464a36.78,36.78,0,0,0-1.37,18.44c.92,4.88,2.92,11.3,7.43,14.12s11.4,1.12,16.29.45a46.4,46.4,0,0,0,17.52-5.59,1.51,1.51,0,0,0,0-2.59l-1.42-.81a1.5,1.5,0,0,0-1.51,2.59l1.41.81v-2.59A40.49,40.49,0,0,1,360,493.53c-4.2.78-9.72,2-14,1.44-12.21-1.5-10.93-22.1-8.25-30.2.61-1.83-2.29-2.62-2.89-.79Z"/><path class="b" d="M367.91,484.46c2.2,2.89-5.82,4.39-9.14,5.86a15.45,15.45,0,0,1-7.95,1.62c-5.35-.63-9.31-5.68-10.46-10.94s-.08-10.73,1-16C341.34,465,359.91,474,367.91,484.46Z"/><path d="M366.61,485.21c.48.93-6.15,2.88-6.91,3.15-3.9,1.44-7.79,3.29-11.85,1.05-8.54-4.71-6.61-16.24-5.06-24l-2.2.9c9.6,4.67,19.56,10.81,26.26,19.23,1.2,1.51,3.31-.63,2.12-2.12-6.85-8.61-17.07-14.94-26.87-19.71a1.51,1.51,0,0,0-2.2.9c-2,9.82-3.18,26.82,10.52,28.8,4.86.7,10.45-2,14.88-3.81,2.62-1.08,5.53-2.73,3.9-5.88C368.31,482,365.72,483.5,366.61,485.21Z"/><path d="M298.85,515.17A115.77,115.77,0,0,1,273.67,543a395.32,395.32,0,0,1,58.16,54.42,72.24,72.24,0,0,0,15.51-30.83,13.14,13.14,0,0,0,.3-6.19c-.62-2.37-2.39-4.24-4.09-6-13.92-14.38-27.95-28.86-44.36-40.31"/><path d="M297.55,514.41a118.93,118.93,0,0,1-24.94,27.5c-.84.67-.38,1.83.3,2.36a401.56,401.56,0,0,1,57.86,54.18,1.51,1.51,0,0,0,2.12,0,76.31,76.31,0,0,0,13.3-22.75c2.74-7.47,5.21-14.83-.56-21.32-13.57-15.25-29-29.84-45.69-41.62-1.58-1.11-3.08,1.49-1.51,2.6,14.3,10.09,26.81,22.33,39,34.84,2.84,2.92,7.72,6.55,8.77,10.57s-1.28,9.61-2.6,13.36a72.28,72.28,0,0,1-12.82,22.2h2.12a404.35,404.35,0,0,0-58.46-54.65l.3,2.35a121.41,121.41,0,0,0,25.41-28.1c1.06-1.62-1.53-3.13-2.59-1.52Z"/><path d="M307.84,512.91l-2.37,5.38c-.43,1-.81,2.23-.06,3a1.77,1.77,0,0,0,2.32-.09,3.75,3.75,0,0,0,1.07-2.26,17.61,17.61,0,0,1,.46-2.51,15.23,15.23,0,0,0,.9-2.41c.13-.84-.32-1.89-1.18-2l0,.47"/><path d="M306.54,512.16c-.79,1.79-1.6,3.57-2.36,5.37a5.6,5.6,0,0,0-.63,3.25,3.06,3.06,0,0,0,4.76,1.83c2.25-1.45,1.95-4.65,2.85-6.86.81-2,.63-4.46-1.78-5.15a1.52,1.52,0,0,0-1.9,1.44l0,.47c-.08,1.93,2.92,1.92,3,0l0-.47-1.9,1.45c.4.11-.65,2.14-.77,2.53-.34,1.07-.22,2.3-.66,3.32-.19.43-.55,1.23-.61.39a6.47,6.47,0,0,1,.82-2l1.77-4c.77-1.75-1.81-3.28-2.59-1.51Z"/><path d="M349.64,553.16l-4.74,3.47c-.85.63-1.82,1.53-1.54,2.56a1.74,1.74,0,0,0,2,1.08,3.79,3.79,0,0,0,2.07-1.41,15.46,15.46,0,0,1,1.65-2,15.6,15.6,0,0,0,2-1.63,1.65,1.65,0,0,0,0-2.3l-.25.39"/><path d="M348.89,551.87l-4,3a8,8,0,0,0-2.67,2.57,3,3,0,0,0,3,4.4c2.66-.13,3.8-2.95,5.68-4.36s3.12-3.65,1.23-5.51a1.52,1.52,0,0,0-2.36.3l-.24.4c-1,1.63,1.55,3.13,2.59,1.51l.25-.39L350,554c.24.23-2.09,1.93-2.32,2.17-.69.72-1.29,2.13-2.26,2.47-1.58.57.91-1.25,1.18-1.45l3.79-2.77c1.54-1.13.05-3.74-1.51-2.59Z"/><path class="b" d="M297.8,538.16c-3.64.85-8.23,2.57-8.37,7-.12,4.12,4.17,5.84,7.66,5.37,3.73-.51,7.67-2.87,8.09-6.94a5.27,5.27,0,0,0-6.48-5.82c-1.87.45-1.08,3.34.8,2.89,3.11-.73,3.08,3.11,1.78,4.71a7.54,7.54,0,0,1-5.53,2.27c-2.38,0-4.33-1.81-2.58-4.12,1.25-1.64,3.53-2.06,5.42-2.5s1.09-3.33-.79-2.89Z"/><path class="b" d="M310.59,546.94c-3.64.84-8.22,2.56-8.36,7-.13,4.12,4.16,5.84,7.65,5.37,3.74-.51,7.67-2.87,8.1-6.94a5.27,5.27,0,0,0-6.48-5.82c-1.88.44-1.08,3.34.8,2.89,3.1-.73,3.08,3.11,1.77,4.71a7.53,7.53,0,0,1-5.52,2.27c-2.38,0-4.33-1.81-2.58-4.12,1.25-1.64,3.53-2.06,5.42-2.5s1.08-3.33-.8-2.89Z"/><path class="b" d="M330.1,566.66c-3.64.84-8.22,2.56-8.36,7-.13,4.12,4.16,5.85,7.65,5.37,3.73-.5,7.67-2.87,8.09-6.94A5.27,5.27,0,0,0,331,566.3c-1.87.44-1.08,3.33.8,2.89,3.11-.74,3.09,3.11,1.78,4.71a7.48,7.48,0,0,1-5.52,2.26c-2.38,0-4.34-1.81-2.59-4.12,1.25-1.64,3.53-2,5.42-2.49s1.09-3.33-.79-2.89Z"/><path class="b" d="M326.32,556a92.28,92.28,0,0,1-12.56,9.71c-1.35.87-.5,3.4,1.15,2.75l.62-.25c1.78-.7,1-3.6-.8-2.89l-.61.24,1.15,2.74a96.18,96.18,0,0,0,13.17-10.18c1.43-1.31-.7-3.43-2.12-2.12Z"/><path d="M259.1,460.07a64.72,64.72,0,0,1,11.24,35.46c0,1.93,3,1.93,3,0a67.54,67.54,0,0,0-11.65-37c-1.08-1.59-3.68-.1-2.59,1.51Z"/><path d="M398.18,590.05a62.73,62.73,0,0,1-31.18.8c-1.88-.42-2.68,2.47-.79,2.9a66.13,66.13,0,0,0,32.77-.81,1.5,1.5,0,0,0-.8-2.89Z"/><path d="M383.58,502.83c-9.46,20.75-35.8,10.25-51,3.45-15-6.71-31.41-13.86-47.84-7.57-1.79.68-1,3.58.79,2.89,20.79-8,40.14,6.25,59.08,12.88,14.48,5.06,34,6.37,41.56-10.14.8-1.74-1.79-3.27-2.59-1.51Z"/><path d="M282,507.24a59.16,59.16,0,0,1,31.76-.32c10.92,3,19.68,9.91,29.74,14.72,7.54,3.61,16.29,6,24.55,3.47s14.34-8.79,20.06-14.79c1.33-1.4-.79-3.52-2.12-2.12-6.6,6.92-13.83,14.24-23.93,14.91-10.9.73-20.64-5.88-29.62-11.12-15.87-9.26-33.3-12.7-51.23-7.65a1.5,1.5,0,0,0,.79,2.9Z"/><path d="M278.28,512a71.53,71.53,0,0,1,37,3.25c10.84,4,19.94,11.51,30.76,15.54,17.07,6.36,36.53-2,44.83-18.06.89-1.71-1.7-3.23-2.59-1.52A35.78,35.78,0,0,1,366.18,529c-11.19,3.11-21.26-1.32-30.87-6.84-8.88-5.09-17.51-10-27.58-12.32a75.73,75.73,0,0,0-30.25-.74c-1.89.33-1.09,3.22.8,2.89Z"/><path d="M351.8,587.56c-4.95,3.62-10.54,6.51-16.79,6.72-6.77.24-13.14-2.68-19-5.82-9.44-5.08-18.69-11.05-29.87-10-1.91.18-1.93,3.18,0,3,13.9-1.3,24.34,8.81,36.58,13.48,10.93,4.17,21.26,2,30.55-4.79,1.54-1.13.05-3.73-1.51-2.59Z"/><path d="M348.61,592.31c-4.69,9.4-16.39,8.51-24.77,5.32-10-3.82-18.72-10.38-29.89-10.24-1.93,0-1.93,3,0,3,13.66-.17,23.94,10.52,37.15,12.26,7.95,1,16.32-1.25,20.1-8.83.86-1.72-1.73-3.24-2.59-1.51Z"/><path d="M345.6,601.89c-11.35,14.49-26.33-1.17-39.76-2.56-1.92-.2-1.91,2.8,0,3,9.44,1,16.93,8.37,26.38,9,5.83.41,11.95-2.82,15.5-7.36,1.18-1.5-.93-3.64-2.12-2.12Z"/><path d="M255.85,539.7l2.24,6.7c.61,1.82,3.51,1,2.9-.8l-2.25-6.7c-.61-1.82-3.51-1-2.89.8Z"/><path d="M259.76,538.46l3.12,10.19a1.51,1.51,0,0,0,2.51.66l.35-.38c1.3-1.42-.82-3.55-2.12-2.12l-.35.38,2.5.66-3.11-10.19c-.57-1.84-3.46-1-2.9.8Z"/><path d="M265.68,542.83a22.73,22.73,0,0,0,2.71,10.49c.91,1.7,3.5.19,2.59-1.52a19.47,19.47,0,0,1-2.3-9c0-1.93-3-1.93-3,0Z"/><path d="M272.1,550.1l2.35,9c.48,1.86,3.38,1.07,2.89-.8l-2.35-9c-.48-1.86-3.38-1.07-2.89.8Z"/><path d="M277.67,554.65l.92,6.78c.26,1.91,3.15,1.1,2.89-.79l-.92-6.79c-.25-1.9-3.14-1.09-2.89.8Z"/><path d="M291.86,464.08l3.73,7.39c.87,1.73,3.46.21,2.59-1.51l-3.73-7.4c-.87-1.72-3.46-.21-2.59,1.52Z"/><path d="M297.74,462.92l4.05,8c.87,1.73,3.46.21,2.59-1.51l-4.05-8c-.87-1.72-3.46-.2-2.59,1.52Z"/><path d="M304.47,464.36l4.17,9.16c.8,1.76,3.39.23,2.59-1.51l-4.17-9.16c-.8-1.76-3.38-.23-2.59,1.51Z"/><path d="M311.35,466l2.14,9.95c.4,1.89,3.3,1.09,2.89-.79l-2.13-10c-.41-1.88-3.3-1.09-2.9.8Z"/><path d="M318.35,468l.22,10.76c0,1.93,3,1.94,3,0L321.35,468c0-1.93-3-1.93-3,0Z"/><path d="M382,538.32a17.93,17.93,0,0,0-7.25,6.51c-1,1.63,1.55,3.13,2.59,1.51a15,15,0,0,1,6.18-5.43c1.73-.85.21-3.44-1.52-2.59Z"/><path d="M381,543.46l-1.61,1.95a1.55,1.55,0,0,0,0,2.12,1.52,1.52,0,0,0,2.12,0l1.61-1.95a1.54,1.54,0,0,0,0-2.12,1.51,1.51,0,0,0-2.12,0Z"/><path d="M382.23,547.14l-5.64,7.36c-1.17,1.53,1.44,3,2.59,1.51l5.64-7.35c1.17-1.53-1.44-3-2.59-1.52Z"/><path d="M384.93,552.92a39.94,39.94,0,0,0-6.63,13.83,1.5,1.5,0,0,0,2.89.8,37.52,37.52,0,0,1,6.33-13.11c1.15-1.55-1.45-3.05-2.59-1.52Z"/><path d="M384.41,563.14l-3.24,5.72a1.51,1.51,0,0,0,2.36,1.82l.72-.71c1.38-1.35-.74-3.47-2.12-2.12l-.72.71,2.35,1.82,3.24-5.73a1.5,1.5,0,0,0-2.59-1.51Z"/><path d="M386.22,566.55,385,569.06a1.54,1.54,0,0,0,.54,2.05,1.51,1.51,0,0,0,2.05-.54l1.25-2.51a1.5,1.5,0,1,0-2.59-1.51Z"/><path d="M358.25,471.54c-30.09-20.73-69.94-31.63-104.06-14.1-1.57.8-1.68,2.68-1.08,4.1a123.91,123.91,0,0,1,9,34,3.13,3.13,0,0,0,3,3l20.4,2L283,496.05a65.9,65.9,0,0,1-16.2,21.74c-5.88,5.15-14.58,8-19.37,14.29s-2.16,12.84,2.63,18c7.26,7.81,15.49,14.86,23,22.41,15.35,15.36,30.36,31.08,46.13,46,5.07,4.81,11,10.44,18.09,5.59,5.7-3.92,8.21-12,11.15-17.93,7.7-15.59,16.94-32.53,18.22-50.19h-6c1.52,14.32,2.93,28.65,4.14,43,.09,1.18.85,2.7,2.2,2.89a94,94,0,0,0,33.26-1.53,3,3,0,0,0,2.1-2.09c7-30.57,2.46-66.56-13.33-93.61a106.26,106.26,0,0,0-30.76-33.08c-3.16-2.24-6.16,3-3,5.18C390.66,501.79,403,545.34,398.11,587a87.52,87.52,0,0,1-1.56,9.66l2.09-2.09a90.19,90.19,0,0,1-21,2.08q-3.25,0-6.49-.31c-.65,0-3.53-.38-2.54-.24l2.21,2.89c-1.21-14.35-2.62-28.68-4.14-43a3,3,0,0,0-6,0c-1,13.74-7.73,27.15-13.59,39.36q-4.1,8.52-8.32,17c-1.59,3.21-3.7,7.85-7.82,7.36s-8.76-6.61-11.71-9.45c-12.87-12.38-25.28-25.23-37.86-37.91-6.55-6.6-13.16-13.16-19.89-19.59-3-2.83-6.59-5.56-8.91-9-3-4.42-1.28-7.92,2.7-10.8,6.33-4.59,13-8,18.62-13.56a70.65,70.65,0,0,0,14.28-20.29,3,3,0,0,0-2.59-4.51l-20.4-2,3,3a134.09,134.09,0,0,0-9.86-37.06l-1.07,4.11c32.2-16.55,69.8-5.32,98,14.1C358.41,478.91,361.41,473.72,358.25,471.54Z"/><path d="M405.05,531.63l-12.38,11.7c-1.41,1.33.71,3.45,2.12,2.13l12.39-11.71c1.4-1.33-.72-3.45-2.13-2.12Z"/><path d="M413.75,530.82l-19,13.51c-1.3.92-.58,3.3,1.15,2.74l1.27-.42c1.83-.59,1.05-3.49-.8-2.89l-1.26.42,1.15,2.74,19-13.51c1.56-1.11.06-3.71-1.51-2.59Z"/><path d="M417.06,532.91,397.67,543.2c-1.52.8-.47,3.16,1.16,2.74l3.3-.87a1.5,1.5,0,0,0-.79-2.89l-3.31.87,1.16,2.74,19.39-10.29c1.7-.9.19-3.49-1.52-2.59Z"/><path d="M420.52,537.24l-22.68,8c-1.8.63-1.08,3.43.8,2.89l2.1-.59a1.51,1.51,0,0,0-.8-2.9l-2.1.6.8,2.89,22.68-8c1.81-.64,1-3.54-.8-2.89Z"/><path d="M424.07,539.42l-17.32,5.68c-1.82.6-1.07,3.44.8,2.9l2.6-.76a1.5,1.5,0,0,0-.8-2.89l-2.6.75.8,2.9,17.32-5.68c1.82-.6,1-3.5-.8-2.9Z"/><path d="M431.18,540.23l-18.29,4.91a1.5,1.5,0,0,0,.8,2.89L432,543.12a1.5,1.5,0,0,0-.79-2.89Z"/><g class="c"><path class="a" d="M150.14,94.31c3.55-5.55,7.39-11.36,13.32-14.23,5.29-2.55,11.43-2.36,17.29-2A493.69,493.69,0,0,1,258.9,89c2.8.62,5.81,1.41,7.57,3.66s1.77,5.67.66,8.39-3.12,5-5.09,7.15c4.12.58,6.94,5,6.65,9.19s-3.08,7.8-6.47,10.21c3.85.79,5.95,5.55,4.77,9.29s-4.8,6.31-8.6,7.28-7.81.61-11.71.18c-14-1.53-28-3.83-41.89-6.12l-33.55-5.52a36.23,36.23,0,0,1-9.75-2.55c-7.73-3.66-11.8-12.1-15.28-19.92,0,0-8.92-.51-12.2-2.68,0,0-4.1-9.13,6.13-17Z"/></g><path d="M137.76,89.85A27.94,27.94,0,0,0,131.47,104c-.39,2.73.83,6.51,4.38,5.16,5.13-2,12.68-21,3-19.74-1.89.25-1.91,3.26,0,3,3.31-.44.48,6.56.09,7.59s-3.07,7.54-4.61,5.44c-.71-1,1.19-5.76,1.63-6.9A24.05,24.05,0,0,1,139.88,92c1.21-1.48-.9-3.61-2.12-2.12Z"/><path d="M135.39,109.51c3.45.27,7.05,3.53,10.64,1.9,2.8-1.28,4.67-5.66,5.81-8.26,1.24-2.86,2.47-7,.18-9.64s-7.51-3.38-11-3.67c-1.92-.17-1.91,2.84,0,3,2.62.22,8.6.74,9.23,4.1.49,2.61-1.51,5.8-2.75,7.93-1.55,2.67-3.41,4.4-6.69,3.25a20.86,20.86,0,0,0-5.47-1.61c-1.93-.15-1.92,2.85,0,3Z"/><path d="M143.24,92.7a15.37,15.37,0,0,1-4.62,14.62c-1.41,1.33.72,3.45,2.12,2.13a18.52,18.52,0,0,0,5.4-17.55c-.41-1.89-3.3-1.09-2.9.8Z"/><path d="M147.09,92.88a20.26,20.26,0,0,1-4.75,15.53c-1.25,1.46.86,3.59,2.12,2.12a23.21,23.21,0,0,0,5.63-17.65c-.19-1.9-3.19-1.92-3,0Z"/><path d="M144.91,111c5.22,11.63,11.06,20.46,24.27,22.88,16.42,3,33,5.51,49.46,8.11,7.74,1.22,15.49,2.37,23.26,3.31,6.34.77,13.49,2.14,19.55-.64,7.58-3.48,10.94-15.39,1.17-18.5l.36,2.74c4-3.06,7.56-7.41,7.2-12.76a10.16,10.16,0,0,0-7.74-9.39l.66,2.51c3.14-3.49,6.59-7.53,6.29-12.55-.26-4.47-3.26-7.08-7.28-8.43-6.59-2.22-13.92-3.12-20.74-4.38Q230,81.84,218.54,80.27c-14.17-1.93-28.78-3.92-43.11-3.9-6,0-11.72,1.09-16.52,4.83-4.22,3.3-7.2,7.9-10.07,12.35-1,1.63,1.55,3.14,2.59,1.52,2.64-4.1,5.33-8.28,9.18-11.35,4.79-3.83,10.66-4.47,16.6-4.32,11.1.27,22.27,1.51,33.28,2.83q17,2.05,33.86,5.3c5.18,1,10.49,1.83,15.56,3.27,4,1.12,7.26,3.9,6.24,8.47-.7,3.08-3.13,5.62-5.17,7.89a1.51,1.51,0,0,0,.66,2.5c9.16,2.2,5,12.71-.18,16.67a1.52,1.52,0,0,0,.36,2.74c4.05,1.29,4.95,6.16,2.75,9.4-1.8,2.67-5,4-8,4.51-5.41.91-11.16-.22-16.55-.9-12.58-1.57-25.08-3.68-37.59-5.73-11.34-1.87-22.84-3.32-34.09-5.65-11.48-2.38-16.36-11.28-20.81-21.2-.78-1.76-3.37-.23-2.59,1.52Z"/><path d="M166.26,122.4a53.4,53.4,0,0,0,8-21.93c.76-6.1,1.07-13.3-3.85-17.78-1.43-1.3-3.56.82-2.13,2.12,4.84,4.4,3.61,12.85,2.5,18.58a51.15,51.15,0,0,1-7.07,17.5c-1,1.64,1.57,3.15,2.59,1.51Z"/><path d="M248.54,139.23a127.44,127.44,0,0,1-.8-20.85,122.16,122.16,0,0,1,1.31-12.81c.25-1.56.53-3.12.84-4.67.5-2.53.13-4,2.82-4.75,3.06-.83,2,.76,2.08,3.14.05,1.91.05,3.83.06,5.73,0,3.51,0,7-.18,10.51a103.28,103.28,0,0,1-1.15,11.9c-.3,1.86-.64,3.75-1.09,5.59l-.46,1.84q-.1,3.62-3.84,2.85c-.1-1.92-3.1-1.93-3,0a4.05,4.05,0,0,0,4.7,4c4-.49,5-5.68,5.7-8.85a103.45,103.45,0,0,0,2.18-18.32c.24-6,.85-12.73-.06-18.69-.4-2.6-1.75-5.21-4.84-4.9-4,.41-5,5-5.63,8.19a124.45,124.45,0,0,0-1.64,40.06c.22,1.89,3.22,1.92,3,0Z"/><path d="M177.74,87.47l50.8,11.94c1.88.44,2.68-2.45.8-2.89l-50.8-11.94c-1.88-.44-2.68,2.45-.8,2.89Z"/><path d="M137.73,105.34A25.5,25.5,0,0,1,141.26,94a1.5,1.5,0,0,0-2.59-1.52,28.88,28.88,0,0,0-3.94,12.91c-.12,1.93,2.88,1.92,3,0Z"/><path d="M180,114.28l5.66,10a1.5,1.5,0,0,0,2.59-1.51l-5.66-10a1.5,1.5,0,0,0-2.59,1.51Z"/><path d="M186,113.05a37.35,37.35,0,0,0,7.61,13.59c1.27,1.46,3.38-.67,2.12-2.12a33.62,33.62,0,0,1-6.84-12.27c-.57-1.83-3.46-1-2.89.8Z"/><path d="M195.93,122.32l3.08,6.07c.87,1.72,3.46.2,2.59-1.52l-3.08-6.06c-.87-1.72-3.46-.21-2.59,1.51Z"/><path d="M206.17,94.16l6.49,16.39c.69,1.75,3.38,1.12,2.89-.8l-.49-1.93c-.48-1.87-3.37-1.08-2.9.8l.5,1.93,2.89-.8-6.49-16.39c-.7-1.77-3.6-1-2.89.8Z"/><path d="M208.61,88.6l10.84,15.5c1.09,1.57,3.7.08,2.59-1.51L211.2,87.08c-1.09-1.57-3.7-.07-2.59,1.52Z"/><path d="M219.53,91.82a158,158,0,0,0,11.36,14.66c1.27,1.46,3.39-.67,2.12-2.12a152.73,152.73,0,0,1-10.89-14c-1.08-1.58-3.68-.09-2.59,1.51Z"/><path d="M228.81,91.1l8.89,16.16c.93,1.69,3.52.18,2.59-1.52L231.4,89.59c-.93-1.7-3.52-.19-2.59,1.51Z"/><path d="M239.46,99l6.32,9.8c1.05,1.62,3.64.12,2.59-1.51l-6.32-9.8c-1-1.62-3.64-.12-2.59,1.51Z"/><path d="M247.09,97.38l3.71,13.52a1.5,1.5,0,0,0,2.89-.8L250,96.58a1.5,1.5,0,0,0-2.89.8Z"/><path d="M271.69,117.41c0-5.66-3.16-10.72-8.85-12.08l1.32,5c3.46-3.85,6.94-8.13,6.73-13.61-.19-5.12-3.78-8.38-8.38-9.88-6.63-2.17-13.9-3.11-20.75-4.37q-11.37-2.1-22.82-3.66c-14.3-1.95-29.05-4-43.51-3.95-6.18,0-12.19,1.16-17.2,5-4.39,3.35-7.5,8-10.46,12.6l4.11-1.07a19.43,19.43,0,0,0-2.47-1.21l2.2,2.9,0-.19c-.32-3.27-4.83-4.19-5.89-.8l0,.16,3.69-2.09A56.5,56.5,0,0,0,141.71,88a8,8,0,0,0-2-.34c-.33,0-2.57.9-1.32.53,1-.28-1.17.16-1.73.59a13.89,13.89,0,0,0-2.17,2.84,22.09,22.09,0,0,0-3.9,7.76c-.91,3.91-1.87,8.8,2.18,11.12,3.82,2.18,9.09,2.47,13.41,2.75l-2.59-1.49c5.36,12,11.59,21.09,25.16,23.58,16.42,3,33,5.5,49.46,8.11,7.87,1.24,15.75,2.4,23.66,3.36,6.59.8,13.85,2.1,20.13-.77,8.87-4.05,12.12-17.77,1-21.32l.72,5.48c4-3.1,7.12-6.82,7.84-12,.52-3.78-5.26-5.41-5.79-1.6a12.36,12.36,0,0,1-5.08,8.42c-2,1.55-1.93,4.64.71,5.48,3.18,1,3.48,4.78,1.86,7.2-1.52,2.26-4.4,3.37-6.94,3.8-5.32.91-11-.26-16.35-.93-12.44-1.56-24.82-3.64-37.19-5.68-11.34-1.86-22.84-3.31-34.09-5.64-11.08-2.3-15.62-10.94-19.91-20.51a3,3,0,0,0-2.59-1.49,39.78,39.78,0,0,1-7.2-1,34.36,34.36,0,0,0-3.59-1.2q-1.48-.3-.21.15c.95.63,1.24.09.88-1.63.31-1.06.22-2.21.51-3.28.49-1.75,1.57-3,2.37-4.49,1.06-2,1.62-1.71,3.29-3.05l-2.92.77c2.77,1,5.63,1.4,8.4,2.42a3,3,0,0,0,3.69-2.09l0-.16-5.89-.8,0,.19a3.17,3.17,0,0,0,2.2,2.89l1,.6a3.06,3.06,0,0,0,4.1-1.08c2.48-3.84,5-7.78,8.64-10.65,4.52-3.57,10-4.07,15.62-3.93,11.1.27,22.27,1.51,33.28,2.83q16.83,2,33.47,5.24c5.17,1,10.49,1.84,15.55,3.27,3.22.91,6,2.81,5.19,6.63-.62,2.82-2.92,5.16-4.78,7.23-1.44,1.61-1,4.46,1.32,5,3.11.74,4.44,3.27,4.45,6.3C265.69,121.27,271.69,121.28,271.69,117.41Z"/><path d="M639.2,654l29-4.53c1.91-.29,1.1-3.19-.79-2.89l-29,4.52c-1.9.3-1.09,3.19.8,2.9Z"/><path d="M643.19,657.85,671.72,652c1.89-.38,1.09-3.28-.79-2.89L642.39,655c-1.89.39-1.09,3.28.8,2.9Z"/><path d="M642.81,663.9a163.35,163.35,0,0,1,38.67-7v-3l-1.65.15c-1.91.17-1.93,3.17,0,3l1.65-.15c1.9-.16,1.94-3.11,0-3A166.33,166.33,0,0,0,642,661c-1.84.56-1.06,3.46.79,2.89Z"/><g class="c"><path class="a" d="M553.22,549.06c3.55-5.54,7.4-11.36,13.33-14.22,5.28-2.56,11.43-2.37,17.29-2A492.84,492.84,0,0,1,662,543.77c2.79.62,5.8,1.41,7.56,3.67s1.77,5.66.66,8.39-3.11,5-5.08,7.14c4.12.58,6.94,5,6.64,9.19s-3.07,7.8-6.46,10.21c3.84.79,5.94,5.55,4.76,9.3s-4.8,6.3-8.6,7.27-7.8.61-11.71.18c-14-1.53-28-3.82-41.88-6.11l-33.55-5.52a36.05,36.05,0,0,1-9.75-2.56c-7.74-3.66-11.8-12.1-15.29-19.92,0,0-8.91-.51-12.2-2.68,0,0-4.1-9.13,6.14-17Z"/></g><path d="M540.84,544.6a28.07,28.07,0,0,0-6.29,14.14c-.38,2.74.83,6.51,4.38,5.16,5.14-1.95,12.68-21,3-19.74-1.89.26-1.91,3.26,0,3,3.32-.44.49,6.56.1,7.59s-3.08,7.54-4.61,5.45c-.72-1,1.19-5.77,1.62-6.9a23.76,23.76,0,0,1,4-6.57c1.21-1.49-.9-3.62-2.12-2.13Z"/><path d="M538.47,564.26c3.45.28,7,3.54,10.64,1.9,2.81-1.27,4.67-5.66,5.81-8.26,1.25-2.86,2.47-7,.19-9.63s-7.52-3.38-11-3.68c-1.93-.16-1.91,2.84,0,3,2.61.23,8.59.74,9.22,4.1.49,2.62-1.51,5.8-2.74,7.93-1.56,2.68-3.42,4.4-6.69,3.25a21.43,21.43,0,0,0-5.48-1.61c-1.93-.15-1.92,2.85,0,3Z"/><path d="M546.33,547.45a15.42,15.42,0,0,1-4.63,14.63c-1.4,1.32.72,3.44,2.13,2.12a18.53,18.53,0,0,0,5.39-17.55c-.41-1.88-3.3-1.09-2.89.8Z"/><path d="M550.17,547.63a20.25,20.25,0,0,1-4.75,15.53c-1.25,1.46.87,3.6,2.12,2.13a23.2,23.2,0,0,0,5.63-17.66c-.19-1.9-3.19-1.92-3,0Z"/><path d="M548,565.77c5.21,11.63,11,20.46,24.26,22.88,16.42,3,33,5.51,49.47,8.12,7.73,1.22,15.48,2.36,23.26,3.3,6.33.77,13.49,2.14,19.54-.63,7.58-3.49,11-15.39,1.17-18.51l.36,2.74c4-3.06,7.56-7.41,7.21-12.76a10.16,10.16,0,0,0-7.75-9.39l.67,2.51c3.13-3.49,6.59-7.53,6.29-12.55-.27-4.47-3.27-7.08-7.28-8.43-6.59-2.22-13.92-3.12-20.75-4.38q-11.37-2.08-22.83-3.65c-14.17-1.93-28.78-3.92-43.1-3.9-6,0-11.73,1.1-16.52,4.84-4.23,3.29-7.21,7.89-10.07,12.35-1,1.63,1.55,3.13,2.59,1.51,2.63-4.1,5.32-8.28,9.17-11.35,4.8-3.83,10.66-4.47,16.61-4.32,11.1.27,22.26,1.51,33.28,2.84q17,2,33.86,5.29c5.17,1,10.49,1.83,15.56,3.27,4,1.12,7.25,3.9,6.23,8.47-.69,3.09-3.13,5.62-5.16,7.89a1.51,1.51,0,0,0,.66,2.51c9.16,2.19,5,12.7-.18,16.66a1.52,1.52,0,0,0,.36,2.74c4.05,1.29,4.94,6.16,2.75,9.4-1.81,2.67-5,4-8,4.52-5.41.91-11.16-.23-16.54-.9-12.58-1.58-25.09-3.68-37.6-5.74-11.33-1.87-22.83-3.32-34.08-5.64-11.48-2.38-16.36-11.29-20.81-21.2-.79-1.76-3.38-.24-2.59,1.51Z"/><path d="M569.35,577.16a53.64,53.64,0,0,0,8-21.94c.75-6.1,1.06-13.3-3.86-17.78-1.43-1.29-3.55.82-2.12,2.12,4.83,4.4,3.61,12.85,2.49,18.59a51.08,51.08,0,0,1-7.06,17.49c-1,1.64,1.56,3.15,2.59,1.52Z"/><path d="M651.62,594a126.21,126.21,0,0,1-.79-20.84,117.46,117.46,0,0,1,1.31-12.82c.24-1.56.53-3.12.83-4.67.51-2.53.13-4,2.82-4.75,3.07-.82,2,.77,2.08,3.15,0,1.9.06,3.82.06,5.73,0,3.5,0,7-.18,10.5a105.53,105.53,0,0,1-1.14,11.9c-.3,1.87-.64,3.75-1.1,5.59l-.46,1.84c-.07,2.41-1.34,3.36-3.83,2.85-.11-1.92-3.11-1.93-3,0a4,4,0,0,0,4.69,4c4-.49,5-5.68,5.7-8.85a104.41,104.41,0,0,0,2.19-18.31c.23-6,.84-12.73-.07-18.7-.39-2.59-1.75-5.21-4.84-4.9-4,.41-5,5-5.62,8.19A124.46,124.46,0,0,0,648.62,594c.22,1.9,3.22,1.92,3,0Z"/><path d="M580.83,542.23l50.79,11.93c1.88.44,2.68-2.45.8-2.89l-50.8-11.94c-1.87-.44-2.68,2.45-.79,2.9Z"/><path d="M540.82,560.09a25.36,25.36,0,0,1,3.52-11.39,1.5,1.5,0,0,0-2.59-1.51,28.67,28.67,0,0,0-3.93,12.9c-.13,1.93,2.87,1.92,3,0Z"/><path d="M583,569l5.66,10a1.5,1.5,0,0,0,2.59-1.52l-5.66-10A1.5,1.5,0,0,0,583,569Z"/><path d="M589.05,567.8a37.32,37.32,0,0,0,7.6,13.59c1.27,1.46,3.39-.67,2.12-2.12A33.7,33.7,0,0,1,591.94,567c-.57-1.84-3.47-1.06-2.89.79Z"/><path d="M599,577.07l3.08,6.07c.88,1.72,3.47.21,2.59-1.51l-3.08-6.07c-.87-1.72-3.46-.21-2.59,1.51Z"/><path d="M609.25,548.91l6.49,16.39c.69,1.75,3.38,1.12,2.89-.8l-.49-1.93c-.48-1.87-3.37-1.07-2.89.8l.49,1.93,2.89-.8-6.48-16.39c-.7-1.77-3.61-1-2.9.8Z"/><path d="M611.7,543.35l10.83,15.5c1.1,1.58,3.7.08,2.59-1.51l-10.83-15.51c-1.1-1.57-3.7-.07-2.59,1.52Z"/><path d="M622.62,546.58A159.12,159.12,0,0,0,634,561.23c1.28,1.46,3.39-.67,2.13-2.12a151,151,0,0,1-10.89-14.05c-1.09-1.58-3.69-.08-2.59,1.52Z"/><path d="M631.89,545.85,640.78,562c.93,1.69,3.52.18,2.59-1.52l-8.88-16.15c-.94-1.69-3.53-.18-2.6,1.51Z"/><path d="M642.54,553.72l6.33,9.81c1,1.61,3.64.11,2.59-1.52l-6.33-9.8c-1-1.62-3.64-.12-2.59,1.51Z"/><path d="M650.18,552.13l3.7,13.52a1.5,1.5,0,0,0,2.9-.79l-3.71-13.52a1.5,1.5,0,0,0-2.89.79Z"/><path d="M674.77,572.16c0-5.66-3.16-10.72-8.85-12.08l1.33,5c3.45-3.85,6.93-8.12,6.73-13.61-.19-5.11-3.79-8.37-8.38-9.88-6.63-2.16-13.91-3.11-20.75-4.37q-11.37-2.1-22.83-3.66c-14.3-2-29-4-43.5-4-6.19,0-12.2,1.17-17.21,5-4.39,3.35-7.5,8-10.46,12.61l4.11-1.08a18.1,18.1,0,0,0-2.47-1.2l2.2,2.89,0-.19c-.32-3.27-4.83-4.18-5.89-.79l0,.16,3.69-2.1a56.5,56.5,0,0,0-7.63-2.14,8.05,8.05,0,0,0-2-.34c-.34,0-2.58.91-1.33.54,1-.29-1.17.16-1.72.58a14.59,14.59,0,0,0-2.18,2.84,22.26,22.26,0,0,0-3.9,7.76c-.9,3.91-1.87,8.8,2.19,11.12,3.81,2.18,9.08,2.47,13.4,2.75l-2.59-1.48c5.36,11.94,11.59,21.08,25.16,23.57,16.42,3,33,5.51,49.47,8.11,7.87,1.24,15.75,2.4,23.66,3.36,6.58.8,13.84,2.1,20.12-.76,8.88-4.06,12.13-17.78,1-21.33l.72,5.48c4-3.09,7.13-6.82,7.84-12,.52-3.77-5.26-5.41-5.78-1.59a12.32,12.32,0,0,1-5.09,8.41c-2,1.55-1.93,4.64.72,5.49,3.17,1,3.47,4.77,1.85,7.2-1.51,2.26-4.4,3.36-6.94,3.79-5.32.91-11-.26-16.34-.92-12.45-1.57-24.82-3.65-37.2-5.69-11.34-1.86-22.84-3.31-34.08-5.64-11.08-2.3-15.63-10.94-19.92-20.51a3,3,0,0,0-2.59-1.49,38.32,38.32,0,0,1-7.2-1,34.11,34.11,0,0,0-3.58-1.19c-1-.21-1.06-.16-.21.14.94.64,1.23.09.88-1.62.3-1.06.21-2.21.51-3.29.48-1.75,1.57-3,2.36-4.49,1.06-2,1.62-1.7,3.3-3l-2.92.77c2.76,1,5.62,1.4,8.4,2.43a3.05,3.05,0,0,0,3.69-2.1l.05-.16-5.9-.8,0,.19a3.18,3.18,0,0,0,2.21,2.89l1,.6a3.08,3.08,0,0,0,4.11-1.08c2.47-3.83,5-7.78,8.63-10.64,4.53-3.57,10.06-4.08,15.63-3.94,11.1.27,22.26,1.51,33.28,2.84q16.81,2,33.46,5.24c5.17,1,10.49,1.83,15.56,3.26,3.21.92,6,2.81,5.18,6.63-.62,2.82-2.92,5.16-4.78,7.23-1.44,1.61-1,4.46,1.33,5,3.1.75,4.43,3.28,4.44,6.3C668.78,576,674.78,576,674.77,572.16Z"/><path class="a" d="M148.52,561.67a16,16,0,0,1-5.29,2.55c-3.63,1-7.47,1.14-11.11,2a146.6,146.6,0,0,0,34.54,15.18c8.21-4.89,17.64-8.8,24.42-14.78A127,127,0,0,1,148.52,561.67Z"/><path d="M147.76,560.38c-4.81,3.2-10.54,3.26-16,4.4a1.51,1.51,0,0,0-.36,2.74A153.27,153.27,0,0,0,149,576.59c5.08,2.2,10.93,5.17,16.43,6,3.94.61,9-3.77,12.51-5.65a81.93,81.93,0,0,0,14.23-9.26,1.51,1.51,0,0,0-1.06-2.56,130.56,130.56,0,0,1-42.16-4.91,1.51,1.51,0,0,0-.8,2.9,133.24,133.24,0,0,0,43,5L190,565.57A74.8,74.8,0,0,1,177.15,574c-4.58,2.49-9.16,6.39-14.4,4.68a148.94,148.94,0,0,1-29.88-13.7l-.35,2.74c5.83-1.2,11.67-1.31,16.76-4.7C150.88,561.9,149.38,559.3,147.76,560.38Z"/><path class="b" d="M197.38,558.88c1.55-2.91,6.75-14.55,3.46-14.79-.89-.06-9.14,6.94-10,7.24-13.06,4.72-25.34-9-39.21-8.44l-7.13-4.43c3.53,2.55,8,11.66,8.06,16,.08,2.94-1.65,5.41-4.06,7.2a127,127,0,0,0,42.56,5A27.84,27.84,0,0,0,197.38,558.88Z"/><path d="M198.68,559.64c1.74-3.38,6.93-12.22,4.2-15.91s-9.08,3.79-11.26,5.24c-8.3,5.52-19.51-2-27.46-5.05a39.5,39.5,0,0,0-6.65-2c-1.75-.35-4-.08-5.56-.6-2.28-.77-4.61-2.87-6.67-4.15-1.41-.88-3.15,1.25-1.82,2.36,2.58,2.12,4.29,5.2,5.64,8.21,2.16,4.8,2.94,9.07-1.64,12.88a1.52,1.52,0,0,0,.66,2.51,133.33,133.33,0,0,0,29.87,5c3.77.19,9.92,1.25,13.49-.08,3-1.12,5.66-5.8,7.2-8.44a1.5,1.5,0,0,0-2.59-1.52c-2.55,4.4-4.47,7.08-9.68,7.17q-6.09.11-12.16-.37a129.82,129.82,0,0,1-25.33-4.7l.66,2.51c8.11-6.75,3.1-19.47-4-25.34l-1.82,2.36c1.94,1.21,3.84,2.52,5.83,3.63,2.65,1.48,5.45,1,8.46,1.72,8.48,2,15.87,7.59,24.64,8.56,6.23.69,9.57-1.44,14.19-5,.26-.21,3.24-3,3.87-2.85-.21,0-.68,2.25-1,3.32a48.33,48.33,0,0,1-3.69,9C195.2,559.83,197.79,561.35,198.68,559.64Z"/><path class="b" d="M132.12,566.23a20.35,20.35,0,0,0-3.14,1c-2.07.84-4.25,2.78-3.59,4.92a5.28,5.28,0,0,0,2,2.36l25.2,19.65c3.21-5.42,8.33-9.31,14-12.72A146.6,146.6,0,0,1,132.12,566.23Z"/><path d="M131.72,564.78c-4.83,1.3-10.94,5.16-6,10.24,3.57,3.65,8.38,6.58,12.41,9.73l13.39,10.44a1.54,1.54,0,0,0,2.36-.31c3.38-5.31,8.19-8.94,13.5-12.17a1.51,1.51,0,0,0-.35-2.74,152.44,152.44,0,0,1-34.19-15,1.5,1.5,0,0,0-1.51,2.59,155.59,155.59,0,0,0,34.9,15.34l-.36-2.74c-5.77,3.51-10.92,7.48-14.58,13.25l2.35-.31-15-11.66-7.09-5.53c-.82-.63-2.64-1.57-3.15-2.45-2.51-4.39,1.43-5,4.05-5.75A1.5,1.5,0,0,0,131.72,564.78Z"/><path class="b" d="M144.52,538.45a95.31,95.31,0,0,0,42.54-.56c3.36-.82,6.78-1.84,10.21-1.4s6.91,2.8,7.35,6.22c.38,3-1.64,5.84-4.23,7.36s-5.64,1.95-8.62,2.32c-14.37,1.82-30.29,2.55-41.92-6.08-1.46-1.09-5.37-6-5.33-7.86"/><path d="M144.13,539.9a99,99,0,0,0,31,1.59A129.56,129.56,0,0,0,190,538.71c3.27-.75,7.19-1.54,10.24.33a5.82,5.82,0,0,1,2.09,7.14c-.75,2-4,3.32-5.77,3.83-8.88,2.62-20.34,2.8-29.44,1.44-7.14-1.06-19.77-4.73-21.14-13.39-.3-1.91-3.19-1.1-2.89.79,1.54,9.79,15.13,14.25,23.23,15.49a79.23,79.23,0,0,0,19.22.24c5.25-.47,11.74-.56,16.24-3.65,3.25-2.23,5.42-6.31,3.84-10.21-1.88-4.62-7.21-6.13-11.77-5.74-7.86.66-15.39,3.42-23.36,3.92A97.07,97.07,0,0,1,144.92,537c-1.88-.39-2.69,2.5-.79,2.89Z"/><path d="M150.94,540.59c2.79,4.56,7.58,6.17,12.54,7.39,7,1.7,14.69,3.24,21.89,2.29,4.69-.62,11.23-2.58,13.7-7.08,1.84-3.34.09-7-3.78-7.13-1.93-.07-1.93,2.93,0,3q1.86,3.95-1.78,5.36l-1.4.79a21.85,21.85,0,0,1-5.74,1.89c-4.42.84-9,.39-13.43-.3-6.21-1-15.79-1.82-19.41-7.72-1-1.64-3.6-.14-2.59,1.51Z"/><path d="M142.3,572.14a68.11,68.11,0,0,0-.9,7c-.14,1.92,2.86,1.91,3,0a60.48,60.48,0,0,1,.79-6.17c.34-1.89-2.55-2.7-2.89-.8Z"/><path d="M149.4,570.56,147.62,582c-.29,1.89,2.6,2.71,2.89.8l1.78-11.41c.29-1.89-2.6-2.7-2.89-.8Z"/><path d="M156.59,572.23l-.55,5.21a1.51,1.51,0,0,0,1.5,1.5,1.54,1.54,0,0,0,1.5-1.5l.55-5.21a1.5,1.5,0,0,0-3,0Z"/><path d="M187,556a37.62,37.62,0,0,0-10.48,3.85c-1.7.92-.18,3.52,1.51,2.59a35,35,0,0,1,9.77-3.55c1.89-.38,1.09-3.28-.8-2.89Z"/><path d="M182.61,562.5a102.63,102.63,0,0,1-9.5,5.3c-1.73.86-.21,3.44,1.52,2.59a104.92,104.92,0,0,0,9.5-5.29c1.63-1,.12-3.63-1.52-2.6Z"/><path d="M207.51,541.92c-2.13-8.71-11.45-9.22-18.72-7.55a70.88,70.88,0,0,1-11.59,1.15c-10.6.56-21.42,2.21-31.88,0a3.05,3.05,0,0,0-3.69,3.69c.39,2.43,2.09,4.6,3.58,6.47,2,2.57,3.26,3.29,4,6.73,2.42,11-15.63,9.18-21.75,12.16-2.19,1.07-4.53,2.91-5,5.46-.74,3.63,1.91,5.73,4.44,7.76,7.8,6.24,15.76,12.28,23.63,18.42,1.55,1.2,3.58,1.17,4.71-.61,8-12.55,24.22-16.15,35.51-24.86a35,35,0,0,0,11.11-14.35,30.24,30.24,0,0,1,3.45-6.69,10.82,10.82,0,0,0,2.35-7c-.05-3.85-6.05-3.87-6,0,0,2.83-2.76,4.72-3.71,7.35a51.69,51.69,0,0,1-3.12,7.3c-3.41,6.25-9.39,10.22-15.42,13.65-10.64,6.06-22.52,10.85-29.35,21.6l4.71-.61-22-17.19c-2.12-1.65-5.73-3.76-1.35-5.27a32.57,32.57,0,0,1,5.28-1.1c4-.67,7.93-1.06,11.54-3,5.28-2.84,8.32-7.83,7-13.83a17,17,0,0,0-3.58-7.75c-1.57-1.8-3.78-3.71-4.17-6.19l-3.69,3.69c9.39,1.94,18.21,1,27.74.47,4.41-.23,8.83-.43,13.23-.7,5.16-.32,15.23-5,17,2.39C202.64,547.26,208.43,545.67,207.51,541.92Z"/><path class="a" d="M715.87,459.21a16,16,0,0,0,5.66,1.56c3.75.33,7.56-.21,11.3,0a147,147,0,0,1-31.27,21.13c-8.95-3.35-18.93-5.5-26.68-10.17A127.14,127.14,0,0,0,715.87,459.21Z"/><path d="M715.11,460.5c5.77,2.5,11.58,1.61,17.72,1.75l-1.07-2.56a148.47,148.47,0,0,1-26.39,18.5c-2.52,1.38-3.79,1.87-6.61,1.11-2.46-.67-4.9-1.6-7.34-2.39a81.65,81.65,0,0,1-15.78-6.5l-.76,2.8a133.8,133.8,0,0,0,41.75-12.71c1.73-.85.21-3.44-1.52-2.59a129.3,129.3,0,0,1-40.23,12.3c-1.36.18-2.17,2-.75,2.79a81.28,81.28,0,0,0,15.68,6.54c4.19,1.37,9.9,5,14,2.85a147.84,147.84,0,0,0,30-20.58,1.52,1.52,0,0,0-1.06-2.56c-5.46-.13-11,.9-16.2-1.34C714.87,457.16,713.34,459.74,715.11,460.5Z"/><path class="b" d="M667.3,465.21c-2-2.58-9.24-13.1-6-13.93.86-.22,10.24,5.19,11.12,5.34,13.69,2.3,23.32-13.37,37.06-15.33l6.22-5.64c-3,3.15-5.74,12.9-5.07,17.2.46,2.9,2.6,5,5.29,6.36a127.14,127.14,0,0,1-41,12.5A28,28,0,0,1,667.3,465.21Z"/><path d="M668.6,464.45a55.48,55.48,0,0,1-5-7.62c-.21-.39-1.8-4.24-2.13-4,.33-.28,3.7,1.79,4.11,2,5.7,2.95,9.72,4.53,16.24,2.25,7.72-2.7,13.68-8.73,21-12.2,2.86-1.35,6-1.53,8.49-3.34a63.38,63.38,0,0,0,5.38-4.87l-2.12-2.12c-6.05,7.17-8.88,20.61.52,25.91v-2.59a128.39,128.39,0,0,1-23.05,8.84q-5.19,1.42-10.48,2.41c-2.13.39-5.26,1.19-7.36.35s-4.35-3.59-5.86-5.36c-1.25-1.48-3.36.65-2.12,2.12,1.86,2.18,5.37,6.32,8.45,6.91,3.87.74,10.09-1.54,13.82-2.43a132.61,132.61,0,0,0,28.12-10.25,1.51,1.51,0,0,0,0-2.59c-5-2.84-5.07-6.84-3.94-11.79.75-3.27,1.83-6.81,4-9.41a1.5,1.5,0,0,0-2.12-2.12c-1.79,1.62-3.71,4.15-5.82,5.28-1.39.73-3.69.88-5.31,1.53a41.62,41.62,0,0,0-5.59,2.79c-7.06,4.17-17,14-25.91,10.62-2.48-.93-10.39-7.66-12.67-3.76S663.8,463.11,666,466C667.17,467.47,669.77,466,668.6,464.45Z"/><path class="b" d="M732.83,460.75a20.91,20.91,0,0,1,3.25.4c2.19.46,4.69,2,4.42,4.19a5.29,5.29,0,0,1-1.56,2.69l-21.29,23.84c-4.12-4.75-9.85-7.66-16.09-10A147,147,0,0,0,732.83,460.75Z"/><path d="M732.83,462.25c2.62.22,4.47,0,4.86,2.86.3,2.27-.41,2.53-1.81,4.09l-6.65,7.45-12.64,14.16h2.12c-4.62-5-10.46-8-16.75-10.38l.36,2.74a154.71,154.71,0,0,0,31.57-21.36c1.45-1.27-.68-3.38-2.13-2.12a151.47,151.47,0,0,1-31,20.89c-1.25.64-.74,2.32.36,2.75,5.83,2.24,11.14,5,15.43,9.6a1.51,1.51,0,0,0,2.12,0L730,480.27c3.5-3.93,8.42-8,11.09-12.58,3.41-5.8-3.9-8.07-8.28-8.44C730.9,459.1,730.91,462.1,732.83,462.25Z"/><path class="b" d="M715.65,435.65a95.21,95.21,0,0,1-41.95,7.06c-3.45-.21-7-.59-10.3.45s-6.29,4-6.12,7.44c.16,3,2.67,5.45,5.48,6.48s5.9.91,8.9.74c14.46-.78,30.25-2.91,40.15-13.49,1.25-1.33,4.2-6.9,3.84-8.68"/><path d="M715.25,434.21a97.65,97.65,0,0,1-23.92,6.38c-8.25,1.07-16.37-.22-24.56.44-9,.73-15.95,11.36-5.95,16.82,5.29,2.89,12.7,1.48,18.4.91a77.22,77.22,0,0,0,18.19-3.69c7.76-2.75,20-9.56,19.74-19.42,0-1.92-3-1.93-3,0,.2,8.87-12.1,14.8-18.95,17a74.2,74.2,0,0,1-14.46,2.94c-4.94.56-11,1.61-15.86.52-3.69-.82-7.57-4.23-5.31-8.36,1.85-3.37,6.42-3.82,9.79-3.78,5.34.07,10.6.54,15.95.2A99.09,99.09,0,0,0,716,437.1c1.77-.71,1-3.62-.79-2.89Z"/><path d="M706.86,438c-2.63,6.77-13,9.44-19.17,11.46a36.61,36.61,0,0,1-11.8,2.18,21.65,21.65,0,0,1-5.19-.66,14.88,14.88,0,0,1-3.4-1.23c-2.26-.68-2.72-2.16-1.36-4.44,1.9-.3,1.09-3.19-.8-2.9-3.53.55-4.59,4.51-2.65,7.27,3,4.31,10.21,5.18,15,4.92,6.83-.36,13.46-2.91,19.69-5.55,5.24-2.22,10.39-4.67,12.55-10.26.7-1.8-2.2-2.58-2.89-.79Z"/><path d="M721.07,469.44a66.22,66.22,0,0,1,2,6.32,1.51,1.51,0,0,0,2.9-.8,66.09,66.09,0,0,0-2-6.31c-.67-1.8-3.57-1-2.89.79Z"/><path d="M713.8,469.16l3.79,10.91c.63,1.81,3.53,1,2.9-.8l-3.8-10.9c-.63-1.82-3.52-1-2.89.79Z"/><path d="M706.9,471.71l1.48,5a1.5,1.5,0,0,0,2.89-.8l-1.47-5c-.54-1.85-3.44-1.06-2.9.8Z"/><path d="M676.91,463.53a34.82,34.82,0,0,1,10.22,1.77c1.84.6,2.62-2.29.8-2.89a37.53,37.53,0,0,0-11-1.88c-1.93,0-1.93,3,0,3Z"/><path d="M681.57,469a103.91,103.91,0,0,0,10.29,3.51,1.5,1.5,0,0,0,.8-2.89q-5.24-1.5-10.29-3.51c-1.8-.72-2.58,2.18-.8,2.89Z"/><path d="M660.29,450.6c.43-7.2,11.19-4.55,16-5.12,4.46-.52,8.92-1.14,13.38-1.71,9.22-1.18,18.09-1.72,26.75-5.22l-3.79-2.9c.05,2.41-1.88,4.55-3,6.56a18.31,18.31,0,0,0-2.15,7.78c-.37,6.46,3.55,11,9.6,12.93,3.57,1.13,7.29,1,11,.86,2-.06,5.25-.58,7.15.26,2.79,1.23,1.17,2.27-.46,4.1l-19.29,21.61h4.25c-8.61-9.31-21.33-11.87-32.82-15.91-6.53-2.29-13.16-5.22-17.56-10.79a64.3,64.3,0,0,1-4.31-6.63c-1.5-2.48-4.41-3.64-4.91-6.62-.64-3.8-6.42-2.19-5.79,1.6.54,3.18,2,4.52,4.16,6.72a44.93,44.93,0,0,1,4.37,6.15,34.74,34.74,0,0,0,13.27,11.58C689,482.28,705.41,483,715.53,494a3,3,0,0,0,4.25,0c7.07-7.93,14.47-15.67,21.28-23.84,3.7-4.45,2.69-9.56-3.07-11.58-6.34-2.21-23.33,3.07-24.51-7-.71-6.13,5.31-9.82,5.17-15.88,0-1.75-1.92-3.65-3.8-2.89-10.1,4.08-21,4.48-31.79,5.86a69.13,69.13,0,0,1-10.23,1c-8-.19-17.94.86-18.54,11C654.05,454.46,660.05,454.44,660.29,450.6Z"/><path class="a" d="M267.18,759.18a16,16,0,0,0,5.67,1.56c3.74.33,7.55-.21,11.29,0a146.79,146.79,0,0,1-31.27,21.13c-9-3.35-18.93-5.5-26.67-10.17A127,127,0,0,0,267.18,759.18Z"/><path d="M266.42,760.47c5.77,2.5,11.58,1.61,17.72,1.75l-1.06-2.56a149.2,149.2,0,0,1-26.39,18.5c-2.53,1.38-3.8,1.87-6.61,1.11-2.47-.67-4.91-1.6-7.34-2.39a81.48,81.48,0,0,1-15.79-6.5l-.75,2.8a133.83,133.83,0,0,0,41.74-12.71c1.73-.85.21-3.44-1.52-2.59a129.33,129.33,0,0,1-40.22,12.3c-1.37.18-2.18,2-.76,2.79a81.54,81.54,0,0,0,15.68,6.54c4.19,1.37,9.9,5,14,2.85a148.19,148.19,0,0,0,30-20.57,1.52,1.52,0,0,0-1.06-2.57c-5.46-.13-11,.9-16.2-1.34C266.19,757.13,264.66,759.71,266.42,760.47Z"/><path class="b" d="M218.61,765.18c-2-2.58-9.24-13.1-6.05-13.93.86-.22,10.24,5.19,11.12,5.34,13.69,2.3,23.32-13.37,37.07-15.33l6.21-5.64c-3,3.15-5.74,12.9-5.06,17.2.45,2.9,2.59,5,5.28,6.36a127,127,0,0,1-41,12.5A27.87,27.87,0,0,1,218.61,765.18Z"/><path d="M219.91,764.42a55.48,55.48,0,0,1-5-7.62c-.21-.39-1.8-4.24-2.13-4,.33-.28,3.7,1.79,4.11,2,5.7,2.95,9.73,4.53,16.24,2.25,7.72-2.7,13.68-8.73,21-12.2,2.87-1.35,6-1.53,8.5-3.34a64.82,64.82,0,0,0,5.37-4.87l-2.12-2.12c-6,7.17-8.88,20.61.52,25.91v-2.59a128.58,128.58,0,0,1-23,8.84q-5.2,1.42-10.49,2.41c-2.12.39-5.25,1.19-7.36.35s-4.35-3.59-5.86-5.36c-1.25-1.48-3.36.65-2.12,2.12,1.86,2.18,5.38,6.32,8.45,6.91,3.87.74,10.09-1.54,13.83-2.43a132.18,132.18,0,0,0,28.11-10.25,1.51,1.51,0,0,0,0-2.59c-5-2.84-5.07-6.84-3.94-11.79.75-3.27,1.83-6.81,4-9.41a1.5,1.5,0,0,0-2.12-2.12c-1.79,1.62-3.71,4.15-5.82,5.28-1.38.73-3.68.88-5.31,1.53a40.92,40.92,0,0,0-5.58,2.79c-7.07,4.17-17,14-25.92,10.62-2.48-.93-10.38-7.66-12.67-3.76s4.51,12.06,6.72,14.92C218.48,767.44,221.09,766,219.91,764.42Z"/><path class="b" d="M284.14,760.72a20.91,20.91,0,0,1,3.25.4c2.19.46,4.69,2,4.42,4.19a5.29,5.29,0,0,1-1.56,2.69L269,791.84c-4.13-4.75-9.86-7.66-16.1-10A146.79,146.79,0,0,0,284.14,760.72Z"/><path d="M284.14,762.22c2.62.22,4.47,0,4.86,2.86.31,2.27-.41,2.53-1.81,4.09l-6.65,7.45-12.63,14.16H270c-4.63-5-10.47-8-16.76-10.38l.36,2.74a154.8,154.8,0,0,0,31.57-21.35c1.46-1.28-.67-3.39-2.12-2.13a152,152,0,0,1-31,20.89c-1.26.65-.75,2.32.35,2.75,5.83,2.24,11.15,5,15.44,9.6a1.51,1.51,0,0,0,2.12,0l11.3-12.66c3.5-3.93,8.43-8,11.09-12.58,3.41-5.8-3.9-8.07-8.28-8.44C282.21,759.07,282.22,762.07,284.14,762.22Z"/><path class="b" d="M267,735.62A95.19,95.19,0,0,1,225,742.68c-3.45-.21-7-.59-10.3.45s-6.29,4-6.11,7.44c.15,3,2.66,5.45,5.47,6.48s5.91.91,8.9.74c14.47-.78,30.26-2.91,40.16-13.49,1.24-1.33,4.19-6.9,3.83-8.68"/><path d="M266.56,734.18a97.53,97.53,0,0,1-23.92,6.38c-8.25,1.07-16.37-.22-24.56.44-9,.73-15.94,11.36-5.94,16.82,5.28,2.89,12.7,1.48,18.39.91A77.22,77.22,0,0,0,248.72,755c7.76-2.75,20-9.56,19.74-19.42,0-1.92-3-1.93-3,0,.21,8.87-12.1,14.8-18.95,17a74.25,74.25,0,0,1-14.45,2.94c-4.95.56-11,1.61-15.87.52-3.69-.82-7.57-4.23-5.31-8.36,1.85-3.37,6.43-3.82,9.79-3.78,5.34.07,10.6.54,16,.2a99.21,99.21,0,0,0,30.74-7.08c1.76-.71,1-3.62-.8-2.89Z"/><path d="M258.17,738c-2.62,6.77-13,9.45-19.17,11.46a36.6,36.6,0,0,1-11.79,2.18A21.67,21.67,0,0,1,222,751a14.88,14.88,0,0,1-3.4-1.23c-2.26-.68-2.72-2.16-1.36-4.44,1.9-.3,1.09-3.19-.8-2.9-3.52.55-4.59,4.51-2.64,7.27,3,4.31,10.2,5.18,15,4.92,6.83-.36,13.46-2.91,19.7-5.55,5.23-2.22,10.38-4.67,12.54-10.26.7-1.8-2.2-2.58-2.89-.79Z"/><path d="M272.38,769.41a66.28,66.28,0,0,1,2,6.32c.48,1.86,3.38,1.07,2.89-.8a63.36,63.36,0,0,0-2-6.31c-.67-1.8-3.57-1-2.89.79Z"/><path d="M265.11,769.13l3.8,10.91c.63,1.81,3.52,1,2.89-.8L268,768.34c-.63-1.82-3.53-1-2.9.79Z"/><path d="M258.22,771.68l1.47,5c.54,1.85,3.44,1.06,2.89-.8l-1.47-5c-.54-1.85-3.44-1.06-2.89.8Z"/><path d="M228.22,763.5a34.82,34.82,0,0,1,10.22,1.77c1.84.6,2.63-2.29.8-2.89a37.53,37.53,0,0,0-11-1.88c-1.93,0-1.93,3,0,3Z"/><path d="M232.88,769a103.21,103.21,0,0,0,10.3,3.51,1.5,1.5,0,0,0,.79-2.89q-5.24-1.5-10.29-3.51c-1.79-.72-2.57,2.18-.8,2.89Z"/><path d="M211.6,750.57c.43-7.2,11.19-4.55,16-5.12,4.46-.52,8.92-1.14,13.38-1.71,9.22-1.18,18.09-1.72,26.76-5.22l-3.8-2.9c.05,2.41-1.87,4.55-2.95,6.56a18.17,18.17,0,0,0-2.16,7.78c-.37,6.46,3.55,11,9.6,12.93,3.57,1.13,7.29,1,11,.86,2.05-.06,5.25-.58,7.16.26,2.78,1.23,1.17,2.27-.47,4.1l-19.28,21.61h4.24c-8.61-9.31-21.32-11.87-32.82-15.91-6.53-2.29-13.15-5.22-17.56-10.79a64.21,64.21,0,0,1-4.3-6.63c-1.51-2.48-4.42-3.64-4.92-6.62-.64-3.8-6.42-2.19-5.79,1.6.54,3.18,2,4.52,4.16,6.72a45.87,45.87,0,0,1,4.38,6.15,34.71,34.71,0,0,0,13.26,11.58c12.78,6.43,29.22,7.19,39.35,18.14a3,3,0,0,0,4.24,0c7.08-7.93,14.48-15.67,21.28-23.84,3.7-4.45,2.69-9.56-3.07-11.58-6.34-2.21-23.33,3.07-24.51-7-.71-6.13,5.31-9.82,5.17-15.88,0-1.75-1.92-3.65-3.8-2.89-10.1,4.08-21,4.48-31.79,5.86a69.13,69.13,0,0,1-10.23,1c-8-.19-17.93.86-18.54,11C205.36,754.43,211.37,754.41,211.6,750.57Z"/></svg>