<svg xmlns="http://www.w3.org/2000/svg" viewBox="0 0 750 1150"><defs><style>.a{fill:#fff;}.b,.g,.l{fill:#f15a24;}.c{font-size:43.11px;font-family:"PingFang TC", "HeiTi TC", "Microsoft JhengHei", sans-serif;font-weight:700;}.d{font-size:26px;}.d,.f,.g,.h,.l{font-family:"PingFang TC", "HeiTi TC", "Microsoft JhengHei", sans-serif;}.e{fill:#9bd9da;}.f{font-size:19.26px;}.g{font-size:48px;}.h{font-size:25.79px;}.i{fill:#f88334;}.j{fill:#c5d83e;}.k{fill:#ffbc18;}.l{font-size:58.03px;}.m{fill:#00b997;}</style></defs><title>warmup</title><path class="a" d="M309.88,79.43c69.39-14.57,176.91-18.81,226.36,32S609.14,233.54,617,304c5.67,50.64,3.24,105-24.5,147.78-24.26,37.38-65,61.12-106.91,76.28-69.88,25.29-148.82,29.78-218.23,3.22S140,444.76,124.69,372C108,293,142.67,209.72,197.6,150.44,197.6,150.44,239.76,94.15,309.88,79.43Z"/><path d="M310.67,82.33c44.4-9.26,91.32-13,136.38-6.58,21.69,3.11,43.49,8.76,62.75,19.47,21.06,11.72,36.9,30.53,50.31,50.23,30.87,45.37,46.75,99.65,53.35,153.71,6.64,54.28,4.87,114.86-29.84,160.07-33.54,43.68-89.46,66.65-141.66,78.53C383.75,551,321.31,549.5,265.44,527.31c-46.3-18.39-87.19-51.84-113.16-94.46-27.62-45.33-34.94-98.87-23.17-150.42a269.78,269.78,0,0,1,30.39-75.66,304.48,304.48,0,0,1,23.38-34.45q6-7.68,12.49-15c1.61-1.81,3.28-3.57,4.83-5.41.47-.56-.48.58.08-.11a210.36,210.36,0,0,1,75.12-58,174.52,174.52,0,0,1,35.27-11.53c3.78-.82,2.18-6.6-1.59-5.79-41,8.82-78.39,32.46-106.47,63.36-28.66,31.54-53.32,66.24-68.69,106.29-19.51,50.82-22.86,107.88-2.26,158.92,19,47.12,55.22,86.27,98.9,111.8,50.95,29.77,111.55,39.5,169.82,33.68a356.76,356.76,0,0,0,89.73-21c25.36-9.5,49.8-21.94,70.95-39a156.81,156.81,0,0,0,47.87-64.32c10.6-26.78,13.93-56,13.56-84.67-.74-55.93-12.66-113.83-37.11-164.29-12.11-25-27.84-48.64-47.43-68.43-15.11-15.26-34.75-25.12-55.1-31.4-45.45-14-95.42-12.81-142.07-6.41q-15.94,2.19-31.7,5.47C305.3,77.33,306.9,83.11,310.67,82.33Z"/><path class="b" d="M409.43,22.79c-29.78,11.1-56.9,30-78.92,52.93-1.7,1.78-3.51,4.09-2.8,6.45.54,1.81,2.37,2.87,4.05,3.73a439,439,0,0,0,86.5,33.38c4.57,1.22,10.18,2.11,13.42-1.35,2.8-3,2.28-7.71,1.52-11.75a469.81,469.81,0,0,0-23.77-83.39"/><path d="M408.63,19.9a211.76,211.76,0,0,0-55.28,31.22A222.29,222.29,0,0,0,329.56,72.4c-2.69,2.79-6,6.31-4.75,10.57s6.79,6.23,10.41,8a443.49,443.49,0,0,0,65.3,26.25c5.6,1.75,11.24,3.49,16.94,4.92,4.14,1,8.72,1.93,12.82.24,8.55-3.53,6.5-13.58,5.1-20.73A473.76,473.76,0,0,0,412.32,22c-1.38-3.56-7.18-2-5.79,1.6a475.17,475.17,0,0,1,18.18,57.56c2.3,9.35,5.6,19.57,6.05,29.21.6,12.51-17.73,4.41-24.21,2.47A434.39,434.39,0,0,1,350,91.44q-6.33-2.91-12.56-6c-2.13-1.07-5.24-1.87-5.83-4.3-.67-2.78,2.63-4.92,4.56-6.85A230.09,230.09,0,0,1,356.26,56.4a204.58,204.58,0,0,1,54-30.72c3.58-1.35,2-7.15-1.59-5.78Z"/><path class="a" d="M402.75,37.7c-20.07,7.48-38.34,20.23-53.18,35.67-1.15,1.2-2.37,2.75-1.89,4.35.37,1.22,1.6,1.93,2.73,2.51a295.47,295.47,0,0,0,58.29,22.49c3.08.83,6.86,1.42,9-.91,1.89-2,1.54-5.2,1-7.91a316.75,316.75,0,0,0-16-56.2"/><path d="M402.35,36.25A143.73,143.73,0,0,0,364.21,58c-5.66,4.48-12.14,9.46-16.55,15.23-3.31,4.33-.39,7,3.64,9.09a286.91,286.91,0,0,0,45.51,18.47c5.35,1.67,13.37,5.59,19.12,3.77,5-1.58,5-6.8,4.28-11.1-3.19-19.16-9.06-38.1-16-56.2-.68-1.78-3.59-1-2.89.8a322.53,322.53,0,0,1,14.54,48.79c.71,3.33,2.84,8.79,1.67,12.18-1.94,5.59-12,1.23-15.5.2q-11.47-3.39-22.65-7.7Q367.51,87,356.11,81.41c-1.17-.57-4.11-1.39-4.94-2.48-2.85-3.72.92-6,3-8.11q3.65-3.55,7.52-6.88a140.78,140.78,0,0,1,41.41-24.79c1.79-.68,1-3.58-.79-2.9Z"/><text class="c" transform="matrix(1, 0.06, -0.06, 1, 376.29, 84.37)">1</text><text class="d" transform="translate(218.17 404.26)">至少177-237ml的水分補充，<tspan x="-6.5" y="34">台灣氣候悶熱，不能等途中渴</tspan><tspan x="110.5" y="68">了再喝。</tspan></text><path class="e" d="M373.9,219.51a129.49,129.49,0,0,1,17,5.05c-.57,47.95-.29,85.25-.86,133.2a520.53,520.53,0,0,1-96.69-.57c-2.61-.26-5.41-.62-7.38-2.42-2.2-2-2.76-5.29-3.2-8.29-6.44-44.36-10.92-67.22-20.67-111,4.35-1.68,6.53-3,11-4.18C306.72,222.74,340.06,211.71,373.9,219.51Z"/><path d="M373.5,221a141.88,141.88,0,0,1,17,5l-1.1-1.45c-.52,44.4-.34,88.8-.86,133.2l1.5-1.5A527.31,527.31,0,0,1,328.86,358q-15.81-.48-31.57-1.92a46.94,46.94,0,0,1-6.69-.77c-4-1-5.43-4.05-6.13-7.7-.93-4.75-1.42-9.62-2.15-14.4-5-32.95-11.51-65.54-18.76-98.07L262.51,237c16.58-6.66,34.52-10.8,52-14.47,19.5-4.1,39.37-5.87,59-1.55,1.88.42,2.68-2.48.8-2.89-18.87-4.16-38-2.9-56.86.79s-38,8.12-55.73,15.23a1.53,1.53,0,0,0-1,1.84c6,27,11.71,54.11,16.15,81.44,1.2,7.33,2.32,14.66,3.42,22,.77,5.2.54,13,5,16.7,5,4.2,14.89,3.28,20.93,3.73q12.81,1,25.66,1.28a528.86,528.86,0,0,0,58.23-1.82,1.54,1.54,0,0,0,1.5-1.5c.52-44.4.34-88.8.86-133.2a1.54,1.54,0,0,0-1.1-1.44,141.88,141.88,0,0,0-17-5.05C372.42,217.63,371.62,220.52,373.5,221Z"/><path class="a" d="M392.26,173.56c-.16,13.46-1.19,37.55-1.35,51a129.49,129.49,0,0,0-17-5.05c-33.84-7.8-67.18,3.23-100.76,11.84-4.5,1.16-6.68,2.5-11,4.18-3.94-17.66-11.78-56.51-16.25-74C326.33,144.78,392.26,173.56,392.26,173.56Z"/><path d="M390.76,173.56c-.23,17-1.12,34-1.35,51l1.9-1.44c-20.92-7.79-42.57-9.21-64.56-5.89a330.59,330.59,0,0,0-33.51,7.29c-10.72,2.79-21.25,5.44-31.53,9.57l1.85,1c-5.48-24.65-10.05-49.54-16.26-74l-1,1.84a264.49,264.49,0,0,1,103.19-.11c14,2.72,29.33,6.5,42.05,12,1.76.76,3.29-1.82,1.52-2.59a182.68,182.68,0,0,0-27.59-8.93,275.72,275.72,0,0,0-68.92-8.56,260.6,260.6,0,0,0-51,5.27,1.51,1.51,0,0,0-1.05,1.84c6.2,24.5,10.78,49.38,16.26,74a1.5,1.5,0,0,0,1.84,1c9.4-3.78,18.93-6.26,28.73-8.83,10.77-2.83,21.59-5.56,32.58-7.43,22.67-3.86,45-2.77,66.69,5.29a1.51,1.51,0,0,0,1.9-1.45c.23-17,1.12-34,1.35-51C393.79,171.63,390.79,171.63,390.76,173.56Z"/><path d="M387.5,333.63c-17.31,2.94-35.28,3.16-52.79,2.83-17.07-.32-35.76-.64-52-6.64-1.81-.68-2.6,2.22-.8,2.89,16.42,6.08,35.47,6.42,52.76,6.75,17.79.34,36,.05,53.59-2.94,1.9-.32,1.09-3.21-.8-2.89Z"/><path d="M276.91,186.61a500.3,500.3,0,0,0,27.5,97.83c.7,1.78,3.6,1,2.89-.8a500.4,500.4,0,0,1-27.5-97.82c-.33-1.9-3.22-1.1-2.89.79Z"/><path d="M390.16,175.29c-20.51,12.19-47,6.1-69,2.08-24.68-4.51-49.31-9.36-73.95-14.06-1.89-.36-2.7,2.53-.8,2.89,26.55,5.06,53.06,10.46,79.69,15.09,21.34,3.71,45.89,8.31,65.6-3.41a1.5,1.5,0,0,0-1.51-2.59Z"/><path d="M389.26,173.56c-.22,15-1.24,30-1.4,45q-.25,23.21-.31,46.4c-.12,30.95-.14,61.89-.5,92.84l3-3a526.43,526.43,0,0,1-64.16,1.63c-10.83-.39-21.77-.89-32.53-2.2-3.83-.46-5.92-1.69-7.15-5.47a42.92,42.92,0,0,1-1.09-6.87Q284,334.42,282.85,327c-5.91-37.35-13.93-74.22-21.89-111.17-4-18.39-7.59-36.88-12.21-55.13l-2.09,3.69a262.53,262.53,0,0,1,102.39-.12,257.38,257.38,0,0,1,30.33,7.78c2.94,1,5.87,2,8.77,3.08q1.19.45,2.37.93c1,.4-.21-.1.23.09,3.5,1.53,6.56-3.64,3-5.18-29.95-13-64.91-17.8-97.26-17.69a262.32,262.32,0,0,0-51.45,5.32,3,3,0,0,0-2.09,3.69c4.31,17.07,7.76,34.35,11.43,51.56,4.12,19.28,8.51,38.49,12.41,57.82q6,29.71,10.68,59.66c.83,5.31,1.55,10.64,2.4,15.95.61,3.77,1.46,7.57,4.58,10.08s7.1,2.66,10.86,3c5.9.58,11.81,1,17.73,1.39a526.23,526.23,0,0,0,77-1,3.07,3.07,0,0,0,3-3c.36-30.95.38-61.89.5-92.84q.07-22.71.3-45.41c.16-15.33,1.18-30.62,1.41-45.95C395.32,169.7,389.32,169.7,389.26,173.56Z"/><path d="M256.28,160.8a689.32,689.32,0,0,0,72.11,16.41c18.8,3.21,44.17,10.26,59.56-5.06a1.5,1.5,0,0,0-2.12-2.12c-7.84,7.8-18.86,9.05-29.41,8.22-11.65-.92-23.32-3.18-34.8-5.27q-32.62-6-64.54-15.07a1.5,1.5,0,0,0-.8,2.89Z"/><path d="M361.9,311a177.29,177.29,0,0,1,28.41.42c1.92.19,1.91-2.82,0-3A177.29,177.29,0,0,0,361.9,308c-1.91.13-1.93,3.13,0,3Z"/><path d="M361.9,287.29a177.29,177.29,0,0,1,28.41.42c1.92.18,1.91-2.82,0-3a177.29,177.29,0,0,0-28.41-.42c-1.91.12-1.93,3.13,0,3Z"/><path d="M361.9,260.94a177.29,177.29,0,0,1,28.41.42c1.92.18,1.91-2.82,0-3a177.29,177.29,0,0,0-28.41-.42c-1.91.12-1.93,3.12,0,3Z"/><path d="M361.9,235.07a177.29,177.29,0,0,1,28.41.42c1.92.18,1.91-2.82,0-3a177.29,177.29,0,0,0-28.41-.42c-1.91.13-1.93,3.13,0,3Z"/><path d="M361.9,209.63a177.29,177.29,0,0,1,28.41.42c1.92.18,1.91-2.82,0-3a177.29,177.29,0,0,0-28.41-.42c-1.91.12-1.93,3.12,0,3Z"/><text class="f" transform="translate(325.68 266.77)">150</text><text class="f" transform="translate(334.42 316.42)">50</text><text class="f" transform="translate(325.68 215.77)">250</text><path d="M433.87,248.4c-14.63.15-29.27.08-43.91.24a1.5,1.5,0,0,0,0,3l2,.05c1.93,0,1.93-3,0-3l-2-.05v3c14.64-.16,29.28-.09,43.91-.24,1.93,0,1.94-3,0-3Z"/><path d="M433.87,215.21c-14.63.16-29.27.09-43.91.25a1.5,1.5,0,0,0,0,3l2,0c1.93,0,1.93-3,0-3l-2,0v3c14.64-.16,29.28-.09,43.91-.25a1.5,1.5,0,0,0,0-3Z"/><text class="g" transform="translate(446.59 216.1)">237</text><text class="g" transform="translate(447.47 275.6)">177</text><text class="h" transform="translate(531.72 275.6)">ml</text><text class="h" transform="translate(531.72 221.59)">ml</text><path class="a" d="M309.88,657.42c69.39-14.57,176.91-18.81,226.36,32S609.14,811.53,617,882c5.67,50.64,3.24,105-24.5,147.78-24.26,37.38-65,61.12-106.91,76.28-69.88,25.29-148.82,29.78-218.23,3.22S140,1022.75,124.69,950C108,871,142.67,787.71,197.6,728.43,197.6,728.43,239.76,672.14,309.88,657.42Z"/><path d="M310.67,660.32c44.4-9.26,91.32-13,136.38-6.58,21.69,3.11,43.49,8.76,62.75,19.48,21.06,11.71,36.9,30.52,50.31,50.22,30.87,45.37,46.75,99.65,53.35,153.71,6.64,54.28,4.87,114.86-29.84,160.07-33.54,43.68-89.46,66.66-141.66,78.53-58.21,13.25-120.65,11.74-176.52-10.45-46.3-18.39-87.19-51.84-113.16-94.46-27.62-45.32-34.94-98.87-23.17-150.42a269.78,269.78,0,0,1,30.39-75.66,304.48,304.48,0,0,1,23.38-34.45q6-7.68,12.49-15c1.61-1.81,3.28-3.57,4.83-5.41.47-.56-.48.58.08-.11a210.36,210.36,0,0,1,75.12-58,174.52,174.52,0,0,1,35.27-11.53c3.78-.82,2.18-6.6-1.59-5.79-41,8.82-78.39,32.46-106.47,63.36-28.66,31.55-53.32,66.24-68.69,106.29C114.41,875,111.06,932.06,131.66,983.1c19,47.12,55.22,86.27,98.9,111.8,50.95,29.77,111.55,39.5,169.82,33.69a357.21,357.21,0,0,0,89.73-21c25.36-9.5,49.8-21.94,70.95-39a156.81,156.81,0,0,0,47.87-64.32c10.6-26.78,13.93-56,13.56-84.67-.74-55.93-12.66-113.83-37.11-164.29-12.11-25-27.84-48.64-47.43-68.43-15.11-15.26-34.75-25.12-55.1-31.4-45.45-14-95.42-12.81-142.07-6.41q-15.94,2.19-31.7,5.47C305.3,655.32,306.9,661.1,310.67,660.32Z"/><path class="b" d="M409.43,600.78c-29.78,11.11-56.9,30-78.92,52.93-1.7,1.78-3.51,4.09-2.8,6.45.54,1.81,2.37,2.87,4.05,3.73a439,439,0,0,0,86.5,33.38c4.57,1.23,10.18,2.11,13.42-1.35,2.8-3,2.28-7.71,1.52-11.75a470.05,470.05,0,0,0-23.77-83.39"/><path d="M408.63,597.89a212.05,212.05,0,0,0-55.28,31.22,222.29,222.29,0,0,0-23.79,21.28c-2.69,2.79-6,6.31-4.75,10.57s6.79,6.23,10.41,8a443.49,443.49,0,0,0,65.3,26.25c5.6,1.75,11.24,3.49,16.94,4.92,4.14,1,8.72,1.93,12.82.24,8.55-3.53,6.5-13.57,5.1-20.73A473.76,473.76,0,0,0,412.32,600c-1.38-3.56-7.18-2-5.79,1.6a474.76,474.76,0,0,1,18.18,57.57c2.3,9.34,5.6,19.56,6.05,29.2.6,12.51-17.73,4.41-24.21,2.47A434.39,434.39,0,0,1,350,669.43q-6.33-2.91-12.56-6c-2.13-1.07-5.24-1.87-5.83-4.3-.67-2.78,2.63-4.92,4.56-6.85a230.09,230.09,0,0,1,20.11-17.86,204.58,204.58,0,0,1,54-30.72c3.58-1.35,2-7.15-1.59-5.78Z"/><path class="a" d="M402.75,615.69c-20.07,7.48-38.34,20.23-53.18,35.67-1.15,1.2-2.37,2.76-1.89,4.35.37,1.22,1.6,1.93,2.73,2.51a295.47,295.47,0,0,0,58.29,22.49c3.08.83,6.86,1.42,9-.91,1.89-2,1.54-5.19,1-7.91a316.75,316.75,0,0,0-16-56.2"/><path d="M402.35,614.24A144,144,0,0,0,364.21,636c-5.66,4.48-12.14,9.46-16.55,15.23-3.31,4.33-.39,7,3.64,9.09a286.91,286.91,0,0,0,45.51,18.47c5.35,1.67,13.37,5.59,19.12,3.77,5-1.58,5-6.8,4.28-11.1-3.19-19.16-9.06-38.1-16-56.2-.68-1.78-3.59-1-2.89.8a322.53,322.53,0,0,1,14.54,48.79c.71,3.33,2.84,8.79,1.67,12.18-1.94,5.59-12,1.23-15.5.2q-11.47-3.39-22.65-7.7Q367.51,665,356.11,659.4c-1.17-.57-4.11-1.39-4.94-2.48-2.85-3.72.92-6,3-8.11q3.65-3.55,7.52-6.87a140.59,140.59,0,0,1,41.41-24.8c1.79-.68,1-3.58-.79-2.9Z"/><text class="c" transform="matrix(0.97, 0.25, -0.25, 0.97, 373.97, 659.92)">2</text><text class="d" transform="translate(211.06 995.25)">早餐要吃自己平常常吃的早餐，<tspan x="58.5" y="34">並在跑前2小時吃完。</tspan></text><path class="i" d="M374,905.33l-90.88,8.58a10.57,10.57,0,0,0-3.27.66c-2.64,1.17-3,4-2.53,6.4,1.79,9.9,11.32,18.4,23.14,22.12s25.48,3,37.2-.94a72.91,72.91,0,0,0,29.24-18.75c5.53-5.74,10.2-12.84,8.28-19.87"/><path d="M374,903.83l-59.27,5.6c-10.21,1-20.43,1.83-30.62,2.89-5.5.57-9.16,2.78-8.27,8.85,1.87,12.71,15.27,21.11,26.66,24.06,15.53,4,32.5,1.12,46.52-6.36,12-6.38,30.85-20.08,27.61-35.74-.39-1.89-3.29-1.09-2.9.8,2,9.66-6.75,17.94-13.46,23.65a69.9,69.9,0,0,1-21.43,12.57c-16.13,5.84-36.66,6-50.64-5.15a27.8,27.8,0,0,1-7.51-8.81A19.08,19.08,0,0,1,279,921.8c-1.25-5.23,4.17-6.4,8-6.76l28.65-2.71,58.28-5.5c1.91-.18,1.92-3.18,0-3Z"/><path class="j" d="M276.87,905.14c-5.26-2.83-12.67.9-13.86,6.74s3.73,12,9.67,12.54,11.7-4.39,12.54-10.29c3.88,9.4,16.61,11.39,26.48,9s19.18-7.8,29.34-7.85c4,0,8.16.8,12-.31s7.36-5.21,5.89-9c11,5.59,26.35-.7,30.28-12.44,4.14.57,6.23-5.74,3.74-9.09s-7.06-4.22-11.19-4.84c-9.48-1.42-19.3-2.82-28.51-.19-7.74,2.2-14.47,7.09-22.13,9.57-8.92,2.87-18.53,2.3-27.86,3.2S284,896,278.57,903.62"/><path d="M277.62,903.84c-9.58-4.26-20,5.7-14.86,15.35,6,11.35,21.52,6.8,23.91-4.66l-2.74.36c6.69,14.35,25.18,11.06,37.1,6.83,4.51-1.61,9-3.4,13.75-4.3,5.32-1,10.47,0,15.77-.53,5.82-.63,11.45-4.94,9.87-11.32l-2.21,1.69a24.22,24.22,0,0,0,32.49-13.34l-1.45,1.1c3.61,0,5.9-2.73,6.24-6.22.4-3.95-2-6.89-5.46-8.57-5.09-2.5-11.62-2.76-17.19-3.34-7.22-.75-14.64-.76-21.59,1.57s-12.87,6.43-19.67,8.78c-7.42,2.55-15.27,2.6-23,3-11.64.68-23.79,2.79-31.3,12.58-1.17,1.53,1.43,3,2.59,1.51,12.71-16.58,38.08-8.16,55.29-15.31,10.36-4.31,18.84-9.76,30.5-9.64a105.07,105.07,0,0,1,17.14,1.83,20.29,20.29,0,0,1,6.35,1.86c1.86,1,3.25,2.55,3.3,4.76,0,1.87-.55,4.16-3.19,4.14a1.55,1.55,0,0,0-1.44,1.1c-4.08,10.93-17.5,16.45-28.08,11.55a1.52,1.52,0,0,0-2.21,1.69c2.56,10.28-15,7-20.23,7.64-6.49.78-12.54,3.27-18.67,5.39-10.35,3.6-26.35,6.33-32.1-6a1.51,1.51,0,0,0-2.74.36c-1.63,7.82-11.12,12.69-17.12,5.89-5.85-6.63,1.32-16.8,9.45-13.19,1.75.78,3.28-1.8,1.51-2.59Z"/><path class="k" d="M272.69,895.58c-2.35,2.21-1.07,6.48,1.63,8.23s6.14,1.74,9.36,1.66c22.59-.57,45.75-1.25,66.71-9.69,5.32-2.14,10.52-4.82,14.69-8.76s7.24-9.28,7.54-15c.09-1.64-.29-3.64-1.82-4.23a4.51,4.51,0,0,0-2.31,0,639,639,0,0,0-103.32,25.84"/><path d="M271.63,894.52c-2.71,3.48-1.71,8.09,1.93,10.59,2.66,1.83,6.21,1.9,9.31,1.87,4.86,0,9.73-.23,14.59-.43,18.05-.75,36.43-2.53,53.33-9.32,7-2.8,13.88-6.55,18.48-12.66,2.87-3.81,6.57-10.93,4.34-15.82-.9-2-2.44-2.61-4.53-2.56-4.31.09-8.95,1.45-13.18,2.23q-14.06,2.57-28,5.76a649.1,649.1,0,0,0-63.16,18c-1.81.62-1,3.52.8,2.9q26.15-8.88,53-15.54,12.94-3.19,26-5.85,6.54-1.32,13.09-2.51c4.13-.75,14.78-4.08,13.12,3.56-3.86,17.74-28.45,23.3-43.55,26a210.08,210.08,0,0,1-27,2.73c-4.29.21-8.59.34-12.88.46-2.29.06-4.64.25-6.93.09-3.21-.23-10.15-2.86-6.67-7.33,1.17-1.5-.93-3.64-2.12-2.12Z"/><path class="j" d="M273.28,873.93a44.23,44.23,0,0,0-17.46,15c-1,1.45-1.91,3.3-1.17,4.89,1.11,2.34,4.54,1.94,7,1a89.09,89.09,0,0,0,23.86-13.14c-.11,6.37,6.84,11,13.21,10.87s12.12-3.67,17.51-7.07a19.77,19.77,0,0,0,5.67-4.67c1.45-2,2.07-4.79.87-6.94a3.37,3.37,0,0,0,.55,4.23,8.85,8.85,0,0,0,4.1,2.05,61.44,61.44,0,0,0,29.67.93c3.73-.81,8.1-2.84,8.25-6.65.11-2.63-2.08-4.92-4.56-5.81s-5.21-.69-7.84-.48a40.91,40.91,0,0,0,28-.77,14,14,0,0,0,5.52-3.51,6.12,6.12,0,0,0,1.34-6.14c-1.46-3.56-6.3-3.91-10.14-3.63a398.44,398.44,0,0,0-101.27,20.93"/><path d="M272.53,872.64a46.84,46.84,0,0,0-15.94,12.72c-2.08,2.63-5.63,7.16-2.39,10.36s9.26.12,12.58-1.3A92.39,92.39,0,0,0,286.24,883L284,881.73c.53,9.69,10.91,13.76,19.36,11.71,5.78-1.4,11.53-4.83,16.25-8.37,3.77-2.84,6.39-6.77,4.6-11.55-.4-1.07-2.15-1.64-2.74-.35-6.09,13.19,29.3,10.79,35.09,9.59,4.63-1,11.19-3.65,10.14-9.56-1.13-6.43-8.64-6.88-13.77-6.51a1.51,1.51,0,0,0-.4,2.95,43.68,43.68,0,0,0,19,1.75c5.27-.72,12.62-2.29,16.15-6.72,2.39-3,2.65-7.35-.45-10-4.2-3.54-11.38-2-16.23-1.53a403.82,403.82,0,0,0-95.08,20.44c-1.82.63-1,3.53.79,2.89a403.77,403.77,0,0,1,70.36-17.42q9.6-1.47,19.24-2.46c5-.51,10.85-1.8,15.86-.83,2.75.53,5.63,1.64,3.69,6.27-.59,1.41-2.9,2.68-4.23,3.4a31.53,31.53,0,0,1-9.24,2.77,40.53,40.53,0,0,1-19.09-1.5l-.4,3a25.26,25.26,0,0,1,4.76-.13c4.5.55,8,5.49,3.56,8.42-3.38,2.24-8.7,2.56-12.51,2.85-3,.23-27.38-.29-24.68-6.15l-2.75-.36c2.81,7.48-11.55,14-17.1,15.76-6.67,2.13-16.73.28-17.21-8.35-.05-1-1.28-2-2.25-1.3a94.41,94.41,0,0,1-11.43,7.49c-3.76,2.07-8.86,5.46-13.17,5.85-8.32.75.59-8.8,2.76-10.87A44.9,44.9,0,0,1,274,875.23c1.73-.86.21-3.45-1.51-2.59Z"/><path class="i" d="M274.33,870.34l90.88-10.93a8.64,8.64,0,0,0,3.27-.84c2.64-1.49,3-5.16,2.54-8.16-1.8-12.6-11.33-23.44-23.15-28.19s-25.48-3.78-37.2,1.21-21.56,13.73-29.24,23.89c-5.53,7.31-10.2,16.36-8.28,25.32"/><path d="M274.33,871.84l62.24-7.49c9.85-1.18,20.17-1.61,29.89-3.63,6.05-1.25,6.78-6.81,5.76-12.16-2.69-14.12-14.49-25.31-28-29.17-16.09-4.59-33.37.19-46.64,9.82-13.09,9.5-28.79,26.31-25.84,43.83.32,1.9,3.22,1.09,2.9-.8-1.86-11,5-20.94,11.91-28.81a72.48,72.48,0,0,1,19.22-15.91c16.86-9.38,39.49-10,53.92,4.21a35.85,35.85,0,0,1,7.05,9.73c1.68,3.46,4.82,11,2.22,14.61-1.91,2.67-6.73,2.2-9.63,2.55l-7.91,1-14.81,1.78-62.24,7.49c-1.89.22-1.92,3.23,0,3Z"/><path d="M315.72,831.21l-2.83,1.7a1.5,1.5,0,0,0,1.52,2.59l2.82-1.69a1.5,1.5,0,0,0-1.51-2.6Z"/><path d="M297.09,841.93l-1.7,2.26a1.5,1.5,0,0,0,2.59,1.52l1.7-2.27a1.51,1.51,0,0,0-.54-2.05,1.54,1.54,0,0,0-2.05.54Z"/><path d="M311.07,841.16l-1.69,5.65c-.56,1.85,2.34,2.65,2.89.8L314,842c.55-1.86-2.34-2.65-2.9-.8Z"/><path d="M325.15,837.6v6.22a1.5,1.5,0,0,0,3,0V837.6a1.5,1.5,0,0,0-3,0Z"/><path d="M329.35,830.66a4,4,0,0,1,4.21,1.17c1.31,1.43,3.43-.7,2.12-2.12a7,7,0,0,0-7.13-2c-1.85.55-1.06,3.45.8,2.9Z"/><path d="M345.69,836.63l5.08,2.26a1.56,1.56,0,0,0,2.06-.53,1.52,1.52,0,0,0-.54-2.06L347.2,834a1.55,1.55,0,0,0-2.05.54,1.51,1.51,0,0,0,.54,2Z"/><path d="M338.6,840.36l4,3.95a1.5,1.5,0,0,0,2.12-2.12l-4-4a1.5,1.5,0,0,0-2.12,2.13Z"/><path class="a" d="M253.51,947.29l1.46,8.53q76.14-5.87,152.53-9.31l.35-12.46a1220.8,1220.8,0,0,0-155.28,12l3,.66"/><path d="M252.06,947.69l1.46,8.53a1.5,1.5,0,0,0,1.45,1.1q76.18-5.87,152.53-9.31a1.52,1.52,0,0,0,1.5-1.5l.35-12.46a1.51,1.51,0,0,0-1.5-1.5,1238.43,1238.43,0,0,0-155.68,12.06c-1.48.21-1.37,2.59,0,2.89l3,.67c1.88.41,2.69-2.48.8-2.9l-3-.66v2.89a1231.29,1231.29,0,0,1,154.88-12l-1.5-1.5L406,946.51l1.5-1.5q-76.33,3.45-152.53,9.31l1.44,1.1L255,946.89c-.32-1.9-3.21-1.09-2.89.8Z"/><path d="M352.32,938.74C363.52,932,378,921,378.61,906.68l-2.2,2.9c7.37-2.84,12.92-7.79,15.74-15.26l-2.9,2.2c6.58,0,9.68-7.84,6.59-13.16-4.39-7.56-17.11-7.39-24.63-8.13l2.89,3.8A18.88,18.88,0,0,0,375.28,869l-2.1,3.69c7.12-1.3,20.13-5.18,17.61-15-2.16-8.43-13.55-6.48-19.83-5.92l3,3c1.45-11.55-6.81-23.41-15.63-30-11.23-8.37-25.92-10.22-39.36-7.12-13.23,3-24.92,11-34,20.88-4.68,5.07-9.09,10.7-12,17s-3.33,11.8-2.64,18.48l1.49-2.59a48.69,48.69,0,0,0-13.16,9.47c-2.92,3-7.55,7.62-7.17,12.18.81,9.91,13.95,3.52,18.85,2L268,889.49c.86-.39-.42.18-.66.19a14.36,14.36,0,0,0-2.94,1c-2.7.92-3,5,0,5.78l7.51,2-1.32-5c-4.55,5.83-.64,12.29,5.68,14.41l-1.33-5-.18.16,3.64-.47c-7.52-3.35-17,.79-18.37,9.33-1.69,10.56,9.43,17.83,18.76,14.49l-3.69-2.09c3.12,8.79,10,15,18.15,19.13l1.52-5.59q-21.54,2.31-43,5.34c-3,.42-2.75,5.19,0,5.79l3,.66v-5.78l-2.08.56a3.09,3.09,0,0,0-2.1,3.7q.73,4.26,1.46,8.52a3,3,0,0,0,2.9,2.21q76.18-5.87,152.53-9.31a3.06,3.06,0,0,0,3-3l.35-12.46a3,3,0,0,0-3-3q-28.55.41-57.05,2.1c-3.83.23-3.86,6.23,0,6q28.5-1.7,57.05-2.1l-3-3-.35,12.46,3-3Q331.17,947,255,952.82l2.89,2.2c-.49-2.84-1-5.69-1.46-8.53l-2.09,3.69,2.08-.57c2.76-.75,2.95-5.13,0-5.78l-3-.67V949Q274,946,294.75,943.82c2.67-.28,4.44-4.11,1.51-5.59-6.72-3.38-12.8-8.24-15.39-15.55a3,3,0,0,0-3.69-2.09c-5.07,1.81-11.91-1-11.34-7.36.39-4.36,5.58-7.25,9.51-5.5a3.16,3.16,0,0,0,3.64-.47l.17-.16c1.79-1.59.69-4.34-1.32-5-1.22-.41-4.53-2.46-3-4.38,1.33-1.71,1.07-4.39-1.32-5l-7.52-2v5.78a53.06,53.06,0,0,0,5-1.81c3.1-1.42.9-6.49-2.31-5.48-1.55.48-3.08,1.06-4.61,1.6-2,.74-8.39,3.59-5.23-1a41.77,41.77,0,0,1,15.94-13.29,2.91,2.91,0,0,0,1.48-2.59c-.61-5.89-.44-10.79,2.18-16.24a62.4,62.4,0,0,1,10.17-14.39c7.76-8.57,17.4-15.7,28.57-19,11.57-3.46,24.61-2.92,35.06,3.55,8.66,5.36,17.06,16.11,15.7,26.88a3,3,0,0,0,3,3c2.92-.26,9.88-2,12.47,0,3.64,2.76-1.15,5.91-3.78,7a40.76,40.76,0,0,1-8.06,2.21c-1.69.31-2.37,2.21-2.1,3.69.44,2.35-.39,4.69-1.18,6.87-.72,2,1.12,3.63,2.9,3.8a108,108,0,0,1,13.28,1.88c1.77.41,4.27.91,5.47,2.41.89,1.11,2.16,5-.71,5a3.1,3.1,0,0,0-2.89,2.21,19.3,19.3,0,0,1-11.55,11.06,3.15,3.15,0,0,0-2.2,2.89c-.53,11.72-14.27,21.41-23.32,26.88C346,935.55,349,940.74,352.32,938.74Z"/><path class="a" d="M528.17,877.66c-1.57-6.34-5.68-12.16-11.52-15.07a17.86,17.86,0,0,0-17.38.73q.48-12.83.6-25.65a328.35,328.35,0,0,0-85.15,4c.32,10.57,1,20.68,2,30.64,1.86,19.57,4.64,38.54,7.14,59.18.65,5.33,1.69,11.28,6.05,14.41,3,2.18,7,2.45,10.72,2.58a305.9,305.9,0,0,0,51.95-2.64q2.07-16.29,3.54-32.64a9.8,9.8,0,0,0,6.44,2.5,21.7,21.7,0,0,0,15.06-5.37,32.21,32.21,0,0,0,9-13.45A33.06,33.06,0,0,0,528.17,877.66Zm-12.43,13.2a17.09,17.09,0,0,1-7.85,11.27c-3.24,2-7.57,2.88-11,1.45q1.1-13.74,1.79-27.51a12.08,12.08,0,0,1,12.69,2A14.1,14.1,0,0,1,515.74,890.86Z"/><path d="M531.06,876.86c-4-14.38-19.19-24.4-33.3-16.13l4.51,2.59q.47-12.83.6-25.65a3.07,3.07,0,0,0-3-3,338.16,338.16,0,0,0-85.95,4.12,3,3,0,0,0-2.2,2.89c1,30.74,5.06,61.54,9.4,92,.7,4.89,1.93,10,5.62,13.55,4.68,4.48,11.72,4.28,17.73,4.41a311.83,311.83,0,0,0,48.09-2.75,3.15,3.15,0,0,0,3-3q2.06-16.29,3.54-32.64L494,915.34c8.57,7.06,21.31,2.16,28.1-5.14a38.21,38.21,0,0,0,9-33.34c-.8-3.77-6.59-2.18-5.79,1.6a32.31,32.31,0,0,1-4.89,24.24c-3.93,5.92-15,14.32-22.16,8.39a3,3,0,0,0-5.12,2.12q-1.5,16.35-3.54,32.64l3-3a313.44,313.44,0,0,1-42.31,2.82c-6.14,0-16.29,1.44-20.47-4.09-3.46-4.6-3.21-12.31-3.89-17.75-3.44-27.32-7.28-54.59-8.17-82.15l-2.2,2.9a331.54,331.54,0,0,1,84.35-3.91l-3-3q-.12,12.84-.6,25.65a3,3,0,0,0,4.52,2.59c10.74-6.29,21.52,1.93,24.48,12.55C526.31,882.17,532.1,880.59,531.06,876.86Z"/><path d="M512.84,890.06c-1.48,6.66-7.84,13-15.12,10.62l2.21,2.9q1.08-13.74,1.79-27.51l-2.2,2.89c8.33-3.16,14.18,4,13.22,11.9-.47,3.82,5.54,3.79,6,0,1.42-11.7-9.08-22.13-20.81-17.68a3.15,3.15,0,0,0-2.21,2.89q-.71,13.77-1.79,27.51a3,3,0,0,0,2.2,2.89c10.27,3.38,20.31-5,22.5-14.82C519.47,887.89,513.69,886.29,512.84,890.06Z"/><path d="M498.93,865.41c7-5,16.12-3.83,22.06,2.22,6.12,6.23,7.55,15.43,5.72,23.73C525,899,520.94,906.72,514.2,911a19.4,19.4,0,0,1-11.66,3.22c-7-.54-7.4-6.07-6.29-11.56l-2.21.9c9.32,6.8,21.67-2.87,23.2-12.69,1.76-11.36-9.06-20.64-19.78-15.85l2.26,1.3a31.34,31.34,0,0,1,.64-11.45c.45-1.88-2.44-2.68-2.89-.8a33.68,33.68,0,0,0-.75,12.25,1.53,1.53,0,0,0,2.26,1.3c9.21-4.13,17.42,5.27,15,14.22-2,7.31-11.3,14.32-18.42,9.13a1.5,1.5,0,0,0-2.2.9c-.79,3.87-1.57,8.46,1.13,11.8s7.35,3.87,11.31,3.46c10.87-1.12,18.68-10.11,22.28-19.84,3.84-10.37,3.32-22.77-4.44-31.24-6.77-7.38-18-9.14-26.23-3.22-1.55,1.11-.06,3.72,1.52,2.59Z"/><path class="a" d="M414.72,841.68c.32,10.57,1,20.68,2,30.64,1.86,19.57,4.64,38.54,7.14,59.18.65,5.33,1.69,11.28,6.05,14.41,3,2.18,7,2.45,10.72,2.58a305.9,305.9,0,0,0,51.95-2.64q5-39,6.56-78.3.61-14.94.75-29.88A328.35,328.35,0,0,0,414.72,841.68Z"/><path d="M413.22,841.68c1,30.61,5,61.27,9.34,91.56.66,4.58,1.72,9.6,5.25,12.89,4.41,4.13,11.05,3.85,16.66,4a311.83,311.83,0,0,0,48.09-2.75,1.58,1.58,0,0,0,1.5-1.5,934,934,0,0,0,7.31-108.18,1.54,1.54,0,0,0-1.5-1.5,336.39,336.39,0,0,0-85.55,4.07c-1.9.33-1.09,3.22.8,2.89a333.34,333.34,0,0,1,84.75-4l-1.5-1.5a934,934,0,0,1-7.31,108.18l1.5-1.5a313.44,313.44,0,0,1-42.31,2.82c-6.7,0-17.4,1.42-21.76-4.84-3.53-5.05-3.36-12.62-4.1-18.5-3.44-27.32-7.28-54.59-8.17-82.15C416.16,839.76,413.16,839.75,413.22,841.68Z"/><path d="M421.62,849.39a322.38,322.38,0,0,1,75.64-5c1.93.1,1.93-2.9,0-3a326.49,326.49,0,0,0-76.44,5.14c-1.9.36-1.09,3.25.8,2.9Z"/><path d="M427.35,942.82a289.14,289.14,0,0,0,66.28-3.9c1.9-.33,1.09-3.23-.8-2.89a285,285,0,0,1-65.48,3.79c-1.93-.11-1.92,2.89,0,3Z"/><path class="a" d="M299.29,728a278.07,278.07,0,0,1-8.51,64.9c63.3.59,100,3.18,163.31,3.77,6.39.06,24,.58,27.05-5,2.87-5.22,5.84-15.85,6.45-27.39s-.88-23.51,3.18-34.33c-69.63-8.65-121.35-4.19-191.48-1.93"/><path d="M296.29,728a282.21,282.21,0,0,1-8.4,64.1,3,3,0,0,0,2.89,3.8c36.19.35,72.34,1.68,108.52,2.71q27.75.78,55.52,1.07c9,.09,24.85,1.72,29.63-7.94,4-8.06,5.5-17.64,6.08-26.52.75-11.6-.75-23.29,3.13-34.49.71-2-1.11-3.58-2.89-3.8-63.8-7.83-127.47-4-191.48-1.93-3.85.13-3.87,6.13,0,6,64-2.08,127.68-5.9,191.48,1.93l-2.9-3.79c-2.91,8.4-3.05,17.15-3.1,25.95,0,9.57-.66,19-3.49,28.2-.8,2.59-1.54,6.09-3.78,7.81-2,1.55-5.64,1.83-8.05,2.11a135.41,135.41,0,0,1-17.33.44c-33.65-.34-67.29-1.53-100.93-2.53q-30.19-.89-60.41-1.22l2.89,3.8a289.45,289.45,0,0,0,8.62-65.7c.06-3.86-5.94-3.86-6,0Z"/><text class="h" transform="translate(408.63 777.48)">小時</text><text class="h" transform="translate(313.61 777.48)">跑前</text><text class="l" transform="translate(371.48 777.62)">2</text><path class="m" d="M483.23,707.42c7.33-1.54,18.69-2,23.91,3.38s7.71,12.9,8.54,20.35c.6,5.35.34,11.1-2.59,15.61-2.56,4-6.87,6.46-11.29,8.06-7.39,2.67-15.73,3.15-23.06.34s-13.46-9.14-15.08-16.82c-1.76-8.36,1.9-17.15,7.7-23.42A22,22,0,0,1,483.23,707.42Z"/><path d="M484,710.31c5.09-1,10.8-1.55,15.86-.11,6.28,1.79,9.57,7.93,11.33,13.84s3,14,.09,19.82c-3.21,6.41-11.45,9.15-18.1,9.95-12.82,1.55-27.82-6.42-26.94-21,.59-9.68,8.18-20.07,17.76-22.51,3.74-.95,2.16-6.74-1.59-5.78-9.59,2.44-16.92,10.73-20.36,19.77-4.67,12.28.42,25.48,11.82,31.88,11.05,6.19,27,4.91,37-2.84,10.71-8.25,9.28-24.2,4.44-35.4-2.62-6.06-6.74-11.36-13.24-13.34-6.32-1.92-13.28-1.32-19.67-.07C478.64,705.27,480.25,711.05,484,710.31Z"/><path class="a" d="M485.16,715.28c5-1,12.76-1.36,16.33,2.31s5.26,8.81,5.83,13.89c.41,3.65.23,7.58-1.77,10.66-1.75,2.7-4.69,4.41-7.71,5.5a22.73,22.73,0,0,1-15.74.23,16.39,16.39,0,0,1-10.29-11.48c-1.21-5.71,1.29-11.71,5.25-16A15,15,0,0,1,485.16,715.28Z"/><path d="M485.56,716.73c3.63-.69,7.64-1.08,11.25,0,4.71,1.35,7.05,6.27,8.23,10.64s1.82,10.09-.78,14c-2.42,3.67-7.18,5.29-11.3,6-9.07,1.47-20-3.66-20-14.07.07-7.19,5.65-14.63,12.56-16.53a1.51,1.51,0,0,0-.8-2.9c-8.8,2.43-15.68,12.23-14.64,21.4,1.33,11.65,13.8,17,24.23,14.92,4.67-.92,9.84-3.06,12.5-7.25,3-4.74,2.47-11.18,1.08-16.37-1.3-4.83-3.9-10.12-8.73-12.18-4.48-1.91-9.78-1.4-14.44-.52C482.87,714.19,483.67,717.09,485.56,716.73Z"/><path d="M489.37,721.91,488,730a3.09,3.09,0,0,0,2.1,3.69,3,3,0,0,0,3.69-2.09l1.34-8.08a3.08,3.08,0,0,0-2.09-3.69,3,3,0,0,0-3.69,2.09Z"/><path d="M489.16,729.16l-6.59,3.23a3,3,0,1,0,3,5.18l6.6-3.23a3,3,0,1,0-3-5.18Z"/></svg>
