<svg xmlns="http://www.w3.org/2000/svg" viewBox="0 0 870 583"><defs><style>.a{fill:#fff;}</style></defs><title>cloudLR</title><path class="a" d="M114.75,367.38c-22.87,18.84-27.82,55.92-10.69,80.1s53.75,31.82,79.11,16.5a72.41,72.41,0,0,0,117.19,30.24c8.91,28.14,37.15,49,66.67,49.16s58-20.24,67.32-48.26c47-2.74,89.52-41.12,97-87.59s-20.72-96.3-64.46-113.72c16.15-21.3,8.34-54.23-11.63-72S406.88,199,380.17,200.11c-53.13,2.26-104.92,27.17-139.86,67.26,2.35-18-10.58-35.82-27.49-42.48s-36.49-3.59-52.7,4.61a90.51,90.51,0,0,0-36.28,128.13"/><path d="M112.63,365.26C94.09,381,86.77,407.54,93,430.81c6.48,24.09,27.81,40.37,52.12,43.52a62.17,62.17,0,0,0,39.53-7.76l-4.41-1.79c8.1,22.91,27,41.37,50.42,48.23,24.91,7.29,52.5.42,71.78-16.67l-5-1.32c7.51,22.83,26.27,40.9,49.17,48.12,23.5,7.41,48.88,1.27,67.71-14.23a73.73,73.73,0,0,0,22.9-33l-2.9,2.2c38-2.51,73-26.61,90.22-60.5,17.45-34.39,13-75.53-8.44-107.14a107.89,107.89,0,0,0-48.4-39.57l1.79,4.41C481,279.7,480.73,259,473.19,241.7c-8.45-19.31-25.72-32.16-45.37-38.72-41.77-13.95-91.17-3.62-129.49,15.75a200.74,200.74,0,0,0-60.14,46.52l5.12,2.12c1.74-16.08-7.08-31.34-20.11-40.32-15.33-10.58-35.64-10.68-52.82-5-33.1,10.88-57.71,41.88-62.08,76.22a95.43,95.43,0,0,0,13,60.91c2,3.31,7.18.3,5.19-3-17.23-28.67-17.13-65.24,1.16-93.39,17-26.07,52.21-47.19,83.62-35.24,16.08,6.11,28,22.41,26.09,39.88-.28,2.57,3.48,4,5.12,2.12a197.54,197.54,0,0,1,105.39-62.14c37.05-8.17,89.76-8.49,114.07,26.38,11.94,17.12,15.29,41,2.45,58.56-1.27,1.74.19,3.76,1.79,4.41,33.17,13.5,56.92,45.74,62.35,80.85,5.5,35.55-10.46,70.55-38.3,92.61a101.24,101.24,0,0,1-55.83,22,3.13,3.13,0,0,0-2.89,2.2c-9.19,26.73-36,46.26-64.43,46.06s-54.95-20.12-63.78-47a3,3,0,0,0-5-1.32c-17.7,15.68-43.15,21.8-65.94,15.13a71,71,0,0,1-46.24-44.05,3,3,0,0,0-4.4-1.79c-24.32,14.26-59.18,7.56-75.39-16s-10.93-57.7,10.6-75.92c2.95-2.5-1.31-6.72-4.24-4.24Z"/><path class="a" d="M747.77,259c23.16-18.47,38-65.07,21.22-89.52s-53.24-32.68-78.84-17.76a72.41,72.41,0,0,0-116.69-32.11C565,91.33,537.1,70.05,507.58,69.38S449.23,88.7,439.5,116.56c-47,2-90.16,39.69-98.43,86s19.18,96.62,62.63,114.74c-16.48,21-9.2,54.09,10.49,72.17s48.05,23.62,74.77,22.91c53.16-1.42,105.34-25.5,140.92-65-2.64,18,10,36,26.8,42.91s36.43,4.17,52.77-3.77A90.5,90.5,0,0,0,747.77,259"/><path d="M749.89,261.12c19.2-15.67,30.42-43.85,29.2-68.39-.6-12-4.75-22.81-13-31.64a64,64,0,0,0-34.36-18.56,63.11,63.11,0,0,0-43.09,6.6l4.41,1.79c-7.73-23-26.36-41.77-49.68-49-24.79-7.69-52.47-1.21-72,15.57l5,1.32c-7.15-23-25.66-41.29-48.43-48.87-23.14-7.71-48.43-2.14-67.42,12.79a74,74,0,0,0-23.9,33l2.9-2.21c-37.86,1.89-73,25.2-90.83,58.47-18.23,34-14.72,75.23,6.06,107.3,11.53,17.78,27.91,32.27,47.46,40.59l-1.08-4.1c-11.66,15.41-11.78,36.22-4.47,53.56,8.2,19.45,25.18,32.52,44.76,39.41,41.55,14.61,91.1,5,129.73-13.72A200.88,200.88,0,0,0,632,349.51l-5.12-2.12c-2,16.47,7.06,32.22,20.49,41.31,15.29,10.34,35.51,10.41,52.56,4.88,33-10.68,57.84-41.21,62.49-75.38a95.7,95.7,0,0,0-12.06-60.71c-1.94-3.34-7.12-.33-5.18,3,16.63,28.7,16.06,65-2.3,92.72-17.19,26-52.42,46.56-83.82,34.79-16.38-6.14-28.38-22.93-26.18-40.64.32-2.61-3.49-3.93-5.13-2.13a197.48,197.48,0,0,1-106.37,60.43c-37.17,7.58-89.92,7-113.62-28.25-11.65-17.34-14.59-41.25-1.46-58.59a3,3,0,0,0-1.08-4.11c-32.86-14-56.15-45.65-61.53-80.78-5.54-36.19,11.19-72,40.14-93.75,16.14-12.11,35.46-19.64,55.67-20.65a3.13,3.13,0,0,0,2.89-2.2c9.72-26.82,37.28-45.92,65.91-44.95,28.15,1,53.94,21.27,62.27,48a3,3,0,0,0,5,1.32c17.95-15.41,43.51-21.06,66.19-14,21.24,6.59,38.44,23.8,45.49,44.82a3,3,0,0,0,4.4,1.79c21.15-11.95,49.53-8.26,67.33,8.21,18,16.66,16.41,42.07,8.13,63.36-4.58,11.77-11.62,23-21.47,31-3,2.44,1.27,6.67,4.24,4.24Z"/><path d="M510.11,387.16a119.8,119.8,0,0,0,55.58-30.57c2.78-2.7-1.47-6.94-4.24-4.25a113.84,113.84,0,0,1-52.94,29c-3.75.89-2.16,6.68,1.6,5.78Z"/><path d="M505.59,364.57a83.32,83.32,0,0,0,29.82-17.27c2.88-2.58-1.38-6.82-4.24-4.24A76.22,76.22,0,0,1,504,358.79c-3.65,1.2-2.09,7,1.6,5.78Z"/><path d="M501.8,352.27l21-13.5c3.24-2.08.23-7.28-3-5.18l-21,13.5c-3.23,2.08-.23,7.28,3,5.18Z"/><path d="M414.56,334.08a98,98,0,0,0,23.65,40.18c2.7,2.77,6.94-1.48,4.25-4.25a91.24,91.24,0,0,1-22.11-37.53c-1.12-3.69-6.91-2.11-5.79,1.6Z"/><path d="M431.29,322.68a61.08,61.08,0,0,0,12.88,32.12c2.37,3,6.59-1.23,4.24-4.24a53.92,53.92,0,0,1-11.12-27.88c-.37-3.81-6.38-3.85-6,0Z"/><path d="M320.79,471.15A63.67,63.67,0,0,0,363,505.55c3.75.93,5.35-4.86,1.6-5.78A58,58,0,0,1,326,468.12c-1.65-3.49-6.82-.45-5.18,3Z"/><path d="M347.45,472l20.75,11c3.41,1.8,6.45-3.37,3-5.18l-20.75-11c-3.42-1.8-6.45,3.37-3,5.18Z"/><path d="M371.28,458.76l16.5,10.5c3.27,2.08,6.28-3.11,3-5.18l-16.5-10.5c-3.27-2.08-6.28,3.12-3,5.18Z"/><path d="M341,308.59a113.52,113.52,0,0,1-3.8,67.4c-1.34,3.63,4.45,5.19,5.79,1.6a119.36,119.36,0,0,0,3.8-70.6c-.94-3.74-6.73-2.16-5.79,1.6Z"/><path d="M321.8,322.68a81.78,81.78,0,0,1-4.4,35.2c-1.29,3.65,4.51,5.22,5.79,1.6a86,86,0,0,0,4.61-36.8c-.35-3.81-6.36-3.85-6,0Z"/><path d="M300.8,319.68a83.07,83.07,0,0,1-14.59,37.48c-2.22,3.18,3,6.18,5.18,3a89.3,89.3,0,0,0,15.41-40.51c.47-3.82-5.53-3.79-6,0Z"/><path d="M708.51,260.5a66.38,66.38,0,0,1,10.88,53.21c-.85,3.76,4.94,5.37,5.79,1.59a72.24,72.24,0,0,0-11.49-57.82c-2.22-3.12-7.43-.13-5.18,3Z"/><path d="M692,272.35l4.54,34.49c.5,3.77,6.5,3.82,6,0L698,272.35c-.5-3.77-6.51-3.82-6,0Z"/><path d="M672.61,277.62l-3.93,24.1c-.62,3.77,5.16,5.4,5.78,1.59l3.94-24.09c.61-3.78-5.17-5.4-5.79-1.6Z"/><path d="M559.56,171.15l41.94-27.08c3.24-2.09.23-7.29-3-5.18l-42,27.08c-3.23,2.09-.23,7.28,3,5.18Z"/><path d="M570.05,190.68l31.78-23.62c3.07-2.27.08-7.48-3-5.18L567,185.5c-3.06,2.28-.07,7.49,3,5.18Z"/><path d="M584.41,204l25.49-21c3-2.46-1.28-6.68-4.24-4.24l-25.49,21c-3,2.46,1.28,6.68,4.24,4.24Z"/></svg>