<svg xmlns="http://www.w3.org/2000/svg" viewBox="0 0 516 484"><defs><style>.a{fill:#f15a24;}.b{fill:#fff;}.c{fill:#ffbc18;}.d{fill:#f88334;}</style></defs><title>runner</title><path class="a" d="M285,367.66a72.06,72.06,0,0,0-1.92,14.1c-.09,2.52,0,5.25,1.56,7.26,1.92,2.51,5.44,3.07,8.6,3.26,2.26.14,4.71.14,6.56-1.16,2.28-1.59,3-4.63,3.16-7.4a35.63,35.63,0,0,0-1.39-12.58c-.7-2.35-1.74-4.76-3.76-6.16a8.15,8.15,0,0,0-7-.79,15.9,15.9,0,0,0-6.07,3.91"/><path d="M283.55,367.26c-1.45,6.44-5,18.83,1.09,23.9,4.37,3.65,14.33,4.34,17.86-.74,4.13-5.95,2.43-18.39-1.4-24.1-4.53-6.76-12.49-3.73-17.41.72-1.43,1.29.7,3.41,2.13,2.12,2.16-2,4.78-4,7.89-3.9,4.69.2,6,4.37,6.89,8a32.82,32.82,0,0,1,.94,8.61c-.1,3.52-.21,5.86-3.39,7.68-5.35,3.05-13.28.73-13.59-6.29-.22-5.08.78-10.31,1.88-15.24.43-1.88-2.46-2.68-2.89-.79Z"/><path class="b" d="M271,365.39c26.05,27.19,56.52-17.25,56.69-43.66,0-5.2-29.91,18-34.77,18-9.68,0-22.09,1.82-29.09-5.53A38.77,38.77,0,0,0,271,365.39"/><path d="M269.89,366.45c8.11,8.18,18.73,11.48,29.44,6.24,11.05-5.41,19-16.67,24-27.59a64.44,64.44,0,0,0,5.42-17.9c.31-2.31,1.67-6.93-1.53-7.69-2.51-.6-6.25,2.14-8.23,3.28-4.78,2.75-9.36,5.82-14,8.78-3.56,2.26-7.84,5.82-12.07,6.67-3.85.76-8.77.31-12.69.17-5.66-.21-11.12-1.22-15.34-5.26a1.52,1.52,0,0,0-2.51.66c-2.74,11.09.69,23.35,7.32,32.34,1.14,1.53,3.74,0,2.59-1.52-6.16-8.34-9.58-19.68-7-30l-2.5.66c4.24,4.06,9.55,5.58,15.31,6,4.93.37,11.39.95,16.21-.3,3-.78,5.95-2.93,8.58-4.55,4.08-2.51,8.08-5.15,12.14-7.7,3.29-2.07,7.15-3.64,10.3-5.83a3.6,3.6,0,0,1,1.46-.44c-1,.08,0-2.23-.6.25a10.75,10.75,0,0,0-.09,1.51,47.68,47.68,0,0,1-1.5,8.63c-3,11.47-9.15,22.77-17.82,30.94-4.44,4.18-10,7.79-16.18,8.48-7.3.81-13.55-2.94-18.52-7.95a1.5,1.5,0,0,0-2.12,2.12Z"/><path class="c" d="M259.55,303.07c-2.83,8.79-6.56,21.54-8.43,31.88,17.47,10.22,41.13,21.73,61,12.09,17.5-8.48,23.13-44.81,13.56-60.33-14.63,4.5-45.53,3.8-62.49,10.25"/><path d="M258.1,302.67a266.18,266.18,0,0,0-8.43,31.88,1.57,1.57,0,0,0,.69,1.7c19.14,11.12,52.95,27.26,70.8,5.24,11.29-13.93,15.14-39.7,5.83-55.54a1.54,1.54,0,0,0-1.69-.69c-20.31,6-42.43,2.92-62.49,10.25-1.79.66-1,3.56.8,2.9,20.05-7.33,42.17-4.29,62.49-10.26l-1.7-.68c8.59,14.61,5,38.61-5.16,51.63-16.6,21.31-49.41,5-67.36-5.44l.68,1.69A268.08,268.08,0,0,1,261,303.47c.59-1.85-2.3-2.63-2.89-.8Z"/><path class="c" d="M201.89,362.49c3.73-16,3.79-30.34,22.57-35.94,13.3-4,22.76.69,35,4.49-.61-13.27,5.87-23.61,7.38-36.07-16.9-1.13-60.54-19-73.23-4.12C193.58,290.85,172.75,319.37,201.89,362.49Z"/><path d="M203.34,362.89C205.65,352.74,206.4,340.1,215,333c13.25-11,29.65-5,44-.48a1.52,1.52,0,0,0,1.9-1.45c-.3-12.45,5.64-23.53,7.33-35.67a1.54,1.54,0,0,0-1.45-1.9c-11.3-.89-22.41-4.82-33.46-7.14C223,284.16,211,281.6,200.66,284.8c-12.83,4-15.69,20.71-15.79,32.31-.15,16.7,6.63,32.45,15.72,46.14,1.07,1.6,3.67.1,2.6-1.51-12.47-18.78-20.85-43.31-11.06-65.12,2.1-4.67,4.51-7.53,9.76-9.06,10.31-3,22.34-.15,32.51,2.06,10.71,2.33,21.45,6,32.41,6.85l-1.44-1.89c-1.73,12.4-7.74,23.73-7.44,36.46l1.89-1.45c-15.1-4.79-31.51-10.31-45.7.3C204,337.42,203,350.75,200.44,362.1,200,364,202.91,364.78,203.34,362.89Z"/><path class="b" d="M274.65,428.68c3.48,13.39,3.79,14.84-11.43,18.88-15.67-35.52-74.46-63-59.56-109.34,14.48-45,57.78-23.33,63.22,13.71C266.88,351.93,272.23,419.38,274.65,428.68Z"/><path d="M273.21,429.08c.81,3.14,3.11,8.53,1.47,11.7-1.84,3.55-8.48,4.43-11.86,5.34l1.7.69c-17.26-38.12-81-66.93-56.17-116.23,4.67-9.26,12.89-16.93,23.88-16.09,9.89.76,18.53,7.59,24.17,15.37,9.55,13.19,9.44,28.22,10.78,43.66.95,11,1.95,22.09,3.08,33.11.77,7.41,1.15,15.19,2.95,22.45.46,1.87,3.35,1.07,2.89-.8-1.78-7.16-2.14-14.83-2.89-22.14-1.11-10.86-2.09-21.74-3-32.62-1.4-16.17-1.41-31.86-11.51-45.6-11-15-32.49-23.61-46.86-7.82-16.6,18.27-14.27,44.77-1.52,64.13,15.05,22.86,40.2,38.83,51.64,64.09a1.5,1.5,0,0,0,1.69.69c4.3-1.16,11.19-2.26,13.62-6.63,2.27-4.1-.08-10-1.14-14.1A1.5,1.5,0,0,0,273.21,429.08Z"/><path class="d" d="M143.3,213.24c6.06,14,30.16,78.17,49.7,80.7,15.34,2,105.84,6.48,124-.33,15.13-5.68,23.12-24.86,32.44-38.07a155.35,155.35,0,0,0,25.7-60.81c17.33.66,40.95-14.84,50.31-26.28-11.94-38.12-74-74.39-97.77-79.12s-58.11-3.23-74.84,14.3c-47.43-12.67-98.46,0-134.88,32.18C117.92,135.81,104.64,177.1,143.3,213.24Z"/><path d="M142,214c8.21,19.05,15.65,38.44,26.19,56.4,4.72,8.05,10.26,17.22,18.24,22.46,5.06,3.32,11.43,3.12,17.26,3.54,22.13,1.59,44.37,2.34,66.56,2.34,10.71,0,21.47-.14,32.15-1.09,8.45-.75,16.29-1.9,23.18-7.28,5.86-4.58,10.26-10.77,14.25-17,4.6-7.16,9.15-14.33,13.81-21.45a158.72,158.72,0,0,0,22.9-56.83l-1.45,1.1c17.09.28,34.61-10.38,46.68-21.75,1.62-1.53,5.06-4,5.08-6.43,0-2.82-2.78-7.22-4-9.66a94.54,94.54,0,0,0-14.19-19.74C396.93,125.77,382.79,115,368,105.93c-11.6-7.13-24.28-14.12-37.58-17.5a110.58,110.58,0,0,0-50.88-.31c-8.23,1.92-16.35,5.09-23.1,10.27-1.24,1-2.86,3.1-4.31,3.34-2,.32-4.78-1-6.78-1.4a145.16,145.16,0,0,0-16.22-2.42A148.64,148.64,0,0,0,168,105.19a151.5,151.5,0,0,0-27.62,12.58q-6.16,3.6-12,7.78c-1.83,1.32-3.62,2.68-5.39,4.08s-5.3,3.49-6.37,5.43-1.27,5-1.6,7.22a75.39,75.39,0,0,0-.35,19.22c2.24,20.6,12.7,38.66,27.57,52.8,1.4,1.33,3.52-.78,2.12-2.12-13.3-12.65-23.11-28.47-26.15-46.74a74.62,74.62,0,0,1-.78-17.85c.23-3.12.34-7.09,1.57-10,.53-1.3.27-.71,1.19-1.73,3.5-3.91,8.64-7,13-10a147.09,147.09,0,0,1,82.5-25.57,141.81,141.81,0,0,1,29.69,3.1c2.38.51,6.22,2.41,8.52,1.3,1.55-.74,3.16-3,4.56-4a46.25,46.25,0,0,1,5.79-3.71c15.22-8.3,34.08-9.43,51-7.87,28.39,2.59,55,19.52,76.39,37.49a145.66,145.66,0,0,1,18.67,18.58,90.29,90.29,0,0,1,7.64,10.69c1.9,3.15,4.74,7.3,5.33,11,.33,2-.32,2.32-1.88,3.9s-3,2.9-4.59,4.25a91.65,91.65,0,0,1-12.38,8.8c-8.8,5.24-18.88,9.68-29.31,9.51a1.53,1.53,0,0,0-1.45,1.1,156.44,156.44,0,0,1-18.88,50.17c-3.95,6.67-8.55,12.9-12.61,19.49-3.89,6.32-7.68,12.82-12.59,18.42-6.84,7.8-14.4,10.88-24.33,12-9.72,1.06-19.54,1.26-29.31,1.35-21.79.19-43.62-.54-65.36-1.87-6-.36-13.08,0-18.89-1.73-8.16-2.47-14.05-12.23-18.29-18.95-12-19-19.93-40.12-28.79-60.68C143.83,210.72,141.25,212.24,142,214Z"/><path class="a" d="M336.31,194.13a3,3,0,0,1,3.8,2.86c.48,23.12-6.45,45.57-17.18,66.16-2.38,4.59-5.16,9.18-9.38,12.16-5.07,3.57-72.75,5.33-99.65-.13-4.74-1-9.66-2.14-13.3-5.31-3.47-3-5.3-7.48-7-11.75-7.69-19.13-15.51-39-15.07-59.52a3,3,0,0,1,3.43-2.94C199.47,198,283.2,207.83,336.31,194.13Z"/><path d="M336.31,195.63c5.28-.37-.1,27-.75,29.85a148.09,148.09,0,0,1-9.25,27.28c-2.87,6.42-7,18.3-13.89,21.46-2.22,1-5.17,1.1-7.55,1.36-23.26,2.56-47.34,2.22-70.65.56-12.74-.9-30.78-.88-37.19-13.81-4.33-8.72-7.61-18.33-10.64-27.56-3.16-9.62-5.64-19.54-6.25-29.67-.12-2.13-.93-7.14,2-7.91.47-.12,1.14.21,1.62.21a40.58,40.58,0,0,1,4.77.58q6.69.79,13.39,1.45,18.45,1.81,37,2.69c32.45,1.49,66.14,1.48,97.82-6.54,1.87-.48,1.08-3.37-.79-2.9-32.71,8.29-67.59,8-101.07,6.24q-19.71-1-39.36-3.15c-4.07-.44-8.14-1.09-12.21-1.43-7.35-.62-6.47,6.11-6.08,11.69.75,10.71,3.46,21.18,6.9,31.33,3.14,9.27,6.29,19.26,11.05,27.85,6.82,12.34,23.69,12.7,36.23,13.72,14.28,1.15,28.66,1.37,43,1.17,11.27-.16,22.75-.31,33.92-2,4.25-.62,6.73-1.56,9.77-4.86,6.83-7.41,10.84-18.29,14.42-27.58a136.88,136.88,0,0,0,8.33-32.84c.6-5,1.72-11.12.78-16.08-.53-2.81-2.34-4.36-5.27-4.16C334.4,192.76,334.38,195.76,336.31,195.63Z"/><path class="b" d="M211.27,237.43c-1.58,6.25-5.63,13.32-2.21,19.71,2.24,4.17,7.76,6.63,12,3.84,4.49-3,4.9-9.85,4.39-14.64-.63-5.79-4.34-11-10.57-10.88-3.22,0-3.23,5,0,5,8.11-.12,7.19,17.66,1.32,16.61-7.4-1.31-1.08-14.52-.12-18.31.79-3.12-4-4.45-4.82-1.33Z"/><path class="b" d="M239,239c-3.77,6.17-7.53,13.91-2.61,20.58,3.88,5.26,10.82,5.17,14.82.14s5.94-13.85,2.28-19.55c-3.42-5.33-10.46-5.72-14.23-.68-1.93,2.57,2.4,5.07,4.31,2.52s4.7-.71,5.91,1.16,1.05,4.11.75,6.06c-.44,2.81-1.64,6.88-4.11,8.53-4.42,3-7.3-2.63-7.05-6.28s2.39-6.92,4.25-10c1.68-2.75-2.64-5.27-4.32-2.52Z"/><path class="b" d="M271.27,239.22c-4,5.9-8.06,13.47-3.18,20.12,3.9,5.3,10.79,4.9,14.56-.25s6-14,1.86-19.58c-3.41-4.6-10.4-4.81-13.34.36-1.58,2.81,2.73,5.33,4.32,2.53,2.66-4.69,6.23,1.72,6.21,4.38,0,3-1.35,7.75-3.57,10-4.25,4.21-7.63-1.55-7.21-5.41.38-3.57,2.7-6.71,4.67-9.59,1.82-2.66-2.51-5.16-4.32-2.52Z"/><path class="b" d="M304.48,237.24l-9.84,23.32c-1.24,2.93,3.07,5.48,4.32,2.52l9.84-23.32c1.24-2.93-3.07-5.48-4.32-2.52Z"/><path class="b" d="M210.86,213.37a2.21,2.21,0,0,1,1.94,2.7l-.28,2.12c-.6,4.43-4.75,5-7.5,4.63-5.16-.7-7.42-4.95-6.82-9.4s3.9-8.48,9-7.8c3.68.5,6,3,5.82,4.6a1.42,1.42,0,0,1-1.53,1.3c-.32,0-.65-.11-1.4-1.12a4.06,4.06,0,0,0-3.07-1.92c-3.48-.47-5.41,2.41-5.79,5.24-.44,3.27,1.22,5.74,4.34,6.16s4-1.66,4.1-2.1l.15-1.14a.5.5,0,0,0-.47-.62l-3.66-.49a1.43,1.43,0,0,1-1.13-1.66,1.26,1.26,0,0,1,1.4-1.17Z"/><path class="b" d="M217.38,223a1.35,1.35,0,0,1-2.67-.31l1-10.39a1.35,1.35,0,0,1,2.66.4l-.06.65A3.82,3.82,0,0,1,222,211.7c1,.1,2.37.7,2.25,1.89a1.17,1.17,0,0,1-1.34,1.13c-.23,0-1.13-.28-1.32-.3-1.46-.15-3.59,2.78-3.65,3.32Z"/><path class="b" d="M227.45,219.68c0,.72.08,2.89,2.3,3.06.69,0,1.19-.1,1.91-1,.55-.69.86-.84,1.44-.79a1.28,1.28,0,0,1,1.09,1.47c-.11,1.55-2.14,3.1-4.72,2.91-1.82-.14-5.16-1.36-4.76-6.66.36-4.89,3.2-6.45,5.56-6.27a4.88,4.88,0,0,1,4.41,5.47c-.11,1.5-.57,2.31-1.7,2.23Zm4-2.19c.44,0,.55-.06.56-.23A2.12,2.12,0,0,0,230.1,215c-1.78-.14-2.28,1.74-2.4,2.21Z"/><path class="b" d="M238.85,220.44c0,.72.16,2.89,2.39,3,.69,0,1.18-.13,1.88-1,.53-.71.84-.87,1.42-.84a1.29,1.29,0,0,1,1.13,1.44c-.07,1.55-2.06,3.16-4.64,3-1.83-.09-5.2-1.21-4.95-6.52.23-4.91,3-6.55,5.39-6.43a4.89,4.89,0,0,1,4.57,5.34c-.07,1.51-.51,2.33-1.65,2.28Zm3.92-2.3c.44,0,.55-.08.56-.24a2.14,2.14,0,0,0-2-2.22c-1.78-.08-2.23,1.81-2.34,2.29Z"/><path class="b" d="M258.3,225.11a1.33,1.33,0,1,1-2.66-.07l.1-6.57a2,2,0,0,0-2.08-2.32,2.9,2.9,0,0,0-3,2.62l-.1,6.21a1.35,1.35,0,0,1-1.37,1.37,1.37,1.37,0,0,1-1.32-1.43l.13-8c0-.38-.14-2-.13-2.31a1.24,1.24,0,0,1,1.36-1.22,1.76,1.76,0,0,1,1.55,1.37,4.48,4.48,0,0,1,3.6-1.29,3.75,3.75,0,0,1,4,3.87Z"/><path class="b" d="M261,215c0-.65,0-1.47,1.1-1.49s1.32.66,1.39,1.39a3.62,3.62,0,0,1,3.19-1.49c3.71-.08,5.27,3.1,5.34,6.44s-1.25,6.43-4.9,6.51a4.83,4.83,0,0,1-3.22-1l.05,2.12a1.36,1.36,0,0,1-1.25,1.41,1.39,1.39,0,0,1-1.44-1.31Zm2.81,5.76a2.68,2.68,0,0,0,2.89,2.82c1.26,0,2.66-.56,2.59-3.86a4.32,4.32,0,0,0-1-2.92,2.43,2.43,0,0,0-1.86-.57,2.77,2.77,0,0,0-2.66,3Z"/><path class="b" d="M276.76,220.52c.11.71.47,2.85,2.69,2.72.69,0,1.16-.26,1.76-1.24.46-.76.74-.95,1.33-1a1.29,1.29,0,0,1,1.27,1.31c.1,1.55-1.71,3.36-4.29,3.52-1.82.11-5.3-.66-5.61-6-.3-4.91,2.3-6.83,4.67-7a4.89,4.89,0,0,1,5.11,4.83c.09,1.51-.26,2.37-1.39,2.44Zm3.65-2.7c.44,0,.54-.14.53-.31a2.13,2.13,0,0,0-2.18-2c-1.78.1-2,2-2.08,2.52Z"/><path class="b" d="M296.83,220.52a4.36,4.36,0,0,0,.56,1.68,2.88,2.88,0,0,1,.3.87,1.25,1.25,0,0,1-1.24,1.29c-1.07.11-1.34-.66-1.52-1.23a6,6,0,0,1-3.87,1.81c-3,.32-4.89-1.41-5.14-3.75-.19-1.84.68-4.48,5.34-5a7.12,7.12,0,0,1,2.46.13c-.09-.61-.28-2.11-2.87-1.84a3.72,3.72,0,0,0-2,.71c-1.06.77-1.18.84-1.49.87a1.39,1.39,0,0,1-1.46-1.28c-.15-1.38,2.07-2.6,4.77-2.88,5.18-.54,5.56,3.16,5.73,4.83ZM294,219.21c0-.36-1.06-.57-2.52-.42-.73.08-3,.32-2.84,2.14.12,1.19,1.19,1.48,2.55,1.34,2-.21,3-1.64,2.89-2.25Z"/><path class="b" d="M308.19,213A1.34,1.34,0,0,1,307,214.6c-.44.07-.72.05-1.47-.73a2.08,2.08,0,0,0-2-.79c-1.78.27-2,2.5-1.8,4s1.29,3.54,3.14,3.25c.62-.09,1.11-.25,1.69-1.32.36-.69.66-1,1.17-1a1.26,1.26,0,0,1,1.52,1.13c.14.91-1.2,3.56-4,4s-5.6-1.45-6.24-5.64c-.37-2.37-.09-6.51,4.39-7.2C305.23,210,307.92,211.17,308.19,213Z"/><path class="b" d="M313.64,216.09c.21.69.87,2.76,3.05,2.31.68-.14,1.12-.43,1.56-1.49.35-.82.6-1,1.18-1.16a1.29,1.29,0,0,1,1.45,1.11c.32,1.52-1.21,3.58-3.74,4.1-1.79.38-5.34.13-6.42-5.08-1-4.81,1.3-7.09,3.62-7.57a4.88,4.88,0,0,1,5.75,4c.31,1.48.09,2.38-1,2.61Zm3.22-3.2c.43-.09.51-.21.48-.38a2.14,2.14,0,0,0-2.45-1.66c-1.75.37-1.71,2.31-1.69,2.8Z"/><path class="b" d="M198.15,247.75s.66-8.5-3.68-3.47a15.48,15.48,0,0,0-3.55,7.72s-10.67,7.82-22.25,11.51c-17.21,5.48-36.41,1.81-25.45-50.34-38.53-36.08-25.33-77.3-25.3-77.36C83.5,160.35,33.86,213.43,31,269.27c-4.08,80.07,111,80.3,158.79,17.52a98.75,98.75,0,0,0,8.35-12.92s13-.72,12.93-7.79S217,243.58,198.15,247.75Z"/><path d="M199.65,247.75c.18-2.78-.43-8-4.45-6.11-2.77,1.31-4.81,5.7-5.43,8.48a12.41,12.41,0,0,1-.32,1.7c.32-.81,1-1.37.43-.91a37.79,37.79,0,0,1-3.82,2.54c-8.91,5.61-24.88,14.79-35.89,8.6-12.8-7.2-8.82-30-6.86-41.36.35-2.09,1.74-5.53,1.41-7.52-.26-1.58-2-2.55-3.07-3.62a90.4,90.4,0,0,1-12.25-15.18,78.09,78.09,0,0,1-10.78-26.69c-2-10-2.46-21.65.74-31.47a1.51,1.51,0,0,0-2.2-1.69C86.41,156.59,59,186.65,42.64,220.94c-12.76,26.67-21.6,63.77-1.38,89.22,15.49,19.51,42.51,24.87,66.16,22.68,28.51-2.65,56.48-15.63,76.22-36.49a105.91,105.91,0,0,0,8-9.48q2.82-3.75,5.27-7.76c1.23-2,.86-3.21,2.32-3.83,2.28-1,5.11-.78,7.49-1.82,2.73-1.19,5.15-3,5.79-6.1,1-4.58,1.81-11.5.36-16-2.13-6.61-9.49-6.17-15.08-5-1.89.38-1.09,3.28.8,2.9,3.22-.65,8.36-1.66,10.69,1.51,1.38,1.89,1.24,4.66,1.11,6.87s-.47,4.44-.69,6.66c-.36,3.63-1.42,5.48-5,6.8-2,.74-4.31.61-6.25,1.31-2.27.83-2.87,3.14-4.15,5.25a101.44,101.44,0,0,1-15.09,19c-18.88,18.75-44.82,30.61-71.26,33.18-22.08,2.14-47.18-2.15-62.62-19.46-20.48-22.95-13.28-58.26-2-83.71,15.78-35.61,43.87-66.91,75.37-89.51l-2.21-1.69c-2.56,7.84-2.68,16.94-1.91,25,1.78,18.64,10.32,35.74,23.11,49.29.85.9,2.66,2.12,3.16,3.2.87,1.91.24,3.27-.11,5.22q-.65,3.51-1.13,7.05a102.85,102.85,0,0,0-1.08,15.18c.1,5.95.82,12.29,3.74,17.58,4.37,7.92,12.87,9.86,21.26,8.37,8.94-1.59,17.42-6,25-10.89,1.75-1.12,3.19-1.79,4-3.61.47-1.07,2.94-8.33,4-7.31.49.46.21,2.53.17,3.21C196.52,249.68,199.52,249.67,199.65,247.75Z"/><path class="b" d="M238.65,126c-1.31,7.41.52,30.1,12.79,28,9.54-1.61,14.45-19,14.3-27-.27-14.81-23-4.69-27.42,3.31a7.73,7.73,0,0,1,1.32-.84"/><path d="M237.2,125.64c-1.52,9.67,2.55,38.37,18.56,28.3,8.66-5.44,20.07-36.1,2.24-36-7.59.05-17,5.06-21,11.61a1.51,1.51,0,0,0,2.06,2.05l1.31-.84c1.63-1,.12-3.63-1.51-2.59l-1.32.84,2.05,2.05c3.4-5.64,12.22-10.42,18.81-10.13,9.58.43,5.13,14.48,3,19.92-1.54,4-4,9-8,11-4.35,2.12-8-.14-10.19-4-3.35-6-4.19-14.63-3.12-21.38.3-1.89-2.6-2.7-2.9-.8Z"/><path class="b" d="M239.64,129.49l-.22-.76a10.66,10.66,0,0,0-1.1,1.6A7.73,7.73,0,0,1,239.64,129.49Z"/><path d="M241.08,129.09l-.22-.76a1.5,1.5,0,0,0-2.5-.66,14.12,14.12,0,0,0-1.34,1.9,1.5,1.5,0,0,0,.39,1.93,1.53,1.53,0,0,0,2-.11,9.58,9.58,0,0,1,1-.61,1.51,1.51,0,0,0,.54-2.05,1.53,1.53,0,0,0-2.05-.54,11.13,11.13,0,0,0-1.62,1.08l2.35,1.81a10.37,10.37,0,0,1,.87-1.29l-2.51-.66.22.76a1.5,1.5,0,0,0,2.89-.8Z"/><path class="b" d="M256,91.2c10.07,3.46,12.35,19.92,11.34,28.93-1.4,12.55-17.75,21-29.22,14.44-5.67-3.22-5.72-12.56-5.64-18.5.06-3.94.83-15.56,5.62-16.87C238.05,99.2,246.79,88.06,256,91.2Z"/><path d="M255.55,92.65c9.52,3.78,11.47,18.52,10.23,27.4-1.59,11.31-16.79,19.67-27,13.22-7.23-4.58-5.69-20.71-3.48-27.88,1-3.16,3.32-4.84,5.55-7.1,3.87-3.91,9-7.2,14.66-5.64a1.5,1.5,0,0,0,.8-2.89c-8.43-2.32-14.77,3.82-20.44,8.88-6,5.4-5.53,17.87-4.7,25.2.49,4.39,1.76,9.12,5.63,11.71,4.07,2.72,9.48,3.27,14.19,2.36,10.07-1.95,17.52-10,18-20.27.41-10.09-2.13-23.71-12.63-27.88C254.56,89,253.78,91.94,255.55,92.65Z"/><path class="c" d="M248.22,108.28A105,105,0,0,0,245,120.1a5.73,5.73,0,0,0,.07,3.64c.76,1.56,2.68,2.11,4.37,2.49,1.88.43,4,.79,5.55-.4,1.35-1,1.65-3,1.55-4.68-.33-5.16-3.38-9.7-6.32-14C250.17,107.2,249,106.09,248.22,108.28Z"/><path d="M246.78,107.88A100.84,100.84,0,0,0,243.65,119c-.46,2.23-.86,4.58.78,6.44,2.6,2.94,9.83,4,12.38.54,3.21-4.35-.13-11.29-2.47-15.21-1.55-2.59-4.82-8.38-7.41-3.27-.87,1.71,1.72,3.23,2.59,1.51-.35-.85-.32-.85.09,0l.73,1.08c.7,1.11,1.43,2.19,2.06,3.34a23.06,23.06,0,0,1,1.93,4.34c.84,2.81,1.21,3.92-1,5.86-2.54,2.27-4.2,1.56-5.78-1.14-1.38-2.35-1-2.86-.42-5.33.72-2.87,1.59-5.69,2.51-8.5C250.28,106.84,247.38,106.06,246.78,107.88Z"/><path class="a" d="M220.33,54.75c-9-.15-18.08,4.09-23,11.58s-5,18.13.6,25.15,16.62,9.28,24.06,4.3c-4.29-3.52-11.31,2-10.57,7.49s6.28,9.18,11.71,10.33c13.6,2.87,28.53-7.37,30.75-21.09-1.11,7.58,8.81,12.95,16.06,10.47s11.78-9.58,15.31-16.38c4.46-8.58,8.37-18.28,6.18-27.7s-13.09-17.19-21.67-12.74c4.31,2,9.37-3.37,8.15-8s-6.6-7.11-11.31-6.53-8.81,3.49-12.37,6.64c4.05-5.59.27-14.16-6-17.12s-13.64-1.69-20.13.62c-5.32,1.89-10.54,4.54-14.25,8.79S208.21,40.94,210,46.29s7.91,9.24,13.28,7.49"/><path d="M220.33,53.25c-15.59.17-30.19,12.17-27.87,28.8,2,14.1,17.81,22.6,30.3,15a1.52,1.52,0,0,0,0-2.59c-5-3.22-11.35.6-12.65,6.06-1.65,7,5.36,12.45,11.27,14.17,15,4.33,31.11-7,34-21.8l-2.94-.4c-.59,8.14,7.93,13.38,15.39,12.47,10.3-1.26,16.32-12.37,20.32-20.69,4.49-9.33,8.34-21.37,2.65-31.06-4.42-7.53-13.42-12.1-21.74-8.37-1.26.57-.76,2.38.36,2.74,7.37,2.39,12.8-6.81,8.56-12.76-6.53-9.16-18.27-3.17-24.75,2.41l2.35,1.81c4-6.41.87-14.75-5.36-18.54-8.55-5.21-20.24-1.77-28.47,2.4C214,26.81,207,34.27,207.91,43.51c.75,7.8,8,13.62,15.76,11.72,1.87-.46,1.08-3.36-.8-2.9-8.3,2-13.43-6.62-11.52-13.9,1.73-6.58,7.35-10.87,13.25-13.59s13.53-5.07,20.08-3.34c6.73,1.78,12.44,9.31,8.26,16-.93,1.52,1.12,2.88,2.36,1.82,4-3.47,9.15-7.26,14.82-6.06,2.66.57,5.74,2.37,6.35,5.29.78,3.71-2.67,7.29-6.31,6.11l.36,2.74c8-3.58,16.65,3,19.13,10.57,2.68,8.23-.58,17.34-4.14,24.75C282.53,89,279,96,273,99.83c-6.25,4-18.29,2.09-17.6-7.32.12-1.67-2.63-2.06-2.95-.4a25.57,25.57,0,0,1-19.15,19.81c-4.81,1.14-10.3.93-14.68-1.58-3-1.73-6.43-5.12-5.6-9,.75-3.53,4.93-6.39,8.23-4.26V94.48c-11.82,7.18-25.69-2.29-26-15.4-.35-13.81,12.35-22.69,25.12-22.83,1.93,0,1.93-3,0-3Z"/><path d="M218.35,345.12v11a1.5,1.5,0,0,0,3,0v-11a1.5,1.5,0,0,0-3,0Z"/><path d="M223,369.57l1.21,9.78c.24,1.89,3.24,1.91,3,0L226,369.57c-.24-1.89-3.24-1.91-3,0Z"/><path d="M208.76,361.38l1.21,8.55c.28,1.9,3.17,1.09,2.9-.8l-1.22-8.55c-.27-1.9-3.16-1.09-2.89.8Z"/><path d="M232,350.76l3.66,8.55c.76,1.77,3.35.24,2.59-1.51l-3.66-8.55c-.76-1.77-3.34-.25-2.59,1.51Z"/><path d="M236.87,381.3l3.67,7.33c.86,1.73,3.45.21,2.59-1.51l-3.66-7.33c-.87-1.73-3.46-.21-2.6,1.51Z"/><path d="M254.11,401.62l3.62,12.23c.55,1.85,3.45,1.06,2.9-.79L257,400.83c-.55-1.85-3.45-1.06-2.9.79Z"/><path d="M249.78,373.74l2.48,7.32c.62,1.82,3.52,1,2.9-.8L252.67,373c-.62-1.82-3.52-1-2.89.79Z"/><path d="M253.83,346.74,257.49,359c.55,1.85,3.45,1.06,2.89-.79l-3.66-12.22c-.55-1.84-3.45-1.06-2.89.8Z"/><path d="M236.29,331.56l4.84,2.53c1.71.89,3.23-1.7,1.52-2.59L237.8,329c-1.71-.89-3.23,1.7-1.51,2.59Z"/><path d="M204.56,256.42a16.94,16.94,0,0,0,6.92-.87c1.81-.62,1-3.52-.8-2.89a14.78,14.78,0,0,1-6.12.76c-1.92-.16-1.91,2.84,0,3Z"/><path d="M204.56,262.53a11.92,11.92,0,0,0,6.46-1.44c1.7-.91.18-3.5-1.52-2.59a8.93,8.93,0,0,1-4.94,1c-1.93-.12-1.92,2.88,0,3Z"/><path d="M204.58,267.73a8.84,8.84,0,0,0,7.56-2c1.47-1.25-.66-3.36-2.12-2.12a5.58,5.58,0,0,1-4.64,1.2c-1.89-.36-2.7,2.53-.8,2.9Z"/><path d="M234.15,132.37c-1.8,10.58,4.16,28.63,17.92,26.75,15.48-2.11,15.9-24.58,15.64-35.91,0-1.93-3-1.94-3,0,.23,10.15.69,24.35-8.69,31-6.13,4.34-12.62.33-16.15-5.3a22.44,22.44,0,0,1-2.82-15.73c.32-1.89-2.57-2.7-2.9-.8Z"/><path d="M144.6,214A39.66,39.66,0,0,1,160,196.53c1.64-1,.14-3.61-1.51-2.59A42.45,42.45,0,0,0,142,212.49c-.83,1.73,1.76,3.26,2.59,1.51Z"/><path d="M121.24,131.37a99.48,99.48,0,0,0,6.94,55.56c.76,1.76,3.35.24,2.59-1.52a95.76,95.76,0,0,1-6.64-53.25c.3-1.89-2.59-2.7-2.89-.79Z"/><path d="M373.43,240.07a7.41,7.41,0,0,0,6.5,2.73c1.9-.2,1.92-3.2,0-3a4.67,4.67,0,0,1-4.37-1.85,1.52,1.52,0,0,0-2.13,0,1.55,1.55,0,0,0,0,2.12Z"/><path d="M373.77,247a6,6,0,0,0,5,.37,1.54,1.54,0,0,0,1-1.84,1.51,1.51,0,0,0-1.85-1,3,3,0,0,1-2.65-.07c-1.7-.91-3.22,1.68-1.51,2.59Z"/><path d="M379.12,252.06a6.5,6.5,0,0,0,3.64-2.19,1.55,1.55,0,0,0,0-2.12,1.51,1.51,0,0,0-2.12,0,3.89,3.89,0,0,1-2.32,1.42,1.5,1.5,0,0,0-1,1.84,1.52,1.52,0,0,0,1.84,1.05Z"/><path d="M237.07,401.05l4.34,6c1.12,1.55,3.73.05,2.59-1.51l-4.34-6c-1.13-1.55-3.73-.05-2.59,1.51Z"/><path class="a" d="M249.78,437.27c-1.61-3.57.89-9.24,4.3-11.17s7.77-1.61,11.34,0,6.5,4.37,9.16,7.25a90.5,90.5,0,0,1,8.31,10.41,10.15,10.15,0,0,1,2.16,5c.11,2.33-1.27,4.43-2.6,6.34-1.46,2.1-3.18,4.38-5.7,4.85-2.83.54-5.48-1.4-7.71-3.23-7.92-6.49-14.89-10.21-19.26-19.48"/><path d="M251.23,436.87c-1.62-5,2.19-9.93,7.21-10.48,4.67-.51,8.78,2.05,12.1,5.05a65.55,65.55,0,0,1,7.32,8c2.78,3.49,7,7.71,4.82,12.51-1.84,4-6.06,8-10.52,5.24a87.83,87.83,0,0,1-7.22-5.57c-5.64-4.36-10.61-8.65-13.86-15.14-.87-1.72-3.45-.21-2.59,1.52a38.14,38.14,0,0,0,10.11,12.43c4.11,3.42,8.51,7.75,13.31,10.09,7.43,3.62,16.19-6.17,14.36-13.5-1.23-4.9-6.23-9.85-9.51-13.52-3.74-4.19-8.09-8.47-13.74-9.82-8.37-2-17.62,4.83-14.68,14,.59,1.83,3.48,1.05,2.89-.8Z"/><path class="c" d="M249.74,436.19A17.35,17.35,0,0,1,262,427.51l19.22,18.41c1.7,1.63,3.49,3.41,4,5.72.75,3.74-2.16,7.12-4.85,9.81s-6.26,5.67-9.93,4.56c-2.17-.65-3.67-2.57-5-4.39a247.13,247.13,0,0,1-15.6-24.35"/><path d="M251,437c1.74-2.9,5.54-7.38,9.29-7.5,2.8-.1,6.17,4.46,8.15,6.35l8.92,8.55c3.37,3.23,8.15,6.56,5.33,11.83-1.48,2.76-4.93,6.4-7.78,7.69-5.94,2.68-8.73-3.57-11.41-7.43-4.47-6.44-8.6-13.1-12.46-19.93a1.5,1.5,0,0,0-2.59,1.52c3.26,5.77,6.72,11.43,10.42,16.93,2.47,3.69,5.35,9.58,9.49,11.82,6.9,3.73,16-5.18,17.93-11.36,1.18-3.8-.47-6.83-3-9.56-4.65-4.94-9.85-9.46-14.75-14.15-1.52-1.46-3.84-4.72-5.79-5.5-1.57-.62-3.77.45-5.21,1.06a19.54,19.54,0,0,0-9.09,8.17c-1,1.65,1.59,3.16,2.59,1.51Z"/><path d="M257.29,443.66l6.52-7.06c1.3-1.42-.81-3.54-2.12-2.12l-6.52,7.06c-1.31,1.42.81,3.54,2.12,2.12Z"/><path d="M262.19,449.64l7.53-7.67c1.36-1.37-.76-3.5-2.12-2.12l-7.53,7.67c-1.36,1.38.76,3.5,2.12,2.12Z"/><path d="M267.76,456.84l8.12-8.17a1.5,1.5,0,0,0-2.13-2.12l-8.11,8.17a1.5,1.5,0,0,0,2.12,2.12Z"/><path class="b" d="M425.41,168.45c7.89,12.08,6.73,31.5,4.25,45.71S416,238.56,403.08,245a16.82,16.82,0,0,0-4,2.37,31.8,31.8,0,0,0-2.8,3.5,11.22,11.22,0,0,1-10.5,4.08c-3.86-.76-10.07-5.72-11.38-7.79a9.17,9.17,0,0,1-.78-7.12,10.88,10.88,0,0,1,4.76-6.65,7.91,7.91,0,0,1,8-.12c-.25-15.55-3.95-24.16-11-41.06Z"/><path d="M424.11,169.21c5.74,9.26,6.37,20.63,5.71,31.25-.7,11.16-2.48,21.79-10.11,30.44a52.2,52.2,0,0,1-12.15,9.9c-3.67,2.23-7.95,3.58-10.79,6.88-2.58,3-5.12,6.12-9.54,5.9-3-.14-5.92-2.23-8.23-4.05-2.7-2.13-4.46-4-4.1-7.85.48-5.14,5.38-9.69,10.7-7.14a1.53,1.53,0,0,0,2.26-1.3c-.36-14.91-5.39-27.87-11.09-41.46l-.69,1.69,50.09-23.72c1.74-.83.22-3.42-1.52-2.59l-50.09,23.72a1.5,1.5,0,0,0-.68,1.7c5.59,13.33,10.63,26,11,40.66l2.25-1.3c-11.82-5.65-20.27,11.1-11.11,19,4,3.49,9,6.65,14.54,5.25,2.94-.75,5-2.5,7-4.61s3.58-3.93,6.27-5.34c1.77-.92,3.53-1.83,5.23-2.87,12.55-7.6,20.6-18.37,22.7-32.95,2-14.05,2.69-30.21-5.06-42.75C425.69,166.06,423.1,167.56,424.11,169.21Z"/><path d="M374.49,248a9.55,9.55,0,0,0,7.77-3.13c1.3-1.42-.82-3.55-2.12-2.12a6.69,6.69,0,0,1-5.65,2.25c-1.92-.14-1.91,2.86,0,3Z"/><path d="M379,252.2a8.49,8.49,0,0,0,7.41-4.4c.93-1.69-1.66-3.2-2.59-1.51A5.48,5.48,0,0,1,379,249.2a1.5,1.5,0,0,0,0,3Z"/><path d="M385,255.28a9.7,9.7,0,0,0,6.45-4.36c1.06-1.63-1.54-3.13-2.59-1.52a6.78,6.78,0,0,1-4.66,3c-1.89.33-1.09,3.22.8,2.89Z"/><path d="M376.46,195.09l3.67-29.27c.23-1.91-2.77-1.89-3,0l-3.67,29.27c-.24,1.91,2.76,1.89,3,0Z"/><path d="M303.38,297.2a36.07,36.07,0,0,0,24.47,16.38c1.89.33,2.7-2.56.8-2.89a33.17,33.17,0,0,1-22.68-15c-1-1.63-3.63-.13-2.59,1.51Z"/><path d="M308.82,296.55a36.16,36.16,0,0,0,21.24,11.94c1.88.32,2.7-2.57.79-2.9a33.61,33.61,0,0,1-19.91-11.17c-1.27-1.45-3.38.68-2.12,2.13Z"/><path d="M188.5,313.33a48.55,48.55,0,0,0,17.77-16c1.08-1.6-1.51-3.11-2.59-1.51A45.46,45.46,0,0,1,187,310.74c-1.71.9-.2,3.49,1.51,2.59Z"/><path d="M187.12,320.57A71.65,71.65,0,0,0,212.21,298c1.1-1.6-1.5-3.1-2.59-1.52a68.31,68.31,0,0,1-24,21.5c-1.7.92-.19,3.51,1.51,2.59Z"/><path d="M339.92,182.46c-3.11,4.19-6.28,8.5-7.72,13.51a6.7,6.7,0,0,0-.14,4.17,2.86,2.86,0,0,0,3.35,1.87l9.81-14.1a7.78,7.78,0,0,0,1.69-3.69c.21-2.89-3.71-5.1-6.07-3.41"/><path d="M173.79,189c1.79,4.9,3.64,9.92,7,13.88a6.61,6.61,0,0,0,3.41,2.41,2.87,2.87,0,0,0,3.41-1.77l-6.39-15.95a7.76,7.76,0,0,0-2.15-3.44c-2.3-1.77-6.3.3-6.18,3.2"/><path d="M233.51,60a17,17,0,0,0-9-2.81c-1.93-.06-1.93,2.94,0,3a14,14,0,0,1,7.47,2.4c1.62,1.07,3.12-1.52,1.52-2.59Z"/><path d="M232,63.26a13.39,13.39,0,0,0-8.69,1.16c-1.73.86-.21,3.45,1.51,2.59a10.05,10.05,0,0,1,6.38-.86c1.89.37,2.7-2.52.8-2.89Z"/><path d="M266.2,78.22l6.51-3.67c1.69-.94.18-3.54-1.51-2.59l-6.52,3.67c-1.68.94-.17,3.54,1.52,2.59Z"/><path d="M268.49,82.44a19.12,19.12,0,0,1,7.74-.76c1.92.2,1.91-2.8,0-3a21.12,21.12,0,0,0-8.54.87c-1.84.57-1.05,3.47.8,2.89Z"/><path d="M228.75,97.65l-4.48,4.07c-1.43,1.3.69,3.42,2.12,2.12l4.48-4.07c1.43-1.3-.69-3.42-2.12-2.12Z"/><path d="M233.25,99.33,231.83,103a1.51,1.51,0,0,0,1,1.85,1.54,1.54,0,0,0,1.85-1l1.42-3.66a1.51,1.51,0,0,0-1-1.85,1.54,1.54,0,0,0-1.85,1Z"/><path d="M240.12,97.9a11.88,11.88,0,0,0,.87,5.89,1.56,1.56,0,0,0,1.84,1,1.51,1.51,0,0,0,1-1.85,10,10,0,0,1-.76-5.09c.2-1.92-2.8-1.91-3,0Z"/><path d="M245.61,39.65a13.6,13.6,0,0,0-3-6.31c-1.22-1.49-3.34.64-2.12,2.13a10.68,10.68,0,0,1,2.2,5c.34,1.9,3.23,1.1,2.89-.8Z"/><path d="M242.17,39.59l-4.27-2a1.56,1.56,0,0,0-2.06.54,1.52,1.52,0,0,0,.54,2l4.28,2a1.54,1.54,0,0,0,2.05-.54,1.51,1.51,0,0,0-.54-2Z"/><path d="M236.12,41.65l-7.53,1.4c-1.9.35-1.1,3.25.79,2.89l7.54-1.4c1.9-.35,1.1-3.24-.8-2.89Z"/><path d="M259.61,73.64A44.78,44.78,0,0,1,277,66.18c1.9-.37,1.09-3.26-.79-2.89a46.77,46.77,0,0,0-18.15,7.76c-1.56,1.11-.07,3.71,1.51,2.59Z"/><path d="M240.42,68.72a40.31,40.31,0,0,0-22.34,3.69c-1.75.82-.23,3.41,1.51,2.59a37.55,37.55,0,0,1,20.83-3.28c1.92.23,1.9-2.77,0-3Z"/><path d="M145.35,211.05l-.11-.1L141,215.19c1.62,1.55,2.64,6.61,3.53,8.75q2.44,5.94,5,11.84c4.38,10.15,9,20.18,14.29,29.9l1.8-4.4c-6.64,1.71-14.42,2-18.72-4.32-2.88-4.22-3.61-9.76-3.82-14.73-.41-9.5,1.14-19,3.05-28.26.77-3.77-5-5.38-5.79-1.6-3,14.43-7.58,35.6,2.13,48.68,5.9,7.94,15.91,8.29,24.74,6a3,3,0,0,0,1.79-4.41c-5.49-10.18-10.34-20.68-14.9-31.32-1.82-4.24-3.58-8.51-5.35-12.78-.92-2.25-1.7-5.88-3.5-7.6-2.79-2.67-7,1.56-4.24,4.24l.1.1C143.89,218,148.14,213.73,145.35,211.05Z"/><path d="M428.3,167.65c-7-21.52-25-38.25-42.57-51.48-16.08-12.08-34.88-23.94-54.55-29.09-15.35-4-32.3-4-47.84-1.27l3.38,4.41c5.15-9.44,10-20.3,7.78-31.29a21.54,21.54,0,0,0-18.85-17L277.77,47c5.26-5.85,3.53-13.73-3.62-17-8.06-3.74-16,1-22,6.23l4.71,3.63c4.39-7.09,1-16.43-5.9-20.6-9.08-5.47-21.23-2-30,2.41-8.26,4.17-15.47,12.25-14.51,22.08.86,8.7,9,15.07,17.64,13l-1.6-5.78c-6.05,2-12.16,1.61-18,4.89A26.75,26.75,0,0,0,191.7,71.64c-4.17,14.8,5.51,29.07,20.94,29.82l-2.59-4.52-.23.38,2.59-1.49a153.91,153.91,0,0,0-91.84,33.85l5.12,2.12v0c-.39-3-5.33-4.49-5.89-.79.07-.49-3.51,2.33-4,2.72s-.43,1.06-.77,1.33c2.54-2-.48-.46-.47-.47-2.67,1.09-5.47,4.12-7.73,5.92q-8.55,6.83-16.45,14.38a257.35,257.35,0,0,0-31.25,35.68c-18,24.88-33.13,56.15-31.07,87.63,1.32,20.27,11.88,38.07,30,47.67,18.82,10,41.44,10.73,62,6.67,26.27-5.18,51.05-19,68.52-39.38l-3.63.47a22.79,22.79,0,0,0,6.19,3l-1.79-4.4c-11.74,22.92-3.7,51.85,10,71.8,1.37,2,4.87,2,5.48-.72l.21-.93h-5.78c6,28.5,32.23,47.41,49.85,68.69l-.47-3.63c-3.65,6.32-2,10.8,1.64,16.62,4.28,6.94,8.46,14.15,13.62,20.49,3.48,4.28,8.29,6.07,13.37,3.23,4.51-2.53,9.8-7.75,10.82-13,1.32-6.7-1.85-11.82-5.77-16.9-2.13-2.77-3.31-4.45-4.16-7.79-.43-1.7-.84-3.36-1.13-5.08-1.58-9.38-2.3-18.94-3.21-28.4q-1.74-18.21-3.22-36.45L265,361.67c4,7.12,10.16,12.44,18.14,14.58L281,372.56c-.77,5.37-2.32,12.37.65,17.33,2.64,4.4,8.18,5.48,12.95,5.45,13.76-.1,12.58-16.71,9.47-26.18l-1.38,3.39c10.14-6.48,17.48-16.71,22.29-27.6A75.7,75.7,0,0,0,330,328.4c1.39-7.24,3.15-13.93,3.28-21.38l-3.8,2.89.14,0c3.17.57,5.46-3.71,2.31-5.48l-.14-.08,1.49,2.59c-.1-7.19-1.16-14.18-4.41-20.66l-.47,3.64c6.08-5.56,10.65-12.44,15-19.4,4.66-7.5,9.76-14.72,14.34-22.26A160.06,160.06,0,0,0,378,195.53l-2.89,2.2h1.3l-2.9-2.2c5.17,12.35,9.53,24.17,9.86,37.7l4.51-2.59c-13.29-6.36-23.48,12.29-12.93,21.37,4.45,3.83,9.92,7.22,16,5.64a15.66,15.66,0,0,0,7.92-5.31c3.24-3.74,6.82-5.15,11-7.66,12.85-7.79,21.23-18.91,23.38-33.85,2.09-14.45,2.77-31-5.21-43.9-2-3.28-7.22-.27-5.18,3,5.59,9,6.14,20.13,5.5,30.49-.67,10.73-2.32,21-9.67,29.38a50.87,50.87,0,0,1-11.85,9.67c-3.93,2.38-8.33,3.81-11.32,7.42-4.94,5.94-9.62,6.12-15.57,1.42-2.28-1.8-3.81-3.22-3.54-6.47.35-4,4.16-8.11,8.47-6,2,.94,4.57-.16,4.52-2.59-.35-14.08-4.69-26.43-10.07-39.29a3.15,3.15,0,0,0-2.89-2.21h-1.3a3,3,0,0,0-2.89,2.2,155.06,155.06,0,0,1-19.64,51.32c-4.18,6.87-8.88,13.41-13.1,20.26-4.45,7.22-9,14.42-15.27,20.19a3.05,3.05,0,0,0-.47,3.63,35.26,35.26,0,0,1,3.41,13.15c.19,2.31-.63,5.78,1.8,7.15l2.31-5.48-.14,0a3,3,0,0,0-3.79,2.9c-.12,6.87-1.79,13.12-3.06,19.78A71,71,0,0,1,320,341.58c-4.31,10.07-10.94,19.82-20.28,25.79a3.07,3.07,0,0,0-1.38,3.39A33.59,33.59,0,0,1,300,381c0,4.28-.5,7.84-5.42,8.35-3,.32-7.22-.61-8.32-3.81s0-8.23.5-11.37a3.08,3.08,0,0,0-2.09-3.69c-6.52-1.76-11.29-6-14.56-11.83-1.4-2.48-5.84-1.52-5.59,1.51,1.75,21.09,3.24,42.29,6.17,63.25.49,3.51,1.29,6.82,2.1,10.27,1.72,7.33,10.1,11.06,9.46,19.36-.24,3.15-5.26,8.47-8.09,9.55-5.07,1.92-8.12-5.07-10.43-8.46S259,447,256.83,443.36c-2.6-4.27-5.95-7.91-3.06-12.92a3.09,3.09,0,0,0-.47-3.63c-16.92-20.44-42.59-38.71-48.31-66-.6-2.89-5.14-2.84-5.78,0l-.21.93,5.48-.72c-12.39-18-20.76-44.76-10-65.74a3,3,0,0,0-1.8-4.41,17,17,0,0,1-4.76-2.42,3,3,0,0,0-3.63.47c-27,31.53-77.22,50.54-117.39,34.47-18-7.21-30.32-22.65-32.55-42C30.93,251.75,44.93,221.73,61.22,198a246,246,0,0,1,33.91-39.35c5.42-5.13,11.05-10,16.91-14.66,2.62-2.07,5.37-4,8-6,1.14-.9,1-1.18,2.36-2,1-.59,3-2,3.18-3.35l-5.9-.8v0a3,3,0,0,0,5.12,2.12,146.3,146.3,0,0,1,70-30.61c4.16-.62,8.35-1,12.54-1.28,2.77-.16,6.18.63,7.86-2.06a3,3,0,0,0-2.6-4.51c-13.71-.66-20-15.72-13.1-27A22.92,22.92,0,0,1,213,58.71c3.71-1,7.4-.83,11.07-2s2.17-6.71-1.6-5.78c-7.18,1.76-11.28-5.92-9.67-12.06s7-10.16,12.56-12.69,12.77-4.8,18.92-3.2c5.82,1.52,11,8,7.37,13.85-1.88,3,2.23,5.77,4.71,3.64,3-2.59,6.44-5.28,10.52-5.72,4.23-.45,11.24,2.95,6.65,8.06a3,3,0,0,0,2.12,5.12c8.45.83,13.47,9,13.4,16.85s-3.76,15.58-7.51,22.45a3,3,0,0,0,3.39,4.41,111.25,111.25,0,0,1,43.25.91c7.69,1.79,15.05,5.13,22.08,8.66,19.6,9.85,38.31,22.78,53.42,38.75,8,8.47,15.2,18.14,18.84,29.33C423.71,172.91,429.5,171.34,428.3,167.65Z"/></svg>