<svg xmlns="http://www.w3.org/2000/svg" viewBox="0 0 1918 877"><defs><style>.a{fill:#f88334;}.b,.e{fill:#fff;}.c{fill:#fffcd9;}.d{fill:#f15a24;}.e{stroke:#fff;stroke-miterlimit:10;}</style></defs><title>finsh</title><path class="a" d="M68,401c5.6,5.7,2.78,17-4.83,19.42S46.7,415.17,48,407.29,60.13,395,66.56,399.77"/><path d="M65.84,403.11c6.8,7.63-3.59,19.78-11.89,12.11s2.81-18.37,11.1-12.86c3.22,2.15,6.23-3.05,3-5.18-6.22-4.12-14.92-2.51-19.8,3-5.41,6.1-3.79,15,2.24,20s14.88,4.92,19.92-1.43a15.53,15.53,0,0,0-.36-19.87c-2.57-2.89-6.8,1.36-4.24,4.24Z"/><path class="b" d="M313,532.73c3.56,3.62,1.77,10.8-3.06,12.33s-10.42-3.33-9.59-8.33S308,529,312.1,532"/><path d="M310.86,534.86c3.39,3.8-1.76,10-6,6.13s1.49-9.24,5.71-6.43c3.23,2.14,6.24-3.06,3-5.19-4.34-2.88-10.46-1.75-13.88,2.08-3.86,4.29-2.84,10.62,1.42,14.23s10.59,3.56,14.18-.91a11,11,0,0,0-.22-14.16c-2.58-2.89-6.81,1.37-4.25,4.25Z"/><path class="b" d="M137.1,366.87c3.55,3.62,1.76,10.8-3.07,12.32s-10.42-3.32-9.59-8.32,7.69-7.78,11.77-4.77"/><path d="M135,369c3.39,3.81-1.77,10-6,6.13s1.49-9.23,5.71-6.43c3.22,2.15,6.23-3.05,3-5.18-4.35-2.88-10.46-1.75-13.89,2.07-3.85,4.3-2.84,10.63,1.42,14.24s10.59,3.56,14.19-.91a11,11,0,0,0-.23-14.16c-2.57-2.89-6.8,1.37-4.24,4.24Z"/><path class="a" d="M115.19,599.11c3.55,3.61,1.76,10.79-3.07,12.32s-10.42-3.32-9.59-8.32,7.69-7.78,11.77-4.77"/><path d="M113.06,601.23c3.4,3.81-1.76,10-6,6.13s1.49-9.23,5.71-6.43c3.23,2.14,6.24-3,3-5.18-4.34-2.89-10.46-1.75-13.88,2.07-3.85,4.3-2.84,10.62,1.42,14.23s10.59,3.56,14.18-.91a11,11,0,0,0-.22-14.15c-2.58-2.89-6.81,1.36-4.25,4.24Z"/><path class="a" d="M303,426.86c5.61,5.7,2.79,17-4.83,19.43s-16.43-5.24-15.12-13.12,12.13-12.26,18.56-7.52"/><path d="M300.89,429c6.8,7.63-3.58,19.78-11.89,12.11s2.81-18.37,11.1-12.86c3.23,2.14,6.23-3.05,3-5.18-6.21-4.13-14.91-2.51-19.79,3-5.41,6.1-3.8,15,2.23,20s14.89,4.92,19.92-1.44a15.52,15.52,0,0,0-.35-19.87c-2.58-2.89-6.81,1.37-4.25,4.25Z"/><path d="M171,495.19a261.12,261.12,0,0,0-86.45-68.66c-1.72-.85-3.25,1.74-1.51,2.59a259.24,259.24,0,0,1,85.84,68.19c1.23,1.5,3.34-.64,2.12-2.12Z"/><path d="M169.88,490.4A231.1,231.1,0,0,0,60.41,475.11c-3.81.39-3.85,6.4,0,6a227.28,227.28,0,0,1,107.88,15.08c3.58,1.43,5.14-4.37,1.59-5.79Z"/><path d="M173.73,497a200.26,200.26,0,0,0-90.69-.4c-3.77.86-2.18,6.64,1.59,5.79a193.39,193.39,0,0,1,87.5.39c3.76.89,5.36-4.89,1.6-5.78Z"/><path d="M169,498.88A561.6,561.6,0,0,0,77.91,533c-1.74.83-.22,3.42,1.52,2.59a556.69,556.69,0,0,1,90.36-33.84,1.5,1.5,0,0,0-.8-2.89Z"/><path d="M172.26,495.87C129.3,514.27,112,563.79,93.82,603c-.81,1.74,1.78,3.27,2.59,1.51,17.94-38.76,34.93-87.9,77.36-106.08,1.77-.76.24-3.34-1.51-2.59Z"/><path d="M177.73,500.78a193.61,193.61,0,0,0-39.18,108.5c-.08,1.93,2.92,1.92,3,0a191,191,0,0,1,38.77-107c1.17-1.53-1.44-3-2.59-1.51Z"/><path d="M175.88,517.83l-1.08,49.41c0,1.93,3,1.93,3,0l1.08-49.41c0-1.93-3-1.93-3,0Z"/><path d="M189.12,506A177.21,177.21,0,0,1,220,550.81c.84,1.74,3.42.22,2.59-1.52a180.36,180.36,0,0,0-31.38-45.41c-1.33-1.4-3.45.72-2.13,2.12Z"/><path d="M195.55,501.14a156.31,156.31,0,0,1,85.14,26.62c1.6,1.08,3.11-1.51,1.51-2.59a159.14,159.14,0,0,0-86.65-27c-1.93,0-1.93,3,0,3Z"/><path d="M178.06,497.22a158.88,158.88,0,0,1,113.61-27.44c1.89.27,2.7-2.62.8-2.89a161.93,161.93,0,0,0-115.93,27.74c-1.56,1.11-.06,3.71,1.52,2.59Z"/><path d="M314.45,470.41a122.07,122.07,0,0,1,46.71,17.74c1.63,1,3.14-1.55,1.51-2.59a124.27,124.27,0,0,0-47.42-18.05c-1.89-.3-2.7,2.59-.8,2.9Z"/><path d="M229.69,517.05a203.86,203.86,0,0,1,66.81,53.33c1.22,1.49,3.33-.64,2.12-2.12a205.74,205.74,0,0,0-67.42-53.8c-1.72-.86-3.24,1.72-1.51,2.59Z"/><path d="M177.81,496.38c1.1-10.48,8.82-18.18,16.31-24.84,8.58-7.64,17.42-15,26.34-22.25q27.27-22.14,56.25-42.06c1.57-1.09.08-3.69-1.52-2.6q-30.78,21.24-59.77,44.92c-9.28,7.6-18.75,15.18-27.38,23.51-6.67,6.45-12.24,13.85-13.23,23.32-.2,1.92,2.8,1.9,3,0Z"/><path d="M180.77,478.86a411,411,0,0,1,39.68-68.77c1.13-1.57-1.47-3.07-2.59-1.51a411,411,0,0,0-39.68,68.77c-.79,1.74,1.79,3.27,2.59,1.51Z"/><path d="M173.15,482.39a194.91,194.91,0,0,1,22.92-93.6c.91-1.7-1.68-3.22-2.59-1.51a198.11,198.11,0,0,0-23.33,95.11,1.5,1.5,0,0,0,3,0Z"/><path d="M175,494.7a248.19,248.19,0,0,0-59.22-99c-1.36-1.38-3.48.74-2.13,2.12a244.93,244.93,0,0,1,58.46,97.71c.57,1.84,3.47,1.06,2.89-.79Z"/><path d="M98.89,378.86H97.82a1.5,1.5,0,0,0,0,3h1.07a1.5,1.5,0,0,0,0-3Z"/><path d="M174.89,590.87l-1,27.93c-.07,1.93,2.93,1.92,3,0l1-27.93c.07-1.93-2.93-1.93-3,0Z"/><path d="M63.05,516.38a138.78,138.78,0,0,0-31.5,13A1.5,1.5,0,0,0,33.06,532a135.14,135.14,0,0,1,30.79-12.73,1.51,1.51,0,0,0-.8-2.9Z"/><path d="M181.47,498.75a515.3,515.3,0,0,1-11-108.53c0-3.86-6-3.86-6,0a523.1,523.1,0,0,0,11.23,110.13c.79,3.77,6.58,2.17,5.78-1.6Z"/><path d="M178.29,495.53a192.15,192.15,0,0,1,115.36,3.12c3.66,1.27,5.23-4.53,1.59-5.78a197.88,197.88,0,0,0-118.55-3.13c-3.7,1.06-2.13,6.85,1.6,5.79Z"/><path d="M171,479.49a165.74,165.74,0,0,1,21.66,95.33c-.29,3.86,5.72,3.84,6,0a171.47,171.47,0,0,0-22.47-98.36c-1.93-3.34-7.12-.33-5.19,3Z"/><path d="M162.5,485.66a165.7,165.7,0,0,1,74.23,63.7c2.05,3.26,7.25.25,5.19-3a171.28,171.28,0,0,0-76.39-65.85c-3.51-1.52-6.57,3.64-3,5.18Z"/><path d="M180.09,486.09a197.07,197.07,0,0,1,71.11-31.93c3.76-.85,2.17-6.64-1.6-5.78a201.41,201.41,0,0,0-72.54,32.53c-3.12,2.22-.12,7.43,3,5.18Z"/><path d="M185.43,496.36a431.06,431.06,0,0,0-111.81-44c-3.75-.89-5.35,4.89-1.59,5.79A425.34,425.34,0,0,1,182.4,501.54c3.37,1.9,6.4-3.28,3-5.18Z"/><path d="M184.44,495.37a622,622,0,0,0-72.57-67.09c-3-2.36-7.27,1.86-4.24,4.24a622,622,0,0,1,72.57,67.1c2.63,2.84,6.86-1.41,4.24-4.25Z"/><path d="M174.43,493a229,229,0,0,0-49.88,76c-1.44,3.58,4.36,5.14,5.78,1.6a221.63,221.63,0,0,1,48.34-73.38c2.73-2.75-1.52-7-4.24-4.25Z"/><path d="M175.75,492.2a229.12,229.12,0,0,0-76.47,49.2c-2.77,2.7,1.47,6.94,4.24,4.24A221.56,221.56,0,0,1,177.35,498c3.56-1.39,2-7.2-1.6-5.79Z"/><path d="M72.75,513.39A86.59,86.59,0,0,0,24.67,533.6c-3,2.5,1.31,6.73,4.24,4.25a79.51,79.51,0,0,1,43.84-18.46c3.81-.36,3.85-6.36,0-6Z"/><path d="M100.15,379.48v-1a3,3,0,0,0-6,0v1a3,3,0,0,0,6,0Z"/><path d="M237.39,560.6l16.68,29.26c1.91,3.35,7.1.33,5.18-3l-16.68-29.26c-1.91-3.36-7.1-.34-5.18,3Z"/><path d="M237.06,400.22l25.06-25.73c2.7-2.76-1.54-7-4.24-4.24L232.82,396c-2.7,2.76,1.54,7,4.24,4.24Z"/><path class="a" d="M223.05,509.48c5.61,5.7,2.79,17-4.83,19.43s-16.43-5.24-15.12-13.12,12.13-12.27,18.56-7.52"/><path d="M220.93,511.6c6.8,7.64-3.59,19.79-11.89,12.11s2.81-18.36,11.1-12.85c3.23,2.14,6.23-3.05,3-5.18-6.21-4.13-14.91-2.51-19.79,3-5.41,6.1-3.8,15,2.23,20s14.89,4.93,19.92-1.43a15.52,15.52,0,0,0-.35-19.87c-2.58-2.89-6.81,1.37-4.25,4.24Z"/><path class="b" d="M200.21,438.43c3.55,3.61,1.77,10.79-3.07,12.32s-10.42-3.33-9.58-8.33,7.69-7.77,11.76-4.76"/><path d="M198.09,440.55c3.39,3.81-1.77,10-6,6.13s1.49-9.24,5.71-6.43c3.22,2.14,6.23-3.05,3-5.18-4.35-2.89-10.46-1.76-13.89,2.07-3.85,4.3-2.84,10.62,1.42,14.23s10.59,3.56,14.19-.91a11,11,0,0,0-.23-14.16c-2.57-2.88-6.8,1.37-4.24,4.25Z"/><path class="b" d="M89.19,532.73c3.55,3.62,1.77,10.8-3.07,12.33s-10.42-3.33-9.59-8.33S84.23,529,88.3,532"/><path d="M87.07,534.86c3.39,3.8-1.77,10-6,6.13s1.49-9.24,5.71-6.43c3.22,2.14,6.23-3.06,3-5.19-4.35-2.88-10.46-1.75-13.89,2.08-3.85,4.29-2.84,10.62,1.42,14.23s10.59,3.56,14.19-.91a11,11,0,0,0-.23-14.16c-2.57-2.89-6.8,1.37-4.24,4.25Z"/><path class="b" d="M157.43,527.15c3.55,3.62,1.77,10.8-3.07,12.32s-10.42-3.32-9.58-8.32,7.69-7.78,11.76-4.77"/><path d="M155.31,529.27c3.39,3.81-1.77,10-6,6.13s1.49-9.23,5.71-6.43c3.22,2.15,6.23-3.05,3-5.18-4.35-2.89-10.46-1.75-13.89,2.07-3.85,4.3-2.84,10.62,1.42,14.23s10.59,3.57,14.19-.91a11,11,0,0,0-.23-14.15c-2.57-2.89-6.8,1.37-4.24,4.24Z"/><path class="b" d="M134.87,460.78c4.43,4.51,2.2,13.46-3.82,15.37s-13-4.15-12-10.38,9.59-9.7,14.67-5.95"/><path d="M132.75,462.9c4.85,5.45-2.54,14.18-8.52,8.7s2.06-13.15,8-9.19c3.23,2.14,6.23-3.05,3-5.18-5.15-3.42-12.37-2.08-16.42,2.47-4.52,5.07-3.25,12.48,1.77,16.7s12.43,4.14,16.64-1.14a12.91,12.91,0,0,0-.28-16.6c-2.57-2.89-6.8,1.36-4.24,4.24Z"/><path d="M542.48-23.71C550.75-14.42,538.09.33,528-9c-9.88-9.15,3.38-22.32,13.44-15.64,3.22,2.15,6.23-3.05,3-5.18-7-4.66-16.84-2.84-22.35,3.4-6.09,6.88-4.21,16.86,2.59,22.49s16.77,5.53,22.4-1.66a17.5,17.5,0,0,0-.41-22.35c-2.57-2.89-6.8,1.36-4.24,4.24Z"/><path class="b" d="M828.5,126.82c4.12,4.19,2,12.51-3.55,14.28s-12.07-3.85-11.11-9.65,8.91-9,13.64-5.52"/><path d="M826.38,128.94c4.33,4.87-2.26,12.68-7.61,7.78s1.85-11.75,7.19-8.2c3.23,2.14,6.23-3.05,3-5.18-4.86-3.23-11.69-2-15.51,2.32-4.28,4.8-3.1,11.82,1.64,15.82s11.77,3.93,15.77-1a12.22,12.22,0,0,0-.27-15.73c-2.57-2.89-6.8,1.37-4.24,4.24Z"/><path class="a" d="M599.32,203.73c4.12,4.19,2,12.51-3.55,14.27s-12.08-3.85-11.11-9.64,8.91-9,13.63-5.52"/><path d="M597.2,205.85c4.33,4.86-2.26,12.67-7.62,7.77s1.86-11.74,7.2-8.19c3.22,2.14,6.23-3.06,3-5.18-4.85-3.23-11.68-2-15.51,2.32-4.28,4.8-3.1,11.82,1.65,15.82s11.76,3.93,15.76-1.06a12.2,12.2,0,0,0-.26-15.72c-2.57-2.89-6.8,1.36-4.24,4.24Z"/><path class="a" d="M817,4.15c6.49,6.6,3.23,19.72-5.6,22.51s-19-6.07-17.52-15.21,14-14.2,21.5-8.7"/><path d="M814.83,6.27c8.28,9.3-4.38,24-14.45,14.71-9.87-9.15,3.38-22.33,13.44-15.64,3.22,2.14,6.23-3.06,3-5.19-7-4.66-16.85-2.84-22.36,3.4-6.08,6.88-4.21,16.86,2.59,22.49s16.77,5.54,22.41-1.66A17.52,17.52,0,0,0,819.07,2c-2.57-2.89-6.8,1.37-4.24,4.24Z"/><path d="M663.78,83.49A302.12,302.12,0,0,0,563.66,4c-1.73-.85-3.25,1.74-1.52,2.59a300.18,300.18,0,0,1,99.52,79.05c1.22,1.49,3.33-.64,2.12-2.12Z"/><path d="M662.57,78.23a267,267,0,0,0-126.72-17.7c-3.81.39-3.85,6.4,0,6A263.15,263.15,0,0,1,661,84c3.59,1.44,5.14-4.36,1.6-5.78Z"/><path d="M667,85.84a231,231,0,0,0-104.83-.46c-3.76.86-2.17,6.64,1.6,5.78a224.09,224.09,0,0,1,101.64.46c3.75.9,5.36-4.89,1.59-5.78Z"/><path d="M661.73,87.82a648.19,648.19,0,0,0-105.48,39.54c-1.74.83-.22,3.42,1.51,2.59A643.7,643.7,0,0,1,662.53,90.72a1.51,1.51,0,0,0-.8-2.9Z"/><path d="M665.57,84.31c-49.74,21.23-69.79,78.7-90.8,124.08-.81,1.74,1.77,3.27,2.59,1.52,20.79-44.92,40.51-102,89.72-123,1.77-.75.24-3.34-1.51-2.59Z"/><path d="M672,89.91a223.91,223.91,0,0,0-45.36,125.6c-.08,1.93,2.92,1.93,3,0a221.2,221.2,0,0,1,45-124.08c1.17-1.54-1.43-3-2.59-1.52Z"/><path d="M669.88,109.55l-1.25,57.25c0,1.93,3,1.93,3,0l1.25-57.25c0-1.93-3-1.93-3,0Z"/><path d="M685.16,95.68a204.74,204.74,0,0,1,35.85,52c.84,1.74,3.43.22,2.59-1.51a207.47,207.47,0,0,0-36.32-52.57c-1.33-1.41-3.45.72-2.12,2.12Z"/><path d="M692.44,90a181,181,0,0,1,98.76,30.89c1.61,1.08,3.11-1.52,1.52-2.59A183.9,183.9,0,0,0,692.44,87a1.5,1.5,0,0,0,0,3Z"/><path d="M672.05,85.47A184.12,184.12,0,0,1,803.87,53.65c1.89.27,2.71-2.62.8-2.9A187.18,187.18,0,0,0,670.53,82.88c-1.56,1.1-.06,3.71,1.52,2.59Z"/><path d="M830.27,54.37A141.25,141.25,0,0,1,884.44,75c1.63,1,3.14-1.55,1.52-2.59a143.32,143.32,0,0,0-54.89-20.89c-1.89-.3-2.71,2.59-.8,2.89Z"/><path d="M732.11,108.44a235.87,235.87,0,0,1,77.46,61.83c1.22,1.5,3.33-.64,2.12-2.12a237.85,237.85,0,0,0-78.07-62.3c-1.72-.86-3.24,1.73-1.51,2.59Z"/><path d="M671.65,84.7c1.23-12.27,10.35-21.32,19.12-29.09,10-8.85,20.21-17.4,30.56-25.8q31.53-25.59,65-48.62c1.58-1.09.08-3.69-1.52-2.59Q749.53,2.93,716.3,30.06c-10.74,8.78-21.64,17.57-31.7,27.12-7.94,7.55-14.82,16.29-16,27.52-.2,1.91,2.8,1.9,3,0Z"/><path d="M675.1,64.28a475.23,475.23,0,0,1,46-79.68c1.13-1.57-1.47-3.07-2.59-1.51a474.84,474.84,0,0,0-46,79.68c-.79,1.74,1.8,3.27,2.59,1.51Z"/><path d="M666.24,68.49A225.66,225.66,0,0,1,692.83-40.08c.91-1.71-1.68-3.22-2.59-1.52a229,229,0,0,0-27,110.09,1.5,1.5,0,0,0,3,0Z"/><path d="M668.43,82.81A287,287,0,0,0,599.87-31.83c-1.35-1.39-3.47.74-2.12,2.12A283.73,283.73,0,0,1,665.54,83.61c.57,1.83,3.47,1,2.89-.8Z"/><path d="M668.73,194.18l-1.2,32.36c-.07,1.93,2.93,1.93,3,0l1.2-32.36c.07-1.93-2.93-1.93-3,0Z"/><path d="M539,108.11a158.86,158.86,0,0,0-36.45,15.08,1.5,1.5,0,0,0,1.51,2.59A155.82,155.82,0,0,1,539.77,111a1.5,1.5,0,0,0-.79-2.89Z"/><path d="M675.66,87.57A596.74,596.74,0,0,1,662.89-38.3c0-3.86-6-3.87-6,0a604,604,0,0,0,13,127.47c.79,3.77,6.58,2.17,5.78-1.6Z"/><path d="M672.31,83.25a222.94,222.94,0,0,1,133.92,3.62c3.65,1.27,5.22-4.53,1.59-5.78a228.5,228.5,0,0,0-137.11-3.62c-3.7,1.06-2.13,6.85,1.6,5.78Z"/><path d="M664.43,64.89a192.29,192.29,0,0,1,25.16,110.7c-.29,3.85,5.71,3.83,6,0a197.94,197.94,0,0,0-26-113.73c-1.93-3.34-7.12-.33-5.18,3Z"/><path d="M654.38,71.87a192.25,192.25,0,0,1,86.19,74c2,3.26,7.24.26,5.18-3a197.7,197.7,0,0,0-88.34-76.12c-3.51-1.53-6.57,3.64-3,5.18Z"/><path d="M674.28,72.36a228.17,228.17,0,0,1,82.5-37c3.77-.85,2.18-6.63-1.59-5.78a232.48,232.48,0,0,0-83.94,37.64c-3.11,2.23-.12,7.44,3,5.18Z"/><path d="M680.47,85.08A498.46,498.46,0,0,0,551,34.2c-3.75-.89-5.35,4.89-1.59,5.79a492.25,492.25,0,0,1,128,50.27c3.37,1.9,6.39-3.28,3-5.18Z"/><path d="M679.23,83.87A718.65,718.65,0,0,0,595.14,6.13c-3-2.36-7.27,1.85-4.24,4.24A720.25,720.25,0,0,1,675,88.11c2.62,2.85,6.86-1.41,4.24-4.24Z"/><path d="M668.3,81.09A264.21,264.21,0,0,0,610.62,169c-1.43,3.58,4.37,5.14,5.79,1.59a256.81,256.81,0,0,1,56.13-85.23c2.73-2.74-1.51-7-4.24-4.24Z"/><path d="M669.62,80.32a264,264,0,0,0-88.39,56.88c-2.77,2.7,1.47,6.94,4.24,4.24A257.06,257.06,0,0,1,671.22,86.1c3.56-1.39,2-7.19-1.6-5.78Z"/><path d="M550.15,104.89a99.39,99.39,0,0,0-55.37,23.27c-2.95,2.5,1.31,6.73,4.24,4.25a92.38,92.38,0,0,1,51.13-21.52c3.81-.36,3.85-6.36,0-6Z"/><path d="M741.33,158.86l19.32,33.91c1.91,3.35,7.1.33,5.18-3l-19.32-33.91c-1.92-3.35-7.1-.33-5.18,3Z"/><path class="a" d="M724.3,99.88c6.49,6.6,3.23,19.72-5.6,22.51s-19-6.08-17.51-15.21,14-14.21,21.49-8.71"/><path d="M722.18,102c8.28,9.29-4.38,24-14.45,14.7-9.87-9.15,3.38-22.32,13.44-15.64,3.22,2.15,6.23-3,3-5.18-7-4.67-16.85-2.84-22.36,3.4-6.08,6.88-4.21,16.85,2.59,22.49s16.77,5.53,22.41-1.66a17.53,17.53,0,0,0-.41-22.35c-2.58-2.89-6.81,1.36-4.25,4.24Z"/><path class="b" d="M697.83,17.55c4.12,4.18,2,12.5-3.55,14.27S682.21,28,683.17,22.18s8.91-9,13.64-5.52"/><path d="M695.71,19.67c4.33,4.86-2.26,12.67-7.61,7.77s1.86-11.74,7.19-8.19c3.23,2.14,6.24-3.06,3-5.19-4.86-3.22-11.68-2-15.51,2.33-4.28,4.79-3.1,11.82,1.64,15.82s11.77,3.93,15.77-1.06A12.21,12.21,0,0,0,700,15.43c-2.58-2.89-6.81,1.36-4.25,4.24Z"/><path class="b" d="M911.32,78.56c4.12,4.19,2,12.51-3.55,14.28S895.69,89,896.66,83.19s8.91-9,13.63-5.52"/><path d="M909.2,80.68c4.33,4.86-2.26,12.67-7.62,7.78s1.86-11.75,7.2-8.2c3.22,2.14,6.23-3.05,3-5.18-4.86-3.23-11.69-2-15.51,2.32-4.29,4.8-3.11,11.82,1.64,15.82s11.77,3.93,15.76-1.06a12.2,12.2,0,0,0-.26-15.72c-2.57-2.89-6.8,1.36-4.24,4.24Z"/><path class="b" d="M569.2,126.82c4.11,4.19,2,12.51-3.56,14.28s-12.07-3.85-11.11-9.65,8.92-9,13.64-5.52"/><path d="M567.08,128.94c4.33,4.87-2.26,12.68-7.62,7.78s1.86-11.75,7.2-8.2c3.22,2.14,6.23-3.05,3-5.18-4.85-3.23-11.68-2-15.51,2.32-4.28,4.8-3.1,11.82,1.65,15.82s11.76,3.93,15.76-1a12.22,12.22,0,0,0-.26-15.73c-2.57-2.89-6.81,1.37-4.24,4.24Z"/><path class="b" d="M648.27,120.35c4.11,4.19,2,12.51-3.56,14.28s-12.07-3.85-11.11-9.65,8.91-9,13.64-5.52"/><path d="M646.14,122.47c4.34,4.87-2.26,12.68-7.61,7.78s1.86-11.75,7.19-8.2c3.23,2.14,6.24-3,3-5.18-4.86-3.23-11.68-2-15.51,2.32C629,124,630.14,131,634.89,135s11.76,3.93,15.76-1a12.23,12.23,0,0,0-.26-15.73c-2.58-2.89-6.81,1.37-4.25,4.24Z"/><path class="b" d="M622.13,43.45c5.13,5.22,2.55,15.6-4.43,17.8s-15.06-4.8-13.86-12S615,38,620.85,42.34"/><path d="M620,45.57c6,6.76-3.17,17.55-10.55,10.75S612,40,619.33,44.93c3.23,2.14,6.23-3.06,3-5.18-5.79-3.85-13.9-2.34-18.45,2.78-5,5.69-3.57,14,2.05,18.68s13.91,4.61,18.62-1.32a14.48,14.48,0,0,0-.33-18.56c-2.57-2.89-6.81,1.36-4.24,4.24Z"/><path class="a" d="M1636.88,348.53c6.49,6.6,3.23,19.72-5.6,22.51s-19-6.07-17.52-15.2,14-14.21,21.5-8.71"/><path d="M1634.76,350.65c8.27,9.3-4.39,24-14.45,14.71-9.88-9.15,3.38-22.33,13.44-15.64,3.22,2.14,6.23-3.05,3-5.18-7-4.67-16.84-2.84-22.35,3.39-6.09,6.88-4.21,16.86,2.59,22.49s16.77,5.54,22.4-1.66a17.5,17.5,0,0,0-.41-22.35c-2.57-2.89-6.8,1.37-4.24,4.24Z"/><path class="b" d="M1920.78,501.18c4.12,4.19,2,12.51-3.55,14.28s-12.07-3.85-11.11-9.64,8.91-9,13.64-5.53"/><path d="M1918.66,503.31c4.33,4.86-2.26,12.67-7.61,7.77s1.85-11.74,7.19-8.2c3.23,2.15,6.23-3.05,3-5.18-4.86-3.23-11.69-2-15.51,2.33-4.28,4.79-3.1,11.82,1.64,15.81s11.77,3.93,15.77-1.05a12.22,12.22,0,0,0-.27-15.73c-2.57-2.89-6.8,1.37-4.24,4.25Z"/><path class="b" d="M1717,309c4.12,4.19,2,12.51-3.55,14.28s-12.08-3.85-11.11-9.64,8.91-9,13.63-5.53"/><path d="M1714.87,311.13c4.33,4.86-2.26,12.67-7.62,7.77s1.86-11.74,7.2-8.2c3.22,2.15,6.23-3.05,3-5.18-4.86-3.23-11.69-2-15.52,2.33-4.28,4.79-3.1,11.82,1.65,15.81s11.76,3.93,15.76-1.05a12.22,12.22,0,0,0-.26-15.73c-2.57-2.89-6.8,1.37-4.24,4.25Z"/><path class="a" d="M1691.6,578.09c4.12,4.19,2,12.51-3.55,14.28s-12.08-3.85-11.11-9.65,8.91-9,13.63-5.52"/><path d="M1689.48,580.21c4.33,4.87-2.26,12.68-7.62,7.78s1.86-11.75,7.2-8.2c3.22,2.14,6.23-3,3-5.18-4.85-3.23-11.68-2-15.51,2.32-4.28,4.8-3.1,11.82,1.65,15.82s11.76,3.93,15.76-1a12.22,12.22,0,0,0-.26-15.73c-2.57-2.89-6.8,1.37-4.24,4.24Z"/><path class="a" d="M1909.23,378.52c6.49,6.6,3.23,19.71-5.6,22.5s-19-6.07-17.52-15.2,14.05-14.21,21.5-8.71"/><path d="M1907.11,380.64c8.28,9.29-4.38,24-14.45,14.7-9.87-9.15,3.38-22.33,13.44-15.64,3.22,2.14,6.23-3.05,3-5.18-7-4.67-16.85-2.84-22.36,3.39-6.08,6.89-4.21,16.86,2.59,22.49s16.77,5.54,22.41-1.66a17.52,17.52,0,0,0-.42-22.35c-2.57-2.89-6.8,1.37-4.24,4.25Z"/><path d="M1756.06,457.85a302.25,302.25,0,0,0-100.12-79.52c-1.73-.85-3.25,1.74-1.52,2.59A300.18,300.18,0,0,1,1753.94,460c1.22,1.5,3.33-.64,2.12-2.12Z"/><path d="M1754.85,452.59a267.15,267.15,0,0,0-126.72-17.7c-3.81.4-3.85,6.4,0,6a263.28,263.28,0,0,1,125.12,17.49c3.59,1.43,5.14-4.37,1.6-5.79Z"/><path d="M1759.3,460.2a231,231,0,0,0-104.83-.46c-3.76.86-2.17,6.65,1.6,5.79a224,224,0,0,1,101.64.46c3.75.89,5.36-4.9,1.59-5.79Z"/><path d="M1754,462.19a648.15,648.15,0,0,0-105.48,39.53c-1.74.83-.22,3.42,1.51,2.59a643.7,643.7,0,0,1,104.77-39.23,1.5,1.5,0,0,0-.8-2.89Z"/><path d="M1757.85,458.67c-49.74,21.24-69.79,78.7-90.8,124.09-.81,1.74,1.77,3.26,2.59,1.51,20.79-44.91,40.51-102,89.72-123,1.77-.76.24-3.35-1.51-2.6Z"/><path d="M1764.27,464.28a223.88,223.88,0,0,0-45.36,125.59c-.08,1.93,2.92,1.93,3,0a221.23,221.23,0,0,1,44.95-124.08c1.17-1.53-1.43-3-2.59-1.51Z"/><path d="M1762.16,483.92l-1.25,57.24c0,1.93,3,1.93,3,0l1.25-57.24c0-1.93-3-1.93-3,0Z"/><path d="M1777.44,470a205,205,0,0,1,35.85,52c.84,1.73,3.43.21,2.59-1.52a207.47,207.47,0,0,0-36.32-52.57c-1.33-1.4-3.45.72-2.12,2.12Z"/><path d="M1784.72,464.34a180.92,180.92,0,0,1,98.76,30.88c1.61,1.08,3.11-1.52,1.52-2.59a183.89,183.89,0,0,0-100.28-31.29c-1.93,0-1.93,3,0,3Z"/><path d="M1764.33,459.83A184.17,184.17,0,0,1,1896.15,428c1.89.27,2.71-2.62.8-2.89a187.18,187.18,0,0,0-134.14,32.12c-1.56,1.11-.06,3.71,1.52,2.59Z"/><path d="M1824.39,482.8a235.77,235.77,0,0,1,77.46,61.84c1.22,1.49,3.33-.64,2.12-2.13a237.85,237.85,0,0,0-78.07-62.3c-1.72-.86-3.24,1.73-1.51,2.59Z"/><path d="M1763.93,459.06c1.23-12.27,10.35-21.31,19.12-29.09,10-8.84,20.21-17.4,30.56-25.8q31.53-25.57,65-48.62c1.58-1.08.08-3.69-1.52-2.59q-35.29,24.33-68.53,51.46c-10.74,8.78-21.64,17.57-31.7,27.13-7.94,7.54-14.82,16.28-16,27.51-.2,1.92,2.8,1.91,3,0Z"/><path d="M1767.38,438.64a475.63,475.63,0,0,1,46-79.68c1.13-1.57-1.47-3.07-2.59-1.51a475.23,475.23,0,0,0-46,79.68c-.79,1.75,1.8,3.27,2.59,1.51Z"/><path d="M1758.52,442.85a225.66,225.66,0,0,1,26.59-108.57c.91-1.7-1.68-3.22-2.59-1.51a229,229,0,0,0-27,110.08,1.5,1.5,0,0,0,3,0Z"/><path d="M1760.71,457.17a287.07,287.07,0,0,0-68.56-114.64c-1.35-1.38-3.47.74-2.12,2.12A283.8,283.8,0,0,1,1757.82,458c.57,1.84,3.47,1,2.89-.8Z"/><path d="M1672.72,323.13h-1.24a1.5,1.5,0,0,0,0,3h1.24a1.5,1.5,0,0,0,0-3Z"/><path d="M1761,568.54l-1.2,32.36c-.07,1.93,2.93,1.93,3,0l1.2-32.36c.07-1.93-2.93-1.92-3,0Z"/><path d="M1631.26,482.47a159.3,159.3,0,0,0-36.45,15.08,1.5,1.5,0,0,0,1.51,2.59,155.82,155.82,0,0,1,35.73-14.78,1.5,1.5,0,0,0-.79-2.89Z"/><path d="M1767.94,461.93a596.74,596.74,0,0,1-12.77-125.87c0-3.86-6-3.87-6,0a604,604,0,0,0,13,127.47c.79,3.78,6.58,2.18,5.78-1.6Z"/><path d="M1764.59,457.62a222.78,222.78,0,0,1,133.92,3.62c3.65,1.26,5.22-4.53,1.59-5.79A228.58,228.58,0,0,0,1763,451.83c-3.7,1.06-2.13,6.85,1.6,5.79Z"/><path d="M1756.71,439.25A192.29,192.29,0,0,1,1781.87,550c-.29,3.85,5.71,3.83,6,0a198,198,0,0,0-26-113.73c-1.93-3.34-7.12-.32-5.18,3Z"/><path d="M1746.66,446.23a192.37,192.37,0,0,1,86.19,74c2,3.27,7.24.26,5.18-3a197.66,197.66,0,0,0-88.34-76.13c-3.51-1.52-6.57,3.65-3,5.18Z"/><path d="M1766.56,446.73a228,228,0,0,1,82.5-37c3.77-.85,2.18-6.64-1.59-5.79a232.33,232.33,0,0,0-83.94,37.65c-3.11,2.22-.12,7.43,3,5.18Z"/><path d="M1772.75,459.44a498.44,498.44,0,0,0-129.44-50.87c-3.75-.9-5.35,4.88-1.59,5.78a492.28,492.28,0,0,1,128,50.28c3.37,1.9,6.39-3.28,3-5.19Z"/><path d="M1771.51,458.23a718.65,718.65,0,0,0-84.09-77.74c-3-2.36-7.27,1.86-4.24,4.24a721.19,721.19,0,0,1,84.09,77.74c2.62,2.85,6.86-1.4,4.24-4.24Z"/><path d="M1760.58,455.45a264.21,264.21,0,0,0-57.68,87.88c-1.43,3.59,4.37,5.14,5.79,1.6a256.75,256.75,0,0,1,56.13-85.24c2.73-2.74-1.51-7-4.24-4.24Z"/><path d="M1761.9,454.68a264.19,264.19,0,0,0-88.39,56.88c-2.77,2.7,1.47,6.94,4.24,4.25a256.75,256.75,0,0,1,85.75-55.34c3.56-1.39,2-7.2-1.6-5.79Z"/><path d="M1642.43,479.25a99.4,99.4,0,0,0-55.37,23.28c-3,2.5,1.31,6.72,4.24,4.24a92.45,92.45,0,0,1,51.13-21.52c3.81-.36,3.85-6.36,0-6Z"/><path d="M1673.71,323.61v-1.13a3,3,0,0,0-6,0v1.13a3,3,0,1,0,6,0Z"/><path d="M1833.61,533.23l19.32,33.9c1.91,3.35,7.1.33,5.18-3l-19.32-33.9c-1.92-3.36-7.1-.34-5.18,3Z"/><path d="M1832.48,347.31l29-29.81c2.7-2.77-1.54-7-4.24-4.24l-29,29.8c-2.69,2.77,1.55,7,4.25,4.25Z"/><path class="a" d="M1816.58,474.24c6.49,6.6,3.23,19.72-5.6,22.51s-19-6.07-17.51-15.2,14-14.21,21.49-8.71"/><path d="M1814.46,476.36c8.28,9.3-4.38,24-14.45,14.71-9.87-9.15,3.38-22.33,13.44-15.64,3.22,2.14,6.23-3.05,3-5.18-7-4.67-16.85-2.85-22.36,3.39-6.08,6.88-4.21,16.86,2.59,22.49s16.77,5.54,22.41-1.66a17.53,17.53,0,0,0-.41-22.35c-2.58-2.89-6.81,1.37-4.25,4.24Z"/><path class="b" d="M1790.11,391.91c4.12,4.19,2.05,12.51-3.55,14.28s-12.07-3.85-11.11-9.65,8.91-9,13.64-5.52"/><path d="M1788,394c4.33,4.87-2.26,12.68-7.61,7.78s1.86-11.75,7.19-8.2c3.23,2.14,6.24-3.05,3-5.18-4.86-3.23-11.68-2-15.51,2.32-4.28,4.8-3.1,11.82,1.64,15.82s11.77,3.93,15.77-1.05a12.23,12.23,0,0,0-.26-15.73c-2.58-2.89-6.81,1.37-4.25,4.24Z"/><path class="b" d="M1661.48,501.18c4.11,4.19,2,12.51-3.56,14.28s-12.07-3.85-11.11-9.64,8.92-9,13.64-5.53"/><path d="M1659.36,503.31c4.33,4.86-2.26,12.67-7.62,7.77s1.86-11.74,7.2-8.2c3.22,2.15,6.23-3.05,3-5.18-4.85-3.23-11.68-2-15.51,2.33-4.28,4.79-3.1,11.82,1.65,15.81s11.76,3.93,15.76-1.05a12.22,12.22,0,0,0-.26-15.73c-2.57-2.89-6.81,1.37-4.24,4.25Z"/><path class="b" d="M1740.55,494.72c4.11,4.18,2,12.5-3.56,14.27s-12.07-3.85-11.11-9.64,8.91-9,13.64-5.53"/><path d="M1738.42,496.84c4.34,4.86-2.26,12.67-7.61,7.77s1.86-11.74,7.19-8.2c3.23,2.15,6.24-3.05,3-5.18-4.86-3.23-11.68-2-15.51,2.33-4.28,4.79-3.1,11.82,1.65,15.81s11.76,3.94,15.76-1.05a12.23,12.23,0,0,0-.26-15.73c-2.58-2.89-6.81,1.37-4.25,4.25Z"/><path class="b" d="M1714.41,417.81c5.13,5.22,2.55,15.6-4.43,17.81s-15.06-4.81-13.86-12,11.11-11.24,17-6.89"/><path d="M1712.29,419.93c6,6.77-3.17,17.55-10.55,10.75s2.51-16.28,9.87-11.39c3.23,2.14,6.23-3.05,3-5.18-5.79-3.85-13.9-2.34-18.45,2.78-5,5.69-3.57,14,2,18.68s13.91,4.61,18.62-1.31a14.5,14.5,0,0,0-.33-18.57c-2.57-2.89-6.81,1.37-4.24,4.24Z"/><path class="a" d="M1300.79-6.58c-4.71,4.8-2.34,14.33,4.08,16.36s13.83-4.42,12.73-11S1307.39-11.6,1302-7.6"/><path d="M1298.67-8.7a13.56,13.56,0,0,0-.3,17.4c4.41,5.53,12.19,5.63,17.45,1.21s6.63-12.18,1.88-17.51c-4.25-4.78-11.84-6.19-17.24-2.59-3.2,2.12-.2,7.32,3,5.18,6.51-4.33,15.31,4.07,8.77,10.08s-14.69-3.53-9.34-9.53c2.56-2.88-1.67-7.13-4.25-4.24Z"/><path class="b" d="M1094.46,104.37c-3,3-1.49,9.09,2.58,10.37s8.77-2.8,8.07-7-6.47-6.55-9.91-4"/><path d="M1092.33,102.24a9.73,9.73,0,0,0-.19,12.59c3.22,4,8.86,4,12.62.77s4.62-8.85,1.19-12.66c-3-3.36-8.43-4.36-12.26-1.81-3.2,2.12-.2,7.32,3,5.18,3.08-2,7.49,1.72,4.23,4.67-3.1,2.81-6.84-1.72-4.37-4.49s-1.67-7.14-4.25-4.25Z"/><path class="a" d="M1261,160.26c-3,3-1.49,9.09,2.58,10.38s8.77-2.8,8.07-7-6.47-6.55-9.91-4"/><path d="M1258.9,158.14a9.73,9.73,0,0,0-.19,12.59c3.22,4,8.86,4,12.62.76s4.62-8.85,1.19-12.65c-3-3.36-8.43-4.36-12.26-1.82-3.2,2.13-.2,7.33,3,5.18,3.08-2,7.49,1.73,4.23,4.67-3.1,2.81-6.84-1.72-4.37-4.49s-1.67-7.13-4.25-4.24Z"/><path class="a" d="M1102.85,15.21c-4.72,4.8-2.34,14.33,4.07,16.36s13.84-4.42,12.73-11-10.21-10.33-15.62-6.33"/><path d="M1100.73,13.09a13.55,13.55,0,0,0-.3,17.4c4.41,5.53,12.19,5.63,17.44,1.21s6.63-12.17,1.89-17.51c-4.26-4.78-11.84-6.19-17.25-2.59-3.2,2.12-.2,7.32,3,5.18,6.52-4.33,15.31,4.07,8.78,10.08s-14.69-3.53-9.35-9.53c2.56-2.87-1.67-7.13-4.24-4.24Z"/><path d="M1216,74.7a218.67,218.67,0,0,1,72.24-57.39c1.73-.85.21-3.44-1.51-2.59a220.65,220.65,0,0,0-72.85,57.86c-1.22,1.48.89,3.62,2.12,2.12Z"/><path d="M1216.43,74a191.64,191.64,0,0,1,90.73-12.68c3.83.4,3.81-5.61,0-6a195.47,195.47,0,0,0-92.32,12.9c-3.54,1.41-2,7.22,1.59,5.78Z"/><path d="M1213.19,79.57a162.76,162.76,0,0,1,73.44-.33c3.76.85,5.37-4.93,1.6-5.79a169.92,169.92,0,0,0-76.63.34c-3.76.88-2.17,6.67,1.59,5.78Z"/><path d="M1215,78.52A470.74,470.74,0,0,1,1291,107c1.73.83,3.26-1.76,1.51-2.59a474.26,474.26,0,0,0-76.75-28.77,1.5,1.5,0,0,0-.8,2.89Z"/><path d="M1212.45,83.24a152.68,152.68,0,0,1,78.3,75.3c.82,1.75,3.4.23,2.59-1.51A155.11,155.11,0,0,0,1214,80.65c-1.76-.75-3.29,1.84-1.52,2.59Z"/><path d="M1206,78.85a160.82,160.82,0,0,1,32.62,90c.08,1.93,3.08,1.94,3,0a163.63,163.63,0,0,0-33-91.49c-1.15-1.51-3.76,0-2.59,1.52Z"/><path d="M1207.15,91.82l.91,41.6c0,1.93,3,1.93,3,0l-.91-41.6c0-1.93-3-1.94-3,0Z"/><path d="M1196.81,79.9a152.45,152.45,0,0,0-26.47,38.29c-.84,1.73,1.75,3.25,2.59,1.51a149.9,149.9,0,0,1,26-37.68c1.32-1.4-.79-3.53-2.12-2.12Z"/><path d="M1193.35,75a134.67,134.67,0,0,0-73.09,22.8c-1.6,1.07-.1,3.67,1.51,2.59A131.74,131.74,0,0,1,1193.35,78c1.92,0,1.93-3,0-3Z"/><path d="M1209.47,72.07a136.81,136.81,0,0,0-97.8-23.39c-1.9.28-1.09,3.17.8,2.9A133.74,133.74,0,0,1,1208,74.66c1.58,1.12,3.08-1.48,1.51-2.59Z"/><path d="M1092.48,49.21a105.38,105.38,0,0,0-40,15.22c-1.62,1-.12,3.64,1.52,2.59a103.42,103.42,0,0,1,39.27-14.92c1.9-.3,1.1-3.19-.8-2.89Z"/><path d="M1163.21,88.77a174,174,0,0,0-56.82,45.34c-1.22,1.48.89,3.62,2.12,2.12a172,172,0,0,1,56.21-44.87c1.73-.87.21-3.45-1.51-2.59Z"/><path d="M1211.05,73.75c-.88-7.88-5.31-14-10.85-19.45-7.43-7.3-15.72-13.86-23.78-20.45Q1152.2,14,1126.4-3.71c-1.59-1.1-3.09,1.5-1.51,2.59q23.91,16.49,46.53,34.75,10.82,8.76,21.31,17.92c6.83,6,14.25,12.65,15.32,22.2.21,1.9,3.21,1.92,3,0Z"/><path d="M1208.18,57.6A347.33,347.33,0,0,0,1174.76-.31c-1.11-1.56-3.71-.06-2.59,1.52a346.93,346.93,0,0,1,33.42,57.91c.8,1.75,3.39.23,2.59-1.52Z"/><path d="M1215,62a167.54,167.54,0,0,0-19.67-80.22c-.91-1.7-3.5-.19-2.59,1.52A164.17,164.17,0,0,1,1212,62a1.5,1.5,0,0,0,3,0Z"/><path d="M1213.29,73.07a206.28,206.28,0,0,1,49.17-82.18c1.35-1.38-.77-3.51-2.12-2.12a209.62,209.62,0,0,0-49.94,83.5c-.58,1.85,2.31,2.64,2.89.8Z"/><path d="M1208,153.32l.87,23.52c.07,1.92,3.07,1.93,3,0l-.87-23.52c-.07-1.92-3.08-1.93-3,0Z"/><path d="M1304.19,93.26a114.7,114.7,0,0,1,25.87,10.7,1.5,1.5,0,0,0,1.52-2.59,118.12,118.12,0,0,0-26.59-11,1.5,1.5,0,0,0-.8,2.89Z"/><path d="M1210.53,77.22A442.5,442.5,0,0,0,1220-15.65c0-3.86-6-3.86-6,0a435.89,435.89,0,0,1-9.26,91.27c-.79,3.77,5,5.38,5.78,1.6Z"/><path d="M1209.35,67.7a167.46,167.46,0,0,0-100.08,2.64c-3.63,1.24-2.07,7,1.59,5.78a161.69,161.69,0,0,1,96.9-2.63c3.72,1.06,5.31-4.73,1.59-5.79Z"/><path d="M1209.23,56.74a145.17,145.17,0,0,0-19,83.07c.28,3.83,6.28,3.86,6,0a139.46,139.46,0,0,1,18.17-80.05c1.93-3.35-3.25-6.37-5.18-3Z"/><path d="M1218.39,60a144.8,144.8,0,0,0-64.49,55.62c-2.07,3.28,3.12,6.3,5.18,3a139.41,139.41,0,0,1,62.34-53.47c3.53-1.54.48-6.71-3-5.18Z"/><path d="M1209.16,60.31A170.6,170.6,0,0,0,1148,32.87c-3.76-.86-5.37,4.93-1.6,5.79a166,166,0,0,1,59.77,26.83c3.15,2.25,6.15-2.95,3-5.18Z"/><path d="M1204.66,78.5a358.52,358.52,0,0,1,92.84-36.45c3.75-.9,2.16-6.69-1.6-5.79a364.81,364.81,0,0,0-94.27,37.06c-3.36,1.9-.34,7.08,3,5.18Z"/><path d="M1206.61,76.81a527.08,527.08,0,0,1,61.11-56.5c3-2.39-1.24-6.61-4.24-4.24a524.53,524.53,0,0,0-61.11,56.5c-2.62,2.83,1.61,7.09,4.24,4.24Z"/><path d="M1207.23,74.79a186.49,186.49,0,0,1,40.58,61.58c1.43,3.54,7.23,2,5.79-1.59a193.84,193.84,0,0,0-42.13-64.23c-2.72-2.75-7,1.49-4.24,4.24Z"/><path d="M1296.76,93.6a66.71,66.71,0,0,1,36.58,15.4c2.94,2.48,7.2-1.75,4.24-4.24a73.68,73.68,0,0,0-40.82-17.16c-3.84-.37-3.81,5.63,0,6Z"/><path d="M1153.34,125l-14,24.64c-1.92,3.36,3.26,6.39,5.18,3l14-24.64c1.92-3.36-3.26-6.39-5.18-3Z"/><path class="c" d="M1572.22,196.31A2027.25,2027.25,0,0,1,2092.85,398.1v34.78a2027.25,2027.25,0,0,0-520.63-201.79Z"/><path d="M1571,200.65a2023.54,2023.54,0,0,1,410.3,144.78Q2036.79,372,2090.58,402l-2.23-3.88v34.78l6.77-3.89a2038.54,2038.54,0,0,0-402-170.12q-59.36-17.9-119.71-32.12l3.3,4.34V196.31c0-5.79-9-5.8-9,0v34.78a4.58,4.58,0,0,0,3.3,4.34,2023.54,2023.54,0,0,1,410.3,144.78q55.47,26.61,109.26,56.55a4.54,4.54,0,0,0,6.77-3.88V398.1a4.51,4.51,0,0,0-2.23-3.89,2038.54,2038.54,0,0,0-402-170.12q-59.36-17.9-119.71-32.12C1567.78,190.64,1565.38,199.31,1571,200.65Z"/><path d="M1607.61,205a143.18,143.18,0,0,0-30.37,22.61c-1.39,1.34.73,3.46,2.12,2.12a140.44,140.44,0,0,1,29.76-22.14c1.69-.94.18-3.53-1.51-2.59Z"/><path d="M1643.89,216.16a153,153,0,0,0-29.62,18.4c-1.51,1.19.62,3.3,2.12,2.12a149.89,149.89,0,0,1,29-17.93c1.75-.83.23-3.41-1.51-2.59Z"/><path d="M1669.65,222.3l-31,21c-1.58,1.07-.09,3.67,1.52,2.59l31-21c1.59-1.07.09-3.67-1.51-2.59Z"/><path d="M1700.76,234.2a63.8,63.8,0,0,0-30.5,17.46c-1.35,1.39.77,3.51,2.12,2.13a60.76,60.76,0,0,1,29.18-16.7c1.87-.46,1.08-3.36-.8-2.89Z"/><path d="M1739.69,245.93a140.93,140.93,0,0,0-38.93,16.34c-1.65,1-.14,3.6,1.52,2.59a137.8,137.8,0,0,1,38.21-16c1.87-.48,1.08-3.37-.8-2.9Z"/><path d="M1766.78,251.28a159.65,159.65,0,0,0-42.14,21.07c-1.57,1.1-.07,3.7,1.52,2.59a157.14,157.14,0,0,1,41.42-20.77c1.82-.59,1-3.49-.8-2.89Z"/><path d="M1796.85,264.56A104,104,0,0,0,1758.36,282c-1.54,1.12,0,3.73,1.52,2.59a101.79,101.79,0,0,1,37.77-17.13c1.88-.43,1.08-3.32-.8-2.9Z"/><path d="M1829.89,276.74a99.73,99.73,0,0,0-38,18c-1.51,1.16,0,3.77,1.51,2.59a97.58,97.58,0,0,1,37.26-17.69c1.88-.45,1.09-3.34-.79-2.9Z"/><path d="M1852.26,288.35a88.14,88.14,0,0,0-29.07,15.74c-1.5,1.22.64,3.33,2.12,2.13a84,84,0,0,1,27.75-15c1.83-.59,1-3.49-.8-2.9Z"/><path d="M1880.85,297.65a120.37,120.37,0,0,0-33.14,17c-1.55,1.13,0,3.73,1.51,2.59a117.74,117.74,0,0,1,32.43-16.68c1.82-.61,1-3.51-.8-2.9Z"/><path class="c" d="M1607.51,501.67a2028,2028,0,0,1,520.63,201.79v34.78a2028,2028,0,0,0-520.63-201.79Z"/><path d="M1606.31,506a2022.76,2022.76,0,0,1,410.3,144.79q55.47,26.6,109.26,56.55l-2.23-3.89v34.78l6.77-3.88a2039.38,2039.38,0,0,0-402-170.13q-59.36-17.88-119.72-32.12l3.31,4.34V501.67c0-5.79-9-5.8-9,0v34.78a4.56,4.56,0,0,0,3.3,4.34,2022.76,2022.76,0,0,1,410.3,144.79q55.47,26.59,109.26,56.55a4.54,4.54,0,0,0,6.77-3.89V703.46a4.48,4.48,0,0,0-2.23-3.88,2038.54,2038.54,0,0,0-402-170.12q-59.36-17.9-119.72-32.13C1603.07,496,1600.67,504.68,1606.31,506Z"/><path d="M1642.9,510.39A143.52,143.52,0,0,0,1612.53,533c-1.39,1.35.73,3.47,2.12,2.12A140.44,140.44,0,0,1,1644.41,513c1.69-.94.18-3.53-1.51-2.59Z"/><path d="M1679.18,521.52a153.44,153.44,0,0,0-29.62,18.4c-1.51,1.2.62,3.31,2.12,2.12a150.38,150.38,0,0,1,29-17.93c1.75-.82.23-3.41-1.51-2.59Z"/><path d="M1704.94,527.67l-31,21c-1.59,1.08-.09,3.68,1.52,2.59l31-21c1.59-1.08.09-3.68-1.51-2.59Z"/><path d="M1736.05,539.56a63.74,63.74,0,0,0-30.5,17.47c-1.35,1.38.77,3.51,2.12,2.12a60.74,60.74,0,0,1,29.18-16.69c1.87-.47,1.08-3.36-.8-2.9Z"/><path d="M1775,551.3a140.91,140.91,0,0,0-38.93,16.33c-1.65,1-.14,3.6,1.51,2.59a138.29,138.29,0,0,1,38.22-16c1.87-.47,1.08-3.36-.8-2.89Z"/><path d="M1802.07,556.64a160.26,160.26,0,0,0-42.14,21.07c-1.57,1.1-.07,3.7,1.51,2.59a157.11,157.11,0,0,1,41.42-20.76c1.83-.6,1.05-3.5-.79-2.9Z"/><path d="M1832.14,569.93a103.92,103.92,0,0,0-38.49,17.43c-1.54,1.13-.05,3.73,1.52,2.59a101.82,101.82,0,0,1,37.76-17.13c1.89-.42,1.09-3.31-.79-2.89Z"/><path d="M1865.17,582.11a99.46,99.46,0,0,0-38,18c-1.51,1.16,0,3.77,1.51,2.59A97.6,97.6,0,0,1,1866,585c1.88-.44,1.09-3.33-.8-2.89Z"/><path d="M1887.55,593.72a88,88,0,0,0-29.07,15.74c-1.5,1.22.64,3.33,2.12,2.12a84.16,84.16,0,0,1,27.75-15c1.83-.58,1.05-3.48-.8-2.89Z"/><path d="M1916.14,603A120.37,120.37,0,0,0,1883,620c-1.55,1.13,0,3.73,1.51,2.59a117.77,117.77,0,0,1,32.43-16.69c1.82-.6,1-3.5-.8-2.89Z"/><path class="c" d="M388.47,184.31A2027.32,2027.32,0,0,0-132.17,386.1v34.78A2027.32,2027.32,0,0,1,388.47,219.09Z"/><path d="M387.27,180A2033,2033,0,0,0-24.35,325.26Q-80.25,352-134.44,382.21a4.53,4.53,0,0,0-2.23,3.89v34.78a4.54,4.54,0,0,0,6.77,3.88A2018.47,2018.47,0,0,1,270.83,255.28q58.92-17.73,118.83-31.85a4.57,4.57,0,0,0,3.31-4.34V184.31c0-5.79-9-5.8-9,0v34.78l3.3-4.34A2033,2033,0,0,0-24.35,360Q-80.25,386.81-134.44,417l6.77,3.89V386.1L-129.9,390A2018.47,2018.47,0,0,1,270.83,220.5q58.92-17.73,118.83-31.85C395.3,187.32,392.91,178.64,387.27,180Z"/><path d="M351.57,195.62a140.69,140.69,0,0,1,29.76,22.14c1.38,1.34,3.51-.78,2.12-2.12A143.18,143.18,0,0,0,353.08,193c-1.69-.94-3.2,1.65-1.51,2.59Z"/><path d="M315.28,206.75a149.59,149.59,0,0,1,29,17.93c1.5,1.18,3.64-.93,2.13-2.12a153,153,0,0,0-29.62-18.4c-1.74-.82-3.26,1.76-1.52,2.59Z"/><path d="M289.52,212.89l31,21c1.6,1.08,3.1-1.52,1.51-2.59l-31-21c-1.6-1.08-3.11,1.52-1.52,2.59Z"/><path d="M259.12,225.09a60.76,60.76,0,0,1,29.18,16.7c1.35,1.38,3.47-.74,2.12-2.13a63.76,63.76,0,0,0-30.5-17.46c-1.87-.46-2.67,2.43-.8,2.89Z"/><path d="M220.2,236.83a137.93,137.93,0,0,1,38.21,16c1.65,1,3.16-1.59,1.52-2.59A141.06,141.06,0,0,0,221,233.93c-1.88-.47-2.68,2.42-.8,2.9Z"/><path d="M193.11,242.17a157.29,157.29,0,0,1,41.42,20.77c1.59,1.11,3.09-1.49,1.52-2.59a159.81,159.81,0,0,0-42.14-21.07c-1.84-.6-2.63,2.29-.8,2.89Z"/><path d="M163,255.46a101.86,101.86,0,0,1,37.77,17.13c1.56,1.14,3.06-1.47,1.51-2.59a103.9,103.9,0,0,0-38.48-17.44c-1.88-.42-2.68,2.47-.8,2.9Z"/><path d="M130,267.64a97.37,97.37,0,0,1,37.26,17.69c1.53,1.18,3-1.42,1.52-2.59a99.65,99.65,0,0,0-38-18c-1.88-.44-2.68,2.45-.8,2.9Z"/><path d="M107.63,279.25a83.83,83.83,0,0,1,27.74,15c1.49,1.2,3.62-.91,2.12-2.13a88.12,88.12,0,0,0-29.07-15.74c-1.84-.58-2.63,2.31-.79,2.9Z"/><path d="M79,288.55a117.68,117.68,0,0,1,32.42,16.68c1.57,1.14,3.06-1.46,1.52-2.59a120.28,120.28,0,0,0-33.15-17c-1.83-.6-2.62,2.29-.79,2.9Z"/><path class="c" d="M353.18,489.67A2028,2028,0,0,0-167.46,691.46v34.78A2028,2028,0,0,1,353.18,524.45Z"/><path d="M352,485.33A2032.19,2032.19,0,0,0-59.64,630.63q-55.9,26.77-110.09,57a4.51,4.51,0,0,0-2.23,3.88v34.78a4.55,4.55,0,0,0,6.77,3.89A2016.9,2016.9,0,0,1,235.54,560.65q58.92-17.73,118.83-31.86a4.56,4.56,0,0,0,3.31-4.34V489.67c0-5.79-9-5.8-9,0v34.78l3.3-4.34A2032.19,2032.19,0,0,0-59.64,665.41q-55.9,26.77-110.09,57l6.77,3.88V691.46l-2.23,3.89A2016.9,2016.9,0,0,1,235.54,525.87Q294.46,508.14,354.37,494C360,492.68,357.62,484,352,485.33Z"/><path d="M316.28,501A140.69,140.69,0,0,1,346,523.12c1.38,1.35,3.51-.77,2.12-2.12a143.52,143.52,0,0,0-30.37-22.61c-1.69-.94-3.2,1.65-1.51,2.59Z"/><path d="M280,512.11A150.3,150.3,0,0,1,309,530c1.5,1.19,3.64-.92,2.13-2.12a153.44,153.44,0,0,0-29.62-18.4c-1.74-.82-3.26,1.77-1.51,2.59Z"/><path d="M254.23,518.26l31,21c1.6,1.09,3.1-1.51,1.51-2.59l-31-21c-1.6-1.09-3.11,1.51-1.52,2.59Z"/><path d="M223.84,530.46A60.71,60.71,0,0,1,253,547.15c1.35,1.38,3.47-.74,2.12-2.12a63.77,63.77,0,0,0-30.5-17.47c-1.87-.46-2.67,2.43-.79,2.9Z"/><path d="M184.91,542.19a138.53,138.53,0,0,1,38.21,16c1.65,1,3.16-1.58,1.52-2.59a140.91,140.91,0,0,0-38.93-16.33c-1.88-.47-2.67,2.42-.8,2.89Z"/><path d="M157.82,547.54a157,157,0,0,1,41.42,20.76c1.59,1.11,3.09-1.49,1.52-2.59a160.26,160.26,0,0,0-42.14-21.07c-1.84-.6-2.63,2.3-.8,2.9Z"/><path d="M127.75,560.82A101.86,101.86,0,0,1,165.52,578c1.56,1.14,3.06-1.46,1.51-2.59a103.88,103.88,0,0,0-38.48-17.43c-1.88-.42-2.68,2.47-.8,2.89Z"/><path d="M94.71,573A97.46,97.46,0,0,1,132,590.7c1.53,1.18,3-1.43,1.52-2.59a99.5,99.5,0,0,0-38-18c-1.88-.44-2.68,2.45-.8,2.89Z"/><path d="M72.34,584.61a84,84,0,0,1,27.74,15c1.49,1.21,3.62-.9,2.12-2.12a87.76,87.76,0,0,0-29.07-15.74c-1.84-.59-2.63,2.31-.79,2.89Z"/><path d="M43.75,593.91A117.71,117.71,0,0,1,76.17,610.6c1.57,1.14,3.06-1.46,1.52-2.59a120.28,120.28,0,0,0-33.15-17c-1.83-.61-2.62,2.29-.79,2.89Z"/><path class="d" d="M347.12,527.89c426.39-60.82,830.75-73.31,1260.39,8.56,0-115.77-3.11-339.93-13.56-352.83-8.93-11-24.27-14-38.29-16.13C1359.19,137.1,546.89,91.4,370.15,182.43c-7.65,84-15.38,261.5-23,345.46"/><path d="M348.32,532.23c82.52-11.75,165.28-21.85,248.26-29.77,80.8-7.71,161.8-13.35,242.91-16.47s162.22-3.73,243.31-1.49q121.92,3.38,243.39,15.54,125.25,12.63,249.24,35,15.45,2.79,30.88,5.73c2.84.54,5.7-1.23,5.7-4.34,0-77.75-.85-155.54-3.43-233.25-1-30.8-2-61.7-5-92.38-.79-8.1-1.36-16.64-3.64-24.5-4-13.7-21.42-19.07-33.81-21.57-19.25-3.89-39-5.85-58.54-8.11-23.35-2.7-46.75-5-70.16-7.17-59.94-5.47-120-9.7-180.06-13.22q-107-6.28-214.22-9.38c-74.21-2.13-148.47-3.12-222.72-2.42-68.53.65-137.11,2.65-205.48,7.53-55,3.94-110.31,9.35-164.41,20.45-20.08,4.13-40.12,9.07-59.4,16.11-7.36,2.7-16.15,5.31-22.69,9.73-5,3.37-3.74,15-4.19,20.62q-1.07,13.28-2,26.55c-6,84.64-9.91,169.42-15.82,254.06-1.13,16.14-2.34,32.28-3.8,48.39-.52,5.77,8.48,5.73,9,0C360,435.48,363.44,342.62,369.55,250c1.49-22.54,3.06-45.09,5.1-67.6l-2.23,3.89c29.28-15,62.76-22.09,94.88-28,46.18-8.51,93-13.26,139.85-16.77,57.08-4.28,114.31-6.43,171.53-7.51,62-1.17,124.05-1,186.07,0s124.21,3,186.27,5.72q85.8,3.76,171.5,9.59c47.29,3.24,94.56,7,141.73,11.63,18.43,1.82,36.84,3.79,55.22,6,18.06,2.21,37.94,3.33,55.17,9.21,5.75,2,13,5.29,16.12,10.8-.62-1.08.33,1.07.48,1.65.32,1.2.6,2.4.85,3.62a204.19,204.19,0,0,1,2.82,22.19c2.33,25.9,3.36,51.92,4.3,77.89,2.43,67.14,3.31,134.35,3.68,201.53q.1,21.24.12,42.5l5.69-4.34q-123.5-23.47-248.55-37.47Q1237.48,481,1114,476.51,991.79,472,869.46,476c-81.83,2.52-163.57,7.65-245.12,14.94-82.39,7.37-164.58,16.95-246.54,28.2q-15.94,2.19-31.88,4.46c-5.71.82-3.28,9.49,2.4,8.68Z"/><path class="b" d="M1870.55,8.21c-27.52-25.3-65.1-38.54-102.48-39.12-36.78-.58-74.67,11.42-100.69,37.43s-38,66.92-25.09,101.36,52.83,58,88.23,48a83.07,83.07,0,0,0,104.71,87.79c4.55,25.88,36.11,43,60.31,32.79,5.56,18.74,23.79,33,43.32,33.81,7.55.32,15.17-1.17,22.65,0,13.14,2,23.57,11.6,34.32,19.41,28.3,20.57,65.09,30.61,99.2,22.85s64.21-34.78,71.56-69c2,6.89,10.65,10,17.6,8.26s12.44-7,17.29-12.29c19.64-21.41,35-47.45,40.2-76s-.66-59.79-19.07-82.27-50.06-34.49-77.94-26.33c18.62-13,26.16-38.7,20.6-60.75s-22.6-40.13-43-50.22-43.77-12.84-66.46-11.43c-20.6,1.27-41.32,6-59.07,16.51s-32.33,27.3-37.5,47.28c.48-21.61-13.39-42.85-33.38-51.1s-44.81-3-59.7,12.72"/><path d="M1873.73,5c-47.48-43.11-122.85-53.38-179.83-23.42-27.07,14.23-48.13,38.13-57,67.59-8.32,27.69-4.81,58.55,13.34,81.59,18.93,24,51.36,37.57,81.46,29.45l-5.7-4.34c-2.3,27.78,9.2,56.53,30.66,74.52A89.59,89.59,0,0,0,1836.43,248l-5.54-3.15c5.48,28.32,39,46.76,65.85,35.94l-5.54-3.14c6.23,19.79,24.08,34.74,44.81,36.89,6.63.69,13.23-.37,19.87-.24a37.14,37.14,0,0,1,18,5.27c10.31,5.89,19.06,14.16,29.23,20.32,38.95,23.57,90.39,28,128.84,1,19.18-13.45,33.78-33.14,39-56.18h-8.68c3.05,8.61,11.82,13,20.7,11.82,10.57-1.38,18.37-10,25-17.55,14.92-17.09,27.14-36.75,34.08-58.44,13.24-41.34,4.29-91.72-32.87-117.77-18.91-13.25-43.28-18.52-65.69-12.26l3.47,8.22c16.84-12.19,25.66-32.74,24.53-53.38-1.16-21.2-12.88-40.57-29.12-53.8C2123.8-23.53,2100.5-30.54,2076.88-32c-25.17-1.61-51.75,2-74.6,13-22.31,10.73-40.79,29.93-47.35,54.14l8.84,1.19c.18-23.53-14.31-46.14-36.15-55.21S1879.43-22.08,1863-5.29c-4,4.14,2.31,10.51,6.37,6.36,13.92-14.23,36.18-19.39,54.77-11.77s30.78,27.09,30.63,47c0,5.07,7.5,6.12,8.84,1.2,11.87-43.81,60-60.31,101-60.82,39.33-.5,85.73,16.36,96.34,58.68,5,20-1.51,43.34-18.53,55.66-3.93,2.84-1.76,9.69,3.46,8.23,35.86-10,72.43,13,85.92,46.2,14.81,36.42,5.12,76.68-15.89,108.48a160.78,160.78,0,0,1-20.81,25.78c-3.62,3.58-8.14,7.4-13.4,8-4.14.5-9.26-1.15-10.75-5.38-1.39-3.9-7.64-4.64-8.68,0-8.93,39.73-46.92,66.66-86.62,68.22-22.18.87-44.37-5.15-63.69-15.93-18.35-10.25-33.64-28.93-56.06-29.3-6.62-.11-13.26,1-19.87.24a42.1,42.1,0,0,1-15.23-5,44.1,44.1,0,0,1-20.9-25.26c-.66-2.11-3.21-4.08-5.53-3.14-22.54,9.09-50.15-5.72-54.78-29.65-.47-2.41-3.33-3.72-5.54-3.14-24.84,6.55-52.66.69-72.16-16.29-19.11-16.65-28.94-42-26.85-67.16.25-3-3.07-5.05-5.69-4.34-24.33,6.56-50.12-3.13-67.26-20.89-18.77-19.44-24.19-47.35-18-73.24,14-58.76,75.15-87,131.46-83.56,33.67,2,66.8,14.75,91.88,37.53,4.28,3.88,10.66-2.46,6.36-6.37Z"/><path class="b" d="M1418.58,11.2c-24.38,20.09-29.66,59.62-11.4,85.4s57.31,33.92,84.35,17.59a77.21,77.21,0,0,0,125,32.24c9.5,30,39.61,52.21,71.08,52.42s61.88-21.58,71.78-51.46c50.11-2.92,95.44-43.84,103.46-93.39s-22.09-102.67-68.72-121.25C1811.29-90,1803-125.07,1781.67-144s-51.62-24.35-80.1-23.14c-56.64,2.41-111.87,29-149.12,71.72,2.51-19.21-11.28-38.2-29.31-45.3s-38.9-3.82-56.19,4.92A97.75,97.75,0,0,0,1417.66-76,97.78,97.78,0,0,0,1428.28.8"/><path d="M1415.4,8c-20.24,17.1-28.13,46.33-21.1,71.65,7.27,26.12,30.58,43.64,57,46.91a67.42,67.42,0,0,0,42.48-8.5l-6.61-2.69c8.79,24.92,29.31,45,54.8,52.38,27,7.84,56.82.37,77.67-18.15l-7.52-2c8.2,25,28.8,44.69,53.88,52.39,25.29,7.76,52.4,1.07,72.67-15.47a79.88,79.88,0,0,0,25-35.95l-4.34,3.3c41.14-2.69,79.05-28.78,97.5-65.51,18.72-37.24,13.85-81.78-9.61-115.81a116.45,116.45,0,0,0-52-42.16L1798-65c12.59-17.15,12.11-40,3.74-58.88-9.25-20.82-28.13-34.61-49.37-41.61-22.72-7.48-47.45-7.58-70.94-4.31a217.3,217.3,0,0,0-68.2,21.59,215,215,0,0,0-63.92,49.58l7.68,3.18c2-17.78-8-34.67-22.53-44.43-16.77-11.3-39-11.27-57.59-4.95-35.31,12-61.61,45-66.37,81.82a103.08,103.08,0,0,0,13.93,66.06c3,5,10.77.44,7.77-4.54-18.13-30.14-18-68.55,1.18-98.15,17.75-27.37,54.84-49.7,87.81-37.07,16.6,6.37,28.78,23.24,26.8,41.26-.42,3.85,5.23,6,7.68,3.18a209.34,209.34,0,0,1,112.52-66.08c38.81-8.4,94.45-8.75,119.68,28,12.25,17.88,15.73,42.54,2.36,60.77-1.9,2.6.29,5.64,2.69,6.61,34.75,14.13,59.56,48,65.46,84.66,6.08,37.76-11,75.08-40.73,98.37-16.68,13.07-37.07,21.38-58.27,22.77a4.7,4.7,0,0,0-4.34,3.31c-9.59,28-37.78,48.35-67.44,48.15s-57.53-21-66.74-49.12a4.56,4.56,0,0,0-7.52-2c-18.48,16.4-45.11,22.75-68.92,15.83A74.25,74.25,0,0,1,1495.87,113a4.57,4.57,0,0,0-6.61-2.69c-19.7,11.58-45.2,9.9-64.12-2.56-19.73-13-27.84-37.4-23-60.1a59.3,59.3,0,0,1,19.61-33.26c4.43-3.75-2-10.08-6.36-6.37Z"/><path d="M1635.25,128.92a76.54,76.54,0,0,0,22.17,51.55c2.72,2.75,7-1.49,4.24-4.24a70.2,70.2,0,0,1-20.41-47.31c-.12-3.85-6.12-3.86-6,0Z"/><path d="M1656.85,145.46l14.65,21.24c2.18,3.16,7.38.16,5.18-3L1662,142.43c-2.18-3.16-7.38-.16-5.18,3Z"/><path d="M1676.39,145.43l12,16.5c2.25,3.09,7.45.1,5.18-3l-12-16.5c-2.25-3.09-7.46-.1-5.18,3Z"/><path d="M1695.12,147.28l10.43,10.57c2.72,2.75,7-1.49,4.24-4.25L1699.36,143c-2.72-2.75-7,1.49-4.24,4.24Z"/><path d="M1509.48,56.92a60,60,0,0,0,39.78,50.66c3.66,1.27,5.23-4.52,1.6-5.79a53.74,53.74,0,0,1-35.38-44.87c-.38-3.8-6.38-3.84-6,0Z"/><path d="M1526.4,64.44l9,15c2,3.3,7.17.29,5.18-3l-9-15c-2-3.31-7.18-.3-5.18,3Z"/><path d="M1548.54,63.2l12,16.46c2.25,3.09,7.46.09,5.18-3l-12-16.46c-2.26-3.08-7.47-.09-5.18,3Z"/><path d="M1578.89,65.94l7.5,15c1.73,3.45,6.91.41,5.18-3l-7.5-15c-1.72-3.46-6.9-.42-5.18,3Z"/><path d="M1749.39,218.14a42.6,42.6,0,0,0,40-20.32c2-3.31-3.18-6.32-5.18-3a36.68,36.68,0,0,1-34.81,17.35c-3.84-.35-3.82,5.65,0,6Z"/><path d="M1772.77,236.81A50.27,50.27,0,0,0,1799.59,221c2.56-2.88-1.67-7.14-4.24-4.25A44.79,44.79,0,0,1,1771.18,231c-3.77.84-2.18,6.62,1.59,5.79Z"/><path d="M1817.85,234.79l16.49-16.51c2.73-2.74-1.51-7-4.25-4.24l-16.49,16.51c-2.73,2.73,1.51,7,4.25,4.24Z"/><path d="M1905.48,121.42a59.93,59.93,0,0,1-33,50.05c-3.45,1.73-.42,6.9,3,5.18a66,66,0,0,0,35.93-55.23c.21-3.86-5.79-3.85-6,0Z"/><path d="M1910.38,164.9A28.68,28.68,0,0,1,1898,178.83c-3.36,1.89-.34,7.07,3,5.18a33.85,33.85,0,0,0,14.58-16.08c1.51-3.51-3.66-6.57-5.18-3Z"/><path d="M1921,177l-11.9,19.56c-2,3.31,3.18,6.33,5.18,3L1926.2,180c2-3.31-3.17-6.33-5.18-3Z"/><path d="M1940.63,183.81a81.72,81.72,0,0,1-23.83,34.43c-2.93,2.52,1.33,6.75,4.24,4.24a87.66,87.66,0,0,0,25.38-37.07c1.31-3.64-4.49-5.21-5.79-1.6Z"/><path class="e" d="M764.12,277.14c-2.09.2-5.69.25-7,2-3.19,4.36,1.46,38.36-2.41,41.89a5.46,5.46,0,0,1-3.34,1.23c-20.12,1.95-21.12.84-23-18.38-1.14-11.77-2.59-23.66-3.74-35.43-.53-5.52,0-11.43,0-17,0-10.83-2.29-22-3.33-32.76-.16-1.64-.74-4.6.32-6,1.18-1.77,29.52-4.22,34.59-4.71,5.51-.54,11.27,0,16.93-.59,4.92-.48,9.68-2.59,14.6-3.07s5.37,10.46,5.72,14c.24,2.54.27,4.34-2,5.91-8.33,5.62-43.31,1.64-42.16,13.57,2.08,21.45,3.16,17,21.48,15.21,3.28-.32,17.51-.95,19.22,1.14a4.31,4.31,0,0,1,.85,2.63c.36,3.72,1.49,18.5-3.57,19-4.32.42-8.73-.05-12.9.35Z"/><path class="e" d="M846.45,275.93c.38,5.82-.1,12.46-.17,18.31,0,.6.38,17.68-2.33,19.8a5.55,5.55,0,0,1-3.39,1c-4,.26-20.47,1.31-20.81-4.07-.3-4.63.45-9.33.15-14-.44-6.87-1.33-13.71-1.77-20.59-.39-6.12,0-12.29-.43-18.42-.77-12-3-24-3.8-35.91-1.22-19-.92-19,17.45-20.17,2.1-.13,5.53-.36,7.25.73,3,1.91,3.66,14.92,3.88,18.36.41,6.42-1,13.11-.55,19.53.44,6.88,3.12,13.46,3.56,20.33Z"/><path class="e" d="M891.27,235.13c-.31,5.7,3.89,12.19,4.77,18a157.06,157.06,0,0,1,1.83,20.48c.15,6-.45,12.44-.91,18.44-.2,3.89,1.08,20-6.11,20.21-4.49.1-19.6.76-19.74-5.23-.12-5.09.81-10.2.69-15.29-.14-5.68-.87-11.36-1-17-.16-6.59,1-13.06.88-19.64s-1.95-12.68-2.1-19.12c-.15-6.28,1-12.45.9-18.74-.1-4.49-1.1-8.81-1.21-13.15-.13-5.68,9-4.25,12.63-4.34,1.5,0,13.32-.46,15.75,1.28,2.75,2,6.1,10.93,8,14.33,3.75,6.65,7.94,13,11.55,19.79,2.5,4.59,4,9.49,6.17,14.23,2.37,5,5.32,9.61,7.84,14.64.79,1.63,4.92,12,7.2,13.46l.13-.9c-.23-10-2.12-20.32-4.3-30-.68-3.43-1.82-7.14-2.2-10.58-.6-6.42-.45-13-.61-19.45-.1-4.49-.81-9.12-.92-13.61-.16-7,8.7-5.59,13.64-5.71,9.13-.21,13.87-2.42,14.13,8.5.23,9.58.31,19.61.09,29.2-.15,6.14-1.05,12.3-.91,18.44s1.64,12.39,2.09,18.52c.6,6.57.76,13.16.91,19.74.49,20.8.1,16.77-20.25,17.25-2,.05-5.23.58-6.91-.73-9-6.53-35.83-71.33-40.85-75l-.6.32-.57.91Z"/><path class="e" d="M1014.06,273.31c-.11,5.83-1.14,12.4-1.71,18.23,0,.6-1.1,17.65-4,19.54a5.64,5.64,0,0,1-3.46.68c-4-.08-20.5-.41-20.39-5.8.09-4.64,1.23-9.26,1.32-13.9.14-6.88-.18-13.78,0-20.66.12-6.14,1-12.26,1.12-18.4.23-12-1-24.12-.78-36.1.37-19,.67-19,19.08-18.63,2.1,0,5.54.11,7.16,1.34,2.81,2.15,2.4,15.17,2.33,18.61-.13,6.43-2.06,13-2.18,19.42-.14,6.89,2,13.67,1.83,20.55Z"/><path class="e" d="M1069.13,316c-5.23-.32-36.29-14.69-36.08-18.12.15-2.54,12.73-16.77,15.27-16.61,1.94.12,9.5,9,21.45,9.72,3.14.2,14-6,14.79-8.84-.3-2.41-3-5-4.69-6.58-2.12-2.08-4.38-4.32-6.66-6.26-3.14-2.6-7.57-3.77-11.2-5.64-10.77-5.47-17.76-11.3-21.7-22.79-1-3.06-2.68-7.51-2.48-10.8.15-2.39,2-5.58,3-7.76,1.2-2.48,2.46-5.85,4.53-7.82,7.19-7.06,26.77-15.75,36.78-15.13a43.42,43.42,0,0,1,26.35,10.47c1.57,1.3,5.88,4.41,5.75,6.51-.21,3.43-11.88,15-15.61,14.78-5.68-.35-12.62-6.93-18.6-7.3-2.39-.14-12.42,4.49-12.56,6.73-.43,6.87,39.33,28.52,43.79,34.05,2.23,2.83,5.1,14.56,4.87,18.29-.68,11.06-14.64,25.8-24.34,29.85-5.23,2.23-18.94.78-21.8,3.3Z"/><path class="e" d="M1224.73,287.13c-.93,7.27-1.25,14.48-2.18,21.75-2.82,22-3.37,19.19-24.6,16.47-3.71-.47-5.31-1-4.77-5.14,1.1-8.61,2.65-17.17,3.77-25.93.48-3.71,1.7-7.33,2.17-11,.55-4.3-16.36-4.21-19.63-4.63-4.3-.55-8.37-1.82-12.67-2.37-5.2-.67-4.66,11.62-5.13,14.13-1,5-2,10-3.11,14.84s-1.56,16.86-8.69,15.94c-3-.38-17.55-3.15-19.11-5.16a4,4,0,0,1-.67-3c.59-4.6,3-9.12,3.57-13.72.87-6.83.09-13.73,1-20.56.7-5.49,3-10.63,3.73-16.12.83-6.53-.11-13.29.75-20s5.49-34.61,9-36a6.65,6.65,0,0,1,3.05-.21,75.46,75.46,0,0,1,8.2,1.95c14.62,3.69,12.63,5.09,10.78,19.49-.93,7.28-3.9,14-4.82,21.12-.24,1.93.62,3.4,2.7,3.67,4.75.6,9.73.64,14.5,1.1,4.47.42,9.34,1.35,13.87,1.32a5,5,0,0,0,3-1c3.22-2.76,6.45-25.59,7-29.89,1.06-8.32.55-10.2,9.76-9,2.67.35,13.66,1.76,15.25,3.47,1.2,1.21.83,3,.62,4.6-.56,4.31-1.83,8.37-2.38,12.68-.78,6.09.2,12.55-.73,18.62Z"/><path class="b" d="M632.72,271.13c15.95-7.1,37.4-11.58,54.69-13.95,3.56,10.29,11,17.7.72,21.21s-39.72,6.59-48.45,13.08a93.81,93.81,0,0,1-7-20.34"/><path class="b" d="M634.24,273.72c17-7.42,35.67-11.09,54-13.65L684.52,258c1.21,3.3,2.76,6.42,4.19,9.63,1.54,3.48,2.88,6.13-1.38,7.89-4.76,2-10.38,2.56-15.4,3.55-10.86,2.13-24.44,3.31-33.77,9.83l4.11,1.08a98.07,98.07,0,0,1-6.65-19.63c-.86-3.77-6.65-2.17-5.79,1.59A105.42,105.42,0,0,0,637.09,293a3,3,0,0,0,4.1,1.07c5.14-3.59,11.89-4.9,17.89-6.26,7.44-1.7,15-3,22.43-4.59,4.9-1.07,12.12-2.1,14.27-7.39,2.51-6.19-3.45-13.91-5.48-19.44a3.12,3.12,0,0,0-3.69-2.09c-18.88,2.63-37.86,6.6-55.4,14.24-3.53,1.54-.48,6.72,3,5.19Z"/><path class="b" d="M1262.75,264.28c17.21,2.88,37.57,11,53.29,18.57-2.71,10.54-.58,20.84-11.11,18.08s-36.75-16.44-47.62-15.85a94.14,94.14,0,0,1,5.44-20.8"/><path class="b" d="M1262,267.17c18.31,3.22,35.87,10.28,52.58,18.27l-1.38-3.39c-.87,3.66-.64,16.39-5.75,16.31s-11.13-3.67-15.7-5.55c-10.51-4.32-22.71-11-34.39-10.73l2.9,3.8a101.74,101.74,0,0,1,5.43-20.8c1.37-3.62-4.43-5.18-5.78-1.6a101.69,101.69,0,0,0-5.44,20.81c-.28,1.84.76,3.85,2.89,3.79,6.4-.15,13,2.65,18.85,4.88,7.24,2.76,14.31,5.93,21.54,8.69,4.73,1.8,11.14,4.62,15.64.89,4.92-4.08,4.25-13.24,5.6-18.89a3.06,3.06,0,0,0-1.38-3.39c-17.16-8.21-35.2-15.57-54-18.87-3.78-.67-5.4,5.11-1.6,5.78Z"/><path class="b" d="M-176.7,176.74c-27,22.26-32.86,66.06-12.63,94.62s63.49,37.58,93.45,19.48C-86.77,317.54-63.62,339-36.31,346a87.1,87.1,0,0,0,78.84-19.47c10.53,33.24,43.88,57.84,78.75,58.07s68.55-23.91,79.52-57c55.52-3.23,105.73-48.56,114.61-103.45S290.94,110.42,239.28,89.84c19.08-25.16,9.85-64.05-13.74-85s-57.19-27-88.74-25.64C74.05-18.16,12.87,11.26-28.39,58.62-25.62,37.33-40.9,16.3-60.87,8.44S-104,4.2-123.12,13.89a108.3,108.3,0,0,0-54.6,66.27A108.33,108.33,0,0,0-166,165.23"/><path d="M-179.88,173.56c-22.22,18.72-30.91,50.74-23.35,78.53C-195.42,280.79-170,300.25-141,304a74.49,74.49,0,0,0,47.35-9.28l-6.61-2.69c9.67,27.51,32.45,49.66,60.61,57.75,29.62,8.52,62.44.31,85.33-20.05l-7.52-2C47.2,355.26,70,377,97.6,385.47c27.88,8.54,57.81,1.14,80.12-17.15a87.88,87.88,0,0,0,27.42-39.5l-4.34,3.3c45.41-2.94,87.31-31.84,107.63-72.39,20.54-41,15.24-89.92-10.47-127.44A128.35,128.35,0,0,0,240.48,85.5l2.69,6.61c13.8-18.75,13.32-43.75,4.27-64.43-10-22.87-30.56-38.11-53.79-45.94C168.49-26.74,141-26.91,115-23.33A240,240,0,0,0-31.58,55.44l7.69,3.18c2.18-19.62-9-38.29-25-49C-67.23-2.57-91.41-2.57-111.75,4.29-150.91,17.48-180,54-185.24,94.84a113.56,113.56,0,0,0,15.4,72.66c3,4.95,10.77.43,7.77-4.55-20.27-33.62-20-76.51,1.48-109.48,19.81-30.41,61.1-55,97.74-41,18.51,7.11,32.2,26,30,46.14-.43,3.85,5.23,6,7.68,3.18A232.29,232.29,0,0,1,100.06-11.62c23.93-5.14,49.43-6.93,73.62-2.47,22.95,4.23,46.37,14.7,59.69,34.72,13.18,19.84,16.74,47,2,66.94-1.91,2.59.29,5.64,2.69,6.61C277,110,304.67,147.89,311.05,189c6.52,42-12.65,83.4-45.76,109.12-18.51,14.37-41,23.54-64.49,25.05a4.71,4.71,0,0,0-4.34,3.31c-8.33,24.36-29.23,43.49-53.85,50.66-25,7.29-52,.53-71.69-16.31a79.29,79.29,0,0,1-24.05-35.42,4.56,4.56,0,0,0-7.52-2c-20.49,18.25-50.11,25.35-76.57,17.74-25-7.18-45.71-27-54.32-51.47A4.57,4.57,0,0,0-98.15,287c-22.21,13.09-51.07,11-72.22-3.3-21.82-14.74-30.51-42.15-24.84-67.37a66,66,0,0,1,21.69-36.36c4.44-3.73-2-10.07-6.36-6.36Z"/><path class="b" d="M571,48.73C598.36,26.91,615.83-28.13,596.06-57S533.18-95.6,502.94-78a87.13,87.13,0,0,0-58.69-56.14,87.1,87.1,0,0,0-79.14,18.22c-10-33.41-42.95-58.54-77.81-59.33s-68.92,22.81-80.42,55.73C151.32-117.16,100.39-72.64,90.63-17.9s22.65,114.13,74,135.53c-19.47,24.85-10.87,63.88,12.38,85.24s56.76,27.89,88.32,27c62.79-1.67,124.43-30.11,166.44-76.79-3.11,21.23,11.83,42.5,31.67,50.69s43,4.92,62.33-4.46A108.33,108.33,0,0,0,581.4,134,108.31,108.31,0,0,0,571,48.73"/><path d="M574.18,51.91C597,33.36,610.26-.13,609-29.21c-.67-14.78-5.79-28-16-38.78A76.64,76.64,0,0,0,552-89.82c-17.52-3.32-35.75-.9-51.32,7.95l6.61,2.68c-9.16-27.44-31.34-49.74-59-58.45-29.66-9.33-62.93-1.59-86.31,18.54l7.52,2c-8.5-27.45-30.68-49.33-57.85-58.38-27.92-9.31-58.35-2.39-81.11,15.75a88,88,0,0,0-28,39l4.34-3.3c-45.38,2.21-87.57,30.4-108.6,70.46C77.14-13.28,81.39,35.28,105.87,73.13c13.69,21.16,33.19,38.5,56.46,48.38l-1.61-6.15c-14.09,18.51-14,43.69-5.19,64.46,9.78,23,29.9,38.43,53,46.64,25.09,8.9,52.81,9.56,79,6.25a241.63,241.63,0,0,0,75.34-22.47,237.66,237.66,0,0,0,72-53.93l-7.69-3.18c-2.53,19.82,8.67,38.9,24.85,49.73,18.13,12.12,42,12.34,62.2,5.9,39.48-12.56,69.31-49,74.93-89.87a113.67,113.67,0,0,0-14.34-72.43c-2.91-5-10.69-.48-7.77,4.54,19.61,33.74,18.76,76.48-3,109-20.13,30.09-61.48,54.21-97.93,40.1-18.78-7.27-32.54-26.56-29.94-47,.5-3.91-5.23-5.89-7.68-3.19a232.36,232.36,0,0,1-126.45,71.38c-24,4.76-49.53,6.1-73.64,1.25-22.91-4.6-46.1-15.47-59.09-35.71-12.88-20.06-15.92-47.22-.89-67,1.35-1.77.43-5.29-1.62-6.16-38.64-16.4-66.06-53.72-72.26-95-6.34-42.26,13.21-84,47-109.43,18.89-14.22,41.6-23.13,65.29-24.28a4.69,4.69,0,0,0,4.34-3.31c8.77-24.36,30.21-43.15,55.09-49.85s51.74.59,71,17.63a79.23,79.23,0,0,1,23.45,35.82,4.56,4.56,0,0,0,7.52,2c21-18.07,51.09-24.59,77.56-16.23,24.59,7.76,44.61,27.77,52.75,52.17a4.56,4.56,0,0,0,6.61,2.69c24.64-14,57.79-9.53,78.5,9.67a49,49,0,0,1,16.14,33.36c1,13.59-1.86,27.24-6.72,39.89-5.34,13.94-13.66,27.24-25.32,36.73-4.49,3.65,1.91,10,6.37,6.36Z"/><path d="M290.13,199.58a140.62,140.62,0,0,0,65.42-36c2.77-2.7-1.48-6.94-4.25-4.24a134.58,134.58,0,0,1-62.76,34.43c-3.76.89-2.17,6.68,1.59,5.78Z"/><path d="M284.79,172.9a97.28,97.28,0,0,0,35-20.26c2.88-2.59-1.38-6.82-4.24-4.24a90.07,90.07,0,0,1-32.34,18.72c-3.65,1.19-2.09,7,1.59,5.78Z"/><path d="M280.2,158.43l24.8-16c3.24-2.08.23-7.28-3-5.18l-24.8,15.94c-3.24,2.09-.23,7.28,3,5.19Z"/><path d="M178,137.26a114.6,114.6,0,0,0,27.8,47.22c2.7,2.77,6.94-1.48,4.24-4.24a108.21,108.21,0,0,1-26.26-44.57c-1.1-3.69-6.9-2.12-5.78,1.59Z"/><path d="M197.73,124a71.21,71.21,0,0,0,15.05,37.55c2.38,3,6.6-1.24,4.24-4.24A64,64,0,0,1,203.73,124c-.37-3.81-6.37-3.85-6,0Z"/><path d="M67.14,299a74.55,74.55,0,0,0,49.53,40.39c3.75.92,5.35-4.87,1.59-5.78A68.85,68.85,0,0,1,72.32,296c-1.64-3.5-6.82-.45-5.18,3Z"/><path d="M98.43,299.78l24.51,13c3.41,1.8,6.45-3.37,3-5.18L101.46,294.6c-3.42-1.8-6.45,3.38-3,5.18Z"/><path d="M126.58,284.21l19.49,12.4c3.26,2.08,6.28-3.11,3-5.18L129.61,279c-3.27-2.08-6.28,3.11-3,5.18Z"/><path d="M91.05,107.15a134.32,134.32,0,0,1-4.48,79.91c-1.36,3.62,4.44,5.18,5.78,1.59a140,140,0,0,0,4.49-83.09c-.94-3.75-6.73-2.16-5.79,1.59Z"/><path d="M68.4,124a96.4,96.4,0,0,1-5.21,41.72c-1.3,3.64,4.5,5.21,5.79,1.59A100.59,100.59,0,0,0,74.4,124c-.36-3.82-6.36-3.85-6,0Z"/><path d="M43.6,120.4A98.41,98.41,0,0,1,26.29,165c-2.22,3.17,3,6.17,5.18,3A104.45,104.45,0,0,0,49.6,120.4c.47-3.82-5.54-3.79-6,0Z"/><path class="b" d="M503.85,403c.33-1,.6-2,.88-3-5.28.95-11,1.85-17.14,2.62l-2.08-4.22c15.95-2,29.27-4.78,39.86-8.24l3,3.93a151.72,151.72,0,0,1-18.46,4.91c-.25,1.18-.51,2.3-.78,3.37l20.3-2.56.58,4.58-22.45,2.83c-.44,1-.83,2.06-1.28,3l27.37-3.45.59,4.75-30.53,3.85c-.67,1.06-1.29,2.11-1.91,3.11L529.26,415l3.44,27.31-5.09.65-.27-2.15-24.49,3.08.28,2.15-5.09.64-2.53-20a94.14,94.14,0,0,1-7.5,7.44l-3.47-4.21a79.6,79.6,0,0,0,12.58-13.71l-12.61,1.59-.6-4.75,16.46-2.08c.56-1,1.11-2.09,1.56-3.07l-15.32,1.94L486,405.2Zm20.87,17-24.49,3.08.35,2.77,24.49-3.08Zm-23.29,12.58,24.49-3.08-.34-2.66-24.49,3.09Zm.88,7,24.48-3.09-.36-2.88-24.49,3.08Z"/><path class="b" d="M560.84,396.17c.35-1,.64-2,.93-3-5.3.87-11.06,1.68-17.18,2.35l-2-4.25c16-1.76,29.34-4.33,40-7.62l3,4A151.93,151.93,0,0,1,567,392.22c-.27,1.17-.55,2.29-.83,3.36l20.33-2.25.51,4.59-22.49,2.49c-.46,1-.86,2-1.33,3l27.42-3,.53,4.76-30.6,3.38c-.69,1.05-1.32,2.09-1.95,3.08l27.48-3,3,27.36-5.1.56-.24-2.15-24.53,2.71.24,2.15-5.1.57-2.22-20.06a93,93,0,0,1-7.62,7.32l-3.39-4.27a79.28,79.28,0,0,0,12.78-13.51l-12.63,1.4-.53-4.76,16.49-1.82c.57-1,1.15-2.08,1.61-3.05l-15.35,1.7-.51-4.59Zm20.61,17.33-24.53,2.71.3,2.78,24.54-2.71ZM558,425.73,582.5,423l-.29-2.66-24.54,2.71Zm.77,7L583.27,430,583,427.1l-24.53,2.71Z"/><path class="b" d="M609.74,381.09c-.25,3.46-.56,6.76-.85,9.76l11.64-1.11.29,3.06q.64,13.86-3.9,24.43a92.42,92.42,0,0,1,8.43,5.55L622,427.56a82.75,82.75,0,0,0-7.57-5.46,46.29,46.29,0,0,1-10.3,12l-4-4.14A40.76,40.76,0,0,0,610,419.21c-3.06-2-6.46-4-10.22-6.18a164.78,164.78,0,0,0,3-16.27l-6.07.58-.51-5.28,7.21-.69c.31-3.35.55-6.75.79-10.21ZM616,395.5l-7.66.73a107.07,107.07,0,0,1-2.67,14.58c2.42,1.31,4.71,2.58,6.77,3.76A46.14,46.14,0,0,0,616,395.5Zm32.56,32.05-5.22.5-.33-3.47-9.93,1,.33,3.46-5.28.5-4.33-45.23,20.43-1.95Zm-6-8.19-3-31.32-9.93.95,3,31.32Z"/><path class="b" d="M668.65,377.4a69.83,69.83,0,0,1-4,12.45l3.14,38.69-5.29.43L660,398.63c-1.42,2.18-2.9,4.36-4.51,6.43l-2.23-5.65a63.21,63.21,0,0,0,10.36-23.89Zm35.73-1.58.42,5.23-4,.32,3.08,37.95c.32,4-1.51,6.13-5.37,6.44l-9.6.78-1.62-5.19c3.14,0,6.1-.15,8.94-.38a2.08,2.08,0,0,0,2.08-2.57l-3-36.58-25.73,2.08-.42-5.22Zm-14.27,13.8,1.79,22-19,1.54-1.79-22.05Zm-4.83,5.3-8.57.7,1,12.27,8.58-.69Z"/><path class="b" d="M723.92,385.27l.28,4.26a73.62,73.62,0,0,1-4.57,8.59l5.29-.35.24,3.58a62.16,62.16,0,0,1-2.06,11.11,12.82,12.82,0,0,1,1.62,1,17.87,17.87,0,0,0,5.7,3.28,22.49,22.49,0,0,0,7.58.57c3.24-.15,6.94-.34,11.1-.62s9.31-.8,15.78-1.46l-.85,5.2-13.94.93c-4.21.28-8.19.44-12,.58a30.17,30.17,0,0,1-9.31-.75,20.33,20.33,0,0,1-7-3.87,1.8,1.8,0,0,0-1.35-.48c-.91.06-2.17,2.6-3.72,7.61l-4.16-3.32c1.79-4.8,3.65-7.72,5.58-8.88a55.58,55.58,0,0,0,2.1-9.62l-6.32.42-.27-4.1a77.68,77.68,0,0,0,4.92-8.44l-7.22.49-.33-4.9Zm-.49-5.51-3.29,3.7a54.61,54.61,0,0,0-8.9-7.51l3.3-3.59A58.79,58.79,0,0,1,723.43,379.76Zm9.27,14.69,11.37-.76,1.3,19.39-11.49.77-1.19-17.8a56.38,56.38,0,0,1-3.59,18.12l-3.74-3c2.33-6.09,3.19-13.75,2.63-23l-1-14.39,14.84-1L743,389.53l-10.3.69C732.74,391.65,732.72,393.08,732.7,394.45Zm-.76-16.4.52,7.68,5.68-.38-.51-7.68ZM740.25,398l-3.3.22.75,11.26,3.3-.22Zm14.92-23.67,6.49-.44.31,4.61-17.69,1.18-.31-4.61,6.6-.44c-.61-1.44-1.27-2.77-1.93-4l4.73-1.12C754,371,754.6,372.54,755.17,374.33ZM745,393.62l-.31-4.6,9.73-.65a50.58,50.58,0,0,0,1.83-8.41l4.42.28a41.05,41.05,0,0,1-1.93,7.84l4.09-.27.31,4.6-6.65.45.34,5.17,5.63-.37.31,4.6-5.63.38.71,10.58-4.84.32-.7-10.58-5.86.39-.31-4.6,5.86-.39-.35-5.18Zm7.83-6.75-3.54,1.78a46.8,46.8,0,0,0-3.39-6.34l3.7-1.85A46.27,46.27,0,0,1,752.87,386.87Z"/><path class="b" d="M771.64,388.69l-3.63-4a53.8,53.8,0,0,0,16.33-17.4l5.53.91c-.74,1.3-1.53,2.54-2.32,3.78l19-1,.21,4.1a57.68,57.68,0,0,1-5.69,6.91l13-.68,1,18.27-12.87.67.54,10.36c.09,1.71.82,2.53,2.24,2.45l8.65-.45a1.8,1.8,0,0,0,1.65-1.17c.42-.82.58-3.17.49-7.1l5.21,1.39c-.16,5.71-.67,9.1-1.63,10.3a6,6,0,0,1-4.42,1.77l-11.33.59c-3.92.2-6-1.92-6.2-6.36l-.6-11.5-2,.11a22,22,0,0,1-1,3c-2.62,6.65-9.34,12.47-20.27,17.38l-3.63-4c9.6-4.15,15.74-9,18.54-14.43.2-.58.45-1.11.66-1.57l-13.55.7-.79-15.31C773.73,387.15,772.69,388,771.64,388.69Zm28.17-12.42-15.93.83a72,72,0,0,1-5.62,6.11l16-.84A68.08,68.08,0,0,0,799.81,376.27Zm-8.65,11.29-11.1.58.42,8.19,10-.51A50.3,50.3,0,0,0,791.16,387.56Zm18-.94-12.64.66a50.89,50.89,0,0,1-.54,8.25l13.6-.71Z"/><path class="b" d="M828.43,401.16l-3.59-4.32a66,66,0,0,0,15-19.27l-13.67.51-.2-5.3,16.23-.6a60.35,60.35,0,0,0,2.56-7.91l5.61.42c-.65,2.47-1.36,4.9-2.18,7.26l27.91-1,.19,5.29L846,377.34a67.65,67.65,0,0,1-7.29,12.48l1,28-5.36.2-.81-21.93C832,397.83,830.25,399.49,828.43,401.16Zm27.21-10.66-.38-10,5.53-.21.37,10,13.16-.49.2,5.24-13.16.49.52,14,15.66-.58.2,5.29L842,415.6l-.2-5.3,14.58-.55-.52-14-12.47.47-.2-5.24Z"/><path class="b" d="M902.67,364.8l.26,11.92a27.87,27.87,0,0,0,9.56-14.07l5.21.91c-.37,1.21-.8,2.42-1.24,3.56l13.45-.29.09,3.93a36,36,0,0,1-7.49,12.2,41.81,41.81,0,0,0,12.86,6.22l-2.93,4.51a41.31,41.31,0,0,1-13.78-7.17,58,58,0,0,1-13.23,8l-3.4-4.26a58.2,58.2,0,0,0,12.84-7.3,37.43,37.43,0,0,1-4.52-6,47.53,47.53,0,0,1-4.3,4.09l-3.11-3.87.15,6.78-5.47.12.17,7.93,5.31-.12.11,5.13-5.3.11.19,8.9c2.27-.79,4.47-1.58,6.51-2.37l.12,5.47a192.48,192.48,0,0,1-20.61,6.55l-1.6-5.21,2.67-.63-.44-20,4.78-.1.42,18.8,3.17-.92-.51-23.43-8,.18-.42-19.15Zm-5,5.13-8.15.18.2,9.12,8.15-.18Zm33.15,44.89-5.19.11-.05-2.16-12.48.27,0,2.17-5.13.11-.48-21.71,22.8-.5Zm-5.34-6.95-.22-9.75-12.48.28.21,9.74Zm-6.84-28.25a32.27,32.27,0,0,0,5.64-7.88l-10.2.23c-.22.34-.44.63-.66.92A35.52,35.52,0,0,0,918.62,379.62Z"/><path class="b" d="M959.2,364.1l.09,15.16a39.59,39.59,0,0,0,8.33-17.38l5.19.54a62.84,62.84,0,0,1-1.79,6.05l18.13-.11c-.14,14.82-.37,23.43-.64,25.82s-1,4.05-1.85,5-3.13,1.33-6.44,1.35h-1.48l-1.28-4.1-8.6.06.06,9.23c0,1.77.75,2.67,2.29,2.67l12-.08a3.22,3.22,0,0,0,2.84-1.44c.34-.69.66-2.74,1-6.11l4.74,1.46a37.39,37.39,0,0,1-1.33,7.24c-.84,2.29-2.71,3.5-5.68,3.63l-15.61.09c-3.53,0-5.26-1.84-5.28-5.49l-.16-26.16c-.79.92-1.53,1.83-2.32,2.69l-2.12-2.66V383l-5.07,0,0,8.15,6,0,0,4.79-6,0,.06,9.34c2-.69,4.09-1.39,6-2.08l0,5.18A161.33,161.33,0,0,1,941,414.25l-1.51-5c.74-.17,1.42-.35,2.11-.46l-.13-20.07,4.68,0,.11,18.92c1.08-.29,2.11-.59,3.13-.82l-.14-23.71-7.7.05-.11-18.92Zm-5,4.82-7.81,0,.06,9.35,7.81-.05Zm27.47,26.61a1.55,1.55,0,0,0,1.59-1.15,28.45,28.45,0,0,0,.37-3.76c0-1.77,0-7.52.07-17.21l-14.82.09a56,56,0,0,1-3.73,6.18l14-.09.1,15.9C980,395.49,980.88,395.54,981.68,395.53Zm-7.44-3.83,0-7.29-5.42,0,.05,7.3Z"/><path class="b" d="M1015.17,408.72l-5.13-.06,0-3.59-6.61-.06-.05,4.95-5.19,0,.45-44.05,16.93.17Zm-5-8.66.13-12.31-6.62-.07-.12,12.31Zm.18-17.21.12-12-6.61-.07-.13,12Zm25.74-20.2L1036,368l10,.11,0,4.95-10-.1,0,5.42,13,.13,0,5-31.35-.32.05-5,13.05.13.06-5.41-10.26-.11,0-4.95,10.26.1,0-5.36Zm.69,26.56,0-4,5.25,0,0,4,6.27.06-.06,5.07-6.27-.06-.14,13.85c0,4.22-1.88,6.36-5.47,6.33l-6.9-.07-1.09-5.14a59.83,59.83,0,0,0,6.21.46c1.31,0,2-1,2-2.94l.13-12.54-18-.19,0-5.07Zm-6.53,15-4.31,3a71.81,71.81,0,0,0-6.52-9l4.25-2.57A78.69,78.69,0,0,1,1030.21,404.25Z"/><path class="b" d="M1067.28,374.51a28.1,28.1,0,0,0,6.07-5l-14.76-.4.13-4.67,20.91.56-.11,3.93a26.55,26.55,0,0,1-9.09,9.39l6.61.18-.39,14.3-12.7-.34-1,5.11,13.91.37c-.19,6.9-.6,11.5-1.23,13.77s-3.57,3.43-8.54,3.53c-2-.06-4-.22-6.09-.39l-1.18-4.77c2,.17,4.1.34,6.26.4q4.28.12,5-1.41a27.38,27.38,0,0,0,.75-6.76l-14.18-.38,2.32-14.2,12.08.33.13-5-10.93-.3c-1.39.48-2.82,1-4.32,1.42l-3.19-4.36c2.07-.57,4-1.14,5.81-1.78,1.21-.42,2.36-.91,3.4-1.33a64.41,64.41,0,0,0-5.65-4.2l4.06-2.4A60.93,60.93,0,0,1,1067.28,374.51Zm31-8.57a28.16,28.16,0,0,1-4.15,3.71,29.84,29.84,0,0,1-2.73,1.63,21.43,21.43,0,0,0,2.57,2,28.74,28.74,0,0,0,3.42-1.9,21,21,0,0,0,3.86-3.54l3.75,2.43a25.86,25.86,0,0,1-4.44,4.22c-.7.49-1.46,1-2.27,1.48a61.5,61.5,0,0,0,8.39,3.87L1103,384c-1.81-.79-3.49-1.58-5.07-2.42l-.11,4.05c0,1,.64,1.55,2.12,1.59l2.91.08-.12,4.39-4.33-.12c-3.53-.09-5.25-1.79-5.17-5l.08-3-7-.19a11.08,11.08,0,0,1-1.28,5,12.69,12.69,0,0,1-4.27,4.1l-3.62-3.41a12.72,12.72,0,0,0,3.76-4.06,20.1,20.1,0,0,0,.91-6.19l12,.33c-5.88-3.7-10.22-7.92-12.94-12.67l4.34-2.27a24.15,24.15,0,0,0,3,3.95,20.32,20.32,0,0,0,2.84-1.57,20.61,20.61,0,0,0,3.56-3.1Zm2,28.16-.12,4.56a24.55,24.55,0,0,1-5,8.13c3.37,2,6.33,4,9,5.95l-3.81,3.66a77.43,77.43,0,0,0-8.84-6.34,39.58,39.58,0,0,1-11.72,5.67l-1.87-4.79a34.47,34.47,0,0,0,8.83-3.81c-2.25-1.31-4.66-2.69-7.19-4l3.33-3.05c2.7,1.33,5.23,2.71,7.7,4.09a23.1,23.1,0,0,0,4.14-5.42l-15-.41.13-4.78Z"/><path class="b" d="M1114.24,392.36l-3.32-4.66q8-7.77,11.4-21.4l5.48,1.22c-.69,2.59-1.42,5-2.21,7.26l10.59.48.43-9.57,5.41.24-.43,9.57,18.28.82-.23,5.24-18.28-.82-.53,11.79,17.14.77-.24,5.24-17.14-.77-.58,13,21.92,1-.24,5.35-50.51-2.27.24-5.36,23.18,1.05.58-13-16.29-.73.24-5.24,16.29.74.53-11.79-12.53-.57A41.08,41.08,0,0,1,1114.24,392.36Z"/><path class="b" d="M1221.35,373.21l-.34,5.23-7.17-.46-2.4,37.6c-.26,4.1-2.38,6-6.25,5.77l-9.55-.61-.92-5.31c3.12.37,6.07.67,8.91.86,1.54.09,2.39-.71,2.5-2.42l2.31-36.23-38.51-2.46.33-5.23Zm-23.94,33.14-17.92-1.15-.3,4.67-5.17-.33,1.69-26.57,23.1,1.48Zm-4.81-5.22.78-12.17-12.8-.82-.77,12.17Z"/><path class="b" d="M1232.39,382.41a73.3,73.3,0,0,1-3.33,15.91l-4.27-1.56a68.65,68.65,0,0,0,3.42-15Zm7.88-10.73-4.36,52.15-5.17-.43,4.36-52.15Zm6,23.38-4.12.69a101.6,101.6,0,0,0-2.45-13.13l3.85-.88A114.32,114.32,0,0,1,1246.27,395.06Zm26.57,31.8-5.23-.44.24-2.78-16.93-1.42-.23,2.73-5.17-.43,3.66-43.86,7.9.66a40,40,0,0,0,3.16-8.31l5.44,1.19a39.91,39.91,0,0,1-3.32,7.56l14.15,1.19Zm-4.57-8.22,1.12-13.41-16.93-1.41-1.12,13.41Zm1.51-18.18,1.09-13L1253.94,386l-1.09,13Z"/><path class="b" d="M1301,426.37l-5.16-.54.3-2.94-9-.94-.48,4.59-5.16-.54,4.29-41.09,5.39.56a52.29,52.29,0,0,0,3.25-9.23l5.31,1.3a46.08,46.08,0,0,1-3.4,8.47l8.73.91Zm-4.33-8.47,1.16-11.17-9-.94L1287.71,417Zm1.67-16,1.08-10.43-9-.93L1289.38,401Zm31.39,24.2c-1,4-3.92,5.78-8.74,5.27-1.14-.12-3.17-.44-6-.91l-.79-5.07c2.48.38,4.62.72,6.44.91,2.27.23,3.69-.82,4.28-3.17.64-2.8,1.8-12.3,3.6-28.44l-14.23-1.49a51.27,51.27,0,0,1-6.53,8.77l-2.78-4.59a50,50,0,0,0,9.78-19.09l5.26,1.24a66,66,0,0,1-3.2,8.66l17.52,1.83Q1331.3,419.37,1329.73,426.11Zm-8.49-11.43-4.56,2.56a108.58,108.58,0,0,0-7.43-13.39l4.65-2.26A95.37,95.37,0,0,1,1321.24,414.68Z"/><path class="b" d="M1364.52,394.56l.36-2.83L1343.17,389l.58-4.58,21.71,2.76.38-2.94,5.31.67-.37,2.94,21.72,2.76-.59,4.58-21.71-2.76-.36,2.83,16.74,2.12L1385.1,409l-16.74-2.12-.35,2.83,17.52,2.22-.93,7.41,5.71.72-.55,4.36-5.72-.73-.94,7.41-17.53-2.22-.36,2.88c-.45,3.51-2.53,5-6.27,4.55l-7-.88-.49-5.23c2.12.49,4.19.93,6.23,1.19,1.36.17,2.17-.36,2.32-1.55l.21-1.64-18.15-2.3.54-4.3,18.15,2.31.4-3.12L1338,417.85l.55-4.36,23.24,2.95.41-3.22-18.1-2.3.53-4.18,18.1,2.29.36-2.83-16.74-2.12,1.48-11.65Zm-.5,3.95-11.42-1.44-.47,3.67,11.43,1.45Zm2.49,23-.39,3.11,12.38,1.57.4-3.11Zm.56-4.35,12.38,1.57.41-3.23-12.39-1.57Zm13.69-16.48-11.42-1.45-.47,3.67,11.43,1.45Z"/><path class="b" d="M1411.49,437l-5.19-.78.39-2.59-6.09-.92-.57,3.78-5.29-.8,6.38-42.44,16.58,2.49Zm-4-8.56,4.26-28.29-6.09-.92-4.26,28.3Zm36.75-3.63-21.42-3.23-2,13.48c-.37,2.48.39,3.92,2.36,4.21l13,2a2.61,2.61,0,0,0,2.69-1.38c.47-.79,1.11-3.18,2-7.19l4.77,2.39a46.7,46.7,0,0,1-2.56,8.15,5.44,5.44,0,0,1-6,3.42L1420.16,444c-3.94-.59-5.57-3.2-4.88-7.77l6.3-41.88,26.61,4ZM1426,400.13l-2.48,16.45,5.53.84,2.48-16.46Zm13.76,18.9,2.48-16.46-5.75-.87L1434,418.16Z"/><path class="b" d="M1479,441.64a3.79,3.79,0,0,1,.68,3.07,4,4,0,0,1-1.7,2.71,4.57,4.57,0,0,1-3.17.6,3.93,3.93,0,0,1-2.65-1.69,3.8,3.8,0,0,1-.74-3.08,3.62,3.62,0,0,1,1.75-2.64,3.88,3.88,0,0,1,3.06-.62A4.08,4.08,0,0,1,1479,441.64Zm6.41-33.08-6.36,28.51-4.43-.78,3.77-29Z"/><path d="M426.09,195.91c-2.85-10.75-19.13-14.63-26.52-6.32l.57.5a17.71,17.71,0,0,0,.64,34.68c10.84,2,21.45-6.86,24.71-17.39A20.86,20.86,0,0,0,426.09,195.91Zm-8.43,10.52c-1.91,6.2-8.15,11.43-14.53,10.23a10.42,10.42,0,0,1-.37-20.4l-.34-.29c4.35-4.88,13.92-2.6,15.6,3.72A12.2,12.2,0,0,1,417.66,206.43Z"/><path d="M427.54,195.51c-3.72-11.9-20.31-16-29-7a1.52,1.52,0,0,0,0,2.12l.57.5.67-2.51c-17.68,4.84-20,29.75-2.45,36.66,17.37,6.83,33.62-13.67,30.24-29.79-.4-1.89-3.29-1.09-2.89.79,2.83,13.49-10.15,30.7-24.85,26.7-16.34-4.43-14.71-27.24.74-31.47a1.5,1.5,0,0,0,.66-2.5l-.57-.5v2.12c7.11-7.32,20.95-4.14,24,5.65C425.22,198.14,428.12,197.36,427.54,195.51Z"/><path d="M416.22,206c-2.08,5.77-8.48,11.65-14.91,8.38-7.67-3.89-6-14.35,1.85-16.7a1.51,1.51,0,0,0,.66-2.51l-.34-.29V197a7.78,7.78,0,0,1,8.6-1.53c4.6,1.83,5.3,6,4.14,10.53-.48,1.88,2.41,2.68,2.89.8,1.43-5.63.4-11.17-5.21-13.83a11,11,0,0,0-12.54,1.91,1.51,1.51,0,0,0,0,2.12l.34.29.66-2.5c-9.22,2.76-12.48,14.4-4.73,20.81,8.24,6.82,18.44-.34,21.48-8.8C419.77,205,416.87,204.23,416.22,206Z"/><path d="M408.07,480.49c-2.85-10.74-19.13-14.62-26.52-6.31l.57.49a17.72,17.72,0,0,0,.64,34.69c10.83,2,21.44-6.86,24.71-17.39A21,21,0,0,0,408.07,480.49ZM399.64,491c-1.92,6.2-8.16,11.43-14.53,10.23a10.42,10.42,0,0,1-.38-20.4l-.33-.29c4.34-4.89,13.92-2.61,15.6,3.71A12.33,12.33,0,0,1,399.64,491Z"/><path d="M409.52,480.09c-3.73-11.89-20.31-16-29-7a1.5,1.5,0,0,0,0,2.12l.57.49.66-2.5c-17.67,4.84-20,29.75-2.45,36.66,17.38,6.83,33.63-13.67,30.25-29.8-.4-1.88-3.29-1.08-2.89.8,2.82,13.49-10.15,30.69-24.86,26.7-16.33-4.44-14.7-27.24.75-31.47a1.51,1.51,0,0,0,.66-2.51l-.57-.49v2.12c7.11-7.32,20.95-4.15,24,5.65C407.2,482.73,410.1,481.94,409.52,480.09Z"/><path d="M398.2,490.62c-2.08,5.77-8.48,11.64-14.91,8.38-7.67-3.89-6-14.35,1.84-16.7a1.52,1.52,0,0,0,.67-2.51l-.34-.29v2.12a7.76,7.76,0,0,1,8.6-1.53c4.6,1.83,5.29,6,4.14,10.53-.48,1.87,2.41,2.67,2.89.8,1.43-5.63.4-11.17-5.21-13.83a11,11,0,0,0-12.54,1.91,1.5,1.5,0,0,0,0,2.12l.33.29.67-2.51c-9.22,2.77-12.49,14.41-4.73,20.82,8.24,6.82,18.44-.34,21.48-8.8C401.74,489.6,398.84,488.82,398.2,490.62Z"/><path d="M1532.05,215.14c3.27,10.53,13.87,19.43,24.71,17.39a17.71,17.71,0,0,0,.64-34.68l.57-.5c-7.39-8.31-23.67-4.43-26.52,6.32A20.86,20.86,0,0,0,1532.05,215.14Zm7.47-7.69c1.68-6.33,11.26-8.61,15.6-3.72l-.34.29a10.42,10.42,0,0,1-.37,20.4c-6.37,1.2-12.61-4-14.53-10.23A12.29,12.29,0,0,1,1539.52,207.45Z"/><path d="M1530.61,215.54c4.69,13.73,21.36,25.31,34.67,14.58,12.53-10.11,7.69-29.57-7.48-33.72l.66,2.51.57-.5a1.52,1.52,0,0,0,0-2.12c-5.32-5.48-13.65-6.22-20.39-2.94-8.81,4.28-10.5,13.34-8,22.19a1.5,1.5,0,0,0,2.89-.8c-2.15-7.72-.89-15.45,7-18.93,5.54-2.46,12.11-1.85,16.43,2.6v-2.12l-.57.49a1.51,1.51,0,0,0,.66,2.51c13.68,3.75,17.15,21.72,4.88,29.59-11.63,7.44-24.6-3.09-28.38-14.14C1532.88,212.92,1530,213.7,1530.61,215.54Z"/><path d="M1541,207.84c1.82-5.34,9.1-7,13.09-3.05v-2.12l-.34.29a1.51,1.51,0,0,0,.67,2.51c8.67,2.6,9.41,15.42-.19,17.4-8.15,1.67-14.47-7.77-13.23-15,.32-1.88-2.57-2.7-2.9-.79-1.73,10.15,8.27,23.22,19.35,17.93,10.36-4.93,8.21-19.27-2.24-22.4l.66,2.5.34-.29a1.51,1.51,0,0,0,0-2.12c-5.67-5.55-15.56-3.08-18.11,4.38C1537.45,208.88,1540.35,209.66,1541,207.84Z"/><path d="M1550.07,499.73c3.27,10.53,13.88,19.43,24.71,17.39a17.72,17.72,0,0,0,.64-34.69l.57-.49c-7.38-8.31-23.67-4.43-26.52,6.31A21,21,0,0,0,1550.07,499.73Zm7.47-7.7c1.68-6.32,11.26-8.6,15.6-3.71l-.33.29a10.42,10.42,0,0,1-.38,20.4c-6.37,1.2-12.61-4-14.53-10.23A12.33,12.33,0,0,1,1557.54,492Z"/><path d="M1548.63,500.12c4.7,13.73,21.37,25.32,34.67,14.59,12.53-10.11,7.7-29.57-7.48-33.72l.66,2.5.58-.49a1.52,1.52,0,0,0,0-2.12c-5.32-5.48-13.66-6.23-20.4-2.95-8.81,4.29-10.5,13.35-8,22.19a1.5,1.5,0,0,0,2.89-.79c-2.15-7.72-.89-15.45,7-18.93,5.55-2.46,12.11-1.85,16.43,2.6v-2.12l-.57.49a1.51,1.51,0,0,0,.66,2.51c13.68,3.75,17.15,21.72,4.88,29.58-11.63,7.45-24.6-3.08-28.38-14.13C1550.9,497.51,1548,498.29,1548.63,500.12Z"/><path d="M1559,492.43c1.82-5.34,9.1-7,13.09-3.05v-2.12l-.33.29a1.52,1.52,0,0,0,.66,2.51c8.67,2.6,9.42,15.42-.19,17.39-8.15,1.68-14.47-7.76-13.23-15,.32-1.89-2.57-2.7-2.89-.8-1.73,10.15,8.26,23.23,19.35,17.94,10.35-4.93,8.2-19.27-2.24-22.41l.66,2.51.34-.29a1.52,1.52,0,0,0,0-2.12c-5.68-5.55-15.57-3.08-18.11,4.37C1555.47,493.47,1558.37,494.25,1559,492.43Z"/><path d="M375.34,177.38q-3.18,135.75-14,271.18-3.06,38.18-6.74,76.3c-.19,1.92,2.81,1.91,3,0q13-135.17,18.38-270.92,1.5-38.26,2.39-76.56c0-1.93-3-1.93-3,0Z"/><path d="M1596.32,534.06c-2.14-92.83-3.09-185.74-8.71-278.45q-2.37-39.17-6-78.23c-.18-1.9-3.18-1.92-3,0,8.88,92.45,11.16,185.38,13.1,278.19q.83,39.24,1.66,78.49c0,1.93,3,1.94,3,0Z"/><path d="M1333.05,165.71l89.33,8.53,44.17,4.22c14.12,1.35,28.24,2.87,41.6,7.93,1.8.68,2.59-2.21.79-2.89-12.46-4.72-25.64-6.4-38.83-7.7-15.25-1.5-30.51-2.91-45.77-4.37l-91.29-8.72c-1.93-.19-1.91,2.81,0,3Z"/><path d="M486.12,500.08l205.33-28.17c1.9-.27,1.09-3.16-.8-2.9L485.32,497.19c-1.9.26-1.09,3.15.8,2.89Z"/><path d="M643.31,153.91q121.94-9.09,244.34-6.64c1.93,0,1.93-3,0-3q-122.25-2.45-244.34,6.64c-1.91.14-1.93,3.14,0,3Z"/><path class="c" d="M1555.06,480.59q-6.61,18.3-11.93,37.05a1.76,1.76,0,0,0,0,1.54,1.71,1.71,0,0,0,.86.51l23.45,8.46,11.46-27.59a5.13,5.13,0,0,0,.59-3c-.31-1.46-1.77-2.34-3.08-3l-22.56-12.11"/><path d="M1553.61,480.19q-3.45,9.62-6.59,19.34-1.49,4.64-2.88,9.3c-.82,2.7-2.65,6.38-2.61,9.21,0,3.19,3.1,3.46,5.71,4.4l19.85,7.15a1.53,1.53,0,0,0,1.84-1.05l7.64-18.39c1.43-3.45,5.44-9.32,4.34-13.21-1-3.48-6.17-5.09-8.91-6.56l-17.35-9.32c-1.7-.91-3.22,1.68-1.52,2.59l13.88,7.46c3.8,2,11,3.82,10.49,9.05-.21,2.24-2.19,5.27-3.06,7.36l-2.29,5.51L1566,527.75l1.84-1-14.43-5.2c-2.17-.78-5.32-1.31-7.22-2.6s-1.26-.57-1.12-2.74a22.86,22.86,0,0,1,1.36-4.67q4.58-15.39,10-30.51c.65-1.82-2.25-2.6-2.9-.79Z"/><path d="M1555,496.08a109.92,109.92,0,0,0-6.88,21.21c-.4,1.88,2.49,2.69,2.9.8a105,105,0,0,1,6.57-20.49c.77-1.76-1.82-3.28-2.59-1.52Z"/><path class="c" d="M1558.07,463.71c4.68.84,8.42,4.26,11.86,7.54l21,20c2.56,2.43,5.2,5,6.37,8.32,2.37,6.74-2,13.81-6.14,19.63-1.72,2.41-4.13,5.12-7,4.55-1.72-.33-3-1.74-4.11-3.08q-18.46-21.9-34.85-45.45Z"/><path d="M1557.67,465.16c5.5,1.33,9.34,5.38,13.31,9.15l11.91,11.32c3.69,3.51,7.95,6.87,11,10.95,4.54,6,2,12.63-1.65,18.35-.6,1-1.22,1.9-1.88,2.81-1.84,2.51-1.78,2.75-5.29,2.8s-2.89.32-4.59-1.68c-1-1.21-2-2.44-3.06-3.67q-5.18-6.26-10.18-12.64-10.79-13.76-20.76-28.11l-.24,1.82,12.87-11.49c1.45-1.29-.68-3.4-2.12-2.12l-12.87,11.49a1.5,1.5,0,0,0-.23,1.81q13.23,19,27.78,36.93c2.92,3.6,7,11.25,12.07,12.3,4.72,1,8-4,10.16-7.31,3.26-4.87,6.43-10.69,5.34-16.76-.93-5.22-5-8.78-8.64-12.27l-16.82-16c-4.59-4.35-9-9-15.33-10.58C1556.59,461.81,1555.79,464.7,1557.67,465.16Z"/><path d="M1565.4,493.7l19.44,19c1.38,1.35,3.5-.77,2.12-2.12l-19.44-19c-1.38-1.35-3.51.77-2.12,2.12Z"/><path class="c" d="M1534.52,482.86a382.48,382.48,0,0,1,58.92-9.31l9.41,18.71c.59,1.16,1.16,2.6.44,3.68a3.79,3.79,0,0,1-2.73,1.22l-62.69,9.17-3.35-23.47"/><path d="M1534.92,484.31q16.29-3.88,32.85-6.36,9.43-1.43,18.94-2.34c2.7-.26,5-1.1,6.72,1.25s2.94,5.84,4.28,8.5c1.09,2.18,3.55,5.31,3.85,7.65.47,3.73-4.59,3.17-7.27,3.57l-18.62,2.72-38.2,5.59,1.85,1.05L1536,482.46c-.27-1.9-3.16-1.09-2.89.8l3.34,23.47c.13.87,1.14,1.16,1.85,1l54.85-8c3.65-.53,12.1.11,12-5.39-.09-3.27-2.94-6.86-4.34-9.66l-6-11.91a1.48,1.48,0,0,0-1.3-.74,376.54,376.54,0,0,0-59.32,9.36c-1.87.45-1.08,3.34.8,2.9Z"/><path d="M1546.82,499.76q22.82-5.83,46-10.13l-.8-2.89-.5.11c-1.88.43-1.08,3.33.8,2.89l.5-.11c1.9-.44,1.08-3.24-.8-2.89q-23.14,4.29-46,10.12c-1.87.48-1.08,3.37.79,2.9Z"/><path d="M1605.44,490.74,1596,472a2.93,2.93,0,0,0-2.59-1.49q-6.6.49-13.19,1.24c-1.25.14-3.58.95-4.83.53-1.44-.47-3.39-3.25-4.53-4.29-3.08-2.82-9.63-9-14.33-6.91-2.29,1-4.47,3.91-6.3,5.55l-7.18,6.4a3,3,0,0,0-.47,3.64q1.62,2.31,3.25,4.61l1.79-4.41q-7,1.41-13.92,3.06c-1.72.41-2.32,2.13-2.1,3.69q1.68,11.73,3.35,23.47c.25,1.74,2.26,2.31,3.69,2.1l9-1.32-3.69-3.69c-1.26,4.07-3.12,8.4-3.77,12.62-.35,2.26-.14,3.84,1.86,5.19,3,2.05,7.61,2.89,11.07,4.13l13.53,4.88c1.66.6,3.11-.7,3.69-2.1l6.27-15.1-5,1.33c2.94,3.6,6.06,9.16,10.51,11,4.21,1.76,7.86-.84,10.48-4,5.91-7.06,11-17,6.47-26l-1.79,4.41c6.22-.91,11.26-2.67,8.13-9.91-1.53-3.53-6.7-.48-5.18,3,.36.82,0,.34-1.17.6s-2.27.33-3.38.49c-2,.3-2.57,2.88-1.79,4.41,2.85,5.62-.75,11.66-3.89,16.33-2,3-4.08,5.87-7.85,2.93-2.42-1.88-4.36-5.23-6.3-7.61-1.6-1.95-4.25-.51-5,1.33l-6.27,15.1,3.69-2.1-18-6.5c-1.2-.43-2.39-.91-3.61-1.3-.68,1.29-.8,1.32-.35.08.17-.6.34-1.21.52-1.81,1-3.31,2-6.61,3-9.91.75-2.41-1.57-4-3.69-3.69l-9,1.32,3.69,2.1q-1.66-11.75-3.34-23.48l-2.1,3.69q6.95-1.65,13.93-3.05a3,3,0,0,0,1.79-4.41q-1.63-2.3-3.25-4.61l-.47,3.64,12.87-11.49-2.92.77c3.79.92,6.57,3.09,9.38,5.68,1.92,1.76,3.92,4.67,6.25,5.82s6.81-.26,9.28-.53c3.75-.41,7.5-.74,11.26-1l-2.59-1.49q4.71,9.36,9.41,18.71C1602,497.22,1607.17,494.19,1605.44,490.74Z"/><path class="c" d="M1568.84,199.47q-18-7.36-36.53-13.44a1.81,1.81,0,0,0-1.54,0,1.84,1.84,0,0,0-.56.85L1520.82,210l27.09,12.57a5.27,5.27,0,0,0,3,.71c1.47-.26,2.41-1.67,3.17-3l13-22"/><path d="M1569.24,198q-9.46-3.84-19.06-7.37-4.58-1.68-9.17-3.26c-2.64-.91-6.3-2.95-9.1-3-3.16,0-3.56,3.09-4.59,5.61l-8,19.54a1.48,1.48,0,0,0,.69,1.69l18.06,8.38c3.35,1.56,9.26,5.9,13.21,5.06,3.36-.72,5.07-5.35,6.57-7.89L1568.41,199a1.5,1.5,0,0,0-2.59-1.51l-7,11.87-4,6.78-2,3.39c-.56,1.81-1.74,2.21-3.52,1.22-4.92-.7-9.66-3.7-14.17-5.79l-13.55-6.29.69,1.69,5.79-14.21c.85-2.09,1.51-5.32,2.89-7.1s.73-1.17,2.82-.94a24.08,24.08,0,0,1,4.61,1.56q15.2,5.19,30.07,11.26c1.79.73,2.57-2.17.8-2.89Z"/><path d="M1553.31,198.75a109.39,109.39,0,0,0-20.92-7.72c-1.87-.47-2.67,2.42-.79,2.9a105.41,105.41,0,0,1,20.2,7.41c1.72.85,3.25-1.74,1.51-2.59Z"/><path class="c" d="M1585.58,203.16c-1,4.65-4.6,8.24-8,11.55l-20.83,20.2c-2.53,2.45-5.19,5-8.57,6-6.83,2.09-13.72-2.55-19.36-6.93-2.34-1.82-5-4.34-4.26-7.22.4-1.7,1.86-2.9,3.24-4q22.64-17.56,46.84-33Z"/><path d="M1584.13,202.76c-1.55,5.43-5.79,9.11-9.71,12.91l-11.8,11.44c-3.74,3.63-7.44,8-11.84,10.9-6.06,3.92-12.54.85-17.82-2.8-1.09-.75-2.14-1.54-3.17-2.37-2.3-1.87-2.23-1.53-2.09-5,.14-3.66,0-3.06,2.51-5q2.19-1.69,4.4-3.36,6.48-4.89,13.08-9.62,13.59-9.72,27.7-18.71l-1.82-.23,11,13.32c1.23,1.5,3.34-.64,2.12-2.12l-11-13.32a1.51,1.51,0,0,0-1.82-.24q-20.11,12.86-39.25,27.18c-3.38,2.54-10.4,6.08-11.52,10.66s3.75,8.08,7,10.43c4.73,3.45,10.43,6.85,16.54,6,5.24-.74,9-4.67,12.59-8.18q8.34-8.07,16.66-16.16c4.55-4.42,9.37-8.6,11.18-14.9A1.51,1.51,0,0,0,1584.13,202.76Z"/><path d="M1555.27,209.3,1535.52,228c-1.41,1.33.72,3.45,2.12,2.12l19.76-18.65c1.4-1.32-.72-3.44-2.13-2.12Z"/><path class="c" d="M1567.41,178.85a383.2,383.2,0,0,1,6.9,59.25l-19.07,8.64c-1.19.54-2.65,1-3.7.29a3.77,3.77,0,0,1-1.11-2.77q-3.32-31.51-6.62-63l23.6-2.39"/><path d="M1566,179.25q3.35,17.12,5.15,34.48.89,8.37,1.37,16.76c.13,2.35,1,5.28-.66,7.1s-6.47,2.93-8.67,3.93c-2.63,1.19-5.45,3-8.25,3.7-4.08,1-3.26-3.76-3.59-6.87l-2-18.71-4-38.4-1.5,1.5,23.6-2.39c1.9-.19,1.92-3.19,0-3l-23.6,2.39c-.74.08-1.59.63-1.5,1.5l5.89,56.12c.36,3.41-.51,11.34,4.7,11.53,3,.11,6.59-2.43,9.16-3.6l13-5.89a1.48,1.48,0,0,0,.74-1.3,376,376,0,0,0-7-59.64c-.37-1.9-3.26-1.1-2.89.79Z"/><path d="M1550,190.52q4.89,23,8.25,46.32l2.89-.79-.1-.51c-.35-1.89-3.24-1.09-2.89.8l.1.5c.36,1.93,3.16,1.07,2.89-.79q-3.36-23.31-8.25-46.33c-.4-1.89-3.29-1.09-2.89.8Z"/><path d="M1556.75,249.33l19.07-8.64a2.93,2.93,0,0,0,1.49-2.59q-.22-6.61-.7-13.22c-.1-1.32-.76-3.52-.25-4.82s3.37-3.24,4.47-4.35c2.94-3,9.38-9.32,7.34-14.06-1-2.32-3.73-4.58-5.31-6.5l-6.11-7.43a3,3,0,0,0-3.64-.47l-4.73,3.05,4.4,1.8q-1.12-7-2.48-14a3,3,0,0,0-2.89-2.21l-23.6,2.39c-1.47.15-3.18,1.26-3,3l1,9.07,3.79-2.89c-4-1.42-8.28-3.53-12.45-4.28-2.27-.41-3.83-.19-5.21,1.78-2.13,3-3.16,7.48-4.55,10.91l-5.43,13.32a3,3,0,0,0,1.38,3.39l14.83,6.88v-5.18c-3.72,2.79-9.65,5.88-11.84,10.2-2,4,.19,7.95,3.22,10.71,6.94,6.33,16.71,11.87,26,7.62l-4.51-2.59c.59,5.63,1.59,12.33,9,9.46,3.57-1.38,2-7.18-1.59-5.79-1.61.62-.62.84-1.06-.15a14.89,14.89,0,0,1-.38-3.52,3,3,0,0,0-4.51-2.59c-5.41,2.47-11.16-1.08-15.48-4.17-2.59-1.85-6-3.83-4.13-7.66,1-2.18,6.25-4.82,8.28-6.34,1.6-1.21,2.27-4.13,0-5.18l-14.83-6.89,1.38,3.39,7.23-17.76a16.51,16.51,0,0,1,1.44-3.55c-1.17-.6-1.16-.67,0-.21l1.79.6c3.27,1.09,6.53,2.23,9.78,3.38a3,3,0,0,0,3.8-2.89l-1-9.07-3,3,23.6-2.39-2.9-2.2q1.37,7,2.49,14c.3,1.89,2.91,2.77,4.4,1.79l4.74-3-3.63-.47,11,13.32-.77-2.91c-1.07,3.73-3.41,6.4-6.11,9.1-1.83,1.84-4.84,3.73-6,6s0,6.85.21,9.31c.25,3.76.43,7.53.56,11.29l1.49-2.59-19.08,8.64C1550.21,245.74,1553.26,250.92,1556.75,249.33Z"/><path class="c" d="M394.61,187.54Q388,205.86,382.67,224.6a1.83,1.83,0,0,0,0,1.54,1.79,1.79,0,0,0,.87.51L407,235.11l11.46-27.59a5.29,5.29,0,0,0,.59-3c-.32-1.47-1.77-2.35-3.09-3l-22.55-12.11"/><path d="M393.16,187.15q-3.45,9.61-6.59,19.34-1.49,4.63-2.89,9.3c-.81,2.7-2.65,6.38-2.61,9.21.05,3.19,3.11,3.46,5.72,4.4l19.84,7.15a1.54,1.54,0,0,0,1.85-1.05l7.64-18.39c1.43-3.45,5.44-9.32,4.33-13.21-1-3.48-6.16-5.09-8.91-6.56L394.19,188c-1.7-.91-3.21,1.68-1.51,2.59l13.88,7.46c3.8,2,11,3.82,10.48,9.05-.2,2.24-2.18,5.27-3.05,7.36L411.7,220l-6.11,14.72,1.84-1.05L393,228.46c-2.17-.78-5.33-1.31-7.22-2.6s-1.26-.58-1.13-2.74a23.54,23.54,0,0,1,1.37-4.67q4.58-15.39,10-30.51c.66-1.82-2.24-2.6-2.89-.79Z"/><path d="M394.55,203a109.67,109.67,0,0,0-6.87,21.21c-.4,1.88,2.49,2.69,2.89.8a106,106,0,0,1,6.58-20.5c.76-1.75-1.82-3.28-2.6-1.51Z"/><path class="c" d="M397.62,170.67c4.68.84,8.41,4.26,11.86,7.54l21,20c2.55,2.43,5.2,5,6.37,8.32,2.37,6.74-2,13.81-6.14,19.63-1.72,2.41-4.13,5.12-7,4.55-1.71-.33-3-1.74-4.1-3.08q-18.47-21.9-34.85-45.45Z"/><path d="M397.22,172.12c5.49,1.33,9.34,5.38,13.3,9.15l11.92,11.32c3.68,3.51,7.94,6.87,11,10.95,4.54,6,2,12.63-1.65,18.35-.6,1-1.22,1.9-1.89,2.81-1.84,2.51-1.77,2.75-5.28,2.8s-2.89.32-4.59-1.68c-1-1.21-2.05-2.44-3.06-3.67q-5.17-6.26-10.18-12.64Q396,195.76,386.05,181.4l-.24,1.82,12.87-11.49c1.44-1.29-.68-3.4-2.12-2.12l-12.87,11.48a1.5,1.5,0,0,0-.23,1.82q13.21,19,27.78,36.93c2.91,3.6,7,11.25,12.06,12.3,4.73,1,7.95-4,10.17-7.31,3.26-4.87,6.43-10.69,5.34-16.76-.94-5.22-5-8.78-8.64-12.27l-16.83-16c-4.58-4.36-9-9-15.32-10.58C396.14,168.77,395.34,171.66,397.22,172.12Z"/><path d="M404.94,200.66l19.44,19c1.38,1.35,3.51-.77,2.12-2.12l-19.43-19c-1.39-1.35-3.51.77-2.13,2.12Z"/><path class="c" d="M374.07,189.82A382.48,382.48,0,0,1,433,180.51l9.41,18.71c.58,1.16,1.16,2.6.43,3.68a3.77,3.77,0,0,1-2.72,1.22l-62.69,9.17-3.35-23.47"/><path d="M374.47,191.27q16.27-3.89,32.85-6.36,9.44-1.42,18.94-2.34c2.7-.26,5-1.1,6.72,1.25s2.94,5.84,4.27,8.5c1.1,2.18,3.56,5.31,3.85,7.65.48,3.73-4.58,3.17-7.27,3.56l-18.61,2.73L377,211.85l1.84,1-3.34-23.47c-.28-1.9-3.17-1.09-2.9.8L376,213.69c.12.87,1.13,1.15,1.85,1.05l54.85-8c3.65-.53,12.1.11,11.95-5.39-.09-3.27-2.94-6.86-4.35-9.66l-6-11.91A1.46,1.46,0,0,0,433,179a376.54,376.54,0,0,0-59.32,9.36c-1.88.45-1.08,3.34.8,2.9Z"/><path d="M386.37,206.71q22.8-5.82,45.95-10.12l-.79-2.89-.5.11c-1.88.43-1.09,3.33.8,2.89l.49-.11c1.9-.44,1.08-3.24-.79-2.89q-23.14,4.29-46,10.12c-1.87.48-1.07,3.37.8,2.89Z"/><path d="M445,197.7,435.58,179a2.93,2.93,0,0,0-2.59-1.49c-4.41.33-8.8.73-13.19,1.24-1.25.14-3.58.94-4.84.53-1.43-.47-3.39-3.25-4.52-4.29-3.08-2.82-9.64-9-14.34-6.91-2.29,1-4.46,3.91-6.3,5.55l-7.17,6.4a3,3,0,0,0-.47,3.64q1.62,2.31,3.25,4.61l1.79-4.41q-7,1.41-13.93,3.06c-1.72.4-2.32,2.13-2.09,3.69q1.67,11.73,3.34,23.47c.25,1.74,2.27,2.31,3.69,2.1l9-1.32-3.69-3.69c-1.25,4.07-3.11,8.4-3.76,12.62-.35,2.26-.14,3.84,1.85,5.19,3.05,2,7.62,2.89,11.07,4.13L406.23,238c1.66.6,3.11-.7,3.69-2.1q3.13-7.54,6.28-15.1l-5,1.33c2.95,3.6,6.07,9.16,10.52,11,4.21,1.75,7.85-.84,10.48-4,5.9-7.06,11-17,6.47-26l-1.8,4.41c6.23-.91,11.27-2.67,8.14-9.91-1.53-3.53-6.7-.48-5.18,3,.36.82.05.34-1.17.6s-2.27.33-3.38.49c-2,.3-2.57,2.88-1.79,4.41,2.85,5.62-.76,11.66-3.89,16.33-2,3-4.08,5.87-7.86,2.93-2.42-1.88-4.35-5.23-6.29-7.61-1.6-1.95-4.26-.51-5,1.33l-6.27,15.1,3.69-2.1-18-6.5c-1.2-.43-2.4-.91-3.61-1.3-.68,1.29-.8,1.32-.36.08.18-.6.35-1.21.53-1.81q1.44-5,3-9.91c.74-2.41-1.57-4-3.69-3.69l-9,1.32,3.69,2.1Q378.63,200.76,377,189l-2.09,3.69q6.93-1.65,13.93-3.05a3,3,0,0,0,1.79-4.41q-1.63-2.3-3.25-4.61l-.47,3.64,12.87-11.49-2.92.77c3.79.92,6.56,3.09,9.38,5.68,1.92,1.76,3.92,4.66,6.25,5.82s6.8-.26,9.28-.53c3.75-.41,7.5-.74,11.26-1L430.4,182l9.41,18.71C441.54,204.18,446.72,201.15,445,197.7Z"/><path class="c" d="M395.06,502.72q9.18-17.18,17.14-35a1.79,1.79,0,0,0,.18-1.53,1.76,1.76,0,0,0-.78-.64l-22-11.74-15.3,25.65a5.29,5.29,0,0,0-1,2.93c.11,1.49,1.42,2.57,2.62,3.46l20.58,15.23"/><path d="M396.35,503.47q4.8-9,9.29-18.15c2.64-5.42,6.2-11.2,7.93-17,1.07-3.58-1.72-4.31-4.6-5.85l-18.61-9.93a1.52,1.52,0,0,0-2.05.54l-10.21,17.1c-1.93,3.23-6.68,8.4-6.3,12.43.34,3.68,5.55,6.2,8.08,8.07l15.83,11.71c1.56,1.15,3.05-1.45,1.52-2.59l-11.08-8.19c-2.11-1.57-4.23-3.12-6.33-4.69-3.09-2.31-5.39-3.18-3.72-7.53,1.59-4.13,4.88-8.17,7.15-12l7.65-12.83-2,.54,13.53,7.22c1.83,1,5.42,2.06,6.77,3.61,2.18,2.51-.61,6.23-1.71,8.61Q401,488.46,393.76,502c-.9,1.7,1.68,3.22,2.59,1.51Z"/><path d="M397.46,487.21a108.61,108.61,0,0,0,9.81-20c.66-1.82-2.23-2.6-2.9-.8a104.56,104.56,0,0,1-9.5,19.31c-1,1.64,1.57,3.15,2.59,1.51Z"/><path class="c" d="M389.65,519c-4.51-1.5-7.71-5.43-10.65-9.16L361.06,487c-2.18-2.78-4.43-5.69-5.1-9.15-1.38-7,4-13.39,8.89-18.54,2-2.14,4.83-4.48,7.62-3.5,1.65.58,2.7,2.16,3.62,3.64q15.12,24.33,28,50Z"/><path d="M390.05,517.53c-5.47-2.2-8.87-7.35-12.38-11.81L367.5,492.8c-3.51-4.48-8.78-9.43-10-15.15-1.25-6,3-11.4,6.8-15.56,2.08-2.29,3.73-4.55,7-4s4.75,4.23,6.47,7.07q4.47,7.33,8.74,14.8,8.52,14.94,16.21,30.32l.54-2.06-14.39,9.52c-1.6,1.06-.1,3.66,1.52,2.59l14.38-9.52a1.54,1.54,0,0,0,.54-2.05q-10.69-21.34-23-41.85c-2.27-3.79-5.17-11.67-10.19-12.59-4.84-.89-8.8,4.22-11.54,7.47-3.12,3.72-6.15,8.14-6.37,13.17-.26,5.87,3.52,10.33,6.94,14.69q7.16,9.12,14.34,18.24c4,5,7.6,10.13,13.71,12.59C391,521.15,391.82,518.25,390.05,517.53Z"/><path d="M386.81,488.39,370.3,466.82c-1.16-1.52-3.76,0-2.59,1.51l16.51,21.58c1.16,1.51,3.76,0,2.59-1.52Z"/><path class="c" d="M415.71,503.42a383.22,383.22,0,0,1-59.65.74l-6.62-19.87c-.41-1.23-.77-2.74.1-3.7a3.74,3.74,0,0,1,2.88-.82l63.35-.06-.06,23.71"/><path d="M415.71,501.92a373.59,373.59,0,0,1-59.65.74l1.45,1.1-3.31-9.93c-.84-2.52-3.55-7.32-3.31-9.94.38-4.19,7.56-2.63,10.43-2.63h10.89l43.56,0-1.5-1.5-.06,23.71a1.5,1.5,0,0,0,3,0l.06-23.71a1.52,1.52,0,0,0-1.5-1.5l-55.44.05c-3.54,0-12-1.83-12.79,3.44-.49,3.22,1.89,7.28,2.86,10.21l4.22,12.65a1.55,1.55,0,0,0,1.44,1.1,373.59,373.59,0,0,0,59.65-.74c1.91-.17,1.92-3.17,0-3Z"/><path d="M406.15,484.92q-23.4,2.49-46.93,3.41v3l.51,0c1.91-.16,1.93-3.16,0-3l-.51,0c-1.9.16-2,3.08,0,3q23.52-.93,46.93-3.41c1.9-.2,1.92-3.2,0-3Z"/><path d="M346.55,485.09q3.31,9.93,6.62,19.86a3.14,3.14,0,0,0,2.89,2.21q6.62.46,13.23.67c1.4,0,3.44-.26,4.72.46,1.08.61,2.05,2.63,2.87,3.65,2.63,3.31,8.73,11.44,13.93,9.78,2.45-.78,5-3.24,7.13-4.63l7.61-5a3.09,3.09,0,0,0,1.08-4.11l-2.55-5-2.59,4.52q7.11-.39,14.22-1a3.07,3.07,0,0,0,3-3l.06-23.71a3,3,0,0,0-3-3h-9.11l2.59,4.51c1.86-3.91,4.08-7.86,5.54-12,.76-2.12,1-3.76-.68-5.48-2.5-2.58-7.15-4.08-10.3-5.76l-12.69-6.77a3.07,3.07,0,0,0-4.11,1.08l-8.37,14h5.18c-2.4-4-4.94-10.52-9.27-12.84-3.86-2.08-7.77-.11-10.74,2.59-6.6,6-13.33,15.11-10.19,24.42l2.89-3.8c-5.94,0-12,.67-10,8.33,1,3.72,6.8,2.14,5.79-1.59-.37-1.34,3.35-.74,4.17-.74A3,3,0,0,0,359.4,479c-2.06-6.12,2.05-11.5,6-15.82,2.15-2.36,4.5-5.72,7.58-2.94,2.27,2,4.13,6.63,5.68,9.21a3,3,0,0,0,5.18,0l8.37-14-4.1,1.07L404.16,465c1,.51,2.63,1,3.39,1.81,1.42,1.44,1.1.84.51,2.84-.87,2.91-2.69,5.78-4,8.52a3,3,0,0,0,2.59,4.52h9.11l-3-3-.06,23.71,3-3q-7.11.63-14.22,1A3,3,0,0,0,398.9,506l2.55,5,1.07-4.1-6.36,4.21c-1.76,1.16-5.75,5.05-7.87,5.2,1.25-.09-2-2.81-2.43-3.18a36.16,36.16,0,0,1-3.24-3.54c-1.53-1.85-3.57-5.76-5.63-7-2.34-1.38-6.05-.72-8.67-.8q-6.13-.21-12.26-.64l2.9,2.2q-3.31-9.93-6.62-19.86C351.12,479.85,345.32,481.41,346.55,485.09Z"/><path class="a" d="M1844.33,666.3c-4.09,4.16-2,12.41,3.52,14.17s12-3.82,11-9.57-8.85-8.94-13.53-5.48"/><path d="M1842.21,664.18a12.14,12.14,0,0,0-.26,15.64c4,4.95,11,5,15.67,1s5.89-11,1.63-15.72c-3.8-4.26-10.59-5.52-15.42-2.31-3.2,2.12-.2,7.32,3,5.18,5.26-3.5,12.44,3.2,7.11,8.09s-11.81-2.86-7.52-7.68c2.56-2.87-1.67-7.13-4.24-4.24Z"/><path class="b" d="M1665.64,762.38c-2.59,2.63-1.29,7.87,2.24,9s7.6-2.42,7-6.07-5.61-5.67-8.58-3.47"/><path d="M1663.52,760.26a8.82,8.82,0,0,0-.16,11.47c2.93,3.58,8.09,3.58,11.49.66a8,8,0,0,0,1-11.53,8.8,8.8,0,0,0-11.1-1.63c-3.21,2.12-.2,7.32,3,5.18,2.28-1.52,5.69,1.17,3.18,3.41-2.3,2.06-5-1.3-3.22-3.32,2.56-2.88-1.66-7.13-4.24-4.24Z"/><path class="b" d="M1793.91,641.42c-2.59,2.64-1.29,7.87,2.23,9s7.6-2.43,7-6.07-5.61-5.67-8.59-3.48"/><path d="M1791.79,639.3a8.82,8.82,0,0,0-.17,11.47c2.93,3.59,8.09,3.58,11.5.66a8,8,0,0,0,1-11.52,8.8,8.8,0,0,0-11.11-1.64c-3.2,2.13-.2,7.33,3,5.18,2.28-1.51,5.68,1.17,3.18,3.42-2.3,2.06-5-1.3-3.22-3.33,2.56-2.87-1.67-7.13-4.24-4.24Z"/><path class="a" d="M1809.89,810.78c-2.59,2.64-1.29,7.87,2.23,9s7.6-2.43,7-6.07-5.61-5.67-8.59-3.48"/><path d="M1807.77,808.66a8.82,8.82,0,0,0-.17,11.47c2.93,3.58,8.09,3.58,11.5.66a8,8,0,0,0,1-11.52,8.8,8.8,0,0,0-11.11-1.64c-3.2,2.13-.2,7.33,3,5.18,2.28-1.51,5.68,1.17,3.18,3.41-2.3,2.07-5-1.29-3.22-3.32,2.56-2.87-1.67-7.13-4.24-4.24Z"/><path class="a" d="M1672.91,685.17c-4.08,4.16-2,12.41,3.53,14.17s12-3.82,11-9.57-8.84-8.94-13.53-5.48"/><path d="M1670.79,683.05a12.15,12.15,0,0,0-.26,15.64c4,4.95,11,5,15.68,1s5.89-11,1.63-15.72c-3.81-4.26-10.59-5.52-15.42-2.31-3.2,2.12-.2,7.32,3,5.18,5.26-3.5,12.43,3.2,7.11,8.1s-11.81-2.87-7.53-7.69c2.56-2.87-1.66-7.13-4.24-4.24Z"/><path d="M1771.05,736.83a189.44,189.44,0,0,1,62.52-49.66c1.73-.86.21-3.45-1.52-2.59a191.75,191.75,0,0,0-63.13,50.13c-1.21,1.48.9,3.62,2.13,2.12Z"/><path d="M1771.38,736.51a165.93,165.93,0,0,1,78.46-11c3.83.39,3.81-5.61,0-6a170.07,170.07,0,0,0-80.06,11.18c-3.54,1.41-2,7.22,1.6,5.79Z"/><path d="M1768.57,741.3A140.85,140.85,0,0,1,1832,741c3.77.85,5.37-4.94,1.6-5.79a147.87,147.87,0,0,0-66.57.29c-3.76.88-2.17,6.67,1.59,5.79Z"/><path d="M1770,740.19a408.64,408.64,0,0,1,65.8,24.64c1.74.82,3.26-1.76,1.52-2.59a412.26,412.26,0,0,0-66.52-24.94,1.5,1.5,0,0,0-.8,2.89Z"/><path d="M1767.72,744.26a132.11,132.11,0,0,1,67.73,65.14c.82,1.74,3.41.22,2.59-1.52a134.63,134.63,0,0,0-68.8-66.21c-1.76-.75-3.29,1.83-1.52,2.59Z"/><path d="M1762,740.38a139.29,139.29,0,0,1,28.21,77.82c.09,1.92,3.09,1.93,3,0a142,142,0,0,0-28.62-79.33c-1.15-1.52-3.76,0-2.59,1.51Z"/><path d="M1763,751.51l.78,36c0,1.93,3,1.93,3,0l-.78-36c0-1.93-3-1.93-3,0Z"/><path d="M1754.13,741.05a133,133,0,0,0-22.94,33.2c-.85,1.73,1.74,3.25,2.59,1.51a130.45,130.45,0,0,1,22.47-32.59c1.33-1.4-.79-3.53-2.12-2.12Z"/><path d="M1751.28,736.74a117,117,0,0,0-63.39,19.77c-1.6,1.07-.1,3.67,1.51,2.59a114.18,114.18,0,0,1,61.88-19.36c1.93,0,1.93-3,0-3Z"/><path d="M1765.35,734.24A118.8,118.8,0,0,0,1680.5,714c-1.91.27-1.1,3.16.79,2.89a115.76,115.76,0,0,1,82.54,20c1.58,1.11,3.09-1.49,1.52-2.59Z"/><path d="M1663.88,714.42a91.82,91.82,0,0,0-34.68,13.21c-1.62,1-.12,3.62,1.52,2.59a89.57,89.57,0,0,1,34-12.9c1.9-.31,1.09-3.2-.8-2.9Z"/><path d="M1725.08,748.7a151.16,151.16,0,0,0-49.25,39.3c-1.21,1.48.9,3.61,2.12,2.12a149,149,0,0,1,48.64-38.83c1.73-.87.21-3.46-1.51-2.59Z"/><path d="M1766.81,735.86c-.78-6.64-4.33-11.85-9-16.5-6.3-6.32-13.48-12-20.37-17.6q-21.33-17.5-44.07-33.15c-1.59-1.1-3.1,1.5-1.52,2.59q20.83,14.38,40.54,30.29c6.36,5.15,12.65,10.4,18.78,15.82,5.68,5,11.67,10.61,12.6,18.55.22,1.9,3.22,1.92,3,0Z"/><path d="M1764.3,721.78a302.32,302.32,0,0,0-28.94-50.15c-1.11-1.56-3.71-.06-2.59,1.52a302.32,302.32,0,0,1,28.94,50.15c.8,1.75,3.39.23,2.59-1.52Z"/><path d="M1770.21,725.67a145.55,145.55,0,0,0-17.07-69.57c-.9-1.71-3.49-.19-2.59,1.51a142.47,142.47,0,0,1,16.66,68.06,1.5,1.5,0,0,0,3,0Z"/><path d="M1768.75,735.33a178.85,178.85,0,0,1,42.52-71.08c1.35-1.38-.77-3.51-2.12-2.12a182.32,182.32,0,0,0-43.3,72.4c-.58,1.85,2.32,2.64,2.9.8Z"/><path d="M1821.77,652.76h.78a1.5,1.5,0,0,0,0-3h-.78a1.5,1.5,0,0,0,0,3Z"/><path d="M1763.76,804.77l.75,20.37c.07,1.92,3.07,1.93,3,0l-.75-20.37c-.07-1.92-3.08-1.93-3,0Z"/><path d="M1847.22,753a99,99,0,0,1,22.35,9.24c1.68.95,3.2-1.64,1.52-2.59a103,103,0,0,0-23.08-9.55,1.5,1.5,0,0,0-.79,2.9Z"/><path d="M1766.55,739a385.54,385.54,0,0,0,8.22-80.52c0-3.86-6-3.87-6,0a377.16,377.16,0,0,1-8,78.93c-.78,3.77,5,5.38,5.79,1.59Z"/><path d="M1765.25,730.24a145.63,145.63,0,0,0-86.89,2.28c-3.63,1.25-2.07,7,1.6,5.79a139.79,139.79,0,0,1,83.69-2.28c3.73,1.06,5.31-4.73,1.6-5.79Z"/><path d="M1764.69,720.93a126.36,126.36,0,0,0-16.51,72.14c.28,3.83,6.29,3.86,6,0A120.63,120.63,0,0,1,1769.87,724c1.92-3.36-3.26-6.38-5.18-3Z"/><path d="M1772.77,723.57a126,126,0,0,0-56,48.31c-2.07,3.28,3.12,6.29,5.18,3a120.63,120.63,0,0,1,53.84-46.16c3.53-1.54.48-6.71-3-5.18Z"/><path d="M1765.18,723.88a148.56,148.56,0,0,0-53.1-23.8c-3.76-.86-5.36,4.92-1.59,5.78a144.24,144.24,0,0,1,51.66,23.2c3.15,2.25,6.15-2.95,3-5.18Z"/><path d="M1761.28,740.33a311,311,0,0,1,80.3-31.53c3.75-.9,2.16-6.69-1.6-5.79a316.82,316.82,0,0,0-81.73,32.14c-3.36,1.89-.34,7.08,3,5.18Z"/><path d="M1763.05,738.8A457.26,457.26,0,0,1,1816,689.87c3-2.39-1.24-6.61-4.24-4.24a456.38,456.38,0,0,0-52.92,48.93c-2.62,2.83,1.61,7.08,4.24,4.24Z"/><path d="M1763,737.05a161.67,161.67,0,0,1,35,53.15c1.43,3.54,7.23,2,5.79-1.59a169,169,0,0,0-36.59-55.8c-2.72-2.75-7,1.49-4.25,4.24Z"/><path d="M1840.83,753.46a57.43,57.43,0,0,1,31.4,13.22c2.94,2.47,7.2-1.76,4.24-4.24a64.5,64.5,0,0,0-35.64-15c-3.84-.38-3.81,5.63,0,6Z"/><path d="M1826,650.62v-.72a3,3,0,0,0-6,0v.72a3,3,0,0,0,6,0Z"/><path d="M1716.29,780.08l-12.16,21.34c-1.92,3.36,3.26,6.38,5.18,3l12.16-21.33c1.92-3.36-3.27-6.39-5.18-3Z"/><path d="M1724.68,662.07l-18.28-18.76c-2.69-2.77-6.94,1.48-4.24,4.24l18.27,18.76c2.7,2.78,6.94-1.47,4.25-4.24Z"/><path class="a" d="M1731.22,745.42c-4.08,4.16-2,12.41,3.53,14.17s12-3.83,11-9.57-8.84-8.94-13.53-5.48"/><path d="M1729.1,743.3a12.15,12.15,0,0,0-.26,15.64c4,4.94,11,5,15.68,1s5.89-11,1.63-15.72c-3.8-4.26-10.59-5.52-15.42-2.31-3.2,2.12-.2,7.32,3,5.18,5.26-3.5,12.43,3.2,7.11,8.09s-11.81-2.86-7.52-7.68c2.56-2.87-1.67-7.13-4.25-4.24Z"/><path class="b" d="M1747.88,693.6c-2.59,2.64-1.28,7.87,2.24,9s7.6-2.43,7-6.07-5.61-5.67-8.58-3.48"/><path d="M1745.76,691.48a8.82,8.82,0,0,0-.16,11.47c2.93,3.59,8.09,3.58,11.49.67a8,8,0,0,0,1-11.53,8.8,8.8,0,0,0-11.11-1.64c-3.21,2.13-.2,7.33,3,5.18,2.28-1.51,5.69,1.17,3.19,3.42-2.31,2.06-5-1.3-3.23-3.33,2.57-2.87-1.66-7.13-4.24-4.24Z"/><path class="b" d="M1786.81,720.05c-3.23,3.28-1.61,9.82,2.79,11.2s9.48-3,8.72-7.57-7-7.07-10.7-4.33"/><path d="M1784.69,717.93a10.25,10.25,0,0,0-.21,13.25c3.38,4.17,9.33,4.2,13.29.83s4.9-9.31,1.29-13.33c-3.2-3.56-8.91-4.62-13-1.92-3.2,2.12-.2,7.32,3,5.18,3.57-2.37,8.58,2,4.87,5.42s-7.94-2-5.07-5.19c2.56-2.88-1.67-7.13-4.24-4.24Z"/></svg>