<svg xmlns="http://www.w3.org/2000/svg" viewBox="0 0 1706.91 495.4"><defs><style>.a{fill:#fffcd9;}.b{fill:#f88334;}.c,.e{fill:#fff;}.d{fill:#f15a24;}.e{stroke:#fff;stroke-miterlimit:10;}</style></defs><title>finish</title><path class="a" d="M1285.5,242.18a1272.65,1272.65,0,0,1,27.31-349.42l20.91-6.28A1273,1273,0,0,0,1306.4,235.9Z"/><path d="M1290,242.18a1271.12,1271.12,0,0,1,12.81-271.87q6-38.39,14.34-76.35L1314-102.9l20.91-6.28-5.53-5.53a1283.48,1283.48,0,0,0-29.78,273q0,38.85,2.3,77.65l3.31-4.34-20.91,6.28c-5.53,1.66-3.18,10.35,2.39,8.68l20.91-6.28a4.56,4.56,0,0,0,3.3-4.34A1272.42,1272.42,0,0,1,1323.71-36q6-38.39,14.35-76.35c.7-3.24-2.1-6.57-5.54-5.54l-20.91,6.28a4.51,4.51,0,0,0-3.14,3.15,1283.48,1283.48,0,0,0-29.78,273q0,38.85,2.31,77.65C1281.34,247.94,1290.34,248,1290,242.18Z"/><path d="M1283.93,219.71A92,92,0,0,0,1303.11,234c1.69.94,3.21-1.65,1.52-2.59a88.38,88.38,0,0,1-18.58-13.81c-1.39-1.34-3.51.78-2.12,2.13Z"/><path d="M1284.07,195.89a97.88,97.88,0,0,0,16.52,14.57c1.58,1.11,3.08-1.49,1.51-2.59a94,94,0,0,1-15.91-14.11c-1.29-1.43-3.41.69-2.12,2.13Z"/><path d="M1283.12,179.29l18.24,14.83c1.48,1.21,3.62-.9,2.12-2.12l-18.24-14.83c-1.49-1.21-3.62.9-2.12,2.12Z"/><path d="M1284.57,158.32a40.5,40.5,0,0,0,16.19,15.39c1.71.9,3.23-1.69,1.52-2.59a37.53,37.53,0,0,1-15.12-14.31,1.5,1.5,0,0,0-2.59,1.51Z"/><path d="M1284.6,132.8a89.5,89.5,0,0,0,16.92,20.57c1.43,1.29,3.56-.83,2.12-2.12a87.43,87.43,0,0,1-16.45-20,1.5,1.5,0,0,0-2.59,1.51Z"/><path d="M1282.92,115.55a101.72,101.72,0,0,0,20.35,21.64c1.5,1.19,3.64-.92,2.12-2.12a99.44,99.44,0,0,1-19.88-21c-1.1-1.58-3.7-.08-2.59,1.51Z"/><path d="M1285.48,95.08a66.89,66.89,0,0,0,17.81,20.33c1.53,1.17,3-1.43,1.51-2.59a63.25,63.25,0,0,1-16.73-19.26,1.5,1.5,0,0,0-2.59,1.52Z"/><path d="M1286.83,73A64.24,64.24,0,0,0,1304.89,93c1.57,1.13,3.07-1.47,1.52-2.6a60.32,60.32,0,0,1-17-18.85,1.51,1.51,0,0,0-2.6,1.52Z"/><path d="M1289.77,57.47a55.8,55.8,0,0,0,14.9,14.84c1.61,1.09,3.11-1.51,1.52-2.59A51.91,51.91,0,0,1,1292.36,56c-1.08-1.58-3.68-.08-2.59,1.52Z"/><path d="M1290.2,38.6a77.15,77.15,0,0,0,16.58,17.21c1.54,1.16,3-1.44,1.52-2.59a72.6,72.6,0,0,1-15.51-16.13c-1.1-1.57-3.7-.08-2.59,1.51Z"/><path class="a" d="M445.79,242.18a1273,1273,0,0,1,27.32-349.42l20.9-6.28A1272.65,1272.65,0,0,0,466.7,235.9Z"/><path d="M450.29,242.18A1272.42,1272.42,0,0,1,463.1-29.69q6-38.39,14.35-76.35l-3.15,3.14,20.91-6.28-5.53-5.53a1282.83,1282.83,0,0,0-29.78,273q0,38.85,2.3,77.65l3.31-4.34-20.91,6.28c-5.54,1.66-3.18,10.35,2.39,8.68l20.91-6.28a4.57,4.57,0,0,0,3.3-4.34A1271.77,1271.77,0,0,1,484-36q6-38.39,14.34-76.35c.71-3.24-2.09-6.57-5.53-5.54l-20.91,6.28a4.49,4.49,0,0,0-3.14,3.15,1283.48,1283.48,0,0,0-29.78,273q0,38.85,2.3,77.65C441.64,247.94,450.64,248,450.29,242.18Z"/><path d="M444.23,219.71A91.72,91.72,0,0,0,463.41,234c1.69.94,3.2-1.65,1.51-2.59a88.58,88.58,0,0,1-18.57-13.81c-1.39-1.34-3.51.78-2.12,2.13Z"/><path d="M444.37,195.89a97.43,97.43,0,0,0,16.51,14.57c1.59,1.11,3.09-1.49,1.52-2.59a93.63,93.63,0,0,1-15.91-14.11c-1.29-1.43-3.41.69-2.12,2.13Z"/><path d="M443.41,179.29l18.24,14.83c1.49,1.21,3.62-.9,2.12-2.12l-18.23-14.83c-1.49-1.21-3.63.9-2.13,2.12Z"/><path d="M444.87,158.32a40.5,40.5,0,0,0,16.19,15.39c1.71.9,3.23-1.69,1.51-2.59a37.51,37.51,0,0,1-15.11-14.31,1.5,1.5,0,0,0-2.59,1.51Z"/><path d="M444.89,132.8a89.8,89.8,0,0,0,16.93,20.57c1.43,1.29,3.56-.83,2.12-2.12a87.48,87.48,0,0,1-16.46-20,1.5,1.5,0,0,0-2.59,1.51Z"/><path d="M443.22,115.55a101.47,101.47,0,0,0,20.35,21.64c1.5,1.19,3.63-.92,2.12-2.12a99.18,99.18,0,0,1-19.88-21c-1.1-1.58-3.7-.08-2.59,1.51Z"/><path d="M445.78,95.08a66.76,66.76,0,0,0,17.81,20.33c1.53,1.17,3-1.43,1.51-2.59a63.25,63.25,0,0,1-16.73-19.26,1.5,1.5,0,0,0-2.59,1.52Z"/><path d="M447.13,73A64.24,64.24,0,0,0,465.19,93c1.57,1.13,3.07-1.47,1.52-2.6a60.36,60.36,0,0,1-17-18.85A1.5,1.5,0,0,0,447.13,73Z"/><path d="M450.07,57.47A55.8,55.8,0,0,0,465,72.31c1.6,1.09,3.11-1.51,1.51-2.59A51.87,51.87,0,0,1,452.66,56c-1.08-1.58-3.68-.08-2.59,1.52Z"/><path d="M450.5,38.6a77.15,77.15,0,0,0,16.58,17.21c1.54,1.16,3-1.44,1.52-2.59a72.6,72.6,0,0,1-15.51-16.13c-1.1-1.57-3.7-.08-2.59,1.51Z"/><path class="b" d="M146,268.31c5.09,5.16,2.53,15.44-4.38,17.62S126.71,281.17,127.9,274s11-11.12,16.84-6.82"/><path d="M143.88,270.43c5.94,6.66-3.12,17.29-10.39,10.59s2.47-16,9.73-11.23c3.23,2.15,6.23-3.05,3-5.18-5.74-3.81-13.78-2.31-18.3,2.76-5,5.65-3.55,13.87,2,18.53s13.8,4.58,18.47-1.3a14.38,14.38,0,0,0-.32-18.42c-2.58-2.88-6.81,1.37-4.25,4.25Z"/><path class="c" d="M368.31,387.84c3.22,3.27,1.6,9.79-2.79,11.17s-9.45-3-8.7-7.55,7-7,10.68-4.32"/><path d="M366.18,390c2.85,3.19-1.47,8.41-5,5.16s1.28-7.76,4.85-5.39c3.22,2.14,6.23-3.05,3-5.18-4-2.69-9.75-1.63-12.94,1.92-3.6,4-2.69,9.92,1.29,13.3s9.9,3.35,13.26-.82a10.23,10.23,0,0,0-.2-13.24c-2.58-2.89-6.81,1.37-4.25,4.25Z"/><path class="c" d="M208.73,237.35c3.22,3.28,1.6,9.8-2.78,11.18s-9.46-3-8.7-7.55,7-7.06,10.68-4.32"/><path d="M206.61,239.48c2.84,3.19-1.47,8.41-5,5.16s1.28-7.76,4.84-5.39c3.23,2.14,6.23-3.06,3-5.18-4-2.69-9.74-1.64-12.93,1.92-3.6,4-2.69,9.92,1.28,13.3s9.9,3.34,13.27-.82a10.24,10.24,0,0,0-.21-13.24c-2.57-2.89-6.8,1.37-4.24,4.25Z"/><path class="b" d="M188.85,448.05c3.22,3.28,1.6,9.8-2.78,11.18s-9.46-3-8.7-7.55,7-7.05,10.68-4.32"/><path d="M186.73,450.18c2.84,3.19-1.47,8.41-5,5.16s1.28-7.76,4.84-5.39c3.23,2.14,6.23-3.05,3-5.18-4-2.69-9.74-1.63-12.93,1.92-3.61,4-2.69,9.92,1.28,13.3s9.9,3.35,13.27-.82a10.24,10.24,0,0,0-.21-13.24c-2.57-2.89-6.8,1.37-4.24,4.25Z"/><path class="b" d="M359.26,291.78c5.08,5.17,2.53,15.44-4.39,17.63s-14.9-4.76-13.71-11.91,11-11.12,16.83-6.82"/><path d="M357.14,293.9c5.93,6.67-3.12,17.3-10.4,10.6s2.48-16.05,9.74-11.23c3.22,2.15,6.23-3,3-5.18-5.74-3.81-13.79-2.32-18.3,2.76-5,5.64-3.55,13.87,2,18.53s13.79,4.58,18.47-1.3a14.36,14.36,0,0,0-.33-18.42c-2.57-2.89-6.8,1.37-4.24,4.24Z"/><path d="M239.55,353.67a237.4,237.4,0,0,0-78.46-62.31c-1.72-.85-3.25,1.73-1.51,2.59a235.52,235.52,0,0,1,77.85,61.84c1.23,1.5,3.34-.63,2.12-2.12Z"/><path d="M238.55,349.16a210.11,210.11,0,0,0-99.4-13.88c-3.8.39-3.84,6.39,0,6A206.22,206.22,0,0,1,237,354.94c3.59,1.44,5.15-4.36,1.6-5.78Z"/><path d="M242,355.12a182.26,182.26,0,0,0-82.43-.36c-3.77.85-2.17,6.64,1.59,5.78a175.39,175.39,0,0,1,79.24.36c3.76.89,5.36-4.89,1.6-5.78Z"/><path d="M237.63,357A510,510,0,0,0,155,388c-1.74.83-.22,3.41,1.52,2.59a505.09,505.09,0,0,1,82-30.69,1.5,1.5,0,0,0-.8-2.89Z"/><path d="M240.56,354.27c-39,16.74-54.72,61.62-71.22,97.27-.8,1.74,1.78,3.27,2.59,1.52,16.28-35.18,31.67-79.68,70.14-96.2,1.77-.76.24-3.35-1.51-2.59Z"/><path d="M245.47,358.77a176,176,0,0,0-35.56,98.51c-.09,1.93,2.91,1.93,3,0a173.23,173.23,0,0,1,35.15-97c1.17-1.54-1.43-3-2.59-1.52Z"/><path d="M243.77,374.31l-1,44.83c0,1.93,3,1.93,3,0l1-44.83c0-1.93-3-1.93-3,0Z"/><path d="M255.83,363.68a161.33,161.33,0,0,1,28,40.62c.84,1.74,3.43.22,2.59-1.51A164.1,164.1,0,0,0,258,361.56c-1.33-1.41-3.45.72-2.13,2.12Z"/><path d="M261.77,359.31a141.69,141.69,0,0,1,77.16,24.14c1.61,1.07,3.11-1.52,1.52-2.6a144.73,144.73,0,0,0-78.68-24.54,1.5,1.5,0,0,0,0,3Z"/><path d="M246,355.74a144.1,144.1,0,0,1,103-24.89c1.89.27,2.71-2.62.8-2.89a147.11,147.11,0,0,0-105.28,25.19c-1.57,1.1-.07,3.7,1.51,2.59Z"/><path d="M369.6,331.42a111,111,0,0,1,42.34,16.09c1.64,1,3.14-1.56,1.52-2.59a113.08,113.08,0,0,0-43.06-16.39c-1.89-.31-2.7,2.58-.8,2.89Z"/><path d="M292.66,373.72a185,185,0,0,1,60.59,48.37c1.22,1.49,3.33-.64,2.12-2.12a187.19,187.19,0,0,0-61.19-48.84c-1.72-.86-3.25,1.73-1.52,2.59Z"/><path d="M245.81,354.85c1-9.68,8.28-16.71,15.22-22.84,7.69-6.81,15.58-13.41,23.56-19.89q24.68-20,50.87-38c1.58-1.08.08-3.69-1.51-2.59q-28,19.33-54.39,40.89C271.22,319.2,262.71,326,255,333.5c-6.13,5.91-11.2,12.66-12.14,21.35-.21,1.92,2.79,1.9,3,0Z"/><path d="M248.47,339a373.49,373.49,0,0,1,36-62.39c1.13-1.58-1.47-3.08-2.59-1.52a373.58,373.58,0,0,0-36,62.4c-.79,1.74,1.79,3.27,2.59,1.51Z"/><path d="M241.58,342.16a176.86,176.86,0,0,1,20.77-84.85c.91-1.7-1.68-3.22-2.59-1.51a180.17,180.17,0,0,0-21.18,86.36,1.5,1.5,0,0,0,3,0Z"/><path d="M243.28,353.29a225.59,225.59,0,0,0-53.77-89.91c-1.35-1.39-3.47.73-2.12,2.12a222.14,222.14,0,0,1,53,88.59c.57,1.83,3.47,1.05,2.89-.8Z"/><path d="M174.07,248.09h-1a1.5,1.5,0,0,0,0,3h1a1.5,1.5,0,0,0,0-3Z"/><path d="M242.88,440.58l-.94,25.34c-.08,1.93,2.92,1.92,3,0l.94-25.34c.07-1.93-2.93-1.93-3,0Z"/><path d="M141.51,372.87a126.18,126.18,0,0,0-28.61,11.84,1.5,1.5,0,0,0,1.51,2.59,123.48,123.48,0,0,1,27.9-11.54,1.5,1.5,0,0,0-.8-2.89Z"/><path d="M249.26,356.93a468,468,0,0,1-10-98.39c0-3.86-6-3.87-6,0a475.73,475.73,0,0,0,10.19,100c.8,3.78,6.58,2.18,5.79-1.59Z"/><path d="M246.17,354.35a174.32,174.32,0,0,1,104.52,2.83c3.66,1.26,5.23-4.53,1.59-5.78a179.93,179.93,0,0,0-107.7-2.84c-3.71,1.06-2.13,6.85,1.59,5.79Z"/><path d="M239.27,339.67A150.24,150.24,0,0,1,258.88,426c-.28,3.85,5.72,3.83,6,0a156,156,0,0,0-20.43-89.38c-1.93-3.35-7.11-.33-5.18,3Z"/><path d="M231.64,345.37a150.24,150.24,0,0,1,67.25,57.69c2.05,3.26,7.24.25,5.18-3a155.71,155.71,0,0,0-69.41-59.84c-3.5-1.53-6.56,3.64-3,5.18Z"/><path d="M247.87,345.76a179,179,0,0,1,64.45-28.94c3.77-.86,2.17-6.64-1.59-5.79a183.54,183.54,0,0,0-65.88,29.54c-3.12,2.23-.13,7.44,3,5.19Z"/><path d="M252.72,354.59a392,392,0,0,0-101.51-39.91c-3.75-.89-5.35,4.89-1.59,5.79a385.81,385.81,0,0,1,100.07,39.3c3.37,1.9,6.4-3.28,3-5.18Z"/><path d="M251.88,353.74A566.15,566.15,0,0,0,186,292.87c-3-2.36-7.28,1.86-4.24,4.24A566.15,566.15,0,0,1,247.64,358c2.62,2.85,6.86-1.4,4.24-4.24Z"/><path d="M242.4,351.57a208.46,208.46,0,0,0-45.33,69.09c-1.44,3.59,4.36,5.14,5.79,1.6a201,201,0,0,1,43.79-66.45c2.72-2.75-1.52-7-4.25-4.24Z"/><path d="M243.73,350.79a208.41,208.41,0,0,0-69.51,44.71c-2.77,2.7,1.48,6.94,4.25,4.24a201,201,0,0,1,66.85-43.16c3.56-1.39,2-7.2-1.59-5.79Z"/><path d="M150.35,370a78.89,78.89,0,0,0-43.82,18.42c-3,2.49,1.31,6.72,4.25,4.24A71.88,71.88,0,0,1,150.35,376c3.81-.37,3.85-6.37,0-6Z"/><path d="M175.49,248.79v-.88a3,3,0,1,0-6,0v.88a3,3,0,0,0,6,0Z"/><path d="M299.48,413.25l15.14,26.55c1.91,3.35,7.09.33,5.18-3l-15.14-26.55c-1.91-3.35-7.1-.33-5.18,3Z"/><path d="M299.62,267.8l22.73-23.33c2.7-2.77-1.54-7-4.24-4.25l-22.73,23.34c-2.7,2.77,1.54,7,4.24,4.24Z"/><path class="b" d="M286.72,366.74c5.08,5.17,2.52,15.44-4.39,17.62s-14.91-4.75-13.71-11.9,11-11.13,16.83-6.82"/><path d="M284.59,368.86c5.94,6.66-3.12,17.3-10.39,10.59s2.47-16.05,9.73-11.22c3.23,2.14,6.24-3.05,3-5.18-5.74-3.82-13.78-2.32-18.29,2.76-5,5.64-3.56,13.86,2,18.53s13.8,4.57,18.47-1.3a14.38,14.38,0,0,0-.32-18.42c-2.58-2.89-6.81,1.36-4.25,4.24Z"/><path class="c" d="M266,302.27c3.22,3.28,1.6,9.8-2.78,11.18s-9.46-3-8.7-7.55,7-7.06,10.68-4.33"/><path d="M263.87,304.39c2.84,3.2-1.47,8.42-5,5.17s1.28-7.76,4.84-5.4c3.23,2.15,6.23-3.05,3-5.18-4-2.68-9.74-1.63-12.93,1.92-3.61,4-2.69,9.93,1.28,13.31s9.9,3.34,13.27-.82a10.24,10.24,0,0,0-.21-13.24c-2.57-2.89-6.8,1.37-4.24,4.24Z"/><path class="c" d="M165.26,387.84c3.23,3.27,1.61,9.79-2.78,11.17s-9.45-3-8.7-7.55,7-7,10.68-4.32"/><path d="M163.14,390c2.85,3.19-1.47,8.41-5,5.16s1.28-7.76,4.85-5.39c3.22,2.14,6.23-3.05,3-5.18-4-2.69-9.74-1.63-12.93,1.92-3.6,4-2.69,9.92,1.29,13.3s9.89,3.35,13.26-.82a10.23,10.23,0,0,0-.2-13.24c-2.58-2.89-6.81,1.37-4.25,4.25Z"/><path class="c" d="M227.18,382.77c3.22,3.28,1.6,9.79-2.79,11.18s-9.45-3-8.69-7.55,7-7.06,10.67-4.33"/><path d="M225.06,384.89c2.84,3.19-1.48,8.42-5.05,5.17s1.28-7.77,4.85-5.4c3.22,2.14,6.23-3.05,3-5.18-4-2.69-9.75-1.63-12.94,1.92-3.6,4-2.69,9.93,1.29,13.31s9.9,3.34,13.26-.83a10.22,10.22,0,0,0-.2-13.23c-2.57-2.89-6.81,1.36-4.24,4.24Z"/><path class="c" d="M206.71,322.55c4,4.09,2,12.22-3.47,13.95s-11.79-3.77-10.85-9.42,8.7-8.8,13.32-5.4"/><path d="M204.59,324.67c4.17,4.68-2.18,12.23-7.34,7.5s1.79-11.32,6.94-7.9c3.23,2.15,6.23-3,3-5.18-4.77-3.17-11.48-1.92-15.23,2.28-4.21,4.71-3.06,11.62,1.6,15.55s11.57,3.87,15.5-1a12,12,0,0,0-.26-15.46c-2.57-2.89-6.8,1.37-4.24,4.24Z"/><path class="b" d="M667.12-5.48c5.55,5.64,2.76,16.86-4.79,19.24s-16.27-5.19-15-13,12-12.14,18.37-7.44"/><path d="M665-3.36c6.71,7.54-3.54,19.53-11.74,12s2.77-18.12,11-12.68c3.22,2.14,6.23-3,3-5.18-6.17-4.1-14.8-2.49-19.64,3-5.37,6.05-3.77,14.85,2.21,19.84s14.78,4.88,19.77-1.42a15.41,15.41,0,0,0-.35-19.72c-2.57-2.89-6.8,1.37-4.24,4.24Z"/><path class="c" d="M909.78,125c3.52,3.58,1.75,10.69-3,12.2s-10.32-3.29-9.49-8.24,7.61-7.71,11.65-4.72"/><path d="M907.66,127.12c3.33,3.74-1.74,9.83-5.89,6s1.47-9.08,5.62-6.32c3.22,2.14,6.23-3.06,3-5.19-4.32-2.86-10.39-1.73-13.79,2.06-3.83,4.27-2.83,10.55,1.4,14.14s10.52,3.53,14.1-.91a10.88,10.88,0,0,0-.23-14.05c-2.57-2.89-6.8,1.36-4.24,4.24Z"/><path class="b" d="M713.89,190.73c3.52,3.58,1.75,10.69-3,12.2s-10.32-3.29-9.49-8.24S709,187,713,190"/><path d="M711.77,192.85c3.33,3.75-1.74,9.83-5.9,6s1.47-9.08,5.63-6.32c3.22,2.14,6.23-3.05,3-5.18-4.31-2.87-10.38-1.74-13.78,2.05-3.83,4.27-2.83,10.55,1.4,14.14s10.52,3.54,14.09-.9a10.89,10.89,0,0,0-.22-14.06c-2.57-2.89-6.8,1.37-4.24,4.24Z"/><path class="b" d="M899.91,20.15c5.54,5.64,2.75,16.85-4.79,19.24s-16.27-5.19-15-13,12-12.14,18.37-7.44"/><path d="M897.78,22.27c6.71,7.53-3.54,19.52-11.73,12s2.77-18.12,11-12.68c3.22,2.14,6.23-3.05,3-5.18-6.17-4.1-14.8-2.49-19.64,3-5.37,6.05-3.77,14.85,2.21,19.83s14.77,4.89,19.77-1.42A15.4,15.4,0,0,0,902,18c-2.58-2.89-6.81,1.36-4.25,4.24Z"/><path d="M769.14,87.8a258.92,258.92,0,0,0-85.62-68c-1.73-.85-3.25,1.74-1.52,2.6a256.72,256.72,0,0,1,85,67.53c1.22,1.49,3.33-.64,2.12-2.13Z"/><path d="M768.06,83A229,229,0,0,0,659.64,67.9c-3.81.39-3.85,6.4,0,6A225.06,225.06,0,0,1,766.47,88.83c3.58,1.43,5.14-4.37,1.59-5.79Z"/><path d="M771.87,89.55a198.48,198.48,0,0,0-89.83-.4c-3.76.86-2.17,6.65,1.6,5.79a191.47,191.47,0,0,1,86.64.39c3.75.89,5.36-4.89,1.59-5.78Z"/><path d="M767.17,91.46A554.84,554.84,0,0,0,677,125.27c-1.75.83-.23,3.42,1.51,2.59A551.32,551.32,0,0,1,768,94.35a1.5,1.5,0,0,0-.8-2.89Z"/><path d="M770.4,88.47c-42.54,18.23-59.7,67.27-77.69,106.14-.8,1.74,1.78,3.26,2.59,1.51,17.77-38.39,34.6-87.05,76.62-105,1.76-.76.24-3.35-1.52-2.6Z"/><path d="M775.82,93.34A191.81,191.81,0,0,0,737,200.8c-.08,1.93,2.92,1.93,3,0a189.05,189.05,0,0,1,38.4-105.94c1.16-1.54-1.44-3-2.59-1.52Z"/><path d="M774,110.24l-1.06,48.93c0,1.93,3,1.93,3,0L777,110.24c0-1.93-3-1.93-3,0Z"/><path d="M787.1,98.53a176,176,0,0,1,30.62,44.37c.84,1.74,3.42.22,2.59-1.51a178.61,178.61,0,0,0-31.08-45c-1.33-1.4-3.45.72-2.13,2.12Z"/><path d="M793.48,93.72a154.79,154.79,0,0,1,84.31,26.37c1.6,1.08,3.11-1.52,1.51-2.59a157.72,157.72,0,0,0-85.82-26.78c-1.93,0-1.93,3,0,3Z"/><path d="M776.16,89.84A157.35,157.35,0,0,1,888.67,62.66c1.89.27,2.7-2.62.8-2.89A160.36,160.36,0,0,0,774.65,87.25c-1.57,1.11-.07,3.71,1.51,2.59Z"/><path d="M911.23,63.28a120.87,120.87,0,0,1,46.25,17.58c1.63,1,3.14-1.56,1.52-2.59a123,123,0,0,0-47-17.88c-1.89-.3-2.7,2.59-.8,2.89Z"/><path d="M827.28,109.47a201.87,201.87,0,0,1,66.16,52.82c1.22,1.49,3.34-.64,2.12-2.12a204,204,0,0,0-66.77-53.29c-1.72-.86-3.24,1.73-1.51,2.59Z"/><path d="M775.93,89c1.15-10.9,9.47-18.72,17.27-25.58,8.4-7.39,17-14.58,25.68-21.63q26.67-21.6,55-41.07c1.58-1.09.08-3.69-1.52-2.59Q842.23,18.88,813.87,42c-9.12,7.45-18.34,14.92-26.91,23-7,6.59-13,14.15-14,24-.21,1.92,2.79,1.91,3,0Z"/><path d="M778.85,71.65a407.25,407.25,0,0,1,39.3-68.1C819.28,2,816.68.47,815.56,2a407.74,407.74,0,0,0-39.3,68.11c-.79,1.74,1.79,3.27,2.59,1.51Z"/><path d="M771.31,75.14A193,193,0,0,1,794-17.55c.9-1.7-1.68-3.22-2.59-1.51a196.17,196.17,0,0,0-23.11,94.2,1.5,1.5,0,0,0,3,0Z"/><path d="M773.17,87.32a245.92,245.92,0,0,0-58.66-98.08c-1.35-1.39-3.47.74-2.12,2.12a242.61,242.61,0,0,1,57.89,96.76c.57,1.84,3.47,1,2.89-.8Z"/><path d="M773,182.57l-1,27.66c-.07,1.93,2.93,1.93,3,0l1-27.66c.07-1.93-2.93-1.93-3,0Z"/><path d="M662.25,108.79a137.26,137.26,0,0,0-31.2,12.92,1.5,1.5,0,0,0,1.51,2.59,133.84,133.84,0,0,1,30.49-12.62,1.5,1.5,0,0,0-.8-2.89Z"/><path d="M779.56,91.33a510.54,510.54,0,0,1-10.9-107.47c0-3.86-6-3.87-6,0A518.48,518.48,0,0,0,773.78,92.93c.79,3.77,6.58,2.18,5.78-1.6Z"/><path d="M776.39,88.18a190.33,190.33,0,0,1,114.23,3.09c3.66,1.26,5.23-4.53,1.6-5.78a196.09,196.09,0,0,0-117.43-3.1c-3.7,1.06-2.13,6.85,1.6,5.79Z"/><path d="M769.16,72.28a164.15,164.15,0,0,1,21.45,94.4c-.29,3.85,5.71,3.83,6,0a169.88,169.88,0,0,0-22.27-97.43c-1.92-3.34-7.11-.32-5.18,3Z"/><path d="M760.73,78.4a164.24,164.24,0,0,1,73.51,63.07c2,3.27,7.24.26,5.18-3a169.59,169.59,0,0,0-75.66-65.23c-3.51-1.52-6.56,3.65-3,5.18Z"/><path d="M778.18,78.83A195.21,195.21,0,0,1,848.6,47.21c3.76-.85,2.17-6.64-1.6-5.78a199.29,199.29,0,0,0-71.85,32.22c-3.11,2.22-.12,7.43,3,5.18Z"/><path d="M783.47,88.94A427.5,427.5,0,0,0,672.73,45.41c-3.75-.89-5.35,4.89-1.59,5.79a421.23,421.23,0,0,1,109.3,42.93c3.37,1.9,6.4-3.28,3-5.19Z"/><path d="M782.5,88a615.79,615.79,0,0,0-71.87-66.45c-3-2.36-7.28,1.86-4.25,4.24a617.62,617.62,0,0,1,71.88,66.45c2.62,2.84,6.86-1.41,4.24-4.24Z"/><path d="M772.54,85.6a226.92,226.92,0,0,0-49.41,75.31c-1.44,3.58,4.36,5.14,5.79,1.59a219.42,219.42,0,0,1,47.86-72.66c2.73-2.74-1.51-7-4.24-4.24Z"/><path d="M773.87,84.83a226.73,226.73,0,0,0-75.75,48.73c-2.77,2.7,1.47,6.94,4.24,4.24a219.56,219.56,0,0,1,73.1-47.19c3.56-1.39,2-7.19-1.59-5.78Z"/><path d="M671.86,105.81a85.78,85.78,0,0,0-47.63,20c-3,2.49,1.31,6.72,4.24,4.24a78.83,78.83,0,0,1,43.39-18.27c3.81-.36,3.85-6.36,0-6Z"/><path d="M834.89,152.6l16.52,29c1.91,3.36,7.1.34,5.18-3l-16.52-29c-1.91-3.36-7.1-.34-5.18,3Z"/><path class="b" d="M820.72,102c5.54,5.64,2.75,16.85-4.79,19.24s-16.27-5.19-15-13,12-12.14,18.37-7.44"/><path d="M818.6,104.09c6.7,7.53-3.54,19.52-11.74,12s2.77-18.12,11-12.68c3.22,2.14,6.23-3,3-5.18-6.17-4.1-14.8-2.49-19.64,3-5.37,6-3.77,14.85,2.21,19.84s14.77,4.88,19.77-1.42a15.41,15.41,0,0,0-.35-19.72c-2.57-2.89-6.81,1.36-4.24,4.24Z"/><path class="c" d="M798.09,31.6c3.52,3.58,1.75,10.69-3,12.2s-10.32-3.29-9.5-8.24,7.62-7.71,11.65-4.72"/><path d="M796,33.72c3.34,3.74-1.73,9.83-5.89,6s1.47-9.08,5.62-6.32c3.23,2.14,6.23-3.06,3-5.18-4.31-2.87-10.39-1.74-13.79,2.05-3.82,4.27-2.82,10.55,1.41,14.14s10.52,3.53,14.09-.9a10.88,10.88,0,0,0-.23-14.06c-2.57-2.89-6.8,1.36-4.24,4.24Z"/><path class="c" d="M980.57,83.75c3.51,3.58,1.74,10.69-3,12.2s-10.32-3.29-9.5-8.24S975.65,80,979.69,83"/><path d="M978.44,85.87c3.34,3.74-1.73,9.83-5.89,6s1.47-9.08,5.62-6.32c3.23,2.14,6.24-3.06,3-5.19-4.31-2.86-10.38-1.74-13.78,2.06-3.83,4.27-2.83,10.55,1.4,14.13s10.52,3.54,14.09-.9a10.88,10.88,0,0,0-.22-14.05c-2.58-2.89-6.81,1.36-4.25,4.24Z"/><path class="c" d="M688.14,125c3.52,3.58,1.75,10.69-3,12.2s-10.32-3.29-9.5-8.24,7.62-7.71,11.65-4.72"/><path d="M686,127.12c3.34,3.74-1.73,9.83-5.89,6s1.47-9.08,5.62-6.32c3.23,2.14,6.23-3.06,3-5.19-4.31-2.86-10.39-1.73-13.79,2.06-3.82,4.27-2.82,10.55,1.41,14.14s10.52,3.53,14.09-.91a10.87,10.87,0,0,0-.23-14.05c-2.57-2.89-6.8,1.36-4.24,4.24Z"/><path class="c" d="M755.73,119.47c3.51,3.58,1.74,10.69-3,12.2s-10.32-3.29-9.5-8.24,7.62-7.71,11.66-4.72"/><path d="M753.6,121.59c3.34,3.74-1.73,9.83-5.89,6s1.47-9.08,5.62-6.32c3.23,2.14,6.24-3.06,3-5.18-4.31-2.87-10.38-1.74-13.78,2-3.83,4.27-2.83,10.55,1.4,14.14s10.52,3.53,14.09-.9a10.89,10.89,0,0,0-.22-14.06c-2.58-2.89-6.81,1.36-4.25,4.24Z"/><path class="c" d="M733.38,53.74c4.39,4.46,2.18,13.33-3.78,15.22s-12.88-4.11-11.85-10.29,9.5-9.6,14.54-5.88"/><path d="M731.26,55.86c4.78,5.37-2.5,14-8.4,8.57s2-13,7.91-9.05c3.23,2.14,6.24-3.06,3-5.18-5.1-3.4-12.27-2.07-16.29,2.44-4.49,5-3.23,12.4,1.75,16.58s12.34,4.12,16.52-1.12a12.8,12.8,0,0,0-.28-16.48c-2.57-2.89-6.8,1.36-4.24,4.24Z"/><path class="b" d="M1364,196.38c5.55,5.64,2.76,16.85-4.79,19.23s-16.27-5.19-15-13,12-12.15,18.37-7.45"/><path d="M1361.87,198.5c6.71,7.53-3.54,19.52-11.74,11.95s2.77-18.12,11-12.69c3.22,2.15,6.23-3,3-5.18-6.17-4.09-14.8-2.49-19.64,3-5.37,6.06-3.77,14.86,2.21,19.84s14.78,4.89,19.77-1.42a15.41,15.41,0,0,0-.35-19.72c-2.57-2.88-6.8,1.37-4.24,4.25Z"/><path class="c" d="M1606.65,326.85c3.52,3.58,1.75,10.69-3,12.2s-10.32-3.29-9.49-8.24,7.61-7.7,11.65-4.72"/><path d="M1604.53,329c3.33,3.75-1.74,9.83-5.89,6s1.47-9.08,5.62-6.32c3.22,2.14,6.23-3.05,3-5.18-4.32-2.87-10.39-1.74-13.79,2.05-3.83,4.27-2.83,10.55,1.4,14.14s10.52,3.54,14.1-.9a10.89,10.89,0,0,0-.23-14.06c-2.57-2.89-6.8,1.37-4.24,4.24Z"/><path class="c" d="M1432.46,162.59c3.52,3.58,1.75,10.69-3,12.2s-10.32-3.29-9.49-8.24,7.61-7.7,11.65-4.72"/><path d="M1430.34,164.71c3.33,3.74-1.74,9.83-5.89,6s1.47-9.08,5.62-6.32c3.22,2.14,6.23-3,3-5.18-4.32-2.87-10.39-1.74-13.79,2-3.83,4.27-2.83,10.55,1.4,14.14s10.52,3.54,14.1-.9a10.89,10.89,0,0,0-.23-14.06c-2.57-2.89-6.8,1.36-4.24,4.24Z"/><path class="b" d="M1410.76,392.59c3.52,3.58,1.75,10.69-3,12.2s-10.32-3.29-9.49-8.24,7.61-7.71,11.65-4.73"/><path d="M1408.64,394.71c3.33,3.74-1.74,9.83-5.9,6s1.47-9.08,5.63-6.33c3.22,2.15,6.23-3.05,3-5.18-4.31-2.86-10.38-1.74-13.78,2.06-3.83,4.27-2.83,10.55,1.4,14.13s10.52,3.54,14.09-.9a10.88,10.88,0,0,0-.22-14c-2.57-2.89-6.8,1.36-4.24,4.24Z"/><path class="b" d="M1596.78,222c5.54,5.65,2.75,16.86-4.79,19.24s-16.27-5.19-15-13,12-12.14,18.37-7.44"/><path d="M1594.65,224.12c6.71,7.54-3.54,19.53-11.73,12s2.77-18.13,11-12.69c3.22,2.14,6.23-3,3-5.18-6.17-4.1-14.8-2.49-19.64,3-5.37,6-3.77,14.86,2.21,19.84s14.77,4.89,19.77-1.42a15.41,15.41,0,0,0-.35-19.72c-2.58-2.89-6.81,1.37-4.25,4.24Z"/><path d="M1466,289.66a258.79,258.79,0,0,0-85.62-68c-1.73-.85-3.25,1.73-1.52,2.59a256.85,256.85,0,0,1,85,67.53c1.22,1.49,3.33-.64,2.12-2.12Z"/><path d="M1464.93,284.9a228.88,228.88,0,0,0-108.42-15.15c-3.81.4-3.85,6.4,0,6a225.18,225.18,0,0,1,106.83,14.93c3.58,1.44,5.14-4.36,1.59-5.78Z"/><path d="M1468.74,291.4a198.34,198.34,0,0,0-89.83-.39c-3.76.85-2.17,6.64,1.6,5.78a191.47,191.47,0,0,1,86.64.4c3.75.89,5.36-4.9,1.59-5.79Z"/><path d="M1464,293.31a556.7,556.7,0,0,0-90.2,33.81c-1.75.84-.23,3.42,1.51,2.59a552.25,552.25,0,0,1,89.49-33.51,1.5,1.5,0,0,0-.8-2.89Z"/><path d="M1467.27,290.33c-42.54,18.23-59.7,67.27-77.69,106.13-.8,1.74,1.78,3.27,2.59,1.52,17.77-38.4,34.6-87.06,76.62-105.06,1.76-.76.24-3.34-1.52-2.59Z"/><path d="M1472.69,295.2a191.81,191.81,0,0,0-38.81,107.46c-.08,1.93,2.92,1.92,3,0a189.09,189.09,0,0,1,38.4-106c1.16-1.54-1.44-3-2.59-1.51Z"/><path d="M1470.85,312.09,1469.79,361c0,1.93,3,1.93,3,0l1.06-48.93c0-1.93-3-1.93-3,0Z"/><path d="M1484,300.39a175.84,175.84,0,0,1,30.62,44.37c.84,1.74,3.42.22,2.59-1.52a178.73,178.73,0,0,0-31.08-45c-1.33-1.41-3.45.72-2.13,2.12Z"/><path d="M1490.35,295.57a154.87,154.87,0,0,1,84.31,26.37c1.6,1.08,3.11-1.52,1.51-2.59a157.72,157.72,0,0,0-85.82-26.78,1.5,1.5,0,0,0,0,3Z"/><path d="M1473,291.7a157.31,157.31,0,0,1,112.51-27.18c1.89.27,2.7-2.62.8-2.9a160.37,160.37,0,0,0-114.82,27.49c-1.57,1.1-.07,3.7,1.51,2.59Z"/><path d="M1608.1,265.14a121,121,0,0,1,46.25,17.57c1.63,1,3.14-1.55,1.52-2.59a123.14,123.14,0,0,0-47-17.87c-1.89-.31-2.7,2.58-.8,2.89Z"/><path d="M1524.15,311.33a201.84,201.84,0,0,1,66.16,52.81c1.22,1.5,3.34-.63,2.12-2.12a203.82,203.82,0,0,0-66.77-53.28c-1.72-.86-3.24,1.72-1.51,2.59Z"/><path d="M1472.8,290.85c1.15-10.9,9.47-18.73,17.27-25.58,8.4-7.4,17-14.59,25.68-21.63q26.67-21.62,55-41.07c1.58-1.09.08-3.7-1.52-2.6q-30.11,20.78-58.47,43.9c-9.12,7.45-18.34,14.92-26.91,23-7,6.59-13,14.14-14,24-.21,1.91,2.79,1.9,3,0Z"/><path d="M1475.72,273.51A407.34,407.34,0,0,1,1515,205.4c1.13-1.57-1.47-3.07-2.59-1.51a407.25,407.25,0,0,0-39.3,68.1c-.79,1.75,1.79,3.27,2.59,1.52Z"/><path d="M1468.18,277a193,193,0,0,1,22.7-92.7c.9-1.7-1.68-3.22-2.59-1.51A196.21,196.21,0,0,0,1465.18,277a1.5,1.5,0,0,0,3,0Z"/><path d="M1470,289.18a246,246,0,0,0-58.66-98.09c-1.35-1.38-3.47.74-2.12,2.12A242.61,242.61,0,0,1,1467.15,290c.57,1.84,3.47,1.06,2.89-.79Z"/><path d="M1394.62,174.44h-1.06a1.5,1.5,0,0,0,0,3h1.06a1.5,1.5,0,0,0,0-3Z"/><path d="M1469.87,384.43l-1,27.65c-.07,1.93,2.93,1.93,3,0l1-27.65c.07-1.93-2.93-1.93-3,0Z"/><path d="M1359.12,310.65a136.77,136.77,0,0,0-31.2,12.91,1.5,1.5,0,0,0,1.51,2.59,133.81,133.81,0,0,1,30.49-12.61,1.5,1.5,0,0,0-.8-2.89Z"/><path d="M1476.43,293.19a510.67,510.67,0,0,1-10.9-107.47c0-3.87-6-3.87-6,0a518.39,518.39,0,0,0,11.12,109.06c.79,3.78,6.58,2.18,5.78-1.59Z"/><path d="M1473.26,290a190.26,190.26,0,0,1,114.23,3.1c3.66,1.26,5.23-4.54,1.6-5.79a196,196,0,0,0-117.43-3.09c-3.7,1.06-2.13,6.85,1.6,5.78Z"/><path d="M1466,274.13a164.16,164.16,0,0,1,21.45,94.41c-.29,3.85,5.71,3.83,6,0a169.86,169.86,0,0,0-22.27-97.43c-1.92-3.35-7.11-.33-5.18,3Z"/><path d="M1457.6,280.26a164.18,164.18,0,0,1,73.51,63.07c2.05,3.26,7.24.25,5.18-3a169.57,169.57,0,0,0-75.66-65.22c-3.51-1.53-6.56,3.64-3,5.18Z"/><path d="M1475.05,280.68a195,195,0,0,1,70.42-31.61c3.76-.86,2.17-6.64-1.6-5.79A199.63,199.63,0,0,0,1472,275.5c-3.11,2.23-.12,7.43,3,5.18Z"/><path d="M1480.34,290.8a426.79,426.79,0,0,0-110.74-43.53c-3.75-.9-5.35,4.88-1.59,5.78A421.58,421.58,0,0,1,1477.31,296c3.37,1.9,6.4-3.28,3-5.18Z"/><path d="M1479.37,289.83a617.53,617.53,0,0,0-71.87-66.45c-3-2.36-7.28,1.86-4.25,4.25a616.66,616.66,0,0,1,71.88,66.44c2.62,2.85,6.86-1.4,4.24-4.24Z"/><path d="M1469.41,287.45A227,227,0,0,0,1420,362.76c-1.44,3.58,4.36,5.14,5.79,1.6a219.42,219.42,0,0,1,47.86-72.66c2.73-2.75-1.51-7-4.24-4.25Z"/><path d="M1470.74,286.68A226.76,226.76,0,0,0,1395,335.42c-2.77,2.69,1.47,6.93,4.24,4.24a219.41,219.41,0,0,1,73.1-47.19c3.56-1.39,2-7.2-1.59-5.79Z"/><path d="M1368.73,307.67a85.76,85.76,0,0,0-47.63,20c-3,2.5,1.31,6.72,4.24,4.24a78.75,78.75,0,0,1,43.39-18.26c3.81-.36,3.85-6.37,0-6Z"/><path d="M1395.9,175.07v-1a3,3,0,0,0-6,0v1a3,3,0,0,0,6,0Z"/><path d="M1531.76,354.46l16.52,29c1.91,3.35,7.1.33,5.18-3l-16.52-29c-1.91-3.35-7.1-.33-5.18,3Z"/><path d="M1531.48,195.63l24.82-25.47c2.69-2.77-1.55-7-4.25-4.25l-24.81,25.48c-2.7,2.77,1.54,7,4.24,4.24Z"/><path class="b" d="M1517.59,303.82c5.54,5.65,2.75,16.86-4.79,19.24s-16.27-5.19-15-13,12-12.15,18.37-7.45"/><path d="M1515.47,306c6.7,7.53-3.54,19.52-11.74,11.95s2.77-18.13,11-12.69c3.22,2.15,6.23-3,3-5.18-6.17-4.09-14.8-2.49-19.64,3-5.37,6.05-3.77,14.86,2.21,19.84s14.77,4.89,19.77-1.42a15.41,15.41,0,0,0-.35-19.72c-2.57-2.89-6.81,1.37-4.24,4.25Z"/><path class="c" d="M1495,233.45c3.52,3.58,1.75,10.69-3,12.2s-10.32-3.29-9.5-8.24,7.62-7.7,11.65-4.72"/><path d="M1492.84,235.57c3.34,3.75-1.73,9.83-5.89,6s1.47-9.08,5.62-6.32c3.23,2.14,6.23-3.05,3-5.18-4.31-2.87-10.39-1.74-13.79,2.05-3.82,4.27-2.82,10.55,1.41,14.14s10.52,3.54,14.09-.9a10.88,10.88,0,0,0-.23-14.06c-2.57-2.89-6.8,1.37-4.24,4.24Z"/><path class="c" d="M1677.44,285.6c3.51,3.58,1.74,10.69-3,12.2s-10.32-3.29-9.5-8.24,7.62-7.7,11.66-4.72"/><path d="M1675.31,287.72c3.34,3.75-1.73,9.83-5.89,6s1.47-9.08,5.62-6.32c3.23,2.14,6.24-3.05,3-5.18-4.31-2.87-10.38-1.74-13.78,2.05-3.83,4.27-2.83,10.55,1.4,14.14s10.52,3.54,14.09-.9a10.89,10.89,0,0,0-.22-14.06c-2.58-2.89-6.81,1.37-4.25,4.24Z"/><path class="c" d="M1385,326.85c3.52,3.58,1.75,10.69-3,12.2s-10.32-3.29-9.5-8.24,7.62-7.7,11.65-4.72"/><path d="M1382.89,329c3.34,3.75-1.73,9.83-5.89,6s1.47-9.08,5.62-6.32c3.23,2.14,6.23-3.05,3-5.18-4.31-2.87-10.39-1.74-13.79,2.05-3.82,4.27-2.82,10.55,1.41,14.14s10.52,3.54,14.09-.9a10.88,10.88,0,0,0-.23-14.06c-2.57-2.89-6.8,1.37-4.24,4.24Z"/><path class="c" d="M1452.6,321.32c3.51,3.58,1.74,10.69-3,12.2s-10.32-3.29-9.5-8.24,7.62-7.7,11.66-4.72"/><path d="M1450.47,323.44c3.34,3.75-1.73,9.83-5.89,6s1.47-9.08,5.62-6.32c3.23,2.14,6.24-3,3-5.18-4.31-2.87-10.38-1.74-13.78,2-3.83,4.27-2.83,10.55,1.4,14.14s10.52,3.54,14.09-.9a10.89,10.89,0,0,0-.22-14.06c-2.58-2.89-6.81,1.37-4.25,4.24Z"/><path class="c" d="M1430.25,255.59c4.39,4.46,2.18,13.33-3.78,15.22s-12.88-4.11-11.85-10.28,9.5-9.61,14.54-5.89"/><path d="M1428.13,257.71c4.78,5.37-2.5,14-8.4,8.57s2-13,7.91-9c3.23,2.14,6.24-3.05,3-5.18-5.1-3.39-12.27-2.06-16.29,2.45-4.49,5-3.23,12.39,1.75,16.58s12.34,4.11,16.52-1.12a12.82,12.82,0,0,0-.28-16.49c-2.57-2.89-6.8,1.37-4.24,4.24Z"/><path class="d" d="M402.64,455.46c314.72-44.89,613.18-54.11,930.3,6.32,0-85.46-2.29-250.91-10-260.43-6.59-8.14-17.91-10.31-28.26-11.91-145-22.43-744.59-56.16-875,11-5.65,62-11.35,193-17,255"/><path d="M403.83,459.8c120.46-17.15,241.68-29.49,363.3-34.13,119.49-4.56,239.28-1.59,358.27,10.42q103.78,10.47,206.35,30c2.83.54,5.69-1.23,5.69-4.34,0-57.31-.62-114.66-2.52-171.94-.76-22.91-1.49-45.91-3.74-68.74-.59-6-1-12.27-2.7-18.06-3.1-10.59-16.22-14.84-25.88-16.77-14.42-2.89-29.23-4.37-43.83-6.06-17.16-2-34.36-3.69-51.56-5.26-44.31-4-88.7-7.16-133.11-9.77q-78.81-4.62-157.75-6.89c-54.84-1.58-109.72-2.31-164.59-1.79-50.63.48-101.28,2-151.78,5.58-40.7,2.92-81.61,6.93-121.62,15.17-14.73,3-29.41,6.67-43.55,11.83-5.57,2-12,4-17,7.29-4.31,2.81-3.32,11.46-3.7,16.17q-.78,9.68-1.46,19.35c-4.46,62.39-7.31,124.87-11.66,187.26-.85,12.11-1.75,24.22-2.84,36.31-.53,5.77,8.48,5.73,9,0,6.19-68.29,8.72-136.9,13.25-205.32,1.09-16.56,2.25-33.13,3.75-49.67l-2.23,3.89c21.21-10.87,45.95-16.16,69.48-20.5,34.16-6.31,68.83-9.81,103.44-12.4,42-3.14,84.09-4.73,126.18-5.52,45.59-.87,91.2-.75,136.8,0q68.82,1.16,137.59,4.21,63.39,2.78,126.72,7.07c35,2.39,69.9,5.14,104.77,8.59,13.58,1.34,27.15,2.78,40.7,4.44,13.14,1.6,27.27,2.46,40,6.55,4.37,1.4,9.39,3.69,12,7.67-.64-1,.07.22.25,1,.21.91.44,1.8.63,2.71a147.15,147.15,0,0,1,2,16.28c1.69,18.9,2.45,37.9,3.14,56.86,1.8,49.63,2.45,99.31,2.72,149q.09,15.76.09,31.53l5.7-4.34a2436.2,2436.2,0,0,0-365.5-41.09C848,411.92,727.21,416.24,607,427c-68.73,6.15-137.26,14.39-205.58,24.12-5.71.82-3.28,9.49,2.39,8.68Z"/><path class="c" d="M1479,60.22C1464.62,47,1444.94,40,1425.37,39.73c-19.27-.3-39.11,6-52.74,19.6s-19.9,35.05-13.14,53.09,27.67,30.38,46.21,25.15a43.51,43.51,0,0,0,54.84,46c2.38,13.55,18.91,22.54,31.59,17.17a25.45,25.45,0,0,0,22.68,17.71c4,.17,8-.61,11.87,0,6.88,1.05,12.34,6.08,18,10.17,14.82,10.77,34.09,16,51.95,12s33.63-18.22,37.48-36.13c1,3.61,5.58,5.24,9.22,4.32s6.51-3.67,9-6.44c10.29-11.21,18.34-24.84,21.06-39.81s-.35-31.32-10-43.09-26.22-18.06-40.82-13.79c9.75-6.84,13.7-20.27,10.79-31.81s-11.84-21-22.51-26.31-22.92-6.72-34.8-6c-10.79.66-21.64,3.13-30.94,8.64s-16.93,14.3-19.64,24.77a28.26,28.26,0,0,0-48.75-20.1"/><path d="M1482.22,57c-25.75-23.13-66-28.86-96.87-12.56-28.16,14.91-44.92,53.87-23.33,81.27,10.51,13.34,28.22,20.47,44.88,16.16l-5.7-4.34c-2.44,33,28.67,58.42,60.54,50.31l-5.54-3.14c3.34,16,21.83,26.22,37.12,20.32l-5.53-3.14a30.62,30.62,0,0,0,13,16.65c6.66,4.14,13.29,4.33,20.87,4.15,9.74-.22,15.82,6.57,23.43,11.59a74.45,74.45,0,0,0,21.68,9.75c29.71,7.95,64.3-6.75,71.7-38.45h-8.68c2.74,6.59,9.52,9.39,16.27,7,7-2.51,12.2-9.79,16.5-15.53,9.5-12.69,16-28,16.33-44,.29-15-5-30.82-16.3-41.12-11.06-10.08-26.55-14.59-41.14-10.68l3.47,8.23a35.3,35.3,0,0,0,12.47-38.33C1632.81,56,1619.68,45.12,1605,40.28c-29.84-9.86-74.27-.43-83.86,33.44l8.84,1.2c-.07-13.21-7.91-25.77-20.25-30.88s-26.82-1.73-36.18,7.59c-4.11,4.1,2.25,10.46,6.36,6.37,6.8-6.78,17.31-9.4,26.34-5.7s14.68,13,14.73,22.62c0,5.07,7.45,6.11,8.84,1.19,7.77-27.47,43.54-34.35,67.9-28.54,12.17,2.9,23.59,10,29.2,21.57,5.23,10.74,3.33,25.17-6.61,32.58-3.87,2.89-1.81,9.64,3.47,8.23,23.84-6.39,43.68,14.3,45.82,36.81,1.1,11.54-1.71,23.11-7,33.34a86.47,86.47,0,0,1-10.2,15.34c-1.53,1.84-11.49,13.77-14,7.78-1.55-3.72-7.56-4.79-8.68,0-6.62,28.34-37.92,39.52-63.73,31.25a68.06,68.06,0,0,1-19.09-9.78c-5.49-4-10.73-8.65-17.49-10.31s-13.65.8-20.22-1.62a21.21,21.21,0,0,1-12.74-13.24c-.71-2.13-3.17-4.05-5.54-3.14-10.94,4.23-23.63-2.48-26-14-.51-2.41-3.3-3.71-5.54-3.14-26.54,6.75-51.14-14.58-49.14-41.64.22-3-3-5-5.7-4.34-12.47,3.23-25.37-1.89-33.9-11.2-9.23-10.08-11.2-24.45-7.65-37.33,7.94-28.85,38.62-42.05,66.49-40.31a76.82,76.82,0,0,1,46.42,19c4.29,3.86,10.68-2.48,6.36-6.36Z"/><path class="c" d="M1242.33,61.78c-12.77,10.53-15.53,31.23-6,44.73s30,17.77,44.18,9.21A40.42,40.42,0,0,0,1346,132.61c5,15.71,20.75,27.34,37.23,27.45s32.41-11.3,37.6-26.95c26.24-1.53,50-23,54.18-48.91s-11.57-53.77-36-63.5c9-11.89,4.65-30.28-6.5-40.2s-27-12.76-42-12.12a111.17,111.17,0,0,0-78.1,37.56c1.31-10.06-5.91-20-15.35-23.72s-20.37-2-29.43,2.57a51.24,51.24,0,0,0-25.81,31.33,51.19,51.19,0,0,0,5.56,40.22"/><path d="M1239.15,58.6c-14.2,12.26-17.46,35.39-6.28,50.72s33.55,19.68,49.94,10.29l-6.61-2.69c5,13.68,15.86,24.66,29.93,28.85,15,4.49,31.35.19,43-10l-7.53-2c5.95,17.58,22.77,30.64,41.57,30.76s35.75-12.77,41.93-30.25l-4.33,3.3c28.46-2,54.25-24.32,58.62-52.91s-12.72-57.36-39.24-68.34l2.69,6.61c6.56-9.21,6.79-21.23,2.6-31.48-4.54-11.13-13.73-18.86-24.78-23.21-24.06-9.48-53.49-3.6-76,7.42a115,115,0,0,0-35.44,27.06l7.68,3.18c1.18-13-8.17-24.69-20.24-28.63-13.22-4.32-28.09.28-38.88,8.34-22.76,17-28.69,48.58-14.3,73,3,5,10.73.46,7.77-4.54a46.67,46.67,0,0,1,8.55-58.49c7.74-7,18.49-11.84,29.11-10.76,10.81,1.1,20,9.88,19,21.12-.35,3.84,5.19,6,7.68,3.18,19.12-21.6,46.73-35.28,75.69-36.27,13.56-.46,28.86,1.91,39,11.76,9,8.69,12.34,23.25,4.8,33.82-1.87,2.63.27,5.61,2.69,6.61,22.2,9.19,36.81,34.85,32.73,58.66s-25.62,43.18-49.72,44.91a4.71,4.71,0,0,0-4.34,3.31c-4.86,13.71-18.61,23.74-33.26,23.64s-28.23-10.38-32.89-24.15a4.56,4.56,0,0,0-7.52-2c-19.07,16.6-49.29,8.89-57.92-14.9-1-2.72-3.92-4.23-6.61-2.69-12.43,7.12-30.1,3.93-38.39-8.15s-5.25-29.32,5.64-38.72c4.39-3.8-2-10.14-6.36-6.37Z"/><path d="M1354.38,123.44a42.17,42.17,0,0,0,12,28c2.69,2.77,6.93-1.47,4.24-4.24a35.77,35.77,0,0,1-10.27-23.77c-.17-3.85-6.17-3.87-6,0Z"/><path d="M1365.88,132.82l7.68,11.13c2.17,3.15,7.38.16,5.18-3l-7.68-11.13c-2.18-3.15-7.38-.16-5.18,3Z"/><path d="M1376.12,132.81l6.28,8.64a3.09,3.09,0,0,0,4.1,1.08,3,3,0,0,0,1.08-4.11l-6.28-8.64a3.1,3.1,0,0,0-4.11-1.08,3,3,0,0,0-1.07,4.11Z"/><path d="M1386.15,134.07l5.46,5.53c2.72,2.75,7-1.49,4.24-4.24l-5.46-5.54c-2.72-2.75-7,1.49-4.24,4.25Z"/><path d="M1288.5,85.73a33.15,33.15,0,0,0,21.89,27.91c3.64,1.32,5.21-4.48,1.6-5.79a26.86,26.86,0,0,1-17.49-22.12c-.41-3.79-6.42-3.84-6,0Z"/><path d="M1297.56,90.39l4.71,7.85c2,3.31,7.18.3,5.18-3l-4.71-7.86c-2-3.31-7.17-.29-5.18,3Z"/><path d="M1309.16,89.74l6.31,8.62a3.08,3.08,0,0,0,4.1,1.08,3,3,0,0,0,1.08-4.11l-6.31-8.62a3.1,3.1,0,0,0-4.11-1.07,3,3,0,0,0-1.07,4.1Z"/><path d="M1325.05,91.17,1329,99c1.73,3.45,6.91.42,5.18-3l-3.92-7.85c-1.73-3.46-6.91-.42-5.19,3Z"/><path d="M1415.58,171.59a23.87,23.87,0,0,0,22.18-11.34c2-3.29-3.14-6.31-5.18-3a17.9,17.9,0,0,1-17,8.37c-3.84-.31-3.82,5.69,0,6Z"/><path d="M1428.21,181.32a27.66,27.66,0,0,0,14.68-8.63c2.55-2.88-1.68-7.13-4.25-4.24a22.16,22.16,0,0,1-12,7.08c-3.76.84-2.17,6.63,1.6,5.79Z"/><path d="M1452.45,179.9l8.63-8.65c2.73-2.74-1.51-7-4.24-4.24l-8.64,8.64c-2.73,2.74,1.51,7,4.25,4.25Z"/><path d="M1495.9,119.51a30.18,30.18,0,0,1-16.55,25c-3.43,1.77-.4,6.95,3,5.18a36.27,36.27,0,0,0,19.52-30.16c.25-3.85-5.75-3.84-6,0Z"/><path d="M1498.66,141.56a13.72,13.72,0,0,1-6,6.78c-3.37,1.9-.35,7.08,3,5.18a18.93,18.93,0,0,0,8.14-8.93,3.1,3.1,0,0,0-1.07-4.1c-1.27-.74-3.46-.42-4.11,1.07Z"/><path d="M1504.24,147.89,1498,158.14c-2,3.31,3.17,6.32,5.18,3l6.23-10.25c2-3.31-3.18-6.32-5.18-3Z"/><path d="M1514.36,151.81a41.88,41.88,0,0,1-12.11,17.4c-2.92,2.53,1.34,6.76,4.24,4.24a48,48,0,0,0,13.66-20c1.32-3.63-4.47-5.2-5.79-1.59Z"/><path class="e" d="M710.46,270.37c-1.54.15-4.2.19-5.19,1.51-2.35,3.22,1.08,28.31-1.77,30.92a4.08,4.08,0,0,1-2.47.91c-14.85,1.44-15.59.62-17-13.57-.84-8.69-1.91-17.46-2.76-26.15-.39-4.07,0-8.44,0-12.55,0-8-1.69-16.27-2.46-24.19-.11-1.21-.55-3.38.24-4.46.87-1.3,21.79-3.11,25.53-3.47,4.07-.4,8.32,0,12.5-.44,3.63-.35,7.14-1.91,10.77-2.27s4,7.72,4.23,10.36c.18,1.87.19,3.2-1.47,4.36-6.15,4.15-32,1.22-31.11,10,1.53,15.83,2.32,12.54,15.85,11.23,2.42-.24,12.92-.7,14.18.84a3.14,3.14,0,0,1,.64,1.94c.26,2.75,1.1,13.66-2.64,14-3.19.31-6.44,0-9.52.26Z"/><path class="e" d="M771.23,269.48c.28,4.3-.07,9.2-.13,13.52,0,.44.29,13.05-1.72,14.62a4.12,4.12,0,0,1-2.5.71c-3,.19-15.11,1-15.36-3-.22-3.42.33-6.89.11-10.31-.32-5.07-1-10.12-1.3-15.19-.29-4.53,0-9.08-.32-13.6-.56-8.83-2.24-17.69-2.8-26.51-.9-14-.68-14,12.88-14.89,1.55-.1,4.08-.26,5.35.55,2.2,1.41,2.7,11,2.86,13.54.31,4.74-.71,9.68-.4,14.42.32,5.08,2.3,9.93,2.62,15Z"/><path class="e" d="M804.28,239.37c-.23,4.21,2.87,9,3.52,13.29a114.92,114.92,0,0,1,1.35,15.11c.11,4.42-.33,9.18-.67,13.61-.15,2.88.79,14.79-4.51,14.92-3.31.08-14.46.56-14.57-3.86-.09-3.75.6-7.53.51-11.28-.1-4.2-.64-8.39-.74-12.58-.12-4.86.77-9.64.65-14.5s-1.44-9.36-1.55-14.11.78-9.19.67-13.83c-.08-3.31-.82-6.5-.89-9.7-.1-4.2,6.67-3.14,9.32-3.21,1.1,0,9.82-.34,11.62.94,2,1.5,4.5,8.08,5.89,10.59,2.77,4.9,5.86,9.58,8.52,14.6,1.85,3.39,2.93,7,4.56,10.51,1.75,3.71,3.93,7.09,5.78,10.8.58,1.2,3.64,8.87,5.32,9.93l.1-.66A115.09,115.09,0,0,0,836,247.8c-.5-2.53-1.34-5.28-1.62-7.81-.44-4.74-.34-9.61-.45-14.36-.08-3.31-.6-6.73-.68-10-.12-5.19,6.42-4.13,10.07-4.22,6.74-.16,10.23-1.79,10.42,6.28.17,7.07.24,14.47.07,21.55-.11,4.53-.78,9.08-.67,13.61s1.21,9.14,1.54,13.67c.44,4.85.56,9.71.67,14.57.37,15.35.07,12.38-15,12.73-1.43,0-3.86.42-5.09-.54-6.64-4.82-26.45-52.65-30.16-55.32l-.43.23-.43.67Z"/><path class="e" d="M894.91,267.55c-.08,4.31-.84,9.16-1.26,13.46,0,.44-.81,13-2.94,14.42a4.12,4.12,0,0,1-2.55.5c-3-.06-15.13-.3-15.06-4.28.07-3.42.91-6.83,1-10.26.1-5.08-.13-10.17,0-15.25.09-4.53.74-9.05.83-13.58.17-8.83-.75-17.8-.58-26.64.28-14,.5-14,14.09-13.76,1.55,0,4.09.08,5.29,1,2.06,1.59,1.76,11.2,1.71,13.74-.09,4.75-1.52,9.58-1.61,14.33-.1,5.09,1.46,10.09,1.36,15.17Z"/><path class="e" d="M935.59,299c-3.86-.24-26.79-10.85-26.63-13.38.12-1.88,9.4-12.38,11.28-12.26,1.43.09,7,6.63,15.83,7.18,2.31.14,10.35-4.46,10.92-6.53-.23-1.78-2.21-3.68-3.47-4.86-1.56-1.54-3.23-3.19-4.92-4.62-2.31-1.92-5.58-2.78-8.26-4.16-8-4-13.11-8.34-16-16.82-.75-2.26-2-5.55-1.84-8,.11-1.76,1.47-4.11,2.24-5.73.89-1.82,1.81-4.31,3.34-5.77,5.31-5.21,19.76-11.62,27.15-11.17a32,32,0,0,1,19.45,7.74c1.16,1,4.34,3.25,4.25,4.8-.16,2.53-8.77,11.08-11.53,10.91-4.19-.26-9.31-5.11-13.72-5.39-1.77-.11-9.18,3.31-9.28,5-.31,5.07,29,21,32.33,25.13,1.64,2.09,3.76,10.75,3.59,13.51-.5,8.16-10.8,19-18,22-3.87,1.64-14,.57-16.1,2.44Z"/><path class="e" d="M1050.45,277.76c-.69,5.37-.92,10.69-1.61,16.06-2.08,16.22-2.48,14.16-18.16,12.15-2.74-.35-3.92-.72-3.52-3.79.81-6.36,2-12.67,2.79-19.14.35-2.74,1.25-5.41,1.6-8.15.41-3.18-12.08-3.11-14.49-3.42-3.18-.41-6.18-1.35-9.36-1.75-3.83-.5-3.44,8.58-3.79,10.43-.69,3.7-1.5,7.38-2.29,11s-1.15,12.45-6.41,11.77c-2.2-.28-13-2.33-14.11-3.81a2.91,2.91,0,0,1-.5-2.18c.44-3.4,2.2-6.74,2.64-10.14.64-5,.07-10.13.72-15.17.52-4.05,2.23-7.84,2.75-11.9.62-4.82-.08-9.81.55-14.75s4.06-25.54,6.64-26.55a5,5,0,0,1,2.25-.16,54.51,54.51,0,0,1,6.05,1.45c10.79,2.72,9.32,3.75,8,14.39-.69,5.37-2.88,10.32-3.56,15.58a2.18,2.18,0,0,0,2,2.71c3.51.45,7.18.47,10.71.81,3.3.32,6.89,1,10.23,1a3.72,3.72,0,0,0,2.21-.72c2.38-2,4.76-18.88,5.17-22.06.78-6.14.41-7.52,7.2-6.65,2,.25,10.08,1.29,11.26,2.55.89.9.61,2.2.45,3.4-.4,3.18-1.34,6.18-1.75,9.36-.58,4.49.15,9.27-.54,13.75Z"/><path class="c" d="M613.44,265.94c11.77-5.24,27.61-8.55,40.37-10.29,2.63,7.59,8.14,13.06.53,15.65S625,276.16,618.58,281a69.41,69.41,0,0,1-5.14-15"/><path class="c" d="M615,268.53c12.51-5.42,26.2-8.11,39.65-10l-3.69-2.1c.87,2.35,2,4.57,3,6.85,1.1,2.49,2.35,4-.69,5.23-3.63,1.45-7.88,1.89-11.68,2.64-7.94,1.56-17.6,2.51-24.45,7.21l4.11,1.07a72.74,72.74,0,0,1-4.83-14.3c-.87-3.76-6.66-2.17-5.79,1.6A81.1,81.1,0,0,0,616,282.47a3,3,0,0,0,4.1,1.08c4.1-2.81,9.44-3.76,14.21-4.81,5.53-1.23,11.14-2.12,16.66-3.41,3.81-.89,8.69-2,10-6.25,1.42-4.66-2.73-10.15-4.25-14.23a3.13,3.13,0,0,0-3.69-2.1c-14,2-28,4.95-41.08,10.6-3.53,1.53-.48,6.7,3,5.18Z"/><path class="c" d="M1078.47,260.89c12.71,2.12,27.74,8.11,39.34,13.7-2,7.78-.43,15.38-8.2,13.35s-27.13-12.13-35.15-11.7a69,69,0,0,1,4-15.35"/><path class="c" d="M1077.68,263.78c13.46,2.4,26.33,7.53,38.62,13.4l-1.38-3.39c-.6,2.57-.88,5.17-1.35,7.76-.43,2.36-.49,3.8-3.16,3.5-3.76-.44-7.94-2.86-11.38-4.28-7.58-3.13-16.16-7.65-24.57-7.53l2.89,3.8a77.53,77.53,0,0,1,4-15.36c1.35-3.62-4.45-5.18-5.79-1.59a76.91,76.91,0,0,0-4,15.35c-.29,1.87.76,3.83,2.89,3.8,5.1-.07,10.34,2.26,15,4.08,5.22,2,10.32,4.35,15.57,6.27,3.61,1.32,8.17,2.91,11.45,0,3.64-3.22,3.21-9.9,4.21-14.21a3,3,0,0,0-1.38-3.39c-12.74-6.09-26.09-11.52-40-14-3.78-.67-5.4,5.11-1.59,5.79Z"/><path class="c" d="M41.29,124.53c-14.94,12.31-18.17,36.54-7,52.34s35.12,20.8,51.7,10.78a47.32,47.32,0,0,0,76.58,19.77c5.83,18.39,24.28,32,43.57,32.13s37.93-13.23,44-31.54c30.71-1.79,58.5-26.87,63.41-57.25S300,87.83,271.45,76.45C282,62.53,276.9,41,263.84,29.4S232.2,14.47,214.75,15.21a130.14,130.14,0,0,0-91.4,44c1.54-11.77-6.92-23.41-18-27.76s-23.84-2.35-34.44,3a59.15,59.15,0,0,0-23.7,83.73"/><path d="M38.11,121.34c-16.58,14.23-20.11,41.21-6.9,58.87,12.94,17.3,38.52,22,57.07,11.33l-6.61-2.69c5.69,15.81,18.44,28.52,34.69,33.29,17.25,5.06,36,.17,49.41-11.54l-7.52-2c6.81,20.28,26.29,35.26,47.91,35.44s41.27-14.72,48.34-34.85l-4.34,3.31c25.72-1.8,49.47-17.74,61.14-40.77,11.85-23.39,9.05-51.46-5.73-72.93a73.74,73.74,0,0,0-32.93-26.7l2.69,6.61c7.76-10.8,7.79-25,2.7-36.9-5.56-13-16.74-21.83-29.84-26.61C220.31,5,186.73,11.92,160.9,24.73A133.73,133.73,0,0,0,120.17,56l7.68,3.18c1.43-14.79-9.23-28.09-22.86-32.68-15.49-5.22-33,.32-45.55,9.89C33.5,56.13,26.72,92.44,43.35,120.43c3,5,10.74.45,7.77-4.55A55.35,55.35,0,0,1,61.36,46.4c9.57-8.65,23.27-14.66,36.35-12.47C110,36,120.1,46.32,118.85,59.17c-.37,3.85,5.2,6,7.68,3.18C148.8,37.13,181,21.13,214.75,19.71c16.28-.68,34.68,2,46.93,13.81,10.77,10.35,15,28,5.88,40.65-1.88,2.62.28,5.62,2.69,6.62C296.6,91.64,314,122,309.11,150.27s-30.35,51.23-59,53.24a4.69,4.69,0,0,0-4.34,3.3c-5.75,16.38-22.2,28.35-39.66,28.24s-33.71-12.39-39.23-28.83a4.57,4.57,0,0,0-7.52-2c-22.69,19.87-58.84,10.62-69.06-17.77a4.57,4.57,0,0,0-6.61-2.69c-14.65,8.46-35.46,4.78-45.54-9.17-10.42-14.41-6.93-35.56,6.28-46.89,4.4-3.78-2-10.12-6.37-6.37Z"/><path class="c" d="M455,53.7c15.14-12.07,24.8-42.53,13.86-58.51s-34.79-21.35-51.52-11.6a48.18,48.18,0,0,0-32.47-31.06,48.21,48.21,0,0,0-43.79,10.08c-5.52-18.48-23.76-32.39-43-32.83s-38.14,12.63-44.5,30.84c-30.74,1.3-58.92,25.93-64.32,56.22s12.53,63.14,40.93,75c-10.78,13.75-6,35.35,6.85,47.16s31.4,15.44,48.86,15a130.13,130.13,0,0,0,92.09-42.49c-1.72,11.75,6.54,23.52,17.52,28.05s23.81,2.72,34.49-2.47A59.16,59.16,0,0,0,455,53.7"/><path d="M458.16,56.88c15.9-13.14,25.78-41.12,16.5-60.54C464.44-25,434.73-31.25,415.05-20.3l6.61,2.69A53.32,53.32,0,0,0,387.45-51.4c-17.18-5.33-36-.66-49.57,10.83l7.52,2c-6.41-20.18-25.35-35.25-46.68-36.1-21.89-.87-42.08,13.89-49.54,34.11l4.34-3.3c-25.75,1.39-49.72,17-61.75,39.84S181.93,46.69,196,68.31a72.64,72.64,0,0,0,31.9,27.4l-1.62-6.16c-7.79,10.49-8.18,24.57-3.4,36.42,5.28,13.06,16,22.08,28.9,27.19,27.88,11,61.93,4.59,88.18-7.91a133.73,133.73,0,0,0,41.19-30.61l-7.68-3.18c-1.67,14.75,8.86,28.24,22.41,33,15.46,5.42,33.11.16,45.82-9.31a64.45,64.45,0,0,0,17.2-83.71c-2.88-5-10.66-.5-7.77,4.54a55.36,55.36,0,0,1-11.43,69.3c-9.69,8.48-23.56,14.27-36.56,11.81-12.23-2.31-22.12-12.76-20.67-25.62.44-3.91-5.2-5.9-7.68-3.18-22.86,25.07-55.66,40.54-89.7,41.19-16.3.31-34.53-2.95-46.37-15.12-10.28-10.57-13.81-28-4.67-40.26,1.34-1.79.45-5.27-1.61-6.16-26.2-11.28-43.61-40.65-39-69.21,4.69-28.87,31-52,60.1-53.6a4.72,4.72,0,0,0,4.34-3.31C264-54.74,281-66.39,298.72-65.69c17.22.68,32.84,13.23,38,29.49a4.57,4.57,0,0,0,7.53,2c23-19.54,59-9.51,68.73,19a4.58,4.58,0,0,0,6.61,2.69c15.57-8.67,40.82-3.54,47.71,14.43C473.47,18,464.49,40,451.79,50.52c-4.46,3.69,1.93,10,6.37,6.36Z"/><path d="M299.94,138.46a80.25,80.25,0,0,0,36.78-20.25c2.79-2.68-1.46-6.92-4.24-4.24a74.11,74.11,0,0,1-34.14,18.7c-3.75.91-2.16,6.7,1.6,5.79Z"/><path d="M297,123.69a55.93,55.93,0,0,0,19.94-11.55c2.89-2.58-1.37-6.81-4.24-4.24a48.68,48.68,0,0,1-17.3,10c-3.65,1.2-2.09,7,1.6,5.78Z"/><path d="M294.76,115.55l13.72-8.82c3.24-2.08.24-7.28-3-5.18l-13.73,8.82c-3.23,2.08-.23,7.28,3,5.18Z"/><path d="M236.22,103A66.06,66.06,0,0,0,252,129.75c2.68,2.79,6.92-1.45,4.24-4.24A59.33,59.33,0,0,1,242,101.44c-1.13-3.68-6.93-2.11-5.79,1.6Z"/><path d="M247.12,95.32A41.41,41.41,0,0,0,255.84,117c2.36,3,6.58-1.23,4.24-4.24a34,34,0,0,1-7-17.48c-.39-3.81-6.39-3.85-6,0Z"/><path d="M175.05,192.86a42.92,42.92,0,0,0,28.2,23c3.75.95,5.34-4.84,1.6-5.79a37.12,37.12,0,0,1-24.62-20.2c-1.68-3.48-6.85-.44-5.18,3Z"/><path d="M192.84,193.76l13.56,7.16c3.42,1.81,6.45-3.37,3-5.18l-13.56-7.16c-3.41-1.8-6.45,3.37-3,5.18Z"/><path d="M208.42,185.14,219.2,192c3.26,2.08,6.28-3.12,3-5.18L211.44,180c-3.26-2.08-6.28,3.12-3,5.18Z"/><path d="M188.14,86.38a73.85,73.85,0,0,1-2.48,43.5c-1.33,3.63,4.47,5.19,5.79,1.59a79.62,79.62,0,0,0,2.48-46.68c-.92-3.75-6.71-2.16-5.79,1.59Z"/><path d="M175.56,95.32A53.82,53.82,0,0,1,172.73,118c-1.28,3.66,4.52,5.23,5.78,1.6a57.77,57.77,0,0,0,3.05-24.32c-.33-3.82-6.33-3.86-6,0Z"/><path d="M161.84,93.35a54.23,54.23,0,0,1-9.39,24c-2.2,3.18,3,6.18,5.18,3a60.41,60.41,0,0,0,10.21-27c.5-3.81-5.51-3.78-6,0Z"/><path class="c" d="M518.3,363.24c.24-.75.44-1.5.65-2.24-3.9.7-8.14,1.36-12.65,1.93l-1.54-3.11a161.9,161.9,0,0,0,29.43-6.09l2.23,2.9a110.22,110.22,0,0,1-13.62,3.63c-.19.87-.38,1.7-.58,2.49l15-1.89.43,3.38-16.58,2.09c-.33.76-.61,1.52-.95,2.24L540.32,366l.44,3.51-22.54,2.84c-.5.79-1,1.56-1.41,2.3l20.25-2.55,2.54,20.16-3.76.47-.2-1.58-18.07,2.28.2,1.58-3.76.48-1.86-14.78a70.26,70.26,0,0,1-5.55,5.49l-2.55-3.11A59.07,59.07,0,0,0,513.33,373L504,374.16l-.44-3.51,12.15-1.53c.41-.77.82-1.54,1.16-2.26l-11.32,1.42-.42-3.38Zm15.41,12.56-18.08,2.28.26,2.05L534,377.85Zm-17.2,9.3,18.08-2.28-.25-2-18.07,2.28Zm.65,5.13L535.24,388l-.27-2.13-18.08,2.28Z"/><path class="c" d="M560.38,358.23c.26-.75.47-1.49.69-2.24-3.91.65-8.16,1.24-12.68,1.74l-1.49-3.13A162,162,0,0,0,576.42,349l2.19,2.93a110.72,110.72,0,0,1-13.68,3.42c-.2.87-.41,1.7-.62,2.48l15-1.66.37,3.39-16.6,1.84c-.34.75-.64,1.51-1,2.22l20.24-2.24.39,3.52-22.59,2.49c-.5.78-1,1.55-1.44,2.28L579,367.39l2.23,20.2-3.76.41-.18-1.58-18.11,2,.18,1.59-3.77.41L554,375.62a70.5,70.5,0,0,1-5.63,5.4l-2.51-3.15a58.25,58.25,0,0,0,9.44-10l-9.33,1-.39-3.52,12.18-1.34c.42-.77.84-1.54,1.19-2.25l-11.34,1.25-.37-3.39ZM575.6,371l-18.11,2,.23,2.05,18.11-2Zm-17.33,9,18.11-2-.22-2-18.11,2Zm.56,5.15,18.11-2-.23-2.13-18.11,2Z"/><path class="c" d="M596.46,347.11c-.18,2.55-.41,5-.62,7.2l8.59-.82.21,2.26a40.21,40.21,0,0,1-2.88,18,68.34,68.34,0,0,1,6.23,4.1l-2.45,3.53a60.33,60.33,0,0,0-5.59-4,34.09,34.09,0,0,1-7.61,8.84l-3-3.05a30,30,0,0,0,7.27-7.93c-2.25-1.47-4.76-3-7.54-4.56a121.61,121.61,0,0,0,2.23-12l-4.48.43-.37-3.89,5.32-.51c.23-2.48.41-5,.59-7.54Zm4.61,10.63-5.65.54a80.41,80.41,0,0,1-2,10.76c1.78,1,3.48,1.91,5,2.78A34.17,34.17,0,0,0,601.07,357.74Zm24,23.65-3.86.37-.24-2.55-7.33.7.24,2.56-3.89.37-3.2-33.38L621.91,348Zm-4.47-6-2.22-23.12-7.33.71,2.22,23.12Z"/><path class="c" d="M640,344.38a51.08,51.08,0,0,1-3,9.19l2.32,28.56-3.9.31-1.82-22.39c-1.05,1.61-2.14,3.22-3.33,4.75l-1.64-4.17A46.76,46.76,0,0,0,636.26,343Zm26.37-1.16.31,3.85-3,.24,2.27,28c.24,2.94-1.11,4.53-4,4.76l-7.09.57-1.2-3.83c2.32,0,4.51-.11,6.61-.28a1.53,1.53,0,0,0,1.53-1.9l-2.19-27-19,1.54-.32-3.86ZM655.8,353.4l1.32,16.27-14,1.13-1.32-16.27Zm-3.56,3.92-6.33.51.73,9.06,6.33-.52Z"/><path class="c" d="M680.75,350.19l.21,3.15a54,54,0,0,1-3.37,6.34l3.91-.27.17,2.65a47.55,47.55,0,0,1-1.51,8.2,9.35,9.35,0,0,1,1.18.76,13.48,13.48,0,0,0,4.21,2.42,16.61,16.61,0,0,0,5.6.42c2.39-.11,5.13-.25,8.19-.46s6.88-.59,11.65-1.07l-.63,3.83-10.28.69c-3.11.21-6.05.32-8.87.43a21.91,21.91,0,0,1-6.87-.56,15,15,0,0,1-5.21-2.85,1.33,1.33,0,0,0-1-.36c-.67.05-1.6,1.92-2.75,5.62l-3.07-2.45c1.32-3.54,2.7-5.7,4.12-6.55A39.76,39.76,0,0,0,678,363l-4.65.31-.21-3a55.62,55.62,0,0,0,3.63-6.23l-5.33.36-.24-3.61Zm-.35-4.07L678,348.86a40.8,40.8,0,0,0-6.57-5.55l2.43-2.65A43.84,43.84,0,0,1,680.4,346.12ZM687.24,357l8.39-.56,1,14.32-8.48.56-.88-13.13a41.75,41.75,0,0,1-2.65,13.37l-2.76-2.22c1.72-4.5,2.36-10.15,1.94-17l-.71-10.62,11-.74.83,12.39-7.6.5C687.27,354.9,687.25,356,687.24,357Zm-.56-12.1.38,5.67,4.2-.29-.38-5.66Zm6.13,14.73-2.44.16.56,8.31,2.43-.16Zm11-17.48,4.79-.32.23,3.4-13.06.87-.23-3.4,4.88-.32c-.46-1.07-.94-2-1.42-2.94l3.48-.83C702.94,339.64,703.4,340.79,703.82,342.11Zm-7.48,14.25-.22-3.41,7.18-.48a37.81,37.81,0,0,0,1.35-6.2l3.26.2a29.9,29.9,0,0,1-1.42,5.79l3-.2.23,3.4-4.92.33.26,3.82,4.16-.28.22,3.4-4.15.28.52,7.81-3.57.23-.52-7.8-4.32.29-.23-3.4,4.32-.29-.25-3.82Zm5.79-5-2.62,1.32A34.31,34.31,0,0,0,697,348l2.73-1.36A34.87,34.87,0,0,1,702.13,351.37Z"/><path class="c" d="M716,352.71l-2.68-2.94a39.75,39.75,0,0,0,12.06-12.85l4.08.67c-.54,1-1.13,1.87-1.71,2.79l14-.73.16,3a42.67,42.67,0,0,1-4.2,5.11l9.63-.5.7,13.48-9.5.5.4,7.65c.07,1.26.61,1.86,1.66,1.81l6.39-.33a1.35,1.35,0,0,0,1.21-.87c.31-.61.43-2.34.36-5.24l3.85,1c-.12,4.22-.49,6.72-1.21,7.6a4.31,4.31,0,0,1-3.26,1.31l-8.36.44c-2.9.15-4.41-1.41-4.58-4.69l-.45-8.49-1.47.08a16.14,16.14,0,0,1-.77,2.19c-1.93,4.9-6.89,9.21-15,12.83l-2.68-3c7.08-3.07,11.62-6.63,13.68-10.66.15-.43.34-.82.49-1.16l-10,.52-.6-11.3C717.52,351.57,716.75,352.16,716,352.71Zm20.8-9.18-11.76.61a51.74,51.74,0,0,1-4.15,4.52l11.85-.62A50.5,50.5,0,0,0,736.77,343.53Zm-6.39,8.34-8.19.43.32,6.05,7.35-.38A37.29,37.29,0,0,0,730.38,351.87Zm13.33-.7-9.33.49a37.6,37.6,0,0,1-.4,6.09l10-.53Z"/><path class="c" d="M757.89,361.92l-2.64-3.19a48.64,48.64,0,0,0,11.08-14.22l-10.08.38L756.1,341l12-.45a45.75,45.75,0,0,0,1.89-5.84l4.13.31c-.47,1.83-1,3.62-1.61,5.36l20.6-.77.15,3.91-22.37.84a49.61,49.61,0,0,1-5.38,9.21l.78,20.64-4,.15-.6-16.19C760.5,359.46,759.24,360.69,757.89,361.92ZM778,354.05l-.27-7.4,4.07-.15.28,7.4,9.71-.36.15,3.86-9.71.37.38,10.34,11.56-.43.15,3.9-26.4,1-.15-3.91,10.76-.4-.38-10.34-9.21.34-.14-3.86Z"/><path class="c" d="M812.71,335.08l.19,8.79A20.45,20.45,0,0,0,820,333.49l3.85.67c-.28.89-.59,1.78-.91,2.63l9.93-.22.06,2.9a26.67,26.67,0,0,1-5.52,9,30.86,30.86,0,0,0,9.48,4.59l-2.15,3.33a30.51,30.51,0,0,1-10.18-5.29,43.18,43.18,0,0,1-9.76,5.9l-2.51-3.15a43.09,43.09,0,0,0,9.48-5.38,28,28,0,0,1-3.34-4.43,36.24,36.24,0,0,1-3.18,3l-2.29-2.85.11,5-4,.08.13,5.85,3.91-.08.09,3.78-3.91.09.14,6.56c1.67-.58,3.3-1.17,4.8-1.75l.09,4A140.56,140.56,0,0,1,799,372.63l-1.18-3.84,2-.47-.33-14.76,3.53-.08.31,13.88,2.34-.68-.38-17.29-5.89.13-.31-14.14ZM809,338.87l-6,.13.15,6.73,6-.13ZM833.47,372l-3.82.08,0-1.6-9.21.21,0,1.59-3.78.09-.36-16,16.83-.37Zm-3.94-5.14-.16-7.19-9.21.2.16,7.2Zm-5-20.84a24.19,24.19,0,0,0,4.17-5.82l-7.53.17c-.17.25-.33.47-.49.68A26.4,26.4,0,0,0,824.48,346Z"/><path class="c" d="M854.42,334.56l.07,11.19a29.14,29.14,0,0,0,6.14-12.83l3.84.4c-.37,1.56-.83,3-1.32,4.47l13.37-.08c-.1,10.93-.27,17.29-.47,19.06a6.47,6.47,0,0,1-1.36,3.66c-.71.64-2.31,1-4.75,1h-1.09l-1-3-6.35,0,0,6.82c0,1.3.56,2,1.7,2l8.87-.06a2.39,2.39,0,0,0,2.1-1.06,19.33,19.33,0,0,0,.73-4.51l3.5,1.07a28,28,0,0,1-1,5.35c-.62,1.69-2,2.58-4.19,2.68l-11.53.07c-2.61,0-3.88-1.36-3.89-4.06l-.12-19.31c-.59.68-1.13,1.36-1.71,2l-1.57-2v1.1l-3.74,0,0,6,4.41,0,0,3.53-4.42,0,0,6.9c1.51-.51,3-1,4.45-1.54l0,3.83A120,120,0,0,1,841,371.58l-1.11-3.69c.54-.13,1-.26,1.55-.35l-.09-14.81,3.45,0,.09,14c.79-.22,1.55-.43,2.31-.61l-.11-17.5-5.68,0-.09-14Zm-3.68,3.56-5.77,0,0,6.9,5.76,0ZM871,357.77a1.15,1.15,0,0,0,1.17-.85,18.56,18.56,0,0,0,.28-2.78c0-1.31,0-5.56,0-12.71l-10.94.07a41.46,41.46,0,0,1-2.75,4.56l10.31-.06.07,11.73C869.79,357.73,870.42,357.77,871,357.77Zm-5.49-2.83,0-5.39-4,0,0,5.38Z"/><path class="c" d="M895.73,367.5l-3.78,0,0-2.65-4.88-.05,0,3.66-3.83,0,.33-32.52,12.49.13ZM892,361.1l.09-9.08-4.88,0-.09,9.09Zm.13-12.7.09-8.83-4.88-.05-.09,8.83Zm19-14.91,0,3.95,7.41.08,0,3.66-7.41-.08,0,4,9.64.1,0,3.7-23.14-.24,0-3.7,9.63.1,0-4-7.57-.07,0-3.66,7.57.07,0-3.95Zm.52,19.61,0-2.94,3.87,0,0,2.95,4.62.05,0,3.74-4.63-.05-.1,10.23c0,3.11-1.4,4.69-4,4.67l-5.09,0-.8-3.8a41.22,41.22,0,0,0,4.58.34c1,0,1.48-.74,1.49-2.17l.1-9.26-13.25-.13,0-3.74Zm-4.83,11.1-3.18,2.2a53.34,53.34,0,0,0-4.81-6.66l3.13-1.9A57.76,57.76,0,0,1,906.83,364.2Z"/><path class="c" d="M934.2,342.25a20.52,20.52,0,0,0,4.48-3.67l-10.89-.29.09-3.45,15.43.42-.07,2.9a19.78,19.78,0,0,1-6.72,6.93l4.88.13-.29,10.56-9.37-.26-.74,3.77,10.26.28c-.13,5.09-.44,8.49-.9,10.16s-2.64,2.54-6.3,2.6c-1.52,0-3-.16-4.5-.29l-.87-3.51c1.51.12,3,.25,4.62.29,2.1.06,3.33-.29,3.69-1a19.88,19.88,0,0,0,.56-5l-10.47-.28L928.8,352l8.92.25.1-3.71-8.08-.22q-1.53.54-3.18,1l-2.35-3.22c1.52-.42,3-.84,4.28-1.31.89-.31,1.75-.67,2.51-1a50,50,0,0,0-4.16-3.11l3-1.77A47.42,47.42,0,0,1,934.2,342.25Zm22.9-6.32a20.81,20.81,0,0,1-3.06,2.73,19,19,0,0,1-2,1.21,16,16,0,0,0,1.89,1.44,21.47,21.47,0,0,0,2.52-1.4,15.24,15.24,0,0,0,2.85-2.62l2.77,1.8a18.5,18.5,0,0,1-3.28,3.11c-.51.37-1.07.73-1.67,1.09a44.93,44.93,0,0,0,6.19,2.86l-2.73,3.09c-1.33-.59-2.58-1.17-3.74-1.79l-.08,3c0,.75.47,1.15,1.56,1.18l2.15.05-.09,3.24-3.19-.08c-2.61-.08-3.88-1.33-3.82-3.69l.06-2.18-5.17-.14a8.21,8.21,0,0,1-.94,3.67,9.33,9.33,0,0,1-3.16,3L941.48,353a9.5,9.5,0,0,0,2.78-3,15,15,0,0,0,.67-4.57l8.87.24a27.44,27.44,0,0,1-9.55-9.35l3.21-1.68a17.45,17.45,0,0,0,2.19,2.93,14.41,14.41,0,0,0,2.09-1.17,15.14,15.14,0,0,0,2.63-2.28Zm1.45,20.78-.09,3.37a17.84,17.84,0,0,1-3.7,6c2.49,1.5,4.68,2.95,6.66,4.39l-2.81,2.7a58.66,58.66,0,0,0-6.52-4.68,29.2,29.2,0,0,1-8.66,4.18l-1.37-3.53a25.42,25.42,0,0,0,6.51-2.81c-1.66-1-3.44-2-5.31-3l2.46-2.25c2,1,3.86,2,5.69,3a17,17,0,0,0,3.05-4l-11.06-.3.1-3.54Z"/><path class="c" d="M968.84,355.42,966.38,352q6-5.73,8.42-15.79l4,.9c-.5,1.91-1.05,3.7-1.63,5.35l7.82.36.32-7.06,4,.18L989,343l13.49.6-.17,3.87-13.49-.61-.39,8.7,12.64.57-.17,3.87-12.65-.57-.43,9.58,16.18.73-.18,3.95L966.58,372l.18-3.95,17.1.77.43-9.58-12-.54.18-3.87,12,.54.4-8.7-9.25-.41A30.26,30.26,0,0,1,968.84,355.42Z"/><path class="c" d="M1047.89,341.27l-.25,3.87-5.29-.34-1.76,27.76c-.19,3-1.76,4.44-4.61,4.26l-7.06-.45-.68-3.92c2.3.27,4.48.49,6.58.63,1.14.07,1.76-.53,1.84-1.78l1.7-26.75-28.42-1.81.24-3.87Zm-17.66,24.47L1017,364.9l-.22,3.44-3.82-.24,1.25-19.61,17,1.09Zm-3.55-3.85.57-9-9.45-.6-.57,9Z"/><path class="c" d="M1056.09,348.08a54.39,54.39,0,0,1-2.46,11.74l-3.16-1.15a50,50,0,0,0,2.53-11.06Zm5.81-7.92-3.22,38.5-3.81-.32,3.22-38.5Zm4.43,17.26-3,.51a74.93,74.93,0,0,0-1.81-9.7l2.84-.64A83.82,83.82,0,0,1,1066.33,357.42Zm19.61,23.48-3.86-.33.18-2.05-12.5-1-.17,2-3.81-.31,2.7-32.38,5.83.49a29.12,29.12,0,0,0,2.33-6.14l4,.89a29.43,29.43,0,0,1-2.45,5.58l10.44.87Zm-3.38-6.07.83-9.9-12.49-1-.83,9.89Zm1.13-13.42.8-9.6L1072,350.76l-.81,9.6Z"/><path class="c" d="M1106.68,380.53l-3.81-.4.23-2.17-6.61-.7-.35,3.39-3.81-.39,3.17-30.34,4,.42a38.15,38.15,0,0,0,2.4-6.81l3.92,1a34.85,34.85,0,0,1-2.51,6.25l6.44.67Zm-3.19-6.25.86-8.25-6.61-.69-.86,8.24Zm1.23-11.8.81-7.7-6.61-.69-.81,7.69Zm23.17,17.86c-.73,3-2.9,4.26-6.45,3.89-.84-.08-2.34-.33-4.42-.67l-.58-3.74c1.83.28,3.42.53,4.75.67a2.71,2.71,0,0,0,3.17-2.34c.47-2.06,1.33-9.08,2.66-21l-10.5-1.1a38.69,38.69,0,0,1-4.82,6.48l-2.06-3.39a37,37,0,0,0,7.23-14.09l3.88.92a50.84,50.84,0,0,1-2.36,6.39l12.92,1.35Q1129,375.37,1127.89,380.34Zm-6.26-8.44-3.37,1.89a79.46,79.46,0,0,0-5.48-9.88l3.43-1.67A71,71,0,0,1,1121.63,371.9Z"/><path class="c" d="M1153.59,357.05l.27-2.09-16-2,.43-3.38,16,2,.27-2.17,3.92.5-.27,2.17,16,2-.42,3.38-16-2-.26,2.09,12.35,1.57-1.09,8.59-12.35-1.57-.27,2.09,12.94,1.64-.7,5.47,4.22.53-.41,3.22-4.21-.54-.7,5.47-12.93-1.64-.28,2.13q-.48,3.87-4.62,3.35l-5.13-.65-.36-3.86a43.7,43.7,0,0,0,4.6.88c1,.13,1.6-.26,1.71-1.14l.15-1.21-13.39-1.7.4-3.17,13.39,1.7.3-2.3L1134,374.24l.41-3.22,17.15,2.18.3-2.38-13.35-1.69.39-3.09,13.36,1.69.26-2.08-12.35-1.57,1.09-8.6Zm-.37,2.92-8.43-1.07-.34,2.71,8.43,1.07Zm1.84,16.94-.29,2.3,9.14,1.16.29-2.3Zm.41-3.21,9.14,1.16.3-2.38-9.14-1.16Zm10.11-12.16-8.44-1.07-.34,2.71,8.43,1.07Z"/><path class="c" d="M1188.27,388.35l-3.82-.58.29-1.91-4.5-.68-.42,2.79-3.91-.59,4.73-31.32,12.23,1.84Zm-3-6.32,3.15-20.88-4.49-.67-3.15,20.88Zm27.12-2.67-15.8-2.38-1.5,9.94c-.28,1.83.28,2.89,1.74,3.11l9.61,1.45a1.94,1.94,0,0,0,2-1,26.73,26.73,0,0,0,1.48-5.31l3.52,1.77a34.32,34.32,0,0,1-1.88,6,4,4,0,0,1-4.42,2.52l-12.48-1.88c-2.91-.44-4.11-2.36-3.6-5.73l4.65-30.91,19.64,3ZM1199,361.17l-1.83,12.15,4.08.61,1.83-12.15Zm10.15,13.95L1211,363l-4.24-.64-1.83,12.14Z"/><path class="c" d="M1238.09,391.79a2.76,2.76,0,0,1,.5,2.27,2.91,2.91,0,0,1-1.25,2,3.3,3.3,0,0,1-2.34.44,2.91,2.91,0,0,1-2-1.24,2.82,2.82,0,0,1-.54-2.27,2.72,2.72,0,0,1,1.29-2,2.9,2.9,0,0,1,2.26-.45A3,3,0,0,1,1238.09,391.79Zm4.73-24.41-4.69,21.05-3.27-.58,2.78-21.38Z"/><path d="M460.93,210.42c-2.11-7.93-14.13-10.8-19.58-4.66l.42.36a13.08,13.08,0,0,0,.47,25.61c8,1.5,15.83-5.07,18.24-12.84A15.48,15.48,0,0,0,460.93,210.42Zm-6.22,7.77c-1.42,4.57-6,8.43-10.73,7.55a7.69,7.69,0,0,1-.28-15.06l-.25-.21c3.21-3.61,10.28-1.93,11.52,2.74A9.18,9.18,0,0,1,454.71,218.19Z"/><path d="M462.37,210c-3-9.08-15.27-12.12-22.08-5.32a1.51,1.51,0,0,0,0,2.12l.42.36.66-2.5c-13,3.74-15.34,21.73-2.49,27.53,13.39,6.06,25.83-9.81,23.49-22.19-.35-1.9-3.25-1.09-2.89.8,1.82,9.61-7.39,22.53-18.17,19.13-11.37-3.59-10-19.24.86-22.38a1.51,1.51,0,0,0,.66-2.51l-.42-.36v2.12c5.15-5.14,14.77-3,17.07,4C460.08,212.64,463,211.86,462.37,210Z"/><path d="M453.26,217.79c-1.45,4-6,8.24-10.48,5.93-5.32-2.73-4.12-10,1.32-11.59a1.51,1.51,0,0,0,.66-2.51l-.25-.21v2.12a5.33,5.33,0,0,1,5.92-1.05c3.21,1.27,3.64,4.14,2.83,7.31-.48,1.87,2.42,2.67,2.89.8,1.1-4.33.27-8.6-4-10.66a8.53,8.53,0,0,0-9.74,1.48,1.51,1.51,0,0,0,0,2.12l.25.21.66-2.5c-7.1,2.13-9.59,11.12-3.62,16,6.31,5.21,14.14-.21,16.47-6.7C456.81,216.77,453.91,216,453.26,217.79Z"/><path d="M447.63,420.48c-2.11-7.94-14.13-10.8-19.58-4.66l.42.36a13.07,13.07,0,0,0,.47,25.6c8,1.51,15.83-5.06,18.24-12.84A15.44,15.44,0,0,0,447.63,420.48Zm-6.23,7.77c-1.41,4.57-6,8.43-10.72,7.55a7.69,7.69,0,0,1-.28-15.06l-.25-.21c3.21-3.61,10.28-1.93,11.52,2.74A9.1,9.1,0,0,1,441.4,428.25Z"/><path d="M449.07,420.08c-3-9.08-15.27-12.12-22.08-5.32a1.5,1.5,0,0,0,0,2.12l.42.36.66-2.51c-13,3.74-15.34,21.73-2.49,27.54,13.39,6.05,25.83-9.81,23.49-22.19-.36-1.9-3.25-1.09-2.89.8C448,430.49,438.79,443.41,428,440c-11.37-3.59-10-19.24.86-22.38a1.52,1.52,0,0,0,.66-2.51l-.42-.36v2.12c5.15-5.14,14.76-3,17.07,4C446.78,422.7,449.68,421.92,449.07,420.08Z"/><path d="M440,427.85c-1.45,4-6,8.24-10.48,5.93-5.32-2.73-4.12-10,1.32-11.59a1.52,1.52,0,0,0,.66-2.51l-.25-.22v2.13a5.33,5.33,0,0,1,5.92-1c3.21,1.27,3.63,4.14,2.83,7.31-.48,1.87,2.41,2.67,2.89.8,1.1-4.33.27-8.6-4-10.66a8.53,8.53,0,0,0-9.73,1.47,1.52,1.52,0,0,0,0,2.13l.25.21.66-2.51c-7.11,2.13-9.59,11.13-3.62,16.06,6.31,5.21,14.13-.21,16.47-6.7C443.5,426.83,440.61,426,440,427.85Z"/><path d="M1277.25,224.61c2.41,7.78,10.24,14.35,18.24,12.84a13.07,13.07,0,0,0,.47-25.6l.42-.36c-5.45-6.14-17.47-3.28-19.58,4.66A15.44,15.44,0,0,0,1277.25,224.61Zm5.51-5.67c1.24-4.67,8.31-6.35,11.52-2.75l-.25.22a7.69,7.69,0,0,1-.28,15.06c-4.7.88-9.31-3-10.73-7.55A9.19,9.19,0,0,1,1282.76,218.94Z"/><path d="M1275.8,225c3.67,10.38,16.15,19.13,26.26,10.92,9.54-7.75,5.69-22.24-5.7-25.53l.66,2.51.42-.36a1.52,1.52,0,0,0,0-2.13,13.44,13.44,0,0,0-15.46-2.26c-6.74,3.29-8,10.07-6.18,16.85a1.51,1.51,0,0,0,2.9-.8c-1.49-5.6-.61-11.16,5.13-13.57a10.29,10.29,0,0,1,11.49,1.91v-2.13l-.42.37a1.51,1.51,0,0,0,.66,2.51c9.43,2.72,12.35,14.86,4,20.76s-17.93-1.69-20.81-9.85C1278.06,222.41,1275.16,223.19,1275.8,225Z"/><path d="M1284.21,219.33a5.6,5.6,0,0,1,9-2.07v-2.13l-.25.22a1.52,1.52,0,0,0,.66,2.51c6,1.8,6.58,10.67-.09,12.07-5.72,1.2-10.2-5.51-9.33-10.6.32-1.88-2.57-2.7-2.89-.79-1.33,7.79,6.31,17.74,14.81,13.7,8-3.79,6.36-14.86-1.7-17.28l.66,2.51.25-.21a1.53,1.53,0,0,0,0-2.13,8.63,8.63,0,0,0-14,3.41C1280.69,220.37,1283.59,221.15,1284.21,219.33Z"/><path d="M1290.55,434.67c2.41,7.77,10.24,14.34,18.24,12.84a13.07,13.07,0,0,0,.47-25.6l.42-.37c-5.45-6.13-17.47-3.27-19.57,4.66A15.38,15.38,0,0,0,1290.55,434.67Zm5.51-5.68c1.24-4.66,8.31-6.34,11.52-2.74l-.25.22a7.69,7.69,0,0,1-.28,15.06c-4.7.88-9.31-3-10.72-7.56A9.09,9.09,0,0,1,1296.06,429Z"/><path d="M1289.11,435.07c3.67,10.38,16.14,19.13,26.25,10.91,9.54-7.75,5.69-22.23-5.7-25.52l.66,2.51.42-.37a1.51,1.51,0,0,0,0-2.12,13.44,13.44,0,0,0-15.46-2.26c-6.74,3.28-8,10.07-6.17,16.85a1.5,1.5,0,0,0,2.89-.8c-1.49-5.61-.61-11.16,5.14-13.57a10.29,10.29,0,0,1,11.48,1.9v-2.12l-.42.37a1.51,1.51,0,0,0,.66,2.5c9.44,2.73,12.35,14.87,4,20.76s-17.94-1.68-20.82-9.84C1291.36,432.46,1288.46,433.24,1289.11,435.07Z"/><path d="M1297.51,429.39a5.6,5.6,0,0,1,9-2.08v-2.12l-.25.22a1.51,1.51,0,0,0,.66,2.5c6,1.8,6.59,10.68-.08,12.08-5.72,1.2-10.21-5.52-9.34-10.6.32-1.89-2.57-2.7-2.89-.79-1.33,7.79,6.31,17.74,14.81,13.7,8-3.79,6.36-14.86-1.7-17.28l.66,2.51.25-.22a1.51,1.51,0,0,0,0-2.12,8.63,8.63,0,0,0-14,3.41C1294,430.43,1296.89,431.21,1297.51,429.39Z"/><path d="M423.07,196.74q-2.34,99.81-10.29,199.38-2.28,28.58-5,57.1c-.19,1.92,2.82,1.91,3,0q9.57-99.37,13.54-199.17,1.13-28.65,1.79-57.31c.05-1.93-2.95-1.93-3,0Z"/><path d="M1325.08,460c-1.58-68.6-2.29-137.24-6.44-205.74-1.17-19.2-2.62-38.39-4.46-57.54-.18-1.9-3.18-1.92-3,0,6.55,68.31,8.24,137,9.68,205.55q.6,28.86,1.22,57.73c.05,1.92,3.05,1.93,3,0Z"/><path d="M1130.36,188.52l66,6.31,32.52,3.1c10.4,1,20.75,2.16,30.6,5.84,1.81.68,2.59-2.22.8-2.89-9-3.36-18.4-4.65-27.89-5.61-11.35-1.14-22.7-2.17-34.06-3.25l-68-6.5c-1.92-.18-1.91,2.82,0,3Z"/><path d="M505.34,435.31l151.55-20.79c1.91-.27,1.1-3.16-.79-2.9l-151.56,20.8c-1.9.26-1.09,3.15.8,2.89Z"/><path d="M621.26,179.81q90-6.69,180.35-4.9c1.93,0,1.93-3,0-3q-90.24-1.78-180.35,4.9c-1.92.14-1.93,3.15,0,3Z"/><path class="a" d="M1294.23,420.54q-4.87,13.51-8.81,27.35a1.37,1.37,0,0,0,0,1.14,1.27,1.27,0,0,0,.64.38l17.31,6.24,8.46-20.36a3.9,3.9,0,0,0,.44-2.25c-.24-1.08-1.31-1.73-2.28-2.25l-16.65-8.94"/><path d="M1292.79,420.15q-2.76,7.67-5.23,15.42-1.15,3.65-2.25,7.32c-.45,1.53-1.74,4-1.5,5.59.31,2.06,1.8,2.34,3.61,3,5.19,1.89,10.39,3.74,15.58,5.62a1.55,1.55,0,0,0,1.85-1.05l5.64-13.58c1.08-2.6,4-6.85,3.25-9.83-.69-2.67-4.2-3.81-6.3-4.93l-13.31-7.15c-1.71-.91-3.22,1.67-1.52,2.59l10,5.36c3.12,1.67,8.14,3.05,7.46,7.23-.49,3-2.69,6.49-3.88,9.33L1302,455.25l1.84-1.05-10.39-3.74c-1.35-.49-4.07-.89-5.19-1.87-1.65.11-1.93-.61-.82-2.14.26-.92.53-1.84.8-2.76q3.4-11.47,7.48-22.75c.65-1.82-2.25-2.6-2.89-.79Z"/><path d="M1293.85,431.78a81.61,81.61,0,0,0-5.11,15.75c-.4,1.88,2.49,2.69,2.89.8a78.33,78.33,0,0,1,4.81-15c.77-1.75-1.81-3.28-2.59-1.52Z"/><path class="a" d="M1296.45,408.09c3.46.62,6.22,3.14,8.76,5.56l15.52,14.75c1.89,1.8,3.84,3.69,4.7,6.14,1.75,5-1.47,10.2-4.53,14.49-1.27,1.78-3.05,3.78-5.19,3.36a5.79,5.79,0,0,1-3-2.27Q1299,433.95,1287,416.57Z"/><path d="M1296.06,409.54c7.23,1.88,13.4,10.22,18.67,15.23,2.75,2.62,7,5.62,8.77,9.12,2,4.07,0,9.82-3,13.07a3.51,3.51,0,0,1-3.42,2.19q-2.23,2.09-3.37-.09c-1.17-.79-2.63-3.15-3.53-4.24q-3.51-4.26-6.9-8.61c-5.21-6.65-10.22-13.47-15.06-20.4l-.23,1.82,9.5-8.48c1.44-1.29-.69-3.4-2.13-2.12l-9.49,8.48a1.5,1.5,0,0,0-.24,1.81q10.11,14.49,21.26,28.2c2.14,2.61,4.88,7.73,8.59,8.34,3.26.54,5.5-2.4,7.15-4.73,2.35-3.33,4.78-7.36,4.77-11.58s-2.72-7.36-5.64-10.21c-4.65-4.52-9.4-8.94-14.11-13.41-3.28-3.11-6.34-6.12-10.83-7.29A1.5,1.5,0,0,0,1296.06,409.54Z"/><path d="M1301.58,430.5l14.35,14c1.38,1.35,3.51-.77,2.12-2.12l-14.34-14c-1.39-1.35-3.51.77-2.13,2.12Z"/><path class="a" d="M1279.07,422.22a283,283,0,0,1,43.49-6.87l7,13.81c.43.86.85,1.92.32,2.72a2.76,2.76,0,0,1-2,.9l-46.28,6.77-2.47-17.33"/><path d="M1279.47,423.67q12-2.87,24.3-4.7,6.84-1,13.72-1.7c1.81-.17,3.09-.61,4.65.56,1.28,1,2.29,4.56,3,6s3.75,5.78,2.25,7.46c-.43.48-5.11.75-5.79.85l-13.49,2-27,4,1.84,1-2.47-17.33c-.27-1.9-3.16-1.09-2.89.8L1280.1,440c.12.87,1.13,1.15,1.84,1.05l41.46-6.07c2.84-.42,8.42-.14,8.13-4.39-.13-1.9-1.64-4-2.46-5.59l-5.21-10.36a1.48,1.48,0,0,0-1.3-.74,281.94,281.94,0,0,0-43.89,6.93c-1.87.44-1.08,3.33.8,2.89Z"/><path d="M1288.26,435.07q16.83-4.29,33.92-7.47l-.8-2.89-.37.08c-1.88.43-1.08,3.33.8,2.89l.37-.08c1.89-.44,1.07-3.24-.8-2.89q-17.09,3.18-33.92,7.47c-1.87.48-1.08,3.37.8,2.89Z"/><path d="M1332.1,427.64l-6.95-13.8a2.93,2.93,0,0,0-2.59-1.49c-3.19.24-6.38.53-9.56.9-1,.11-2.52.72-3.46.38s-2.6-2.49-3.31-3.14c-2.45-2.21-7.28-6.56-10.93-5.14-1.85.71-3.57,2.94-5,4.22l-5.45,4.87a3,3,0,0,0-.47,3.64c.79,1.14,1.59,2.27,2.39,3.4l1.8-4.4q-5.16,1-10.28,2.25c-1.72.41-2.32,2.13-2.1,3.69q1.23,8.67,2.47,17.33c.25,1.73,2.26,2.3,3.69,2.09l6.66-1-3.69-3.69c-1.13,3.65-5.11,10.68-1.37,13.84,2,1.65,5.92,2.33,8.28,3.18l10.39,3.74c1.65.6,3.1-.69,3.69-2.09l4.62-11.15-5,1.32c4.38,5.36,9.76,12.87,16.29,5.6,5-5.58,8.51-13.33,5.22-20.52l-1.8,4.41c4.61-.67,8.88-2.2,6.78-7.75-1.35-3.58-7.15-2-5.79,1.6.66-.11.54-.1-.34,0l-2.24.32c-2.1.31-2.5,2.87-1.79,4.41,1.77,3.88-.82,9.18-3.47,12.13-2.06,2.29-2.79,2.5-4.55.44-1.39-1.62-2.72-3.27-4.07-4.92-1.6-1.95-4.25-.51-5,1.33l-4.63,11.14,3.69-2.09-13-4.68-2.6-.94c-.47,2.17-.4,2.07.23-.32.83-2.45,1.48-5,2.24-7.45s-1.57-4-3.69-3.69l-6.65,1,3.69,2.09q-1.25-8.65-2.47-17.33l-2.1,3.7q5.13-1.22,10.28-2.26a3,3,0,0,0,1.79-4.4c-.8-1.14-1.6-2.27-2.39-3.41l-.47,3.64,9.5-8.48-2.92.77a16.15,16.15,0,0,1,6.88,4.28c1.3,1.21,3.08,3.66,4.82,4.28,2,.69,4.51-.17,6.54-.39,2.88-.32,5.77-.58,8.66-.8l-2.59-1.48,7,13.8C1328.65,434.12,1333.83,431.09,1332.1,427.64Z"/><path class="a" d="M1304.4,213.05q-13.29-5.43-27-9.92a1.3,1.3,0,0,0-1.14,0,1.33,1.33,0,0,0-.41.62l-6.93,17,20,9.28a3.85,3.85,0,0,0,2.22.53c1.09-.19,1.78-1.24,2.34-2.19l9.61-16.27"/><path d="M1304.8,211.6q-7.54-3.06-15.19-5.85-3.6-1.31-7.23-2.54c-1.5-.51-3.91-1.92-5.53-1.72-2,.27-2.38,1.79-3.1,3.55l-6.24,15.34a1.5,1.5,0,0,0,.69,1.7l13.33,6.18c2.59,1.2,6.79,4.31,9.85,3.8,2.54-.42,3.74-3.42,4.88-5.34l8.17-13.83a1.5,1.5,0,0,0-2.59-1.52l-5.29,8.95c-2.13,3.61-3.35,8.66-8.5,7.67-2.7-.51-5.83-2.7-8.34-3.86l-10-4.64.69,1.69,4.16-10.23c.53-1.29,1.06-4.08,2.09-5.11q0-2.39,2.21-.66l2.72.92q11.34,3.87,22.43,8.39c1.78.73,2.56-2.17.79-2.89Z"/><path d="M1293.14,212.18a81.36,81.36,0,0,0-15.53-5.74c-1.88-.48-2.67,2.42-.8,2.9a76.64,76.64,0,0,1,14.81,5.43c1.73.85,3.25-1.74,1.52-2.59Z"/><path class="a" d="M1316.76,215.77c-.76,3.43-3.4,6.08-5.92,8.53l-15.37,14.9c-1.86,1.82-3.83,3.69-6.32,4.45-5,1.55-10.13-1.88-14.29-5.11-1.73-1.35-3.66-3.2-3.15-5.33a5.82,5.82,0,0,1,2.39-2.93q16.71-13,34.58-24.34Z"/><path d="M1315.31,215.38c-2.18,7.15-10.79,13-16,18-2.9,2.81-6.54,7.59-10.55,8.8-4.27,1.3-8.58-1.54-11.86-4a3.34,3.34,0,0,1-2.37-3.82c-1-1.92-.38-3.24,1.8-3.94,1.44-1.13,2.92-2.24,4.39-3.34q4.41-3.31,8.9-6.51,9.73-6.94,19.82-13.37l-1.81-.23,8.08,9.84c1.22,1.49,3.34-.65,2.12-2.13l-8.08-9.83a1.51,1.51,0,0,0-1.82-.24q-15.5,9.92-30.19,21c-2.4,1.81-6.86,4.09-7.49,7.38s2.22,5.57,4.5,7.31c3.24,2.48,7.15,5.07,11.39,5.2s7.44-2.45,10.4-5.26c4.71-4.45,9.32-9,14-13.55,3.25-3.16,6.34-6.1,7.69-10.54C1318.77,214.32,1315.87,213.53,1315.31,215.38Z"/><path d="M1294.11,220l-14.58,13.77c-1.4,1.32.72,3.44,2.12,2.12l14.58-13.77c1.41-1.33-.71-3.45-2.12-2.12Z"/><path class="a" d="M1303.34,197.83a280.9,280.9,0,0,1,5.1,43.74l-14.08,6.37c-.87.4-1.95.78-2.73.21a2.78,2.78,0,0,1-.82-2l-4.88-46.51,17.41-1.77"/><path d="M1301.9,198.23c1.66,8.56,3,17.19,3.84,25.87.37,3.55.67,7.1.88,10.65.14,2.26.83,4.53-.7,6.32-.94,1.1-4,1.82-5.28,2.39-1.09.5-4.08,2.36-5.28,2.39-4.23.1-3.48-3.91-3.76-6.53l-1.32-12.59-2.85-27.13-1.5,1.5,17.41-1.77c1.91-.19,1.93-3.19,0-3l-17.41,1.77c-.74.07-1.59.63-1.5,1.5l4.48,42.63c.29,2.8-.08,7.85,4,7.68,1.9-.08,4-1.51,5.68-2.27l10.56-4.78a1.46,1.46,0,0,0,.74-1.29,281.09,281.09,0,0,0-5.15-44.14c-.37-1.89-3.26-1.09-2.89.8Z"/><path d="M1290.15,206.54q3.6,17,6.08,34.2l2.9-.8-.07-.37c-.36-1.89-3.25-1.09-2.9.8l.07.37c.36,1.92,3.17,1.07,2.9-.8q-2.49-17.19-6.09-34.19c-.4-1.89-3.29-1.09-2.89.79Z"/><path d="M1295.88,250.53l14.07-6.37a3,3,0,0,0,1.49-2.6c-.11-3.19-.27-6.39-.51-9.58-.27-3.76.57-4,3.12-6.62,2.33-2.38,6.82-7,5.45-10.74-.68-1.85-2.84-3.67-4.06-5.15l-4.64-5.65a3,3,0,0,0-3.64-.47l-3.5,2.26,4.41,1.79c-.56-3.47-1.16-6.92-1.83-10.37a3,3,0,0,0-2.9-2.2l-17.41,1.77c-1.48.15-3.18,1.25-3,3q.36,3.35.7,6.69l3.8-2.9c-3.65-1.28-10.46-5.54-13.72-1.79-1.69,2-2.53,5.8-3.48,8.16L1266.06,220a3,3,0,0,0,1.38,3.39l11,5.08v-5.18c-4.9,3.69-13.64,8.72-7.65,15.54,4.77,5.45,13.41,10.11,20.55,7.18l-3.79-2.89c.5,4.83,1.58,9.75,7.66,7.74,3.65-1.21,2.08-7-1.6-5.79a3.25,3.25,0,0,0-.06-2c-.18-1.7-1.81-3.71-3.8-2.89-4.28,1.75-7.88-.29-11.39-2.82a27.84,27.84,0,0,1-2.37-1.84q-1.85-2.13.2-3.06c1-1.55,3.8-2.93,5.28-4s2.27-4.13,0-5.18l-11-5.08,1.38,3.39,5.2-12.78,1-2.56q-3.1-.59.4.4c2.36,1,4.92,1.69,7.35,2.54a3,3,0,0,0,3.79-2.89q-.35-3.34-.7-6.69l-3,3,17.41-1.77-2.89-2.2q1,5.16,1.83,10.36c.31,1.89,2.92,2.77,4.41,1.8l3.5-2.26-3.64-.47,8.09,9.84-.77-2.92c-.84,2.74-2.62,4.69-4.61,6.66-1.27,1.27-3.78,2.94-4.44,4.68-.72,1.94,0,4.53.18,6.55.2,2.9.34,5.79.44,8.69l1.49-2.59-14.08,6.38C1289.34,246.94,1292.38,252.12,1295.88,250.53Z"/><path class="a" d="M437.69,204.25q-4.89,13.51-8.81,27.34a1.3,1.3,0,0,0,0,1.14,1.27,1.27,0,0,0,.64.38l17.31,6.24L455.32,219a3.89,3.89,0,0,0,.43-2.25c-.23-1.07-1.31-1.72-2.28-2.25l-16.65-8.93"/><path d="M436.24,203.85c-1.83,5.11-3.59,10.24-5.23,15.42q-1.15,3.66-2.24,7.33c-.46,1.52-1.75,4-1.51,5.59.32,2.05,1.81,2.33,3.62,3,5.19,1.89,10.39,3.75,15.58,5.62a1.53,1.53,0,0,0,1.84-1.05l5.64-13.57c1.08-2.61,4-6.86,3.26-9.83-.69-2.67-4.21-3.81-6.3-4.94l-13.32-7.15c-1.7-.91-3.22,1.68-1.51,2.59l10,5.36c3.11,1.68,8.13,3,7.46,7.23-.49,3-2.7,6.49-3.88,9.33L445.41,239l1.85-1-10.39-3.75c-1.36-.49-4.07-.89-5.19-1.87-1.66.11-1.93-.6-.83-2.14l.81-2.76c2.27-7.65,4.78-15.23,7.47-22.74.66-1.82-2.24-2.61-2.89-.8Z"/><path d="M437.31,215.49a80.62,80.62,0,0,0-5.11,15.74c-.41,1.89,2.48,2.69,2.89.8a77.17,77.17,0,0,1,4.81-15c.77-1.75-1.82-3.28-2.59-1.51Z"/><path class="a" d="M439.91,191.79c3.46.62,6.21,3.15,8.75,5.57l15.53,14.75c1.88,1.79,3.83,3.68,4.7,6.13,1.74,5-1.47,10.2-4.53,14.49-1.27,1.78-3.05,3.78-5.2,3.36a5.7,5.7,0,0,1-3-2.27q-13.63-16.17-25.73-33.55Z"/><path d="M439.51,193.24c7.23,1.88,13.41,10.23,18.68,15.23,2.75,2.62,7,5.62,8.76,9.12,2,4.08,0,9.83-3,13.07a3.49,3.49,0,0,1-3.41,2.19q-2.24,2.09-3.37-.09c-1.18-.78-2.64-3.15-3.53-4.24q-3.51-4.26-6.91-8.6-7.81-10-15.05-20.41l-.24,1.82,9.5-8.48c1.44-1.28-.68-3.4-2.12-2.12l-9.5,8.48a1.5,1.5,0,0,0-.23,1.82q10.11,14.47,21.26,28.19c2.13,2.62,4.87,7.73,8.58,8.35,3.26.54,5.5-2.41,7.15-4.74,2.35-3.32,4.78-7.35,4.77-11.58s-2.71-7.36-5.63-10.2c-4.65-4.53-9.41-9-14.11-13.41-3.29-3.12-6.35-6.12-10.83-7.29A1.5,1.5,0,0,0,439.51,193.24Z"/><path d="M445,214.2l14.35,14c1.38,1.35,3.5-.77,2.12-2.12l-14.35-14c-1.38-1.35-3.51.77-2.12,2.12Z"/><path class="a" d="M422.53,205.93A281.79,281.79,0,0,1,466,199.05L473,212.86c.43.86.86,1.92.32,2.72a2.76,2.76,0,0,1-2,.9L425,223.25l-2.47-17.32"/><path d="M422.93,207.37q12-2.85,24.3-4.7c4.55-.68,9.13-1.26,13.72-1.69,1.81-.18,3.09-.62,4.64.56,1.29,1,2.29,4.55,3,6s3.74,5.77,2.24,7.46c-.43.48-5.11.74-5.78.84l-13.5,2-27,3.95,1.85,1L424,205.53c-.27-1.91-3.16-1.1-2.89.79l2.47,17.33c.13.87,1.13,1.15,1.85,1l41.45-6.07c2.85-.41,8.43-.13,8.13-4.39-.13-1.89-1.64-4-2.46-5.59l-5.21-10.35a1.47,1.47,0,0,0-1.29-.75,281.94,281.94,0,0,0-43.89,6.93c-1.88.44-1.08,3.34.8,2.89Z"/><path d="M431.71,218.78q16.85-4.31,33.92-7.48l-.8-2.89-.36.08c-1.88.44-1.09,3.33.79,2.9l.37-.09c1.9-.44,1.08-3.24-.8-2.89q-17.08,3.18-33.92,7.47c-1.87.48-1.07,3.37.8,2.9Z"/><path d="M475.55,211.35q-3.46-6.91-6.94-13.81a3,3,0,0,0-2.59-1.49q-4.78.36-9.56.9c-1,.11-2.53.72-3.47.38s-2.59-2.49-3.31-3.13c-2.45-2.21-7.27-6.56-10.93-5.15-1.84.71-3.57,2.95-5,4.23l-5.46,4.87a3,3,0,0,0-.47,3.63l2.4,3.41,1.79-4.41c-3.44.7-6.86,1.44-10.28,2.25a3.08,3.08,0,0,0-2.09,3.69q1.23,8.67,2.47,17.33c.24,1.74,2.26,2.3,3.69,2.1l6.65-1-3.69-3.69c-1.12,3.65-5.1,10.68-1.37,13.84,2,1.65,5.93,2.33,8.28,3.18l10.39,3.74c1.66.6,3.11-.69,3.69-2.09q2.31-5.58,4.63-11.15l-5,1.33c4.38,5.35,9.75,12.86,16.29,5.6,5-5.58,8.5-13.33,5.21-20.52l-1.79,4.4c4.6-.67,8.87-2.2,6.78-7.75-1.36-3.57-7.16-2-5.79,1.6.65-.11.54-.1-.34,0l-2.25.33c-2.1.3-2.49,2.86-1.79,4.4,1.78,3.89-.81,9.18-3.46,12.13-2.07,2.3-2.79,2.51-4.56.44-1.38-1.61-2.72-3.27-4.06-4.91-1.6-2-4.25-.52-5,1.32Q446.28,233,444,238.55l3.7-2.09-13-4.68-2.59-.93q-.72,3.26.23-.33c.83-2.45,1.48-5,2.24-7.44s-1.57-4-3.69-3.69l-6.66,1,3.69,2.09q-1.23-8.65-2.47-17.32l-2.09,3.69q5.12-1.22,10.28-2.25a3,3,0,0,0,1.79-4.41l-2.4-3.41-.47,3.64,9.5-8.48-2.92.78A16,16,0,0,1,446,199c1.31,1.21,3.09,3.67,4.83,4.28,2,.7,4.51-.17,6.53-.39,2.88-.32,5.77-.58,8.67-.8l-2.59-1.48q3.46,6.9,6.94,13.81C472.11,217.83,477.29,214.79,475.55,211.35Z"/><path class="a" d="M438,436.88q6.78-12.67,12.65-25.8a1,1,0,0,0-.44-1.6L434,400.82,422.7,419.75a3.9,3.9,0,0,0-.76,2.16c.08,1.1,1.05,1.9,1.93,2.56l15.19,11.24"/><path d="M439.32,437.64c2.54-4.8,5-9.63,7.39-14.51q1.67-3.45,3.27-6.93c.69-1.49,2.25-3.62,2.33-5.29.12-2.13-1.19-2.63-2.95-3.59-4.84-2.64-9.74-5.2-14.61-7.79a1.52,1.52,0,0,0-2.05.53l-7.53,12.63c-1.48,2.47-5,6.31-4.7,9.42.26,2.53,3.12,4,4.92,5.34L438.31,437c1.55,1.15,3.05-1.45,1.51-2.59l-9.11-6.74-3.8-2.81c-2.35-1.76-3.55-2.15-2.45-5.14s3.55-5.94,5.18-8.68l5.65-9.46-2.05.54,9.74,5.19c1,.54,4.16,1.72,4.87,2.6,1.55,1.94,0,3.86-.86,5.65q-4.85,10.43-10.27,20.56c-.9,1.71,1.69,3.22,2.6,1.52Z"/><path d="M440.13,425.63a80,80,0,0,0,7.28-14.87c.67-1.81-2.23-2.6-2.89-.8a77,77,0,0,1-7,14.16c-1,1.64,1.57,3.15,2.59,1.51Z"/><path class="a" d="M434,448.88c-3.33-1.1-5.69-4-7.87-6.76l-13.23-16.83c-1.61-2.05-3.27-4.2-3.77-6.75-1-5.17,2.92-9.88,6.56-13.69,1.52-1.58,3.56-3.3,5.63-2.58A5.8,5.8,0,0,1,424,405q11.16,18,20.63,36.9Z"/><path d="M434.79,447.59c-6.64-2.8-11.08-11-15.39-16.48-2.51-3.19-6.15-6.71-7.87-10.44-2.42-5.26.68-9.79,4.16-13.59,1.82-2,3.48-4.34,7-1.36,1.06.88,2.3,3.73,3,4.91q3,4.94,5.83,9.95,6.19,10.86,11.78,22l.54-2.05-10.62,7c-1.6,1.06-.1,3.66,1.52,2.59l10.61-7a1.54,1.54,0,0,0,.54-2.05q-8.19-16.33-17.61-32c-1.65-2.73-3.48-7.53-7-8.35s-6.3,2.5-8.33,4.8c-5.83,6.62-7.13,12.94-1.63,20.16,3.69,4.85,7.54,9.6,11.31,14.39,3.06,3.89,5.87,8.08,10.57,10.06C435,450.92,436.56,448.34,434.79,447.59Z"/><path d="M432.27,426.11l-12.18-15.93c-1.16-1.51-3.77,0-2.59,1.52l12.18,15.92c1.16,1.52,3.76,0,2.59-1.51Z"/><path class="a" d="M453.26,437.4a282.52,282.52,0,0,1-44,.54l-4.89-14.66c-.3-.91-.57-2,.07-2.74a2.79,2.79,0,0,1,2.12-.6l46.77,0-.05,17.5"/><path d="M453.26,435.9a278.88,278.88,0,0,1-44,.54l1.44,1.1-2.44-7.33c-.51-1.54-2.84-5.82-2.44-7.33.63-2.4,4.56-1.44,6.59-1.45h8.77l32.15,0-1.5-1.5-.05,17.5a1.5,1.5,0,0,0,3,0l.05-17.5a1.52,1.52,0,0,0-1.5-1.5l-41.89,0c-2.88,0-8.3-1.13-8.83,3-.25,1.94.93,4.1,1.54,5.9l3.66,11a1.56,1.56,0,0,0,1.45,1.1,278.88,278.88,0,0,0,44-.54c1.91-.17,1.93-3.17,0-3Z"/><path d="M446.21,423.35q-17.28,1.83-34.64,2.52v3l.37,0c1.91-.16,1.93-3.16,0-3l-.37,0c-1.9.15-1.95,3.07,0,3q17.35-.69,34.64-2.52c1.9-.2,1.92-3.2,0-3Z"/><path d="M401.46,424.08q2.44,7.34,4.88,14.66a3.12,3.12,0,0,0,2.9,2.2c2.89.2,5.79.36,8.69.46,3.84.13,4.19.47,6.59,3.43,2.09,2.6,6.35,7.81,10.31,6.95,1.79-.39,3.76-2.32,5.23-3.29l6.1-4a3.08,3.08,0,0,0,1.08-4.1c-.63-1.24-1.25-2.48-1.88-3.71l-2.59,4.51c3.5-.2,7-.44,10.49-.75a3.06,3.06,0,0,0,3-3q0-8.76.05-17.5a3,3,0,0,0-3-3h-6.73l2.59,4.52c1.59-3.36,6.59-9.86,3.76-13.59-1.49-2-5.58-3.28-7.68-4.4l-9.74-5.2a3.06,3.06,0,0,0-4.11,1.08l-6.18,10.36h5.18c-3.28-5.45-7.36-14.19-14.76-8.74-6,4.4-11.18,12.26-9,19.81l2.9-3.8c-5.15,0-9.48.93-8.11,7.14.83,3.77,6.61,2.17,5.78-1.6-.95.45-.93.6.06.46h2.27a3,3,0,0,0,2.89-3.8c-1.36-4.63,1.82-8.41,4.84-11.58,3.91-4.11,6.1,2.12,7.92,5.14a3,3,0,0,0,5.18,0l6.18-10.37-4.1,1.08,11.36,6.06c.36.19,3.14,1.32,3.44,1.87.4.74-2.87,6.16-3.29,7.05a3,3,0,0,0,2.59,4.51h6.73l-3-3q0,8.75-.05,17.5l3-3c-3.49.31-7,.55-10.49.75a3,3,0,0,0-2.6,4.51c.64,1.24,1.26,2.48,1.89,3.72l1.07-4.11-10.62,7h3a16.23,16.23,0,0,1-6.31-5.11c-1.3-1.55-2.6-4.18-4.37-5.24s-4.19-.45-6-.51c-3.2-.1-6.39-.27-9.58-.49l2.89,2.21-4.89-14.67C406,418.84,400.23,420.4,401.46,424.08Z"/></svg>