<svg xmlns="http://www.w3.org/2000/svg" viewBox="0 0 1922 548.81"><defs><style>.a{fill:#fffcd9;}.b{fill:#f88334;}.c,.e{fill:#fff;}.d{fill:#f15a24;}.e{stroke:#fff;stroke-miterlimit:10;}</style></defs><title>finish</title><path class="a" d="M1437.88,248.62A1401.34,1401.34,0,0,1,1468-136.14l23-6.92a1401.41,1401.41,0,0,0-30.07,384.77Z"/><path d="M1442.38,248.62a1401,1401,0,0,1,14.19-299.87q6.59-42.07,15.73-83.7l-3.15,3.15,23-6.92-5.54-5.53a1411.51,1411.51,0,0,0-32.77,300.83q0,42.58,2.54,85.13l3.3-4.34-23,6.91c-5.54,1.66-3.18,10.35,2.39,8.68l23-6.92a4.56,4.56,0,0,0,3.31-4.33,1400.34,1400.34,0,0,1,14.18-299.87q6.59-42.09,15.73-83.7c.71-3.24-2.09-6.57-5.53-5.54l-23,6.92a4.5,4.5,0,0,0-3.14,3.14,1411.58,1411.58,0,0,0-32.77,300.83q0,42.6,2.53,85.13C1433.73,254.38,1442.73,254.41,1442.38,248.62Z"/><path d="M1436.27,223.76a100.48,100.48,0,0,0,21.09,15.69c1.69.94,3.2-1.65,1.51-2.59a97.74,97.74,0,0,1-20.48-15.22c-1.39-1.34-3.51.78-2.12,2.12Z"/><path d="M1436.42,197.53a106.91,106.91,0,0,0,18.16,16c1.58,1.11,3.08-1.49,1.51-2.59a103.42,103.42,0,0,1-17.55-15.56c-1.29-1.44-3.41.69-2.12,2.12Z"/><path d="M1435.37,179.26l20.08,16.33c1.49,1.21,3.62-.9,2.13-2.12l-20.09-16.33c-1.48-1.21-3.62.9-2.12,2.12Z"/><path d="M1437,156.2a44.53,44.53,0,0,0,17.78,16.89c1.71.9,3.23-1.69,1.52-2.59a41.43,41.43,0,0,1-16.7-15.82,1.51,1.51,0,0,0-2.6,1.52Z"/><path d="M1437,128.1a98.77,98.77,0,0,0,18.62,22.62c1.43,1.29,3.56-.83,2.12-2.12a96.28,96.28,0,0,1-18.15-22,1.5,1.5,0,0,0-2.59,1.52Z"/><path d="M1435.18,109.1a111.62,111.62,0,0,0,22.38,23.8c1.5,1.19,3.64-.92,2.13-2.12a109.38,109.38,0,0,1-21.92-23.19c-1.1-1.57-3.7-.08-2.59,1.51Z"/><path d="M1438,86.56a73.76,73.76,0,0,0,19.56,22.34c1.54,1.17,3-1.44,1.52-2.59A70,70,0,0,1,1440.58,85a1.5,1.5,0,0,0-2.59,1.52Z"/><path d="M1439.49,62.27a70.4,70.4,0,0,0,19.83,21.89c1.57,1.13,3.07-1.47,1.52-2.59a66.65,66.65,0,0,1-18.76-20.82,1.5,1.5,0,0,0-2.59,1.52Z"/><path d="M1442.72,45.14a61.1,61.1,0,0,0,16.36,16.29c1.6,1.09,3.1-1.51,1.51-2.59a57.13,57.13,0,0,1-15.28-15.21c-1.08-1.59-3.68-.09-2.59,1.51Z"/><path d="M1443.2,24.37a84.31,84.31,0,0,0,18.2,18.89c1.54,1.17,3-1.43,1.52-2.59a79.6,79.6,0,0,1-17.13-17.82c-1.1-1.56-3.7-.07-2.59,1.52Z"/><path class="a" d="M513.25,248.62a1401.73,1401.73,0,0,1,30.07-384.76l23-6.92a1401.41,1401.41,0,0,0-30.08,384.77Z"/><path d="M517.75,248.62A1401,1401,0,0,1,531.93-51.25q6.59-42.07,15.73-83.7l-3.14,3.15,23-6.92L562-144.25a1411.51,1411.51,0,0,0-32.77,300.83q0,42.58,2.53,85.13l3.31-4.34-23,6.91c-5.53,1.66-3.17,10.35,2.39,8.68l23-6.92a4.57,4.57,0,0,0,3.3-4.33A1401,1401,0,0,1,555-58.16q6.59-42.09,15.74-83.7c.7-3.24-2.1-6.57-5.54-5.54l-23,6.92a4.51,4.51,0,0,0-3.15,3.14,1412.22,1412.22,0,0,0-32.77,300.83q0,42.6,2.54,85.13C509.09,254.38,518.09,254.41,517.75,248.62Z"/><path d="M511.63,223.76a100.48,100.48,0,0,0,21.09,15.69c1.69.94,3.21-1.65,1.52-2.59a97.8,97.8,0,0,1-20.49-15.22c-1.38-1.34-3.51.78-2.12,2.12Z"/><path d="M511.79,197.53a106.46,106.46,0,0,0,18.15,16c1.59,1.11,3.09-1.49,1.52-2.59a102.66,102.66,0,0,1-17.55-15.56c-1.3-1.44-3.41.69-2.12,2.12Z"/><path d="M510.74,179.26l20.08,16.33c1.48,1.21,3.62-.9,2.12-2.12l-20.08-16.33c-1.49-1.21-3.62.9-2.12,2.12Z"/><path d="M512.36,156.2a44.46,44.46,0,0,0,17.78,16.89c1.71.9,3.22-1.69,1.51-2.59A41.49,41.49,0,0,1,515,154.68a1.5,1.5,0,0,0-2.59,1.52Z"/><path d="M512.39,128.1A98.73,98.73,0,0,0,531,150.72c1.43,1.29,3.56-.83,2.13-2.12a96.28,96.28,0,0,1-18.15-22,1.5,1.5,0,0,0-2.59,1.52Z"/><path d="M510.54,109.1a111.92,111.92,0,0,0,22.39,23.8c1.5,1.19,3.63-.92,2.12-2.12a109.38,109.38,0,0,1-21.92-23.19c-1.09-1.57-3.7-.08-2.59,1.51Z"/><path d="M513.36,86.56a73.5,73.5,0,0,0,19.56,22.34c1.53,1.17,3-1.44,1.51-2.59A69.85,69.85,0,0,1,516,85a1.5,1.5,0,0,0-2.59,1.52Z"/><path d="M514.85,62.27a70.43,70.43,0,0,0,19.84,21.89c1.56,1.13,3.06-1.47,1.51-2.59a66.78,66.78,0,0,1-18.76-20.82,1.5,1.5,0,0,0-2.59,1.52Z"/><path d="M518.09,45.14a61.06,61.06,0,0,0,16.35,16.29c1.6,1.09,3.11-1.51,1.51-2.59a57.24,57.24,0,0,1-15.27-15.21c-1.08-1.59-3.68-.09-2.59,1.51Z"/><path d="M518.56,24.37a84.36,84.36,0,0,0,18.21,18.89c1.53,1.17,3-1.43,1.51-2.59a79.6,79.6,0,0,1-17.13-17.82c-1.1-1.56-3.7-.07-2.59,1.52Z"/><path class="b" d="M183.14,319.19c5.59,5.69,2.78,17-4.83,19.4s-16.42-5.23-15.11-13.11,12.12-12.25,18.54-7.51"/><path d="M181,321.31c6.79,7.62-3.58,19.75-11.87,12.09s2.8-18.34,11.08-12.84c3.23,2.15,6.24-3.05,3-5.18-6.2-4.12-14.9-2.51-19.77,3-5.41,6.1-3.8,15,2.23,20s14.87,4.92,19.9-1.43a15.51,15.51,0,0,0-.35-19.86c-2.58-2.88-6.81,1.37-4.25,4.25Z"/><path class="c" d="M427.92,450.81c3.55,3.61,1.77,10.78-3.06,12.3s-10.41-3.32-9.58-8.31S423,447,427,450"/><path d="M425.8,452.93c3.39,3.8-1.76,10-6,6.12s1.49-9.22,5.7-6.42c3.23,2.14,6.24-3.05,3-5.18-4.34-2.89-10.45-1.76-13.87,2.06-3.85,4.3-2.84,10.62,1.41,14.23s10.59,3.56,14.18-.91a11,11,0,0,0-.23-14.15c-2.57-2.89-6.8,1.37-4.24,4.25Z"/><path class="c" d="M252.21,285.1c3.55,3.61,1.76,10.79-3.07,12.31s-10.41-3.32-9.57-8.31,7.68-7.77,11.75-4.77"/><path d="M250.09,287.23c3.38,3.8-1.77,10-6,6.11s1.49-9.21,5.71-6.42c3.22,2.15,6.23-3.05,3-5.18-4.34-2.88-10.46-1.75-13.88,2.07-3.85,4.3-2.84,10.62,1.42,14.23s10.58,3.55,14.17-.91a11,11,0,0,0-.22-14.15c-2.57-2.89-6.81,1.37-4.24,4.25Z"/><path class="b" d="M230.32,517.12c3.55,3.61,1.76,10.78-3.07,12.31s-10.41-3.33-9.58-8.32,7.69-7.77,11.76-4.76"/><path d="M228.19,519.24c3.39,3.8-1.76,10-6,6.12s1.49-9.22,5.71-6.42c3.22,2.14,6.23-3.05,3-5.18-4.34-2.89-10.45-1.75-13.87,2.07-3.85,4.29-2.84,10.61,1.42,14.22s10.58,3.56,14.17-.91a11,11,0,0,0-.22-14.15c-2.58-2.89-6.81,1.37-4.25,4.25Z"/><path class="b" d="M418,345c5.6,5.69,2.78,17-4.83,19.4s-16.41-5.23-15.1-13.11,12.11-12.25,18.54-7.51"/><path d="M415.84,347.16c6.79,7.62-3.58,19.76-11.88,12.09s2.81-18.34,11.09-12.83c3.23,2.14,6.23-3.06,3-5.19-6.21-4.12-14.9-2.5-19.78,3-5.4,6.09-3.79,15,2.24,20s14.87,4.92,19.9-1.43a15.51,15.51,0,0,0-.36-19.85c-2.57-2.89-6.8,1.36-4.24,4.24Z"/><path d="M286,413.3a261,261,0,0,0-86.37-68.6c-1.72-.85-3.25,1.74-1.51,2.59a259.13,259.13,0,0,1,85.76,68.13c1.22,1.49,3.33-.64,2.12-2.12Z"/><path d="M285,408.51a230.94,230.94,0,0,0-109.37-15.28c-3.8.4-3.84,6.4,0,6a227.18,227.18,0,0,1,107.77,15.06c3.59,1.44,5.15-4.36,1.6-5.78Z"/><path d="M288.8,415.07a200.15,200.15,0,0,0-90.6-.4c-3.77.86-2.18,6.65,1.59,5.79a192.9,192.9,0,0,1,87.42.4c3.75.89,5.35-4.9,1.59-5.79Z"/><path d="M284.07,417a560.16,560.16,0,0,0-91,34.11c-1.75.83-.22,3.42,1.51,2.59a557,557,0,0,1,90.28-33.81,1.5,1.5,0,0,0-.8-2.89Z"/><path d="M287.33,414C244.42,432.36,227.11,481.83,209,521c-.81,1.74,1.78,3.27,2.59,1.52,17.92-38.73,34.9-87.83,77.28-106,1.77-.75.25-3.34-1.51-2.59Z"/><path d="M292.8,418.88a193.4,193.4,0,0,0-39.14,108.39c-.09,1.93,2.91,1.93,3,0a190.75,190.75,0,0,1,38.73-106.88c1.17-1.53-1.44-3-2.59-1.51Z"/><path d="M291,435.92l-1.08,49.35c0,1.94,3,1.94,3,0L294,435.92c0-1.93-3-1.93-3,0Z"/><path d="M304.18,424.1a177.05,177.05,0,0,1,30.88,44.76c.84,1.74,3.43.22,2.59-1.51A179.34,179.34,0,0,0,306.3,422c-1.33-1.41-3.45.72-2.12,2.12Z"/><path d="M310.61,419.24a156.19,156.19,0,0,1,85.05,26.6c1.6,1.08,3.11-1.52,1.51-2.59a159,159,0,0,0-86.56-27,1.5,1.5,0,0,0,0,3Z"/><path d="M293.13,415.33a158.75,158.75,0,0,1,113.5-27.42c1.89.27,2.7-2.62.8-2.89a161.75,161.75,0,0,0-115.82,27.72c-1.56,1.1-.06,3.71,1.52,2.59Z"/><path d="M429.39,388.54a121.89,121.89,0,0,1,46.66,17.73c1.63,1,3.14-1.56,1.51-2.59a124.08,124.08,0,0,0-47.37-18c-1.89-.3-2.7,2.59-.8,2.9Z"/><path d="M344.71,435.13a203.61,203.61,0,0,1,66.74,53.29c1.22,1.49,3.33-.64,2.12-2.13a205.59,205.59,0,0,0-67.35-53.75c-1.72-.86-3.24,1.73-1.51,2.59Z"/><path d="M292.88,414.48c1.1-10.46,8.82-18.15,16.29-24.81,8.58-7.63,17.41-15,26.32-22.22q27.25-22.12,56.19-42c1.58-1.09.08-3.69-1.51-2.59Q359.41,344,330.45,367.7c-9.26,7.59-18.73,15.17-27.35,23.49-6.66,6.44-12.23,13.84-13.22,23.29-.2,1.92,2.81,1.91,3,0Z"/><path d="M295.84,397a410.21,410.21,0,0,1,39.64-68.71c1.13-1.57-1.48-3.07-2.59-1.51a410.12,410.12,0,0,0-39.64,68.7c-.8,1.75,1.79,3.27,2.59,1.52Z"/><path d="M288.23,400.51A194.77,194.77,0,0,1,311.12,307c.91-1.7-1.68-3.22-2.59-1.51a198,198,0,0,0-23.3,95,1.5,1.5,0,0,0,3,0Z"/><path d="M290.1,412.8a248.06,248.06,0,0,0-59.16-98.94c-1.36-1.38-3.48.74-2.13,2.13a244.6,244.6,0,0,1,58.4,97.61c.58,1.84,3.47,1,2.89-.8Z"/><path d="M214,297.08H213a1.5,1.5,0,1,0,0,3H214a1.5,1.5,0,1,0,0-3Z"/><path d="M290,508.88l-1,27.9c-.07,1.93,2.93,1.93,3,0l1-27.9c.07-1.93-2.93-1.92-3,0Z"/><path d="M178.23,434.47a138.07,138.07,0,0,0-31.47,13,1.5,1.5,0,0,0,1.51,2.59A134.92,134.92,0,0,1,179,437.36a1.5,1.5,0,0,0-.8-2.89Z"/><path d="M296.54,416.85a514.85,514.85,0,0,1-11-108.42c0-3.86-6-3.86-6,0a522.79,522.79,0,0,0,11.22,110c.79,3.77,6.57,2.18,5.78-1.6Z"/><path d="M293.36,413.64a192,192,0,0,1,115.25,3.12c3.65,1.26,5.23-4.53,1.59-5.79a197.75,197.75,0,0,0-118.44-3.12c-3.7,1.06-2.13,6.85,1.6,5.79Z"/><path d="M286.1,397.61a165.68,165.68,0,0,1,21.64,95.24c-.29,3.86,5.71,3.84,6,0a171.43,171.43,0,0,0-22.46-98.27c-1.93-3.34-7.12-.32-5.18,3Z"/><path d="M277.58,403.78a165.6,165.6,0,0,1,74.16,63.63c2.05,3.26,7.25.26,5.19-3a171.07,171.07,0,0,0-76.32-65.78c-3.5-1.53-6.56,3.64-3,5.18Z"/><path d="M295.16,404.21a196.78,196.78,0,0,1,71-31.9c3.76-.85,2.17-6.64-1.6-5.78A201,201,0,0,0,292.13,399c-3.12,2.22-.12,7.43,3,5.18Z"/><path d="M300.49,414.46a430.56,430.56,0,0,0-111.7-43.91c-3.75-.9-5.35,4.89-1.59,5.78a425.28,425.28,0,0,1,110.27,43.31c3.36,1.9,6.39-3.28,3-5.18Z"/><path d="M299.51,413.48a621.53,621.53,0,0,0-72.5-67c-3-2.36-7.28,1.85-4.25,4.24a621.69,621.69,0,0,1,72.51,67c2.62,2.85,6.86-1.41,4.24-4.24Z"/><path d="M289.5,411.08a228.81,228.81,0,0,0-49.84,76c-1.44,3.58,4.37,5.13,5.79,1.59a221.41,221.41,0,0,1,48.29-73.31c2.73-2.74-1.51-7-4.24-4.24Z"/><path d="M290.83,410.31a228.6,228.6,0,0,0-76.4,49.15c-2.78,2.7,1.47,6.94,4.24,4.24a221.34,221.34,0,0,1,73.75-47.6c3.56-1.4,2-7.2-1.59-5.79Z"/><path d="M187.92,431.48a86.35,86.35,0,0,0-48,20.19c-2.95,2.5,1.31,6.72,4.24,4.24a79.37,79.37,0,0,1,43.79-18.43c3.81-.36,3.85-6.37,0-6Z"/><path d="M215.3,297.7v-1a3,3,0,0,0-6,0v1a3,3,0,0,0,6,0Z"/><path d="M352.4,478.64l16.66,29.23c1.92,3.36,7.1.34,5.18-3l-16.66-29.23c-1.91-3.35-7.1-.33-5.18,3Z"/><path d="M352.08,318.42l25-25.7c2.7-2.77-1.54-7-4.24-4.24l-25,25.7c-2.69,2.77,1.55,7,4.25,4.24Z"/><path class="b" d="M338.08,427.58c5.6,5.69,2.78,17-4.83,19.4s-16.41-5.23-15.1-13.11,12.11-12.25,18.53-7.51"/><path d="M336,429.7c6.79,7.62-3.58,19.75-11.88,12.09s2.81-18.34,11.09-12.84c3.22,2.15,6.23-3.05,3-5.18-6.21-4.12-14.9-2.51-19.78,3-5.4,6.1-3.79,15,2.23,20s14.88,4.92,19.91-1.43a15.52,15.52,0,0,0-.36-19.86c-2.57-2.89-6.8,1.37-4.24,4.25Z"/><path class="c" d="M315.26,356.59c3.55,3.61,1.76,10.78-3.07,12.31s-10.41-3.32-9.57-8.32,7.68-7.77,11.75-4.76"/><path d="M313.14,358.71c3.38,3.8-1.77,10-6,6.12s1.5-9.22,5.71-6.42c3.22,2.14,6.23-3.05,3-5.18-4.34-2.89-10.46-1.75-13.88,2.07-3.85,4.29-2.84,10.61,1.42,14.22s10.58,3.56,14.18-.91a11,11,0,0,0-.23-14.14c-2.57-2.89-6.8,1.36-4.24,4.24Z"/><path class="c" d="M204.34,450.81c3.55,3.61,1.77,10.78-3.06,12.3s-10.41-3.32-9.58-8.31,7.69-7.77,11.76-4.76"/><path d="M202.22,452.93c3.39,3.8-1.76,10-6,6.12s1.49-9.22,5.7-6.42c3.23,2.14,6.24-3.05,3-5.18-4.34-2.89-10.45-1.76-13.87,2.06-3.85,4.3-2.84,10.62,1.42,14.23s10.58,3.56,14.17-.91a11,11,0,0,0-.22-14.15c-2.58-2.89-6.81,1.37-4.25,4.25Z"/><path class="c" d="M272.52,445.23c3.55,3.61,1.76,10.78-3.06,12.31s-10.41-3.32-9.58-8.32,7.68-7.77,11.75-4.76"/><path d="M270.4,447.35c3.38,3.8-1.76,10-6,6.12s1.49-9.22,5.7-6.42c3.22,2.14,6.23-3.05,3-5.18-4.34-2.89-10.45-1.75-13.88,2.07-3.85,4.29-2.84,10.61,1.42,14.22s10.58,3.56,14.18-.91a11,11,0,0,0-.23-14.14c-2.57-2.89-6.8,1.36-4.24,4.24Z"/><path class="c" d="M250,378.92c4.43,4.5,2.2,13.45-3.82,15.35s-13-4.14-11.95-10.37,9.59-9.69,14.67-5.94"/><path d="M247.86,381c4.85,5.44-2.54,14.16-8.51,8.68s2.06-13.13,8-9.17c3.23,2.14,6.24-3.05,3-5.18C245.25,372,238,373.29,234,377.83c-4.51,5.07-3.24,12.48,1.77,16.69s12.42,4.14,16.63-1.13a12.89,12.89,0,0,0-.28-16.59c-2.57-2.89-6.8,1.36-4.24,4.24Z"/><path d="M754.84-22c7.64,8.58-4,22.21-13.36,13.59-9.14-8.47,3.14-20.63,12.44-14.44,3.22,2.14,6.23-3.06,3-5.19-6.68-4.43-16-2.69-21.26,3.23-5.79,6.54-4,16.05,2.44,21.41s16,5.28,21.34-1.56a16.66,16.66,0,0,0-.39-21.28c-2.57-2.89-6.8,1.36-4.24,4.24Z"/><path class="c" d="M1024.17,119.58c3.87,3.94,1.92,11.77-3.35,13.44s-11.36-3.63-10.46-9.08,8.39-8.48,12.84-5.2"/><path d="M1022,121.7c3.93,4.41-2,11.54-6.91,7.07s1.69-10.67,6.55-7.44c3.23,2.15,6.24-3,3-5.18-4.64-3.08-11.16-1.87-14.81,2.22-4.1,4.58-3,11.3,1.55,15.13s11.25,3.77,15.08-1a11.67,11.67,0,0,0-.24-15c-2.58-2.89-6.81,1.37-4.25,4.24Z"/><path class="b" d="M808.46,192c3.87,3.94,1.93,11.77-3.34,13.43s-11.37-3.62-10.46-9.07,8.39-8.49,12.83-5.2"/><path d="M806.34,194.09c3.92,4.41-2.05,11.53-6.92,7.07s1.7-10.67,6.56-7.44c3.22,2.14,6.23-3.05,3-5.18-4.64-3.09-11.16-1.87-14.82,2.21-4.09,4.58-3,11.31,1.55,15.14s11.26,3.77,15.09-1a11.69,11.69,0,0,0-.25-15.06c-2.57-2.88-6.8,1.37-4.24,4.25Z"/><path class="b" d="M1013.29,4.13c6.11,6.21,3,18.56-5.27,21.18S990.1,19.6,991.54,11s13.22-13.37,20.23-8.2"/><path d="M1011.17,6.25c7.64,8.58-4,22.21-13.35,13.59-9.15-8.47,3.13-20.63,12.43-14.45,3.23,2.15,6.24-3,3-5.18-6.67-4.43-16-2.7-21.25,3.23-5.8,6.54-4,16,2.43,21.41s16,5.28,21.34-1.56A16.65,16.65,0,0,0,1015.41,2c-2.57-2.89-6.8,1.36-4.24,4.24Z"/><path d="M869.19,78.73A284.59,284.59,0,0,0,774.94,3.88c-1.73-.85-3.25,1.74-1.51,2.59a282.51,282.51,0,0,1,93.64,74.39c1.22,1.49,3.33-.64,2.12-2.13Z"/><path d="M868,73.68A251.64,251.64,0,0,0,748.72,57c-3.8.4-3.84,6.4,0,6A247.81,247.81,0,0,1,866.44,79.46c3.58,1.44,5.14-4.36,1.59-5.78Z"/><path d="M872.23,80.84a217.72,217.72,0,0,0-98.76-.43c-3.76.85-2.17,6.64,1.6,5.78a211,211,0,0,1,95.57.43c3.75.9,5.35-4.89,1.59-5.78Z"/><path d="M867.18,82.79A611.1,611.1,0,0,0,767.88,120c-1.74.83-.22,3.42,1.51,2.59A606.26,606.26,0,0,1,868,85.69a1.5,1.5,0,0,0-.79-2.9Z"/><path d="M870.77,79.5c-46.82,20-65.71,74.06-85.5,116.81-.8,1.74,1.78,3.27,2.6,1.51,19.56-42.27,38.11-95.94,84.41-115.73,1.77-.76.24-3.35-1.51-2.59Z"/><path d="M876.78,84.8a210.86,210.86,0,0,0-42.7,118.25c-.09,1.94,2.91,1.93,3,0A208.15,208.15,0,0,1,879.37,86.32c1.17-1.54-1.43-3-2.59-1.52Z"/><path d="M874.78,103.33l-1.17,53.88c0,1.93,3,1.93,3,0l1.17-53.88c0-1.93-3-1.93-3,0Z"/><path d="M889.19,90.34a192.67,192.67,0,0,1,33.73,48.88c.84,1.74,3.43.22,2.59-1.51a195.62,195.62,0,0,0-34.2-49.5c-1.33-1.4-3.45.72-2.12,2.13Z"/><path d="M896.1,85A170.36,170.36,0,0,1,989,114c1.61,1.09,3.11-1.51,1.52-2.59A173.35,173.35,0,0,0,896.1,82c-1.93,0-1.93,3,0,3Z"/><path d="M877,80.74A173.26,173.26,0,0,1,1001,50.8c1.89.27,2.7-2.62.8-2.9A176.3,176.3,0,0,0,875.44,78.15c-1.56,1.1-.06,3.71,1.52,2.59Z"/><path d="M1025.8,51.48a132.81,132.81,0,0,1,51,19.37c1.63,1,3.14-1.56,1.51-2.59a134.89,134.89,0,0,0-51.68-19.67c-1.89-.3-2.7,2.59-.8,2.89Z"/><path d="M933.4,102.36a222,222,0,0,1,72.88,58.18c1.22,1.49,3.33-.64,2.12-2.12a224.07,224.07,0,0,0-73.49-58.65c-1.72-.86-3.24,1.72-1.51,2.59Z"/><path d="M876.62,79.93c1.17-11.5,9.71-20,17.93-27.27C903.83,44.4,913.39,36.43,923,28.6q29.82-24.22,61.49-46c1.58-1.09.08-3.69-1.51-2.59Q949.53,3.1,918,28.86C907.8,37.2,897.37,45.53,887.91,54.7c-7.19,7-13.25,15-14.29,25.23-.19,1.92,2.81,1.91,3,0Z"/><path d="M879.86,60.77a448,448,0,0,1,43.28-75c1.12-1.57-1.48-3.07-2.59-1.51a448,448,0,0,0-43.28,75c-.79,1.75,1.8,3.27,2.59,1.52Z"/><path d="M871.54,64.68a212.44,212.44,0,0,1,25-102.14c.91-1.7-1.68-3.22-2.59-1.51A215.52,215.52,0,0,0,868.54,64.68a1.5,1.5,0,0,0,3,0Z"/><path d="M873.59,78.14A270.28,270.28,0,0,0,809-29.8c-1.35-1.39-3.47.74-2.12,2.12A267.05,267.05,0,0,1,870.7,78.93c.57,1.84,3.47,1.06,2.89-.79Z"/><path d="M873.7,183l-1.13,30.45c-.07,1.93,2.93,1.93,3,0L876.7,183c.07-1.93-2.93-1.93-3,0Z"/><path d="M751.64,101.88a150.31,150.31,0,0,0-34.32,14.21,1.5,1.5,0,0,0,1.51,2.59,146.24,146.24,0,0,1,33.61-13.9,1.51,1.51,0,0,0-.8-2.9Z"/><path d="M880.49,82.59a562.27,562.27,0,0,1-12-118.42c0-3.86-6-3.87-6,0a570.07,570.07,0,0,0,12.24,120c.79,3.77,6.58,2.18,5.79-1.6Z"/><path d="M877.2,78.75a209.71,209.71,0,0,1,125.95,3.4c3.66,1.27,5.23-4.53,1.6-5.78A215.36,215.36,0,0,0,875.61,73c-3.71,1.06-2.13,6.85,1.59,5.79Z"/><path d="M869.59,61.38a181,181,0,0,1,23.66,104.1c-.3,3.85,5.71,3.83,6,0A186.68,186.68,0,0,0,874.77,58.35c-1.93-3.34-7.12-.32-5.18,3Z"/><path d="M860.19,68a181,181,0,0,1,81.06,69.56c2,3.27,7.24.26,5.18-3a186.36,186.36,0,0,0-83.21-71.71c-3.5-1.52-6.56,3.65-3,5.18Z"/><path d="M879.1,68.48a214.64,214.64,0,0,1,77.61-34.84c3.77-.86,2.17-6.64-1.59-5.79a219.14,219.14,0,0,0-79,35.45c-3.11,2.23-.12,7.43,3,5.18Z"/><path d="M884.93,80.14a469.77,469.77,0,0,0-121.87-47.9c-3.75-.9-5.36,4.89-1.6,5.79A463.65,463.65,0,0,1,881.9,85.33c3.36,1.9,6.39-3.28,3-5.19Z"/><path d="M883.8,79A678.46,678.46,0,0,0,804.65,5.86c-3-2.36-7.27,1.86-4.24,4.25a677.41,677.41,0,0,1,79.14,73.16c2.63,2.85,6.86-1.4,4.25-4.24Z"/><path d="M873.26,76.41a249.24,249.24,0,0,0-54.33,82.79c-1.44,3.59,4.36,5.14,5.78,1.6A241.71,241.71,0,0,1,877.5,80.66c2.73-2.75-1.51-7-4.24-4.25Z"/><path d="M874.58,75.64a249,249,0,0,0-83.27,53.59c-2.77,2.7,1.47,6.94,4.24,4.24a241.49,241.49,0,0,1,80.63-52c3.56-1.39,2-7.19-1.6-5.79Z"/><path d="M762.18,98.76a94,94,0,0,0-52.24,22c-3,2.5,1.32,6.73,4.25,4.24a86.9,86.9,0,0,1,48-20.2c3.81-.36,3.85-6.36,0-6Z"/><path d="M942,149.83l18.19,31.91c1.91,3.35,7.1.33,5.18-3L947.14,146.8c-1.91-3.35-7.1-.33-5.18,3Z"/><path class="b" d="M926.09,94.22c6.11,6.22,3,18.56-5.27,21.19s-17.91-5.72-16.48-14.31,13.22-13.37,20.23-8.2"/><path d="M924,96.35c7.64,8.58-4,22.21-13.35,13.59-9.15-8.48,3.13-20.63,12.43-14.45,3.23,2.14,6.24-3,3-5.18-6.67-4.44-16-2.7-21.25,3.22-5.8,6.55-4,16,2.44,21.42s16,5.28,21.33-1.56a16.66,16.66,0,0,0-.38-21.29c-2.58-2.89-6.81,1.37-4.25,4.25Z"/><path class="c" d="M901.18,16.74c3.88,3.94,1.93,11.77-3.34,13.43s-11.37-3.62-10.46-9.07,8.39-8.49,12.83-5.2"/><path d="M899.06,18.86c3.93,4.4-2,11.53-6.92,7.07s1.7-10.67,6.56-7.44c3.23,2.14,6.23-3,3-5.18-4.64-3.09-11.16-1.88-14.81,2.21-4.1,4.58-3,11.31,1.54,15.14s11.26,3.77,15.09-1a11.69,11.69,0,0,0-.25-15.06c-2.57-2.89-6.8,1.37-4.24,4.25Z"/><path class="c" d="M1102.11,74.16c3.88,3.94,1.93,11.77-3.34,13.44s-11.37-3.63-10.46-9.08,8.39-8.48,12.83-5.2"/><path d="M1100,76.28c3.92,4.41-2,11.53-6.92,7.07s1.7-10.67,6.56-7.44c3.22,2.14,6.23-3,3-5.18-4.64-3.08-11.16-1.87-14.81,2.21-4.1,4.59-3,11.31,1.54,15.14s11.26,3.77,15.09-1a11.67,11.67,0,0,0-.25-15c-2.57-2.89-6.8,1.36-4.24,4.24Z"/><path class="c" d="M780.11,119.58c3.88,3.94,1.93,11.77-3.34,13.44s-11.37-3.63-10.46-9.08,8.39-8.48,12.83-5.2"/><path d="M778,121.7c3.92,4.41-2,11.54-6.92,7.07s1.7-10.67,6.56-7.44c3.22,2.15,6.23-3,3-5.18-4.64-3.08-11.16-1.87-14.82,2.22-4.09,4.58-3,11.3,1.55,15.13s11.26,3.77,15.09-1a11.67,11.67,0,0,0-.25-15c-2.57-2.89-6.8,1.37-4.24,4.24Z"/><path class="c" d="M854.53,113.49c3.87,3.94,1.92,11.78-3.35,13.44s-11.36-3.63-10.45-9.08,8.38-8.48,12.83-5.2"/><path d="M852.41,115.61c3.92,4.41-2,11.54-6.92,7.07s1.7-10.67,6.56-7.44c3.22,2.15,6.23-3,3-5.18-4.64-3.08-11.16-1.87-14.82,2.22-4.09,4.58-3,11.3,1.55,15.14s11.26,3.76,15.09-1a11.69,11.69,0,0,0-.25-15c-2.57-2.89-6.8,1.37-4.24,4.24Z"/><path class="c" d="M829.93,41.11c4.83,4.92,2.4,14.69-4.17,16.76s-14.18-4.52-13-11.32,10.46-10.58,16-6.48"/><path d="M827.81,43.23c5.52,6.2-2.9,16.11-9.68,9.87s2.31-14.94,9.08-10.44c3.22,2.14,6.23-3,3-5.18-5.51-3.67-13.24-2.23-17.57,2.64-4.83,5.43-3.44,13.34,1.93,17.83s13.27,4.41,17.77-1.23A13.83,13.83,0,0,0,832.05,39c-2.57-2.89-6.81,1.37-4.24,4.24Z"/><path class="b" d="M1575.09,270c6.11,6.21,3,18.55-5.27,21.18s-17.91-5.72-16.48-14.31,13.22-13.37,20.23-8.2"/><path d="M1573,272.07c7.64,8.58-4,22.21-13.35,13.59-9.15-8.47,3.13-20.63,12.43-14.45,3.23,2.15,6.24-3,3-5.18-6.67-4.43-16-2.7-21.25,3.22-5.8,6.55-4,16.05,2.43,21.42s16,5.28,21.34-1.56a16.66,16.66,0,0,0-.39-21.29c-2.57-2.88-6.8,1.37-4.24,4.25Z"/><path class="c" d="M1842.3,413.62c3.87,3.94,1.92,11.77-3.35,13.44s-11.36-3.63-10.45-9.08,8.39-8.48,12.83-5.2"/><path d="M1840.18,415.74c3.92,4.41-2,11.53-6.92,7.07s1.7-10.67,6.56-7.44c3.22,2.14,6.23-3.05,3-5.18-4.64-3.08-11.16-1.87-14.82,2.21-4.09,4.59-3,11.31,1.55,15.14s11.26,3.77,15.09-1a11.67,11.67,0,0,0-.25-15.05c-2.57-2.89-6.8,1.36-4.24,4.24Z"/><path class="c" d="M1650.49,232.74c3.88,3.94,1.93,11.77-3.34,13.44s-11.37-3.63-10.46-9.08,8.39-8.48,12.83-5.2"/><path d="M1648.37,234.86c3.92,4.41-2,11.54-6.92,7.07s1.7-10.67,6.56-7.44c3.22,2.15,6.23-3.05,3-5.18-4.64-3.08-11.16-1.87-14.81,2.22-4.1,4.58-3,11.3,1.54,15.13s11.26,3.77,15.09-1a11.67,11.67,0,0,0-.25-15c-2.57-2.89-6.8,1.37-4.24,4.24Z"/><path class="b" d="M1626.59,486c3.88,3.94,1.93,11.77-3.34,13.44s-11.36-3.63-10.46-9.08,8.39-8.48,12.84-5.2"/><path d="M1624.47,488.12c3.93,4.41-2,11.54-6.92,7.07s1.7-10.67,6.56-7.44c3.23,2.15,6.24-3.05,3-5.18-4.64-3.08-11.16-1.87-14.81,2.22-4.1,4.58-3,11.3,1.54,15.13s11.26,3.77,15.09-1a11.67,11.67,0,0,0-.24-15.05c-2.58-2.89-6.81,1.37-4.25,4.24Z"/><path class="b" d="M1831.43,298.17c6.11,6.21,3,18.55-5.28,21.18s-17.91-5.72-16.48-14.31,13.22-13.37,20.23-8.2"/><path d="M1829.31,300.29c7.64,8.58-4,22.21-13.36,13.59-9.15-8.47,3.14-20.63,12.44-14.45,3.22,2.14,6.23-3.05,3-5.18-6.68-4.43-16-2.7-21.26,3.22-5.79,6.55-4,16,2.44,21.42s16,5.28,21.34-1.56a16.67,16.67,0,0,0-.39-21.29c-2.58-2.89-6.81,1.37-4.24,4.25Z"/><path d="M1687.32,372.77a284.39,284.39,0,0,0-94.25-74.85c-1.72-.85-3.24,1.73-1.51,2.59a282.51,282.51,0,0,1,93.64,74.38c1.23,1.5,3.34-.64,2.12-2.12Z"/><path d="M1686.17,367.71a251.66,251.66,0,0,0-119.32-16.66c-3.8.39-3.84,6.4,0,6a247.8,247.8,0,0,1,117.72,16.45c3.59,1.44,5.15-4.37,1.6-5.79Z"/><path d="M1690.36,374.88a217.86,217.86,0,0,0-98.76-.44c-3.76.86-2.17,6.65,1.6,5.79a210.85,210.85,0,0,1,95.57.43c3.75.89,5.36-4.89,1.59-5.78Z"/><path d="M1685.31,376.83a610.86,610.86,0,0,0-99.3,37.22c-1.74.83-.22,3.42,1.52,2.59a606.53,606.53,0,0,1,98.58-36.92,1.5,1.5,0,0,0-.8-2.89Z"/><path d="M1688.9,373.53c-46.82,20-65.7,74.07-85.49,116.82-.81,1.74,1.78,3.26,2.59,1.51,19.57-42.27,38.12-95.94,84.41-115.74,1.77-.75.25-3.34-1.51-2.59Z"/><path d="M1694.92,378.84a210.84,210.84,0,0,0-42.71,118.25c-.08,1.93,2.92,1.93,3,0a208.12,208.12,0,0,1,42.3-116.74c1.16-1.53-1.44-3-2.59-1.51Z"/><path d="M1692.91,397.37l-1.17,53.88c0,1.93,3,1.93,3,0l1.17-53.88c0-1.93-3-1.93-3,0Z"/><path d="M1707.32,384.37a192.9,192.9,0,0,1,33.73,48.89c.84,1.74,3.43.22,2.59-1.51a195.45,195.45,0,0,0-34.2-49.5c-1.33-1.4-3.45.72-2.12,2.12Z"/><path d="M1714.24,379a170.39,170.39,0,0,1,92.91,29.05c1.6,1.08,3.11-1.52,1.51-2.59A173.24,173.24,0,0,0,1714.24,376c-1.93,0-1.93,3,0,3Z"/><path d="M1695.09,374.78a173.32,173.32,0,0,1,124-29.95c1.89.28,2.71-2.61.8-2.89a176.29,176.29,0,0,0-126.31,30.25c-1.57,1.1-.07,3.7,1.51,2.59Z"/><path d="M1843.94,345.52a132.81,132.81,0,0,1,51,19.36c1.63,1.05,3.14-1.55,1.52-2.59a135.22,135.22,0,0,0-51.68-19.67c-1.89-.3-2.71,2.59-.8,2.9Z"/><path d="M1751.53,396.39a222,222,0,0,1,72.88,58.19c1.23,1.49,3.34-.64,2.12-2.12A223.89,223.89,0,0,0,1753,393.8c-1.72-.86-3.24,1.73-1.51,2.59Z"/><path d="M1694.76,374c1.17-11.5,9.71-20,17.92-27.27,9.29-8.26,18.84-16.23,28.49-24.06q29.82-24.22,61.5-46c1.58-1.09.08-3.69-1.52-2.59q-33.5,23.08-65,48.86c-10.19,8.34-20.63,16.66-30.09,25.84-7.19,7-13.24,15-14.28,25.23-.2,1.92,2.8,1.91,3,0Z"/><path d="M1698,354.8a447.21,447.21,0,0,1,43.27-75c1.13-1.58-1.47-3.08-2.59-1.52a447.3,447.3,0,0,0-43.27,75c-.8,1.74,1.79,3.27,2.59,1.51Z"/><path d="M1689.67,358.72a212.41,212.41,0,0,1,25-102.14c.91-1.71-1.68-3.22-2.59-1.52a215.81,215.81,0,0,0-25.42,103.66,1.5,1.5,0,0,0,3,0Z"/><path d="M1691.73,372.17a270.33,270.33,0,0,0-64.56-107.94c-1.35-1.38-3.47.74-2.12,2.13A266.82,266.82,0,0,1,1688.83,373c.58,1.84,3.48,1,2.9-.8Z"/><path d="M1608.83,246h-1.17a1.5,1.5,0,0,0,0,3h1.17a1.5,1.5,0,0,0,0-3Z"/><path d="M1691.84,477l-1.14,30.45c-.07,1.93,2.93,1.93,3,0l1.14-30.45c.07-1.93-2.93-1.93-3,0Z"/><path d="M1569.78,395.92a149.76,149.76,0,0,0-34.33,14.21,1.5,1.5,0,0,0,1.52,2.59,146.53,146.53,0,0,1,33.61-13.91,1.5,1.5,0,0,0-.8-2.89Z"/><path d="M1698.62,376.63a561.6,561.6,0,0,1-12-118.42c0-3.86-6-3.87-6,0a570.19,570.19,0,0,0,12.23,120c.8,3.77,6.58,2.17,5.79-1.6Z"/><path d="M1695.34,372.78a209.72,209.72,0,0,1,126,3.41c3.65,1.26,5.22-4.53,1.59-5.78A215.28,215.28,0,0,0,1693.74,367c-3.7,1.06-2.13,6.85,1.6,5.78Z"/><path d="M1687.72,355.42a180.83,180.83,0,0,1,23.66,104.1c-.29,3.85,5.71,3.83,6,0a186.57,186.57,0,0,0-24.48-107.13c-1.93-3.35-7.11-.33-5.18,3Z"/><path d="M1678.33,362.05a180.94,180.94,0,0,1,81.05,69.56c2,3.26,7.24.25,5.18-3a186.32,186.32,0,0,0-83.2-71.71c-3.51-1.52-6.57,3.64-3,5.18Z"/><path d="M1697.23,362.52a214.8,214.8,0,0,1,77.62-34.85c3.76-.85,2.17-6.64-1.6-5.78a219,219,0,0,0-79,35.45c-3.12,2.22-.12,7.43,3,5.18Z"/><path d="M1703.06,374.18a469.28,469.28,0,0,0-121.87-47.9c-3.75-.9-5.35,4.89-1.59,5.78A463.44,463.44,0,0,1,1700,379.36c3.37,1.9,6.4-3.28,3-5.18Z"/><path d="M1701.93,373.07a677.43,677.43,0,0,0-79.14-73.17c-3-2.36-7.28,1.86-4.24,4.24a679.17,679.17,0,0,1,79.14,73.17c2.62,2.85,6.86-1.41,4.24-4.24Z"/><path d="M1691.39,370.45a249,249,0,0,0-54.33,82.79c-1.43,3.58,4.37,5.14,5.79,1.6a241.6,241.6,0,0,1,52.79-80.15c2.72-2.74-1.52-7-4.25-4.24Z"/><path d="M1692.72,369.68a249.07,249.07,0,0,0-83.28,53.58c-2.77,2.7,1.48,6.94,4.24,4.25a241.59,241.59,0,0,1,80.63-52c3.56-1.39,2-7.2-1.59-5.79Z"/><path d="M1580.32,392.8a93.78,93.78,0,0,0-52.24,22c-2.95,2.5,1.31,6.72,4.24,4.24a86.83,86.83,0,0,1,48-20.2c3.81-.36,3.84-6.36,0-6Z"/><path d="M1609.93,246.49v-1.06a3,3,0,0,0-6,0v1.06a3,3,0,0,0,6,0Z"/><path d="M1760.1,443.87l18.19,31.91c1.91,3.35,7.09.33,5.18-3l-18.19-31.91c-1.92-3.36-7.1-.34-5.18,3Z"/><path d="M1759.31,268.92l27.33-28.06c2.69-2.77-1.55-7-4.25-4.24l-27.32,28.05c-2.7,2.77,1.54,7,4.24,4.25Z"/><path class="b" d="M1744.23,388.26c6.11,6.21,3,18.56-5.27,21.18s-17.92-5.71-16.49-14.3,13.22-13.38,20.23-8.2"/><path d="M1742.11,390.38c7.64,8.58-4,22.21-13.36,13.59-9.15-8.47,3.14-20.62,12.44-14.44,3.22,2.14,6.23-3,3-5.18-6.68-4.44-16-2.7-21.26,3.22-5.79,6.55-4,16.05,2.44,21.42s16,5.28,21.34-1.57a16.66,16.66,0,0,0-.39-21.28c-2.57-2.89-6.81,1.37-4.24,4.24Z"/><path class="c" d="M1719.32,310.77c3.87,3.94,1.92,11.77-3.35,13.44s-11.36-3.63-10.45-9.08,8.38-8.48,12.83-5.2"/><path d="M1717.19,312.89c3.93,4.41-2,11.54-6.91,7.07s1.69-10.67,6.55-7.44c3.23,2.15,6.24-3,3-5.18-4.63-3.08-11.16-1.87-14.81,2.22-4.1,4.58-3,11.3,1.55,15.13s11.25,3.77,15.08-1a11.67,11.67,0,0,0-.24-15.05c-2.58-2.89-6.81,1.37-4.25,4.24Z"/><path class="c" d="M1920.24,368.2c3.88,3.94,1.93,11.77-3.34,13.43s-11.36-3.62-10.46-9.07,8.39-8.49,12.84-5.2"/><path d="M1918.12,370.32c3.93,4.41-2,11.53-6.92,7.07s1.7-10.67,6.56-7.44c3.23,2.14,6.24-3.05,3-5.18-4.64-3.09-11.16-1.87-14.81,2.21-4.1,4.58-3,11.31,1.55,15.14s11.25,3.77,15.08-1a11.67,11.67,0,0,0-.24-15.05c-2.58-2.89-6.81,1.36-4.25,4.24Z"/><path class="c" d="M1598.24,413.62c3.88,3.94,1.93,11.77-3.34,13.44s-11.36-3.63-10.46-9.08,8.39-8.48,12.84-5.2"/><path d="M1596.12,415.74c3.93,4.41-2,11.53-6.92,7.07s1.7-10.67,6.56-7.44c3.23,2.14,6.24-3.05,3-5.18-4.64-3.08-11.16-1.87-14.81,2.21-4.1,4.59-3,11.31,1.55,15.14s11.25,3.77,15.08-1a11.67,11.67,0,0,0-.24-15.05c-2.58-2.89-6.81,1.36-4.25,4.24Z"/><path class="c" d="M1672.66,407.53c3.88,3.94,1.93,11.77-3.34,13.44s-11.37-3.63-10.46-9.08,8.39-8.48,12.84-5.2"/><path d="M1670.54,409.65c3.93,4.41-2,11.53-6.92,7.07s1.7-10.67,6.56-7.44c3.23,2.14,6.23-3,3-5.18-4.64-3.08-11.16-1.87-14.81,2.22-4.1,4.58-3,11.3,1.54,15.13s11.26,3.77,15.09-1a11.66,11.66,0,0,0-.25-15c-2.57-2.89-6.8,1.37-4.24,4.24Z"/><path class="c" d="M1648.06,335.15c4.83,4.92,2.4,14.68-4.17,16.76s-14.17-4.52-13-11.32,10.46-10.58,16-6.49"/><path d="M1645.94,337.27c5.52,6.2-2.9,16.1-9.68,9.87s2.32-14.94,9.08-10.45c3.23,2.15,6.23-3.05,3-5.18-5.51-3.66-13.24-2.22-17.58,2.65-4.82,5.43-3.43,13.34,1.93,17.83s13.27,4.41,17.77-1.24a13.8,13.8,0,0,0-.31-17.72c-2.57-2.89-6.8,1.37-4.24,4.24Z"/><path class="d" d="M465.73,483.47c346.55-49.43,675.2-59.58,1024.4,7,0-94.1-2.53-276.29-11-286.77-7.26-9-19.72-11.35-31.12-13.11-159.68-24.7-819.9-61.85-963.55,12.14-6.22,68.24-12.49,212.54-18.71,280.78"/><path d="M466.92,487.81c67-9.54,134.19-17.74,201.56-24.17,65.67-6.26,131.51-10.84,197.43-13.38s131.85-3,197.75-1.21q99.1,2.74,197.82,12.62,101.68,10.26,202.36,28.44,12.56,2.26,25.1,4.66c2.83.54,5.69-1.23,5.69-4.34,0-63.2-.69-126.42-2.78-189.58-.84-25-1.65-50.15-4.09-75.08-.65-6.66-1.11-13.68-3-20.14-3.32-11.45-17.67-16-28.07-18.12-15.72-3.18-31.89-4.78-47.8-6.62-19-2.2-38-4.09-57-5.83-48.72-4.45-97.52-7.88-146.35-10.75q-87-5.1-174.1-7.62c-60.33-1.73-120.68-2.54-181-2-55.7.53-111.43,2.15-167,6.13-44.79,3.2-89.81,7.6-133.85,16.65-16.32,3.35-32.61,7.36-48.28,13.09-6.07,2.22-13.23,4.38-18.64,8-4.46,3-3.42,12.55-3.82,17.49q-.87,10.78-1.63,21.58c-4.9,68.79-8.05,137.69-12.86,206.49-.92,13.12-1.9,26.23-3.08,39.33-.53,5.77,8.48,5.73,9,0,6.81-75.11,9.6-150.59,14.57-225.83,1.21-18.33,2.49-36.66,4.14-54.95l-2.22,3.89c23.56-12.07,50.87-17.88,76.9-22.68,37.47-6.9,75.48-10.74,113.45-13.59,46.39-3.48,92.9-5.23,139.41-6.11,50.41-.95,100.83-.82,151.24,0s101,2.44,151.39,4.66q69.73,3.06,139.39,7.79c38.44,2.63,76.86,5.66,115.2,9.45,15,1.48,29.94,3.08,44.88,4.91,14.6,1.78,30.62,2.68,44.61,7.45,4.61,1.57,9.94,4.14,12.6,8.4-.76-1.22.15.51.31,1.13.25,1,.49,2,.69,2.95a164.76,164.76,0,0,1,2.26,17.81c1.89,21.05,2.73,42.2,3.49,63.31,2,54.57,2.69,109.19,3,163.79q.1,17.28.1,34.55l5.7-4.34Q1390.83,467,1289.08,455.6q-99.7-11.12-200-14.73-99.33-3.66-198.77-.46c-66.5,2-132.94,6.22-199.21,12.15-67,6-133.93,13.79-200.61,22.95q-13,1.77-25.91,3.62c-5.71.82-3.28,9.49,2.39,8.68Z"/><path class="c" d="M1750.26,7.64C1729.78-11.19,1701.81-21,1674-21.48c-27.37-.43-55.58,8.5-74.94,27.86s-28.29,49.81-18.68,75.45S1619.68,125,1646,117.57A61.84,61.84,0,0,0,1724,182.92c3.39,19.26,26.88,32,44.9,24.41,4.13,13.94,17.7,24.54,32.24,25.16,5.62.24,11.29-.87,16.86,0,9.78,1.49,17.54,8.63,25.54,14.45,21.07,15.31,48.45,22.78,73.84,17s47.79-25.89,53.27-51.35c1.47,5.13,7.93,7.46,13.1,6.15s9.25-5.22,12.87-9.15c14.62-15.93,26.06-35.32,29.92-56.59s-.49-44.51-14.2-61.24-37.25-25.67-58-19.6c13.86-9.71,19.47-28.8,15.34-45.21s-16.83-29.88-32-37.39S1905.07-20,1888.18-19c-15.33.95-30.75,4.46-44,12.29s-24.06,20.33-27.91,35.2c.36-16.09-10-31.9-24.85-38S1758.1-11.71,1747,0"/><path d="M1753.45,4.46c-35.8-32.37-92.26-40.19-135.2-17.65C1598.08-2.6,1582.37,15.12,1575.52,37c-6.61,21.11-4.09,44.92,9.81,62.55,14.45,18.32,38.94,28.5,61.9,22.4l-5.7-4.34c-1.67,21,7,42.68,23.16,56.29a68,68,0,0,0,60.48,13.4l-5.54-3.15c4.34,21.7,29.8,35.74,50.43,27.56l-5.53-3.15c4.73,14.77,17.69,26.1,33.18,28.15,9.74,1.28,19-1.67,28.09,3.29,7.91,4.31,14.53,10.66,22.22,15.37,29.06,17.77,67.71,21.32,96.69,1.46,14.9-10.22,26.2-25.27,30.24-43h-8.67a15.08,15.08,0,0,0,15,9.8c8.16-.22,14.52-6.36,19.63-12.05,11.8-13.16,21.47-28.41,26.92-45.29,10.07-31.21,3.31-69.07-24.55-88.92-14.4-10.26-33-14.23-50.16-9.51l3.47,8.23a47,47,0,0,0,18.88-39.32c-.4-16-8.82-31-20.88-41.29C1926.7-28.35,1881.23-29,1849-14.23c-17.47,8-31.86,22.8-37,41.56l8.84,1.2c0-18-10.88-35.2-27.62-42.15s-36.71-2.38-49.35,10.4c-4.08,4.12,2.28,10.49,6.37,6.36,10.11-10.22,26-14,39.51-8.51s22.12,19.52,22.09,33.9c0,5.07,7.48,6.12,8.84,1.2,8.8-31.95,43.72-44,73.68-44.42,28.86-.45,63.17,11.67,71,42.82,3.59,14.36-1.07,31.21-13.27,40.13-3.91,2.86-1.78,9.67,3.47,8.23,25.63-7,51.61,8.78,62,32.24,11.58,26.25,4.9,56.07-10,79.45a127.24,127.24,0,0,1-14.61,18.8c-2.68,2.87-5.7,6-9.56,7.17-2.83.86-7.13.44-8.34-2.77-1.44-3.84-7.6-4.69-8.67,0-6.77,29.69-35.27,49.42-65,50a90.24,90.24,0,0,1-45.92-12.15c-13.22-7.5-24.14-20.59-40.2-21.5-9.38-.54-17.83,1.42-26.53-3.24a31.87,31.87,0,0,1-15.44-18.34c-.69-2.12-3.2-4.07-5.54-3.14-16.32,6.47-35.9-4-39.36-21.27-.48-2.41-3.31-3.72-5.53-3.14-18.25,4.74-38.63.49-52.89-12.09a59,59,0,0,1-19.36-48.92c.24-3-3.06-5-5.69-4.34-18,4.79-37-2.51-49.52-15.85-13.7-14.59-17.1-35.43-12.15-54.43,11.13-42.69,56.28-62.48,97.36-59.65,24.42,1.67,48.33,11,66.55,27.53,4.29,3.87,10.67-2.47,6.37-6.37Z"/><path class="c" d="M1413.84,9.86c-18.15,15-22.07,44.38-8.48,63.57s42.65,25.25,62.78,13.09a57.47,57.47,0,0,0,93,24c7.07,22.34,29.48,38.86,52.9,39s46.06-16.06,53.44-38.3c37.29-2.17,71-32.63,77-69.51s-16.44-76.43-51.15-90.26c12.82-16.9,6.62-43-9.23-57.13s-38.43-18.13-59.62-17.23a158.09,158.09,0,0,0-111,53.38c1.87-14.29-8.4-28.43-21.82-33.71s-29-2.85-41.82,3.66A72.78,72.78,0,0,0,1413.16-55a72.72,72.72,0,0,0,7.9,57.15"/><path d="M1410.66,6.68c-19.78,16.85-24,49.07-8.4,70.1,15.37,20.66,46,26.51,68.15,13.63l-6.61-2.69c6.77,19,22.27,34.22,41.77,39.84,20.48,5.9,42.93.1,58.76-13.86l-7.52-2c8,24.2,31.5,42.15,57.24,42.32s49.41-17.53,57.78-41.6l-4.34,3.3c30.93-2.1,59.39-21.43,73.42-49,14.28-28.1,10.75-61.86-7-87.62a88.27,88.27,0,0,0-39.38-31.95l2.69,6.61c9.37-12.91,9.25-30,3.09-44.24-6.82-15.8-20.74-26.41-36.75-31.91-33.82-11.63-74-3.23-105.11,12.47a161.2,161.2,0,0,0-48.15,37.25l7.68,3.18c1.36-13.29-5.79-25.84-16.45-33.43-12.29-8.77-28.75-9.3-42.81-5-27.68,8.44-48.45,34.08-52.08,62.6A78,78,0,0,0,1417.18,4.4c3,5,10.75.44,7.77-4.55a68.17,68.17,0,0,1,13.62-86.47c11.93-10.37,28.81-17.35,44.77-14.32,14.9,2.83,27.26,15.7,25.65,31.43-.4,3.86,5.21,6,7.68,3.19a154.93,154.93,0,0,1,81.62-48.53c28.65-6.53,70.35-7.36,89.28,19.8,9.08,13,11.58,30.89,1.88,44.25-1.89,2.61.29,5.63,2.69,6.61,25.37,10.39,43.43,35.05,47.86,61.82,4.6,27.77-8,55.31-29.87,72.42a78.27,78.27,0,0,1-42.64,16.69,4.7,4.7,0,0,0-4.34,3.3c-7.07,20.33-27.48,35.12-49.1,35s-41.79-15.34-48.57-35.71a4.56,4.56,0,0,0-7.52-2c-13.44,11.86-32.69,16.51-50,11.54a54.14,54.14,0,0,1-35.48-33.55,4.56,4.56,0,0,0-6.61-2.69c-18.22,10.61-44.12,5.87-56.62-11.48C1396.41,53.36,1400.62,27,1417,13c4.42-3.76-2-10.1-6.36-6.36Z"/><path d="M1574.35,97.49a58.09,58.09,0,0,0,16.73,38.92c2.71,2.75,7-1.49,4.24-4.25a51.71,51.71,0,0,1-15-34.67c-.14-3.85-6.14-3.87-6,0Z"/><path d="M1590.53,110.19,1601.44,126c2.18,3.16,7.38.16,5.18-3l-10.91-15.81c-2.18-3.16-7.38-.16-5.18,3Z"/><path d="M1605.08,110.17l8.93,12.28c2.25,3.09,7.46.1,5.18-3l-8.93-12.28c-2.25-3.09-7.46-.1-5.18,3Z"/><path d="M1619.14,111.7l7.76,7.86c2.72,2.76,7-1.49,4.25-4.24l-7.77-7.86c-2.72-2.76-7,1.49-4.24,4.24Z"/><path d="M1480.73,43.9a45.6,45.6,0,0,0,30.18,38.45c3.65,1.29,5.22-4.51,1.6-5.79a39.32,39.32,0,0,1-25.78-32.66c-.39-3.8-6.39-3.84-6,0Z"/><path d="M1493.43,49.88l6.7,11.16c2,3.31,7.17.3,5.18-3l-6.7-11.17c-2-3.31-7.17-.29-5.18,3Z"/><path d="M1509.91,49l9,12.25c2.26,3.09,7.47.1,5.18-3l-9-12.25c-2.25-3.08-7.46-.09-5.18,3Z"/><path d="M1532.51,51l5.58,11.16c1.73,3.45,6.9.42,5.18-3L1537.69,48c-1.73-3.46-6.91-.42-5.18,3Z"/><path d="M1660.08,164.66a32.54,32.54,0,0,0,30.42-15.5c2-3.29-3.15-6.31-5.18-3a26.62,26.62,0,0,1-25.24,12.53c-3.85-.32-3.82,5.68,0,6Z"/><path d="M1677.69,178.53A38,38,0,0,0,1698,166.6c2.56-2.88-1.67-7.14-4.24-4.24a32.75,32.75,0,0,1-17.66,10.39c-3.77.84-2.17,6.62,1.6,5.78Z"/><path d="M1711.58,176.84l12.27-12.29c2.73-2.74-1.51-7-4.24-4.25l-12.28,12.29c-2.73,2.74,1.51,7,4.25,4.25Z"/><path d="M1775.5,91.91a44,44,0,0,1-24.16,36.59c-3.44,1.74-.41,6.92,3,5.18a50,50,0,0,0,27.13-41.77c.22-3.86-5.78-3.85-6,0Z"/><path d="M1779.24,123.89a20.63,20.63,0,0,1-9,10.08c-3.36,1.9-.34,7.08,3,5.19a25.92,25.92,0,0,0,11.13-12.25,3.11,3.11,0,0,0-1.08-4.1c-1.26-.75-3.46-.41-4.11,1.08Z"/><path d="M1787.17,132.88l-8.86,14.56c-2,3.31,3.18,6.33,5.18,3l8.86-14.56c2-3.3-3.17-6.32-5.18-3Z"/><path d="M1801.69,138.15a60.65,60.65,0,0,1-17.54,25.28c-2.93,2.54,1.33,6.77,4.24,4.25a66.72,66.72,0,0,0,19.08-27.94c1.33-3.63-4.47-5.2-5.78-1.59Z"/><path class="e" d="M804.68,279.67c-1.69.16-4.62.2-5.7,1.65-2.59,3.55,1.18,31.18-2,34.05a4.44,4.44,0,0,1-2.72,1c-16.35,1.58-17.17.68-18.68-14.94-.93-9.57-2.11-19.23-3-28.8-.43-4.48,0-9.29,0-13.81,0-8.81-1.86-17.92-2.7-26.64-.13-1.33-.61-3.73.26-4.91,1-1.44,24-3.43,28.11-3.83,4.48-.43,9.16,0,13.77-.47,4-.39,7.86-2.11,11.86-2.5s4.37,8.5,4.65,11.41c.2,2.06.22,3.52-1.62,4.8-6.77,4.57-35.2,1.33-34.26,11,1.69,17.44,2.56,13.81,17.46,12.37,2.66-.26,14.23-.77,15.62.93a3.46,3.46,0,0,1,.69,2.13c.29,3,1.21,15-2.9,15.44-3.52.34-7.1,0-10.49.29Z"/><path class="e" d="M871.61,278.68c.3,4.74-.09,10.13-.15,14.89,0,.48.31,14.36-1.89,16.09a4.59,4.59,0,0,1-2.76.79c-3.27.21-16.63,1.06-16.91-3.31-.24-3.76.36-7.58.12-11.35-.35-5.58-1.08-11.15-1.43-16.73-.32-5,0-10-.35-15-.63-9.71-2.47-19.47-3.09-29.18-1-15.42-.75-15.44,14.19-16.4,1.7-.11,4.49-.28,5.89.6,2.41,1.55,3,12.13,3.15,14.92.33,5.22-.78,10.66-.45,15.88.36,5.58,2.53,10.93,2.89,16.52Z"/><path class="e" d="M908,245.52c-.26,4.63,3.15,9.9,3.87,14.63a127.94,127.94,0,0,1,1.49,16.64c.12,4.87-.37,10.11-.74,15-.17,3.17.87,16.29-5,16.43-3.65.08-15.93.62-16-4.25-.1-4.13.66-8.29.56-12.43-.11-4.62-.71-9.23-.82-13.85-.12-5.35.85-10.61.72-16s-1.58-10.31-1.71-15.54.86-10.12.74-15.23c-.09-3.65-.9-7.16-1-10.69-.11-4.62,7.35-3.46,10.27-3.53,1.21,0,10.82-.38,12.8,1,2.23,1.65,5,8.89,6.48,11.65,3.05,5.4,6.46,10.56,9.39,16.09,2,3.72,3.23,7.71,5,11.56,1.92,4.09,4.33,7.81,6.37,11.9.64,1.32,4,9.76,5.86,10.94l.1-.74a126.39,126.39,0,0,0-3.5-24.38c-.55-2.78-1.47-5.81-1.78-8.6-.49-5.22-.38-10.58-.5-15.81-.09-3.65-.66-7.41-.75-11.06-.13-5.71,7.07-4.54,11.09-4.64,7.42-.18,11.27-2,11.48,6.91.19,7.78.26,15.94.08,23.73-.13,5-.86,10-.74,15s1.33,10.07,1.69,15.05c.5,5.34.62,10.7.75,16.05.4,16.91.08,13.63-16.46,14-1.59,0-4.25.47-5.62-.6-7.3-5.3-29.12-58-33.21-60.92l-.48.26-.47.74Z"/><path class="e" d="M1007.79,276.55c-.09,4.75-.93,10.08-1.39,14.82,0,.49-.89,14.34-3.23,15.88a4.54,4.54,0,0,1-2.81.55c-3.29-.06-16.67-.33-16.58-4.71.07-3.77,1-7.52,1.08-11.29.11-5.6-.15-11.2,0-16.8.1-5,.81-10,.91-14.95.19-9.73-.83-19.61-.64-29.34.31-15.45.55-15.44,15.51-15.15,1.71,0,4.51.09,5.82,1.09,2.28,1.75,2,12.33,1.89,15.13-.1,5.23-1.66,10.55-1.77,15.79-.11,5.59,1.61,11.1,1.5,16.7Z"/><path class="e" d="M1052.59,311.21c-4.25-.26-29.5-11.94-29.33-14.73.13-2.06,10.35-13.62,12.42-13.5,1.58.1,7.71,7.31,17.43,7.91,2.55.15,11.4-4.91,12-7.19-.24-2-2.43-4.05-3.81-5.35-1.73-1.69-3.56-3.51-5.42-5.09-2.55-2.11-6.15-3.06-9.1-4.58-8.75-4.45-14.43-9.18-17.63-18.52-.82-2.49-2.18-6.11-2-8.78.12-1.95,1.62-4.54,2.46-6.31,1-2,2-4.76,3.69-6.36,5.83-5.73,21.75-12.8,29.89-12.3a35.34,35.34,0,0,1,21.42,8.52c1.27,1,4.77,3.58,4.67,5.28-.17,2.8-9.65,12.21-12.69,12-4.61-.28-10.26-5.63-15.11-5.93-2-.12-10.1,3.64-10.22,5.47-.34,5.58,32,23.18,35.6,27.67,1.81,2.31,4.15,11.84,4,14.87-.56,9-11.9,21-19.78,24.26-4.26,1.81-15.4.64-17.72,2.69Z"/><path class="e" d="M1179,287.78c-.76,5.91-1,11.77-1.77,17.68-2.29,17.86-2.74,15.6-20,13.39-3-.39-4.32-.8-3.88-4.18.89-7,2.15-13.95,3.06-21.07.39-3,1.38-6,1.76-9,.45-3.5-13.3-3.42-16-3.76-3.5-.44-6.8-1.48-10.3-1.93-4.23-.54-3.79,9.45-4.17,11.49-.77,4.07-1.66,8.13-2.53,12.06s-1.26,13.7-7,13c-2.42-.31-14.27-2.56-15.54-4.2a3.27,3.27,0,0,1-.55-2.4c.48-3.74,2.43-7.42,2.9-11.16.71-5.55.08-11.15.79-16.7.58-4.47,2.46-8.64,3-13.11.68-5.31-.09-10.8.61-16.23s4.46-28.13,7.3-29.24a5.43,5.43,0,0,1,2.48-.17,60.49,60.49,0,0,1,6.66,1.59c11.89,3,10.27,4.13,8.77,15.84-.76,5.91-3.18,11.37-3.92,17.16a2.4,2.4,0,0,0,2.2,3c3.86.49,7.9.52,11.78.89,3.64.35,7.59,1.1,11.27,1.08a4.13,4.13,0,0,0,2.43-.79c2.62-2.24,5.24-20.8,5.69-24.3.87-6.76.45-8.28,7.93-7.32,2.17.28,11.1,1.42,12.4,2.81,1,1,.67,2.42.5,3.75-.45,3.5-1.49,6.8-1.93,10.3-.64,4.95.16,10.2-.59,15.13Z"/><path class="c" d="M697.86,274.78c12.95-5.77,30.39-9.41,44.44-11.33,2.9,8.36,9,14.38.59,17.24s-32.28,5.35-39.38,10.63a76.38,76.38,0,0,1-5.65-16.54"/><path class="c" d="M699.37,277.37c13.79-6,28.91-9,43.73-11l-3.69-2.1c1,2.64,2.19,5.13,3.34,7.7,1.23,2.77,2.47,4.64-1,6-4,1.53-8.62,2.07-12.83,2.9-8.72,1.71-19.4,2.74-26.92,7.92l4.11,1.07A80.76,80.76,0,0,1,700.75,274c-.87-3.76-6.65-2.17-5.79,1.6a87.79,87.79,0,0,0,6,17.25,3,3,0,0,0,4.1,1.08c4.41-3,10.17-4.1,15.31-5.24,6-1.35,12.16-2.35,18.19-3.72,4.11-.93,9.75-2,11.27-6.56,1.73-5.17-2.9-11.18-4.59-15.74a3.13,3.13,0,0,0-3.69-2.1c-15.42,2.16-30.84,5.42-45.17,11.64-3.53,1.53-.48,6.7,3,5.18Z"/><path class="c" d="M1209.92,269.22c14,2.34,30.54,8.93,43.32,15.09-2.21,8.57-.47,16.94-9,14.69s-29.87-13.36-38.71-12.88a76.5,76.5,0,0,1,4.42-16.9"/><path class="c" d="M1209.12,272.11c14.85,2.63,29.05,8.31,42.6,14.79l-1.38-3.39c-.64,2.75-.95,5.52-1.45,8.3-.53,3-.47,4.87-3.89,4.3-4.08-.67-8.27-3-12.07-4.52-8.43-3.48-18.07-8.64-27.43-8.47l2.9,3.8a84.51,84.51,0,0,1,4.41-16.91c1.36-3.62-4.44-5.18-5.78-1.59a83.69,83.69,0,0,0-4.42,16.91c-.29,1.85.76,3.83,2.89,3.79,5.32-.1,10.75,2.26,15.63,4.12,5.93,2.28,11.73,4.91,17.7,7.13,4,1.48,9,3.45,12.68.27,4-3.5,3.5-10.78,4.62-15.54a3.06,3.06,0,0,0-1.38-3.38c-14-6.7-28.69-12.67-44-15.4-3.78-.67-5.4,5.11-1.6,5.79Z"/><path class="c" d="M-30,163.16c-19.84,16.35-24.13,48.52-9.27,69.5S7.32,260.26,29.32,247a64,64,0,0,0,43.76,40.54A63.94,63.94,0,0,0,131,273.2c7.74,24.42,32.24,42.49,57.85,42.66S239.19,298.3,247.25,274c40.77-2.38,77.66-35.67,84.18-76s-18-83.55-55.92-98.67c14-18.48,7.23-47-10.09-62.46s-42-19.82-65.18-18.83A172.71,172.71,0,0,0,78.9,76.4c2-15.63-9.19-31.08-23.86-36.86s-31.65-3.11-45.72,4A78.52,78.52,0,0,0-22.15,154.7"/><path d="M-33.22,160c-21.46,18.23-26.11,53.22-9.19,76,16.65,22.45,50,28.88,74,14.86L25,248.17C32.24,268.6,48.89,285,69.8,291.26c22.36,6.66,47.05.44,64.38-14.87l-7.52-2c8.63,26.08,33.79,45.4,61.46,46,28.2.55,54.34-18.8,63.47-45.16l-4.34,3.3c33.53-2.25,64.41-23.21,79.72-53.06,15.6-30.41,12-67-7-95.06A96.11,96.11,0,0,0,276.71,95l2.68,6.61c10.21-14,10.05-32.59,3.34-48.06-7.29-16.83-22-28.19-39-34.26-36.89-13.2-81.19-4-115.22,13.15A176,176,0,0,0,75.71,73.22L83.4,76.4c1.52-14.47-6.33-28-17.9-36.27-13.29-9.48-31.17-10-46.36-5.37C-10.81,43.9-33.34,71.6-37.43,102.43A84.79,84.79,0,0,0-26,157c3,5,10.76.45,7.77-4.54-14.44-24.11-14.55-54.68.62-78.49C-3.52,51.79,26.43,33.4,53.06,43.59,66.34,48.67,75.91,62,74.4,76.4c-.41,3.85,5.22,6,7.68,3.18a169.82,169.82,0,0,1,91-53.52c31.19-6.8,76.23-7.22,96.57,22.34,9.89,14.37,12.65,34,2,48.66-1.89,2.6.29,5.63,2.69,6.61,28,11.45,47.93,38.73,52.69,68.32,4.88,30.35-9,60.43-32.83,79.13a86,86,0,0,1-46.92,18.37,4.69,4.69,0,0,0-4.34,3.3c-7.84,22.63-30.73,39-54.79,38.56-23.54-.46-45.43-17.11-52.79-39.34a4.56,4.56,0,0,0-7.52-2c-15,13.21-36.42,18.28-55.62,12.57a59.67,59.67,0,0,1-38.53-36.82,4.57,4.57,0,0,0-6.61-2.69c-20,11.71-48.78,6.49-62.48-12.69-14-19.66-9.58-48.62,8.57-64,4.43-3.75-2-10.09-6.36-6.36Z"/><path class="c" d="M519.16,69.13c20.1-16,32.93-56.45,18.41-77.67s-46.19-28.34-68.4-15.4a64,64,0,0,0-43.11-41.24A64,64,0,0,0,367.93-51.8c-7.34-24.53-31.55-43-57.15-43.57s-50.63,16.75-59.07,40.93C210.9-52.72,173.49-20,166.32,20.2S183,104,220.66,119.74c-14.31,18.26-8,46.93,9.09,62.61s41.69,20.49,64.87,19.88a172.81,172.81,0,0,0,122.26-56.41c-2.29,15.59,8.68,31.22,23.26,37.23s31.6,3.62,45.78-3.27A78.53,78.53,0,0,0,519.16,69.13"/><path d="M522.34,72.32c17.13-14,27.25-39.45,25.84-61.4-1.5-23.42-20.2-40.45-42.68-44.7a56.79,56.79,0,0,0-38.6,6l6.61,2.69c-6.94-20.56-23.38-37.21-44.17-43.76-22.27-7-47-1.11-64.59,13.92l7.52,2c-8.22-26.24-33.13-45.87-60.78-46.86-28.21-1-54.58,18-64.12,44.21l4.34-3.3C218-57.22,186.7-36.52,171-6.75s-12.77,66,5.38,94.22c10.17,15.81,24.67,28.75,42,36.16l-1.61-6.16c-10.47,13.89-10.52,32.62-4,48.2,7.1,16.85,21.53,28.31,38.38,34.65,36.69,13.78,81.12,5.21,115.42-11.37A176.13,176.13,0,0,0,420.06,149l-7.68-3.18c-1.75,14.4,5.92,28.16,17.37,36.51,13.22,9.64,31,10.46,46.28,6,30-8.63,53.16-36.07,57.59-66.8A85.2,85.2,0,0,0,523,66.86c-2.89-5-10.67-.48-7.77,4.55,14.06,24.35,13.6,54.92-1.95,78.47C498.87,171.79,468.4,189.78,442,179c-13.14-5.39-22.36-18.82-20.62-33.14.47-3.91-5.22-5.9-7.69-3.19a169.85,169.85,0,0,1-91.87,52c-31.29,6.3-76.35,5.94-96.17-24-9.64-14.55-12-34.17-1.11-48.68,1.34-1.78.44-5.27-1.61-6.15C195,103.94,175.31,77.4,170.53,47.58c-4.92-30.7,9.21-61.15,33.66-79.73a86.2,86.2,0,0,1,47.52-17.79,4.71,4.71,0,0,0,4.34-3.3c8.2-22.52,31.42-38.46,55.44-37.61,23.56.84,45.11,17.92,52.1,40.25a4.56,4.56,0,0,0,7.52,2,59.56,59.56,0,0,1,55.83-11.6,59.62,59.62,0,0,1,37.89,37.47,4.56,4.56,0,0,0,6.61,2.69C492.65-32,526.87-24.93,536.66-.76c4.55,11.25,2.79,24.45-.79,35.7C532.12,46.72,525.63,58,516,66c-4.49,3.68,1.91,10,6.36,6.37Z"/><path d="M313.07,180.71a104.65,104.65,0,0,0,48.4-26.63c2.78-2.69-1.46-6.93-4.24-4.24a98.53,98.53,0,0,1-45.75,25.08c-3.75.9-2.17,6.69,1.59,5.79Z"/><path d="M309.15,161.11A73,73,0,0,0,335.2,146c2.88-2.58-1.37-6.81-4.24-4.24a65.68,65.68,0,0,1-23.4,13.54c-3.65,1.21-2.09,7,1.59,5.79Z"/><path d="M306,150.4l18.22-11.72c3.24-2.08.23-7.27-3-5.18l-18.21,11.72c-3.24,2.08-.24,7.27,3,5.18Z"/><path d="M229.69,134.37a85.88,85.88,0,0,0,20.62,35c2.7,2.78,6.94-1.47,4.25-4.24a79.16,79.16,0,0,1-19.08-32.39c-1.12-3.69-6.91-2.11-5.79,1.59Z"/><path d="M244.19,124.38a53.86,53.86,0,0,0,11.29,28.15c2.36,3.05,6.58-1.23,4.24-4.24a46.51,46.51,0,0,1-9.53-23.91c-.38-3.8-6.39-3.84-6,0Z"/><path d="M148.38,253.39a55.72,55.72,0,0,0,36.86,30c3.74.93,5.34-4.85,1.59-5.78a50,50,0,0,1-33.27-27.28c-1.66-3.48-6.83-.44-5.18,3Z"/><path d="M171.65,254.23l18,9.51c3.42,1.8,6.45-3.38,3-5.18l-18-9.51c-3.42-1.81-6.45,3.37-3,5.18Z"/><path d="M192.32,242.79l14.32,9.11c3.27,2.08,6.28-3.11,3-5.18l-14.32-9.11c-3.26-2.08-6.28,3.11-3,5.18Z"/><path d="M165.86,112.26a98.37,98.37,0,0,1-3.29,58.27c-1.34,3.62,4.45,5.19,5.78,1.59a104.09,104.09,0,0,0,3.3-61.46c-.93-3.74-6.72-2.15-5.79,1.6Z"/><path d="M149.2,124.38a71.26,71.26,0,0,1-3.8,30.44c-1.29,3.64,4.51,5.21,5.79,1.59a75.29,75.29,0,0,0,4-32c-.35-3.81-6.35-3.85-6,0Z"/><path d="M131,121.78a72,72,0,0,1-12.61,32.32c-2.21,3.17,3,6.18,5.19,3A78.33,78.33,0,0,0,137,121.78c.48-3.82-5.52-3.79-6,0Z"/><path class="c" d="M593.08,381.93c.27-.83.49-1.65.71-2.47-4.29.78-9,1.5-13.92,2.13l-1.69-3.43c13-1.63,23.78-3.89,32.39-6.7l2.46,3.19a122.33,122.33,0,0,1-15,4c-.2,1-.41,1.87-.63,2.74l16.5-2.08.47,3.72-18.25,2.3c-.36.84-.67,1.67-1,2.47L617.32,385l.49,3.86L593,392c-.54.86-1,1.72-1.55,2.53l22.29-2.81,2.81,22.2-4.14.52-.22-1.75-19.9,2.51.22,1.75-4.14.52-2.05-16.27a77.48,77.48,0,0,1-6.1,6.05l-2.82-3.43a64.27,64.27,0,0,0,10.23-11.14L577.37,394l-.49-3.86,13.37-1.69c.46-.85.91-1.7,1.28-2.49l-12.46,1.57-.47-3.72Zm17,13.83-19.9,2.51.29,2.25,19.9-2.51ZM591.12,406l19.9-2.51-.27-2.16-19.9,2.51Zm.71,5.65,19.9-2.51-.29-2.34-19.9,2.51Z"/><path class="c" d="M639.42,376.4c.29-.82.52-1.64.76-2.46-4.31.71-9,1.37-14,1.92l-1.64-3.46c13-1.43,23.85-3.52,32.5-6.2l2.41,3.23a123.23,123.23,0,0,1-15.06,3.76c-.22,1-.45,1.87-.68,2.73l16.54-1.83.41,3.73-18.28,2c-.38.83-.71,1.66-1.08,2.45l22.28-2.47.43,3.87-24.87,2.75c-.55.85-1.07,1.7-1.58,2.51l22.33-2.48,2.46,22.25-4.14.46-.2-1.75-19.94,2.2.2,1.75-4.15.46-1.8-16.3a76.07,76.07,0,0,1-6.19,5.95L623.4,398a65,65,0,0,0,10.4-11l-10.27,1.13-.43-3.87,13.4-1.48c.47-.84.93-1.69,1.31-2.47l-12.48,1.38-.41-3.73Zm16.76,14.09-19.94,2.21.25,2.25,19.94-2.2Zm-19.08,9.94,19.94-2.2-.24-2.17-19.94,2.21Zm.62,5.67,19.94-2.21-.26-2.35-19.94,2.21Z"/><path class="c" d="M679.16,364.17c-.2,2.81-.45,5.49-.69,7.93l9.46-.9.23,2.49A44.23,44.23,0,0,1,685,393.53a77.93,77.93,0,0,1,6.85,4.51l-2.7,3.89a64.61,64.61,0,0,0-6.14-4.44,37.75,37.75,0,0,1-8.38,9.74l-3.25-3.37a32.75,32.75,0,0,0,8-8.72c-2.48-1.62-5.24-3.27-8.29-5,1-4.1,1.79-8.5,2.45-13.22l-4.93.47-.41-4.29,5.86-.56c.25-2.72.45-5.48.65-8.29Zm5.07,11.71-6.22.59a89.19,89.19,0,0,1-2.17,11.84c2,1.07,3.83,2.1,5.5,3.06A37.54,37.54,0,0,0,684.23,375.88Zm26.46,26-4.24.4-.27-2.81-8.07.77.27,2.82-4.29.41-3.52-36.75,16.6-1.59Zm-4.92-6.65-2.43-25.45-8.07.77L697.7,396Z"/><path class="c" d="M727.05,361.16a56.64,56.64,0,0,1-3.27,10.12l2.56,31.44-4.29.35-2-24.66c-1.16,1.77-2.36,3.54-3.66,5.23l-1.82-4.6A51.39,51.39,0,0,0,723,359.63Zm29-1.3.34,4.25-3.27.27,2.5,30.84c.27,3.23-1.22,5-4.36,5.24l-7.8.63-1.32-4.21c2.55,0,5-.13,7.27-.32a1.69,1.69,0,0,0,1.69-2.09l-2.42-29.73-20.91,1.7-.35-4.25ZM744.5,371.08,746,389l-15.42,1.26-1.45-17.92Zm-3.93,4.31-7,.57.81,10,7-.56Z"/><path class="c" d="M772,367.55l.23,3.47a62.89,62.89,0,0,1-3.71,7l4.3-.29.19,2.91a51.89,51.89,0,0,1-1.67,9,11.48,11.48,0,0,1,1.31.84,14.47,14.47,0,0,0,4.63,2.66,18.09,18.09,0,0,0,6.16.47c2.64-.13,5.65-.28,9-.51s7.57-.64,12.83-1.18l-.7,4.23-11.32.75c-3.42.23-6.66.35-9.76.47a24.46,24.46,0,0,1-7.56-.61,16.49,16.49,0,0,1-5.74-3.15,1.49,1.49,0,0,0-1.09-.39c-.74,0-1.77,2.12-3,6.19l-3.38-2.7c1.46-3.9,3-6.28,4.53-7.22a44.11,44.11,0,0,0,1.71-7.82l-5.13.35-.22-3.33a65.22,65.22,0,0,0,4-6.86l-5.87.39-.27-4Zm-.39-4.47-2.68,3a43.92,43.92,0,0,0-7.23-6.11l2.68-2.92A47.45,47.45,0,0,1,771.62,363.08ZM779.15,375l9.24-.62,1.05,15.76-9.34.62-1-14.46A45.79,45.79,0,0,1,776.22,391l-3-2.44c1.9-5,2.6-11.18,2.14-18.72l-.78-11.69,12.07-.8.9,13.63-8.36.56C779.18,372.74,779.17,373.9,779.15,375Zm-.61-13.33.41,6.23,4.62-.3-.41-6.24Zm6.74,16.21-2.68.18.61,9.15,2.68-.18Zm12.14-19.24,5.26-.35.25,3.74-14.37,1-.25-3.74,5.36-.36c-.49-1.17-1-2.25-1.56-3.24l3.84-.9C796.44,355.94,797,357.21,797.42,358.66Zm-8.24,15.69-.25-3.75,7.9-.52a40.25,40.25,0,0,0,1.49-6.84l3.59.23a32.09,32.09,0,0,1-1.57,6.37l3.33-.22.25,3.74-5.41.36.28,4.21,4.58-.31.25,3.75-4.58.3.58,8.6-3.93.26-.58-8.59-4.76.31-.25-3.74,4.76-.32-.28-4.2Zm6.36-5.49-2.87,1.45a39.38,39.38,0,0,0-2.76-5.16l3-1.5A37.29,37.29,0,0,1,795.54,368.86Z"/><path class="c" d="M810.76,370.33l-3-3.23A43.94,43.94,0,0,0,821.08,353l4.49.74c-.59,1.05-1.23,2.06-1.88,3.07l15.45-.81.18,3.33a47.39,47.39,0,0,1-4.63,5.63l10.6-.56.77,14.86-10.45.54.44,8.42c.07,1.39.66,2.05,1.82,2l7-.36a1.48,1.48,0,0,0,1.34-.95c.34-.67.47-2.58.39-5.78l4.24,1.13c-.13,4.64-.54,7.4-1.33,8.37A4.81,4.81,0,0,1,846,394l-9.2.48c-3.2.17-4.86-1.56-5-5.17l-.49-9.34-1.62.08a16.31,16.31,0,0,1-.85,2.41c-2.13,5.4-7.59,10.14-16.47,14.13l-3-3.28c7.81-3.37,12.8-7.3,15.07-11.73.16-.47.37-.9.54-1.28l-11,.57-.65-12.44C812.46,369.08,811.61,369.73,810.76,370.33Zm22.9-10.1-12.95.67a57.78,57.78,0,0,1-4.57,5l13.05-.68A56.6,56.6,0,0,0,833.66,360.23Zm-7,9.18-9,.47.35,6.66,8.1-.42A42.14,42.14,0,0,0,826.63,369.41Zm14.66-.76-10.27.53a41.42,41.42,0,0,1-.44,6.7l11.06-.57Z"/><path class="c" d="M856.92,380.46,854,377a53.64,53.64,0,0,0,12.22-15.66l-11.11.41-.17-4.31,13.2-.49a49.74,49.74,0,0,0,2.08-6.43l4.55.34c-.52,2-1.1,4-1.77,5.91l22.68-.84.16,4.3-24.62.92a55.57,55.57,0,0,1-5.93,10.14l.84,22.73-4.35.16-.66-17.82C859.78,377.76,858.4,379.11,856.92,380.46ZM879,371.81l-.3-8.15,4.49-.17.3,8.15,10.7-.4.16,4.26-10.7.4.43,11.39,12.73-.48.16,4.31-29.08,1.08-.16-4.3,11.85-.45-.42-11.38-10.14.37-.16-4.26Z"/><path class="c" d="M917.27,350.92l.22,9.68a22.63,22.63,0,0,0,7.76-11.43l4.23.74c-.3,1-.65,2-1,2.9l10.93-.24.07,3.19a29.24,29.24,0,0,1-6.08,9.91,33.69,33.69,0,0,0,10.44,5.05l-2.37,3.67a33.56,33.56,0,0,1-11.21-5.82,47.21,47.21,0,0,1-10.74,6.49l-2.76-3.46a47.4,47.4,0,0,0,10.43-5.93,30.39,30.39,0,0,1-3.68-4.87,39.18,39.18,0,0,1-3.49,3.32L917.49,361l.13,5.51-4.45.1.14,6.44,4.31-.09.09,4.16-4.31.1.16,7.22c1.84-.64,3.64-1.28,5.29-1.92l.1,4.45a159.36,159.36,0,0,1-16.75,5.32L900.9,388l2.17-.51-.36-16.26,3.89-.08.34,15.28c.87-.25,1.75-.5,2.57-.75l-.42-19-6.48.15-.34-15.56Zm-4.08,4.17-6.62.15.17,7.41,6.62-.15Zm26.94,36.47-4.21.1,0-1.76-10.14.22,0,1.76-4.17.09-.39-17.64,18.52-.41Zm-4.34-5.65-.17-7.91-10.15.22.18,7.92Zm-5.56-23a26.12,26.12,0,0,0,4.59-6.4l-8.29.18c-.18.29-.36.52-.54.76A28.71,28.71,0,0,0,930.23,363Z"/><path class="c" d="M963.2,350.34l.08,12.32a32.12,32.12,0,0,0,6.77-14.13l4.21.44a47.83,47.83,0,0,1-1.45,4.92l14.74-.09q-.18,18.07-.52,21a7.18,7.18,0,0,1-1.51,4c-.78.7-2.54,1.08-5.22,1.1h-1.21l-1-3.32-7,0,0,7.5c0,1.44.62,2.18,1.87,2.17l9.78-.06a2.6,2.6,0,0,0,2.3-1.17,20.57,20.57,0,0,0,.81-5l3.85,1.18a30.74,30.74,0,0,1-1.08,5.89c-.68,1.86-2.2,2.84-4.61,2.95l-12.69.08c-2.88,0-4.28-1.5-4.29-4.47l-.14-21.26c-.64.75-1.24,1.49-1.88,2.19l-1.73-2.17v1.21l-4.12,0,0,6.63,4.86,0,0,3.89-4.86,0,0,7.6c1.66-.57,3.33-1.14,4.9-1.7l0,4.21a133.23,133.23,0,0,1-15.82,4.74L947.17,387c.6-.15,1.16-.29,1.71-.38l-.1-16.31,3.8,0,.1,15.38c.87-.24,1.71-.48,2.54-.67l-.12-19.27-6.26,0-.09-15.38Zm-4.05,3.91-6.35,0,.05,7.6,6.35,0Zm22.33,21.64a1.27,1.27,0,0,0,1.29-.94,23,23,0,0,0,.3-3.05c0-1.44,0-6.12,0-14l-12,.08a45.47,45.47,0,0,1-3,5l11.35-.07.08,12.93C980.13,375.85,980.83,375.89,981.48,375.89Zm-6.05-3.11,0-5.93-4.4,0,0,5.93Z"/><path class="c" d="M1008.7,386.61l-4.17,0,0-2.92-5.37-.06-.05,4-4.21,0,.36-35.81,13.76.14Zm-4.1-7,.1-10-5.37-.05-.1,10Zm.14-14,.1-9.73-5.37-.05-.1,9.73Zm20.93-16.42-.05,4.36,8.16.08,0,4-8.16-.08,0,4.4,10.61.11-.05,4.07-25.47-.26,0-4.07,10.6.1.05-4.4-8.34-.08,0-4,8.34.08,0-4.35Zm.56,21.6,0-3.25,4.26.05,0,3.24,5.09.05,0,4.13-5.1-.06-.11,11.26c0,3.43-1.54,5.17-4.45,5.14l-5.61-.05-.88-4.18a47.31,47.31,0,0,0,5,.37c1.07,0,1.63-.81,1.65-2.39l.1-10.19-14.59-.15,0-4.12ZM1020.92,383l-3.5,2.42a58.92,58.92,0,0,0-5.3-7.33l3.45-2.09A63.89,63.89,0,0,1,1020.92,383Z"/><path class="c" d="M1051.05,358.8a22.91,22.91,0,0,0,4.93-4l-12-.33.1-3.8,17,.46-.09,3.2a21.64,21.64,0,0,1-7.39,7.63l5.37.15-.31,11.62-10.33-.28-.81,4.15,11.3.31c-.15,5.6-.48,9.34-1,11.18s-2.91,2.8-6.94,2.87c-1.67,0-3.29-.18-5-.31l-1-3.88c1.66.14,3.33.28,5.09.33,2.31.06,3.67-.32,4.06-1.15a22.09,22.09,0,0,0,.61-5.49l-11.53-.32,1.89-11.53,9.82.26.11-4.07-8.9-.24c-1.12.39-2.29.77-3.5,1.16l-2.59-3.55c1.68-.46,3.26-.93,4.71-1.45,1-.34,1.92-.73,2.77-1.08a55.39,55.39,0,0,0-4.59-3.42l3.3-1.95A52,52,0,0,1,1051.05,358.8Zm25.22-7a22.69,22.69,0,0,1-3.37,3,22.06,22.06,0,0,1-2.22,1.33,18.53,18.53,0,0,0,2.09,1.59,23.85,23.85,0,0,0,2.78-1.55,16.6,16.6,0,0,0,3.13-2.88l3,2a20.83,20.83,0,0,1-3.61,3.43c-.57.4-1.18.8-1.84,1.2a49.53,49.53,0,0,0,6.82,3.15l-3,3.39c-1.47-.64-2.84-1.28-4.12-2l-.09,3.29c0,.83.52,1.26,1.73,1.29l2.36.07-.1,3.56-3.52-.09c-2.87-.08-4.27-1.46-4.2-4l.07-2.41-5.7-.16a9,9,0,0,1-1,4.05,10.28,10.28,0,0,1-3.48,3.34l-2.94-2.77a10.45,10.45,0,0,0,3.06-3.3,16.11,16.11,0,0,0,.74-5l9.77.26a30.18,30.18,0,0,1-10.52-10.29l3.53-1.85a19.37,19.37,0,0,0,2.41,3.21,15.46,15.46,0,0,0,2.31-1.28,16.52,16.52,0,0,0,2.89-2.51Zm1.6,22.89-.1,3.7a19.72,19.72,0,0,1-4.07,6.61c2.74,1.65,5.15,3.25,7.33,4.84l-3.09,3a63.08,63.08,0,0,0-7.18-5.15,32.2,32.2,0,0,1-9.54,4.61l-1.51-3.89a27.94,27.94,0,0,0,7.17-3.1c-1.82-1.07-3.79-2.19-5.84-3.26l2.71-2.48c2.19,1.08,4.25,2.2,6.26,3.32a18.7,18.7,0,0,0,3.36-4.4l-12.18-.33.1-3.89Z"/><path class="c" d="M1089.2,373.32l-2.7-3.79q6.54-6.31,9.27-17.39l4.45,1q-.84,3.17-1.79,5.9l8.6.39.35-7.77,4.4.19-.35,7.78,14.86.67-.2,4.26-14.85-.67-.44,9.58,13.94.63-.2,4.25-13.93-.63-.47,10.56,17.81.8-.19,4.35-41-1.85.19-4.35,18.84.85.48-10.55-13.24-.6.19-4.26,13.24.6.43-9.58-10.18-.46A33.48,33.48,0,0,1,1089.2,373.32Z"/><path class="c" d="M1176.24,357.74,1176,362l-5.82-.37-2,30.56c-.21,3.33-1.94,4.89-5.08,4.69l-7.77-.49-.74-4.32c2.53.3,4.93.55,7.24.69,1.25.08,1.94-.57,2-1.95l1.87-29.46-31.3-2,.27-4.25Zm-19.45,26.94-14.56-.93-.24,3.79-4.21-.26,1.38-21.6,18.77,1.2Zm-3.9-4.24.63-9.89-10.41-.67-.63,9.9Z"/><path class="c" d="M1185.27,365.23a59.5,59.5,0,0,1-2.71,12.93l-3.47-1.27a56.14,56.14,0,0,0,2.79-12.18Zm6.4-8.72-3.54,42.39-4.2-.36,3.54-42.38Zm4.88,19-3.35.56a82.49,82.49,0,0,0-2-10.67l3.13-.72A93.47,93.47,0,0,1,1196.55,375.51Zm21.6,25.85-4.25-.36.19-2.26-13.76-1.15-.19,2.22-4.2-.35,3-35.65,6.42.54a32,32,0,0,0,2.56-6.76l4.43,1a32.68,32.68,0,0,1-2.7,6.15l11.5,1Zm-3.72-6.68.91-10.9-13.76-1.15-.91,10.9Zm1.23-14.78.89-10.57-13.76-1.15-.89,10.57Z"/><path class="c" d="M1241,401l-4.2-.44.26-2.39-7.29-.77-.39,3.74-4.19-.44,3.5-33.41,4.37.46a42.82,42.82,0,0,0,2.65-7.51l4.32,1.06a38.26,38.26,0,0,1-2.77,6.89l7.09.74Zm-3.52-6.89,1-9.08-7.28-.76-1,9.08Zm1.36-13,.89-8.48-7.29-.76-.88,8.47Zm25.52,19.67c-.81,3.27-3.19,4.7-7.11,4.29-.92-.1-2.57-.36-4.86-.74l-.64-4.12c2,.3,3.76.58,5.23.73a3,3,0,0,0,3.49-2.57c.51-2.28,1.46-10,2.93-23.13L1251.82,374a41.7,41.7,0,0,1-5.31,7.13l-2.27-3.73a40.48,40.48,0,0,0,8-15.52l4.28,1a54.23,54.23,0,0,1-2.6,7l14.24,1.49Q1265.62,395.27,1264.35,400.75Zm-6.9-9.29-3.71,2.08a87.68,87.68,0,0,0-6-10.88l3.78-1.84A76.78,76.78,0,0,1,1257.45,391.46Z"/><path class="c" d="M1292.64,375.1l.29-2.3-17.64-2.24.47-3.72,17.65,2.24.3-2.39,4.32.55-.3,2.39,17.64,2.24-.47,3.72-17.65-2.24-.29,2.3,13.61,1.72-1.2,9.47-13.61-1.72-.29,2.29,14.25,1.81-.77,6,4.65.59-.45,3.54-4.64-.59-.77,6L1293.49,403l-.29,2.35q-.54,4.28-5.1,3.7l-5.65-.72-.39-4.25a50.41,50.41,0,0,0,5.06,1c1.1.14,1.76-.29,1.89-1.25l.16-1.33-14.75-1.87.44-3.5,14.76,1.87.32-2.52-18.89-2.4.45-3.54,18.89,2.4.33-2.62L1276,388.4l.43-3.4,14.71,1.87.29-2.3-13.6-1.73,1.2-9.46Zm-.41,3.22-9.28-1.18-.38,3,9.29,1.18Zm2,18.65-.32,2.53,10.06,1.28.32-2.53Zm.45-3.53,10.06,1.27.33-2.62L1295,390.82Zm11.13-13.4-9.29-1.17-.37,3,9.28,1.18Z"/><path class="c" d="M1330.83,409.57l-4.22-.63.32-2.11-5-.75-.46,3.07-4.3-.65,5.19-34.49,13.47,2Zm-3.26-7,3.46-23-5-.75-3.46,23Zm29.86-2.95L1340,397,1338.37,408c-.3,2,.32,3.19,1.92,3.43l10.59,1.59a2.13,2.13,0,0,0,2.18-1.12,30.16,30.16,0,0,0,1.63-5.85l3.87,1.94a37.5,37.5,0,0,1-2.07,6.62,4.4,4.4,0,0,1-4.87,2.78l-13.74-2.06c-3.21-.49-4.53-2.61-4-6.32l5.13-34,21.62,3.25Zm-14.79-20-2,13.38,4.49.68,2-13.38ZM1353.82,395l2-13.38-4.68-.7-2,13.37Z"/><path class="c" d="M1385.69,413.37a3,3,0,0,1,.55,2.49,3.24,3.24,0,0,1-1.38,2.21,3.66,3.66,0,0,1-2.57.48,3.18,3.18,0,0,1-2.16-1.36,3.12,3.12,0,0,1-.6-2.51,3,3,0,0,1,1.42-2.15,3.2,3.2,0,0,1,2.49-.5A3.32,3.32,0,0,1,1385.69,413.37Zm5.21-26.89-5.17,23.18-3.6-.64,3.07-23.54Z"/><path d="M529.91,213.64c-2.32-8.73-15.55-11.88-21.56-5.13l.47.4a14.4,14.4,0,0,0,.52,28.2c8.81,1.65,17.43-5.58,20.08-14.14A17.06,17.06,0,0,0,529.91,213.64Zm-6.85,8.56c-1.56,5-6.63,9.29-11.81,8.32a8.47,8.47,0,0,1-.3-16.59l-.28-.23c3.53-4,11.32-2.12,12.68,3A9.94,9.94,0,0,1,523.06,222.2Z"/><path d="M531.36,213.24c-3.21-9.88-16.7-13.21-24.07-5.79a1.52,1.52,0,0,0,0,2.12l.47.4.66-2.5c-14.35,4.07-16.68,24.2-2.33,30.2s28-11,25.27-24.43c-.38-1.89-3.27-1.09-2.89.8,2.11,10.54-7.75,24.27-19.41,21.45-13.35-3.22-12.35-21.58.16-25.13a1.51,1.51,0,0,0,.66-2.51l-.46-.4v2.12c5.72-5.77,16.52-3.31,19.05,4.47C529.06,215.87,532,215.09,531.36,213.24Z"/><path d="M521.62,221.8c-1.63,4.53-6.68,9.21-11.74,6.63-6-3.06-4.66-11.21,1.46-13.05a1.52,1.52,0,0,0,.67-2.51l-.28-.23v2.12a6.05,6.05,0,0,1,6.69-1.19c3.6,1.43,4.1,4.66,3.2,8.23-.48,1.87,2.41,2.67,2.89.8,1.19-4.7.31-9.33-4.37-11.56a9.22,9.22,0,0,0-10.53,1.6,1.51,1.51,0,0,0,0,2.12l.28.23.66-2.5c-7.71,2.31-10.42,12.06-3.94,17.41,6.86,5.66,15.36-.25,17.9-7.3C525.16,220.78,522.26,220,521.62,221.8Z"/><path d="M515.26,445c-2.31-8.74-15.55-11.89-21.55-5.13l.46.4a14.4,14.4,0,0,0,.52,28.19c8.81,1.65,17.43-5.58,20.08-14.14A16.92,16.92,0,0,0,515.26,445Zm-6.85,8.55c-1.56,5-6.63,9.29-11.81,8.32a8.47,8.47,0,0,1-.3-16.58L496,445c3.54-4,11.32-2.12,12.68,3A9.94,9.94,0,0,1,508.41,453.5Z"/><path d="M516.71,444.55c-3.21-9.89-16.7-13.21-24.06-5.79a1.51,1.51,0,0,0,0,2.12l.46.4.66-2.51c-14.35,4.08-16.68,24.21-2.33,30.21s28-11,25.27-24.43c-.38-1.89-3.27-1.09-2.89.8,2.11,10.53-7.75,24.26-19.41,21.45-13.35-3.23-12.35-21.58.16-25.14a1.51,1.51,0,0,0,.66-2.5l-.46-.4v2.12c5.72-5.77,16.52-3.32,19.05,4.47C514.41,447.17,517.31,446.39,516.71,444.55Z"/><path d="M507,453.11c-1.63,4.52-6.68,9.21-11.74,6.62-6-3.06-4.66-11.21,1.47-13.05a1.51,1.51,0,0,0,.66-2.5l-.28-.24v2.12a6.05,6.05,0,0,1,6.69-1.19c3.6,1.44,4.1,4.67,3.2,8.24-.48,1.87,2.41,2.67,2.89.79,1.2-4.7.31-9.33-4.36-11.56a9.25,9.25,0,0,0-10.54,1.6,1.51,1.51,0,0,0,0,2.12l.28.24.66-2.51c-7.71,2.31-10.42,12.06-3.94,17.41,6.86,5.67,15.36-.24,17.9-7.3C510.51,452.08,507.62,451.3,507,453.11Z"/><path d="M1428.8,229.27c2.66,8.56,11.28,15.8,20.08,14.14a14.4,14.4,0,0,0,.52-28.19l.47-.4c-6-6.76-19.24-3.61-21.56,5.13A17,17,0,0,0,1428.8,229.27Zm6.07-6.25c1.37-5.14,9.15-7,12.68-3l-.27.24a8.47,8.47,0,0,1-.31,16.58c-5.18,1-10.25-3.28-11.81-8.31A10.08,10.08,0,0,1,1434.87,223Z"/><path d="M1427.36,229.67c4,11.34,17.67,20.92,28.68,12,10.37-8.45,6.21-24.31-6.24-27.85l.66,2.51.47-.4a1.51,1.51,0,0,0,0-2.12c-4.52-4.56-11.46-5.19-17.12-2.35-7.17,3.6-8.42,11.06-6.45,18.26a1.5,1.5,0,0,0,2.89-.79c-1.62-5.92-.86-11.94,5.07-14.88a11.65,11.65,0,0,1,13.49,1.88v-2.12l-.47.4a1.51,1.51,0,0,0,.66,2.51c10.92,3.1,13.79,17.55,3.66,23.67-9.36,5.66-19.36-2.74-22.41-11.46C1429.62,227.06,1426.72,227.84,1427.36,229.67Z"/><path d="M1436.32,223.42a6.32,6.32,0,0,1,10.17-2.36v-2.12l-.27.24a1.52,1.52,0,0,0,.66,2.51c6.77,2,7.39,12-.12,13.59-6.41,1.33-11.41-6.16-10.44-11.86.32-1.89-2.57-2.7-2.89-.8-1.45,8.47,6.87,19.31,16.1,14.91,8.65-4.11,6.89-16.12-1.85-18.74l.66,2.51.27-.24a1.51,1.51,0,0,0,0-2.12,9.35,9.35,0,0,0-15.18,3.68C1432.8,224.45,1435.7,225.24,1436.32,223.42Z"/><path d="M1443.45,460.58c2.65,8.56,11.28,15.79,20.08,14.14a14.4,14.4,0,0,0,.52-28.2l.47-.4c-6-6.75-19.24-3.6-21.56,5.13A17.05,17.05,0,0,0,1443.45,460.58Zm6.07-6.25c1.37-5.14,9.15-7,12.68-3l-.27.23a8.47,8.47,0,0,1-.31,16.59c-5.18,1-10.25-3.28-11.81-8.32A10,10,0,0,1,1449.52,454.33Z"/><path d="M1442,461c4,11.33,17.68,20.91,28.69,11.94,10.36-8.44,6.21-24.31-6.24-27.84l.66,2.5.47-.4a1.52,1.52,0,0,0,0-2.12c-4.52-4.55-11.46-5.19-17.12-2.34-7.17,3.6-8.42,11.06-6.46,18.26a1.51,1.51,0,0,0,2.9-.8c-1.62-5.91-.86-11.93,5.07-14.87a11.63,11.63,0,0,1,13.49,1.87v-2.12l-.47.4a1.51,1.51,0,0,0,.66,2.51c10.92,3.1,13.79,17.55,3.65,23.68-9.35,5.66-19.36-2.74-22.4-11.47C1444.27,458.37,1441.37,459.15,1442,461Z"/><path d="M1451,454.73a6.31,6.31,0,0,1,10.17-2.36v-2.12l-.27.23a1.51,1.51,0,0,0,.66,2.51c6.76,2,7.39,12-.12,13.59-6.41,1.34-11.41-6.15-10.44-11.85.32-1.89-2.57-2.7-2.89-.8-1.45,8.46,6.86,19.3,16.1,14.91,8.65-4.12,6.88-16.12-1.85-18.74l.66,2.51.27-.24a1.51,1.51,0,0,0,0-2.12,9.34,9.34,0,0,0-15.18,3.68C1447.45,455.76,1450.35,456.55,1451,454.73Z"/><path d="M488.38,198.59Q485.8,308.89,477,418.91,474.49,450,471.5,481c-.19,1.92,2.81,1.9,3,0q10.58-109.83,14.93-220.12,1.23-31.14,1.95-62.3c0-1.93-3-1.93-3,0Z"/><path d="M1481.32,488.49c-1.74-75.6-2.52-151.25-7.1-226.74-1.29-21.08-2.88-42.14-4.9-63.16-.18-1.91-3.18-1.93-3,0,7.22,75.28,9.08,151,10.66,226.52.44,21.12.85,42.25,1.34,63.38,0,1.92,3,1.93,3,0Z"/><path d="M1267.06,189.38l72,6.88,35.51,3.39c11.79,1.13,23.55,2.34,34.72,6.53,1.81.68,2.59-2.22.8-2.89-10.23-3.84-21-5.22-31.79-6.28-12.42-1.22-24.85-2.38-37.27-3.56l-74-7.07c-1.92-.18-1.91,2.82,0,3Z"/><path d="M578.78,461.14l166.88-22.9c1.9-.26,1.09-3.15-.8-2.89L578,458.24c-1.91.27-1.1,3.16.8,2.9Z"/><path d="M706.46,179.79q99.1-7.38,198.59-5.4c1.93,0,1.93-3,0-3q-99.36-2-198.59,5.4c-1.91.14-1.93,3.14,0,3Z"/><path class="a" d="M1447.5,445q-5.37,14.88-9.7,30.12a1.44,1.44,0,0,0,0,1.25,1.39,1.39,0,0,0,.7.42l19.06,6.87,9.31-22.42a4.27,4.27,0,0,0,.49-2.48c-.26-1.18-1.44-1.9-2.52-2.47l-18.33-9.85"/><path d="M1446.06,444.62q-2.83,7.89-5.4,15.86c-1,3-1.86,5.92-2.75,8.89-.52,1.76-1.85,4.38-1.7,6.22.2,2.56,2.32,2.81,4.53,3.6l16.46,5.93a1.53,1.53,0,0,0,1.85-1l6.09-14.66c1.2-2.9,4.53-7.74,3.7-11-.69-2.78-4.35-4-6.53-5.17l-15-8.05c-1.7-.91-3.22,1.67-1.51,2.59l10,5.37c3.55,1.9,10.15,3.8,9.32,8.59-.57,3.3-3,7.25-4.3,10.35l-4.66,11.21,1.85-1-12.13-4.37c-1.36-.49-4.95-1.07-5.91-2.1s.31-3.77.85-5.59q3.7-12.5,8.14-24.75c.65-1.82-2.24-2.6-2.89-.8Z"/><path d="M1447.22,457.47a89.29,89.29,0,0,0-5.62,17.31c-.4,1.88,2.49,2.69,2.9.8a84.83,84.83,0,0,1,5.31-16.59c.77-1.75-1.82-3.28-2.59-1.52Z"/><path class="a" d="M1450,431.31c3.81.68,6.84,3.46,9.64,6.12l17.09,16.25c2.08,2,4.23,4.05,5.18,6.76,1.92,5.47-1.62,11.22-5,15.95-1.4,2-3.36,4.16-5.72,3.7a6.35,6.35,0,0,1-3.33-2.5q-15-17.8-28.33-36.95Z"/><path d="M1449.55,432.75c4.31,1.09,7.29,4.14,10.41,7.1l10,9.47c3,2.89,7,5.81,9.33,9.36,3.21,4.88.9,9.92-1.86,14.28-.59.91-1.19,1.8-1.82,2.67l-5.74,2c-1.34-.33-3.65-4.29-4.54-5.37q-4.14-5-8.16-10.16-8.49-10.86-16.35-22.19l-.24,1.82,10.46-9.33c1.44-1.29-.68-3.41-2.12-2.12l-10.46,9.33a1.51,1.51,0,0,0-.23,1.82q10.77,15.44,22.62,30.07c2.48,3.06,6,9.6,10.33,10.12,3.94.47,6.54-3.63,8.39-6.44,2.55-3.86,4.94-8.43,4.21-13.22-.64-4.23-3.76-7.17-6.72-10q-7.46-7.12-15-14.21c-3.53-3.35-6.89-6.65-11.73-7.87C1448.48,429.39,1447.68,432.28,1449.55,432.75Z"/><path d="M1455.71,455.88l15.79,15.42c1.39,1.35,3.51-.77,2.13-2.12l-15.8-15.42c-1.38-1.35-3.51.77-2.12,2.12Z"/><path class="a" d="M1430.81,446.87a311.38,311.38,0,0,1,47.89-7.57l7.65,15.21c.47.94.94,2.11.35,3a3.07,3.07,0,0,1-2.22,1l-51,7.46-2.72-19.08"/><path d="M1431.21,448.32q12.68-3,25.56-5c5.07-.78,10.16-1.44,15.26-1.95,2.15-.21,4.43-1,6.22.38,1.26.95,2.25,4.46,3,5.91.89,1.77,2.56,4,3,5.92,1,4.88-2.6,3.83-6,4.33l-14.7,2.15-30.38,4.44,1.85,1.05-2.72-19.08c-.27-1.9-3.17-1.09-2.9.8l2.73,19.08c.12.87,1.13,1.15,1.84,1l45.07-6.6c3-.44,9.79,0,9.42-4.77-.19-2.47-2.24-5.19-3.33-7.35l-5.1-10.13a1.47,1.47,0,0,0-1.29-.75,310.31,310.31,0,0,0-48.29,7.62c-1.88.45-1.08,3.34.8,2.9Z"/><path d="M1440.88,460.87q18.54-4.72,37.35-8.23l-.79-2.89-.41.09c-1.88.44-1.08,3.33.8,2.9l.4-.1c1.9-.43,1.08-3.24-.79-2.89q-18.82,3.5-37.35,8.23a1.5,1.5,0,0,0,.79,2.89Z"/><path d="M1488.94,453l-7.65-15.2a3,3,0,0,0-2.59-1.49c-3.41.26-6.8.57-10.2.95-1.07.12-3.23.74-4.36.37s-2.6-2.5-3.49-3.31c-2.64-2.39-7.88-7.24-11.86-5.74-2,.75-3.94,3.27-5.48,4.65l-5.94,5.3a3,3,0,0,0-.47,3.64l2.64,3.74,1.79-4.4q-5.67,1.14-11.32,2.48c-1.72.4-2.31,2.13-2.09,3.69q1.36,9.54,2.72,19.08c.25,1.73,2.26,2.3,3.69,2.09l7.33-1.07-3.69-3.69c-1.17,3.79-5.54,11.61-1.65,14.9,2.11,1.78,5.79,2.3,8.35,3.22l12.13,4.37c1.66.6,3.11-.7,3.69-2.09l5.1-12.28-5,1.33c4.66,5.7,10.46,14,17.51,6.16,5.42-6.05,9.26-14.43,5.69-22.23l-1.79,4.41c4.92-.72,9.49-2.22,7.25-8.16-1.35-3.58-7.15-2-5.79,1.6.24.62-2.41.68-3.06.77-2.09.31-2.49,2.87-1.79,4.41,2.05,4.47-.78,10.32-3.86,13.73-2.85,3.15-3.72,2.5-5.83,0-1.39-1.63-2.73-3.3-4.09-5-1.6-1.95-4.25-.51-5,1.33l-5.1,12.27,3.69-2.1-14.73-5.3c-.3-.11-3.71-.82-2.79-.24-.27,1-.25.93.06-.16.16-.58.33-1.15.5-1.72.75-2.57,1.53-5.13,2.32-7.69.74-2.4-1.57-4-3.69-3.69l-7.34,1.08,3.69,2.09q-1.35-9.54-2.72-19.08l-2.09,3.69q5.64-1.33,11.32-2.48a3,3,0,0,0,1.79-4.4l-2.64-3.75-.47,3.63,10.46-9.33-2.92.77a16.85,16.85,0,0,1,7.26,4.36c1.68,1.51,3.53,4.28,5.67,5.08s5.18-.25,7.29-.48c3.11-.34,6.21-.62,9.33-.86l-2.59-1.48,7.65,15.2C1485.49,459.47,1490.67,456.44,1488.94,453Z"/><path class="a" d="M1458.71,216.54q-14.65-6-29.7-10.92a1.44,1.44,0,0,0-1.25,0,1.41,1.41,0,0,0-.45.69l-7.64,18.76,22,10.22a4.25,4.25,0,0,0,2.46.58c1.19-.21,2-1.36,2.57-2.4l10.58-17.92"/><path d="M1459.1,215.09q-7.75-3.15-15.62-6c-2.92-1.06-5.84-2.1-8.78-3.1-1.71-.59-4.32-2.06-6.14-1.95-2.54.14-2.87,2.31-3.74,4.45l-6.6,16.2a1.52,1.52,0,0,0,.69,1.7l14.4,6.68c2.79,1.29,7.69,4.86,11,4.3,2.93-.49,4.3-4.19,5.6-6.39l8.66-14.65a1.5,1.5,0,0,0-2.59-1.52l-5.77,9.77c-2.34,4-3.76,9.74-9.48,8.65-3.27-.62-7.13-3.3-10.17-4.72l-10.16-4.71.69,1.69,4.86-11.94c.54-1.32,1.27-4.89,2.36-5.78s3.82.51,5.57,1.11c8.22,2.81,16.35,5.88,24.4,9.14,1.78.73,2.56-2.17.79-2.89Z"/><path d="M1446.22,215.71a90.12,90.12,0,0,0-17.07-6.3c-1.87-.48-2.66,2.42-.79,2.9a85.88,85.88,0,0,1,16.35,6c1.73.85,3.25-1.74,1.51-2.59Z"/><path class="a" d="M1472.31,219.54c-.84,3.78-3.74,6.69-6.51,9.38l-16.93,16.42c-2.06,2-4.22,4.06-7,4.9-5.55,1.7-11.16-2.07-15.74-5.64-1.9-1.47-4-3.52-3.47-5.86a6.38,6.38,0,0,1,2.64-3.23q18.4-14.28,38.07-26.8Z"/><path d="M1470.86,219.14c-1.25,4.26-4.46,7.1-7.54,10.09q-4.92,4.8-9.87,9.58c-3,2.93-6.09,6.73-9.73,8.93-4.92,3-10,.41-14.2-2.5-2.48-1.73-5.19-4.21-4.23-7.75.45-1.66,5.17-4,6.73-5.21q5.2-3.92,10.52-7.7,10.62-7.56,21.63-14.57l-1.82-.24,8.9,10.83c1.22,1.49,3.34-.64,2.12-2.12l-8.9-10.83a1.5,1.5,0,0,0-1.82-.23q-16.49,10.53-32.15,22.27c-2.87,2.17-8.7,5.09-9.3,9.05s3.39,6.63,6.15,8.61c3.74,2.7,8.24,5.28,13,4.72,4.26-.5,7.31-3.52,10.25-6.35q7.41-7.17,14.81-14.37c3.5-3.4,6.89-6.61,8.3-11.41C1474.3,218.08,1471.41,217.29,1470.86,219.14Z"/><path d="M1447.48,224.33l-16.06,15.16c-1.4,1.33.72,3.45,2.13,2.12l16-15.15c1.41-1.33-.72-3.45-2.12-2.13Z"/><path class="a" d="M1457.54,199.78a312,312,0,0,1,5.61,48.16l-15.5,7c-1,.44-2.16.86-3,.23a3.07,3.07,0,0,1-.9-2.25l-5.38-51.21,19.18-1.95"/><path d="M1456.09,200.18q2.63,13.47,4.09,27.12c.5,4.64.9,9.29,1.17,14,.13,2.2.79,4.41-.68,6.17-1,1.22-4.53,2-6,2.73-2,.91-4,1.84-6,2.73-2.23,1.89-3.42,1.26-3.58-1.92l-.41-3.94-1.55-14.77-3.21-30.53-1.5,1.5,19.18-1.95c1.9-.19,1.92-3.19,0-3l-19.18,1.95c-.74.07-1.59.63-1.5,1.5l5,47.27c.31,2.95,0,8.05,4.16,7.95,2.22-.05,4.8-1.77,6.73-2.64l11.2-5.07a1.5,1.5,0,0,0,.74-1.3,308.29,308.29,0,0,0-5.67-48.55c-.36-1.9-3.26-1.1-2.89.79Z"/><path d="M1443.15,209.34q4,18.71,6.7,37.65l2.9-.8-.08-.4c-.36-1.9-3.25-1.1-2.89.79l.07.41c.36,1.92,3.17,1.07,2.9-.8q-2.73-18.93-6.71-37.65c-.4-1.89-3.29-1.09-2.89.8Z"/><path d="M1449.16,257.55l15.5-7a2.94,2.94,0,0,0,1.49-2.59c-.12-3.41-.29-6.82-.53-10.23-.09-1.18-.57-3.15-.11-4.33s2.59-2.48,3.45-3.36c2.49-2.52,7.53-7.62,6.09-11.63-.72-2-3.15-4-4.47-5.65l-5-6.15a3,3,0,0,0-3.64-.47L1458,208.6l4.41,1.8q-.92-5.73-2-11.41a3,3,0,0,0-2.89-2.21l-19.18,1.95c-1.48.15-3.18,1.25-3,3l.78,7.36,3.79-2.89c-3.78-1.34-11.36-6-14.76-2.11-1.82,2.1-2.49,5.68-3.53,8.22l-4.86,11.95a3,3,0,0,0,1.38,3.38l12,5.6v-5.18c-5.2,3.91-14.76,9.32-8.36,16.64,5.18,5.94,14.55,11,22.34,7.82l-3.8-2.89c.52,4.93,1.62,10.7,8,8.23,3.57-1.38,2-7.18-1.59-5.79-1.55.59-.28-.72-.46-2.44s-1.81-3.71-3.8-2.89c-4.86,2-9-.41-13-3.28-2.65-1.92-4.68-3.83-1.5-6.34,1.69-1.32,3.41-2.6,5.12-3.88s2.27-4.13,0-5.18l-12.06-5.6,1.38,3.39,5.91-14.5c.08-.21,1.17-3.66.39-2.7-.93-.22-.86-.18.2.14l1.69.57c2.54.85,5.07,1.74,7.59,2.63a3,3,0,0,0,3.8-2.9l-.78-7.36-3,3,19.18-1.95-2.9-2.2q1.11,5.68,2,11.41c.31,1.89,2.91,2.77,4.41,1.8,1.28-.84,2.57-1.66,3.85-2.49l-3.63-.47,8.9,10.83-.77-2.92c-.85,2.87-2.64,4.95-4.7,7-1.6,1.61-4.43,3.36-5.28,5.49s.09,5.21.24,7.32c.21,3.11.36,6.23.47,9.35l1.48-2.59-15.5,7C1442.62,254,1445.67,259.14,1449.16,257.55Z"/><path class="a" d="M504.32,206.85Q499,221.73,494.62,237a1.43,1.43,0,0,0,0,1.25,1.33,1.33,0,0,0,.7.42l19.06,6.87,9.31-22.42a4.25,4.25,0,0,0,.48-2.47c-.25-1.19-1.44-1.9-2.51-2.48l-18.33-9.84"/><path d="M502.87,206.45c-1.88,5.25-3.69,10.54-5.39,15.86-1,2.95-1.86,5.92-2.75,8.89-.52,1.75-1.86,4.38-1.71,6.21.21,2.56,2.33,2.81,4.54,3.61L514,247a1.54,1.54,0,0,0,1.85-1L522,231.24c1.2-2.9,4.52-7.74,3.7-11-.7-2.77-4.35-4-6.53-5.16l-15-8.06c-1.7-.91-3.22,1.68-1.52,2.59l10,5.37c3.55,1.91,10.15,3.81,9.32,8.6-.57,3.3-3,7.24-4.3,10.34L513,245.1l1.85-1-12.13-4.37c-1.36-.49-5-1.08-5.91-2.1s.3-3.77.85-5.59q3.71-12.5,8.14-24.75c.65-1.82-2.25-2.61-2.9-.8Z"/><path d="M504,219.3a89.2,89.2,0,0,0-5.62,17.3c-.4,1.89,2.49,2.69,2.89.8a85.53,85.53,0,0,1,5.32-16.59c.77-1.75-1.82-3.28-2.59-1.51Z"/><path class="a" d="M506.77,193.13c3.8.68,6.84,3.47,9.64,6.13L533.5,215.5c2.08,2,4.23,4.06,5.18,6.76,1.92,5.48-1.62,11.23-5,16-1.4,2-3.36,4.17-5.72,3.71a6.37,6.37,0,0,1-3.33-2.51q-15-17.81-28.33-36.94Z"/><path d="M506.37,194.58c4.31,1.08,7.28,4.13,10.4,7.09l10,9.48c3,2.88,7,5.8,9.34,9.35,3.2,4.89.9,9.92-1.86,14.29q-.88,1.35-1.83,2.67l-5.73,2c-1.34-.33-3.65-4.28-4.54-5.36Q518,229,514,223.89q-8.49-10.86-16.35-22.18l-.24,1.82,10.46-9.34c1.44-1.28-.68-3.4-2.12-2.12l-10.46,9.34a1.48,1.48,0,0,0-.23,1.81q10.77,15.43,22.62,30.08c2.48,3,6,9.59,10.33,10.12,3.93.46,6.53-3.63,8.39-6.44,2.54-3.86,4.94-8.44,4.21-13.22-.64-4.24-3.77-7.18-6.72-10l-15-14.21c-3.52-3.34-6.88-6.65-11.72-7.86C505.29,191.22,504.5,194.11,506.37,194.58Z"/><path d="M512.52,217.7l15.8,15.43c1.39,1.35,3.51-.77,2.12-2.12l-15.79-15.43c-1.39-1.35-3.51.77-2.13,2.12Z"/><path class="a" d="M487.63,208.7a309,309,0,0,1,47.89-7.57l7.65,15.2c.47.95.94,2.12.35,3a3.07,3.07,0,0,1-2.22,1l-50.95,7.46-2.72-19.08"/><path d="M488,210.14q12.68-3,25.56-5c5.07-.78,10.16-1.44,15.26-2,2.15-.21,4.43-1,6.22.38,1.26.94,2.25,4.46,3,5.91.89,1.77,2.56,4,3,5.91,1,4.88-2.6,3.84-6,4.33l-14.7,2.15L490,226.33l1.85,1-2.72-19.08c-.28-1.91-3.17-1.1-2.9.79l2.72,19.08c.13.87,1.14,1.16,1.85,1.05l45.07-6.59c3-.45,9.78,0,9.42-4.78-.19-2.46-2.24-5.19-3.33-7.34l-5.1-10.14a1.46,1.46,0,0,0-1.29-.74,308,308,0,0,0-48.29,7.62c-1.88.45-1.08,3.34.8,2.89Z"/><path d="M497.7,222.7q18.54-4.72,37.35-8.23l-.8-2.89-.4.09c-1.88.43-1.08,3.33.8,2.89l.4-.09c1.9-.44,1.08-3.24-.8-2.89q-18.81,3.49-37.35,8.23c-1.87.47-1.07,3.37.8,2.89Z"/><path d="M545.76,214.82l-7.65-15.2a2.93,2.93,0,0,0-2.59-1.49c-3.41.25-6.81.56-10.2,1-1.08.12-3.24.73-4.36.37s-2.6-2.51-3.49-3.31c-2.65-2.4-7.88-7.24-11.86-5.75-2,.75-3.94,3.28-5.48,4.65l-5.94,5.31a3,3,0,0,0-.47,3.63l2.64,3.75,1.79-4.41q-5.68,1.16-11.32,2.48a3.08,3.08,0,0,0-2.09,3.69q1.35,9.54,2.72,19.08c.25,1.74,2.26,2.31,3.69,2.1l7.33-1.07-3.69-3.69c-1.17,3.79-5.55,11.6-1.65,14.89,2.11,1.79,5.79,2.3,8.35,3.22l12.13,4.38c1.66.59,3.11-.7,3.69-2.1l5.1-12.27-5,1.32c4.66,5.7,10.45,14,17.51,6.17,5.42-6.06,9.26-14.43,5.69-22.23l-1.79,4.4c4.92-.71,9.49-2.21,7.25-8.15-1.35-3.58-7.16-2-5.79,1.59.24.63-2.41.68-3.06.78-2.1.31-2.5,2.87-1.79,4.41,2,4.46-.78,10.32-3.86,13.72-2.85,3.15-3.72,2.51-5.83,0-1.39-1.63-2.74-3.29-4.09-4.95-1.6-2-4.25-.52-5,1.32q-2.54,6.13-5.09,12.28l3.69-2.1-14.73-5.31c-.31-.11-3.71-.81-2.79-.24-.27,1-.25.93.06-.16.16-.57.33-1.14.5-1.71.75-2.57,1.53-5.13,2.31-7.69.75-2.41-1.57-4-3.69-3.69l-7.33,1.07,3.69,2.1q-1.35-9.54-2.72-19.08l-2.09,3.69q5.64-1.34,11.32-2.48a3,3,0,0,0,1.79-4.41c-.88-1.25-1.76-2.49-2.64-3.75l-.47,3.64,10.46-9.34L506,196a16.73,16.73,0,0,1,7.26,4.35c1.68,1.52,3.53,4.29,5.67,5.08s5.18-.25,7.29-.48q4.65-.51,9.33-.85l-2.59-1.49q3.83,7.61,7.64,15.21C542.31,221.3,547.49,218.26,545.76,214.82Z"/><path class="a" d="M504.69,463q7.45-14,13.93-28.41a1.45,1.45,0,0,0,.15-1.24,1.49,1.49,0,0,0-.64-.52l-17.87-9.54-12.45,20.85a4.31,4.31,0,0,0-.83,2.38c.09,1.21,1.15,2.09,2.13,2.81l16.73,12.38"/><path d="M506,463.77q3.94-7.39,7.63-14.92,2-4.19,4-8.41c.8-1.72,2.28-3.87,2.57-5.75.43-2.69-1.5-3.26-3.72-4.44L501,422a1.52,1.52,0,0,0-2.05.54l-8.13,13.63c-1.6,2.67-5.67,7.14-5.32,10.55.3,2.9,3.84,4.65,5.88,6.16L505.08,463c1.55,1.15,3.05-1.45,1.51-2.59l-9.12-6.75c-1.52-1.12-3.05-2.24-4.56-3.37-2.64-2-4.66-2.6-3.32-6.19,1.21-3.26,4-6.64,5.74-9.63l6.22-10.42-2.05.54,11.37,6.07c1,.55,4.13,1.7,4.88,2.6,1.8,2.18-.19,4.48-1.13,6.5q-5.3,11.4-11.23,22.48c-.9,1.71,1.69,3.22,2.59,1.52Z"/><path d="M506.88,450.55a88,88,0,0,0,8-16.34c.67-1.82-2.23-2.6-2.89-.8a84.89,84.89,0,0,1-7.7,15.62c-1,1.65,1.57,3.15,2.59,1.52Z"/><path class="a" d="M500.29,476.23c-3.66-1.22-6.27-4.41-8.66-7.45l-14.57-18.53c-1.78-2.25-3.6-4.62-4.15-7.44-1.12-5.69,3.21-10.87,7.23-15.07,1.66-1.73,3.92-3.63,6.19-2.84a6.39,6.39,0,0,1,2.94,3Q501.55,447.63,512,468.5Z"/><path d="M500.69,474.78c-4.07-1.67-6.58-5.27-9.21-8.6L483,455.36c-2.6-3.29-6.14-6.73-7.85-10.63-2.5-5.71,1.29-10.75,5-14.76.69-.76,1.41-1.5,2.16-2.2l5.71.85c1.46.88,3,4.87,3.89,6.35q3.36,5.59,6.57,11.27,6.44,11.34,12.26,23l.54-2.05-11.69,7.73c-1.61,1.06-.11,3.66,1.51,2.59l11.69-7.73a1.54,1.54,0,0,0,.54-2.05q-8.77-17.49-18.83-34.28c-1.88-3.12-4.09-9.13-8.12-10.06-4.19-1-7.65,3.51-10,6.29-2.69,3.25-5.28,7.18-5.13,11.58s2.86,7.6,5.37,10.81q6.38,8.12,12.76,16.22c3.05,3.87,5.87,7.46,10.53,9.38C501.68,478.41,502.46,475.51,500.69,474.78Z"/><path d="M498.23,451.23l-13.42-17.54c-1.16-1.51-3.76,0-2.59,1.51l13.42,17.54c1.15,1.51,3.76,0,2.59-1.51Z"/><path class="a" d="M521.47,463.58a310.16,310.16,0,0,1-48.48.6L467.61,448c-.33-1-.62-2.23.08-3a3.05,3.05,0,0,1,2.34-.66l51.49-.05,0,19.27"/><path d="M521.47,462.08a305.33,305.33,0,0,1-48.48.6l1.45,1.1-2.69-8.07c-.67-2-3-6.09-2.69-8.07.45-2.93,5.8-1.79,7.9-1.79h8.91l35.65,0-1.5-1.5,0,19.27a1.5,1.5,0,0,0,3,0l0-19.27a1.51,1.51,0,0,0-1.5-1.5l-46.54,0c-2.93,0-8.57-1.11-9.2,3.08-.36,2.45,1.45,5.71,2.18,7.89l3.59,10.76a1.55,1.55,0,0,0,1.44,1.1,305.33,305.33,0,0,0,48.48-.6c1.91-.17,1.93-3.17,0-3Z"/><path d="M513.71,448.26q-19,2-38.15,2.78v3l.41,0c1.91-.16,1.93-3.16,0-3l-.41,0c-1.9.15-1.95,3.07,0,3q19.13-.77,38.15-2.78c1.9-.2,1.92-3.2,0-3Z"/><path d="M464.72,448.83,470.1,465a3.13,3.13,0,0,0,2.89,2.2q5.11.36,10.23.53c3.91.12,4.35.78,6.75,3.76,2.22,2.77,6.88,8.58,11.12,7.65,2-.43,4.16-2.58,5.77-3.64l6.64-4.39a3.09,3.09,0,0,0,1.08-4.11l-2.08-4.09-2.59,4.52q5.79-.33,11.56-.83a3.06,3.06,0,0,0,3-3q0-9.63,0-19.27a3,3,0,0,0-3-3h-7.4l2.59,4.51c1.66-3.5,7.13-10.7,4.18-14.59-1.64-2.16-5.42-3.21-7.74-4.46l-11.38-6.07a3.07,3.07,0,0,0-4.11,1.08q-3.39,5.7-6.81,11.41H496c-3.47-5.77-7.83-15.38-15.78-9.56-6.49,4.76-12.2,13.3-9.8,21.51l2.9-3.8c-5.26,0-10.42.89-8.64,7.48,1,3.73,6.8,2.15,5.79-1.59-.75.15-.64.18.35.12h2.5a3,3,0,0,0,2.89-3.79c-1.54-5.26,2-9.52,5.46-13.11,4.43-4.65,7.11,2.39,9.14,5.78a3,3,0,0,0,5.19,0l6.81-11.41-4.11,1.07,13,6.94c2.6,1.39,3.71.84,2.81,3.51a61.05,61.05,0,0,1-3,6.46,3,3,0,0,0,2.59,4.52h7.4l-3-3q0,9.63,0,19.27l3-3q-5.78.51-11.56.83a3,3,0,0,0-2.59,4.51c.7,1.36,1.39,2.73,2.08,4.09l1.07-4.1-5.45,3.6c-1.08.72-4.84,4.17-6.17,4.08,1.36.09-1.52-2.81-1.76-3-.87-.86-1.65-1.81-2.43-2.75-1.35-1.64-2.78-4.48-4.62-5.56s-5.54-.49-7.69-.56q-4.68-.17-9.36-.5l2.9,2.2q-2.7-8.07-5.38-16.14C469.29,443.59,463.49,445.16,464.72,448.83Z"/></svg>