<svg xmlns="http://www.w3.org/2000/svg" viewBox="0 0 853.02 528.27"><defs><style>.a{fill:#fff;}</style></defs><title>cloud-right</title><path class="a" d="M477.27,178.56c-27.52-25.31-65.1-38.55-102.48-39.13-36.78-.58-74.67,11.42-100.69,37.43s-38,66.92-25.09,101.36,52.83,58,88.23,48A83.07,83.07,0,0,0,442,414c4.55,25.88,36.11,43,60.31,32.79,5.56,18.74,23.79,33,43.32,33.81,7.55.32,15.18-1.16,22.65,0,13.14,2,23.57,11.6,34.32,19.41,28.3,20.57,65.09,30.61,99.2,22.86s64.21-34.79,71.56-69c2,6.9,10.65,10,17.61,8.26s12.43-7,17.28-12.29c19.64-21.41,35-47.45,40.2-76s-.66-59.79-19.07-82.27-50.06-34.48-77.94-26.33c18.62-13.05,26.16-38.7,20.6-60.75s-22.6-40.13-43-50.22-43.77-12.84-66.46-11.43c-20.6,1.28-41.32,6-59.07,16.51s-32.33,27.3-37.5,47.29c.48-21.62-13.39-42.86-33.38-51.11s-44.81-2.95-59.7,12.72"/><path d="M479.39,176.43c-47-42.64-121.65-52.82-178-23.18-26.73,14.05-47.55,37.59-56.29,66.69-8.16,27.14-4.85,57.5,13,80.13,18.57,23.61,50.39,37.05,80,29.06l-3.8-2.89c-2.28,27.43,9,55.7,30.22,73.46,21.49,18,51.25,24.35,78.29,17.22l-3.69-2.09c5.34,27.58,37.9,45.41,64,34.88l-3.69-2.09c6,19.13,23.32,33.67,43.36,35.79,6.63.7,13.23-.36,19.87-.24a38.61,38.61,0,0,1,18.77,5.47c10.32,5.9,19.07,14.17,29.24,20.32,38.52,23.32,89.29,27.69,127.32,1,18.87-13.24,33.18-32.64,38.27-55.29h-5.79c2.83,8,11.1,11.85,19.26,10.72,10.11-1.4,17.61-9.85,23.94-17.11,14.74-16.89,26.84-36.35,33.7-57.78,13-40.65,4.42-90.41-32.19-116.07-18.59-13-42.48-18.28-64.53-12.11l2.31,5.48c16.42-11.89,24.89-32,23.79-52.09C775.55,194.91,763.94,176,748,163c-18.22-14.84-41.22-21.71-64.41-23.19-24.89-1.59-51.23,1.91-73.85,12.79-22,10.56-40.19,29.38-46.65,53.24l5.89.8c.17-22.92-13.92-45-35.23-53.85s-47-3-63,13.34c-2.7,2.76,1.54,7,4.25,4.24,14.34-14.66,37.27-19.94,56.41-12.07s31.71,27.84,31.55,48.34c0,3.38,5,4.07,5.89.79,12.06-44.48,60.81-61.4,102.43-61.92,40-.5,87,16.8,97.79,59.78,5.17,20.65-1.64,44.63-19.23,57.36-2.61,1.89-1.17,6.46,2.32,5.48,36.66-10.25,74,13.28,87.76,47.25,14.89,36.8,5.19,77.5-16,109.64a162.53,162.53,0,0,1-21,26.08c-3.9,3.86-8.77,7.87-14.46,8.48-4.88.52-10.46-1.58-12.2-6.48-.92-2.6-5.09-3.09-5.79,0-9.07,40.39-47.72,67.73-88.06,69.32-22.44.88-44.91-5.23-64.44-16.14-18-10.07-33.28-28.72-55.31-29.09-6.62-.11-13.25,1-19.87.24a43.71,43.71,0,0,1-16-5.23A45.67,45.67,0,0,1,505.16,446c-.45-1.41-2.14-2.72-3.69-2.09-23.25,9.38-51.85-6-56.63-30.7a3,3,0,0,0-3.69-2.1c-25.38,6.7-53.71.67-73.62-16.67-19.38-16.89-29.4-42.72-27.29-68.22.17-2-2-3.37-3.8-2.9-24.83,6.71-51.2-3.12-68.71-21.26-19.15-19.84-24.7-48.29-18.43-74.71,14.11-59.39,76-88.1,132.91-84.66,34.08,2.06,67.56,14.92,92.94,38,2.85,2.59,7.11-1.64,4.24-4.25Z"/><path class="a" d="M25.3,181.54C.92,201.63-4.36,241.16,13.9,266.94s57.31,33.92,84.35,17.59a77.21,77.21,0,0,0,125,32.24c9.5,30,39.61,52.21,71.08,52.42s61.88-21.58,71.78-51.46c50.11-2.92,95.44-43.84,103.46-93.39S447.43,121.67,400.8,103.09c17.21-22.71,8.89-57.82-12.41-76.75S336.77,2,308.29,3.19c-56.64,2.41-111.87,29-149.12,71.72,2.51-19.21-11.28-38.2-29.31-45.3S91,25.79,73.67,34.53A96.5,96.5,0,0,0,35,171.14"/><path d="M23.18,179.42C3.33,196.18-4.43,224.76,2.47,249.6c7.08,25.46,29.8,42.58,55.57,45.81a66.06,66.06,0,0,0,41.73-8.29l-4.41-1.79c8.61,24.41,28.78,44.07,53.75,51.33,26.44,7.68,55.75.39,76.21-17.77l-5-1.32c8,24.46,28.26,43.8,52.83,51.34,24.75,7.59,51.35,1.12,71.21-15.08A78.5,78.5,0,0,0,369,318.53l-2.9,2.2c40.63-2.66,78-28.52,96.21-64.77,18.48-36.78,13.53-80.72-9.62-114.3a114.63,114.63,0,0,0-51.06-41.46l1.8,4.41c12.26-16.72,11.89-39,3.73-57.37-9.07-20.48-27.58-34-48.47-40.92C336.19-1.08,311.73-1.22,288.51,2A215.62,215.62,0,0,0,157.05,72.79l5.12,2.12c1.89-17.25-7.71-33.65-21.78-43.13-16.47-11.1-38.17-11-56.44-4.8C49.3,38.75,23.4,71.23,18.68,107.35a101.62,101.62,0,0,0,13.73,65.3c2,3.31,7.18.3,5.18-3C19.19,139.05,19.3,100,38.77,70,56.88,42,94.63,19.39,128.26,32.21c17.19,6.55,30,24,27.91,42.7-.28,2.57,3.49,4,5.12,2.12A210.57,210.57,0,0,1,274.47,10.57C314,2,370.18,1.87,395.84,39.3c12.53,18.28,16,43.65,2.37,62.28-1.27,1.73.19,3.76,1.79,4.41,35.22,14.32,60.52,48.45,66.51,85.7,6.17,38.37-11,76.27-41.27,99.94-17,13.29-37.63,21.69-59.18,23.1a3.13,3.13,0,0,0-2.89,2.21c-9.81,28.58-38.53,49.46-68.89,49.25S235.51,344.67,226.09,316a3,3,0,0,0-5-1.32c-18.87,16.75-46,23.29-70.38,16.22-22.86-6.65-41.65-24.74-49.55-47.14a3,3,0,0,0-4.41-1.79c-20.15,11.84-46.28,10.18-65.63-2.56C10.79,266,2.42,241,7.43,217.58a60.56,60.56,0,0,1,20-33.92c3-2.5-1.31-6.72-4.24-4.24Z"/><path d="M242,299.26a76.52,76.52,0,0,0,22.17,51.55c2.72,2.75,7-1.49,4.24-4.24A70.2,70.2,0,0,1,248,299.26c-.12-3.85-6.12-3.86-6,0Z"/><path d="M263.57,315.8,278.22,337c2.18,3.16,7.38.16,5.18-3l-14.65-21.24c-2.18-3.15-7.38-.16-5.18,3Z"/><path d="M283.11,315.77l12,16.5c2.25,3.09,7.45.1,5.18-3l-12-16.5c-2.25-3.09-7.46-.1-5.18,3Z"/><path d="M301.84,317.62l10.43,10.57c2.72,2.75,7-1.49,4.24-4.24l-10.43-10.57c-2.72-2.75-7,1.49-4.24,4.24Z"/><path d="M116.2,227.26A60,60,0,0,0,156,277.92c3.65,1.27,5.22-4.52,1.59-5.78a53.77,53.77,0,0,1-35.38-44.88c-.38-3.8-6.38-3.84-6,0Z"/><path d="M133.12,234.78l9,15c2,3.3,7.17.29,5.18-3l-9-15c-2-3.31-7.18-.3-5.18,3Z"/><path d="M155.26,233.54,167.31,250c2.25,3.09,7.46.1,5.18-3l-12.05-16.46c-2.26-3.08-7.47-.09-5.18,3Z"/><path d="M185.61,236.28l7.5,15c1.73,3.45,6.91.42,5.18-3l-7.5-15c-1.72-3.46-6.9-.42-5.18,3Z"/><path d="M356.11,388.48a42.6,42.6,0,0,0,40-20.32c2-3.31-3.18-6.32-5.18-3a36.68,36.68,0,0,1-34.81,17.35c-3.84-.35-3.82,5.65,0,6Z"/><path d="M379.49,407.15a50.27,50.27,0,0,0,26.82-15.77c2.56-2.88-1.67-7.14-4.24-4.25a44.79,44.79,0,0,1-24.17,14.23c-3.77.84-2.18,6.63,1.59,5.79Z"/><path d="M424.57,405.13l16.49-16.51c2.73-2.73-1.51-7-4.25-4.24l-16.49,16.51c-2.73,2.73,1.51,7,4.25,4.24Z"/><path d="M512.2,291.76a59.93,59.93,0,0,1-33,50.05c-3.45,1.73-.42,6.9,3,5.18a66,66,0,0,0,35.93-55.23c.21-3.86-5.79-3.85-6,0Z"/><path d="M517.1,335.24a28.68,28.68,0,0,1-12.43,13.93c-3.36,1.89-.34,7.08,3,5.18a33.85,33.85,0,0,0,14.58-16.08c1.51-3.51-3.66-6.57-5.18-3Z"/><path d="M527.74,347.33l-11.9,19.56c-2,3.31,3.18,6.33,5.18,3l11.9-19.56c2-3.31-3.17-6.33-5.18-3Z"/><path d="M547.35,354.15a81.72,81.72,0,0,1-23.83,34.43c-2.93,2.53,1.33,6.75,4.24,4.25a87.75,87.75,0,0,0,25.38-37.08c1.31-3.64-4.49-5.21-5.79-1.6Z"/></svg>