<svg xmlns="http://www.w3.org/2000/svg" viewBox="0 0 690.83 479.79"><defs><style>.a{fill:#fff;}</style></defs><title>cloud-left</title><path class="a" d="M23.91,300.9C1,319.74-3.91,356.82,13.22,381S67,412.82,92.33,397.5a72.41,72.41,0,0,0,117.19,30.23c8.91,28.15,37.15,49,66.67,49.17s58-20.24,67.33-48.26c47-2.74,89.51-41.12,97-87.59s-20.72-96.3-64.46-113.73c16.15-21.3,8.34-54.22-11.63-72s-48.42-22.84-75.13-21.7c-53.13,2.26-104.92,27.17-139.86,67.26,2.35-18-10.58-35.83-27.49-42.48s-36.49-3.59-52.7,4.61A90.51,90.51,0,0,0,33,291.15"/><path d="M21.79,298.78C3.25,314.46-4.07,341.05,2.2,364.32c6.48,24.1,27.81,40.37,52.12,43.53a62.3,62.3,0,0,0,39.53-7.76l-4.41-1.8c8.1,22.92,27,41.38,50.42,48.24,24.91,7.29,52.5.42,71.78-16.67l-5-1.33c7.51,22.84,26.27,40.91,49.17,48.13,23.5,7.41,48.88,1.27,67.72-14.23a73.85,73.85,0,0,0,22.89-33l-2.89,2.2c38-2.51,73-26.61,90.22-60.5,17.44-34.4,13.05-75.54-8.45-107.14a107.76,107.76,0,0,0-48.4-39.57l1.79,4.41c11.44-15.62,11.21-36.37,3.67-53.62C373.9,155.9,356.63,143.06,337,136.5c-41.78-14-91.17-3.63-129.5,15.75a200.74,200.74,0,0,0-60.14,46.52l5.12,2.12c1.74-16.09-7.08-31.34-20.11-40.33-15.33-10.57-35.64-10.67-52.82-5C46.45,166.4,21.83,197.4,17.46,231.74a95.47,95.47,0,0,0,13,60.92c2,3.31,7.17.29,5.18-3C18.37,261,18.47,224.39,36.76,196.25c17-26.07,52.22-47.2,83.63-35.25,16.07,6.12,28,22.42,26.08,39.89-.28,2.57,3.48,4,5.12,2.12A197.51,197.51,0,0,1,257,140.87c37-8.17,89.76-8.5,114.07,26.38,11.94,17.12,15.29,41,2.45,58.56-1.27,1.73.2,3.76,1.8,4.41,33.16,13.5,56.91,45.74,62.34,80.85,5.51,35.55-10.45,70.54-38.3,92.61a101.28,101.28,0,0,1-55.82,22,3.13,3.13,0,0,0-2.9,2.2c-9.19,26.73-36,46.25-64.43,46.06s-54.94-20.13-63.78-47a3,3,0,0,0-5-1.33c-17.7,15.69-43.15,21.81-65.94,15.13a70.92,70.92,0,0,1-46.23-44,3,3,0,0,0-4.41-1.79c-24.32,14.25-59.18,7.55-75.39-16S4.5,321.24,26,303c2.95-2.5-1.31-6.72-4.24-4.24Z"/><path class="a" d="M666.18,182.91c23.17-18.47,28.71-55.47,12-79.92s-53.24-32.67-78.84-17.76a72.41,72.41,0,0,0-116.69-32.1C474.16,24.85,446.26,3.57,416.75,2.9s-58.36,19.31-68.09,47.18c-47,2-90.16,39.68-98.42,86s19.17,96.62,62.63,114.74c-16.49,21-9.21,54.09,10.48,72.17s48,23.61,74.77,22.9c53.16-1.41,105.34-25.49,140.92-65-2.64,18,10,36,26.81,42.92s36.42,4.17,52.76-3.77a90.5,90.5,0,0,0,38.32-127.53"/><path d="M668.3,185c18.8-15.4,26.48-41.88,20.59-65.24-6.11-24.24-27.37-41-51.72-44.36a62.39,62.39,0,0,0-39.37,7.2l4.4,1.8c-7.73-23-26.36-41.77-49.68-49-24.79-7.69-52.47-1.21-72,15.58l5,1.32c-7.15-23-25.66-41.29-48.43-48.87-23.14-7.71-48.43-2.14-67.41,12.79a73.94,73.94,0,0,0-23.91,33l2.9-2.2c-37.86,1.89-73,25.2-90.83,58.47-18.22,34-14.72,75.22,6.07,107.29,11.52,17.79,27.9,32.27,47.45,40.6l-1.07-4.1c-11.67,15.41-11.79,36.22-4.48,53.55C314,322.34,331,335.41,350.56,342.3c41.55,14.62,91.1,5,129.73-13.71A200.91,200.91,0,0,0,541.16,283L536,280.9c-2,16.48,7.06,32.22,20.49,41.31,15.29,10.34,35.51,10.41,52.57,4.89,32.94-10.68,57.83-41.21,62.48-75.39A95.7,95.7,0,0,0,659.52,191c-1.94-3.34-7.12-.32-5.18,3,16.63,28.71,16.06,65-2.3,92.73-17.19,26-52.41,46.55-83.81,34.79-16.39-6.15-28.39-22.94-26.19-40.65.32-2.6-3.49-3.92-5.12-2.12a197.54,197.54,0,0,1-106.38,60.43c-37.17,7.57-89.91,7-113.62-28.26-11.65-17.33-14.59-41.24-1.46-58.59a3,3,0,0,0-1.08-4.1c-32.86-14-56.15-45.66-61.53-80.78-5.54-36.19,11.19-72,40.14-93.75,16.14-12.11,35.46-19.64,55.67-20.65a3.13,3.13,0,0,0,2.89-2.2c9.72-26.82,37.28-45.93,65.91-45,28.15,1,53.94,21.27,62.27,48a3,3,0,0,0,5,1.33c17.95-15.41,43.51-21.06,66.19-14C572.17,47.81,589.37,65,596.42,86a3,3,0,0,0,4.4,1.79c24.56-13.87,59.28-6.53,75.11,17.25s9.94,57.86-11.87,75.72c-3,2.45,1.28,6.67,4.24,4.25Z"/><path d="M419.27,320.68a119.82,119.82,0,0,0,55.58-30.58c2.78-2.69-1.47-6.93-4.24-4.24a113.73,113.73,0,0,1-52.94,29c-3.75.9-2.16,6.69,1.6,5.79Z"/><path d="M414.75,298.09a83.32,83.32,0,0,0,29.82-17.27c2.88-2.59-1.38-6.82-4.24-4.24a76,76,0,0,1-27.18,15.72c-3.65,1.2-2.09,7,1.6,5.79Z"/><path d="M411,285.79l21-13.5c3.24-2.08.24-7.28-3-5.18l-21,13.5c-3.24,2.08-.24,7.27,3,5.18Z"/><path d="M323.72,267.59a97.76,97.76,0,0,0,23.66,40.18c2.69,2.78,6.93-1.47,4.24-4.24A91.41,91.41,0,0,1,329.51,266c-1.11-3.69-6.91-2.12-5.79,1.59Z"/><path d="M340.45,256.2a61.11,61.11,0,0,0,12.88,32.12c2.37,3,6.59-1.23,4.24-4.25a53.85,53.85,0,0,1-11.12-27.87c-.37-3.81-6.38-3.85-6,0Z"/><path d="M230,404.66a63.69,63.69,0,0,0,42.21,34.41c3.75.92,5.35-4.86,1.6-5.79a57.93,57.93,0,0,1-38.62-31.64c-1.65-3.49-6.83-.45-5.19,3Z"/><path d="M256.61,405.47l20.75,11c3.42,1.8,6.45-3.38,3-5.18l-20.75-11c-3.41-1.8-6.45,3.38-3,5.19Z"/><path d="M280.44,392.28l16.5,10.5c3.27,2.08,6.28-3.11,3-5.18l-16.5-10.5c-3.27-2.08-6.28,3.11-3,5.18Z"/><path d="M250.15,242.1a113.55,113.55,0,0,1-3.8,67.41c-1.34,3.62,4.46,5.19,5.79,1.59a119.32,119.32,0,0,0,3.8-70.59c-.94-3.75-6.73-2.16-5.79,1.59Z"/><path d="M231,256.2a82,82,0,0,1-4.39,35.2c-1.3,3.64,4.5,5.21,5.78,1.59A86,86,0,0,0,237,256.2c-.35-3.82-6.36-3.85-6,0Z"/><path d="M210,253.2a83.12,83.12,0,0,1-14.59,37.48c-2.22,3.17,3,6.17,5.18,3A89.34,89.34,0,0,0,216,253.2c.48-3.82-5.53-3.79-6,0Z"/></svg>