<svg xmlns="http://www.w3.org/2000/svg" viewBox="0 0 696 370"><defs><style>.a{fill:#fff;}.b{fill:none;stroke-width:10px;}.b,.e{stroke:#000;stroke-miterlimit:10;}.c{font-size:28px;font-family:"PingFang TC", "HeiTi TC", "Microsoft JhengHei", sans-serif;}.d{fill:#f15a24;}</style></defs><title>title-bubble</title><path class="a" d="M424.23,318.79c-115.87-6-230.93-4.57-338.69-49.68-31.58-13.21-64.39-32.36-77-65.5-8.67-22.83-6-49.31,3.84-71.61S38.72,91.23,57.14,76.06C119.42,24.79,201.87,10,280.89,5.34c101.87-6,205,2.12,303.22,31.23,34.73,10.3,71,24.88,91.82,55.8,24.57,36.45,20.46,89-3.7,125.74s-65,58.75-106.88,66.63c-15.21,2.86-85.94,13.29-99.12,21.77-19.61,12.63-28,37.55-35.06,60.56-.64-14.61-6.31-33.67-6.94-48.28"/><path d="M424.23,315.79c-61.73-3.17-123.68-4.22-185.11-11.61-30.85-3.71-61.53-9.11-91.55-17.17-28.32-7.6-56.82-17.13-82.77-30.93-22.25-11.83-43.59-28.43-53.08-52.56-11-27.91-4.32-59.71,11-84.62,14.59-23.8,36.56-42.7,59.9-57.6s49-25.77,75.48-33.61c55-16.27,113.26-20.29,170.37-21.11,64.38-.91,129,4.21,192.08,17.18,29,6,58.21,13,86,23.33,24.51,9.08,48.8,22.19,64.61,43.64C703.4,134.54,690.53,198,654.6,235.39c-18.35,19.09-42,32.61-67.07,40.65-16.57,5.3-33.77,7.62-50.86,10.56C517.9,289.82,499,293,480.59,298c-5.83,1.59-12,3.25-17.08,6.7-9.92,6.77-17.13,16.69-22.45,27.33-5.46,10.91-9.22,22.57-12.78,34.21l5.89.8c-.88-16.29-6.06-32-6.94-48.28-.21-3.84-6.21-3.87-6,0,.88,16.29,6.06,32,6.94,48.28a3,3,0,0,0,5.89.8c3.92-12.79,8-25.71,14.63-37.4,5.12-9,12.46-18.82,22.31-23,7.16-3.06,15-4.72,22.59-6.44,9.91-2.26,19.89-4.18,29.89-6,16.42-3,33.1-5.08,49.39-8.75,25.47-5.73,49.92-16.61,70.53-32.72,41.46-32.38,63.87-89.23,46.12-140.4C670.76,59,612.11,40.4,562,27.27,498.18,10.58,432.33,2.33,366.48.76c-60.13-1.43-121.75.94-180.7,13.69C131.31,26.22,76.71,49.13,37.61,90c-19.5,20.4-33.92,45.72-36.8,74.15C-2,191.82,7.84,218,27.74,237.28,46.58,255.52,71,266.8,95.13,276.21a526,526,0,0,0,91.79,26c62.59,12,126.44,14.72,190,17.46,15.78.67,31.56,1.36,47.34,2.17,3.85.2,3.84-5.8,0-6Z"/><path class="b" d="M279.71,105.69a1,1,0,0,1,.47-.19c.83,0,4.14,1.4,4.14,2.33,0,3.4-4.8,8.8-4.8,10.2,1,1.49,6.62,2,6.75,2.74-.23,1.12-2.09,4.84-3.3,4.84-2.37,0-7.31-3.07-8.1-3.07-.61,0-4.19,3.59-6.47,3.59-.93,0-2.14-2.52-2.84-3.22-1.21,2.94,1.07,3.73-3.45,3.73-.84,0-3.21.14-3.54-.75,0-3.21-.55-2.6-4.23-2.6-3.07,0-6.15.6-9.17.6-1.35,0-1.07-3.49-1.07-4.47,0-2.28,2.09-.6,3.07-1.58a18.13,18.13,0,0,0,.79-4.42,26.74,26.74,0,0,0-.42-3.31,25.59,25.59,0,0,1,0-3.72,4.09,4.09,0,0,0-.13-1.49c-.42-.42-1.91-.05-2.47-.05a.73.73,0,0,1-.51-.23,6.58,6.58,0,0,1-.19-2.33,5.39,5.39,0,0,1,.28-2.33c.7-.79,6.75-.51,7.12-.51,2.33,0,4.56-.37,6.85-.37,1.53,0,3.07.51,4.65.51,2.14,0,4.24-.56,6.47-.56,2.42,0,4.84.33,7.26.33,1.91,0,3.78-.33,5.68-.33,4,0,3.87.61,3.87,4.38,0,1.67-3.31,1-4.47,1-2.79,0-5.59.51-8.38.51-1.54,0-3-.18-4.56-.18-.7,0-2.89,0-3.26.65s-.7,8.52-.7,9.82v3.26a2.42,2.42,0,0,0,.33,1.63s.13,0,.23,0c.65,0,4.61-1.82,4.61-2.38-.47-1.35-3.4-4.42-3.31-5.44v-.14c.51-.52,2.19-.89,2.93-1.31-1.21-.14-4.14.33-4.14-1.35,0-1-.14-4,1.26-4,1.21,0,2.42.18,3.63.18,1.58,0,3.17-.32,4.75-.32,1.35,0,2.74.23,4.09.23Zm-5.54-7.78c-3,0-6.1.19-9.12.19-2.1,0-4.15.42-6.2.42-1.49,0-3-.47-4.51-.61-1.26-.09-2.56,0-3.87,0a1.07,1.07,0,0,1-.79-.28c-.42-.42-.42-2.47-.42-3.12,0-1.86.42-3.82.56-5.68.1-1.3,0-2.61,0-3.91,0-1.54,2.79-1.49,3.95-1.49,1.68,0,3.31.42,5,.42,1.45,0,2.94-.19,4.38-.19,2.1,0,4.19.19,6.29.19,3.25,0,6.56-.33,9.82-.33,1.81,0,1.81.19,1.81,1.91,0,.65-.14,12.15-.51,12.52a1.26,1.26,0,0,1-.7.24C277.94,98.15,276.08,97.91,274.17,97.91Zm-20.39,13.51a4.67,4.67,0,0,0,.74.09h3.87l.32-.14a.94.94,0,0,0,.19-.51,16.34,16.34,0,0,0-4.1-.42,2,2,0,0,0-1.16.18l-.09.61Zm4.7,5.63a1.44,1.44,0,0,0-.23-.75,1.81,1.81,0,0,0-1-.18,12.69,12.69,0,0,0-3.26.28l-.28.23a3.4,3.4,0,0,0-.18.93l.18.19h.42a20.11,20.11,0,0,0,4.15-.47Zm-4.42-12.29-.23.23-.05.47.05.46.23.19.7,0a15.53,15.53,0,0,0,3.81-.51l.05-.28v-.23a16.2,16.2,0,0,0-3.82-.42Zm19.46-11.59-.28-.14c-1.4,0-2.79.14-4.19.14-3.86,0-7.73-.33-11.59-.33a3.2,3.2,0,0,0-1.35.14l-.14.23-.05.28.23.14a72.37,72.37,0,0,0,8.94.47c1.35,0,2.75-.42,4.1-.42s2.89.23,4.33.23l.23-.19,0-.28Zm.37-5.27a30.49,30.49,0,0,0-4.14-.13c-1.59,0-3.17.27-4.75.27h-4.84c-1.07,0-2.14-.32-3.17-.23l-.6,0-.28.18a3,3,0,0,0-.1.66c.52.32,4,0,4.85,0,1.44,0,2.84.28,4.28.28,2.23,0,7.68.14,8.75-.32a1.6,1.6,0,0,0,.19-.61Zm-1,23.24a6.7,6.7,0,0,0,1.54,2.65,6,6,0,0,0,1.68-2.65,6.27,6.27,0,0,0-1.63-.19A6.17,6.17,0,0,0,272.91,111.14Z"/><path class="b" d="M336.92,97c0,1.12.24,2.28.28,3.4.09,3.35.28,7.5.28,10.85a40.29,40.29,0,0,1-.74,6.66c-.47,2.79.37,3.53-1.68,5.91-.84,1-.88,1.35-2.28,1.54s-2.51,0-3.73.18a42,42,0,0,1-4.84.65,2.53,2.53,0,0,1-1-.09c-.89-.37-2.42-5.63-2.42-6.7a1.27,1.27,0,0,1,.09-.42,1.11,1.11,0,0,1,.56-.1c1.49,0,2.93.52,4.47.52,1.3,0,4.28-.42,4.28-2.24,0-1.21-.42-2.47-.42-3.68s.28-2.6.28-3.95-.28-2.94-.28-4.38.42-2.93.42-4.42-.28-7.82-.84-8.38-8-.79-9.26-.79c-1.68,0-3.31.32-5,.32s-3.49-.32-5.22-.32c-2.51,0-5.07.14-7.58.14-.56,0-1.12.09-1.54-.33s-.42-4.19-.42-5c0-.6.14-1.25.89-1.25,1.21,0,2.46.27,3.67.27,2.24,0,4.47-.69,6.8-.69s4.42.46,6.7.6c2.1.14,4.19.19,6.29.19,1.21,0,2.37,0,3.58,0,1.45-.09,2.94-.46,4.38-.46,1.72,0,3.49.46,5.21.46,1.26,0,2.52-.14,3.77-.14.66,0,.84.51.84,1.07,0,1.12.14,5.87-1.35,5.87-.93,0-1.86-.14-2.79-.14C336.64,92.05,336.92,95.73,336.92,97Zm-33.38.89c0-1-.14-2,1.17-2,3.12,0,6.24.41,9.4.41,2.38,0,4.8-.51,7.22-.51.51,0,1.81,0,2.18.33,1,.93,1,8.05,1,9.36,0,1.58-.23,3.35-.37,4.93a16.29,16.29,0,0,1-.42,3.59c-.56,1.72-8.15.83-11.64.83a3.46,3.46,0,0,0-1.35.14,1.79,1.79,0,0,0-.14.47c0,.65.19,1.3.19,2,0,1.07-4.89.89-5.68.89-2.15,0-1.59-1.63-1.59-3.31s.52-3.63.52-5.4c0-1.49-.33-3-.42-4.51s-.1-3.12-.1-4.66Zm9.55,4.79c-1,0-2.75-.18-2.75,1.17,0,.79.05,4.14,1,4.37a11.67,11.67,0,0,0,2.23.14h1c1.12,0,2.75.19,2.75-1.3v-1.72c0-2.61-.28-2.66-2.8-2.66Z"/><path class="b" d="M398.05,97.17c0,3.35-.75,6.61-.75,10,0,2.19.75,4.33.75,6.56,0,1.87-.38,3.77-.38,5.64s.05,3.63-.09,5.4c-.05.28-.09.56-.37.69-.56.38-4.15.38-5,.38a2.68,2.68,0,0,1-1.35-.19,3.34,3.34,0,0,0,0-.65c-.32-.51-2.74-.28-3-.28-2.56,0-5.17-.42-7.45-.42a1.48,1.48,0,0,0-1.17.28c-.14.28-.18.79-.37,1-.32.47-2.56.38-3.12.38-2.14,0-3.07.46-3.07-2,0-3,.28-6,.28-9.08,0-2.56-.65-4.93-.65-7.45,0-1.81.28-3.63.28-5.49,0-.56.14-1.07-.24-1.54a1.79,1.79,0,0,0-.46,0c-1,0-1.91.46-2.89.46s-1.35-2.93-1.77-3.72a14.5,14.5,0,0,0-.42,3.72c0,2.56.75,5.12.75,7.91a25.66,25.66,0,0,1-.19,3.82,27,27,0,0,0-.65,3.73c0,1.53.61,3.07.61,4.61a16.17,16.17,0,0,1-.33,2.56c-.56,3.26-1.91,3-5.12,3a2,2,0,0,1-.89-.14c-.6-.33-.74-3.5-.74-4.29,0-1.49.46-3,.46-4.51,0-3-.46-6-.46-9,0-1.91.51-3.82.51-5.78a14.22,14.22,0,0,0-.14-3.12c-.18.84-.7,5.54-1.77,5.54-.79,0-4.33-1.25-4.33-2.18a7.12,7.12,0,0,1,.42-1.31c1.21-3.07,1.21-6.28,1.86-9.45a1.44,1.44,0,0,1,.28-.6,1.34,1.34,0,0,1,.38-.1c.93,0,1.86.65,2.79.65s.65-2.28.65-2.65c0-2.33-.46-4.56-.46-6.84a.81.81,0,0,1,.88-.89c6.52,0,6,1.63,6,7.45,0,.61,0,1.21.05,1.82.65,0,1.58-1,2-1,.8,0,2.61,4.42,3.4,5.59a16.53,16.53,0,0,0,.1-4,2.13,2.13,0,0,1,.14-.93c.37-.56,4.88-.19,5.44-.19.37,0,1.49.09,1.86-.23.8-.75,1-6.75,2-7.92a2.42,2.42,0,0,1,.51-.14,42.48,42.48,0,0,1,6.33,1.12,1.35,1.35,0,0,1,.14.6c0,2.38-1.44,5.13-1.44,5.68,0,.94,5.73.52,6.66.52C399.21,90.05,398.05,92.51,398.05,97.17ZM386.31,118c3.87,0,4.57.14,4.57-4.1,0-4.61-1.35-4-5.5-4-1.12,0-6.19-.19-6.33,1.07-.09.93.09,2,.09,2.93s-.14,2-.14,3,4,1.07,4.75,1.07Zm-4.88-21.7c-.7,0-2.29-.18-2.29.84s.14,2.1.19,3.12c.05,1.21-.56,3.59,1.21,3.59a23.72,23.72,0,0,0,3.12-.38,37.25,37.25,0,0,1,5.59,0,1.94,1.94,0,0,0,.88-.14c.65-.41,1-4,1-4.88,0-.52.09-1.31-.37-1.63s-6.1-.52-7.17-.52Z"/><path class="b" d="M419.83,82.13c1.07.28,5.63.65,5.63,2.28s-.74,3-.74,4.43,3.4.93,4.47.93c1.95,0,1.21,3.86,1.44,5.16a19.08,19.08,0,0,0,2.09-3.67,61.43,61.43,0,0,0,3.54-7.92c.28-.7.89-.74,1.54-.74.84,0,4.42.28,4.42,1.35,0,1.39-1.07,2.79-1.07,4.19s7,1.39,8.15,1.39,2.47-.28,3.68-.28a2.59,2.59,0,0,1,.6.1c.33.32.23.7.23,1.16,0,5.08.05,10.24-.18,15.32-.1,2.23-.61,4.33-.79,6.52-.1,1.25,0,2.56-.1,3.81s-1.16,5.64-1.77,6.52a8.79,8.79,0,0,1-2.46,1.63c-3.26,1.82-4.38,1.63-8.57,1.63-.46,0-1.21.09-1.58-.19s-.42-1-.51-1.49a7.29,7.29,0,0,0-1-3.07c-.14-.28-.47-.7-.47-1a.16.16,0,0,1,.05-.14c2.05-.93,7.77-.42,8.8-1.35a24.05,24.05,0,0,0,2.19-8.57c0-2.23-.84-4.47-.84-6.7,0-2.42.84-4.75.84-7.13,0-1.53-.84-1.25-2.19-1.25-1.07,0-5.77.28-6.47.74-1.4.93-3.31,6-4,6.29-1.26-.24-2.84-2.14-3.82-2.14-.37.37-.33,2.46-.33,3.07,0,2,.47,4,.42,6v8.14c0,5.22,0,4.24-5.4,4.24-1.53,0-3,.14-4.56.09-2.7,0-2,.7-2,3.08,0,.51-.56.6-.93.6-.79,0-4.33-.46-4.89-.88s-.56-1.31-.61-1.91a54.19,54.19,0,0,1-.32-6.1c0-1.72.46-3.4.46-5.12,0-2.84-.51-5.59-.51-8.38,0-1.63.56-3.26.56-4.94,0-2.32-.42-4.65-.42-6.93,0-1.54,4-.65,5-1.26s1.07-6.28,1.95-7.35Zm3.77,33.52c.56,0,1.26-.14,1.26-.84,0-1-.19-1.91-.19-2.88,0-1.26.37-2.47.37-3.68,0-.79-.65-.79-1.3-.79-.84,0-5.31-.1-5.31,1.07,0,.74.1,1.49.1,2.23,0,1.35-.14,2.66-.14,4,0,.7.74.88,1.3.88Zm-1.68-13.55a3,3,0,0,0,2-.41c.51-.52,1-4.1,1-4.94,0-1.35-1.39-1.21-2.42-1.21h-2.05c-1.72,0-1.63,4-1.63,5.17,0,1.58,1,1.39,2.19,1.39Zm18,11.27c-.51-.88-.83-2-1.39-2.84-.79-1.26-3.63-5.73-3.63-7,0-.84,3.77-3,4.51-3,1,0,5.54,8.8,5.54,9.87,0,.79-3.72,3.21-4.51,3.4A.77.77,0,0,1,439.89,113.37Z"/><text class="c" transform="translate(158.4 252.88)">路跑前，你應該要思考的六件事</text><path class="a" d="M279.71,105.69a1,1,0,0,1,.47-.19c.83,0,4.14,1.4,4.14,2.33,0,3.4-4.8,8.8-4.8,10.2,1,1.49,6.62,2,6.75,2.74-.23,1.12-2.09,4.84-3.3,4.84-2.37,0-7.31-3.07-8.1-3.07-.61,0-4.19,3.59-6.47,3.59-.93,0-2.14-2.52-2.84-3.22-1.21,2.94,1.07,3.73-3.45,3.73-.84,0-3.21.14-3.54-.75,0-3.21-.55-2.6-4.23-2.6-3.07,0-6.15.6-9.17.6-1.35,0-1.07-3.49-1.07-4.47,0-2.28,2.09-.6,3.07-1.58a18.13,18.13,0,0,0,.79-4.42,26.74,26.74,0,0,0-.42-3.31,25.59,25.59,0,0,1,0-3.72,4.09,4.09,0,0,0-.13-1.49c-.42-.42-1.91-.05-2.47-.05a.73.73,0,0,1-.51-.23,6.58,6.58,0,0,1-.19-2.33,5.39,5.39,0,0,1,.28-2.33c.7-.79,6.75-.51,7.12-.51,2.33,0,4.56-.37,6.85-.37,1.53,0,3.07.51,4.65.51,2.14,0,4.24-.56,6.47-.56,2.42,0,4.84.33,7.26.33,1.91,0,3.78-.33,5.68-.33,4,0,3.87.61,3.87,4.38,0,1.67-3.31,1-4.47,1-2.79,0-5.59.51-8.38.51-1.54,0-3-.18-4.56-.18-.7,0-2.89,0-3.26.65s-.7,8.52-.7,9.82v3.26a2.42,2.42,0,0,0,.33,1.63s.13,0,.23,0c.65,0,4.61-1.82,4.61-2.38-.47-1.35-3.4-4.42-3.31-5.44v-.14c.51-.52,2.19-.89,2.93-1.31-1.21-.14-4.14.33-4.14-1.35,0-1-.14-4,1.26-4,1.21,0,2.42.18,3.63.18,1.58,0,3.17-.32,4.75-.32,1.35,0,2.74.23,4.09.23Zm-5.54-7.78c-3,0-6.1.19-9.12.19-2.1,0-4.15.42-6.2.42-1.49,0-3-.47-4.51-.61-1.26-.09-2.56,0-3.87,0a1.07,1.07,0,0,1-.79-.28c-.42-.42-.42-2.47-.42-3.12,0-1.86.42-3.82.56-5.68.1-1.3,0-2.61,0-3.91,0-1.54,2.79-1.49,3.95-1.49,1.68,0,3.31.42,5,.42,1.45,0,2.94-.19,4.38-.19,2.1,0,4.19.19,6.29.19,3.25,0,6.56-.33,9.82-.33,1.81,0,1.81.19,1.81,1.91,0,.65-.14,12.15-.51,12.52a1.26,1.26,0,0,1-.7.24C277.94,98.15,276.08,97.91,274.17,97.91Zm-20.39,13.51a4.67,4.67,0,0,0,.74.09h3.87l.32-.14a.94.94,0,0,0,.19-.51,16.34,16.34,0,0,0-4.1-.42,2,2,0,0,0-1.16.18l-.09.61Zm4.7,5.63a1.44,1.44,0,0,0-.23-.75,1.81,1.81,0,0,0-1-.18,12.69,12.69,0,0,0-3.26.28l-.28.23a3.4,3.4,0,0,0-.18.93l.18.19h.42a20.11,20.11,0,0,0,4.15-.47Zm-4.42-12.29-.23.23-.05.47.05.46.23.19.7,0a15.53,15.53,0,0,0,3.81-.51l.05-.28v-.23a16.2,16.2,0,0,0-3.82-.42Zm19.46-11.59-.28-.14c-1.4,0-2.79.14-4.19.14-3.86,0-7.73-.33-11.59-.33a3.2,3.2,0,0,0-1.35.14l-.14.23-.05.28.23.14a72.37,72.37,0,0,0,8.94.47c1.35,0,2.75-.42,4.1-.42s2.89.23,4.33.23l.23-.19,0-.28Zm.37-5.27a30.49,30.49,0,0,0-4.14-.13c-1.59,0-3.17.27-4.75.27h-4.84c-1.07,0-2.14-.32-3.17-.23l-.6,0-.28.18a3,3,0,0,0-.1.66c.52.32,4,0,4.85,0,1.44,0,2.84.28,4.28.28,2.23,0,7.68.14,8.75-.32a1.6,1.6,0,0,0,.19-.61Zm-1,23.24a6.7,6.7,0,0,0,1.54,2.65,6,6,0,0,0,1.68-2.65,6.27,6.27,0,0,0-1.63-.19A6.17,6.17,0,0,0,272.91,111.14Z"/><path class="a" d="M336.92,97c0,1.12.24,2.28.28,3.4.09,3.35.28,7.5.28,10.85a40.29,40.29,0,0,1-.74,6.66c-.47,2.79.37,3.53-1.68,5.91-.84,1-.88,1.35-2.28,1.54s-2.51,0-3.73.18a42,42,0,0,1-4.84.65,2.53,2.53,0,0,1-1-.09c-.89-.37-2.42-5.63-2.42-6.7a1.27,1.27,0,0,1,.09-.42,1.11,1.11,0,0,1,.56-.1c1.49,0,2.93.52,4.47.52,1.3,0,4.28-.42,4.28-2.24,0-1.21-.42-2.47-.42-3.68s.28-2.6.28-3.95-.28-2.94-.28-4.38.42-2.93.42-4.42-.28-7.82-.84-8.38-8-.79-9.26-.79c-1.68,0-3.31.32-5,.32s-3.49-.32-5.22-.32c-2.51,0-5.07.14-7.58.14-.56,0-1.12.09-1.54-.33s-.42-4.19-.42-5c0-.6.14-1.25.89-1.25,1.21,0,2.46.27,3.67.27,2.24,0,4.47-.69,6.8-.69s4.42.46,6.7.6c2.1.14,4.19.19,6.29.19,1.21,0,2.37,0,3.58,0,1.45-.09,2.94-.46,4.38-.46,1.72,0,3.49.46,5.21.46,1.26,0,2.52-.14,3.77-.14.66,0,.84.51.84,1.07,0,1.12.14,5.87-1.35,5.87-.93,0-1.86-.14-2.79-.14C336.64,92.05,336.92,95.73,336.92,97Zm-33.38.89c0-1-.14-2,1.17-2,3.12,0,6.24.41,9.4.41,2.38,0,4.8-.51,7.22-.51.51,0,1.81,0,2.18.33,1,.93,1,8.05,1,9.36,0,1.58-.23,3.35-.37,4.93a16.29,16.29,0,0,1-.42,3.59c-.56,1.72-8.15.83-11.64.83a3.46,3.46,0,0,0-1.35.14,1.79,1.79,0,0,0-.14.47c0,.65.19,1.3.19,2,0,1.07-4.89.89-5.68.89-2.15,0-1.59-1.63-1.59-3.31s.52-3.63.52-5.4c0-1.49-.33-3-.42-4.51s-.1-3.12-.1-4.66Zm9.55,4.79c-1,0-2.75-.18-2.75,1.17,0,.79.05,4.14,1,4.37a11.67,11.67,0,0,0,2.23.14h1c1.12,0,2.75.19,2.75-1.3v-1.72c0-2.61-.28-2.66-2.8-2.66Z"/><path class="a" d="M398.05,97.17c0,3.35-.75,6.61-.75,10,0,2.19.75,4.33.75,6.56,0,1.87-.38,3.77-.38,5.64s.05,3.63-.09,5.4c-.05.28-.09.56-.37.69-.56.38-4.15.38-5,.38a2.68,2.68,0,0,1-1.35-.19,3.34,3.34,0,0,0,0-.65c-.32-.51-2.74-.28-3-.28-2.56,0-5.17-.42-7.45-.42a1.48,1.48,0,0,0-1.17.28c-.14.28-.18.79-.37,1-.32.47-2.56.38-3.12.38-2.14,0-3.07.46-3.07-2,0-3,.28-6,.28-9.08,0-2.56-.65-4.93-.65-7.45,0-1.81.28-3.63.28-5.49,0-.56.14-1.07-.24-1.54a1.79,1.79,0,0,0-.46,0c-1,0-1.91.46-2.89.46s-1.35-2.93-1.77-3.72a14.5,14.5,0,0,0-.42,3.72c0,2.56.75,5.12.75,7.91a25.66,25.66,0,0,1-.19,3.82,27,27,0,0,0-.65,3.73c0,1.53.61,3.07.61,4.61a16.17,16.17,0,0,1-.33,2.56c-.56,3.26-1.91,3-5.12,3a2,2,0,0,1-.89-.14c-.6-.33-.74-3.5-.74-4.29,0-1.49.46-3,.46-4.51,0-3-.46-6-.46-9,0-1.91.51-3.82.51-5.78a14.22,14.22,0,0,0-.14-3.12c-.18.84-.7,5.54-1.77,5.54-.79,0-4.33-1.25-4.33-2.18a7.12,7.12,0,0,1,.42-1.31c1.21-3.07,1.21-6.28,1.86-9.45a1.44,1.44,0,0,1,.28-.6,1.34,1.34,0,0,1,.38-.1c.93,0,1.86.65,2.79.65s.65-2.28.65-2.65c0-2.33-.46-4.56-.46-6.84a.81.81,0,0,1,.88-.89c6.52,0,6,1.63,6,7.45,0,.61,0,1.21.05,1.82.65,0,1.58-1,2-1,.8,0,2.61,4.42,3.4,5.59a16.53,16.53,0,0,0,.1-4,2.13,2.13,0,0,1,.14-.93c.37-.56,4.88-.19,5.44-.19.37,0,1.49.09,1.86-.23.8-.75,1-6.75,2-7.92a2.42,2.42,0,0,1,.51-.14,42.48,42.48,0,0,1,6.33,1.12,1.35,1.35,0,0,1,.14.6c0,2.38-1.44,5.13-1.44,5.68,0,.94,5.73.52,6.66.52C399.21,90.05,398.05,92.51,398.05,97.17ZM386.31,118c3.87,0,4.57.14,4.57-4.1,0-4.61-1.35-4-5.5-4-1.12,0-6.19-.19-6.33,1.07-.09.93.09,2,.09,2.93s-.14,2-.14,3,4,1.07,4.75,1.07Zm-4.88-21.7c-.7,0-2.29-.18-2.29.84s.14,2.1.19,3.12c.05,1.21-.56,3.59,1.21,3.59a23.72,23.72,0,0,0,3.12-.38,37.25,37.25,0,0,1,5.59,0,1.94,1.94,0,0,0,.88-.14c.65-.41,1-4,1-4.88,0-.52.09-1.31-.37-1.63s-6.1-.52-7.17-.52Z"/><path class="a" d="M419.83,82.13c1.07.28,5.63.65,5.63,2.28s-.74,3-.74,4.43,3.4.93,4.47.93c1.95,0,1.21,3.86,1.44,5.16a19.08,19.08,0,0,0,2.09-3.67,61.43,61.43,0,0,0,3.54-7.92c.28-.7.89-.74,1.54-.74.84,0,4.42.28,4.42,1.35,0,1.39-1.07,2.79-1.07,4.19s7,1.39,8.15,1.39,2.47-.28,3.68-.28a2.59,2.59,0,0,1,.6.1c.33.32.23.7.23,1.16,0,5.08.05,10.24-.18,15.32-.1,2.23-.61,4.33-.79,6.52-.1,1.25,0,2.56-.1,3.81s-1.16,5.64-1.77,6.52a8.79,8.79,0,0,1-2.46,1.63c-3.26,1.82-4.38,1.63-8.57,1.63-.46,0-1.21.09-1.58-.19s-.42-1-.51-1.49a7.29,7.29,0,0,0-1-3.07c-.14-.28-.47-.7-.47-1a.16.16,0,0,1,.05-.14c2.05-.93,7.77-.42,8.8-1.35a24.05,24.05,0,0,0,2.19-8.57c0-2.23-.84-4.47-.84-6.7,0-2.42.84-4.75.84-7.13,0-1.53-.84-1.25-2.19-1.25-1.07,0-5.77.28-6.47.74-1.4.93-3.31,6-4,6.29-1.26-.24-2.84-2.14-3.82-2.14-.37.37-.33,2.46-.33,3.07,0,2,.47,4,.42,6v8.14c0,5.22,0,4.24-5.4,4.24-1.53,0-3,.14-4.56.09-2.7,0-2,.7-2,3.08,0,.51-.56.6-.93.6-.79,0-4.33-.46-4.89-.88s-.56-1.31-.61-1.91a54.19,54.19,0,0,1-.32-6.1c0-1.72.46-3.4.46-5.12,0-2.84-.51-5.59-.51-8.38,0-1.63.56-3.26.56-4.94,0-2.32-.42-4.65-.42-6.93,0-1.54,4-.65,5-1.26s1.07-6.28,1.95-7.35Zm3.77,33.52c.56,0,1.26-.14,1.26-.84,0-1-.19-1.91-.19-2.88,0-1.26.37-2.47.37-3.68,0-.79-.65-.79-1.3-.79-.84,0-5.31-.1-5.31,1.07,0,.74.1,1.49.1,2.23,0,1.35-.14,2.66-.14,4,0,.7.74.88,1.3.88Zm-1.68-13.55a3,3,0,0,0,2-.41c.51-.52,1-4.1,1-4.94,0-1.35-1.39-1.21-2.42-1.21h-2.05c-1.72,0-1.63,4-1.63,5.17,0,1.58,1,1.39,2.19,1.39Zm18,11.27c-.51-.88-.83-2-1.39-2.84-.79-1.26-3.63-5.73-3.63-7,0-.84,3.77-3,4.51-3,1,0,5.54,8.8,5.54,9.87,0,.79-3.72,3.21-4.51,3.4A.77.77,0,0,1,439.89,113.37Z"/><path class="d" d="M526,59.38c-21.68,8.08-41.41,21.84-57.44,38.53-1.25,1.29-2.56,3-2.05,4.69.4,1.32,1.73,2.09,3,2.71a318.49,318.49,0,0,0,63,24.3c3.33.89,7.41,1.54,9.76-1,2-2.18,1.67-5.61,1.12-8.55A342.12,342.12,0,0,0,526,59.38"/><path d="M525.24,56.48a157,157,0,0,0-40.91,23.18c-6.4,5-13,10.44-18.31,16.64-4.57,5.37-1.95,9.59,3.6,12.44a315,315,0,0,0,49.77,20.2c6,1.88,14.53,5.9,21,4.08,6.82-1.92,6.75-8.89,5.68-14.65a335.74,335.74,0,0,0-17.13-59.79c-1.37-3.57-7.17-2-5.78,1.59a348.63,348.63,0,0,1,15.47,51.59c.8,3.71,5,14.54-.9,15.64-3.43.64-8.31-1.73-11.49-2.66q-12.72-3.72-25.09-8.5-12.84-5-25.22-11c-2.14-1.06-6.23-1.84-5.2-5.16.35-1.15,2.68-2.74,3.49-3.53q4.44-4.36,9.2-8.39a149.65,149.65,0,0,1,43.43-25.84c3.57-1.36,2-7.16-1.6-5.79Z"/><path class="a" d="M521.18,70.23a105.78,105.78,0,0,0-38.71,26c-.84.87-1.73,2-1.38,3.17a3.59,3.59,0,0,0,2,1.83,215.57,215.57,0,0,0,42.43,16.37c2.24.6,5,1,6.58-.66,1.37-1.48,1.12-3.79.75-5.77a231.63,231.63,0,0,0-11.66-40.9"/><path d="M520.78,68.78A107.81,107.81,0,0,0,485,91.59c-2.67,2.54-7.9,6.5-3.85,10.15,2.76,2.49,7.73,4,11.06,5.48q4.74,2.15,9.59,4.06c7.54,3,15.41,5.94,23.34,7.72,4,.89,8.47.81,9.42-4,.49-2.5-.46-5.46-1-7.9q-1.29-6.34-3-12.62a236.94,236.94,0,0,0-8-24.65c-.68-1.78-3.58-1-2.89.8a236.27,236.27,0,0,1,10.18,33.65c.48,2.16,2.46,7.27,1.72,9.31-1.1,3-4.23,2.87-6.6,2.28-1.47-.37-2.93-.81-4.38-1.24q-8.31-2.46-16.39-5.58-8.75-3.37-17.16-7.52c-.74-.37-2.8-1-3.26-1.64-1.51-2.18.23-3.21,1.45-4.42q3-3,6.15-5.7a102.36,102.36,0,0,1,30.14-18.09c1.78-.69,1-3.59-.8-2.9Z"/><path class="e" d="M510,104.43a2.87,2.87,0,1,1-1.52-3.77A2.87,2.87,0,0,1,510,104.43Z"/><path class="e" d="M511.29,97.3c-.44.79-1,1.16-1.68.86s-.82-.93-.54-1.82l4.14-12.8c.46-1.46,1.53-3.4,3.75-2.44s1.71,2.87.84,4.41Z"/><path d="M129.47,156.74c-1.25-.66-4.68-.37-6.14-.37-2.78,0-5.55.95-8.33.95-2.19,0-4.24-.95-6.43-.95-1.68,0-3.36.51-5,.51-1.83,0-2.26-7.08-2.26-8.47a3.91,3.91,0,0,1,.29-1.61c1-2.05,17.9-1.17,22.21-1.17,2.12,0,4.24-.88,6.35-.88a117.42,117.42,0,0,1,13.3,1.32c3.14.37,6.87-.15,10.08-.15,1.9,0,9.72.22,10.82,1.61.65.88,1.68,6,1.68,7.16,0,2.12-7.16,2.05-7.67,2.12-.15,0-13.81.29-15.06,1-2.55,1.54-4.09,7.75-4.09,10.52a4.18,4.18,0,0,0,.08,1c1.31-.66,5.33-3.88,6.35-3.88a2.05,2.05,0,0,1,1.32.73c1.61,1.61,2.85,3.51,4.53,5.05s4.45,2.19,6.28,3.79c1.24,1.1,10.37,9.72,10.37,10.45,0,1.17-6.42,7.89-7.52,7.89-2.26,0-7.6-8.18-9.5-9.79-1.39-1.24-9.35-7.3-10.59-7.3-1,0-1.24,4.45-1.24,5.4,0,2.49,1.17,4.75,1.17,7.24s-1,4.67-1.25,7-.22,4.75-.22,7c0,1.83.52,3.66.52,5.48a2.35,2.35,0,0,1-.22.95c-.88.51-2.93.22-3.95.22-2.12,0-4.09,1-6.06,1s-1.54-4.75-1.54-6.14c0-2.85.81-5.55.81-8.32,0-1.9-.3-3.8-.3-5.7,0-3.22.74-6.51.74-9.79a6.21,6.21,0,0,0-.37-2.27c-5.11,1.61-19.43,15.49-21.48,15.49-.36,0-.8-.51-1-.73-.66-.8-6.21-8.91-6.21-9.21,0-1.09,4.53-2.33,5.55-3.06,5.63-4,11.25-8,16.07-12.86,1.68-1.68,3.14-4.46,4.46-6.21.07-.08,3.51-4,3.51-4.82Z"/><path d="M213.27,181.65a10.42,10.42,0,0,0,.51,2.12c.44,1.17,6.58,1.61,7.89,1.61,4,0,8-.88,11.91-.88,1.32,0,1.54.66,1.54,1.83,0,1.38-.44,5.91-1.17,7-1.25,1.83-12.64,1.1-15,1.1-4.6,0-5.7-.88-5.7,4.31a3.31,3.31,0,0,0,.15.87c.73.59,3.43.59,4.45.59,2.56,0,5.19-.51,7.75-.59q6.24-.21,12.49-.22c.95,0,3.36-.29,3.36,1.1a19.47,19.47,0,0,1-.95,3.94c-2.12,6.51-3.29,5.19-9.71,5.19-2.05,0-4.1-.44-6.14-.44-2.49,0-4.9.51-7.38.51a104.53,104.53,0,0,1-16.51-1.82,30,30,0,0,1-5-2.12c-2.41-1.1-4.53-4.6-6.36-5-1.82.44-6.5,8.4-9.2,8.4-1.17,0-7.6-4.75-7.6-5.92s12-12.71,12-21c0-2.56-9.93.73-9.93-3.21,0-1.76-.66-6.87,1.75-6.87,3,0,6,.36,9.06.36,7.89,0,15.78-1.09,23.67-1.09,2.92,0,5.84.44,8.77.44,2.55,0,5.11-.59,7.67-.59h7.23c6.28,0,6.36.37,6.36,7.53,0,2.77-4.24,2.77-6.36,2.77s-4.31-.8-6.5-.8-4.31.66-6.43.66c-1.83,0-3.58-.29-5.33-.29a4.58,4.58,0,0,0-1,.14Zm20.09-15.71c0,.73,0,2.12-.58,2.63-.81.73-5.63.88-6.94.88-3.73,0-7.45-.44-11.18-.44-5.11,0-10.16.29-15.27.29-3.51,0-6.94.66-10.45.66-1.31,0-6.28-.58-7.08-1.39-.59-.58-.73-2.12-.81-2.92a74.05,74.05,0,0,1-.51-8.91c0-2.12.73-4.24.73-6.36,0-5.19-1.46-6.28,3.22-6.94a27.51,27.51,0,0,1,3.5-.37c2.78,0,5.48.74,8.26.74,2.41,0,4.89-.37,7.3-.37,3.51,0,7,.29,10.52.29,5.48,0,11-.51,16.44-.51,1.1,0,2.85-.29,2.85,1.32,0,3.5-.73,7.08-.73,10.66,0,2.49.73,4.9.73,7.31ZM195,184.65c0,1.38-.59,2.77-.59,4.09,0,3,5.41,7.74,8.18,8.25a6.46,6.46,0,0,0,.08-1.24c0-2-.51-3.95-.66-5.92-.15-2.26,0-4.6-.15-6.87a2.86,2.86,0,0,0-.29-1.31,1.8,1.8,0,0,0-1.24-.37c-1.39,0-2.78.37-4.16.37-3,0-6.07-.22-9.06-.07C188.72,182.53,195,182.23,195,184.65Zm26.15-24.48h-.66c-2.19-.15-4.45.22-6.64.22-5.48,0-11-.51-16.52-.51-1.53,0-5.18-.22-6.13.29a1.47,1.47,0,0,0-.29,1c.51.73,12.71,1.24,14.46,1.24,2.92,0,5.85-.73,8.77-.73,2.26,0,4.53.37,6.87.29h.58l.37-.29a3.43,3.43,0,0,0-.3-1.17Zm1-9.28a14.34,14.34,0,0,0-3.06-.22H215c-2.77,0-5.55.44-8.25.44h-8.48c-1.82,0-3.65-.51-5.48-.36l-1,.07-.44.36a2.44,2.44,0,0,0-.22.66v.66l.37.36c2.63.3,5.41-.14,8-.14s5.4.44,8.18.44c3.29,0,13.15.36,14.46-.66a3.44,3.44,0,0,0,.37-1.24Z"/><path d="M348.66,156.74c-1.24-.66-4.67-.37-6.14-.37-2.77,0-5.55.95-8.32.95-2.2,0-4.24-.95-6.43-.95-1.68,0-3.36.51-5,.51-1.83,0-2.27-7.08-2.27-8.47a3.91,3.91,0,0,1,.29-1.61c.95-2.05,17.9-1.17,22.21-1.17,2.12,0,4.24-.88,6.36-.88a117.42,117.42,0,0,1,13.3,1.32c3.14.37,6.86-.15,10.08-.15,1.9,0,9.71.22,10.81,1.61.66.88,1.68,6,1.68,7.16,0,2.12-7.16,2.05-7.67,2.12-.15,0-13.81.29-15,1-2.56,1.54-4.09,7.75-4.09,10.52a4.77,4.77,0,0,0,.07,1c1.32-.66,5.33-3.88,6.36-3.88a2,2,0,0,1,1.31.73c1.61,1.61,2.85,3.51,4.53,5.05,1.83,1.6,4.46,2.19,6.29,3.79,1.24,1.1,10.37,9.72,10.37,10.45,0,1.17-6.43,7.89-7.53,7.89-2.26,0-7.59-8.18-9.49-9.79-1.39-1.24-9.35-7.3-10.6-7.3-1,0-1.24,4.45-1.24,5.4,0,2.49,1.17,4.75,1.17,7.24s-1,4.67-1.24,7-.22,4.75-.22,7c0,1.83.51,3.66.51,5.48a2.2,2.2,0,0,1-.22.95c-.88.51-2.92.22-3.94.22-2.12,0-4.1,1-6.07,1s-1.53-4.75-1.53-6.14c0-2.85.8-5.55.8-8.32,0-1.9-.29-3.8-.29-5.7,0-3.22.73-6.51.73-9.79a6,6,0,0,0-.37-2.27c-5.11,1.61-19.43,15.49-21.47,15.49-.37,0-.81-.51-1-.73-.66-.8-6.21-8.91-6.21-9.21,0-1.09,4.53-2.33,5.55-3.06,5.63-4,11.26-8,16.08-12.86,1.68-1.68,3.14-4.46,4.45-6.21.08-.08,3.51-4,3.51-4.82Z"/><path d="M429.62,202.54c0,1-.3,1.83-1.39,2.05a107,107,0,0,1-12.71,1.9c-7.09.8-14.32,2.56-21.48,2.56-2.27,0-2.71-6.8-2.71-8.55a4.37,4.37,0,0,1,.15-1.68c.8-2.19,12.49-.88,13.66-2,.59-.58.51-2.41.51-3.21s.08-2.56-.36-3.14c-1.61-2-11.33.22-11.33-2.85a18.38,18.38,0,0,1,.3-2.85c.87-6.36,2.48-4.09,9.42-4.09a2.14,2.14,0,0,0,1.53-.3,3.31,3.31,0,0,0,.15-.87c0-1.1-.44-2.34-.44-3.44,0-2,7.6-1.68,9.06-1.68.81,0,2.27.08,2.27,1.25s-.3,2.33-.3,3.58c0,1.9,7.82,1,9.21,1s2.19.58,2.19,2a18.17,18.17,0,0,1-.44,2.92c-1.17,6.87-2.7,4.83-8.76,4.83-2.78,0-2.27,2.84-2.27,4.89a1.09,1.09,0,0,0,1.24,1.24c3.58,0,7.09-.66,10.6-.66C429.84,195.38,429.62,201.08,429.62,202.54Zm13.07-38.79c0,1.39-.58,27.25-2,28.2-.8.59-3.29.51-4.31.51-1.31,0-4.67.37-4.67-1.53s.29-3.87.29-5.85c0-2.41-.51-4.82-.51-7.23,0-1.9.29-3.8.29-5.7a1.1,1.1,0,0,0-1.24-1.17c-2.05,0-4.24.88-6.29,1.17-2.92.44-5.77.08-8.69.08-6,0-12.06.94-18,.94s-5.33-1.09-5.33-6.94c0-3.36,4-1.75,5.77-3.58a10.52,10.52,0,0,0,1.54-3.43,13.57,13.57,0,0,0,.73-2.85,1.78,1.78,0,0,0-.15-.58c-1.83-1.9-8.11.73-8.11-3.14,0-1.39.37-7.24,2.19-7.24,2.27,0,4.39.51,6.65.51,4.9,0,9.79-.87,14.69-.87,2,0,4,.22,5.91.36,1.68.15,7.89-.22,7.89,2.71,0,9.93-.73,5.69-6.35,7.45.22,1,7,12.71,9.06,14.39a48.63,48.63,0,0,0-.08-6.5c-.07-3.87-.07-7.82-.07-11.76,0-1.61.37-2.27,2.12-2.27,8.18,0,8.69-1.31,8.69,7.53Zm-25.79-.15c0-.95-2.11-2.55-2.11-3.72,0-.88,4.53-4.09,5.33-5-4.82-.29-7.09.51-9.06,4.82a14.71,14.71,0,0,0-1.24,3.22.8.8,0,0,0,.07.36c.8.66,3.36.51,4.46.51.8,0,1.68,0,2.48-.07Zm31.2-6.79c0-3.29.22-6.58.44-9.79.07-.88-.07-2.05.73-2.7s5.84-.81,6.94-.81,1.68.15,2,1.17c.15.51.22,5.85.22,6.58,0,6.5.29,13,.29,19.5,0,2.34-.43,4.61-.43,6.94,0,2.12.73,4.24.73,6.36v7.67a50.78,50.78,0,0,1-1.1,7.38c-1.17,7.89-1,9.06-9.42,10.23a54.11,54.11,0,0,1-6.87.8c-.81,0-1.61.08-1.9-.87-.15-.52-2-8.92-2-9,0-2.78,10.59-.58,10.59-3.36,0-3.58-.73-7.23-.73-11,0-3.14,1-6.14,1-9.35,0-4.24-.51-8.48-.51-12.79Z"/><path d="M470.83,153.08c1.68-3.5,2.55-7.16,4.09-10.66.22-.44.44-.81.95-.81,1.46,0,7.89,2.27,7.89,3.88,0,.65-5,12.71-5.63,15.12.95-1.61,5.12-10.3,6.8-10.3,1.17,0,6.28,2.55,6.28,3.8,0,2.48-6.72,10.08-7.89,12.12,1.53-.29,3.29-1.24,4.75-1.24,2.19,0,3.29,9.79,5.7,9.79,1.9,0,10.88-4.09,10.88-6.06,0-.88-2.11-4.53-2.92-4.75-2,.51-3.72,4.09-5.55,4.09-1.17,0-7.09-5.11-7.09-6.28a1.2,1.2,0,0,1,.37-.81c3.07-3.28,6.79-5.84,9.35-9.64,2.19-3.29,3.14-6,4.67-9.57a1.44,1.44,0,0,1,1.47-.95c1.38,0,9.27,1.46,9.27,2.78,0,.65-1.53,2.48-1.75,3.65,1.61.44,3.58,0,5.26,0a47.08,47.08,0,0,1,7.09.58c1.24.22,6.57,3.07,6.57,4.31,0,.44-5.91,10.74-6.57,11.47-.73.88-1.76,1.68-2.56,2.49-.58.51-1.83,1.53-1.83,2.34,0,1,2,2.41,2.71,3.06,5.26,4.61,8.62,3.44,11.83,5.85a.86.86,0,0,1,.08.44c0,.29-6.51,7.74-7.16,7.74-1.25,0-13.15-8.55-15.56-8.55-1.9,0-10.6,8-15,8-1.39,0-2.27-2.85-4-3.58-1.09-.51-5.55-.58-7-.58a2.15,2.15,0,0,0-1.61.51,37.29,37.29,0,0,0-.29,3.94,1.89,1.89,0,0,0,.29.66h.51c1.39.15,2.71-.88,4.17-.88a1.78,1.78,0,0,1,.58.15c1.17,1.17,4.9,10.59,4.9,11.69,0,1.39-4.46,2.85-5.7,2.85-1.9,0-4-7.31-4.82-8.77a41,41,0,0,0,0,6.07v7.16c0,6.28-1.61,5.91-7.6,5.91-2.34,0-2-1.68-2-3.43,0-3.73.36-7.45.36-11.18,0-1.61.07-3.14-.07-4.75-.44,2.27-2,14.18-5.12,14.18-1.53,0-6-2.27-6-4.1,0-2.11,2.19-14.75,3.66-15.7a2.16,2.16,0,0,1,.95-.22c1.82,0,3.58,1.17,5.4,1h.59l.36-.51v-1.1c0-3.8-7.38-1.6-9.57-3.58-1-.87-1.39-5.48-1.39-6.86,0-2.12,3.29-1.1,4.68-1.1,1.68,0,2.34-1.1,3.21-2.34l.08-.73c-.81-2.85-7.46-8.47-7.46-9.57s4.1-7.52,4.9-7.52a2.11,2.11,0,0,0,1.1.43Zm12.86,18.71a5,5,0,0,0-1.39-3.07,9.29,9.29,0,0,0-3.22,3.07,6.12,6.12,0,0,0,2.27.29A8.21,8.21,0,0,0,483.69,171.79ZM502.9,192.9a18.78,18.78,0,0,1,2.12.51,101.15,101.15,0,0,1,17.53,7.09c1.39.66,4.83.58,5.41,2.12-.37,1.46-4.31,8.11-5.7,8.11-.88,0-10.23-4.46-12.05-5.19-3-1.17-5.92-2.34-8.92-3.43-.87-.37-5.48-1.54-5.48-2.49,0-1.39,5.12-6.87,6.65-6.72Zm20.9-4.82c0,1.17-3.95,6.36-5.19,6.36a1.9,1.9,0,0,1-1.1-.3c-3.36-2.12-6-4-9.79-5.4-.73-.3-3.29-.81-3.29-1.83s3.66-5.19,5-5.19C512.47,181.72,523.8,186.47,523.8,188.08ZM512,156.88c-.73,0-3.21,0-3.65.37l-.07.29c0,.66,3.07,4.16,3.87,4.16,1,0,5.33-3.65,5.33-4.45a9.34,9.34,0,0,0-3.5-.37Z"/><path d="M548.5,195a19.29,19.29,0,0,1,5.4-1.17c1.54,0,2.05,6.94,2.05,8.33v3.65c0,1.76-3.8,1.68-5,1.68-3.07,0-2-6.72-2.34-9.28-.95,1.83-2.92,11.18-5.55,11.18a15.52,15.52,0,0,1-5.48-2.48,1.91,1.91,0,0,1,.22-.88c.73-1.46,2.12-2.78,2.7-4.31.66-1.75.73-5.26,1.75-6.43a1.27,1.27,0,0,1,.74-.14,27.51,27.51,0,0,1,5.26,1.09.53.53,0,0,0,.22-.44c0-.14-.22-.36-.3-.51Zm47.12-30c-2,0-1.83,6.72-1.83,8.11,0,3.22,2.34,2.05,4.82,2.05,7.16,0,5.41.87,5.41,7.3,0,1.83.44,3.58.44,5.41,0,2.48-.15,4.89-.15,7.38s.37,5.19.37,7.82c0,1.31-.29,6.06-1.32,6.79a4.31,4.31,0,0,1-2.34.44c-1.24,0-5.69.07-6.42-.88-.44-1.17.14-2.26-1.61-2.26s-8.55.44-9.43,1.46l-.36,1.68c-.66.66-3.58.58-4.6.58-5.78,0-4.17-1-4.17-5.91a1.7,1.7,0,0,0-.29-1h-.22c-1.24-.07-3.73,2.19-5.55,2.19-.59,0-1.17-2.19-1.32-2.63-.51-1.6-3.94-8.62-3.87-9.2v-.22c1-.95,3.8-.95,5.19-1.53a37.24,37.24,0,0,0-7-.59c-2,0-4,.29-6.06.44-3,.15-6.06.07-9.06.07-2.05,0-4.09.95-6.14.95-1,0-1.17-.8-1.17-1.68,0-8-.8-7.08,5.34-7.08a34.15,34.15,0,0,0,6.72-.37l.36-.37a5.5,5.5,0,0,0-.29-1.09c-1-.95-8-.37-9.42-1.61-1-.8-1.24-5.11-1.24-6.35,0-1.39,1-1.54,2.11-1.54,2.56,0,5.19.66,7.75.66.73,0,1.31-.15,1.31-.95a1,1,0,0,0-.14-.66c-3.51-.51-6.94-.14-10.45-.14-1.53,0-1.32-2-1.32-3,0-4,.52-8,.52-12,0-2.19-.44-4.31-.44-6.5s-.29-7.6,2.34-7.6c2.19,0,4.31.36,6.5.36,3.14,0,6.35-.44,9.5-.44,2.48,0,5,.22,7.45.22,4.24,0,6.28-1.17,6.87,3.58.14,1.46.43,3,.43,4.46,0,5.84-.73,11.62-.73,17.46,0,3.07.51,3.51-2.55,3.51-2.12,0-4.24-.29-6.36-.22h-2l-.44.29c0,.29-.07.59-.07.8a1.51,1.51,0,0,0,.14.81,44.68,44.68,0,0,0,5.41.36c1.46,0,2.92-.36,4.38-.36a1.16,1.16,0,0,1,.88.29,8.61,8.61,0,0,1,.29,3.36c0,.81.22,2.56-.36,3.36-.81,1.1-8.41.59-10.52,1a3.31,3.31,0,0,0-.3,1.89l.37.44,1,.08a31.46,31.46,0,0,0,6.35-.37,24.68,24.68,0,0,1,4-.66c1,0,1.1.66,1.1,1.54,0,1.17-.37,6.43-1.25,7-.44.29-1.17.44-1.68.73l-.29.59a42.64,42.64,0,0,0,3.29,7.45c.8-1.39,1-5.41,1-7.09,0-1.53-.36-3.21-.44-4.75-.22-3.43-.22-6.86-.22-10.3,0-5.48,2.71-3.72,7.16-3.72,2.56,0,2.71-4.1,2.71-6.07,0-6.72-.59-13.44-.59-20.16,0-8.11,1.17-7.31,8.62-7.31a2.77,2.77,0,0,1,1.54.37c1,.73.36,9.13.36,10.44,0,.66-.07,2.63.37,3.07,1.31,1.32,12-.14,13.15,1.24a5.48,5.48,0,0,1,.29,2.42c0,1.31.07,6.79-1.68,6.79-2.7,0-5.41-.66-8.18-.66Zm-47.78-2.92c0,.8-.08,3,1.09,3,2.05,0,4.17.36,4.17-2.12a1.53,1.53,0,0,0-.22-.81c-1.1.08-2.34.66-3.36.66-1.61,0-1.46-5.63-1.61-6.79-.07,1.24-.07,2.55-.07,3.87Zm4.82-10c0-2-1.83-2-3.36-2a4.63,4.63,0,0,0-1,.07,2.2,2.2,0,0,0-.22,1,3.3,3.3,0,0,0,.22,1.24,6.88,6.88,0,0,0,2.11-.58l.52.22c.87,1.53,1,3.87,1.6,5.55a19.05,19.05,0,0,0,.15-2.92Zm11.83,53a2.32,2.32,0,0,1-.29,1c-.8.66-3.43,1-4.45,1-.59,0-1-.58-1.1-1.09s-2-10.08-2-10.74a2.59,2.59,0,0,1,.07-.73c.59-.73,3.07-1.24,4-1.24,2,0,3.72,8.11,3.72,9.86Zm-.43-55.16c-4.31,0-5.41.51-5.41,4.67a19.58,19.58,0,0,0,.15,3c.87-1.75,1.17-3.8,2.19-5.48a1.36,1.36,0,0,1,.51-.15c.8,0,1.61.52,2.48.52a4,4,0,0,0,.37-1.25A2.65,2.65,0,0,0,564.06,149.87Zm-2.78,13a20.74,20.74,0,0,0-2-.43,2.47,2.47,0,0,0-.29,1.24,1.41,1.41,0,0,0,.15.8,18.13,18.13,0,0,0,3.94.37c1.61,0,1.54-4.75,1.46-5.85v-.73c-1.09,1.32-1.46,3.22-2.63,4.38Zm32.8,23.24c-.87-.59-7.16-1-8.47-1-.88,0-1.61.22-1.68,1.17-.22,1.76,0,3.51-.15,5.26-.14,1.54-.73,3.14-.73,4.68,0,1.75,7.45,2.12,8.92,2.12,3.65,0,2.41-3.44,2.48-6.29.07-1.24.22-2.48.22-3.72C594.67,187.64,594.74,186.54,594.08,186.11Z"/><path d="M272.93,160.3a36.08,36.08,0,0,0,8.69-13.81c.51-1.46,1.39-6.14,3.22-6.14,1.38,0,8.11,2,8.11,3.36,0,1-1.1,2.85-1.1,3.65a2.12,2.12,0,0,0,.07.66c1.24.59,5.19.51,6.21.59,4.68.36,8.84.65,13.52.65,1.9,0,1.75,1.47,1.75,3,0,4.53-.87,9.06-.87,13.59,0,3.07.58,6,.58,9.06,0,4.24-.51,9.94-2.41,13.73-.59,1.17-1.68,2.05-2.27,3.22v.58c1.54,1.32,6.29.73,6.29,3.15,0,3.28-2.12,10.59-5.26,12.12-2.71,1.32-15.64,2.12-19,2.12-1.9,0-7.23-.66-8.84-1.46-4.89-2.48-5.11-14.83-5.11-19.36v-7.53c0-3.72.36-7.52.36-11.25a6.9,6.9,0,0,0-.29-2.41c-.29-.73-4-3.58-4.82-3.58ZM299.81,184a.59.59,0,0,0,.37.07,3.25,3.25,0,0,0,1.68-1,39.65,39.65,0,0,0,2.19-11.68c0-2.56-.36-12.06-3-12.86a23.05,23.05,0,0,0-6.36-.66c-1.39,0-6.72.44-7.75.95-.8.44-1.31,2.41-1.53,3.29l.22.65a2.34,2.34,0,0,0,.95.3h5.77c1.9,0,3.8-.59,5.77-.59,1.76,0,2.12,7.67,2.12,9.21,0,3.87-.73,7.82-.51,11.69ZM286.3,171.18a2.88,2.88,0,0,0-.22,1.1,18.06,18.06,0,0,0,.44,5.33,2.34,2.34,0,0,0,1.68.44h1.46c.22,0,.44-.22.58-.36a2.92,2.92,0,0,0,.22-1.1,19,19,0,0,0-.66-5l-.58-.51a5.86,5.86,0,0,0-1.17-.15h-1.24Zm3.94,14.32c-1.68,0-4.16-.36-4.16,2a40.38,40.38,0,0,0,1,8.4,6.55,6.55,0,0,0,2.27,2.41c1.31,1.09,2,1.75,3.79,1.75,5.19,0,6.87.51,10.16-3.65a10.16,10.16,0,0,0,1.68-2.7c-1.39-.44-3.14-.08-4.6-.08-2.78,0-2.12-6.21-4.31-7.6-.88-.58-2.78-.51-3.88-.51Z"/><path d="M274.38,161.06a11.2,11.2,0,0,0-.07,1.53c0,2.85.29,5.63.29,8.47a2.27,2.27,0,0,1-.29.95c-.95.66-2.27.37-3.43.37a6.17,6.17,0,0,0-2,.29,1.2,1.2,0,0,0-.36.88v3.29a1.16,1.16,0,0,0,.36.8c1.17.51,1.46.22,2.56.22h1.68c2.34,0,2.27,2.34,2.27,3.65,0,1.05.57,4.48.48,5s-5.53.31-5.53.31l-1.09.08c-.66.36-.66,1-.66,1.68,0,1.09.07,5,.8,5.77a2.79,2.79,0,0,0,.81.14c1.39,0,2.7-.65,4.16-.65,1.68,0,1.83,5,1.83,6.28,0,1-.15,1.68-1.17,2.05-4.53,1.75-9.57,2.19-14.1,3.87a28.76,28.76,0,0,1-5.33,1.9,32.19,32.19,0,0,1-5.26.44c-2.12,0-2.42-6.73-2.42-8.33a.82.82,0,0,1,.37-.51c.58-.08,1.17-.08,1.75-.15,1.39-1.24.66-7.31.66-8.84.07-4.38,0-8.7,0-13.08,0-2.12,3.29-1.75,4.82-1.75,4.17,0,3.29,2.34,3.29,6.5,0,2.85-.73,5.63-.73,8.48a57.74,57.74,0,0,0,.22,6.13l.22.37a2.84,2.84,0,0,0,.8.07l.22-.44c.59-5,.29-10.23.29-15.27,0-2.7.59-5.33.59-8,0-3.73-9.35.51-9.35-3.65,0-2.27.36-4.61.36-6.87,0-1.24-.29-14,.66-15.05,1.46-1.46,11.69-1.32,13.3-1.32,2.26,0,4.45-.44,6.72-.44,0,0,2-.69,1.73,2.11C273.85,148.33,274.46,159.37,274.38,161.06Zm-11.91-5.78c-.65,0-1.46-.07-1.9.51s-.73,5.19-.73,6.14a2.65,2.65,0,0,0,.22,1.32,3.25,3.25,0,0,0,2.19.44h.66a3.7,3.7,0,0,0,2.49-.59,7,7,0,0,0,.29-2.7c0-2.27.44-5.12-2.41-5.12Z"/></svg>