<svg xmlns="http://www.w3.org/2000/svg" viewBox="0 0 202 292"><defs><style>.a{fill:#fff;}.b{fill:#f15a24;}</style></defs><title>board-15</title><path class="a" d="M88.49,93.47c.81,63,9.82,131.62,10.63,194.6a42.87,42.87,0,0,1,18.5-7.28c-6.29-58.87-10.91-123.15-10.68-182.36,0-2.11-.15-4.57-1.88-5.77-1.29-.89-3-.75-4.56-.57l-12,1.38"/><path d="M85.49,93.47c.92,65,9.71,129.6,10.63,194.6,0,2.16,2.57,3.89,4.52,2.59a43.78,43.78,0,0,1,17.78-7,3,3,0,0,0,2.2-2.89c-3.93-36.94-7.05-74-8.9-111.07Q110.34,142.39,110,115c0-4.92,0-9.85-.06-14.77,0-2.75.19-5.86-1.43-8.26-3.89-5.77-14.47-2.17-20-1.53-3.8.43-3.84,6.44,0,6,3.51-.4,8.49-1.89,12-1.38,2.45.35,2.92,1,3.44,3.34.49,2.18,0,5.1,0,7.35q0,12.09.31,24.19.57,25.13,2,50.23c1.9,33.6,4.79,67.13,8.35,100.59l2.21-2.89a47.66,47.66,0,0,0-19.22,7.58l4.51,2.59c-.92-65-9.71-129.6-10.63-194.6-.06-3.86-6.06-3.87-6,0Z"/><path d="M98,219.23c2.73,21.2,5.8,42.39,7.21,63.72.13,1.92,3.13,1.93,3,0-1.41-21.33-4.48-42.52-7.21-63.72-.25-1.88-3.25-1.91-3,0Z"/><path class="a" d="M4.94,31.89,18.05,255.38a3.37,3.37,0,0,0,.14,1.05c1.18,3.77,4.35,3.31,7,2.79l169-32.65a4.3,4.3,0,0,0,2.24-.88,3.08,3.08,0,0,0,.61-2.55c-1.5-21.23-15.66-193.27-17.15-214.51a6.76,6.76,0,0,0-.36-1.82c-1.37-3.61-5.34-3.06-8.55-2.38C116.7,16,59.21,20.3,4.94,31.89"/><path d="M1.94,31.89,8,134.66l7,118.66a24.87,24.87,0,0,0,.23,2.86c1.81,10,14,5.32,20.58,4.05l75.74-14.63,77.68-15c3.71-.71,9.2-.62,10.6-4.94a13.21,13.21,0,0,0,.11-4.9q-.36-4.69-.73-9.4c-4.06-51.87-8.36-103.71-12.54-155.57Q185.3,39.63,184,23.47c-.41-5.26.59-16.83-3.63-20.61-2.53-2.27-6-2.06-9.11-1.54-6,1-11.89,2.45-17.84,3.56-12.53,2.34-25.12,4.36-37.73,6.26-25,3.75-50.11,7-75.08,11.07-12.2,2-24.37,4.22-36.48,6.78-3.77.8-2.17,6.59,1.6,5.79C53.23,24.72,101.65,20.26,149.4,11.69q8.43-1.5,16.81-3.21A62.11,62.11,0,0,1,173.59,7c2.27-.17,2.92.67,3.37,2.71.54,2.5.4,5.37.6,7.92q1,13.58,2.15,27.14,6.16,76.86,12.4,153.7.88,10.95,1.72,21.91c0,.59.47,2.23.2,2.74-.79,1.49-6,1.58-7.44,1.85l-10.68,2.07L139,234.19l-73.8,14.25-35.93,6.95C26,256,21.76,258,21,254.17c-.85-4.17-.52-8.95-.77-13.19l-1.47-25.11-4.12-70.24L8.06,34l-.12-2.06c-.22-3.84-6.22-3.87-6,0Z"/><path d="M76.61,205.38c.75.07,1.06-.18,1.21.73.13.75.7,3.39-.3,3.56-.85.14-1.77,0-2.61.15-.47.08-2.77.53-2.69,1,.12.72,4.1,4.1,4.88,4.55a9.46,9.46,0,0,0,1.85.65c.3.11,1.52.45,1.57.73s-.91,1.67-1.13,2.12-.75,2.41-1.37,2.52a5,5,0,0,1-1.27-.24c-4.69-1.33-6.31-5.82-7.53-6.2a.68.68,0,0,0-.28.25c-.33.53-.4,1.29-.72,1.85-1.31,2.18-2.21,4.27-4,6.18-.22.22-.82.87-1.1.92-.56.09-3.54-2.33-3.64-2.92,0-.25.71-1,.87-1.12a14.27,14.27,0,0,0,4.25-6.47,5.67,5.67,0,0,0,.36-1.86l0-.12c-.56-.26-3.3.43-4.33.6s-1.59.49-1.78-.64c-.1-.59-.55-3.28.29-3.42s1.77,0,2.61-.15a9.85,9.85,0,0,0,1.57-.42c1.62-.53,1.64-.41,1.32-2.32a10.61,10.61,0,0,0-.77-2.86,5.89,5.89,0,0,0-2.11.13,6.65,6.65,0,0,0-2.17.85.87.87,0,0,0,0,.39c.08.47.28.92.36,1.39.12.69-1.59,1.81-2.18,1.91s-1.39-1.54-1.8-1.92c.17,1.07.51,2.1.69,3.16s.14,2.2.33,3.29.68,2.14.86,3.23c.33,2,.35,4,.68,6,.18,1,.69,2,.86,3,.13.82-1.56.91-2.12,1a6.28,6.28,0,0,1-2.09.16c-.42-.19-1.17-4.82-1.31-5.66-.18-1.1-.15-2.23-.33-3.32l-1.12-6.63a2.57,2.57,0,0,0-.15-.72l-.05-.12c-.07,0-.08.15-.07.17-.13.57,0,2.29-.72,2.41s-3.2-.07-3.32-.79a13.78,13.78,0,0,1,.12-1.76c.1-.79.25-1.62.34-2.4s-.2-3.09,0-3.38c.28-.46,1.67-.21,2-.69.46-.65,0-3.72-.17-4.6-.27-1.63-.34-1.68,1.31-2a7.11,7.11,0,0,1,2.33-.13c.77.38.8,4.37,1.47,5.28a.54.54,0,0,0,.22,0c.28-.05.93-.58,1.24-.63.63-.11,1.45,2.3,1.66,2.78,0-.74-.69-3.36.19-3.67s4.06-.52,4.18-1.12a2,2,0,0,0,0-.77c-.49-2.93-1.39-3.88,1.64-4.39.5-.08,1.64-.37,2.08-.06,1,.73.65,4.46,2.09,4.41a13.35,13.35,0,0,0,2-.24c1.06-.18,2.06-.57,3.09-.74s.93,1.74,1,2.39c.3,1.79,1,3.44,1.27,5.22a6.29,6.29,0,0,0,.29,1.34Zm-7.06-3.92a1.31,1.31,0,0,0-.85.33,1,1,0,0,0,0,.43c.11.68.42,1.34.53,2s.06,1.31.17,1.93c0,.25.27.31.49.27a5.39,5.39,0,0,0,1.85-.5.88.88,0,0,0,0-.39c-.11-.63-.49-1.17-.59-1.8s-.14-1.36-.25-2a.9.9,0,0,0-.18-.35.67.67,0,0,0-.37-.07Z"/><path d="M101,197.1c.1.6,1.71,11.71,1.18,12.21a4.44,4.44,0,0,1-1.81.53c-.56.1-2,.5-2.11-.32s-.15-1.68-.29-2.52c-.18-1-.57-2-.74-3.06-.14-.81-.15-1.65-.29-2.46a.48.48,0,0,0-.61-.41,21.52,21.52,0,0,0-2.61,1,24.55,24.55,0,0,1-3.72.66c-2.56.43-5.09,1.28-7.65,1.71s-2.36-.09-2.78-2.59c-.24-1.44,1.56-1,2.21-2a4.72,4.72,0,0,0,.41-1.58A6.17,6.17,0,0,0,82.3,197a.86.86,0,0,0-.11-.24c-.92-.68-3.42.89-3.69-.76-.1-.6-.37-3.12.41-3.25,1-.17,1.92-.1,2.89-.27,2.09-.35,4.12-1.07,6.22-1.43.84-.14,1.73-.19,2.56-.27s3.36-.66,3.57.59c.71,4.26.1,2.49-2.19,3.65.17.39,3.92,4.94,4.92,5.51a21.89,21.89,0,0,0-.5-2.78c-.31-1.65-.6-3.34-.88-5-.12-.69,0-1,.74-1.12,3.51-.59,3.63-1.19,4.27,2.59Zm-2.81,17.55c.07.43,0,.8-.45,1a46.85,46.85,0,0,1-5.3,1.73c-3,.86-5.94,2.12-9,2.64-1,.16-1.64-2.71-1.77-3.46a1.8,1.8,0,0,1-.06-.73c.19-1,5.28-1.28,5.7-1.86.21-.29,0-1.07,0-1.41a3.17,3.17,0,0,0-.38-1.32c-.84-.76-4.84.91-5.06-.41a10.06,10.06,0,0,1-.08-1.24c-.08-2.78.77-1.93,3.74-2.43a1,1,0,0,0,.64-.23,1.7,1.7,0,0,0,0-.39c-.08-.47-.36-1-.44-1.44-.14-.84,3.13-1.26,3.76-1.37.34-.06,1-.13,1.06.37s0,1,.13,1.55c.14.82,3.42-.15,4-.25s1,.09,1.08.72a7.85,7.85,0,0,1,0,1.28c0,3-.81,2.26-3.41,2.69-1.19.2-.76,1.39-.62,2.26a.48.48,0,0,0,.63.44c1.53-.25,3-.79,4.48-1C97.77,211.57,98.09,214,98.19,214.65ZM90,198.9c-.07-.41-1.09-1-1.18-1.45s1.65-2.07,1.93-2.51c-2.09.22-3,.73-3.53,2.72a6,6,0,0,0-.3,1.46.32.32,0,0,0,0,.16,4.35,4.35,0,0,0,2-.11,9.93,9.93,0,0,0,1.06-.21Zm12.86-5.16c-.24-1.41-.38-2.83-.52-4.22,0-.38-.18-.87.12-1.21a11.5,11.5,0,0,1,2.91-.84c.41-.07.73-.06.93.35.1.21.52,2.49.57,2.8.47,2.79,1.06,5.55,1.53,8.33.17,1,.14,2,.31,3s.62,1.77.77,2.67l.55,3.28a21.83,21.83,0,0,1,.06,3.24c.07,3.46.22,4-3.29,5.06a25.71,25.71,0,0,1-2.88.84c-.35.05-.69.14-.88-.24-.1-.21-1.49-3.68-1.49-3.71-.2-1.19,4.49-1,4.29-2.2-.26-1.53-.83-3-1.1-4.64-.23-1.34,0-2.7-.24-4.07-.3-1.81-.83-3.59-1.14-5.44Z"/><path d="M112.26,190.51c.47-1.62.58-3.25,1-4.86.06-.2.12-.37.34-.41.63-.1,3.54.4,3.66,1.09,0,.28-1.21,5.8-1.32,6.88.29-.76,1.45-4.78,2.17-4.9.5-.09,2.87.64,3,1.17.18,1.07-2.15,4.8-2.5,5.76a12.72,12.72,0,0,1,1.94-.87c.94-.16,2.11,3.95,3.14,3.78.82-.14,4.37-2.54,4.22-3.38a4.35,4.35,0,0,0-1.59-1.82c-.81.36-1.3,2-2.08,2.15-.5.08-3.4-1.68-3.48-2.18a.49.49,0,0,1,.09-.37c1.08-1.63,2.49-3,3.31-4.8a22.38,22.38,0,0,0,1.31-4.44.64.64,0,0,1,.56-.51c.6-.1,4.08,0,4.17.52,0,.28-.48,1.18-.49,1.69a9.87,9.87,0,0,0,2.26-.37,20.85,20.85,0,0,1,3.07-.27c.55,0,3,.84,3.13,1.37,0,.19-1.76,5-2,5.39s-.63.84-.92,1.25c-.21.26-.67.78-.61,1.13s1,.89,1.38,1.12c2.58,1.59,3.93.84,5.48,1.65a.35.35,0,0,1,.06.18,23.46,23.46,0,0,1-2.5,3.83c-.53.09-6.25-2.72-7.28-2.54-.81.14-4,4.2-5.83,4.52-.59.1-1.17-1.06-2-1.25a13.6,13.6,0,0,0-3,.25,1,1,0,0,0-.65.34,14.12,14.12,0,0,0,.16,1.71c0,.09.13.2.17.26l.22,0c.6,0,1.09-.57,1.72-.67a.78.78,0,0,1,.26,0,22.25,22.25,0,0,1,2.94,4.65c.1.59-1.71,1.54-2.24,1.63-.81.13-2.24-2.84-2.69-3.41a17.63,17.63,0,0,0,.43,2.6l.52,3.06c.45,2.69-.26,2.65-2.83,3.08-1,.17-1-.58-1.09-1.33-.27-1.59-.38-3.21-.65-4.81a19.91,19.91,0,0,0-.37-2c0,1,.18,6.21-1.17,6.43-.65.11-2.72-.54-2.86-1.32s-.12-6.47.44-7a.85.85,0,0,1,.39-.17c.78-.13,1.61.25,2.38,0l.25,0,.12-.25-.07-.46c-.28-1.63-3.28-.16-4.36-.85-.5-.3-1-2.24-1.09-2.84-.15-.9,1.33-.7,1.93-.8s.92-.64,1.2-1.23l0-.32c-.55-1.17-3.8-3.09-3.88-3.56s1.21-3.52,1.56-3.58a.88.88,0,0,0,.5.11Zm6.85,7.08a2.14,2.14,0,0,0-.81-1.21,4,4,0,0,0-1.16,1.54,2.73,2.73,0,0,0,1,0A3.5,3.5,0,0,0,119.11,197.59Zm9.75,7.65a7.16,7.16,0,0,1,.94.07,44.1,44.1,0,0,1,8,1.77c.65.18,2.11-.1,2.47.52-.05.65-1.26,3.78-1.86,3.88-.37.06-4.69-1.17-5.53-1.35-1.36-.29-2.7-.58-4.06-.83-.4-.09-2.46-.26-2.52-.67-.1-.59,1.69-3.31,2.36-3.35Zm1.31-16.07a4.89,4.89,0,0,0-1.54.42v.13a4.63,4.63,0,0,0,2,1.5,5.49,5.49,0,0,0,2-2.29,4.12,4.12,0,0,0-1.52.1Zm7.28,12.51c.09.5-1.23,3-1.76,3.09a.75.75,0,0,1-.49-.05,21.44,21.44,0,0,0-4.58-1.6c-.33-.08-1.47-.11-1.54-.55a4.44,4.44,0,0,1,1.75-2.58C132.15,199.77,137.34,201,137.45,201.68Z"/><path d="M166.52,186.63c-.84.14-.29,3-.2,3.6.24,1.37,1.15.71,2.22.53,3.06-.52,2.37,0,2.84,2.74.13.78.44,1.49.57,2.28.18,1.06.29,2.1.47,3.17s.53,2.19.72,3.32c.09.56.31,2.61-.07,3a1.9,1.9,0,0,1-1,.35c-.53.09-2.44.45-2.82.09s-.1-1-.85-.85-3.63.8-3.93,1.3l0,.75c-.24.32-1.49.51-1.93.58-2.47.41-1.86-.14-2.21-2.23a.67.67,0,0,0-.2-.42H160c-.54.06-1.44,1.21-2.22,1.34-.25,0-.66-.85-.75-1-.34-.65-2.31-3.4-2.32-3.66l0-.09c.34-.48,1.56-.68,2.11-1a16.41,16.41,0,0,0-3,.25c-.88.15-1.7.42-2.57.62-1.27.28-2.59.47-3.87.69-.87.15-1.68.7-2.56.85-.43.07-.55-.26-.62-.64-.57-3.41-.85-3,1.78-3.42a14.52,14.52,0,0,0,2.85-.64l.13-.18a3,3,0,0,0-.21-.45c-.5-.33-3.46.43-4.15,0-.46-.28-.9-2.1-1-2.64s.3-.72.8-.81c1.09-.18,2.27-.09,3.36-.27.31-.05.55-.16.5-.5,0-.1,0-.22-.11-.27a29.71,29.71,0,0,0-4.49.69c-.65.11-.7-.75-.77-1.19-.29-1.72-.36-3.45-.65-5.17-.16-.93-.5-1.81-.65-2.75s-.68-3.23.45-3.42c.94-.16,1.87-.15,2.81-.31,1.34-.23,2.69-.64,4-.87,1.07-.18,2.14-.26,3.21-.44,1.81-.31,2.6-1,3.19,1a17.22,17.22,0,0,1,.51,1.87c.42,2.5.53,5,.95,7.53.22,1.31.47,1.46-.84,1.68-.91.15-1.84.18-2.74.36l-.84.15-.17.15c0,.13,0,.26,0,.35a.73.73,0,0,0,.13.34,18.56,18.56,0,0,0,2.34-.24c.62-.1,1.22-.36,1.85-.47a.51.51,0,0,1,.39.06,3.83,3.83,0,0,1,.37,1.42c.06.34.28,1.08.08,1.47s-3.55.85-4.42,1.19a1.38,1.38,0,0,0,0,.83l.18.17.42,0a13.27,13.27,0,0,0,2.69-.62,10.25,10.25,0,0,1,1.64-.56c.44-.07.52.2.58.58s.31,2.78,0,3.09c-.16.15-.46.27-.66.43l-.08.27a18.2,18.2,0,0,0,1.94,3,9.06,9.06,0,0,0-.07-3.11c-.11-.66-.39-1.35-.53-2-.34-1.46-.59-2.93-.84-4.4-.39-2.34.89-1.79,2.8-2.11,1.09-.18.86-1.94.72-2.78-.49-2.88-1.22-5.72-1.7-8.59-.59-3.48,0-3.21,3.16-3.75a1.13,1.13,0,0,1,.68.05c.49.23.82,3.88.91,4.44.05.28.16,1.13.38,1.29.66.47,5.15-.93,5.72-.42a2.52,2.52,0,0,1,.3,1c.09.57.52,2.91-.24,3-1.15.2-2.36.11-3.54.31Zm-18,16.24a8.19,8.19,0,0,1,2.23-.89c.65-.11,1.37,2.82,1.47,3.42l.26,1.56c.13.75-1.5,1-2,1.08-1.32.22-1.33-2.74-1.67-3.81-.27.85-.45,5-1.57,5.19a6.65,6.65,0,0,1-2.53-.67.77.77,0,0,1,0-.39c.2-.68.7-1.34.84-2s-.06-2.3.29-2.88a.5.5,0,0,1,.3-.11,11.42,11.42,0,0,1,2.33.09.22.22,0,0,0,.06-.21c0-.06-.12-.14-.16-.19Zm-1.31-18.68c-.15-.88-.93-.72-1.58-.61a2.35,2.35,0,0,0-.44.11,1,1,0,0,0,0,.42,1.46,1.46,0,0,0,.18.52,3.46,3.46,0,0,0,.87-.41l.23.06a14.28,14.28,0,0,1,1.09,2.26,8.84,8.84,0,0,0-.15-1.26Zm-1.35,4.62c.06.35.19,1.29.69,1.21.87-.15,1.81-.14,1.63-1.21a.77.77,0,0,0-.15-.33c-.47.11-1,.45-1.4.53-.68.11-1-2.31-1.17-2.79.06.53.15,1.09.24,1.66Zm6.07-6.38c-1.85.3-2.28.6-2,2.38a8.53,8.53,0,0,0,.28,1.28c.25-.82.22-1.71.54-2.5a.5.5,0,0,1,.21-.1c.34-.06.72.1,1.1,0a1.87,1.87,0,0,0,.07-.56A1.24,1.24,0,0,0,151.93,182.43Zm-.26,5.76c-.31,0-.59-.09-.9,0a1,1,0,0,0,0,.55.6.6,0,0,0,.12.34,8.21,8.21,0,0,0,1.72-.13c.68-.11.31-2.14.2-2.61l-.05-.31c-.38.64-.4,1.48-.81,2.06ZM156.08,206a1,1,0,0,1-.05.46,4.32,4.32,0,0,1-1.83.76c-.25,0-.45-.18-.55-.39s-1.57-4.17-1.62-4.45a1.72,1.72,0,0,1,0-.32,3.17,3.17,0,0,1,1.63-.82c.88-.15,2.18,3.2,2.31,3.95Zm11.31-10.23a16.8,16.8,0,0,0-3.7.18c-.38.06-.68.2-.64.62,0,.76.25,1.5.32,2.26a20,20,0,0,0,0,2c.13.75,3.34.37,4,.27,1.56-.26.78-1.65.61-2.87-.06-.54-.09-1.08-.18-1.61C167.75,196.39,167.7,195.91,167.39,195.77Z"/><path d="M19.6,113.49,26.82,237l1,17.58c.11,1.92,3.11,1.94,3,0L23.63,131.07l-1-17.58c-.11-1.92-3.11-1.93-3,0Z"/><path d="M174,82.88l6.78,87.3,1,12.56c.14,1.91,3.15,1.93,3,0L178,95.45l-1-12.57c-.15-1.91-3.15-1.92-3,0Z"/><path class="b" d="M186.11,74.28C148.51,81,47.49,95.05,9.66,100.24L5.59,47l176-25.33Z"/><path d="M185.31,71.39C137.7,79.81,89.67,86.09,41.79,92.78q-16.45,2.3-32.93,4.56l3.8,2.9L8.59,47l-2.2,2.9,59.29-8.54,94.69-13.63,22-3.17-3.79-2.89,4.55,52.65c.33,3.82,6.33,3.85,6,0l-4.55-52.65a3.07,3.07,0,0,0-3.8-2.89l-59.3,8.53L26.77,40.91l-22,3.16A3,3,0,0,0,2.59,47l4.07,53.28a3.06,3.06,0,0,0,3.79,2.89c47.92-6.58,95.84-13.26,143.64-20.63,10.95-1.68,21.9-3.4,32.82-5.33C190.7,76.5,189.09,70.72,185.31,71.39Z"/><path class="a" d="M38.61,81.39c-1.46.2-2.84.71-4.29.91-.73.1-3.49.37-3.94-.1a4.45,4.45,0,0,1-.56-2c-.08-.55-.26-1.66.09-2.13.79-1,5-.58,5-2.06a27.86,27.86,0,0,0-.41-3c-.2-1.49,0-3-.22-4.49-.14-1-.62-5.81-1.31-6.18-1-.5-4.55,1.08-4.75-.38A7.6,7.6,0,0,1,28.27,59c.35-.5,2.54-1,3.22-1.46.91-.59,1.68-1.68,2.69-2.07a10.31,10.31,0,0,1,2.24-.41c1.52-.21,2.24-.38,2.49,1.43.3,2.22.33,4.47.63,6.69.2,1.46.62,2.92.85,4.37.2,1.21.26,2.44.43,3.66.1.76.71,4.14,1.19,4.53,1.6,1.37,4-2.48,4.8,3.62C47,80.81,42,80.93,41,81.07Z"/><path class="a" d="M59.24,79.31a22.24,22.24,0,0,1-5.83-.22,6.52,6.52,0,0,1-2-1.11c-.43-.29-1.46-.85-1.53-1.38-.11-.76,1.77-4,2.53-4.16,1.15-.15,4.06,2,5.27,1.82a4.36,4.36,0,0,0,1.27-.56c1.48-.77,1.7-1.47,1.47-3.17-.13-1-3.57-4.17-4.55-4s-1.91,1-2.91,1.14a3.35,3.35,0,0,1-2.88-2.18c-.34-2.5-.47-5-.81-7.49-.16-1.14-.42-2.24-.57-3.38s1.33-1.1,2-1.2L53.82,53c1.53-.21,3.13-.15,4.65-.36s2.73-.76,4.08-1c1.18-.16,1.37,2.29,1.48,3.09.08.59.16,1.14-.35,1.53-1.54,1.16-8.7,1-8.8,2.83a10.11,10.11,0,0,0,.17,2.06c0,.28.13,1.18.55,1.13.76-.11,1.47-.59,2.27-.7a21.59,21.59,0,0,1,4.25.62c1.69.72,4.79,5.06,5,6.87a14.38,14.38,0,0,1-.26,3.53,12.58,12.58,0,0,1-4.81,5.64,13,13,0,0,1-3,.83s0,0,0,.08a.1.1,0,0,0,.08.06Z"/><path class="a" d="M76.11,75.87c-.65-.33-3.84-2.26-3.91-2.75-.11-.8,2.7-3.73,3.5-3.84a5.63,5.63,0,0,1,2.85.92,14.13,14.13,0,0,1,1.87,4.16c.24,1.74-1,6.29-2.21,7.58a9,9,0,0,1-1.76,1.34,5.58,5.58,0,0,1-1.68.86c-.66.09-1.85-1.9-1.93-2.45C72.69,80.58,76.07,80,76.3,76l0-.1Z"/><path class="a" d="M81.83,58.84c.13-3.7.42-7.27,3.59-9.68a6.2,6.2,0,0,1,1.87-.79,9.77,9.77,0,0,1,1.93-.58,8.14,8.14,0,0,1,7.21,2.62c1.08,1.4,1.73,3.61,2.42,5.25a19.62,19.62,0,0,1,1.7,4.46c.57,4.13-.18,8.47-3,11.64a9.91,9.91,0,0,1-1.44,1.58,11.41,11.41,0,0,1-3.19,1A15,15,0,0,1,88.71,74a6.45,6.45,0,0,1-1.48-1c-2.74-2.2-3.65-4.69-4.55-8a25.1,25.1,0,0,1-.8-3.21A17.2,17.2,0,0,1,81.83,58.84Zm10.73-4.69a5,5,0,0,0-2.91-1.4,4,4,0,0,0-2.25,1.86A30.58,30.58,0,0,0,87.14,61a36.08,36.08,0,0,0,2.48,6.8,4.19,4.19,0,0,0,2.56,1.66c.39-.05,1.06-.82,1.34-1.07a3.45,3.45,0,0,0,1.17-1.5,26.67,26.67,0,0,0,0-5.72A40.45,40.45,0,0,0,92.56,54.15Z"/><path class="a" d="M103,55.94c.13-3.69.42-7.26,3.58-9.67a6.31,6.31,0,0,1,1.87-.79,9.06,9.06,0,0,1,1.94-.58,8.15,8.15,0,0,1,7.21,2.61c1.08,1.41,1.73,3.62,2.42,5.25a19.88,19.88,0,0,1,1.7,4.47c.57,4.13-.18,8.47-3,11.64a10,10,0,0,1-1.45,1.58,11.57,11.57,0,0,1-3.18,1,15,15,0,0,1-4.25-.34,6.24,6.24,0,0,1-1.48-1c-2.74-2.21-3.65-4.69-4.56-8A26.54,26.54,0,0,1,103,58.9,17.17,17.17,0,0,1,103,55.94Zm10.73-4.68a5.06,5.06,0,0,0-2.91-1.41,4,4,0,0,0-2.25,1.87,30.55,30.55,0,0,0-.26,6.36,35.74,35.74,0,0,0,2.48,6.79,4.16,4.16,0,0,0,2.56,1.67c.38-.06,1.06-.82,1.34-1.07a3.59,3.59,0,0,0,1.17-1.5,26.76,26.76,0,0,0,0-5.73A41.51,41.51,0,0,0,113.68,51.26Z"/><path class="a" d="M124.06,53.05c.14-3.69.42-7.26,3.59-9.68a6.44,6.44,0,0,1,1.87-.78,9.06,9.06,0,0,1,1.94-.58,8.15,8.15,0,0,1,7.21,2.61,24.78,24.78,0,0,1,2.41,5.25,19.27,19.27,0,0,1,1.71,4.47c.56,4.13-.18,8.47-3,11.64a9.93,9.93,0,0,1-1.45,1.57,10.93,10.93,0,0,1-3.18,1,14.65,14.65,0,0,1-4.25-.33,6.3,6.3,0,0,1-1.49-1c-2.74-2.21-3.64-4.7-4.55-8a24.27,24.27,0,0,1-.79-3.21A16.21,16.21,0,0,1,124.06,53.05Zm10.74-4.68A5,5,0,0,0,131.89,47a4,4,0,0,0-2.26,1.87,32,32,0,0,0-.26,6.36A36,36,0,0,0,131.86,62a4.12,4.12,0,0,0,2.56,1.66c.38,0,1.05-.81,1.34-1.06a3.65,3.65,0,0,0,1.17-1.5,26.78,26.78,0,0,0,0-5.73A40.32,40.32,0,0,0,134.8,48.37Z"/><path class="a" d="M153.29,42.14c-.06-.48,2.17-.92,2.59-1a7.85,7.85,0,0,1,2.32,0c.38.3.57,2.48.62,2.9a23.72,23.72,0,0,0,.85,2.63c1.45,4.9.76,3.68,3.19,7.41a35.46,35.46,0,0,0,6.68,6.51c.56.29,3.54,1.17,3.59,1.51s-.33.56-.45.69c-.45.52-2,3.2-2.25,3.24a12.59,12.59,0,0,1-2.67-1.27,30.07,30.07,0,0,1-2.92-1.87c-.28-.21-4.62-4.49-4.7-4.62-.45-.83-1.61-3.39-2-3.91a15.79,15.79,0,0,0-1,2.25c-.42,1-.89,1.9-1.31,2.84-1.67,3.7-1.19,4.69-4.27,7.29-.36.31-1.39,1.31-1.82,1.37a.65.65,0,0,1-.41-.09c-.89-.45-1.55-1.25-2.51-1.63a1.56,1.56,0,0,1-.53-.27.33.33,0,0,1-.11-.22c0-.19.28-.44.4-.57,1.74-1.75,2.74-2.41,4.07-4.65A25.23,25.23,0,0,0,154,50.12a15.74,15.74,0,0,0,.28-2.36c-.11-.79-.47-1.51-.57-2.3Z"/><rect class="a" x="46.91" y="132.07" width="111.54" height="38.49" transform="translate(-21.52 17.1) rotate(-8.62)"/><path d="M160.1,159.82,63.51,174.46l-13.69,2.08,2.77,1.57-5.77-38.06-1.57,2.77,96.59-14.65,13.69-2.07-2.77-1.57,5.77,38.05c.43,2.86,4.77,1.64,4.34-1.19l-5.77-38.06c-.2-1.3-1.69-1.73-2.77-1.57L57.74,136.4l-13.69,2.08c-1.29.2-1.73,1.69-1.57,2.77l5.77,38.05c.2,1.3,1.69,1.74,2.77,1.57l96.59-14.64,13.69-2.08C164.15,163.72,162.94,159.38,160.1,159.82Z"/><path class="b" d="M75.73,157.42c-.29.05-.79.08-1,.33-.41.63.47,5.31,0,5.82a.81.81,0,0,1-.45.2c-2.77.41-2.92.26-3.31-2.39-.24-1.62-.53-3.26-.77-4.88a23,23,0,0,1-.11-2.35c-.08-1.5-.47-3-.69-4.51,0-.23-.14-.63,0-.84s4.06-.79,4.75-.9,1.56-.08,2.34-.2,1.33-.42,2-.52.82,1.41.89,1.9.07.6-.23.83c-1.11.84-6,.53-5.74,2.17.44,3,.55,2.33,3.08,2,.45-.07,2.42-.25,2.67,0a.59.59,0,0,1,.13.36c.08.51.34,2.55-.36,2.66s-1.21,0-1.78.13Z"/><path class="b" d="M86.63,156.52c.12.8.13,1.73.19,2.54,0,.08.26,2.43-.1,2.76a.74.74,0,0,1-.45.17c-.56.08-2.81.42-2.92-.32s0-1.3-.14-1.93c-.14-1-.34-1.88-.48-2.83s-.15-1.7-.28-2.54c-.24-1.64-.69-3.27-.93-4.91-.39-2.61-.35-2.62,2.18-3a2,2,0,0,1,1,0c.43.23.67,2,.74,2.49.13.88,0,1.82.15,2.7s.59,1.83.73,2.77Z"/><path class="b" d="M91.66,150.37c0,.79.74,1.61,1,2.39a20.7,20.7,0,0,1,.6,2.79c.12.82.15,1.72.19,2.55,0,.54.49,2.74-.49,2.88-.62.1-2.69.44-2.81-.38s-.06-1.42-.16-2.11-.32-1.55-.43-2.33-.08-1.81-.22-2.72-.48-1.71-.61-2.59-.07-1.73-.2-2.59c-.09-.62-.3-1.2-.39-1.79-.11-.78,1.17-.74,1.67-.82a6.74,6.74,0,0,1,2.18-.09c.42.23,1,1.4,1.35,1.84.63.85,1.31,1.65,1.92,2.52.42.59.71,1.24,1.09,1.86s.9,1.23,1.33,1.87a7.58,7.58,0,0,0,1.22,1.73v-.12a21.46,21.46,0,0,0-1.11-4c-.15-.47-.37-1-.48-1.42-.19-.88-.29-1.79-.42-2.67-.09-.61-.26-1.24-.36-1.86-.14-1,1.11-.91,1.78-1,1.26-.19,1.87-.57,2.09.92.2,1.32.38,2.7.51,4,.09.85.07,1.71.19,2.55s.44,1.68.6,2.51.33,1.8.47,2.71c.42,2.85.3,2.3-2.5,2.71-.26,0-.7.17-1,0-1.35-.74-6.14-9.2-6.9-9.61l-.07,0-.07.13Z"/><path class="b" d="M108.68,153.26c.12.8.13,1.72.19,2.53,0,.08.25,2.44-.1,2.76a.77.77,0,0,1-.45.18c-.56.08-2.82.41-2.93-.33s0-1.29-.13-1.93c-.14-.94-.35-1.88-.49-2.82s-.14-1.7-.27-2.54c-.24-1.64-.69-3.28-.93-4.92-.39-2.61-.35-2.61,2.18-3a2,2,0,0,1,1,0c.43.23.67,2,.74,2.49.13.89,0,1.83.15,2.71s.59,1.82.72,2.77Z"/><path class="b" d="M116.93,157.66c-.72.11-5.35-.95-5.42-1.42a6.66,6.66,0,0,1,1.6-2.69c.27,0,1.55.94,3.19.7.43-.06,1.73-1.22,1.75-1.62s-.55-.59-.83-.76-.71-.46-1.08-.66a8.46,8.46,0,0,0-1.68-.44,5.26,5.26,0,0,1-3.6-2.47,4.61,4.61,0,0,1-.64-1.39,3.45,3.45,0,0,1,.19-1.14,3.77,3.77,0,0,1,.38-1.19,9.13,9.13,0,0,1,4.56-3.11,6,6,0,0,1,3.87.66c.25.13.93.43,1,.72a4.32,4.32,0,0,1-1.69,2.45c-.78.12-1.91-.57-2.73-.45-.33.05-1.56,1-1.52,1.27.14.94,6.16,2.74,6.92,3.36a6.56,6.56,0,0,1,1.19,2.34c.22,1.52-1.25,3.92-2.45,4.75-.64.45-2.54.65-2.86,1.07Z"/><path class="b" d="M136.55,148.48c.15,1,.38,2,.52,3,.45,3,.28,2.68-2.66,3.12-.51.08-.74.07-.83-.51-.18-1.19-.29-2.39-.47-3.6-.08-.51-.05-1-.13-1.55s-2.34,0-2.79.12-1.18.07-1.78.16-.18,1.72-.15,2.07c.06.71.1,1.41.14,2.1s.43,2.31-.56,2.46a9.34,9.34,0,0,1-2.74,0,.56.56,0,0,1-.21-.37c-.09-.63.06-1.33,0-2-.14-.95-.51-1.84-.65-2.78-.11-.76,0-1.53-.11-2.29-.13-.91-.51-1.77-.65-2.7s-.56-4.82-.15-5.13a1.14,1.14,0,0,1,.4-.15,11.53,11.53,0,0,1,1.17,0c2.09-.06,1.87.2,2.17,2.19.15,1,0,2,.15,3a.41.41,0,0,0,.5.39c.65-.1,1.32-.28,2-.4s1.3-.17,1.9-.34a.79.79,0,0,0,.37-.25c.32-.48-.1-3.65-.19-4.25-.17-1.15-.31-1.38,1-1.57a7.35,7.35,0,0,1,2.17-.11c.2.12.22.37.25.59.09.6.07,1.19.16,1.78.12.85.5,1.67.6,2.52Z"/><polygon points="140.37 116.31 141.07 100.97 151.31 103.06 144.49 117.09 140.37 116.31"/><polygon points="149.85 114.8 157.97 101.76 165.87 108.59 153.07 117.49 149.85 114.8"/></svg>