<svg xmlns="http://www.w3.org/2000/svg" viewBox="0 0 146 158"><defs><style>.a{fill:#fff;}</style></defs><title>board-s-10</title><path class="a" d="M64.81,3.63c.56,43.67,8.34,108.14,8.9,151.81a29.75,29.75,0,0,1,12.83-5.05C82.18,109.56,77.45,48.13,77.61,7.07c0-1.46-.11-3.17-1.31-4a4.6,4.6,0,0,0-3.16-.4l-8.33,1"/><path d="M62.73,3.63c.56,40.22,5.24,80.3,7.64,120.43.62,10.45,1.12,20.91,1.26,31.38a2.1,2.1,0,0,0,3.13,1.8,30.22,30.22,0,0,1,12.33-4.84,2.07,2.07,0,0,0,1.53-2C84,107,80.5,63.23,79.78,19.56q-.07-3.91-.09-7.81c0-2.4.37-5.13-.29-7.46C77.68-1.78,69.27,1,64.81,1.55c-2.63.3-2.66,4.47,0,4.16s5.75-1.17,8.33-1c1.6.14,2.09.7,2.39,2.32a23.22,23.22,0,0,1,0,3.73q0,6.91.19,13.82c.23,10.1.64,20.19,1.16,30.28C78,76,79.5,97.11,81.34,118.17q1.43,16.12,3.12,32.22l1.53-2a33,33,0,0,0-13.33,5.25l3.13,1.8c-.56-40.22-5.24-80.3-7.64-120.43C67.53,24.56,67,14.1,66.89,3.63c0-2.68-4.2-2.68-4.16,0Z"/><path class="a" d="M2.53,27.46,4.82,98.87a2.73,2.73,0,0,0,.11.81c.92,2.92,3.37,2.56,5.45,2.16L141.25,76.56a3.46,3.46,0,0,0,1.74-.69,2.35,2.35,0,0,0,.47-2c-1.16-16.45-4.27-48-5.43-64.45A5.19,5.19,0,0,0,137.75,8c-1.06-2.8-4.13-2.38-6.62-1.84-42,9-86.57,12.29-128.6,21.26"/><path d="M.45,27.46,1.89,72.4l.76,23.52c.06,1.83-.12,4,.85,5.67,1.33,2.25,3.58,2.75,6,2.48,5-.55,10-1.88,14.92-2.83L85.14,89.51l31-6L131,80.65l6.75-1.31c2-.38,4.61-.39,6.28-1.67,2.11-1.62,1.46-4.47,1.28-6.78-.27-3.5-.56-7-.85-10.49q-1-11.71-2.06-23.41c-.63-7.08-1.26-14.17-1.83-21.26-.44-5.55-.1-12.67-7.73-11.92-5,.49-10.11,2-15.08,2.94Q110,8.19,102.24,9.46c-11.31,1.85-22.65,3.47-34,5.08C46.07,17.69,23.89,20.81,2,25.46-.64,26,.46,30,3.08,29.47c36.14-7.66,73-11.13,109.34-17.54q6.45-1.14,12.87-2.41c2.13-.43,4.25-.93,6.39-1.32,2.54-.46,4.15-.31,4.37,2.72.45,6.13,1,12.26,1.52,18.39,1.19,13.6,2.48,27.18,3.53,40.79.06.83.63,3,.28,3.8-.56,1.32-4.71,1.43-6.08,1.69l-14.84,2.87L92.13,83.93,35.47,94.88,22,97.49l-6.74,1.3c-1.9.37-4.65,1.54-6.54,1.21-2.34-.41-1.82-2.2-1.88-4.08L6.12,74.4,4.61,27.46c-.09-2.67-4.25-2.68-4.16,0Z"/><path d="M68.75,4.14,68.6,15.47a1,1,0,0,0,2.08,0l.15-11.33a1,1,0,0,0-2.08,0Z"/><path d="M71.37,90.84c2.59,20.27,5.19,40.66,6.53,61,.09,1.33,2.17,1.34,2.08,0-1.34-20.39-3.94-40.78-6.53-61-.17-1.31-2.25-1.32-2.08,0Z"/><path d="M72.94,25q32.21-4.33,63.84-11.84c1.31-.31.75-2.31-.55-2Q104.63,18.64,72.39,23c-1.32.18-.76,2.18.55,2Z"/><path d="M5.75,98Q32,93.09,58.06,87.3c1.31-.29.76-2.3-.55-2Q31.46,91.1,5.2,95.94c-1.32.25-.76,2.25.55,2Z"/><path d="M29.55,68.33c-1,.17-2,.57-3.05.74-.52.09-2.48.34-2.82,0a3.25,3.25,0,0,1-.44-1.45c-.07-.4-.23-1.18,0-1.53.54-.72,3.57-.52,3.51-1.58a17.35,17.35,0,0,0-.35-2.1c-.18-1.06-.08-2.14-.26-3.21-.12-.71-.57-4.14-1.07-4.39-.71-.33-3.23.88-3.4-.16a5.31,5.31,0,0,1,0-2.1c.24-.38,1.79-.79,2.27-1.12.64-.44,1.16-1.24,1.87-1.54a7,7,0,0,1,1.6-.34c1.08-.18,1.59-.32,1.81,1,.27,1.58.33,3.2.6,4.78.17,1,.5,2.07.7,3.1.17.86.24,1.74.39,2.61.09.54.59,2.94.94,3.21,1.18,1,2.79-1.86,3.52,2.48.17,1-3.43,1.22-4.12,1.33Z"/><path d="M36.25,55.24c0-2.64.14-5.2,2.36-7a4.66,4.66,0,0,1,1.32-.6,6.9,6.9,0,0,1,1.37-.46,5.84,5.84,0,0,1,5.21,1.71,17.58,17.58,0,0,1,1.84,3.71,13.57,13.57,0,0,1,1.32,3.15,10.34,10.34,0,0,1-1.86,8.39,7.52,7.52,0,0,1-1,1.16,7.86,7.86,0,0,1-2.26.78,10.63,10.63,0,0,1-3-.14,4.54,4.54,0,0,1-1.09-.71c-2-1.52-2.71-3.28-3.43-5.59a19.17,19.17,0,0,1-.63-2.28A12.45,12.45,0,0,1,36.25,55.24Zm7.58-3.58a3.61,3.61,0,0,0-2.12-.94,2.87,2.87,0,0,0-1.57,1.38,22.3,22.3,0,0,0,0,4.55A25.27,25.27,0,0,0,42,61.46a3,3,0,0,0,1.87,1.13c.27-.05.74-.61.93-.79a2.59,2.59,0,0,0,.81-1.1,19.52,19.52,0,0,0-.13-4.09A29.1,29.1,0,0,0,43.83,51.66Z"/><path d="M56.23,63.56c-.46-.22-2.79-1.54-2.85-1.88-.1-.57,1.85-2.72,2.42-2.82a4,4,0,0,1,2.06.59,10.29,10.29,0,0,1,1.43,2.94,10.11,10.11,0,0,1-1.42,5.47,7,7,0,0,1-1.23,1,4.18,4.18,0,0,1-1.18.66c-.47.08-1.37-1.32-1.43-1.72-.14-.79,2.27-1.29,2.35-4.15l0-.07Z"/><path d="M60,51.26c0-2.65.14-5.21,2.35-7a4.47,4.47,0,0,1,1.33-.61A6.87,6.87,0,0,1,65,43.2a5.83,5.83,0,0,1,5.21,1.71,17.26,17.26,0,0,1,1.84,3.7,14.09,14.09,0,0,1,1.32,3.16,10.35,10.35,0,0,1-1.87,8.38,7,7,0,0,1-1,1.16,8,8,0,0,1-2.25.79,10.7,10.7,0,0,1-3-.15,4.38,4.38,0,0,1-1.08-.71c-2-1.51-2.71-3.27-3.43-5.59a19.2,19.2,0,0,1-.64-2.28A12.33,12.33,0,0,1,60,51.26Zm7.57-3.59a3.61,3.61,0,0,0-2.11-.94,2.87,2.87,0,0,0-1.57,1.38,21.69,21.69,0,0,0,0,4.56,25.18,25.18,0,0,0,1.92,4.8,3,3,0,0,0,1.87,1.13c.27,0,.73-.6.93-.79a2.54,2.54,0,0,0,.81-1.1,19.52,19.52,0,0,0-.13-4.09A28.27,28.27,0,0,0,67.52,47.67Z"/><path d="M75,48.73c0-2.65.14-5.21,2.35-7a4.26,4.26,0,0,1,1.32-.6A6.49,6.49,0,0,1,80,40.67a5.82,5.82,0,0,1,5.21,1.71,17.5,17.5,0,0,1,1.84,3.7,13.83,13.83,0,0,1,1.32,3.16,10.34,10.34,0,0,1-1.86,8.39,6.94,6.94,0,0,1-1,1.15,8.19,8.19,0,0,1-2.26.79,10.63,10.63,0,0,1-3-.15,4.5,4.5,0,0,1-1.09-.7c-2-1.52-2.71-3.28-3.42-5.6a17.48,17.48,0,0,1-.64-2.28A11.4,11.4,0,0,1,75,48.73Zm7.57-3.59a3.64,3.64,0,0,0-2.11-.94,2.84,2.84,0,0,0-1.57,1.38,21.69,21.69,0,0,0,0,4.56,26.57,26.57,0,0,0,1.92,4.8,3,3,0,0,0,1.87,1.14c.27,0,.74-.61.93-.8a2.54,2.54,0,0,0,.81-1.1,19.54,19.54,0,0,0-.13-4.09A29.1,29.1,0,0,0,82.56,45.14Z"/><path d="M90,46.2c0-2.64.14-5.21,2.35-7a4.26,4.26,0,0,1,1.32-.6,6.49,6.49,0,0,1,1.37-.46,5.84,5.84,0,0,1,5.21,1.71,17.53,17.53,0,0,1,1.85,3.7,13.79,13.79,0,0,1,1.31,3.16,10.34,10.34,0,0,1-1.86,8.39,7,7,0,0,1-1,1.16,8.32,8.32,0,0,1-2.25.78,10.68,10.68,0,0,1-3-.15,4.44,4.44,0,0,1-1.08-.7c-2-1.52-2.71-3.28-3.43-5.6a17,17,0,0,1-.64-2.28A11.4,11.4,0,0,1,90,46.2Zm7.57-3.59a3.64,3.64,0,0,0-2.11-.94,2.89,2.89,0,0,0-1.57,1.39,21.58,21.58,0,0,0,0,4.55,25.63,25.63,0,0,0,1.93,4.8,3,3,0,0,0,1.86,1.14c.27,0,.74-.61.94-.79a2.54,2.54,0,0,0,.8-1.11,18.88,18.88,0,0,0-.13-4.09A29.1,29.1,0,0,0,97.59,42.61Z"/><path d="M111.84,33.61c-.07-.42,1.89-.87,2.26-.93a6.68,6.68,0,0,1,2-.07c.35.25.57,2.17.63,2.54a20.26,20.26,0,0,0,.82,2.3c1.41,4.28.77,3.22,3,6.45a30.87,30.87,0,0,0,6.06,5.55c.5.25,3.15.95,3.2,1.24s-.27.5-.37.62a33.88,33.88,0,0,1-1.9,2.91,10.36,10.36,0,0,1-2.39-1,25.92,25.92,0,0,1-2.62-1.57c-.26-.18-4.2-3.84-4.27-4-.43-.72-1.51-2.95-1.89-3.39a12.65,12.65,0,0,0-.78,2c-.34.84-.73,1.7-1.07,2.54-1.38,3.3-.93,4.17-3.57,6.54-.31.28-1.2,1.2-1.57,1.26a.6.6,0,0,1-.37-.07c-.8-.37-1.39-1.06-2.26-1.37a1.29,1.29,0,0,1-.47-.23.31.31,0,0,1-.11-.18c0-.17.24-.4.35-.51,1.48-1.6,2.35-2.2,3.45-4.22a22.18,22.18,0,0,0,2.69-9.41,14.17,14.17,0,0,0,.18-2.09c-.12-.69-.45-1.32-.57-2Z"/></svg>