<?xml version="1.0" encoding="utf-8"?>
<!-- Generator: Adobe Illustrator 22.1.0, SVG Export Plug-In . SVG Version: 6.00 Build 0)  -->
<svg version="1.1" id="圖層_1" xmlns="http://www.w3.org/2000/svg" xmlns:xlink="http://www.w3.org/1999/xlink" x="0px" y="0px"
	 viewBox="0 0 330 550" style="enable-background:new 0 0 330 550;" xml:space="preserve">
<style type="text/css">
	.st0{fill:#FFFFFF;}
	.st1{fill:#00B997;}
	.st2{fill:#F88334;}
	.st3{fill:#FFBC18;}
	.st4{fill:#F15A24;}
</style>
<title>board-15-1</title>
<path class="st0" d="M266.5,366.2c9,13,12.1,29.1,13.5,44.8c3.4,41.2-4.3,82.5-22.3,119.7c-5.3-5.3-4.8-13.8-4.2-21.2
	c2-28.8-2.1-57.6-12-84.7c-2.6-7.1-5.6-14.1-7.5-21.5s-2.6-15.2-0.7-22.5s7-14.1,14-16.9s16.1-0.8,20.3,5.5"/>
<path d="M265.2,367c15.3,22.7,15.4,54.2,13.3,80.6c-2.2,28.6-9.8,56.5-22.2,82.4l2.4-0.3c-5.4-6-4.1-14.6-3.7-22
	c1.4-24-1.3-48-8.1-71.1c-4.7-15.8-14.3-31.9-13.3-48.9c0.5-7.9,3.9-16,10.6-20.5s16.8-3.9,22,3c1.1,1.5,3.8,0,2.6-1.5
	c-6.2-8.2-17.7-9.6-26.1-4c-10.4,6.9-13.3,20.1-11.7,31.8c2,15.4,9.9,29.6,14,44.5c4.4,16.1,6.9,32.6,7.3,49.3
	c0.2,8.4-0.6,16.6-0.7,25c-0.1,6.1,0.8,11.9,5,16.6c0.6,0.6,1.6,0.6,2.1,0c0.1-0.1,0.2-0.2,0.2-0.3c12.7-26.3,20.3-54.8,22.6-83.9
	c2.1-26.8,1.8-59-13.8-82.1c-1.1-1.6-3.7-0.1-2.6,1.5L265.2,367z"/>
<path class="st0" d="M280.7,536.6c0.2,1.8-1.1,3.3-1.7,4.7c-0.4,1.5-1.5,2.8-2.9,3.5c-1.1,0.3-2.2,0.3-3.2,0
	c-6.8-1.1-13.5-2.7-20.2-4.3c-1.3-0.3-2.7-0.7-3.4-1.8s-0.4-2.5-0.1-3.8c0.3-1.4,0.8-3,2.2-3.6c0.8-0.3,1.6-0.3,2.4-0.1
	c2.1,0.4,4.3,0.9,6.4,1.5c6.8,1.9,13.5,2,20.3,4"/>
<path d="M279.2,536.6c-0.5,8.3-9.5,6.2-15.1,5c-2.8-0.6-15.1-1.7-13.3-6.8c1.5-4.1,11.6,0.1,14.5,0.6c4.9,0.9,9.9,1.5,14.8,2.7
	c1.9,0.5,2.7-2.4,0.8-2.9c-5.2-1.3-10.5-1.9-15.7-2.9c-3.9-0.8-8-2.6-12-2.7c-4.5-0.1-7.6,6.2-5.1,10c1.7,2.6,6,2.8,8.7,3.4
	c5.2,1.2,10.4,2.5,15.6,3.2c5.9,0.9,9.4-4.2,9.7-9.7C282.3,534.6,279.3,534.7,279.2,536.6L279.2,536.6z"/>
<path class="st1" d="M267.3,524.7c1.2,0.7,2.9,0.5,4.4,0.6c4.9,0.2,8.9,3.9,9.5,8.8c0.3,2.9-1.2,6.7-4.2,7.5
	c-1.2,0.3-2.5,0.2-3.7-0.2l-15.1-3.3c-1.4-0.3-7.2-1.3-8.1-2.3c-1.6-1.6,0.5-24.2,1.6-32c0-0.8,0.3-1.5,0.9-2c0.7-0.4,1.6-0.4,2.4,0
	c3.3,1.3,13.9,5.6,17.2,7C272,508.9,265.1,523.4,267.3,524.7z"/>
<path d="M266.9,526.2c2.3,0.8,4.7,0.3,7,1c3.5,1.1,5.8,4.4,5.8,8c-0.4,6.1-5.7,4.9-9.8,4c-3.1-0.7-6.3-1.4-9.4-2.1
	c-2-0.5-8.1-0.7-9.3-2.3s-0.2-6.5-0.1-8.1c0.2-3.7,0.4-7.4,0.8-11c0.3-3.1,0-7.4,1.1-10.3c0.9-2.4,1.8-1.9,3.7-1.1l5.3,2.1l9.7,4
	l-0.9-2.2c-1.7,3.6-8,14.1-4.5,17.6c1.4,1.4,3.5-0.8,2.1-2.1s4-12,4.9-14c0.4-0.7,0.1-1.7-0.6-2.1c-0.1,0-0.2-0.1-0.3-0.1
	c-5.3-2.1-10.5-4.4-15.8-6.4c-4.4-1.6-6.1-0.1-6.7,4.4c-0.8,5.4-1.2,10.8-1.5,16.3c-0.3,4.1-1.2,9.3-0.2,13.3c0.9,3.6,5,3.7,8.1,4.3
	c4.3,0.9,8.5,1.8,12.8,2.8c2.6,0.6,5.9,1.8,8.6,0.8c4.6-1.7,5.8-7.6,4.3-11.8c-0.9-2.3-2.5-4.3-4.6-5.6c-3.1-1.9-6.4-1.1-9.6-2.3
	C265.9,522.6,265.1,525.5,266.9,526.2z"/>
<path d="M269.1,522.3c0.8-1.8,2.2-3.3,3.9-4.4c0.5-0.3,5.9-2.8,4.8,0c-0.5,1.1-4.3,2.1-5.3,2.4c-1.9,0.6-3.8,0.9-5.7,1.1l0.4,2.9
	c2.7-1,5.6-1.5,8.4-1.7c1.5,0,6.8-0.1,7,1c0.1,0.5-6.9,0.9-7.8,0.9c-3.1,0-6.1-0.4-9.1-1.2l0.7,2.5l-0.3,0.1c1.9-0.2,1.9-3.2,0-3
	c-0.7,0-1.4,0.3-1.8,0.8c-0.6,0.6-0.6,1.6,0,2.1c0.2,0.2,0.4,0.3,0.6,0.4c4.6,1.2,9.3,1.6,14,1.1c2.3-0.3,7.4-0.4,7.5-3.8
	c0.1-2.9-3.7-3.3-5.8-3.6c-4.8-0.7-9.7-0.2-14.3,1.5c-1.5,0.5-1.4,3.1,0.4,3c3-0.3,19.1-3.5,15-9.2c-1.6-2.3-5.7-1.7-7.9-0.9
	c-3.2,1.1-5.8,3.5-7.3,6.5C265.8,522.6,268.4,524.1,269.1,522.3L269.1,522.3z"/>
<path d="M266.5,519.5l-5.3-0.6c-0.8,0-1.5,0.7-1.5,1.5c0,0.8,0.7,1.5,1.5,1.5l5.3,0.6c0.8,0,1.4-0.7,1.5-1.5
	C268,520.2,267.3,519.5,266.5,519.5L266.5,519.5z"/>
<path d="M265.9,522c-1.4,0.3-2.8,0.7-4.1,1.2c-0.8,0.2-1.2,1.1-1,1.8c0.2,0.8,1.1,1.3,1.9,1c1.3-0.5,2.7-0.9,4.1-1.2
	c0.8-0.2,1.3-1,1-1.8C267.5,522.3,266.7,521.8,265.9,522z"/>
<path d="M266.3,524c-1.3,1.5-2.5,3.1-3.5,4.8l2.7,1.2l0.1-0.3c0.6-1.8-2.3-2.6-2.9-0.8l-0.1,0.2c-0.6,1.6,1.9,2.6,2.7,1.2
	c0.9-1.5,1.9-2.9,3-4.2C269.7,524.7,267.6,522.5,266.3,524z"/>
<path d="M267.5,515.8c-2.7,0-6.3-2.2-7.7,1.4c-1.1,2.9-0.2,7.4,1.1,10.2s3.9,5.1,7.1,4.9c2.8-0.2,5-2.6,4.8-5.4c0,0,0,0,0-0.1
	c-0.1-1.9-3.1-1.9-3,0c0.2,3.3-3.8,2.6-5.3,0.8c-0.9-1.3-1.6-2.7-1.8-4.3c-0.2-0.9-0.7-3.3-0.2-4.2c0.8-1.6,3.6-0.3,5.1-0.3
	C269.4,518.8,269.4,515.8,267.5,515.8L267.5,515.8z"/>
<path d="M271.2,510.6c-6-3.3-12.6-5.2-19.4-5.4c-1.9-0.1-1.9,2.9,0,3c6.3,0.2,12.4,1.9,17.9,5C271.4,514.2,272.9,511.6,271.2,510.6
	L271.2,510.6z"/>
<path class="st0" d="M226.1,394.9c-2.8,15.5-12,29.1-22.2,41.2c-26.7,31.5-61.4,55.2-100.4,68.8c0-7.5,6.4-13.1,12-18
	c21.8-18.9,39.3-42.2,51.5-68.3c3.2-6.9,6-14,9.9-20.5s8.9-12.6,15.4-16.4s14.9-5,21.9-2s11.9,10.8,10.5,18.3"/>
<path d="M224.7,394.5c-2.9,14.9-11.1,27.7-20.7,39.2c-8.6,10.3-18.1,19.9-28.4,28.5c-21.5,18-46,32-72.4,41.2l1.9,1.4
	c0.5-8.6,8.3-13.9,14.1-19.2c5.9-5.3,11.4-10.9,16.6-16.8c9.8-11.1,18.3-23.2,25.6-36.1c7.6-13.6,12-29.7,22.2-41.7
	c5.6-6.6,13.7-12,22.8-11.6c9.5,0.4,18.3,7.9,16.9,18c-0.3,1.9,2.6,2.7,2.9,0.8c1.5-10.9-6.6-20.3-17.4-21.6
	c-13.3-1.7-24.5,7.4-31.4,17.8c-8.3,12.6-13,27.4-20.6,40.5c-7.8,13.3-17,25.6-27.6,36.8c-5.5,5.9-11.5,11.1-17.4,16.5
	c-5,4.5-9.3,9.6-9.6,16.5c0,0.8,0.7,1.5,1.5,1.5c0.1,0,0.2,0,0.4,0c26.9-9.4,51.9-23.7,73.8-42c21-17.7,44.4-41.1,49.9-69
	C227.9,393.4,225.1,392.6,224.7,394.5L224.7,394.5z"/>
<path class="st0" d="M115.7,525.3c-1.1,1.4-3.1,1.6-4.5,2.2c-1.4,0.8-3,0.9-4.5,0.4c-1-0.5-1.8-1.3-2.3-2.3
	c-4-5.6-7.6-11.5-11.2-17.3c-0.7-1.1-1.4-2.4-1.1-3.6s1.5-2.1,2.6-2.7s2.7-1.6,4.1-1c0.7,0.4,1.4,0.9,1.8,1.6
	c1.3,1.8,2.4,3.6,3.4,5.6c3.5,6.2,8.1,11,11.6,17.2"/>
<path d="M114.6,524.3c-3.3,2.9-7.4,1.9-10.1-0.9c-1.6-1.7-2.9-4.3-4.2-6.3s-2.7-4.2-4-6.4c-1.6-2.6-4.2-8.5,1.4-6.8
	c3.1,0.9,3.3,2.3,4.9,4.9c1.2,2,2.4,3.9,3.8,5.8c2.7,3.8,5.5,7.4,7.8,11.3c0.4,0.7,1.4,0.9,2.1,0.5c0.7-0.4,0.9-1.3,0.5-2
	c-2.5-4.2-5.5-8-8.3-12c-2.4-3.5-4.1-7.6-6.8-10.8c-3.1-3.6-10.1-2.3-11.2,2.8c-0.6,3,2.3,6.3,3.8,8.6c2.8,4.5,5.6,9.1,8.8,13.3
	c3.5,4.7,9.6,3.7,13.7,0C118.2,525.2,116.1,523.1,114.6,524.3L114.6,524.3z"/>
<path class="st1" d="M114.6,507.5c0.3,1.4,1.7,2.4,2.7,3.5c3.4,3.6,3.6,9.1,0.5,12.9c-1.8,2.3-5.6,3.9-8.3,2.4
	c-1-0.7-1.9-1.6-2.5-2.7l-8.3-13c-0.8-1.2-4.2-6-4.2-7.4c0-2.2,17.5-16.8,23.7-21.5c0.5-0.5,1.3-0.8,2-0.8c0.9,0.1,1.4,1,1.7,1.7
	c1.4,3.2,5.8,13.8,7.2,17C129.1,499.6,114,505,114.6,507.5z"/>
<path d="M113.3,508.2c1.2,2.5,3.7,4.1,4.7,6.9c1.3,3.8-0.5,8.5-4.5,9.8c-5.3,1.6-11-11.2-13.6-15.1c-1.4-2.1-4.4-5.1-3.4-7.2
	c1-2.2,4.2-4.3,6-5.9c2.8-2.5,5.6-4.9,8.4-7.3c2-1.7,5-5.2,7.6-6.1c3.1-1.1,4.6,5.9,5.5,8.2c1.3,3,2.5,5.9,3.8,8.9l0.9-2.2
	c-3.7,1.4-15.6,4.3-15.6,9.3c0,0.8,0.7,1.5,1.5,1.5s1.5-0.7,1.5-1.5l0,0c0-2.1,11.2-5.6,13.4-6.4c0.8-0.3,1.3-1.1,1-1.9
	c0-0.1-0.1-0.2-0.1-0.3c-2.1-5-4.2-9.9-6.3-14.9c-1.7-4-3.6-5.9-7.5-3c-4.3,3.1-8.3,6.6-12.3,10.1c-3.4,3-7.8,6.1-10.3,9.9
	c-2,3.1,0.5,5.8,2.3,8.5c2.1,3.3,4.2,6.5,6.3,9.8c1.6,2.5,3.1,6,5.7,7.8c4.3,3,9.9-0.2,12-4.3c1.1-2.2,1.5-4.8,1-7.2
	c-0.8-3.9-3.7-5.5-5.3-8.9C115.1,505,112.5,506.5,113.3,508.2z"/>
<path d="M117.7,507.1c1.8-0.7,3.8-0.8,5.8-0.4c0.6,0.1,5.9,2.4,5.1,3.7c-0.4,0.6-5.5-1.6-6-1.8c-2.1-1-4.1-2.3-5.8-3.8l-1.8,2.4
	c2.7,1.3,5.2,2.9,7.4,5c1,1,4.7,5,4,5.4s-5.4-4.2-6.2-5c-2.1-2.2-3.9-4.6-5.4-7.2l-1.3,2.3l-0.3-0.1c1.5,1.2,3.6-0.9,2.1-2.1
	c-0.5-0.5-1.2-0.8-1.9-0.7c-0.8,0-1.5,0.7-1.5,1.5c0,0.2,0.1,0.5,0.2,0.7c2.3,4.1,5.4,7.6,9,10.6c1.8,1.5,5.4,4.9,7.9,2.8
	s-0.4-5.5-1.7-7.2c-2.9-3.7-6.6-6.6-10.8-8.6c-1.4-0.7-3.2,1.2-1.8,2.4c2.3,2,16,11,17.1,4.1c0.5-2.8-2.8-5.2-4.9-6.3
	c-3.1-1.5-6.6-1.7-9.8-0.5C115.1,504.8,115.9,507.7,117.7,507.1L117.7,507.1z"/>
<path d="M117.8,503.2l-3.3-4.1c-0.6-0.6-1.5-0.6-2.1,0c-0.6,0.6-0.6,1.5,0,2.1l3.3,4.1c0.6,0.6,1.5,0.6,2.1,0
	C118.3,504.8,118.3,503.8,117.8,503.2z"/>
<path d="M115.5,504.6c-1.2-0.8-2.4-1.5-3.7-2.1c-0.7-0.4-1.6-0.2-2.1,0.5c-0.4,0.7-0.2,1.6,0.5,2c1.3,0.6,2.6,1.3,3.7,2.1
	C115.6,508.3,117.1,505.7,115.5,504.6z"/>
<path d="M114.4,506.3c-2,0.1-3.9,0.5-5.9,0.9l1.2,2.7l0.2-0.1c1.7-0.8,0.2-3.4-1.5-2.6l-0.2,0.1c-1.6,0.8-0.4,3.1,1.2,2.7
	c1.7-0.4,3.4-0.7,5.1-0.8C116.3,509.1,116.3,506.1,114.4,506.3z"/>
<path d="M121.1,501.3c-2-1.9-2.8-6-6.5-4.4c-2.9,1.2-5.4,5.1-6.4,7.9s-0.9,6.3,1.5,8.4c2.1,1.9,5.4,1.8,7.3-0.4c0,0,0,0,0-0.1
	c1.3-1.4-0.8-3.6-2.1-2.1c-2,2.3-4.3-0.3-4.4-2.5c0.1-1.8,0.7-3.5,1.8-4.9c0.9-1.3,2.1-3.3,3.7-2.9c1.4,0.4,1.8,2.1,2.8,3.1
	C120.3,504.8,122.5,502.7,121.1,501.3L121.1,501.3z"/>
<path d="M127.3,500.3c-1.8-6.6-5.2-12.6-9.9-17.5c-1.3-1.4-3.4,0.7-2.1,2.1c4.3,4.6,7.5,10.2,9.2,16.2c0.2,0.8,1.1,1.2,1.9,1
	C127,501.8,127.5,501,127.3,500.3z"/>
<path class="st2" d="M251,322.3c24.1,23.1,36.3,58,31.8,91.1c-20.4,10.6-24.4,13.1-47.1,16.8c0.6-6.5-2.6-18.2-6.6-23.4
	c1.2,15.6-13.8,34.6-19.4,36.4c-13.9,4.6-50.6-0.3-62.7-8.5c24.2-40.5,23.3-43.3,29.3-65.6c1.1-4.1-9.2-9.7-6.6-13
	c3.4-4.2,8.6-6.3,13.6-8.2c22.4-8.6,44.9-16.8,67.5-24.7"/>
<path d="M249.9,323.3c19.1,18.7,30.5,43.9,32.1,70.6c0.2,3.1,0.2,6.2,0.1,9.4c-0.1,2.4,0.3,7.2-1.2,9.1s-6,3.4-8.1,4.5
	s-4.5,2.3-6.9,3.4c-9.8,4.6-20.1,6.7-30.7,8.5l1.9,1.4c0.4-8.6-2-17-6.8-24.1c-0.8-1.1-2.9-0.9-2.8,0.8c0.5,10.3-4.7,20.5-11,28.4
	c-2,2.4-4.3,5.3-7.3,6.6c-3.3,1.4-7.4,1.5-10.9,1.6c-9.2,0.3-18.4-0.5-27.4-2.3c-7.9-1.5-16.4-3.3-23.2-7.7l0.5,2
	c9.6-16.1,20-32.4,25.3-50.5c0.9-3.1,1.7-6.3,2.5-9.4c0.8-3,2.4-6.4,1.1-9.4c-0.9-1.7-2.1-3.2-3.5-4.5c-0.8-0.7-1.5-1.6-2.1-2.5
	c-1.3-2.8,1.5-4.6,3.7-6c6.6-4.1,14.7-6.3,22-9c17.9-6.7,35.9-13.3,53.9-19.5c1.8-0.6,1-3.5-0.8-2.9c-16.8,5.9-33.6,11.9-50.3,18.2
	c-7.3,2.7-14.7,5.2-21.7,8.4c-3.3,1.5-10.3,4.5-10.6,8.9c-0.3,3.5,3.8,6.2,5.6,8.6c2.6,3.5-0.1,9-1.1,12.9
	c-1.6,6.5-3.8,12.9-6.5,19.1c-5.7,12.6-13,24.4-20,36.3c-0.4,0.7-0.2,1.6,0.5,2c7.6,4.9,17.1,6.9,25.9,8.4c10,1.7,20.4,2.8,30.6,1.7
	c8-0.8,12.3-3.8,17.1-10.2c6.3-8.2,11.3-18.6,10.8-29.1l-2.8,0.8c4.6,6.6,6.8,14.6,6.4,22.6c0,0.8,0.7,1.5,1.5,1.5
	c0.1,0,0.2,0,0.4,0c11.5-1.9,22.5-4.4,33-9.5c2.6-1.3,5.2-2.6,7.8-4c1.9-1,6-2.2,7.1-4s0.8-6.4,1-8.5c0.2-3.6,0.2-7.3,0-10.9
	c-1.4-27.8-13.2-54-33-73.5C250.7,319.8,248.6,321.9,249.9,323.3L249.9,323.3z"/>
<path d="M203.3,376.1c2.2,10.2-2,20.7-11.1,26c-6.2,3.5-21,6.3-24.6-2.3c-0.7-1.8-3.6-1-2.9,0.8c4,9.8,18.2,9,26.3,5.4
	c12-5.2,17.9-18.1,15.1-30.7C205.8,373.5,202.9,374.3,203.3,376.1L203.3,376.1z"/>
<path d="M196.9,379.7c3.9,14.7-15.7,24.4-26.5,15.3c-1.5-1.2-3.6,0.9-2.1,2.1c6,5.1,14.7,6.4,21.7,2.4s12-12.4,9.9-20.6
	c-0.2-0.8-1.1-1.2-1.9-1C197.1,378.2,196.7,378.9,196.9,379.7L196.9,379.7z"/>
<path d="M277.2,370.3c-8.7-1.9-16.7-6-23.3-12c-1.4-1.3-3.6,0.8-2.1,2.1c6.9,6.4,15.4,10.8,24.6,12.8
	C278.3,373.6,279.1,370.8,277.2,370.3L277.2,370.3z"/>
<path class="st0" d="M226.1,309.1l-0.9-0.2l0,0L226.1,309.1z"/>
<path d="M226.5,307.6l-0.9-0.2c-0.9-0.2-2,0.4-1.9,1.5l0,0c0,0.7,0.5,1.3,1.1,1.5l0.9,0.2c0.8,0.2,1.6-0.3,1.8-1.1
	C227.7,308.6,227.3,307.9,226.5,307.6l-0.9-0.2l1.1,1.4l0,0l-1.9,1.5l0.9,0.2c0.8,0.2,1.6-0.3,1.8-1.1
	C227.7,308.7,227.3,307.9,226.5,307.6L226.5,307.6z"/>
<path class="st0" d="M99.2,152.6c-3.3,0.3-4.2,4.8-4,8.2c0.1,1.4,0.2,2.9,0.3,4.3l-1.4-1.4c-0.3-0.4-0.7-0.6-1.2-0.8
	c-0.5-0.2-1,0-1.2,0.4c-0.1,0.2-0.1,0.5,0,0.8c0.7,2.8,1.9,6.7,4.6,8.5c4.1,30.9,16.2,60.2,35.3,84.9c21.2,27.4,56.7,44.9,89.7,55.8
	c-0.1-29.5-18.7-55.4-40-75.9c-13.3-12.9-29.6-22.2-44.1-33.5s-28-25.8-32.2-43.8C104.2,156.6,102.6,152.3,99.2,152.6z"/>
<path d="M98.8,151.1c-6.1,1.5-5.1,9.1-4.7,13.9l2.6-1.1c-2.1-2-6.6-4.4-6.3,0.5c0.2,2.5,1.8,5.1,3,7.1c2.1,3.4,2.3,6.6,3,10.5
	c3,16,8.1,31.4,15.2,46c6.8,13.9,15.3,27.3,25.9,38.6c10.4,11,22.8,19.9,35.8,27.4c15.1,8.4,31.1,15.3,47.6,20.6
	c0.8,0.2,1.6-0.3,1.8-1.1c0-0.1,0.1-0.3,0.1-0.4c-0.4-28-16.3-52.3-35.3-71.9c-20.6-21.4-49.5-33.7-68.3-56.9
	c-5.6-6.7-9.7-14.4-12.2-22.7c-1.2-4.4-2.2-10.5-7.8-10.8c-1.9-0.1-1.9,2.9,0,3c4.2,0.2,5.1,9.4,6.1,12.3c1.3,3.6,2.9,7,4.8,10.3
	c3.9,6.5,8.6,12.4,14,17.7c12.4,12.2,27.4,21.2,41.2,31.5c27.4,20.4,54,51.6,54.5,87.4l1.9-1.4c-31.9-10.6-64.7-26.1-86.6-52.4
	c-11.7-14.3-21-30.5-27.4-47.9c-3.2-8.4-5.7-17.1-7.6-25.9c-0.5-2.2-0.9-4.4-1.3-6.6c-0.3-2-0.2-4.8-1-6.7c-0.5-1.2-1.9-2-2.6-3.1
	c-0.6-1-1.1-2-1.4-3.1c-0.6-1.6-0.4-1.6,0.6,0.1c0.9,0.8,2.7,0.3,2.6-1.1c-0.2-2.9-1.7-10,2.5-11
	C101.4,153.6,100.6,150.7,98.8,151.1z"/>
<path class="st0" d="M274,316.8c0.1-0.3,0.1-0.6,0.2-0.9l0,0L274,316.8z"/>
<path d="M275.5,317.2c0.1-0.3,0.1-0.6,0.2-0.9l-2.2,0.9l0,0l-0.7-1.7l-0.2,0.9c-0.2,0.8,0.3,1.6,1.1,1.8
	C274.4,318.4,275.2,317.9,275.5,317.2l0.2-0.9c0.2-0.7-0.1-1.3-0.7-1.7l0,0c-0.7-0.4-1.6-0.2-2.1,0.6c-0.1,0.1-0.1,0.2-0.1,0.3
	c-0.1,0.3-0.1,0.6-0.2,0.9c-0.2,0.8,0.3,1.6,1.1,1.8C274.5,318.4,275.2,318,275.5,317.2L275.5,317.2z"/>
<path class="st0" d="M196.2,129.7c2-2.8,6.3-1.2,9.1,0.7c1.2,0.8,2.4,1.6,3.6,2.4c-0.2-0.6-0.3-1.3-0.5-1.9
	c-0.1-0.5-0.2-0.9-0.1-1.4c0.1-0.5,0.5-0.8,1-0.8c0.3,0.1,0.5,0.2,0.6,0.4c2.1,2,4.8,5,5.1,8.2c24.7,19,44,44.2,55.9,73
	c13.1,32.1,10.5,71.6,3.4,105.6c-25.5-14.9-38.6-43.9-45.8-72.6c-4.5-17.9-4.4-36.7-7-55s-8.3-37.2-21.8-49.8
	C197.2,136.1,194.2,132.5,196.2,129.7z"/>
<path d="M197.3,130.8c3-3,8.4,1.7,10.8,3.3c1.1,0.8,2.5-0.5,2.2-1.7c-0.8-1.7-0.7-1.8,0.4-0.3c1.1,1.2,2,2.7,2.6,4.3
	c0.9,2.2-0.1,1.3,1.9,3c3.3,2.8,6.7,5.5,10,8.4c6,5.5,11.7,11.4,16.9,17.7c11,13.2,20.1,28,26.8,43.9c14,33.4,11.1,71.5,4,106.1
	l2.2-0.9c-28.6-17.1-42.6-52.3-47.5-83.9c-2.9-18.7-2.6-37.8-7-56.2c-1.8-7.6-4.5-15-8.1-21.9c-1.8-3.3-3.9-6.5-6.3-9.4
	c-2.2-2.7-10.4-8.7-8.6-12.6c0.8-1.7-1.8-3.3-2.6-1.5c-2.2,4.9,1.6,8.3,4.9,11.6c5.2,5.4,9.4,11.6,12.3,18.5
	c6.5,14.6,8.3,30.6,9.6,46.4c2.5,28.6,7.3,57,22.4,82c7.3,12.1,17,22.5,29.2,29.8c0.7,0.4,1.6,0.2,2.1-0.6c0.1-0.1,0.1-0.2,0.1-0.3
	c6.3-30.6,9.3-63.3,0.9-93.8c-8-29.1-26.6-56-48.6-76.2c-3.2-2.9-6.9-5.5-9.9-8.5c-2.4-2.3-3.3-5.8-5.6-8.3c-4-4.3-6.1-0.9-5,3.8
	l2.2-1.7c-4-2.8-10-7.3-14.4-2.9c-0.6,0.6-0.6,1.6,0,2.2S196.7,131.4,197.3,130.8z"/>
<path class="st3" d="M240.4,249.1c37,34,58.1,77,52.2,126.8c-40.3,13.5-93.4,7.9-131.3-11.3c-2.3-1.1-4.6-2.5-5.7-4.8
	c-1.4-2.8-0.4-6.1,0.6-9.1c6.3-18.6,30.6-76.6,25.9-95.7c-1.7-6.9-3.8-15.1,1-20.4c3.8-4.2,10.4-4.4,16-3.6
	C214.4,233.1,228.7,239.3,240.4,249.1"/>
<path d="M239.4,250.1c17.3,16,32.2,34.8,41.7,56.5c9.4,21.8,12.9,45.7,10.1,69.3l1.1-1.5c-23,7.6-47.8,8.9-71.8,6
	c-12.2-1.5-24.2-4.1-35.8-7.9c-5.8-1.9-11.5-4.1-17-6.6c-2.3-1-4.6-2.1-6.8-3.3c-5.4-3.4-4.4-7.5-2.8-12.4
	c5.2-15.1,11.2-29.8,16.2-45c4.8-14.5,11.2-31.4,10-46.9c-0.4-4.6-2.1-8.9-2.4-13.4c-0.6-9.7,6.4-13.4,15.2-12.6
	C212.5,233.5,227.5,240.5,239.4,250.1c1.5,1.2,3.6-0.9,2.1-2.1c-10.5-8.6-22.8-14.6-36.1-17.4c-9.2-2-23.1-3.4-26.2,8.4
	c-1.3,5.2,0.2,10.7,1.3,15.7c0.7,3.5,0.9,7.1,0.5,10.6c-0.9,9.6-3.6,19.1-6.3,28.3c-5.5,18.2-12.5,35.9-18.9,53.8
	c-1.4,4-3.5,8.8-1.6,13c2.2,4.7,8.8,6.8,13.2,8.8c12,5.3,24.5,9.2,37.3,11.8c29,5.9,60,5.7,88.3-3.6c0.6-0.2,1.1-0.8,1.1-1.4
	c2.7-23.6-0.7-47.6-10-69.5c-9.6-22.5-24.8-42-42.7-58.5C240.1,246.7,238,248.8,239.4,250.1z"/>
<path class="st3" d="M209,217.7c8.7,4.8,15.3,12.8,18.4,22.2c1.3,3.9,2,8.2,0.8,12.1s-4.4,7.5-8.5,7.9c-4.5,0.5-12.1-2.7-15.1-6
	c-8-8.8-9.3-20.3-9.9-32.1c-0.1-2.1,0-4.4,1.3-6.1c1.7-2.1,4.9-2.4,7.4-1.4s4.4,3,6.3,4.9"/>
<path d="M208.3,219c7.9,4.4,14,11.5,17.3,19.9c1.7,4.6,2.9,10.3,0.4,14.9c-2.9,5.3-8.2,5.2-13.2,3.3c-8.6-3.3-12.7-11.5-14.7-20
	c-0.9-4.5-1.5-9.1-1.7-13.7c-0.2-3.3-1-7.9,4.4-8.1c3.2-0.2,5.9,3,7.9,5c1.4,1.4,3.5-0.7,2.1-2.1c-3.4-3.5-8.1-7.6-13.4-5.3
	s-4.2,9-3.8,13.7c1,11.7,3.8,26.3,15.4,32.1c4.2,2.1,9.6,3.9,14.1,1.7c5.2-2.5,7.5-8.2,7.3-13.7c-0.5-12.7-10-24.3-20.6-30.4
	c-0.7-0.4-1.6-0.2-2.1,0.5C207.3,217.7,207.5,218.6,208.3,219L208.3,219z"/>
<path class="st0" d="M209.7,223.2c6.2,3.5,10.9,9.1,13.2,15.9c1.1,2.8,1.3,5.8,0.6,8.7c-0.8,2.8-3.2,5.3-6.1,5.6
	c-3.2,0.3-6.1-1.9-8.3-4.3c-5.7-6.3-9.1-14.5-9.6-23c-0.2-1.5,0.1-3.1,0.9-4.4c1.2-1.5,3.5-1.7,5.3-1c1.7,0.8,3.3,2,4.5,3.5"/>
<path d="M208.9,224.5c4.4,2.5,8,6.1,10.5,10.5c1.7,2.8,2.7,6,2.9,9.3c0.1,5.5-4.4,9.7-9.9,5.8c-4.3-3-7.4-8.7-9.3-13.5
	c-0.7-2-1.3-4-1.7-6.1c-0.7-3.8-1.2-3.9,2.1-6s3.2-1.5,5.6,0.9c0.6,0.6,1.6,0.5,2.1-0.1c0.5-0.6,0.5-1.5,0-2
	c-2.4-2.5-5.6-5.3-9.4-4.1c-3.2,1-4,4-3.9,7c0.2,9.3,5,20.7,12.6,26.4c6.7,5,14.4,0.7,14.8-7.4c0.5-9.6-7.1-18.6-14.9-23.3
	c-0.7-0.4-1.6-0.1-2,0.6C208,223.2,208.2,224.1,208.9,224.5L208.9,224.5z"/>
<path class="st1" d="M226.5,218.5c4.9-3.7,5.8-11,3.4-16.6s-7.4-9.7-12.8-12.6c-7.7-4.2-17.2-6.4-25.3-2.9
	c-10.3,4.4-15.2,16.3-10.8,26.6c1.7,4,4.6,7.3,8.2,9.5c6.1,3.6,13.7,3.9,20.6,2.2s13.2-5.2,19.4-8.6"/>
<path d="M227.6,219.5c10.3-8.9,3.4-22.8-5.8-29.2c-11.2-7.8-28.2-11.2-38.2,0.2c-8,9.1-7.1,23,2.1,31c0.5,0.4,1,0.8,1.5,1.2
	c13.5,9.7,30.3,1.4,42.9-5.5c1.7-0.9,0.2-3.5-1.5-2.6c-10.1,5.6-21.7,11.9-33.6,8.5c-12.1-3.5-17.9-18-10.7-28.6
	c15.3-22.6,59.8,6.7,41.2,22.8C224,218.7,226.1,220.8,227.6,219.5L227.6,219.5z"/>
<path class="st0" d="M194,206.1c-5.4,7.6,1.4,20.4,6.8,26.3c7.4,8.2,23.3,5.8,28.1-4.7c2.4-5.2-2.4-11.8-5.5-16
	c-2.1-2.8-8.6-10.6-12.6-9.1C210.8,202.6,198.9,199.2,194,206.1z"/>
<path d="M192.7,205.4c-5.8,9.4,1.3,24.9,9.9,30.6c8.7,5.8,22.6,2.6,27.4-7c2.8-5.6-0.5-11.4-3.7-16c-2.8-4.1-6.3-8.8-10.8-11.1
	c-2.5-1.3-5.9-1.3-8.8-1.6c-5.1-0.5-10.4,0.5-13.7,4.7c-1.2,1.5,0.9,3.6,2.1,2.1c4.1-5.1,11.3-4.1,17-3.1c3.9,0.7,6.9,4.4,9.4,7.4
	c3,3.7,7.7,9.5,6.5,14.6c-2.1,9.1-15.6,11.9-22.8,7.9c-7.7-4.4-14.7-19-9.8-27.1C196.3,205.2,193.7,203.7,192.7,205.4z"/>
<path class="st3" d="M218,207.6c3.3,2.5,6.5,5.1,9.5,7.9c1,0.8,1.7,1.9,2,3.1c0.3,1.7-1,3.3-2.2,4.6s-2.9,3-4.9,2.9
	c-1.7-0.1-3.1-1.5-4-3c-2.7-4.5-2.8-10-2.8-15.3C215.8,207.8,216.1,206.2,218,207.6z"/>
<path d="M217.3,208.9c2.7,2,5.3,4.1,7.7,6.3c1.6,1.4,3.7,2.8,2.5,5.6c-0.6,1.1-1.5,2.1-2.5,2.8c-4.6,2.7-6.4-3.4-7-6.4
	C217.8,216.5,217.6,209.1,217.3,208.9c0.7,0.4,1.7,0.2,2.1-0.5c0.4-0.7,0.2-1.6-0.5-2.1l0,0c-4.9-2.8-4.6,3.3-4.4,6.4
	c0.3,4.7,1.4,12.9,6.8,14.6c4.1,1.3,9.3-3.6,9.9-7.5c0.4-2.5-1.3-4.3-2.9-5.8c-3-2.7-6.1-5.3-9.3-7.7
	C217.2,205.2,215.7,207.8,217.3,208.9z"/>
<path d="M281.3,404.4c-13.7,8.1-28.7,13.9-44.3,17c-1.9,0.4-1.1,3.3,0.8,2.9c15.9-3.2,31.1-9,45-17.3c0.7-0.4,0.9-1.4,0.5-2.1
	C282.8,404.2,282,404,281.3,404.4L281.3,404.4z"/>
<path d="M218,434.8c-22.8,6-47,4.7-69-3.9c-1.8-0.7-2.6,2.2-0.8,2.9c22.5,8.7,47.3,10.1,70.6,3.9c0.8-0.3,1.2-1.1,1-1.9
	C219.5,435,218.8,434.6,218,434.8L218,434.8z"/>
<path class="st1" d="M201.9,185.6c-5.1-2.9-11.8-0.2-16.1,3.7s-7.6,9.1-12.5,12.5c-4,2.7-8.8,4.1-13.6,3.8c-2-0.1-4.2-0.5-5.9,0.5
	c-1.9,1.3-2.7,3.6-2.1,5.8c0.6,2.1,1.8,4,3.6,5.5c4.4,4.1,10.1,6.5,14.3,10.8c3.9,4.1,6.1,9.5,10.1,13.4s11.4,5.6,14.9,1.3
	c2.7-3.4,1.6-8.5-0.6-12.2s-1-9.7-2.6-13.7"/>
<path d="M202.6,184.3c-15.7-7.4-23.1,15-35.5,18.9c-5,1.6-13.9-1.6-16.6,4.4c-2.6,5.7,2.9,10.6,7,13.6c3.6,2.6,7.7,4.8,10.8,8
	c2.9,3.1,4.9,6.9,7.4,10.3c3.3,4.4,8.2,8,13.9,7.4c5.2-0.6,8.2-4.9,7.8-10c-0.3-3.4-2.3-5.9-3.1-9.1c-1-3.7-0.5-7.6-1.6-11.2
	c-0.6-1.8-3.5-1.1-2.9,0.8c1.3,4.2,0.6,8.8,2.2,12.9c1.1,2.9,3.7,6.4,2.3,9.7c-2,4.6-6.9,4.6-10.8,2.6c-5.1-2.6-7.5-8.5-10.9-12.9
	c-2.8-3.7-6.4-6.3-10.3-8.8c-2.6-1.6-5-3.4-7.2-5.6c-1-1.1-2.5-3.2-2.3-4.8c0.5-4.7,4.2-3.6,6.7-3.5c4.3,0.2,8.5-0.7,12.3-2.6
	c9-4.8,16.9-23.2,29.2-17.5C202.9,187.7,204.4,185.1,202.6,184.3L202.6,184.3z"/>
<path class="st1" d="M210.4,197.2c2.8,5.6,1.1,12.5-2.6,17.5s-9,8.5-14.2,11.9c-1.9-5.8-2.9-11.8-3.2-17.9c-0.2-3.7,0-7.6,2-10.8
	c3.2-5.2,10-6.9,15.2-3.8c2.7,1.6,4.5,4.3,5.2,7.3"/>
<path d="M209.1,198c5.2,12.3-7.3,21.6-16.2,27.4l2.2,0.9c-2.2-7.3-4.7-16.6-2.7-24.3c1.1-5.2,6.2-8.6,11.5-7.5
	c3.7,0.8,6.6,3.6,7.4,7.3c0.2,0.8,1.1,1.2,1.9,1c0.8-0.2,1.2-1,1-1.8c-2.4-8.8-12.6-13.1-20.1-7.2c-9.2,7.2-4.8,24-1.9,33.2
	c0.2,0.8,1.1,1.3,1.9,1c0.1,0,0.2-0.1,0.3-0.1c10.6-6.9,23.3-17.4,17.3-31.5C210.9,194.7,208.3,196.2,209.1,198L209.1,198z"/>
<path d="M156.9,221.1c5.8,20.1,5.6,41.5-0.5,61.6c-0.6,1.9,2.3,2.6,2.9,0.8c6.3-20.6,6.5-42.5,0.5-63.2c-0.2-0.8-1.1-1.2-1.9-1
	C157.1,219.5,156.7,220.3,156.9,221.1z"/>
<path d="M279.6,247.2c-13.6-14.1-30.4-24.8-49-31c-1.8-0.6-2.6,2.3-0.8,2.9c18.1,6.1,34.4,16.5,47.6,30.2
	C278.8,250.7,280.9,248.5,279.6,247.2L279.6,247.2z"/>
<path class="st0" d="M200.3,301.3c1.8,13.6,1.6,36.7-4.1,49.2c32.1,5.9,65,4.5,96.5-4.1c-2.8-14.8-8.9-38.3-14.3-52.3
	c-25.6,7.6-52.5,10-79,6.9"/>
<path d="M198.8,301.3c1.9,15.5,2.4,33.9-3.9,48.5c-0.3,0.8-0.2,2,0.9,2.2c32.3,5.8,65.6,4.4,97.3-4.1c0.8-0.2,1.2-1,1-1.8
	c-3.5-17.7-7.9-35.5-14.3-52.3c-0.2-0.8-1-1.2-1.8-1c-25.5,7.5-52.2,9.8-78.6,6.9c-1.9-0.2-1.9,2.8,0,3c26.7,2.9,53.6,0.6,79.4-7
	l-1.8-1c6.4,16.8,10.9,34.6,14.3,52.3l1-1.9c-31.2,8.4-63.9,9.9-95.7,4.1l0.9,2.2c6.5-15.1,6.3-33.9,4.3-50
	C201.5,299.4,198.5,299.4,198.8,301.3L198.8,301.3z"/>
<path d="M236.7,326.8c0.6,0.2,0.8,0,0.8,0.7s0.1,2.7-0.7,2.7s-1.4-0.2-2-0.3c-0.4,0-2.2,0-2.2,0.4c0,0.6,2.6,3.7,3.1,4.1
	c0.4,0.3,0.9,0.6,1.3,0.8c0.2,0.1,1.1,0.5,1.1,0.8s-0.9,1.1-1.1,1.5s-0.9,1.7-1.4,1.7c-0.3-0.1-0.6-0.2-0.9-0.4
	c-3.4-1.7-4-5.3-4.9-5.8c-0.1,0-0.2,0.1-0.3,0.1c-0.3,0.4-0.5,0.9-0.8,1.3c-1.1,1.5-2.5,2.9-3.9,4.2c-0.2,0.1-0.8,0.6-1,0.5
	c-1-0.7-1.8-1.6-2.4-2.7c0-0.2,0.7-0.6,0.8-0.7c1.8-1,3.2-2.6,4.1-4.4c0.3-0.4,0.4-0.9,0.5-1.4V330c-0.4-0.3-2.6-0.1-3.4-0.1
	s-1.3,0.1-1.3-0.7c0-0.5,0-2.6,0.7-2.6s1.4,0.2,2,0.2c0.4,0,0.8,0,1.3-0.1c1.3-0.2,1.3-0.1,1.3-1.6c0.1-0.8,0-1.5-0.2-2.3
	c-0.2-0.2-1.3-0.2-1.6-0.2c-0.6,0-1.2,0.1-1.8,0.4c0,0.1-0.1,0.2-0.1,0.3c0,0.4,0.1,0.7,0.1,1.1c0,0.5-1.5,1.2-1.9,1.2
	s-0.9-1.4-1.1-1.7c0,0.8,0.1,1.7,0.1,2.5s-0.2,1.7-0.2,2.6s0.2,1.7,0.2,2.6c0,1.5-0.3,3.1-0.3,4.6c0,0.8,0.3,1.6,0.2,2.4
	c0,0.6-1.3,0.5-1.8,0.5c-0.5,0-1.1,0-1.6-0.2c-0.3-0.2-0.2-3.8-0.2-4.5c0-0.9,0.2-1.7,0.2-2.6l0.1-5.2c0-0.2,0-0.4,0-0.6v-0.1
	c-0.1,0-0.1,0.1-0.1,0.1c-0.2,0.4-0.3,1.8-0.9,1.7s-2.4-0.5-2.4-1.1c0.1-0.5,0.2-0.9,0.3-1.3c0.2-0.6,0.4-1.2,0.6-1.8
	s0.3-2.4,0.4-2.6s1.3,0.1,1.6-0.3s0.5-2.9,0.5-3.5c0-1.3,0-1.3,1.3-1.3c0.6,0,1.2,0,1.8,0.2c0.5,0.4,0,3.5,0.4,4.3
	c0.1,0,0.1,0,0.2,0c0.2,0,0.8-0.3,1-0.3c0.5,0,0.8,2,0.9,2.4c0.1-0.6-0.1-2.7,0.6-2.8s3.2,0.2,3.4-0.3c0.1-0.2,0.1-0.4,0.1-0.6
	c0-2.3-0.5-3.2,1.9-3.1c0.4,0,1.3,0,1.6,0.3c0.7,0.7-0.1,3.5,1,3.7c0.5,0.1,1,0.1,1.6,0.1c0.8,0,1.6-0.1,2.5-0.1s0.5,1.5,0.5,2
	c0,1.4,0.3,2.8,0.3,4.2c0,0.4,0,0.7,0,1.1L236.7,326.8z M231.8,322.8c-0.2,0-0.5,0-0.7,0.1c-0.1,0.1-0.1,0.2-0.1,0.3
	c0,0.5,0.1,1.1,0.1,1.6s-0.1,1-0.1,1.5c0,0.2,0.2,0.3,0.3,0.3c0.5,0,1,0,1.5-0.1c0-0.1,0.1-0.2,0.1-0.3c0-0.5-0.2-1-0.2-1.5
	s0.1-1.1,0.1-1.6c0-0.1,0-0.2-0.1-0.3c-0.1-0.1-0.2-0.1-0.3-0.1L231.8,322.8z"/>
<path d="M256.1,321.4c0.1,0.5,1,9.1,0.5,9.5c-0.4,0.2-0.9,0.3-1.4,0.4c-0.4,0-1.6,0.3-1.6-0.3s-0.1-1.3-0.1-2
	c-0.1-0.8-0.4-1.6-0.5-2.4c-0.1-0.6-0.1-1.3-0.1-1.9c0-0.2-0.2-0.4-0.4-0.4c0,0-0.1,0-0.1,0c-0.7,0.2-1.4,0.4-2.1,0.7
	c-1,0.2-1.9,0.3-2.9,0.4c-2,0.3-4,0.8-6,1.1s-1.8-0.1-2.1-2.1c-0.1-1.1,1.2-0.8,1.8-1.5c0.2-0.4,0.3-0.8,0.4-1.2
	c0.1-0.3,0.1-0.7,0.1-1c0-0.1,0-0.1-0.1-0.2c-0.7-0.5-2.7,0.6-2.9-0.7c-0.1-0.5-0.2-2.4,0.4-2.5s1.5,0,2.3-0.1
	c1.6-0.2,3.2-0.7,4.9-0.9c0.7-0.1,1.4-0.1,2-0.1s2.6-0.4,2.8,0.6c0.4,3.3,0,1.9-1.8,2.8c1.1,1.6,2.3,3.1,3.6,4.4
	c-0.1-0.7-0.2-1.5-0.3-2.2c-0.2-1.3-0.4-2.6-0.5-3.9c-0.1-0.5,0-0.8,0.6-0.9c2.7-0.4,2.9-0.8,3.2,2.1L256.1,321.4z M253.4,334.9
	c0,0.3,0,0.6-0.4,0.8c-1.4,0.5-2.8,0.9-4.2,1.2c-2.3,0.7-4.7,1.3-7.1,1.8c-0.8,0.1-1.2-2.2-1.3-2.8c0-0.2,0-0.4,0-0.6
	c0.2-0.8,4.1-0.8,4.5-1.3c0.2-0.2,0.1-0.8,0-1.1c0-0.3-0.1-0.7-0.3-1c-0.6-0.6-3.8,0.6-3.9-0.5c0-0.3,0-0.7,0-1c0-2.2,0.7-1.5,3-1.8
	c0.2,0,0.4-0.1,0.5-0.2c0-0.1,0-0.2,0-0.3c-0.1-0.4-0.3-0.8-0.3-1.1c-0.1-0.7,2.5-0.9,3-1c0.3,0,0.8-0.1,0.8,0.3s0,0.8,0.1,1.2
	c0.1,0.6,2.7,0,3.1-0.1s0.8,0.1,0.8,0.6c0,0.3,0,0.7,0,1c-0.1,2.4-0.7,1.7-2.7,2c-0.9,0.1-0.6,1-0.6,1.7c0,0.2,0.2,0.4,0.4,0.4
	c0,0,0.1,0,0.1,0c1.2-0.1,2.3-0.5,3.5-0.7C253.1,332.5,253.3,334.4,253.4,334.9L253.4,334.9z M247.4,322.4c0-0.3-0.8-0.8-0.9-1.2
	s1.3-1.6,1.6-1.9c-1.6,0.1-2.4,0.5-2.8,2c-0.1,0.4-0.2,0.7-0.3,1.1c0,0,0,0.1,0,0.1c0.3,0.2,1.1,0,1.5,0
	C246.8,322.6,247.1,322.6,247.4,322.4L247.4,322.4z M257.6,318.8c-0.1-1.1-0.2-2.2-0.3-3.3c0-0.3-0.1-0.7,0.1-0.9
	c0.7-0.3,1.5-0.5,2.3-0.6c0.3,0,0.6,0,0.7,0.3c0.1,0.2,0.3,2,0.4,2.2c0.3,2.2,0.7,4.4,0.9,6.5c0.1,0.8,0,1.6,0.1,2.4
	s0.4,1.4,0.5,2.1l0.3,2.6c0,0.8,0,1.7,0,2.5c-0.1,2.7,0,3.1-2.7,3.8c-0.7,0.2-1.5,0.4-2.3,0.6c-0.3,0-0.5,0.1-0.7-0.2s-1-2.9-1-2.9
	c-0.1-0.9,3.5-0.6,3.4-1.6c-0.1-1.2-0.6-2.4-0.7-3.6c-0.1-1,0.1-2.1,0-3.2c-0.2-1.4-0.5-2.8-0.7-4.3L257.6,318.8z"/>
<path d="M276.8,313.8c-0.9-0.1-3.7,1-4.7,1.3s-2,0.3-2.9,0.6c-1.4,0.4-3.2,1.5-4.3,1.8c-0.6,0.2-1-1.5-1.2-2s-0.6-1.3,0.2-1.5
	c1.1-0.3,2.2-0.5,3.3-0.8s2-1,3-1.3c0.5-0.1,1-0.2,1.5-0.3c1-0.2,2-0.5,3-0.9c0.6-0.2,1.3-0.2,1.9-0.4c0.9-0.3,1.8-0.6,2.6-1
	c0.5,0.1,3.5,0.9,3.5,1.2s-0.8,1.2-0.9,1.5c-0.4,0.8-0.5,1.8-0.9,2.6c-0.6,1.1-2.5,4-3,5.2c-0.2,0.8-0.2,1.7,0.1,2.5
	c0.4,2.3,0.9,4.6,1.6,6.9c0.1,0.3,0.2,0.7,0.2,1c-0.3,1.4-5,3.1-5.7,3.4c-0.2,0.1-0.5,0-0.6-0.2c-0.3-0.6-0.7-1.2-1.2-1.7
	c-0.2-0.2-0.8-0.5-0.9-0.8c0.6-0.2,1.2-0.4,1.8-0.5c0.6-0.2,1.2-0.5,1.6-1c0.2-0.2,0.8-0.6,0.9-0.9c0-0.9-0.1-1.8-0.4-2.6
	c-0.3-0.9-1.2-1.7-1.5-2.6c-0.2-0.7-1.1-4.5-0.9-4.9s1-0.4,1.4-0.5c0.7-0.2,1.1-1.5,1.3-2l0.7-1.2
	C276.5,314.6,276.8,314,276.8,313.8L276.8,313.8z"/>
<path d="M192.9,297.9l9.6,8.5l1.9-3.8l-7.5-7.5c-0.4-0.5-1-0.8-1.6-1c-0.8-0.1-1.7,0.3-2.1,1c-0.4,0.7-0.7,1.5-0.9,2.3"/>
<path d="M199.9,347.3l-11.6,5.5l2.8,3.2l9.9-3.9c0.6-0.2,1.2-0.5,1.6-1c0.4-0.7,0.4-1.6-0.1-2.4c-0.5-0.7-1.1-1.3-1.8-1.7"/>
<path d="M222.8,349.6c21.5,2,43.2,0.2,64.1-5.5c0.8-0.2,1.2-1.1,1-1.9c-0.2-0.8-1-1.2-1.8-1c-20.6,5.6-42,7.5-63.3,5.4
	C220.9,346.4,220.9,349.4,222.8,349.6L222.8,349.6z"/>
<path d="M280.6,297c4-29,4.4-59.9-6.8-87.5c-10.6-26-27.2-49.2-48.4-67.6c-2.7-2.3-6.2-4.4-7.9-7.4c-1.5-2.7-2.8-5.5-5.3-7.5
	c-1.5-1.1-3.2-1.8-4.9-0.7c-2.6,1.7-1.8,4.8-1.2,7.3l4.4-3.4c-4.2-2.9-11.8-8.1-16.3-2.6c-5,6.1,3.2,12.2,6.8,16.3
	c11.8,13.2,16.1,31.4,18.1,48.5l4.5-2.6c-6.9-4.9-15-7.8-23.5-8.2c-8.7-0.6-14.7,3.3-20.3,9.7c-3,3.4-5.9,7.1-10,9.2
	c-5,2.6-9.4,1.2-14.6,2.1c-7.3,1.2-7.9,9.3-4.3,14.5l4.1-4.1c-17.2-12-35.8-25.2-44.3-45.2c-2.3-5.4-2.8-17.2-10.4-18.1
	c-8.5-1-8.2,10-7.7,15.4l5.1-2.1c-2.4-2.3-8.3-5.3-8.9,0.4c-0.6,5,4.3,8.9,5.2,13.4c2.7,14.2,6,28,11.6,41.4
	c11,26.5,27.5,49.7,50.8,66.7l-1.5-2.6v0.8c0,3.4,4.9,4,5.9,0.8l0.2-0.6l-4.4,1.8c5.9,4.2,12,8,18.3,11.5l-1.4-3.4
	c-5.1,17-11.5,33.6-17.6,50.3c-2,5.6-5.7,12.7-2.2,18.5c1.9,3.2,5.5,4.8,8.7,6.4c4.2,2,8.4,3.8,12.7,5.5l-2.1-3.7
	c-2.2,8.3-4.1,16.7-7.5,24.6c-5.7,13.5-13.6,26-21,38.5c-0.8,1.4-0.3,3.3,1.1,4.1c3.1,1.8,6.4,3.3,9.8,4.5l-1.8-4.4
	c-9.5,15.4-21,29.5-34.2,42l3.6-0.5c-3.5-2.3-6-0.2-8.8,2.1c-3.5,2.8-6.9,5.6-10.3,8.5c-3.2,2.8-6.2,5.7-9.3,8.5
	c-2.8,2.5-6.3,4.3-5.4,8.6c0.5,2.3,2.2,4.4,3.4,6.3c2,3.2,4,6.4,6.1,9.5c2.3,3.5,4.7,8.6,9.6,8.7c9.8,0.3,17-9.2,13.9-18.3l-5,2.9
	c2.5,2.4,9.4,9.5,13.2,5.2s-3.2-10.8-6.1-13.3l-2.9,5c3.6,1.5,13.5,4,11.7-3.6c-1.5-6.2-9.7-7.8-14.9-7l3.4,4.4
	c1-2.3,5.9-3.2,8.5-4.1c1.6-0.5,2.5-2.2,2-3.8c-0.1-0.2-0.1-0.4-0.2-0.6c-0.6-1.5-1.3-3-1.9-4.5l-1.1,4.1
	c17.7-8.5,34.3-19.2,49.4-31.8c3.7-3.1,7.3-6.3,10.9-9.7c3.1-3,6.2-7.9,10.5-8.3c3.9-0.4,8.1-0.5,11.7-2c1.1-0.5,2.1-1.2,3.1-1.9
	c1.2-0.9,3.6-4.5,4.9-4.8c3.4-0.9,2.5-5.7-0.8-5.9h-0.7l2.1,5.1c7-8.9,12.8-19.8,12.3-31.5l-5.6,1.5c4.4,6.4,6.6,14.1,6.2,21.9
	c-0.1,2.1,2,3.2,3.8,2.9c2.4-0.4,4.8-0.8,7.2-1.2l-3.7-2.1c7.8,23.1,11.4,47.5,10.8,71.9l2.2-2.9c-4,0.9-4.3,4.2-4.7,7.7
	c-0.5,4.4-0.9,8.8-1.3,13.3c-0.3,4.2-0.3,8.4-0.5,12.6c-0.2,4-1.5,7.8,2.8,10.2c5.1,2.7,12.6,3.3,18.2,4.4c4.4,0.8,9.6,2.5,12.8-1.7
	c5.7-7.2,5-17.7-3.8-21.8l-1.5,5.5c3.7-0.1,12.7,0.2,13-5.3c0.4-6.1-9.8-5.7-13.6-5.5l0.8,5.9c3.6-1.5,12.8-6.1,6.9-10.8
	c-5.2-4.1-12.9,1.1-15.9,5.3l5.5,0.7c-0.9-2.3,1.9-6.5,3.1-8.9c0.8-1.5,0.3-3.3-1.2-4.2c-0.2-0.1-0.4-0.2-0.6-0.2l-4.5-1.8l2.1,3.7
	c10.4-29.9,14.8-61.5,12.8-93.1l-1.5,2.6c2.3-1.2,3.4-1.5,4.1-3.9c1.1-3.7,0.9-8.6,0.9-12.4c0-7.6-0.7-15.2-2.1-22.7l-2.1,3.7
	c3.7-0.9,7.4-2,11.1-3.1c1.3-0.4,2.2-1.6,2.2-2.9c3.1-28-2.3-56.3-15.4-81.2c-1.8-3.4-7-0.4-5.2,3c12.6,24,17.7,51.2,14.6,78.2
	l2.2-2.9c-3.7,1.2-7.3,2.2-11.1,3.1c-1.6,0.5-2.5,2.1-2.1,3.7c2.1,11.1,2.4,22.4,1,33.6l1.5-2.6l-2.6,1.4c-0.9,0.5-1.5,1.5-1.5,2.6
	c1.9,31-2.4,62.2-12.6,91.5c-0.6,1.7,0.7,3.1,2.1,3.7s3,1.2,4.5,1.8l-1.8-4.4c-1.8,3.9-5.3,9.3-3.7,13.5c0.5,1.6,2.2,2.5,3.8,2
	c0.7-0.2,1.3-0.7,1.6-1.3c0.6-1,1.5-1.9,2.6-2.3c0.9-0.7,2.1-1.1,3.3-1.2l-0.3-1.4c-1.1,0.6-2.2,1.2-3.3,1.7
	c-2.9,1.2-2.9,6.1,0.8,5.9c1.2-0.1,2.4-0.1,3.6-0.1c1.8,0.1,4.8,1.8,4.4-0.6c-0.3-2-1.1-1.1-2.9-0.8c-1.5,0.2-3,0.3-4.5,0.3
	c-2.8,0.1-4.3,4.3-1.5,5.6c3.9,1.8,5.6,5.1,4,9.2c-0.9,2.3-0.9,3-3.5,3.4s-4.3,0-6.7-0.5c-3.7-0.8-8.4-1.2-11.9-2.7
	c-2.1-0.9-2.6-0.9-2.9-3.4c0-0.8,0-1.5,0-2.3c0-4.7,0.3-9.3,0.6-13.9c0.1-1.3,0.5-13.7,1.5-13.9c1.3-0.4,2.2-1.5,2.2-2.9
	c0.7-24.9-3.1-49.8-11-73.5c-0.5-1.6-2.1-2.5-3.7-2.1c-2.4,0.4-4.8,0.9-7.2,1.2l3.8,2.9c0.4-8.8-2-17.6-7-24.9
	c-1.6-2.2-5.7-1.7-5.6,1.5c0.4,10-4.5,19.5-10.5,27.2c-1.6,2-0.6,5,2.1,5.1h0.7l-0.8-5.9c-3.6,0.9-5.1,5-8.3,6.8
	c-4.1,2.3-9,0.9-13.4,1.9c-3.4,0.8-6.2,5.2-8.7,7.6c-3.7,3.6-7.4,7.1-11.3,10.5c-15.3,13-32.1,23.9-50.2,32.5
	c-1.6,0.8-1.7,2.7-1.1,4.1s1.3,3,1.9,4.5l1.8-4.4c-4,1.4-10.3,2.8-12.1,6.9c-0.8,1.5-0.2,3.3,1.2,4.1c0.7,0.4,1.4,0.5,2.1,0.3
	c1.4-0.3,2.8-0.2,4.2,0.3c1.3,1.8,2.3,2.1,2.8,0.8c0.8-0.8,0.4-1.1-1-1c-0.9-0.3-1.9-0.7-2.8-1.1c-2.8-1.2-5,3.1-2.9,5
	c0.7,0.7,4.9,6.2,5.3,6.2l1.7-2l-1.3-0.9c-1.1-1.2-3.1-2.5-4.4-3.7c-2-2-6,0-5,2.9c1.5,4.2-0.1,8.4-4.6,9.6
	c-5.2,1.4-6.4-2.6-8.9-6.3c-1.9-2.9-4.8-6.3-6-9.5c-1.4-3.6,0-4,2.3-6.4c3.4-3.3,6.9-6.4,10.5-9.5c0.9-0.7,9.6-8.9,10.4-8.4
	c1.2,0.7,2.7,0.5,3.6-0.5c13.5-12.8,25.3-27.4,35.1-43.2c0.8-1.4,0.4-3.3-1.1-4.1c-0.2-0.1-0.5-0.2-0.7-0.3c-2.9-1-5.7-2.3-8.4-3.9
	l1.1,4.1c7.6-12.8,15.5-25.6,21.3-39.3c3.4-8.2,5.5-16.7,7.8-25.3c0.4-1.6-0.5-3.2-2.1-3.7c-4.1-1.6-8.1-3.3-12.1-5.3
	c-4.3-2.1-7.2-4.5-5.8-9.7s3.7-10.4,5.6-15.5c5.3-14.2,10.5-28.4,14.9-42.8c0.3-1.3-0.2-2.7-1.4-3.4c-6.3-3.5-12.4-7.3-18.3-11.5
	c-1.6-1.2-3.9,0.1-4.4,1.8l-0.2,0.6l5.9,0.8c0-4.3-6.3-6.9-9.1-9.3c-4.8-4-9.4-8.4-13.6-13.1c-8.1-9.5-15.1-19.9-20.7-31
	c-8.6-16.6-14.5-34.4-17.5-52.8c-0.3-2.1-0.3-4.5-1.5-6.3c-0.8-1.2-1.9-1.9-2.6-3.3l-0.6-1.6c-0.3-2.1-1-1.6-1.9,1.6
	c1.7,1.7,5.3,0.6,5.1-2.1c-0.2-1.8-0.3-3.6-0.4-5.4c0.1-2.9,1.6-4.1,3.2-1.2c1.6,2.8,1.8,6.8,3,9.8c2.6,6.6,6.2,12.7,10.6,18.2
	c10.1,12.9,23.6,22.4,36.9,31.6c2.4,1.7,5.8-1.7,4.1-4.1c-1.4-1.9-2.4-4.5,0.6-5.6c1.2-0.4,3.3,0.3,4.7,0.2c2.9,0,5.9-0.6,8.6-1.7
	c5.7-2.2,9.6-6.4,13.6-10.9c2.3-2.6,4.6-5.2,7.6-6.9c3.3-1.9,6.5-1.8,10.2-1.6c7,0.5,13.7,3.1,19.3,7.3c1.7,1.3,4.8-0.4,4.5-2.6
	c-1.5-12.2-3.9-24.3-9-35.6c-2.4-5.5-5.6-10.7-9.4-15.3c-1.7-2.1-5.7-4.8-6.7-7.2c-2.3-5.6,5.9,0.1,7.3,1.1c2.3,1.6,5-1,4.4-3.4
	c-3.2-0.7-3.9-0.3-2.1,1.1c1,1,1.7,2.3,2.2,3.6c0.5,1.3,0.2,1.6,1,2.7c1.9,2.7,6.3,5,8.8,7.2c5.7,5,11.1,10.4,16.2,16.1
	c9.9,11.3,18.3,23.7,25,37.2c15,29.9,16.4,62.8,11.9,95.5C274.3,299.2,280,300.8,280.6,297z"/>
<path class="st0" d="M50.4,184.5c0,0.5,0.1,1,0.3,1.4c1.9,5,6.2,4.1,9.8,3.2l226.7-58.6c1.1-0.2,2.1-0.7,3-1.4
	c0.7-1,0.9-2.3,0.6-3.5c-0.6-4.4-1.3-9.5-2.1-15L48.4,163.5L50.4,184.5z"/>
<path class="st0" d="M274.2,13.2c-0.1-0.8-0.3-1.7-0.6-2.4C271.4,6,266,7,261.7,8.2C189,28.6,111.3,39.2,38.6,59.5l1.8,19.2
	l235.7-51.9C275.4,21.9,274.7,17.3,274.2,13.2z"/>
<path class="st4" d="M40.4,78.7l8,84.8l240.2-52.9c-3.6-25-9-59.1-12.6-83.8L40.4,78.7z"/>
<path d="M38.9,78.7l8,84.8c0,0.8,0.7,1.5,1.6,1.5c0.1,0,0.2,0,0.3,0L289,112.1c0.8-0.2,1.2-1.1,1-1.8c-4.1-28-8.5-55.9-12.6-83.8
	c-0.2-0.8-1-1.3-1.8-1L40,77.3c-1.9,0.4-1.1,3.3,0.8,2.9l235.7-51.9l-1.9-1c4,28,8.5,55.9,12.6,83.8l1-1.8L48,162.1l1.9,1.4l-8-84.8
	C41.7,76.8,38.7,76.8,38.9,78.7z"/>
<path d="M35,59.8l7.4,78.6l3.9,41.1c0.3,3.2,0.2,7.1,2.1,9.9c2.6,3.8,6.6,4.4,10.8,3.7c8.7-1.5,17.3-4.4,25.8-6.6l105.2-27.2
	l53.7-13.9l25.7-6.6l11.7-3c3.4-0.9,8-1.2,10.8-3.6c3.5-3.1,2.1-8,1.5-12c-0.9-6.1-1.8-12.2-2.7-18.4c-2-13.6-4.1-27.2-6.2-40.8
	c-1.9-12.4-3.8-24.7-5.5-37.1c-1.4-9.7-1.6-22.2-14.9-20c-8.8,1.4-17.5,4.6-26.1,6.8c-8.9,2.2-17.9,4.3-26.9,6.4
	c-19.6,4.5-39.3,8.6-59,12.6c-38.5,7.9-77.1,15.8-115,26.4c-4.5,1.3-2.2,8.2,2.4,6.9c62.5-17.4,126.7-27.5,189.8-42.7
	c7.5-1.8,14.9-3.7,22.3-5.6c3.7-1,7.3-2.1,11.1-3c4.4-1.1,7.2-1,8,4.3c1.5,10.7,3.1,21.4,4.7,32.1c3.6,23.7,7.3,47.4,10.6,71.1
	c0.2,1.5,1.4,5.2,0.9,6.6c-0.8,2.4-8.1,3-10.5,3.6l-25.7,6.6l-49.1,12.7l-98.2,25.4l-23.4,6l-11.7,3c-3.3,0.9-8,3.2-11.3,2.8
	c-4.1-0.5-3.4-3.6-3.7-6.9L50,141.4l-7.8-82.1C41.8,54.7,34.5,55.1,35,59.8L35,59.8z"/>
<path d="M161.8,47.5c37.3-7.4,74.2-16.7,110.6-27.7c2.3-0.7,1.1-4.1-1.2-3.5c-36.4,11.1-73.3,20.3-110.6,27.7
	C158.3,44.5,159.5,48,161.8,47.5L161.8,47.5z"/>
<path class="st0" d="M245,69c-0.1-0.5,2-1.1,2.4-1.2c0.7-0.2,1.5-0.3,2.3-0.2c0.4,0.3,0.8,2.3,0.9,2.8c0.3,0.8,0.7,1.7,1.1,2.5
	c1.8,4.6,1.1,3.5,3.8,6.9c2.1,2.2,4.5,4.1,7.1,5.7c0.6,0.2,3.5,0.8,3.6,1.2s-0.3,0.6-0.4,0.7c-0.4,0.5-1.6,3.3-1.9,3.3
	c-0.9-0.2-1.8-0.6-2.7-1c-1-0.4-2-1-3-1.5c-0.3-0.2-4.9-3.9-5-4.1c-0.5-0.8-1.9-3.1-2.3-3.6c-0.3,0.7-0.5,1.5-0.7,2.3
	c-0.3,1-0.7,1.9-1,2.9c-1.3,3.7-0.7,4.7-3.5,7.4c-0.3,0.3-1.2,1.4-1.6,1.5c-0.1,0-0.3,0-0.4,0c-0.9-0.3-1.6-1.1-2.6-1.3
	c-0.2,0-0.4-0.1-0.5-0.2c-0.1,0-0.1-0.1-0.1-0.2c-0.1-0.2,0.2-0.4,0.3-0.6c1.5-1.8,2.4-2.6,3.5-4.9c1.5-3.3,2.3-6.9,2.3-10.6
	c0.1-0.8,0.1-1.5,0.1-2.3c-0.2-0.8-0.6-1.4-0.8-2.2L245,69z"/>
</svg>
