<?xml version="1.0" encoding="utf-8"?>
<!-- Generator: Adobe Illustrator 22.1.0, SVG Export Plug-In . SVG Version: 6.00 Build 0)  -->
<svg version="1.1" id="圖層_1" xmlns="http://www.w3.org/2000/svg" xmlns:xlink="http://www.w3.org/1999/xlink" x="0px" y="0px"
	 viewBox="0 0 330 550" style="enable-background:new 0 0 330 550;" xml:space="preserve">
<style type="text/css">
	.st0{fill:#F15A24;}
	.st1{fill:#F88334;}
	.st2{fill:#FFFFFF;}
	.st3{fill:#FFBC18;}
</style>
<title>board-10</title>
<path class="st0" d="M31.1,75.2c3.4,67.9,6.8,279.3,10.2,347.2L167.8,474c-2.7-81.5-1.8-280.4-2.9-363.1c-44.6-9-90.3-25-133.7-34.7
	"/>
<path d="M29.6,75.2c2.1,42.6,2.9,85.3,4,127.9c1.3,52.2,2.5,104.5,4,156.7c0.6,20.9,1.2,41.8,2.2,62.6c0,0.7,0.5,1.2,1.1,1.5
	l126.4,51.5c0.8,0.2,1.6-0.3,1.8-1.1c0-0.1,0.1-0.3,0.1-0.4c-1.5-44.9-1.6-89.9-1.9-134.9c-0.3-53-0.3-106-0.5-159
	c-0.1-23.1-0.2-46.2-0.5-69.3c0-0.7-0.5-1.3-1.1-1.4c-45.2-9.2-88.8-24.5-133.7-34.7c-1.9-0.4-2.7,2.5-0.8,2.9
	c44.9,10.2,88.5,25.5,133.7,34.7l-1.1-1.4c0.6,45.3,0.5,90.5,0.7,135.8c0.1,52.9,0.3,105.8,0.9,158.7c0.3,22.9,0.6,45.7,1.3,68.6
	l1.9-1.4L41.7,421l1.1,1.4c-2.1-42.6-2.9-85.3-4-127.9c-1.3-52.2-2.5-104.5-4-156.7c-0.6-20.9-1.2-41.8-2.2-62.7
	C32.4,73.3,29.4,73.3,29.6,75.2L29.6,75.2z"/>
<path class="st1" d="M144.9,304.8c-10.5-3.2-21.3-12.5-25.2-22.7c-3.8-10.4-2.6-22,3.2-31.5c2.3-3.9,5.7-7.1,9.7-9.3
	c4.1-2.1,8.9-2.4,13.1-0.6c0,0-1.2-90.9-1.5-112.8c-30.5-6.2-61.8-17.1-91.4-23.8l0.5,14c2.3,46.4,4.1,239.1,6.4,285.5l86.5,35.2
	C145.4,414,144.9,304.8,144.9,304.8z"/>
<path d="M145.3,303.3c-13.9-4.6-25.3-16.7-26.2-31.6c-0.8-13.4,9.2-36.1,26.3-29.6c0.8,0.2,1.6-0.3,1.8-1.1c0-0.1,0-0.2,0.1-0.4
	c-0.4-29.9-0.8-59.8-1.2-89.7l-0.3-23.2c0-0.7-0.5-1.3-1.1-1.4c-30.9-6.3-60.7-16.8-91.4-23.8c-0.8-0.2-1.6,0.3-1.9,1.1
	c0,0.1,0,0.2,0,0.4c1.1,34,2,68,2.7,102.1c0.9,47.9,1.6,95.8,2.6,143.7c0.4,17.9,0.7,35.9,1.6,53.8c0,0.7,0.5,1.2,1.1,1.5l86.5,35.2
	c0.8,0.2,1.6-0.3,1.8-1.1c0-0.1,0.1-0.3,0.1-0.4c-1.3-40.1-1-80.2-1.3-120.3c0-4.6,0-9.2-0.1-13.7c0-0.8-0.7-1.5-1.5-1.5
	s-1.5,0.7-1.5,1.5c0.2,35.9,0.4,71.7,0.8,107.5c0.1,8.8,0.2,17.7,0.5,26.5l1.9-1.5l-86.5-35.2l1.1,1.5c-1.9-38.1-2-76.3-2.7-114.4
	c-0.8-46.2-1.4-92.4-2.6-138.6c-0.4-15.5-1-31.1-1.5-46.6l-1.9,1.4c30.7,7,60.6,17.4,91.4,23.8l-1.1-1.4
	c0.4,33.7,0.9,67.4,1.3,101.1c0,3.9,0.1,7.8,0.2,11.8l1.9-1.4c-17.6-6.8-29.6,14.5-30.1,29.2c-0.6,17.7,12.1,32.5,28.4,37.8
	C146.3,306.8,147.1,303.9,145.3,303.3z"/>
<path class="st2" d="M40.8,411c0.2,4.2,0.3,8,0.5,11.5L167.8,474c-0.1-2.8-0.2-5.7-0.3-8.8C125.1,447.6,82.8,429.6,40.8,411z"/>
<path d="M39.3,411c0.2,3.8,0.3,7.6,0.5,11.5c0,0.7,0.5,1.2,1.1,1.5l126.5,51.5c0.8,0.2,1.6-0.3,1.8-1.1c0-0.1,0.1-0.3,0.1-0.4
	c-0.1-2.9-0.2-5.8-0.3-8.8c0-0.7-0.5-1.3-1.1-1.5c-42.3-17.5-84.5-35.6-126.4-54.1c-1.8-0.8-3.3,1.8-1.5,2.6
	c42.2,18.6,84.6,36.7,127.1,54.4l-1.1-1.4c0.1,2.9,0.2,5.8,0.3,8.8l1.9-1.4L41.7,421l1.1,1.4c-0.2-3.8-0.3-7.6-0.5-11.5
	C42.2,409.1,39.2,409.1,39.3,411z"/>
<path d="M147.2,240.7c-0.1-37.6-1-75.2-1.5-112.8c0-0.7-0.5-1.3-1.1-1.4c-30.9-6.3-60.7-16.8-91.4-23.8c-1.9-0.4-2.7,2.5-0.8,2.9
	c30.7,7,60.5,17.4,91.4,23.8l-1.1-1.4c0.5,37.6,1.4,75.2,1.5,112.9c0,0.8,0.7,1.5,1.5,1.5S147.2,241.5,147.2,240.7L147.2,240.7z"/>
<path d="M51.2,103.4c1.8,36.3,2,72.6,2.7,108.9c0.9,46.9,1.6,93.7,2.7,140.6c0.4,16.9,0.7,33.8,1.5,50.7c0,0.7,0.5,1.2,1.1,1.5
	l86.5,35.2c0.8,0.2,1.6-0.3,1.8-1.1c0-0.1,0.1-0.3,0.1-0.4c-1.5-44.8-1.2-89.7-1.3-134.5c0-0.8-0.7-1.5-1.5-1.5s-1.5,0.7-1.5,1.5
	c0.1,44.8-0.1,89.7,1.3,134.5l1.9-1.5l-86.5-35.2l1.1,1.5c-1.8-36.3-2-72.6-2.7-108.9c-0.9-46.9-1.6-93.7-2.7-140.6
	c-0.4-16.9-0.7-33.8-1.5-50.7C54.1,101.5,51.1,101.5,51.2,103.4L51.2,103.4z"/>
<path class="st0" d="M298.8,75.2c-3.4,67.9-6.8,279.3-10.2,347.2c-42.2,17.2-78.6,34.2-120.8,51.4c2.7-81.5-3.9-280.3-2.9-363
	c44.6-9,90.3-25,133.7-34.7"/>
<path d="M297.3,75.2c-2.1,42.6-2.9,85.3-4,127.9c-1.3,52.2-2.5,104.5-4,156.7c-0.6,20.9-1.2,41.8-2.2,62.6l1.1-1.4
	c-40.5,16.5-80.3,34.8-120.8,51.4l1.9,1.4c1.5-44.9,0.6-89.9-0.1-134.9c-0.8-53-1.9-105.9-2.5-158.9c-0.3-23.1-0.5-46.2-0.3-69.2
	l-1.1,1.4c45.2-9.2,88.8-24.5,133.7-34.7c1.9-0.4,1.1-3.3-0.8-2.9c-44.9,10.2-88.5,25.5-133.7,34.7c-0.6,0.2-1.1,0.8-1.1,1.4
	c-0.6,45.2,0.5,90.5,1.3,135.7c0.9,52.9,2,105.8,2.2,158.6c0.1,22.9,0.1,45.7-0.6,68.6c0,0.8,0.7,1.5,1.5,1.5c0.1,0,0.3,0,0.4-0.1
	c40.5-16.5,80.3-34.8,120.8-51.4c0.6-0.2,1.1-0.8,1.1-1.5c2.1-42.6,2.9-85.3,4-127.9c1.3-52.2,2.5-104.5,4-156.7
	c0.6-20.9,1.2-41.8,2.2-62.7C300.4,73.3,297.4,73.3,297.3,75.2L297.3,75.2z"/>
<path class="st2" d="M31.1,75.2c36.1-34.6,87.1-58.8,137.1-58.9s94.4,24.5,130.6,58.9L165,110.9L31.1,75.2z"/>
<path d="M32.2,76.3c28.3-27,64.1-46.9,102.6-54.9c38.1-7.9,76.7-1.6,110.9,16.7c19.1,10.2,36.4,23.4,52.1,38.3l0.7-2.5L181.3,105
	c-5.3,1.4-11,3.6-16.5,4.4c-0.9,0.1,1,0.1,0.3,0c-0.7-0.1-1.3-0.3-2-0.5l-8.4-2.2L86,88.3L31.5,73.8c-0.8-0.2-1.6,0.3-1.8,1.1
	c-0.2,0.8,0.3,1.5,1,1.7L148.5,108c5,1.3,10.8,3.9,15.9,4.3c3.5,0.2,7.7-1.8,11-2.7l68.4-18.2l55.4-14.7c0.8-0.2,1.3-1.1,1-1.9
	c-0.1-0.2-0.2-0.4-0.4-0.6c-28.1-26.6-62-48.4-100.3-56.2c-38.8-7.9-79,0.1-114.2,17.4C65.1,45.5,46.4,58.5,30,74.2
	C28.6,75.5,30.8,77.6,32.2,76.3z"/>
<path d="M146.1,239.2c-17.2-6.6-29.2,13.9-30,28.4c-1,17.1,10.3,32.3,26.4,37.6c1.8,0.6,2.6-2.3,0.8-2.9
	c-13.9-4.4-23.5-16.9-24.3-31.4c-0.5-13.3,9.7-35.2,26.3-28.8C147.1,242.8,147.9,239.9,146.1,239.2L146.1,239.2z"/>
<path d="M147.6,255.3c-0.7,10.8-0.6,21.6,0.2,32.5l-11.2-5.8l1.4-28.3C140.8,254.4,144.8,254.6,147.6,255.3"/>
<path d="M146.1,255.3c-0.6,10.8-0.6,21.6,0.2,32.5l2.3-1.3c-2.6-1.4-5.5-2.5-8-4.1c-3.3-2.1-2.2-5.1-2.1-8.8l1-19.8l-1.9,1.4
	c3.2,0.7,6.5,0.9,9.7,1.6c1.9,0.4,2.7-2.5,0.8-2.9c-3.2-0.7-6.5-0.9-9.7-1.6c-0.8-0.2-1.6,0.3-1.9,1.1c0,0.1,0,0.2,0,0.3l-1.4,28.2
	c0,0.5,0.3,1,0.7,1.3L147,289c0.7,0.4,1.6,0.2,2.1-0.6c0.1-0.2,0.2-0.5,0.2-0.7c-0.7-10.8-0.8-21.6-0.2-32.4
	C149.2,253.3,146.2,253.3,146.1,255.3L146.1,255.3z"/>
<path d="M58.2,252.9c18.9,7.4,38.3,13.6,57.9,18.8c0.8,0.2,1.6-0.3,1.8-1.1c0.2-0.8-0.3-1.6-1-1.8c-19.7-5.2-39-11.5-57.9-18.9
	C57.2,249.3,56.4,252.2,58.2,252.9L58.2,252.9z"/>
<path d="M101.5,119.6l23.7,126.5c0.3,1.8,2.8,1.1,3-0.4l0.3-2.7c0.2-1.9-2.8-1.9-3,0l-0.3,2.7l2.9-0.4l-23.7-126.5
	C104.1,116.9,101.2,117.7,101.5,119.6L101.5,119.6z"/>
<path d="M52.8,129.1c23.4,40,45.7,80.5,69.1,120.5c0.4,0.7,1.3,1,2.1,0.5c0.7-0.4,1-1.3,0.5-2.1c-23.4-40-45.7-80.5-69.1-120.5
	c-0.4-0.7-1.4-0.9-2.1-0.5C52.6,127.6,52.4,128.4,52.8,129.1z"/>
<path d="M55.6,209.3c20.2,18.1,41.2,35.2,62.1,52.3c1.5,1.2,3.6-0.9,2.1-2.1c-21-17.1-42-34.3-62.1-52.3
	C56.3,205.9,54.1,208,55.6,209.3L55.6,209.3z"/>
<path d="M56.8,263.9c19.8,7.5,40.1,13.7,60.6,18.8c1.9,0.5,2.7-2.4,0.8-2.9c-20.6-5.1-40.8-11.4-60.6-18.8
	C55.8,260.3,55,263.2,56.8,263.9L56.8,263.9z"/>
<path class="st2" d="M167.8,473.8c42.2-17.2,78.7-34.2,120.8-51.4c0.2-4.5,0.5-9.6,0.7-15.2c-39.6,20.6-80,39.5-121.2,56.7
	C168,467.5,167.9,470.8,167.8,473.8z"/>
<path d="M168.2,475.3c40.5-16.5,80.3-34.8,120.8-51.4c0.6-0.2,1.1-0.8,1.1-1.5c0.3-5.1,0.5-10.1,0.7-15.2c0-0.8-0.7-1.5-1.5-1.5
	c-0.3,0-0.5,0.1-0.7,0.2c-39.5,20.5-79.8,39.4-120.9,56.6c-0.6,0.2-1.1,0.8-1.1,1.4c-0.1,3.3-0.2,6.5-0.3,9.8c-0.1,1.9,2.9,1.9,3,0
	c0.1-3.3,0.2-6.5,0.3-9.8l-1.1,1.5c41.3-17.3,81.8-36.3,121.6-56.9l-2.3-1.3c-0.2,5.1-0.4,10.1-0.7,15.2l1.1-1.4
	c-40.5,16.5-80.3,34.8-120.8,51.4C165.6,473.1,166.4,476,168.2,475.3z"/>
<path class="st3" d="M175.6,109.9c5.4,125,2.6,231.5,3.8,358.5l-11.6,5.4l-2.9-363L175.6,109.9z"/>
<path d="M174.1,109.9c4.4,101.9,3.2,203.8,3.5,305.8c0,14.9,0.1,29.9,0.2,44.8c-0.1,1.3-0.1,2.7,0,4c0-0.1,0.3,3,0.5,2.8
	c-0.6,0.7-2.9,1.3-3.8,1.7l-7.5,3.5l2.3,1.3l-0.3-36.2l-0.7-86.4l-0.8-105l-0.7-90.8l-0.2-29.8l-0.1-9.3c0-1.1,0.5-4,0-5
	c0-0.2,0-0.4,0-0.6l-1.5,1.5l10.6-0.9c1.9-0.2,1.9-3.2,0-3l-10.6,0.9c-0.8,0-1.5,0.7-1.5,1.5l0.3,36.2l0.7,86.3l0.8,105l0.7,90.8
	l0.2,29.8c0,4.5-0.7,9.8,0.1,14.3c0,0.2,0,0.4,0,0.6c0,0.8,0.7,1.5,1.5,1.5c0.2,0,0.5-0.1,0.7-0.2l11.6-5.4c0.5-0.3,0.8-0.8,0.8-1.3
	c-0.9-92.8,0.6-185.6-1.3-278.3c-0.5-26.7-1.4-53.5-2.5-80.2C177,108,174,108,174.1,109.9z"/>
<path d="M58,307.3c19.7-8.1,39.7-15.4,60-21.8c1.8-0.6,1-3.5-0.8-2.9c-20.3,6.5-40.3,13.7-60,21.8C55.5,305.1,56.2,308,58,307.3
	L58,307.3z"/>
<path d="M58.5,354.6c19.5-23.7,41-45.7,64.2-65.9c1.4-1.3-0.7-3.4-2.1-2.1c-23.1,20.2-44.6,42.2-64.2,65.9
	C55.2,354,57.3,356.1,58.5,354.6z"/>
<path d="M63.4,402.6c25.1-33.3,51.6-65.4,79.5-96.4c1.3-1.4-0.8-3.6-2.1-2.1c-28,31.2-54.7,63.5-80,97
	C59.6,402.6,62.2,404.1,63.4,402.6L63.4,402.6z"/>
<path d="M103,419.9c13-37.3,24-75.3,40.4-111.4c0.8-1.8-1.8-3.3-2.6-1.5c-16.4,36.3-27.5,74.6-40.7,112.1
	C99.5,420.9,102.4,421.7,103,419.9z"/>
<polygon class="st3" points="40.5,69.1 177,107.4 164.9,110.9 31.1,75.2 "/>
<path d="M40.1,70.6l119.5,33.5l17,4.8V106l-7.5,2.1c-1.3,0.4-2.5,0.8-3.8,1.1s0.1,0.2-0.1,0.2c-1.8-0.1-3.9-1-5.6-1.5l-29.5-7.9
	L51,79l-19.5-5.2l0.4,2.7l9.4-6.1c1.6-1,0.1-3.7-1.5-2.6L30.4,74c-0.7,0.4-0.9,1.4-0.5,2.1c0.2,0.3,0.5,0.5,0.8,0.6l126.8,33.7
	c2.1,0.6,4.7,1.7,6.9,1.8c4,0.3,9.1-2.3,13.1-3.4c0.8-0.2,1.2-1.1,1-1.9c-0.1-0.5-0.5-0.9-1-1L57.9,72.5l-17-4.8
	c-0.8-0.2-1.6,0.4-1.8,1.2C39,69.6,39.4,70.3,40.1,70.6z"/>
<path class="st2" d="M66.3,119l-1.5,60c-0.2,7-0.1,14.8,4.7,20c2.8,3.1,6.8,4.7,10.7,6.2l53,20.6c0.3-22.7,0.2-52,0.5-74.7
	c0.1-4.6,0-9.5-2.4-13.4c-2.8-4.6-8.2-6.8-13.2-8.5C100.1,123,85.2,120.7,66.3,119"/>
<path d="M64.8,119l-1.1,42.6c-0.2,6.6-0.4,13.1-0.5,19.7c0,4.8,0.2,9.7,2.2,14.1c4.4,10,18,12.6,27.2,16.2l40.2,15.6
	c0.8,0.2,1.6-0.3,1.8-1.1c0-0.1,0.1-0.3,0.1-0.4c0.2-14.2,0.2-28.4,0.3-42.7c0-7.2,0-14.4,0.1-21.6c0-6.1,0.7-12.5-0.3-18.6
	c-2.2-12.5-16.3-15.6-26.7-18.6c-13.7-3.8-27.7-5.7-41.7-7c-1.9-0.2-1.9,2.8,0,3c13.2,1.2,26.4,2.9,39.2,6.4
	c6.2,1.7,13,3.3,18.6,6.4c7.1,3.9,8.1,10.4,8,17.8c-0.2,24.9-0.2,49.8-0.5,74.7l1.9-1.4l-34.7-13.5c-6.1-2.4-12.2-4.7-18.3-7.1
	c-6.2-2.5-11.5-5.4-13.4-12.3c-1.4-5.3-1-11-0.8-16.4l0.5-18.4l1-37.8C67.8,117,64.8,117,64.8,119L64.8,119z"/>
<path d="M87.4,149.1c-1.9,0.2-4.1,0.7-4.3,2.7c0,1.3,0.4,2.6,1.1,3.7c2,3.1,6,4.9,8.2,3.6s2.2-5.4-0.3-8.2s-6.6-3.1-7.6-0.5"/>
<path d="M87.4,147.6c-2,0.2-4.2,0.6-5.3,2.5c-1.2,2-0.2,4.6,1,6.4c2,3,6.9,6.1,10.5,3.7s2.1-7.7-0.3-10.3s-8-4.3-9.9-0.2
	c-0.8,1.7,1.8,3.3,2.6,1.5c1-2.1,3.9-0.6,5,0.6s2.6,4.3,1.1,5.8s-4.2-0.4-5.3-1.4s-2.2-2.4-2.2-3.8s1.7-1.7,2.8-1.8
	C89.3,150.4,89.3,147.4,87.4,147.6L87.4,147.6z"/>
<path d="M84.6,161.9c-4.5,4.2-8.1,9.2-10.6,14.8l13.4,6c1,0.5,2.3,0.9,2.9,0.3c0.5-0.5,0.4-1.4,0.3-2.2l-1.8-14.6
	c-0.1-1.2-0.4-2.3-1-3.3c-0.7-1-2.1-1.8-2.8-1.3"/>
<path d="M83.5,160.8c-4.5,4.3-8.1,9.5-10.8,15.2c-0.4,0.7-0.2,1.6,0.5,2.1c4.7,2.1,9.8,5.4,14.8,6.6c3.4,0.8,4.2-1.6,3.9-4.5
	c-0.5-5.1-0.7-10.9-2.1-15.8c-0.7-2.4-2.6-4.8-5.3-4c-1.8,0.5-1.1,3.4,0.8,2.9s2.5,8.6,2.7,9.6c0.2,1.4,1.7,6.8,1,8.1
	s-1,0.5-2.4-0.1l-3.7-1.7l-8.2-3.7l0.5,2c2.5-5.4,6-10.3,10.3-14.4C87,161.7,84.9,159.5,83.5,160.8L83.5,160.8z"/>
<path d="M111.2,157.1c-1.8,0.4-3.8,1.2-3.9,3.3c0.1,1.3,0.6,2.6,1.4,3.6c2.3,3,6.3,4.4,8.3,2.9s1.6-5.8-1-8.4s-6.7-2.5-7.3,0.3"/>
<path d="M110.8,155.7c-1.9,0.4-3.9,1.3-4.7,3.2c-0.8,2.1,0.2,4.5,1.6,6.2c2.2,2.8,7.1,5.6,10.4,2.9s1.5-8-1-10.5
	c-2.8-2.8-8.4-3.6-9.8,0.9c-0.6,1.8,2.3,2.6,2.9,0.8c0.8-2.5,4.5-0.1,5.4,1.1s2.3,4.5,0.4,5.6c-1.7,1-4.3-0.8-5.4-2
	c-0.8-0.8-1.9-2.3-1.7-3.4s1.7-1.6,2.8-1.8C113.5,158.2,112.7,155.3,110.8,155.7L110.8,155.7z"/>
<path d="M113.6,192.4c3.8-5,6.6-10.7,8.2-16.8l-13.4-4.5c-1-0.3-2.3-0.6-2.8,0.1c-0.3,0.7-0.3,1.6,0,2.3l3.4,14.8
	c0.2,1.2,0.7,2.3,1.3,3.3c0.8,1,2.2,1.6,2.8,0.9"/>
<path d="M114.9,193.2c3.8-5.2,6.6-11,8.4-17.1c0.2-0.8-0.2-1.6-1-1.9l-9-3c-1.8-0.6-4-1.7-5.9-1.8c-3.6-0.3-3.6,2.6-3,5.4
	c1.1,5.2,1.8,11.7,4.1,16.4c1,2.2,3.2,3.9,5.5,2.7c1.7-0.8,0.2-3.4-1.5-2.6c-1.3,0.6-2.9-7.5-3.1-8.3c-0.6-2.4-2.5-6.7-2.1-9.1
	c0.3-1.6,0.3-1.3,2.3-0.8c1.3,0.3,2.5,0.8,3.7,1.2l8.2,2.7l-1.1-1.8c-1.7,5.9-4.4,11.5-8.1,16.4
	C111.1,193.2,113.7,194.7,114.9,193.2L114.9,193.2z"/>
<path d="M100.2,153.6c-0.6,11.8-1.5,23.6-2.6,35.3c-0.2,1.9,2.8,1.9,3,0c1.2-11.7,2-23.5,2.6-35.3
	C103.3,151.7,100.3,151.7,100.2,153.6z"/>
<path d="M263,148.6c-20,72.8-37.9,146.1-53.6,220c-0.4,1.9,2.5,2.7,2.9,0.8c15.7-73.9,33.5-147.2,53.6-220c0.2-0.8-0.4-1.6-1.2-1.8
	C264,147.5,263.3,147.9,263,148.6L263,148.6z"/>
<path d="M252.8,263.4l-18.2,52.7c-0.6,1.8,2.3,2.6,2.9,0.8l18.2-52.7C256.4,262.4,253.4,261.6,252.8,263.4z"/>
<path class="st2" d="M141.7,259.5c-0.4,6.8-1.1,13.6-2,20.3c-0.2,1.9,2.8,1.9,3,0c0.9-6.8,1.5-13.5,2-20.3
	C144.8,257.6,141.8,257.6,141.7,259.5z"/>
<path d="M300.9,73.1c-23-21.8-49.6-40.2-79.7-50.7c-30.4-10.6-62.9-11.6-94.1-3.9c-31.5,7.7-61.1,23.3-86,43.9
	c-3.1,2.6-6.2,5.3-9.2,8c-2.3,2.1-3.7,3-3.8,6.1c-0.1,2.6,0.3,5.3,0.4,8c0.3,6.7,0.6,13.5,0.8,20.2c1.5,39.9,2.6,79.9,3.7,119.8
	c1.2,42.8,2.4,85.6,3.5,128.4c0.4,15.4,0.8,30.8,1.2,46.3c0.2,7.4-0.1,15.1,0.6,22.5c0,0.3,0,0.6,0,0.9c0,1.3,0.9,2.5,2.2,2.9
	L167,476.9c1.3,0.4,2.7-0.2,3.4-1.4c0.3-0.7,0.5-1.6,0.4-2.4h-6c0,0.2,0,0.5,0,0.7c0,1.7,1.3,3,3,3l0,0l-3-3l0,0
	c0,1.8,1.9,3.6,3.8,2.9c28.3-11.5,56.2-24,84.3-36c7.3-3.2,14.7-6.3,22.1-9.4c3.6-1.5,7.2-3,10.8-4.5c1.7-0.7,4.4-1.1,5.4-2.9
	c0.6-1.1,0.5-2.8,0.5-4c0.5-18.1,0.9-36.2,1.4-54.3c1.8-68.7,3.7-137.3,5.7-206c0.9-28.2,1.6-56.3,3-84.5c0.2-3.9-5.8-3.8-6,0
	c-2.9,58.4-4.1,116.9-5.7,175.3c-1.5,54.9-3,109.8-4.3,164.8c0,2.1-0.3,4.3-0.2,6.4c0.2,2.3-0.2-2.1,0.4-1.3c-0.6-0.8-21.5,9-24,10
	c-31.7,13.5-63.1,27.6-95,40.6l3.8,2.9l0,0c0-1.7-1.3-3-3-3l0,0l3,3c0-0.2,0-0.5,0-0.7c-0.1-3.9-6.1-3.9-6,0c0,0.9,0.1,0.7,0.4-0.7
	l3.4-1.4L42.1,419.6l2.2,2.9c0-18-0.9-36-1.3-53.9c-1-40.2-2.1-80.3-3.2-120.5c-1.1-41.1-2.4-82.2-3.7-123.3
	c-0.5-14.3-1-28.6-1.6-42.9c-0.1-1.2-0.1-2.5-0.2-3.7c-0.1-2.8-0.1-1.7,1.9-3.5c6.2-5.7,12.8-11.1,19.7-16.1
	C69,49,83.2,40.9,98.2,34.5c29.9-12.8,63.2-18.6,95.5-13c31.5,5.4,60.5,20.6,85.3,40.4c6.1,4.9,12,10.1,17.7,15.5
	C299.5,80,303.7,75.8,300.9,73.1z"/>
<path d="M70.8,127.9l56.7,15.8c0.8,0.2,1.6-0.3,1.8-1.1c0.2-0.8-0.3-1.6-1.1-1.8L71.6,125c-0.8-0.2-1.6,0.3-1.8,1.1
	C69.6,126.9,70.1,127.7,70.8,127.9L70.8,127.9z"/>
<path d="M73,195.1c17.1,6.4,34.4,12.2,51.9,17.4c1.8,0.6,2.6-2.3,0.8-2.9c-17.5-5.2-34.8-11-51.9-17.4C72,191.5,71.2,194.4,73,195.1
	z"/>
<path class="st2" d="M170.4,336.8c-16.6,60.2-30,136.5-46.6,196.7c6.3-2.1,13-2.8,19.6-1.8c10.3-57.8,26.6-128.8,43.2-185.1
	c0.6-2,1.1-4.4-0.2-6c-1-1.2-2.6-1.5-4.2-1.8L170.4,336.8"/>
<path d="M167.5,335.9c-15.3,55.5-24.8,112.4-37.5,168.4c-3.3,14.6-5.1,13.9-9.1,28.3c-0.6,2.1,1.4,4.4,3.6,3.7
	c6.1-2,12.5-2.6,18.9-1.7c1.3,0,2.5-0.9,2.9-2.1c10.9-61.5,21.9-107.6,38.3-167.9c1-3.6,2-7.2,3-10.8c0.9-3.3,2.5-6.9,2.6-10.4
	c0.1-9-12.6-8.5-18.9-9.6c-3.7-0.6-5.4,5.1-1.7,5.7s8.4,0.7,11.8,2c2.1,0.8,2.6,1.8,2.4,4.1c-0.4,1.7-0.9,3.5-1.5,5.1
	c-1.8,6.3-3.6,12.7-5.3,19c-3.7,14-7.1,28-10.5,42c-6.9,29.4-13.3,59-19.1,88.7c-3,15.1-4.2,15-6.9,30.2l2.9-2.2
	c-6.9-0.9-13.8-0.2-20.4,1.9l3.6,3.7c15.3-55.5,23.1-97.1,35.8-153.1c3.3-14.6,6.8-29.2,10.8-43.6
	C174.3,333.9,168.6,332.2,167.5,335.9L167.5,335.9z"/>
<path d="M175.6,339l-4.7,15.5c-0.2,0.8,0.3,1.6,1.1,1.8c0.8,0.2,1.5-0.2,1.8-1l4.7-15.5c0.2-0.8-0.3-1.6-1.1-1.8
	C176.6,337.8,175.8,338.3,175.6,339z"/>
<path d="M144.7,459.1c-4.5,28.9-7.4,42.6-13.7,71.2c-0.4,1.9,2.4,2.7,2.9,0.8c6.3-28.5,9.2-42.3,13.7-71.2
	C147.8,458.1,145,457.3,144.7,459.1L144.7,459.1z"/>
<path class="st2" d="M273.6,383.8c0.2-0.7,0.2-1.5,0.2-2.2c-0.4-4.6-5.2-5.3-9.2-5.5c-66.8-4-134.9-17.6-201.7-21.6l-4.1,16.9
	c71.2,6.3,142.3,13,213.3,20.1C272.6,388.7,273.1,386.1,273.6,383.8z"/>
<path class="st2" d="M36.6,462.4c-0.1,0.4-0.2,0.8-0.2,1.3c0.2,4.8,4,5.2,7.3,5.5l206.8,16.5c1,0.2,2,0.1,2.9-0.3
	c0.9-0.6,1.5-1.7,1.5-2.8c0.9-4.2,1.8-9.1,2.8-14.4c-72.5-7.2-145-14.1-217.6-20.4L36.6,462.4z"/>
<path d="M58.8,371.3l-18.6,76.6c72.6,6.4,145.1,13.2,217.6,20.4c4.5-23.4,10.1-55.4,14.4-76.9C201,384.3,129.9,377.6,58.8,371.3z"/>
<path d="M59.8,353.5l-16.5,68l-8.6,35.6c-0.7,2.8-1.9,6-1.1,8.9c1.1,3.9,4.2,5.6,8,6.2c7.7,1.2,15.8,1.3,23.6,2l95.9,7.6l49,3.9
	l23.4,1.9l10.7,0.9c3.1,0.3,7.1,1.3,10.1,0.1c3.8-1.5,4-6.1,4.7-9.6c1-5.3,2.1-10.7,3.1-16.1c2.3-12,4.4-24,6.6-36
	c2-10.9,4-21.8,6.1-32.6c1.6-8.5,5.1-19-6.6-21.1c-7.8-1.4-16-1.2-23.8-1.9c-8.1-0.7-16.3-1.5-24.4-2.4c-17.7-1.9-35.4-4.2-53.1-6.5
	c-34.6-4.5-69.1-9.1-103.9-11.2c-4.2-0.3-4.2,6.2,0,6.5c57.4,3.5,114.1,13.7,171.3,19.2c6.8,0.7,13.5,1.2,20.3,1.7
	c3.4,0.3,6.8,0.4,10.1,0.7c4,0.4,6.4,1.3,5.4,5.9c-1.9,9.4-3.6,18.8-5.4,28.2c-3.9,20.9-7.6,41.8-11.7,62.6
	c-0.3,1.3-0.3,4.8-1.2,5.8c-1.4,1.7-7.6,0.2-9.8,0l-23.4-1.8l-44.8-3.6l-89.5-7.2l-21.3-1.7l-10.7-0.9c-3-0.2-7.6,0.4-10.3-0.9
	c-3.3-1.6-1.8-4.1-1.1-6.9l7.9-32.6l17.3-71C67,351.3,60.8,349.5,59.8,353.5L59.8,353.5z"/>
<path d="M38.4,461.5c27.6,2.4,120.2,9.1,147.8,10.5c2.1,0.1,2.1-3.1,0-3.2c-27.7-1.5-120.2-8.1-147.8-10.6
	C36.3,458,36.3,461.3,38.4,461.5L38.4,461.5z"/>
<path d="M187.8,383c27.6,2.4,55.2,4.4,82.9,5.8c2.1,0.1,2.1-3.1,0-3.2c-27.7-1.4-55.3-3.4-82.9-5.8
	C185.7,379.6,185.7,382.8,187.8,383L187.8,383z"/>
<path d="M62.2,367.5c27.5,3.6,55,6.8,82.6,9.4c2.1,0.2,2.2-3,0.1-3.2c-27.6-2.7-55.1-5.8-82.6-9.4C60.3,364,60.1,367.3,62.2,367.5z"
	/>
<path class="st2" d="M232.6,423.6c0-0.4,2.1-0.3,2.5-0.3c0.7,0.1,1.4,0.2,2,0.5c0.3,0.3,0,2.3-0.1,2.7c0,0.8,0,1.7,0.1,2.5
	c0.2,4.6-0.2,3.4,1.1,7.3c1.2,2.6,2.6,5,4.4,7.3c0.4,0.4,2.9,1.9,2.8,2.1s-0.4,0.4-0.6,0.5c-0.9,0.8-1.8,1.6-2.7,2.4
	c-0.8-0.5-1.5-1.1-2.1-1.7c-0.8-0.7-1.5-1.5-2.1-2.3c-0.2-0.3-3.1-5-3.1-5.2c-0.2-0.8-0.6-3.4-0.9-3.9c-0.5,0.6-0.9,1.1-1.4,1.8
	c-0.6,0.7-1.2,1.5-1.8,2.2c-2.3,2.9-2.1,3.9-5.4,5.5c-0.6,0.4-1.2,0.6-1.9,0.8c-0.1,0-0.2-0.1-0.3-0.2c-0.7-0.6-1.1-1.5-1.9-2
	c-0.2-0.1-0.3-0.2-0.4-0.4c0-0.1,0-0.1,0-0.2c0-0.2,0.4-0.3,0.5-0.4c1.9-1.2,3-1.5,4.6-3.2c2.4-2.4,4.2-5.4,5.4-8.6
	c0.3-0.6,0.6-1.3,0.8-2c0.1-0.7-0.1-1.5,0-2.2L232.6,423.6z"/>
</svg>
