<?xml version="1.0" encoding="utf-8"?>
<!-- Generator: Adobe Illustrator 22.1.0, SVG Export Plug-In . SVG Version: 6.00 Build 0)  -->
<svg version="1.1" id="圖層_1" xmlns="http://www.w3.org/2000/svg" xmlns:xlink="http://www.w3.org/1999/xlink" x="0px" y="0px"
	 viewBox="0 0 330 550" style="enable-background:new 0 0 330 550;" xml:space="preserve">
<style type="text/css">
	.st0{fill:#FFFCD9;}
	.st1{fill:#FFFFFF;}
	.st2{fill:#00B997;}
	.st3{fill:none;}
	.st4{fill:#FFBC18;}
	.st5{fill:#9BD9DA;}
</style>
<title>board-5</title>
<path class="st0" d="M133.9,441.8l2,63l10.3-0.1c0.3-25.3-0.8-50.5-3.4-75.6l-10.5,11.8"/>
<path d="M132.4,441.8l2,63c0,0.8,0.7,1.5,1.5,1.5l10.3-0.1c0.8,0,1.5-0.7,1.5-1.5c0.3-25.3-0.9-50.5-3.4-75.6
	c-0.1-1.2-1.6-2.1-2.6-1.1l-10.4,11.8c-1.3,1.4,0.8,3.6,2.1,2.1l10.4-11.8l-2.6-1.1c2.5,25.1,3.7,50.4,3.4,75.6l1.5-1.5l-10.3,0.1
	l1.5,1.5l-2-63C135.4,439.9,132.4,439.9,132.4,441.8L132.4,441.8z"/>
<path class="st0" d="M26.8,386.4l-0.7,63l10.3,0.4c1.4-25.2,1.3-50.5-0.2-75.7l-10.9,11.3"/>
<path d="M25.3,386.4l-0.7,63c0,0.8,0.7,1.5,1.5,1.5l10.3,0.4c0.8,0,1.5-0.7,1.5-1.5c1.3-25.2,1.3-50.5-0.2-75.7
	c0-0.8-0.7-1.5-1.5-1.5c-0.4,0-0.7,0.2-1,0.4l-10.9,11.3c-1.3,1.4,0.8,3.5,2.1,2.1l10.9-11.3l-2.6-1.1c1.5,25.2,1.5,50.5,0.2,75.7
	l1.5-1.5l-10.3-0.4l1.5,1.5l0.7-63C28.3,384.5,25.3,384.5,25.3,386.4z"/>
<path class="st0" d="M301.5,334.8l2,63l10.3-0.1c0.3-25.3-0.8-50.5-3.4-75.6l-10.5,11.8"/>
<path d="M300,334.8l2,63c0,0.8,0.7,1.5,1.5,1.5l10.3-0.1c0.8,0,1.5-0.7,1.5-1.5c0.3-25.3-0.9-50.5-3.4-75.6
	c-0.1-1.2-1.6-2.1-2.6-1.1l-10.5,11.8c-1.3,1.4,0.8,3.6,2.1,2.1l10.5-11.8l-2.6-1.1c2.5,25.1,3.7,50.4,3.4,75.6l1.5-1.5l-10.3,0.1
	l1.5,1.5l-2-63C302.9,332.9,299.9,332.8,300,334.8L300,334.8z"/>
<path class="st1" d="M197.3,293.5l-0.7,63l10.3,0.4c1.4-25.2,1.3-50.5-0.2-75.7l-10.9,11.3"/>
<path d="M195.8,293.5l-0.7,63c0,0.8,0.7,1.5,1.5,1.5l10.3,0.4c0.8,0,1.5-0.7,1.5-1.5c1.3-25.2,1.3-50.5-0.2-75.7
	c0-0.8-0.7-1.5-1.6-1.5c-0.4,0-0.7,0.2-1,0.4l-10.9,11.3c-1.3,1.4,0.8,3.5,2.1,2.1l10.9-11.3l-2.6-1.1c1.5,25.2,1.5,50.5,0.2,75.7
	l1.5-1.5l-10.3-0.4l1.5,1.5l0.7-63c0-0.8-0.7-1.5-1.5-1.5S195.8,292.6,195.8,293.5L195.8,293.5z"/>
<path class="st1" d="M215.3,167.2c0.4,57.6,0.3,139.5,0.7,197.1c0,4.6,0.2,9.5,2.8,13.3s8.6,5.5,11.8,2.2
	c0.2-64.7,0.9-153.6,1.1-218.3l-16.6,3.1"/>
<path d="M213.8,167.2c0.4,60.9,0.3,121.7,0.6,182.6c0,6.8-0.5,13.9,0.4,20.7c0.6,4.9,2.6,9.7,7.4,11.7c2.9,1.2,8.6,1.4,9.8-2.4
	c0.9-2.8,0-7.3,0-10.3c0-3.6,0-7.1,0-10.7c0.1-31.4,0.3-62.8,0.5-94.2c0.2-34.4,0.4-68.8,0.5-103.1c0-0.8-0.7-1.5-1.6-1.5
	c-0.1,0-0.2,0-0.3,0l-16.6,3.1c-1.9,0.4-1.1,3.2,0.8,2.9l16.6-3.1l-1.9-1.4c-0.2,57.3-0.6,114.5-0.9,171.8
	c-0.1,13.6-0.1,27.1-0.2,40.7c0,2.2,0.5,3.9-1.4,5.3s-4.4,0.5-6.2-1c-3.5-2.9-3.8-8.1-3.9-12.3c-0.1-6.3-0.1-12.7-0.1-19
	c-0.1-28.4-0.2-56.9-0.3-85.3c-0.1-31.4-0.1-62.9-0.3-94.3c0-0.8-0.7-1.5-1.5-1.5S213.7,166.4,213.8,167.2L213.8,167.2z"/>
<path class="st0" d="M24.7,373.1c43.2,18.4,72.6,34.6,112.7,59.2l183-118.8c-22.3-9.8-45-18.4-68.2-25.9
	c-14.9-4.8-37.8-19.9-77.9,4.4C121.4,324,77.4,340.9,24.7,373.1"/>
<path d="M23.9,374.4c39.2,16.7,76.4,36.9,112.7,59.2c0.5,0.3,1,0.3,1.5,0l183-118.8c0.8-0.5,1.1-2.1,0-2.6
	c-22.7-9.9-45.8-18.3-69.2-26.2c-11.6-3.9-22.3-8.7-34.8-8.9c-21.2-0.3-38.6,10.9-56.3,21.1c-21.1,12.2-42.8,23.2-64.5,34.2
	c-24.5,12.4-48.9,25.1-72.4,39.5c-1.6,1-0.1,3.6,1.5,2.6c39.8-24.2,82.2-43.4,123-65.8c19.7-10.9,39.1-26.1,62.2-28.3
	c12.9-1.2,24.6,2.5,36.5,7c10.5,4,21.3,7.2,31.9,11c13.7,5,27.2,10.5,40.6,16.3v-2.6L199.8,390l-59,38.4c-3.4,2.2-4.3,1.7-7.4-0.2
	l-6.2-3.8c-4.7-2.8-9.5-5.7-14.2-8.4c-8.5-5-17.1-9.8-25.7-14.5c-20.1-10.8-40.8-20.6-61.8-29.5C23.7,371.1,22.2,373.7,23.9,374.4
	L23.9,374.4z"/>
<path class="st0" d="M320.3,313.5v14.5l-183,118.8L24.7,387.6v-14.4c0,0,87.5,40.9,112.7,59.2L320.3,313.5z"/>
<path d="M318.8,313.5v9.6c0,1.2-0.4,3.3,0,4.5c0.1,0.4,1.2-1.1,0.5-0.8c-1.8,1-3.5,2.1-5.1,3.3l-27.4,17.8L200.4,404l-61.7,40.1
	c-0.4,0.3-1.6,0.8-1.9,1.2s1.3,0.7,0.8,0s-2.6-1.4-3.3-1.8l-5.9-3.1l-40.9-21.5l-45-23.6l-13.7-7.2c-0.8-0.4-2.2-1.5-3.1-1.6
	s0.6,0,0.4,0.9c0.3-1.4,0-3.2,0-4.6v-9.6l-2.3,1.3c29.9,14,59.7,28.4,88.5,44.5c8.3,4.4,16.4,9.3,24.1,14.7c0.5,0.3,1,0.3,1.5,0
	l61.8-40.2l98.5-64l22.6-14.7c1.6-1,0.1-3.6-1.5-2.6l-108.1,70.2L148.9,423l-8.3,5.4c-1,0.7-2.6,2.2-3.9,2.5
	c-0.8,0.2,2.1,0.6,0.8-0.3c-1.1-0.7-2.1-1.5-3.2-2.2c-2.7-1.8-5.4-3.5-8.2-5.1c-6.9-4.1-13.9-8-20.9-11.8
	c-26.2-14-52.9-27.1-79.8-39.7c-0.7-0.4-1.6-0.2-2.1,0.6c-0.1,0.2-0.2,0.5-0.2,0.7v14.5c0,0.5,0.3,1,0.7,1.3l98.7,51.8l14,7.3
	c0.5,0.3,1,0.3,1.5,0l69.9-45.4l100.7-65.4c3.8-2.5,7.9-4.7,11.5-7.5c0.8-0.4,1.4-1.2,1.6-2.2c1-4.2,0-9.8,0-14.1
	c0-0.8-0.7-1.5-1.5-1.5C319.5,312,318.8,312.7,318.8,313.5z"/>
<path class="st1" d="M97.8,294.9c0.4,57.6,0.3,139.5,0.7,197.1c0,4.6,0.2,9.5,2.8,13.3s8.7,5.5,11.8,2.2
	c0.2-64.7,0.9-153.6,1.1-218.3l-16.6,3.1"/>
<path d="M96.3,294.9c0.4,60.9,0.3,121.7,0.6,182.6c0,6.8-0.5,13.9,0.4,20.7c0.6,4.9,2.6,9.7,7.4,11.7c2.9,1.2,8.7,1.4,9.8-2.4
	c0.9-2.8,0-7.3,0-10.3c0-3.6,0-7.1,0-10.7c0.1-31.4,0.3-62.8,0.5-94.2c0.2-34.4,0.4-68.8,0.5-103.1c0-0.8-0.7-1.5-1.6-1.5
	c-0.1,0-0.2,0-0.3,0l-16.6,3.1c-1.9,0.4-1.1,3.2,0.8,2.9l16.6-3.1l-1.9-1.4c-0.2,57.3-0.6,114.5-0.9,171.8
	c-0.1,13.6-0.1,27.1-0.2,40.7c0,2.2,0.5,3.9-1.4,5.3s-4.4,0.5-6.2-1c-3.5-2.9-3.8-8.1-3.9-12.3c-0.2-6.4-0.1-12.7-0.1-19
	c-0.2-28.4-0.2-56.9-0.3-85.3c-0.1-31.4-0.1-62.9-0.3-94.3c0-0.8-0.7-1.5-1.5-1.5S96.2,294.1,96.3,294.9L96.3,294.9z"/>
<path class="st1" d="M3.8,271.5C4.2,329.1,4.1,411,4.5,468.6c0,4.6,0.2,9.5,2.8,13.3s8.6,5.5,11.8,2.2c0.2-64.7,0.9-153.6,1.1-218.3
	l-16.5,3.1"/>
<path d="M2.3,271.5c0.4,60.9,0.3,121.7,0.6,182.6c0,6.8-0.5,13.9,0.4,20.7c0.6,4.9,2.6,9.7,7.4,11.7c2.9,1.3,8.6,1.4,9.8-2.4
	c0.9-2.8,0-7.3,0-10.3c0-3.6,0-7.1,0-10.7c0.1-31.4,0.3-62.8,0.5-94.2c0.2-34.4,0.4-68.8,0.5-103.1c0-0.8-0.7-1.5-1.6-1.5
	c-0.1,0-0.2,0-0.3,0l-16.5,3.1c-1.9,0.4-1.1,3.3,0.8,2.9l16.6-3.1l-1.9-1.5C18.5,323,18,380.2,17.7,437.5
	c-0.1,13.6-0.1,27.1-0.2,40.7c0,2.3,0.5,3.9-1.4,5.3s-4.4,0.5-6.2-1c-3.5-2.9-3.8-8.1-3.9-12.3c-0.2-6.4-0.1-12.7-0.1-19
	c-0.1-28.4-0.2-56.9-0.3-85.3c-0.1-31.4-0.1-62.9-0.3-94.3c0-0.8-0.7-1.5-1.5-1.5S2.3,270.6,2.3,271.5L2.3,271.5z"/>
<path class="st1" d="M309.3,190.6c0.4,57.6,0.3,139.5,0.7,197.1c0,4.6,0.1,9.5,2.8,13.3s8.6,5.5,11.8,2.2
	c0.2-64.7,0.9-153.6,1.1-218.3l-16.6,3.1"/>
<path d="M307.8,190.6c0.4,60.9,0.3,121.7,0.6,182.6c0,6.8-0.5,13.9,0.4,20.7c0.6,4.9,2.6,9.7,7.5,11.7c2.9,1.2,8.6,1.4,9.8-2.4
	c0.9-2.8,0-7.3,0-10.3c0-3.6,0-7.1,0-10.7c0.1-31.4,0.3-62.8,0.5-94.2c0.2-34.4,0.4-68.8,0.5-103.1c0-0.8-0.7-1.5-1.6-1.5
	c-0.1,0-0.2,0-0.3,0l-16.6,3.1c-1.9,0.4-1.1,3.2,0.8,2.9l16.6-3.1l-1.9-1.4c-0.2,57.3-0.6,114.5-0.9,171.8
	c-0.1,13.6-0.1,27.1-0.2,40.7c0,2.3,0.5,3.9-1.4,5.3s-4.4,0.5-6.2-1c-3.5-2.9-3.8-8.1-3.9-12.3c-0.1-6.3-0.1-12.7-0.1-19
	c-0.1-28.4-0.2-56.9-0.3-85.3c-0.1-31.4-0.1-62.9-0.4-94.3c0-0.8-0.7-1.5-1.5-1.5S307.7,189.9,307.8,190.6L307.8,190.6z"/>
<path class="st2" d="M326.4,149.9l-42.2,21.3l0.1,30.5c13.9-3.1,27.9-5.1,42.1-5.9V149.9z"/>
<path d="M325.6,148.6l-42.2,21.3c-0.5,0.3-0.7,0.8-0.7,1.3l0.1,30.5c0,0.8,0.7,1.5,1.5,1.5c0.1,0,0.2,0,0.4,0
	c13.7-3.1,27.7-5,41.7-5.8c0.8,0,1.5-0.7,1.5-1.5v-45.9c0-0.8-0.7-1.5-1.5-1.5s-1.5,0.7-1.5,1.5v45.9l1.5-1.5
	c-14.3,0.8-28.5,2.8-42.5,5.9l1.9,1.4c0-7,0-14-0.1-21c0-1.6,0-3.2,0-4.8c0-0.6-0.5-3.8-0.7-3.5c0.1-0.3,0.8-0.3,1-0.5
	c1-1.1,3.7-1.9,5.1-2.6l8.4-4.3l27.7-14C328.9,150.4,327.4,147.8,325.6,148.6z"/>
<path class="st1" d="M106.1,260.9V316c10.3-12.3,21.4-23.9,33.2-34.8c0.1-12.5,0.3-24.9,0.8-37.4L106.1,260.9z"/>
<path d="M104.6,260.9V316c0,0.8,0.7,1.5,1.5,1.5c0.4,0,0.7-0.2,1-0.4c9.6-11.3,19.7-22.1,30.5-32.2c2.4-2.3,3.1-2.4,3.1-5.6
	c0.1-3.9,0.1-7.9,0.1-11.8c0.1-7.9,0.4-15.8,0.6-23.6c0-0.8-0.7-1.5-1.6-1.5c-0.2,0-0.5,0.1-0.7,0.2l-34,17.1
	c-1.7,0.9-0.2,3.5,1.5,2.6l34-17.1l-2.3-1.3c-0.3,7.2-0.5,14.4-0.6,21.6c-0.1,3.6-0.1,7.2-0.1,10.8c-0.1,4.5-1.9,6-5,9
	c-9.8,9.4-19,19.3-27.8,29.7l2.6,1.1v-55c-0.1-0.8-0.9-1.4-1.7-1.3C105.2,259.8,104.7,260.3,104.6,260.9z"/>
<path class="st1" d="M176.9,225.2c-0.1,8.5-0.3,17.1-0.4,25.6c11.5-8.2,23.6-15.6,36.1-22.3c0-7.1,0-14.2-0.1-21.3L176.9,225.2z"/>
<path d="M175.4,225.2c-0.1,8.5-0.3,17.1-0.4,25.6c0,0.8,0.7,1.5,1.5,1.5c0.3,0,0.5-0.1,0.7-0.2c11.6-8.2,23.6-15.6,36.1-22.3
	c0.5-0.3,0.7-0.8,0.7-1.3c0-7.1,0-14.2-0.1-21.3c0-0.8-0.7-1.5-1.5-1.5c-0.2,0-0.5,0.1-0.7,0.2l-35.6,18c-1.7,0.9-0.2,3.5,1.5,2.6
	l35.7-18l-2.3-1.3l0.1,15.5c0,3.2,0.2,4.5-2.5,6.3c-2.3,1.5-4.9,2.7-7.2,4.1c-8.8,5.1-17.3,10.6-25.6,16.5l2.3,1.3
	c0.1-8.5,0.2-17.1,0.4-25.6c0-0.8-0.7-1.5-1.5-1.5S175.4,224.4,175.4,225.2z"/>
<path class="st2" d="M140.1,243.8c-0.5,12.5-0.7,24.9-0.8,37.4c11.8-10.9,24.2-21,37.3-30.3c0.1-8.5,0.2-17.1,0.4-25.6L140.1,243.8z
	"/>
<path d="M138.6,243.8c-0.5,12.5-0.7,24.9-0.8,37.4c0,0.8,0.7,1.5,1.6,1.5c0.4,0,0.7-0.2,1-0.4c9.9-9.1,20.2-17.7,31-25.8
	c1.8-1.3,5-2.8,6.3-4.6c1-1.4,0.5-3.4,0.5-5c0.1-7.2,0.2-14.5,0.3-21.7c0-0.8-0.7-1.5-1.5-1.5c-0.2,0-0.5,0.1-0.7,0.2l-36.9,18.6
	c-1.7,0.9-0.2,3.4,1.5,2.6l36.9-18.6l-2.3-1.3c-0.1,6.6-0.2,13.2-0.3,19.7c-0.1,3.5-0.2,5.2-3.1,7.3c-2.5,1.8-5,3.7-7.4,5.5
	c-9.2,7-18,14.5-26.4,22.3l2.6,1.1c0.1-12.5,0.3-24.9,0.8-37.4C141.6,241.9,138.6,241.9,138.6,243.8z"/>
<path class="st1" d="M248.5,189.2c-0.1,7.8-0.2,15.6-0.4,23.4c11.8-4.4,23.8-8,36.1-10.8l-0.1-30.5L248.5,189.2z"/>
<path d="M247,189.2c-0.1,7.8-0.2,15.6-0.4,23.4c0,0.8,0.7,1.5,1.5,1.5c0.1,0,0.3,0,0.4-0.1c11.8-4.4,23.8-8,36.1-10.8
	c0.6-0.2,1.1-0.8,1.1-1.4l-0.1-30.5c0-0.8-0.7-1.5-1.5-1.5c-0.2,0-0.5,0.1-0.7,0.2l-35.6,18c-1.7,0.9-0.2,3.4,1.5,2.6l35.6-18
	l-2.3-1.3l0.1,30.5l1.1-1.4c-12.3,2.8-24.3,6.4-36.1,10.8l1.9,1.4c0.1-7.8,0.2-15.6,0.4-23.4c0-0.8-0.7-1.5-1.5-1.5
	C247.7,187.7,247,188.3,247,189.2z"/>
<path class="st2" d="M212.6,207.3c0,7.1,0,14.2,0.1,21.3c11.5-6.1,23.3-11.5,35.5-16.1c0.1-7.8,0.2-15.6,0.4-23.4L212.6,207.3z"/>
<path d="M211.1,207.3c0,7.1,0,14.2,0.1,21.3c0,0.8,0.7,1.5,1.6,1.5c0.2,0,0.5-0.1,0.7-0.2c11.4-6,23.1-11.3,35.2-15.9
	c0.6-0.2,1.1-0.8,1.1-1.4c0.1-7.8,0.2-15.6,0.4-23.4c0-0.8-0.7-1.5-1.6-1.5c-0.2,0-0.5,0.1-0.7,0.2l-36,18.1
	c-1.7,0.9-0.2,3.5,1.5,2.6l35.9-18.1l-2.3-1.3c-0.1,7.8-0.2,15.6-0.4,23.4l1.1-1.4c-12.3,4.7-24.3,10.1-35.9,16.2l2.3,1.3
	c0-7.1,0-14.2-0.1-21.3c-0.1-0.8-0.9-1.4-1.7-1.3C211.7,206.2,211.2,206.6,211.1,207.3z"/>
<path class="st2" d="M24.2,240.9c-0.5,9.9-0.7,19.9-0.7,29.8c7.9-0.5,15.8,0.1,23.5,2.1c0.2-8.2,0.8-16.4,1.5-24.6
	C40.5,245.6,32.4,243.2,24.2,240.9z"/>
<path d="M22.7,240.9c-0.5,9.9-0.7,19.9-0.7,29.8c0,0.8,0.7,1.5,1.5,1.5c7.7-0.5,15.5,0.2,23.1,2c0.8,0.2,1.6-0.3,1.9-1.1
	c0-0.1,0-0.2,0-0.4c0.2-8.2,0.8-16.4,1.5-24.6c0-0.7-0.5-1.3-1.1-1.4c-8.1-2.6-16.2-5-24.3-7.3c-0.8-0.2-1.6,0.3-1.8,1.1
	c-0.2,0.8,0.3,1.6,1,1.8c8.2,2.3,16.3,4.7,24.3,7.3l-1.1-1.4c-0.8,8.2-1.3,16.4-1.5,24.6l1.9-1.5c-7.8-1.9-15.9-2.6-23.9-2.1
	l1.5,1.5c0-9.9,0.3-19.9,0.7-29.8C25.8,239,22.8,239,22.7,240.9z"/>
<path class="st1" d="M3.6,235.6V275c6.4-2.3,13.1-3.7,19.9-4.2c0-9.9,0.2-19.9,0.7-29.8C17.4,239,10.5,237.2,3.6,235.6z"/>
<path d="M2.1,235.6V275c0,0.8,0.7,1.5,1.6,1.5c0.1,0,0.2,0,0.4-0.1c6.3-2.2,12.9-3.6,19.5-4.1c0.8,0,1.5-0.7,1.5-1.5
	c0-9.9,0.3-19.9,0.7-29.8c0-0.7-0.5-1.3-1.1-1.4c-6.8-1.9-13.7-3.7-20.6-5.3c-1.9-0.4-2.7,2.4-0.8,2.9c6.9,1.7,13.8,3.5,20.6,5.4
	l-1.1-1.4c-0.5,9.9-0.7,19.9-0.7,29.8l1.5-1.5c-6.9,0.5-13.7,2-20.3,4.2l1.9,1.5v-39.4c0-0.8-0.7-1.5-1.5-1.5S2.1,234.7,2.1,235.6z"
	/>
<path class="st1" d="M48.5,248.2c-0.8,8.2-1.3,16.4-1.5,24.6c3.4,0.9,6.8,2,10,3.3c4.6,2,9.1,4.3,13.3,7.1l0.9-27.2
	C63.7,253.3,56.1,250.7,48.5,248.2z"/>
<path d="M47,248.2c-0.8,8.2-1.3,16.4-1.5,24.6c0,0.7,0.5,1.3,1.1,1.5c8.2,2.2,15.9,5.6,23,10.3c0.7,0.4,1.7,0.1,2.1-0.6
	c0.1-0.2,0.2-0.5,0.2-0.7l0.9-27.2c0-0.7-0.5-1.3-1.1-1.4c-7.5-2.8-15.1-5.4-22.7-7.9c-1.8-0.6-2.6,2.3-0.8,2.9
	c7.6,2.5,15.2,5.1,22.7,7.8l-1.1-1.5l-0.9,27.2l2.2-1.2c-7.3-4.8-15.3-8.3-23.7-10.6l1.1,1.5c0.2-8.2,0.8-16.4,1.5-24.6
	C50.2,246.3,47.2,246.3,47,248.2z"/>
<path class="st2" d="M104.5,268.7c-9.2-3.9-24-9.1-33.3-12.6l-0.9,27.2c12.8,8.3,28.4,20.5,34.2,32.8L104.5,268.7z"/>
<path d="M104.9,267.2c-10.9-4.6-22.2-8.5-33.3-12.6c-0.8-0.2-1.6,0.3-1.8,1.1c0,0.1,0,0.2-0.1,0.4c-0.2,7.4-0.5,14.9-0.7,22.3
	c-0.1,1.9-0.7,4.2,0.3,5.9s5.1,3.4,6.9,4.7c10.4,7.4,21.3,16.1,27.1,27.7c0.7,1.4,2.8,0.7,2.8-0.8v-47.3c0-0.8-0.7-1.5-1.5-1.5
	s-1.5,0.7-1.5,1.5V316l2.8-0.8c-5-10.1-13.9-17.9-22.7-24.7c-2.2-1.7-4.5-3.4-6.8-5c-3.4-2.4-4.5-2.8-4.3-7.1
	c0.3-7.4,0.5-14.9,0.7-22.3l-1.9,1.5c11.1,4.1,22.4,8,33.3,12.6C105.9,270.9,106.6,268,104.9,267.2z"/>
<path class="st3" d="M152.6,109c-1.8-0.9-3.6-1.9-5.4-2.8c0.1,0.6,0.2,1.3,0.3,1.9C149.1,108.3,150.8,108.6,152.6,109z"/>
<path class="st3" d="M143.5,107.8c0.9,0.9,1.9,1.8,2.9,2.8c0.1-0.7,0.2-1.4,0.3-2.2L143.5,107.8z"/>
<path class="st3" d="M147.3,106.2l-0.4-0.2c0.2,0.7,0.4,1.4,0.6,2.1h0.2C147.5,107.4,147.4,106.8,147.3,106.2z"/>
<path class="st4" d="M147.7,108.7l7.3,1.5l-2.4-1.2c-1.8-0.3-3.5-0.6-5-0.9C147.6,108.3,147.7,108.5,147.7,108.7z"/>
<path d="M147.3,110.1c2.4,0.5,4.9,1,7.3,1.5c1.6,0.3,2.7-1.9,1.2-2.7c-1.2-0.8-2.5-1.3-3.8-1.6l-3.9-0.7c-0.8-0.2-1.6,0.3-1.8,1.1
	c-0.1,0.2-0.1,0.5,0,0.7c0,0.2,0.1,0.4,0.1,0.7c0.3,1.9,3.2,1.1,2.9-0.8c0-0.2-0.1-0.4-0.1-0.7l-1.8,1.8l3.4,0.6
	c1.3,0.3,2.5,0.7,3.6,1.4l1.2-2.7c-2.4-0.5-4.9-1-7.3-1.6C146.2,106.8,145.4,109.7,147.3,110.1z"/>
<path class="st2" d="M283.3,170.3c14.2-7.3,28.5-14.1,43.1-20.4c-25.6-16.9-135-34.1-173.8-41l2.4,1.3
	C207.8,121.6,258.8,137.4,283.3,170.3z"/>
<path d="M284,171.6c14.2-7.3,28.5-14.1,43.1-20.4c1.1-0.5,0.8-2.1,0-2.6c-7-4.6-15.3-7.3-23.2-9.8c-11.6-3.7-23.5-6.7-35.4-9.4
	c-26.8-6.2-53.9-11.2-81-15.9c-11.5-2-23-3.9-34.5-6c-1.6-0.3-2.8,1.9-1.2,2.7c5.4,2.9,11.9,3.4,17.8,4.8c6.3,1.5,12.6,3.1,18.9,4.8
	c12.3,3.3,24.5,7.3,36.4,12c21.5,8.6,42.8,20.4,57,39.1c1.1,1.5,3.8,0,2.6-1.5c-13.7-18-33.5-29.9-54.1-38.6
	c-11.5-4.8-23.4-8.9-35.4-12.3c-6.5-1.9-13-3.6-19.6-5.2c-7-1.7-15.8-2.3-22.1-5.7l-1.2,2.7c48.6,8.6,98.1,15.6,145.5,29.7
	c9.5,2.8,19.5,5.8,27.8,11.1v-2.6c-14.6,6.3-29,13.1-43.1,20.4C280.8,169.9,282.3,172.4,284,171.6z"/>
<path class="st4" d="M148.9,113.1c-0.3-1.2-0.7-2.4-1-3.6c0.2,1,0.4,2.1,0.5,3.1L148.9,113.1z"/>
<path d="M150.3,112.7c-0.3-1.2-0.7-2.4-1-3.6c-0.2-0.8-1-1.3-1.8-1.1c-0.8,0.2-1.3,1-1.1,1.8c0,0,0,0.1,0,0.1
	c0.1,0.7,0.3,1.5,0.4,2.2c0,0.4,0.1,0.7,0.2,1.1c0.2,0.4,0.5,0.7,0.8,1c0.6,0.6,1.6,0.5,2.1-0.1c0.5-0.6,0.5-1.5,0-2l-0.5-0.5
	l0.4,0.7c-0.2-1-0.3-2.1-0.5-3.1l-2.9,0.8c0.3,1.2,0.7,2.4,1,3.6c0.2,0.8,1.1,1.3,1.9,1C150.1,114.3,150.5,113.5,150.3,112.7
	L150.3,112.7z"/>
<path class="st4" d="M147.9,109.5c0-0.3-0.1-0.6-0.1-0.8h-0.1L147.9,109.5z"/>
<path d="M149.3,109.1c0-0.3-0.1-0.6-0.1-0.8c-0.1-0.5-0.5-0.9-1-1.1H148c-0.8-0.2-1.6,0.3-1.8,1.1c-0.1,0.3-0.1,0.5,0,0.8l0.2,0.9
	c0.2,0.8,1.1,1.2,1.9,1C149.1,110.7,149.5,109.9,149.3,109.1l-0.2-0.8l-1.8,1.8h0.1l-1.1-1c0.1,0.3,0.1,0.6,0.1,0.8
	c0.2,0.8,1.1,1.2,1.9,1C149.1,110.7,149.5,109.9,149.3,109.1L149.3,109.1z"/>
<path class="st2" d="M155,110.2l-7.3-1.5c0,0.3,0.1,0.6,0.1,0.8c0.3,1.2,0.7,2.4,1,3.6c27.1,27.5,50.3,60.9,63.3,97.1
	c11.7-7,23.4-13.8,35.2-20.5C230.5,157.3,197.3,132.9,155,110.2z"/>
<path d="M155.4,108.8l-7.3-1.6c-0.8-0.2-1.6,0.3-1.9,1.1c-0.1,0.2-0.1,0.5,0,0.7c0.8,4.9,3,6.5,6.3,10s6.6,7.2,9.8,10.8
	c7.1,8.2,13.7,16.8,19.8,25.7c11.8,17.1,21.5,35.5,28.7,55c0.2,0.8,1.1,1.3,1.9,1c0.1,0,0.2-0.1,0.3-0.1c11.7-7,23.4-13.8,35.2-20.5
	c0.7-0.4,0.9-1.3,0.5-2.1c-19.6-37-57.1-60.7-92.9-80c-1.7-0.9-3.2,1.7-1.5,2.6c35.4,19,72.5,42.3,91.8,78.9l0.5-2.1
	c-11.8,6.7-23.5,13.5-35.2,20.5l2.2,0.9c-7-18.9-16.2-36.9-27.5-53.6c-5.4-8-11.1-15.7-17.3-23.1c-3.3-4-6.7-7.9-10.1-11.7
	c-3.5-3.9-8.6-7.7-9.6-13.1l-1.8,1.8c2.4,0.5,4.9,1,7.3,1.5C156.5,112.1,157.3,109.2,155.4,108.8z"/>
<path class="st2" d="M148.4,112.6c7.4,47.1,4.5,95.2-8.5,141c12.3-7.3,24.6-14.6,36.9-22.1c-7.5-39.4-18.4-84.2-27.9-118.4
	L148.4,112.6z"/>
<path d="M146.9,113c7.2,46.8,4.3,94.6-8.5,140.2c-0.2,0.8,0.3,1.6,1.1,1.8c0.4,0.1,0.8,0,1.1-0.1c12.3-7.3,24.6-14.6,36.9-22.1
	c0.6-0.4,0.8-1,0.7-1.7c-4.1-21.4-8.8-42.6-13.8-63.8c-2.4-10.2-5-20.4-7.6-30.5c-1.2-4.8-2.5-9.5-3.8-14.3
	c-0.8-3.1-1.2-8.6-3.5-10.9c-0.6-0.6-1.6-0.5-2.1,0.1c-0.5,0.6-0.5,1.5,0,2c1.3,1.3,1.5,4.8,1.9,6.5c0.6,2.1,1.1,4.1,1.7,6.2
	c1.3,4.8,2.6,9.7,3.8,14.5c2.6,9.9,5,19.9,7.4,29.9c4.8,20.3,9.3,40.7,13.2,61.2l0.7-1.7c-12.3,7.4-24.5,14.8-36.9,22.1l2.2,1.7
	c12.9-46.1,15.8-94.4,8.5-141.8C149.5,110.3,146.6,111.1,146.9,113z"/>
<path class="st1" d="M176.8,231.5c11.8-7.1,23.6-14.3,35.4-21.3c-13.1-36.2-36.3-69.6-63.3-97.1
	C158.4,147.3,169.2,192.1,176.8,231.5z"/>
<path d="M177.5,232.8c11.8-7.1,23.6-14.3,35.4-21.4c0.6-0.3,0.9-1,0.7-1.7c-13.5-36.9-36.3-69.8-63.7-97.8c-0.6-0.6-1.6-0.6-2.1,0
	c-0.4,0.4-0.5,0.9-0.4,1.4c10.8,39.1,20.3,78.6,27.9,118.4c0.4,1.9,3.3,1.1,2.9-0.8c-7.6-39.8-17.1-79.3-27.9-118.4l-2.5,1.5
	c27,27.6,49.6,60,63,96.4l0.7-1.7c-11.8,7.1-23.7,14.2-35.4,21.4c-0.7,0.4-1,1.3-0.6,2.1C175.9,233,176.8,233.2,177.5,232.8
	L177.5,232.8z"/>
<path class="st1" d="M155,110.2c42.3,22.7,75.5,47,92.3,79.4c11.9-6.7,23.8-13.2,35.9-19.4C258.8,137.4,207.8,121.6,155,110.2z"/>
<path d="M154.3,111.5c35.4,19,72.5,42.3,91.8,78.9c0.4,0.7,1.3,0.9,2.1,0.5c11.9-6.7,23.8-13.1,35.9-19.4c0.7-0.4,1-1.3,0.5-2.1
	c-13.5-17.8-33-29.6-53.3-38.3c-24.3-10.4-50.1-16.8-75.8-22.4c-1.9-0.4-2.7,2.5-0.8,2.9c24.6,5.3,49.3,11.4,72.6,21
	c20.7,8.5,41.1,20.2,54.8,38.3l0.5-2.1c-12.1,6.2-24,12.7-35.9,19.4l2.1,0.5c-19.6-37-57.1-60.7-92.9-80
	C154.1,108,152.6,110.6,154.3,111.5z"/>
<path class="st4" d="M147.9,109.5l-0.2-0.9l-1-0.2c-0.1,0.7-0.2,1.4-0.3,2.2c0.7,0.7,1.3,1.3,2,2C148.2,111.6,148,110.6,147.9,109.5
	z"/>
<path d="M149.3,109.1l-0.2-0.9c-0.2-0.5-0.6-0.9-1.1-1l-1-0.2c-0.8-0.2-1.7,0.3-1.9,1.1c0,0.1,0,0.2,0,0.3c-0.1,0.9-0.5,2.3,0.1,3.1
	c0.6,0.8,1.4,1.5,2.1,2.2c0.6,0.6,1.6,0.5,2.1-0.1c0.3-0.4,0.5-0.9,0.4-1.4C149.6,111.3,149.4,110.2,149.3,109.1
	c-0.3-0.7-1.1-1.2-1.9-0.9c-0.8,0.3-1.2,1.1-1,1.8c0.2,1,0.4,2.1,0.5,3.1l2.5-1.5l-2-2l0.4,1.1c0.1-0.7,0.2-1.4,0.3-2.2l-1.9,1.4
	l1,0.2l-1.1-1l0.2,0.9c0.3,0.8,1.1,1.2,1.9,1C149.1,110.8,149.5,109.9,149.3,109.1z"/>
<path class="st4" d="M147.4,108l-0.7-0.1c0,0.2-0.1,0.4-0.1,0.6l1,0.2C147.5,108.4,147.5,108.2,147.4,108z"/>
<path d="M147.8,106.6l-0.7-0.1c-0.8-0.2-1.7,0.3-1.9,1.1c0,0.1,0,0.2,0,0.3c0,0.2-0.1,0.4-0.1,0.6c0,0.7,0.5,1.3,1.1,1.4l1,0.2
	c0.8,0.2,1.6-0.3,1.8-1.1c0.1-0.2,0.1-0.5,0-0.8l-0.2-0.7c-0.2-0.8-1-1.3-1.9-1c-0.8,0.2-1.3,1-1,1.8c0.1,0.2,0.1,0.4,0.2,0.7
	l1.8-1.8l-1-0.2l1.1,1.4c0-0.2,0.1-0.4,0.1-0.6l-1.9,1.4l0.7,0.1c0.8,0.2,1.6-0.2,1.9-1C149.1,107.6,148.6,106.8,147.8,106.6
	L147.8,106.6L147.8,106.6z"/>
<path class="st4" d="M147.7,108.7c0-0.2-0.1-0.4-0.1-0.7h-0.2C147.5,108.3,147.5,108.5,147.7,108.7L147.7,108.7z"/>
<path d="M149.1,108.3c0-0.2-0.1-0.4-0.1-0.7c-0.1-0.5-0.5-0.9-1-1h-0.2c-0.8-0.2-1.6,0.3-1.9,1.1c-0.1,0.2-0.1,0.5,0,0.8
	c0.1,0.2,0.1,0.4,0.2,0.7c0.1,0.5,0.5,0.9,1.1,1h0.1c0.8,0.2,1.6-0.2,1.9-1c0.2-0.8-0.2-1.6-1.1-1.9l0,0H148L149.1,108.3l-0.2-0.7
	l-1.9,1.9h0.2l-1-1c0,0.2,0.1,0.4,0.1,0.7c0.2,0.8,1.1,1.2,1.9,1C148.9,109.9,149.3,109.1,149.1,108.3z"/>
<path class="st1" d="M148.4,112.6c-0.7-0.7-1.3-1.3-2-2c-6.4,52-23.9,114.2-40.3,162.2l-1.6,0.9c11.9-6.5,23.6-13.3,35.4-20.2
	C152.8,207.8,155.7,159.7,148.4,112.6z"/>
<path d="M149.4,111.6l-2-2c-0.6-0.6-1.6-0.5-2.1,0.1c-0.3,0.3-0.4,0.6-0.4,1c-3.6,28.6-9.7,56.9-17,84.8
	c-3.6,13.7-7.4,27.3-11.5,40.8c-2,6.5-4,12.9-6.1,19.4c-1.1,3.3-2.2,6.7-3.3,10.1c-0.7,2.2-1.1,5.6-3.2,6.8c-0.7,0.4-1,1.3-0.5,2.1
	c0.4,0.7,1.3,1,2.1,0.5c7.3-4,14.7-8.2,22-12.4c3.4-1.9,6.7-3.9,10.1-5.9s3.8-1.9,4.8-5.6c4.1-14.9,7.1-30,9.1-45.4
	c4-31.1,3.5-62.7-1.3-93.7c-0.3-1.9-3.2-1.1-2.9,0.8c4.6,29.5,5.1,59.5,1.7,89.2c-1.7,14.8-4.5,29.4-8.3,43.8
	c-1.2,4.7-2,6.8-6.3,9.3c-3.3,1.9-6.7,3.9-10.1,5.8c-6.7,3.9-13.5,7.7-20.3,11.4l1.5,2.6c4-2.3,4.5-8.3,5.8-12.4
	c2.3-6.9,4.5-13.8,6.6-20.7c4.5-14.6,8.7-29.2,12.6-44c7.5-28.7,13.9-57.9,17.6-87.3l-2.6,1.1c0.7,0.7,1.3,1.3,2,2
	c0.6,0.6,1.6,0.5,2.1-0.1C150,113,150,112.1,149.4,111.6z"/>
<path class="st4" d="M146.7,108.5c0-0.2,0-0.4,0-0.6c-0.2,0.3-0.5,0.6-0.7,0.9l-0.6,1.5C145.8,109.7,146.3,109.1,146.7,108.5z"/>
<path d="M148.2,108.5c0-0.2,0-0.4,0-0.6c0-0.6-0.4-1.1-0.9-1.4c-0.6-0.2-1.2-0.1-1.6,0.3c-0.5,0.5-0.9,1-1.2,1.6
	c-0.2,0.5-0.4,1-0.6,1.4c-0.2,0.7,0.2,1.5,0.9,1.8c0.7,0.3,1.5,0,1.9-0.6l1.3-1.8c0.4-0.7,0.2-1.6-0.5-2.1c-0.7-0.4-1.6-0.2-2.1,0.5
	l-1.3,1.8l2.7,1.2c0.2-0.5,0.4-1,0.6-1.5l-0.4,0.7c0.2-0.3,0.5-0.6,0.7-0.9l-2.6-1.1c0,0.2,0,0.4,0,0.6c0,0.8,0.7,1.5,1.5,1.5
	S148.2,109.3,148.2,108.5z"/>
<path class="st1" d="M146,108.8C114,147.6,45.5,207.6,3.6,234.2v1.4c6.8,1.8,13.9,3.8,21.1,5.8c39.8-44.2,85.3-83.6,120.7-131.1
	L146,108.8z"/>
<path d="M144.9,107.7c-16,19.4-34.2,37-52.6,54c-20.7,19.1-42.3,37.1-64.8,54c-5.3,3.9-10.6,7.8-16.1,11.5c-3.1,2.1-9.3,4.2-9.3,8.4
	c0,0.7,0.5,1.2,1.1,1.4c7,1.9,14.1,3.8,21.1,5.8c0.5,0.1,1.1,0,1.5-0.4c20.6-22.8,42.5-44.2,63.9-66.2
	c10.4-10.8,20.8-21.6,30.7-32.9c5.2-5.8,10.2-11.8,15.1-17.8c4-4.9,9.7-10.4,12-16.3c0.7-1.8-2.2-2.6-2.9-0.8c-1.7,4.4-6,8.5-9,12.2
	c-2.6,3.3-5.3,6.5-8,9.7c-5,6-10.1,11.8-15.4,17.6c-11.1,12.2-22.6,24.1-34.2,35.9c-11.4,11.6-22.9,23.1-34.2,34.8
	c-5.6,5.9-11.2,11.8-16.7,17.7c-1.2,1.4-2.1,2.8-4,3.1s-5.4-1.5-7.1-2c-4-1.1-8-2.2-12-3.2l1.1,1.4c0-1.3,1.9-1.8,3.5-2.8
	c2.3-1.5,4.6-3.1,6.9-4.6c5-3.4,9.9-7,14.7-10.6c10.1-7.6,20-15.4,29.7-23.5c21-17.5,41.4-35.8,60.6-55.2c9.2-9.3,18.2-18.9,26.6-29
	C148.3,108.3,146.1,106.2,144.9,107.7z"/>
<path class="st4" d="M144.5,112.7l2.2-3.3c0-0.3,0-0.6,0-0.8c-0.4,0.6-0.9,1.2-1.3,1.8C145.1,111.1,144.8,111.9,144.5,112.7z"/>
<path d="M145.8,113.4c0.5-0.8,1-1.5,1.5-2.3c0.2-0.3,0.5-0.7,0.7-1c0.2-0.5,0.3-1.1,0.2-1.6c0-0.8-0.7-1.5-1.6-1.5
	c-0.5,0-1,0.3-1.2,0.7c-0.6,0.7-1.1,1.4-1.5,2.2c-0.3,0.8-0.6,1.6-0.9,2.4c-0.2,0.8,0.3,1.6,1.1,1.8c0.8,0.2,1.6-0.2,1.8-1
	c0.2-0.7,0.5-1.4,0.8-2.1c0.4-0.6,0.8-1.2,1.3-1.7l-2.8-0.8c0,0.3,0,0.6,0,0.8l0.2-0.8l-2.2,3.3C142.1,113.5,144.7,115,145.8,113.4z
	"/>
<path class="st2" d="M146.7,109.3l-2.2,3.3c-19.5,49.8-48.4,95.7-72.7,143.6c12.2,4.4,24.1,9.5,35.6,15.4
	C117.3,249.5,145.8,136.8,146.7,109.3z"/>
<path d="M145.4,108.6c-3.6,5.5-5.6,11.8-8.2,17.8c-2.7,6.2-5.5,12.4-8.4,18.5c-6,12.5-12.3,24.9-18.9,37.1
	c-13.1,24.6-26.8,48.8-39.5,73.6c-0.4,0.7-0.1,1.7,0.6,2.1c0.1,0.1,0.2,0.1,0.3,0.1c12,4.4,23.8,9.5,35.3,15.3
	c0.7,0.4,1.6,0.1,2-0.5c8-18,12.4-38,17.4-56.9c6.8-25.7,13.1-51.6,18-77.7c1.8-9.4,3.7-19,4.1-28.6c0.1-1.9-2.9-1.9-3,0
	c-0.8,20.3-6.4,40.9-10.9,60.5c-5.8,25.2-12.1,50.3-19.5,75.1c-2.6,8.7-5.1,17.7-8.7,26l2-0.5c-11.7-5.9-23.7-11.1-36-15.5l1,2.1
	c12.7-24.8,26.4-49,39.5-73.6c6.4-12,12.6-24,18.5-36.3c2.9-6.1,5.7-12.3,8.4-18.5c2.7-6.2,4.8-13,8.6-18.7
	C149.1,108.5,146.5,107,145.4,108.6z"/>
<path class="st1" d="M46.9,247.9c8.3,2.6,16.6,5.4,24.8,8.4c24.4-47.9,53.2-93.8,72.7-143.6C112.9,160.1,83.4,203.8,46.9,247.9z"/>
<path d="M46.5,249.4c8.3,2.6,16.6,5.4,24.8,8.4c0.7,0.1,1.3-0.1,1.7-0.7c24.4-47.9,53.1-93.8,72.9-144c0.7-1.7-1.9-2.5-2.7-1.2
	c-30.7,46.2-62,92.1-97.3,135c-1.2,1.5,0.9,3.6,2.1,2.1c35.5-43.1,66.9-89.2,97.8-135.6l-2.7-1.2c-19.7,49.9-48.3,95.6-72.6,143.3
	l1.7-0.7c-8.2-3-16.5-5.8-24.8-8.4C45.5,245.9,44.7,248.8,46.5,249.4z"/>
<path class="st2" d="M145.4,110.3C110,157.8,64.5,197.2,24.7,241.4c7.3,2.1,14.8,4.2,22.3,6.6c36.4-44.1,66-87.8,97.6-135.3
	C144.8,111.9,145.1,111.1,145.4,110.3z"/>
<path d="M144.1,109.5c-35.6,47.6-80.8,86.8-120.5,130.8c-0.6,0.6-0.6,1.6,0,2.1c0.2,0.2,0.4,0.3,0.6,0.4c7.5,2.1,14.9,4.3,22.3,6.6
	c0.5,0.2,1.1,0,1.5-0.4c18.2-22,35.4-44.9,51.9-68.2c8.1-11.5,16.1-23.1,24-34.7c4.2-6.2,8.3-12.3,12.5-18.5
	c3.6-5.4,8.1-10.8,10.5-16.9c0.7-1.8-2.2-2.6-2.9-0.8c-2.8,7.3-8.9,14.3-13.3,20.8c-4.1,6.2-8.3,12.3-12.4,18.4
	c-8.8,12.9-17.7,25.7-26.7,38.4C82.2,200.3,72.7,213,63,225.6c-4.7,6.1-9.3,12.9-14.7,18.4c-3.1,3.2-6.4,0.9-10.3-0.3
	c-4.3-1.3-8.6-2.5-12.9-3.7l0.7,2.5c39.9-44.2,85.2-83.6,121-131.4C147.9,109.5,145.2,108,144.1,109.5z"/>
<path d="M324.9,147.3l-6.5,2.8c-3.5,1.5-0.5,6.7,3,5.2l6.5-2.8c2.2-0.9,1.7-4.1,0-5.2c-8.2-5.3-18.1-8.3-27.4-11.2
	c-13.6-4.1-27.5-7.4-41.4-10.4c-29.2-6.4-58.6-11.5-88-16.6c-5.2-0.9-10.3-1.8-15.5-2.7c-2.6-0.4-4.9-1-7.5-0.8
	c-3.2,0.3-3.9,1-5.7,3.3c-0.6,0.8,1.6-1.4-0.6,0.2c-0.6,0.5-1.1,1.1-1.5,1.8c-1,1.2-2.1,2.4-3.1,3.6c-2.8,3.2-5.6,6.3-8.5,9.3
	c-5.7,6.1-11.5,12-17.4,17.8c-26.2,25.8-54,49.9-83.4,72C21,218.8,14,223.8,6.8,228.5c-2.5,1.7-5.7,2.8-6.2,6
	c-0.1,1.2-0.1,2.4,0,3.6v30.7l2.2-2.9l0,0c-1.3,0.4-2.2,1.5-2.2,2.9c0.1,2,0,4.1,0,6.1c0,1.7,1.3,3,3,3c0.3,0,0.5,0,0.8-0.1l0.2-0.1
	l-3.8-2.9c0.4,59.5,0.3,118.9,0.6,178.3c0,6.9-0.4,13.9,0.3,20.8c0.6,5.6,2.6,11.1,7.9,13.6c3.6,1.7,10.2,1.9,12.2-2.4
	c1-2.2,0.3-6.1,0.3-8.6c0-3.8,0-7.6,0-11.5c0.1-30.5,0.3-61,0.5-91.5c0.2-34.2,0.4-68.4,0.5-102.6l-3,3c19.4-2.1,36.8,3.5,52.7,14.5
	c7,4.8,15.4,10.4,20.7,17.2c2.5,3.2,1.4,8.7,1.4,12.7l0.1,14.7l1.5-2.6c-24.8,12.6-49.5,25.4-73.3,39.9c-1.7,1-2.2,4.3,0,5.2
	l1.3,0.5l3-5.2l-1.3-0.5c-2-0.9-4.5,0.1-4.5,2.6v14.5c0,1.1,0.6,2.1,1.5,2.6l2.2,1.1l-1.5-2.6c-0.2,20.2-0.5,40.5-0.7,60.7
	c0,1.6,1.4,3,3,3l10.3,0.4c1.6,0,3-1.4,3-3c1-18.5,1.2-37.1,0.7-55.7l-4.5,2.6l61.1,32.1l-1.5-2.6c0,16.8,0.1,33.7,0.2,50.5
	c0,7.1-0.4,14.4,0.4,21.5c0.7,5.4,2.9,10.7,8.2,13c3.6,1.6,10.3,1.6,12-2.9c0.9-2.6,0.1-6.7,0.1-9.5c0-4.2,0-8.4,0-12.6
	c0.1-17.3,0.2-34.7,0.3-52l-4.5,2.6l20.6,10.8L131,445c0.6,19.9,1.2,39.9,1.9,59.9c0,1.7,1.3,3,3,3l10.3-0.1c1.7,0,3-1.3,3-3
	c0.2-20.8-0.5-41.6-2.2-62.4l-1.5,2.6l53.4-34.6l84.6-55l19.7-12.8l-4.5-2.6l1.8,57.8c0,1.6,1.4,3,3,3l7.6,0l-2.9-2.2
	c1.9,5,5.7,9.1,11.4,9.4c2.4,0.2,4.8-0.6,6.6-2.2c2.1-2.1,1.4-5.6,1.4-8.5c0-15.7,0.1-31.4,0.2-47.1c0.2-33.6,0.4-67.2,0.6-100.8
	c0.1-17.9,0.2-35.7,0.3-53.6l-3,3h0.8c1.6,0,3-1.4,3-3v-45.9c0-3.9-6-3.9-6,0v45.9l3-3h-0.8c-1.6,0-3,1.4-3,3
	c-0.2,56.7-0.6,113.4-0.9,170c0,7.7,0,15.3-0.1,23c0,3.5,0,7.1,0,10.6c0,2.3-0.4,2.9-2.9,2.2c-2.3-0.6-3.8-2.6-4.6-4.8
	c-0.4-1.3-1.6-2.2-2.9-2.2l-7.6,0l3,3l-1.8-57.7c-0.1-2.2-2.5-3.9-4.5-2.6l-53.3,34.6l-84.7,55l-19.7,12.8c-0.9,0.5-1.5,1.5-1.5,2.6
	c1.7,20.8,2.4,41.5,2.2,62.4l3-3l-10.3,0.1l3,3c-0.6-19.9-1.3-39.9-1.9-59.9c0-1.1-0.6-2.1-1.5-2.6l-20.6-10.8
	c-1.4-0.8-3.3-0.3-4.1,1.1c-0.3,0.5-0.4,1-0.4,1.5c-0.1,13.6-0.2,27.2-0.2,40.9l-0.1,20.2c0,2.8,0.5,6.1,0,8.8
	c-0.4,2.1-0.4,2.6-2.9,2c-1.5-0.4-2.7-1.4-3.5-2.7c-3.2-4.8-2.1-12.4-2.2-18c0-6.1-0.1-12.3-0.1-18.4c-0.1-13.6-0.1-27.1-0.1-40.7
	c0-1.1-0.6-2.1-1.5-2.6l-61.1-32.1c-1.4-0.8-3.3-0.3-4.1,1.1c-0.3,0.5-0.4,1-0.4,1.5c0.5,18.6,0.3,37.1-0.7,55.7l3-3l-10.3-0.4l3,3
	c0.2-20.2,0.4-40.5,0.7-60.7c0-1.1-0.6-2.1-1.5-2.6l-2.2-1.1l1.5,2.6v-14.4l-4.5,2.6l1.3,0.5c3.5,1.5,6.6-3.7,3-5.2l-1.3-0.5v5.2
	c23.8-14.5,48.5-27.3,73.3-39.9c0.9-0.5,1.5-1.5,1.5-2.6c0-5.5,0-11-0.1-16.5c0-3.7,1.1-9.4-0.9-12.7c-2.6-4.1-7.4-7.7-11-10.7
	s-7.7-6.1-11.7-8.9c-17.1-12-36.1-18.5-57.1-16.2c-1.6,0-3,1.4-3,3c-0.2,56.4-0.6,112.8-0.9,169.2c-0.1,13.1-0.1,26.2-0.2,39.3
	c0,2.1,0.5,3.4-2.1,3.1c-1.8-0.3-3.4-1.3-4.3-2.8c-2.2-3.3-2.1-7.5-2.1-11.3c-0.1-6.1-0.1-12.2-0.1-18.4
	c-0.1-27.8-0.2-55.5-0.3-83.3c-0.1-30.7-0.2-61.4-0.3-92.1c0-1.7-1.3-3-3-3c-0.3,0-0.5,0-0.8,0.1l-0.2,0.1l3.8,2.9
	c0-2,0.1-4.1,0-6.1l-2.2,2.9l0,0c1.3-0.4,2.2-1.5,2.2-2.9c0-11.6,0-23.1,0-34.6l-1.5,2.5c20.7-13.1,40-28.4,58.7-44.2
	c21.1-17.6,41.5-36.1,60.7-55.8c4.6-4.7,9.2-9.5,13.6-14.4c2.2-2.4,4.3-4.8,6.4-7.2c1.4-1.7,3.7-3.5,3.8-5.8l-1.5,2.6
	c3.2-1.8,10.1,0.8,13.5,1.4L176,116c13,2.3,26,4.5,39,7c27.1,5.1,54.4,10.3,80.9,18.1c9.8,2.9,20.3,5.8,29,11.4L324.9,147.3
	l-6.5,2.8l3,5.2l6.5-2.8C331.5,151,328.4,145.8,324.9,147.3z"/>
<path d="M116.2,309c28.8-32,62.6-59.5,100.9-79.3l-4.5-2.6c0.1,17.2,0.1,34.3,0.1,51.5l3-3c-18.1,0.4-33.5,8.3-48.8,17.3
	c-17.8,10.5-36,20.2-54.4,29.6l4.5,2.6c0-6.1,0-12.2,0.1-18.3c0-3.9-6-3.9-6,0c0,6.1,0,12.2-0.1,18.3c0,1.7,1.3,3,3,3
	c0.5,0,1.1-0.1,1.5-0.4c17.3-8.8,34.4-17.9,51.1-27.7c15.5-9,30.6-18.1,49-18.4c1.6,0,3-1.4,3-3c0-17.2-0.1-34.3-0.1-51.5
	c0-1.7-1.3-3-3-3c-0.5,0-1,0.1-1.5,0.4c-38.7,20-73,47.9-102.1,80.2C109.4,307.6,113.6,311.8,116.2,309z"/>
<path d="M310.5,306c-13.6-5.7-27.3-10.9-41.2-15.8c-12.3-4.3-24.8-9.5-37.4-12.7l2.2,2.9c0.1-20.3,0.2-40.6,0.4-60.9l-1.5,2.6
	c24.3-10.9,50-18.2,76.4-21.7l-3-3c0.2,37.2,0.3,74.4,0.4,111.6c0,3.9,6,3.9,6,0c-0.1-37.2-0.1-74.4-0.4-111.6c0-1.5-1.4-3.2-3-3
	c-27.4,3.6-54.2,11.2-79.4,22.5c-0.9,0.5-1.5,1.5-1.5,2.6c-0.1,20.3-0.2,40.6-0.4,60.9c0,1.3,0.9,2.5,2.2,2.9
	c12.6,3.2,25.1,8.4,37.4,12.7c13.9,4.8,27.6,10.1,41.2,15.8C312.4,313.3,314,307.5,310.5,306z"/>
<path class="st1" d="M269.4,281.6l-41.1-0.6l-1.6-0.3c0.9,5.1,2.1,13,3.4,21.1c12.5-2.4,24.9-5.6,37-9.7
	C268.1,287.5,268.9,283.8,269.4,281.6z"/>
<path d="M269.4,280.1l-22.5-0.3c-6.4-0.1-13.6,0.7-19.8-0.5c-0.8-0.2-1.6,0.3-1.8,1.1c-0.1,0.2-0.1,0.5,0,0.7c1.2,7,2.3,14,3.4,21
	c0.2,0.8,1.1,1.2,1.8,1c9.7-1.8,19.3-4.2,28.8-7.1c2.3-0.7,7.6-1.3,9.1-3.3c1.7-2.4,1.8-7.8,2.4-10.8c0.4-1.9-2.5-2.7-2.9-0.8
	c-0.5,2.6-0.8,7.3-2.4,9.3c-2,2.4-8.5,3.2-11.6,4.1c-8,2.3-16.1,4.2-24.2,5.7l1.8,1c-1.1-7-2.2-14-3.4-21.1l-1.9,1.9
	c5.9,1.2,12.6,0.5,18.6,0.6l24.4,0.4C271.3,283.1,271.3,280.1,269.4,280.1z"/>
<path class="st1" d="M234,325.5c0.3,1.7,17.6,3.2,23.6,2.5c1.2-0.1,4.3-12.8,7.1-25.1c-10.7,4.2-21.6,8-32.6,11.3
	C232.9,318.6,233.5,322.5,234,325.5z"/>
<path d="M232.7,326.3c1.1,2.1,5.1,2.1,7.2,2.4c5.1,0.8,10.2,1.1,15.4,0.9c3.6-0.1,4.2-1,5.4-4.4c2.4-7.1,3.9-14.6,5.6-22
	c0.2-1-0.7-2.3-1.8-1.8c-10.7,4.2-21.6,8-32.6,11.3c-0.8,0.3-1.2,1.1-1,1.8c0.6,3.8,1.2,7.6,1.9,11.3c0.3,1.9,3.2,1.1,2.9-0.8
	c-0.6-3.8-1.3-7.5-1.9-11.3l-1,1.8c11-3.3,21.9-7.1,32.6-11.3l-1.9-1.9c-1.3,5.7-2.6,11.5-4.1,17.1c-0.4,2-1,3.9-1.7,5.7
	c-0.8,1.8-0.2,1.1-2.2,1.3c-3.5,0.2-7,0-10.4-0.4c-1.3-0.1-8.8-0.1-9.5-1.5C234.4,323.1,231.8,324.6,232.7,326.3z"/>
<path class="st4" d="M230.1,301.7c0.7,4.3,1.4,8.6,2,12.5c11-3.3,21.9-7.1,32.6-11.3c0.9-3.8,1.7-7.5,2.4-10.9
	C255.1,296.1,242.7,299.3,230.1,301.7z"/>
<path d="M228.7,302.1c0.7,4.2,1.3,8.4,2,12.5c0.2,0.8,1,1.3,1.8,1c8.6-2.6,17-5.5,25.4-8.6c1.9-0.7,6.8-1.7,8.1-3.4
	c1.8-2.5,1.9-8.2,2.6-11.3c0.2-0.8-0.3-1.6-1.1-1.9c-0.2-0.1-0.5-0.1-0.8,0c-12.1,4.1-24.5,7.3-37,9.7c-1.9,0.4-1.1,3.3,0.8,2.9
	c12.5-2.4,24.9-5.7,37-9.7l-1.9-1.8c-0.7,3.1-0.7,8.3-3.1,10.6c-2,1.8-7.4,2.8-9.9,3.7c-6.9,2.5-13.9,4.8-20.9,6.9l1.8,1
	c-0.7-4.2-1.3-8.4-2-12.5C231.3,299.4,228.4,300.2,228.7,302.1z"/>
<path class="st1" d="M269.6,282.9c0.7-4-1.7-8.5-5.2-10.8c-4.5-3-10.1-3.4-15.5-3.7c-19.5-1.7-22.3,9.6-22.2,13.3
	C239,270.2,258.1,270.8,269.6,282.9L269.6,282.9z"/>
<path d="M271.1,282.9c1.3-15.8-20.9-17.8-32-15.7c-7.2,1.4-13.8,6.6-13.9,14.4c0,0.8,0.7,1.5,1.6,1.5c0.4,0,0.7-0.2,1-0.4
	c11.8-10.5,29.7-10,40.8,1.2c1.4,1.4,3.5-0.8,2.1-2.1c-12.3-12.3-32.1-12.9-45-1.2l2.6,1.1c0.1-5.5,4.4-9.5,9.4-11
	c9.4-2.9,31.6-1.6,30.5,12.2C268,284.8,271,284.8,271.1,282.9z"/>
<path class="st5" d="M248.1,273.5c-7.9-0.1-15.5,2.9-21.4,8.2c0,0.3,0,0.6,0.1,0.9c0.9,3.6,5.1,5.1,8.8,5.9c6.9,1.4,14,2.1,21.1,1.9
	c4.3-0.1,9.2-0.8,11.7-4.4c0.6-0.9,1.1-2,1.3-3.1C264,277,256.2,273.7,248.1,273.5z"/>
<path d="M248.1,272c-7.2,0-14.2,2.3-20,6.6c-2.3,1.7-3.5,2.6-2.3,5.4c1,2.3,3.3,3.8,5.5,4.7c7.7,3.1,17.9,3.5,26,3.1
	c6.1-0.3,12-2,13.8-8.5c0.1-0.5,0-1.1-0.4-1.5C264.7,275.9,256.6,272.3,248.1,272c-1.9-0.1-1.9,2.9,0,3c3.6,0.1,7.1,0.9,10.4,2.2
	c2.1,0.9,8.2,3.3,9,5.7c2.3,7.2-15.4,6-18.5,5.9c-2.4-0.1-22.1-1.1-20-7c0.7-2,7-4.3,8.8-5c3.3-1.1,6.8-1.7,10.3-1.7
	c0.8,0,1.5-0.7,1.5-1.5S248.9,272,248.1,272z"/>
<path d="M234.4,284.6c8.1,0.6,16.2,0.4,24.2-0.5c1.4-0.2,2.2-2,0.8-2.8l-0.6-0.3c-1.7-0.9-3.2,1.7-1.5,2.6l0.6,0.3l0.8-2.8
	c-8,0.9-16.2,1.1-24.2,0.5C232.5,281.5,232.5,284.5,234.4,284.6L234.4,284.6z"/>
<path class="st1" d="M165.7,294.1l-41.1-0.6l-1.6-0.3c0.9,5.1,2.1,13,3.4,21c12.5-2.4,24.9-5.6,37-9.7
	C164.4,300.1,165.3,296.3,165.7,294.1z"/>
<path d="M165.7,292.6l-22.5-0.3c-6.4-0.1-13.5,0.7-19.8-0.5c-0.8-0.2-1.6,0.3-1.8,1.1c-0.1,0.2-0.1,0.5,0,0.7c1.2,7,2.3,14,3.4,21
	c0.2,0.8,1,1.3,1.8,1c9.7-1.8,19.3-4.2,28.8-7.1c2.3-0.7,7.6-1.3,9.1-3.3c1.7-2.4,1.8-7.8,2.4-10.8c0.4-1.9-2.5-2.7-2.9-0.8
	c-0.6,2.6-0.8,7.3-2.4,9.3c-2,2.4-8.5,3.2-11.6,4.1c-8,2.3-16.1,4.2-24.2,5.7l1.8,1c-1.1-7-2.2-14-3.4-21.1l-1.8,1.9
	c5.9,1.2,12.6,0.5,18.6,0.6l24.4,0.4c0.8-0.2,1.4-0.9,1.2-1.7C166.8,293.2,166.3,292.7,165.7,292.6z"/>
<path class="st1" d="M130.4,338.1c0.3,1.7,17.6,3.2,23.6,2.5c1.2-0.1,4.3-12.8,7.1-25.1c-10.7,4.2-21.6,8-32.6,11.3
	C129.2,331.1,129.8,335.1,130.4,338.1z"/>
<path d="M129.1,338.9c1.1,2.1,5.2,2.1,7.2,2.4c5.1,0.8,10.2,1.1,15.3,0.9c3.6-0.1,4.2-1,5.4-4.4c2.4-7.1,3.9-14.6,5.6-22
	c0.2-1-0.7-2.3-1.8-1.9c-10.7,4.2-21.6,8-32.6,11.3c-0.8,0.3-1.2,1.1-1,1.8c0.6,3.8,1.2,7.6,1.9,11.3c0.3,1.9,3.2,1.1,2.9-0.8
	c-0.6-3.8-1.3-7.5-1.9-11.3l-1.1,1.9c11-3.3,21.9-7.1,32.6-11.3l-1.9-1.9c-1.3,5.7-2.6,11.5-4.1,17.1c-0.4,2-1,3.9-1.7,5.7
	c-0.8,1.8-0.2,1.1-2.2,1.3c-3.5,0.2-7,0-10.4-0.4c-1.3-0.1-8.8-0.1-9.5-1.5C130.7,335.6,128.1,337.2,129.1,338.9z"/>
<path class="st4" d="M126.5,314.3c0.7,4.3,1.4,8.6,2,12.5c11-3.3,21.9-7.1,32.6-11.3c0.9-3.8,1.7-7.5,2.4-10.9
	C151.4,308.6,139,311.9,126.5,314.3z"/>
<path d="M125.1,314.6c0.7,4.2,1.3,8.4,2,12.5c0.2,0.8,1,1.3,1.8,1c8.6-2.6,17.1-5.5,25.4-8.6c1.9-0.7,6.8-1.7,8.1-3.4
	c1.8-2.5,1.9-8.2,2.6-11.3c0.2-0.8-0.3-1.6-1.1-1.8c-0.2-0.1-0.5-0.1-0.8,0c-12.1,4.1-24.5,7.3-37,9.7c-1.9,0.4-1.1,3.3,0.8,2.9
	c12.5-2.4,24.9-5.7,37-9.7l-1.9-1.8c-0.7,3.1-0.7,8.3-3.1,10.6c-2,1.8-7.4,2.8-9.9,3.7c-6.9,2.5-13.9,4.8-20.9,6.9l1.9,1
	c-0.7-4.2-1.3-8.3-2-12.5C127.6,312,124.7,312.8,125.1,314.6z"/>
<path class="st1" d="M166,295.4c0.7-4-1.7-8.5-5.2-10.8c-4.5-3-10.1-3.4-15.5-3.7c-19.5-1.7-22.3,9.6-22.2,13.3
	C135.3,282.8,154.4,283.4,166,295.4z"/>
<path d="M167.5,295.4c1.3-15.8-20.9-17.8-32-15.7c-7.2,1.4-13.8,6.6-13.9,14.4c0,0.8,0.7,1.5,1.6,1.5c0.4,0,0.7-0.2,1-0.4
	c11.8-10.5,29.7-10,40.8,1.2c1.4,1.4,3.5-0.8,2.1-2.1c-12.7-12.4-31.7-12.8-45-1.3l2.6,1.1c0.1-5.5,4.4-9.5,9.4-11
	c9.4-2.9,31.6-1.6,30.5,12.2C164.3,297.3,167.3,297.3,167.5,295.4z"/>
<path class="st5" d="M144.5,286c-7.9-0.1-15.5,2.8-21.4,8.2c0,0.3,0,0.6,0.1,0.9c0.9,3.6,5.1,5.1,8.8,5.9c6.9,1.4,14,2.1,21.1,1.9
	c4.3-0.1,9.2-0.8,11.7-4.4c0.6-0.9,1.1-2,1.2-3.1C160.3,289.6,152.6,286.2,144.5,286z"/>
<path d="M144.5,284.5c-7.2,0-14.2,2.3-20,6.6c-2.3,1.7-3.5,2.6-2.3,5.4c1,2.3,3.3,3.8,5.5,4.7c7.7,3.1,17.8,3.5,26,3.1
	c6.1-0.3,12-2,13.8-8.5c0.1-0.5,0-1.1-0.4-1.5C161,288.4,153,284.8,144.5,284.5c-1.9-0.1-1.9,2.9,0,3c3.5,0.1,7,0.9,10.3,2.2
	c2.1,0.9,8.2,3.3,9,5.7c2.3,7.2-15.4,6-18.5,5.9c-2.4-0.1-22.1-1.1-20-7c0.7-2,7-4.3,8.8-5c3.3-1.2,6.8-1.7,10.3-1.7
	c0.8-0.1,1.4-0.9,1.3-1.7C145.7,285.1,145.2,284.6,144.5,284.5z"/>
<path d="M130.8,297.2c8.1,0.6,16.2,0.4,24.2-0.5c1.4-0.2,2.2-2,0.8-2.8l-0.6-0.3c-1.7-0.9-3.2,1.7-1.5,2.6l0.6,0.3l0.8-2.8
	c-8,0.9-16.2,1.1-24.2,0.5C128.8,294,128.9,297,130.8,297.2z"/>
<path class="st1" d="M215.1,272l-41-0.6l-1.6-0.3c0.9,5.1,2.1,13,3.4,21c12.5-2.4,24.9-5.6,37-9.7
	C213.8,277.9,214.6,274.2,215.1,272z"/>
<path d="M215.1,270.5l-22.5-0.3c-6.4-0.1-13.5,0.7-19.8-0.5c-0.8-0.2-1.6,0.3-1.9,1.1c-0.1,0.2-0.1,0.5,0,0.7c1.2,7,2.3,14,3.4,21
	c0.2,0.8,1.1,1.3,1.9,1c9.7-1.8,19.3-4.2,28.8-7.1c2.3-0.7,7.6-1.3,9.1-3.3c1.7-2.4,1.8-7.8,2.4-10.8c0.4-1.9-2.5-2.7-2.9-0.8
	c-0.6,2.5-0.8,7.3-2.4,9.3c-2,2.4-8.5,3.2-11.6,4.1c-8,2.3-16.1,4.2-24.2,5.7l1.9,1c-1.1-7-2.2-14-3.4-21l-1.8,1.9
	c5.9,1.2,12.6,0.5,18.6,0.6l24.4,0.4c0.8,0,1.5-0.7,1.5-1.5C216.6,271.1,215.9,270.5,215.1,270.5z"/>
<path class="st1" d="M179.7,316c0.3,1.7,17.6,3.2,23.6,2.5c1.2-0.1,4.3-12.8,7.1-25.1c-10.7,4.2-21.6,8-32.6,11.3
	C178.6,309,179.2,313,179.7,316z"/>
<path d="M178.4,316.7c1.1,2.1,5.2,2.1,7.2,2.4c5.1,0.8,10.2,1.1,15.4,0.9c3.6-0.1,4.2-1,5.4-4.4c2.4-7.1,3.9-14.6,5.6-22
	c0.2-1-0.7-2.3-1.9-1.9c-10.7,4.2-21.6,8-32.6,11.3c-0.8,0.2-1.2,1-1.1,1.8c0.6,3.8,1.2,7.6,1.9,11.3c0.3,1.9,3.2,1.1,2.9-0.8
	c-0.6-3.8-1.2-7.5-1.9-11.3l-1,1.9c11-3.4,21.9-7.1,32.6-11.3l-1.9-1.8c-1.3,5.7-2.6,11.5-4.1,17.1c-0.4,2-1,3.9-1.7,5.7
	c-0.8,1.8-0.2,1.1-2.2,1.3c-3.5,0.1-7,0-10.4-0.4c-1.3-0.1-8.8-0.1-9.5-1.5C180.1,313.5,177.5,315,178.4,316.7z"/>
<path class="st4" d="M175.9,292.1c0.7,4.3,1.4,8.6,2,12.5c11-3.3,21.9-7.1,32.6-11.3c0.9-3.8,1.7-7.5,2.4-10.9
	C200.8,286.5,188.4,289.8,175.9,292.1z"/>
<path d="M174.4,292.5c0.7,4.2,1.3,8.3,2,12.5c0.2,0.8,1.1,1.3,1.9,1c8.6-2.6,17-5.5,25.4-8.6c1.9-0.7,6.8-1.7,8.1-3.4
	c1.8-2.5,1.9-8.2,2.6-11.3c0.2-0.8-0.3-1.6-1.1-1.8c-0.2-0.1-0.5-0.1-0.8,0c-12.1,4.1-24.5,7.3-37,9.7c-1.9,0.4-1.1,3.3,0.8,2.9
	c12.5-2.4,24.9-5.7,37-9.7l-1.9-1.8c-0.7,3.1-0.7,8.3-3.1,10.6c-2,1.8-7.4,2.8-9.9,3.7c-6.9,2.5-13.9,4.8-20.9,6.9l1.9,1
	c-0.7-4.2-1.3-8.3-2-12.5C177,289.8,174.1,290.6,174.4,292.5z"/>
<path class="st1" d="M215.4,273.3c0.7-4-1.7-8.5-5.2-10.8c-4.5-3-10.1-3.4-15.5-3.7c-19.5-1.8-22.3,9.6-22.2,13.2
	C184.7,260.6,203.8,261.2,215.4,273.3L215.4,273.3z"/>
<path d="M216.9,273.3c1.3-15.8-20.9-17.8-32-15.6c-7.2,1.4-13.8,6.6-13.9,14.4c0,0.8,0.7,1.5,1.6,1.5c0.4,0,0.7-0.2,1-0.4
	c11.8-10.5,29.7-9.9,40.8,1.3c1.4,1.3,3.5-0.8,2.1-2.1c-12.7-12.4-31.7-12.8-45-1.2l2.6,1c0.1-5.5,4.4-9.5,9.4-11
	c9.4-2.9,31.6-1.6,30.5,12.2C213.7,275.2,216.7,275.2,216.9,273.3z"/>
<path class="st5" d="M193.8,263.9c-7.9-0.1-15.5,2.8-21.4,8.1c0,0.3,0,0.6,0.1,0.9c0.9,3.6,5.1,5.2,8.8,5.9c6.9,1.4,14,2.1,21.1,1.9
	c4.3-0.1,9.2-0.8,11.7-4.4c0.6-0.9,1.1-2,1.2-3.1C209.7,267.4,202,264.1,193.8,263.9z"/>
<path d="M193.8,262.4c-7.2,0-14.2,2.3-20,6.6c-2.3,1.7-3.5,2.6-2.3,5.4c1,2.3,3.3,3.8,5.5,4.7c7.7,3.1,17.9,3.5,26,3
	c6.1-0.3,12-2,13.8-8.5c0.1-0.5,0-1.1-0.4-1.5C210.4,266.2,202.4,262.7,193.8,262.4c-1.9-0.1-1.9,2.9,0,3c3.5,0.1,7,0.9,10.3,2.2
	c2.1,0.9,8.2,3.3,9,5.6c2.3,7.2-15.4,6-18.5,5.9c-2.4-0.1-22.1-1.1-20-7c0.7-2,7-4.3,8.8-5c3.3-1.2,6.8-1.7,10.3-1.7
	c0.8-0.1,1.4-0.9,1.3-1.7C195.1,263,194.5,262.4,193.8,262.4z"/>
<path d="M180.1,275c8.1,0.6,16.2,0.4,24.2-0.5c1.4-0.1,2.2-2,0.8-2.8l-0.6-0.3c-1.7-0.9-3.2,1.7-1.5,2.6l0.6,0.3l0.8-2.8
	c-8,0.9-16.2,1.1-24.2,0.5C178.2,271.9,178.2,274.9,180.1,275z"/>
<path class="st1" d="M218.8,321.1l-41.1-0.6l-1.6-0.3c0.9,5.1,2.1,13,3.4,21c12.5-2.4,24.9-5.6,37-9.7
	C217.6,327.1,218.4,323.3,218.8,321.1z"/>
<path d="M218.8,319.6l-22.5-0.3c-6.4-0.1-13.5,0.7-19.8-0.5c-0.8-0.2-1.6,0.3-1.8,1.1c-0.1,0.2-0.1,0.5,0,0.7c1.2,7,2.3,14,3.4,21
	c0.3,0.8,1.1,1.2,1.9,1c9.7-1.8,19.3-4.2,28.8-7.1c2.3-0.7,7.6-1.3,9.1-3.3c1.7-2.4,1.8-7.8,2.4-10.8c0.4-1.9-2.5-2.7-2.9-0.8
	c-0.6,2.5-0.8,7.3-2.4,9.3c-2,2.4-8.5,3.2-11.6,4.1c-8,2.3-16.1,4.2-24.2,5.7l1.9,1c-1.1-7-2.2-14-3.4-21l-1.8,1.9
	c5.9,1.2,12.6,0.5,18.6,0.6l24.4,0.4C220.8,322.6,220.8,319.6,218.8,319.6z"/>
<path class="st1" d="M183.5,365.1c0.3,1.7,17.6,3.2,23.6,2.5c1.2-0.1,4.3-12.8,7.1-25.1c-10.7,4.2-21.5,8-32.6,11.3
	C182.3,358.1,183,362.1,183.5,365.1z"/>
<path d="M182.2,365.9c1.1,2.1,5.2,2.1,7.2,2.4c5.1,0.8,10.2,1.1,15.4,0.9c3.6-0.1,4.2-1,5.4-4.4c2.4-7.1,3.9-14.6,5.6-22
	c0.2-1-0.7-2.3-1.9-1.9c-10.7,4.2-21.6,8-32.6,11.3c-0.8,0.3-1.2,1.1-1,1.8c0.6,3.8,1.2,7.6,1.9,11.3c0.3,1.9,3.2,1.1,2.9-0.8
	c-0.6-3.8-1.2-7.5-1.9-11.3l-1.1,1.9c11-3.4,21.9-7.2,32.6-11.3l-1.8-1.9c-1.3,5.7-2.6,11.5-4.1,17.1c-0.4,2-1,3.9-1.7,5.7
	c-0.8,1.8-0.2,1.1-2.2,1.3c-3.5,0.1-7,0-10.4-0.4c-1.3-0.1-8.8-0.1-9.5-1.5C183.8,362.6,181.2,364.2,182.2,365.9z"/>
<path class="st4" d="M179.6,341.3c0.7,4.3,1.4,8.6,2,12.5c11-3.3,21.9-7.1,32.6-11.3c0.9-3.8,1.7-7.5,2.4-10.9
	C204.5,335.6,192.1,338.9,179.6,341.3z"/>
<path d="M178.1,341.7c0.7,4.2,1.3,8.4,2,12.5c0.2,0.8,1,1.3,1.9,1c8.6-2.6,17-5.5,25.4-8.6c1.9-0.7,6.8-1.7,8.1-3.4
	c1.8-2.5,1.9-8.2,2.6-11.3c0.2-0.8-0.3-1.6-1.1-1.8c-0.2-0.1-0.5-0.1-0.8,0c-12.1,4.1-24.5,7.3-37,9.7c-1.9,0.4-1.1,3.3,0.8,2.9
	c12.5-2.4,24.9-5.6,37-9.7l-1.8-1.8c-0.7,3.1-0.7,8.3-3.1,10.6c-2,1.8-7.4,2.8-9.9,3.7c-6.9,2.5-13.9,4.8-20.9,6.9l1.9,1
	c-0.7-4.2-1.3-8.3-2-12.5C180.7,339,177.9,339.8,178.1,341.7z"/>
<path class="st1" d="M219.1,322.4c0.7-4-1.7-8.5-5.2-10.8c-4.5-3-10.1-3.4-15.5-3.7c-19.5-1.7-22.3,9.6-22.2,13.3
	C188.4,309.8,207.5,310.4,219.1,322.4z"/>
<path d="M220.6,322.4c1.3-15.8-20.9-17.8-32-15.6c-7.2,1.4-13.8,6.6-13.9,14.4c0,0.8,0.7,1.5,1.6,1.5c0.4,0,0.7-0.2,1-0.4
	c11.8-10.5,29.6-9.9,40.7,1.2c1.4,1.3,3.5-0.8,2.1-2.1c-12.7-12.4-31.7-12.8-45-1.2l2.6,1.1c0.1-5.5,4.4-9.5,9.4-11
	c9.4-2.9,31.6-1.6,30.5,12.2C217.4,324.4,220.4,324.3,220.6,322.4z"/>
<path class="st5" d="M197.6,313c-7.9-0.1-15.5,2.8-21.4,8.2c0,0.3,0,0.6,0.1,0.9c0.9,3.6,5.1,5.1,8.8,5.9c6.9,1.4,14,2.1,21.1,1.9
	c4.3-0.1,9.2-0.8,11.7-4.4c0.7-0.9,1.1-2,1.3-3.1C213.4,316.6,205.7,313.2,197.6,313z"/>
<path d="M197.6,311.5c-7.2,0-14.2,2.3-20,6.6c-2.3,1.7-3.5,2.6-2.3,5.4c1,2.3,3.3,3.8,5.5,4.7c7.7,3.1,17.9,3.5,26,3
	c6.1-0.3,12-2,13.8-8.5c0.1-0.5,0-1.1-0.4-1.5C214.1,315.4,206.1,311.9,197.6,311.5c-1.9-0.1-1.9,2.9,0,3c3.5,0.1,7,0.9,10.3,2.2
	c2.1,0.9,8.2,3.3,9,5.7c2.3,7.2-15.4,6-18.5,5.9c-2.4-0.1-22.1-1.1-20-7c0.7-2,7-4.3,8.8-5c3.3-1.2,6.8-1.7,10.3-1.7
	c0.8-0.1,1.4-0.9,1.3-1.7C198.8,312.1,198.3,311.6,197.6,311.5z"/>
<path d="M183.9,324.2c8.1,0.6,16.2,0.4,24.2-0.5c1.4-0.1,2.2-2,0.8-2.8l-0.6-0.3c-1.7-0.9-3.2,1.7-1.5,2.6l0.6,0.3l0.8-2.8
	c-8,0.9-16.2,1.1-24.2,0.5C181.9,321,181.9,324,183.9,324.2L183.9,324.2z"/>
<path class="st1" d="M165.5,351.1l-41-0.6l-1.6-0.3c0.9,5.1,2.1,13,3.4,21c12.5-2.4,24.9-5.6,37-9.7
	C164.3,357.1,165.1,353.3,165.5,351.1z"/>
<path d="M165.5,349.6l-22.5-0.3c-6.4-0.1-13.5,0.7-19.8-0.5c-0.8-0.2-1.6,0.3-1.8,1.1c-0.1,0.2-0.1,0.5,0,0.7c1.2,7,2.3,14,3.4,21
	c0.2,0.8,1.1,1.3,1.8,1c9.7-1.9,19.3-4.2,28.8-7.1c2.3-0.7,7.6-1.3,9.1-3.3c1.7-2.4,1.8-7.8,2.4-10.8c0.4-1.9-2.5-2.7-2.9-0.8
	c-0.6,2.6-0.7,7.3-2.4,9.3c-2,2.4-8.5,3.2-11.6,4.1c-8,2.3-16.1,4.2-24.2,5.7l1.8,1c-1.1-7-2.2-14-3.4-21l-1.8,1.8
	c6,1.2,12.6,0.5,18.6,0.6l24.4,0.4C167.5,352.7,167.5,349.7,165.5,349.6z"/>
<path class="st1" d="M130.2,395.1c0.3,1.7,17.6,3.2,23.6,2.5c1.2-0.1,4.3-12.8,7.1-25.1c-10.7,4.2-21.6,8-32.6,11.3
	C129,388.2,129.7,392.1,130.2,395.1z"/>
<path d="M128.9,395.9c1.1,2.1,5.1,2.1,7.1,2.4c5.1,0.8,10.2,1.1,15.4,0.9c3.6-0.1,4.2-1,5.4-4.4c2.4-7.1,3.9-14.6,5.6-22
	c0.2-1-0.7-2.3-1.9-1.8c-10.7,4.2-21.6,8-32.6,11.3c-0.8,0.3-1.2,1.1-1,1.9c0.6,3.8,1.2,7.5,1.9,11.3c0.3,1.9,3.2,1.1,2.9-0.8
	c-0.6-3.8-1.3-7.6-1.9-11.3l-1,1.8c11-3.3,21.9-7.1,32.6-11.3l-1.9-1.8c-1.3,5.7-2.6,11.5-4.1,17.1c-0.4,2-1,3.9-1.7,5.7
	c-0.8,1.8-0.2,1.2-2.2,1.3c-3.5,0.2-7,0-10.4-0.4c-1.3-0.1-8.8-0.1-9.5-1.5C130.5,392.7,128,394.2,128.9,395.9z"/>
<path class="st4" d="M126.3,371.3c0.7,4.3,1.4,8.6,2,12.5c11-3.3,21.9-7.1,32.6-11.3c0.9-3.8,1.7-7.5,2.4-10.9
	C151.2,365.7,138.9,368.9,126.3,371.3z"/>
<path d="M124.9,371.7c0.7,4.2,1.3,8.3,2,12.5c0.2,0.8,1.1,1.2,1.9,1c8.6-2.6,17-5.5,25.4-8.6c1.9-0.7,6.8-1.7,8.1-3.4
	c1.8-2.5,1.9-8.2,2.6-11.3c0.2-0.8-0.3-1.6-1.1-1.9c-0.2-0.1-0.5-0.1-0.8,0c-12.1,4.1-24.5,7.3-37,9.7c-1.9,0.4-1.1,3.3,0.8,2.9
	c12.5-2.4,24.9-5.7,37-9.7l-1.8-1.9c-0.7,3.1-0.7,8.3-3.1,10.6c-2,1.8-7.4,2.8-9.9,3.7c-6.9,2.5-13.9,4.8-20.9,6.9l1.8,1
	c-0.7-4.2-1.3-8.3-2-12.5C127.4,369,124.6,369.8,124.9,371.7z"/>
<path class="st1" d="M165.8,352.4c0.7-4-1.7-8.5-5.2-10.8c-4.5-3-10.1-3.4-15.5-3.7c-19.5-1.7-22.3,9.6-22.2,13.3
	C135.1,339.8,154.2,340.4,165.8,352.4z"/>
<path d="M167.3,352.4c1.3-15.8-20.9-17.8-32-15.6c-7.2,1.4-13.8,6.6-13.9,14.4c0,0.8,0.7,1.5,1.6,1.5c0.4,0,0.7-0.2,1-0.4
	c11.8-10.5,29.7-10,40.8,1.2c1.4,1.4,3.5-0.8,2.1-2.1c-12.3-12.3-32.1-12.9-45-1.2l2.6,1.1c0.1-5.5,4.4-9.5,9.4-11
	c9.4-2.9,31.6-1.6,30.5,12.2C164.1,354.4,167.1,354.3,167.3,352.4z"/>
<path class="st5" d="M144.3,343c-7.9-0.1-15.5,2.9-21.4,8.2c0,0.3,0,0.6,0.1,0.9c0.9,3.6,5.1,5.1,8.8,5.9c6.9,1.4,14,2.1,21.1,1.9
	c4.3-0.1,9.2-0.8,11.7-4.4c0.6-0.9,1.1-2,1.3-3.1C160.1,346.6,152.4,343.2,144.3,343z"/>
<path d="M144.3,341.5c-7.2,0-14.2,2.3-20,6.6c-2.3,1.7-3.5,2.6-2.3,5.5c1,2.3,3.3,3.8,5.5,4.7c7.7,3.1,17.8,3.5,26,3.1
	c6.1-0.3,12-2,13.8-8.5c0.1-0.5,0-1.1-0.4-1.5C160.8,345.4,152.8,341.9,144.3,341.5c-1.9-0.1-1.9,2.9,0,3c3.6,0.1,7.1,0.9,10.4,2.2
	c2.1,0.9,8.2,3.3,9,5.7c2.3,7.2-15.4,6-18.5,5.9c-2.4-0.1-22.1-1.1-20-7c0.7-2,7-4.3,8.8-5c3.3-1.2,6.8-1.7,10.3-1.7
	c0.8-0.1,1.4-0.9,1.3-1.7C145.5,342.1,145,341.6,144.3,341.5z"/>
<path d="M130.6,354.2c8.1,0.6,16.2,0.4,24.2-0.5c1.4-0.1,2.2-2,0.8-2.8l-0.6-0.3c-1.7-0.9-3.2,1.7-1.5,2.6l0.6,0.3l0.8-2.8
	c-8,0.9-16.2,1.1-24.2,0.5C128.6,351,128.7,354,130.6,354.2L130.6,354.2z"/>
<path d="M116,199.7c-2.2,11.1-3.8,22.3-4.6,33.5c-0.2,1,0,2,0.4,2.9c0.9,1.3,2.9,1.3,4.5,0.9s3.3-1,4.7-0.4
	c1.3-12.7,2.3-25.5,2.8-38.3l-9.3,2.9"/>
<path d="M114.5,199.3c-2,10-3.4,20-4.4,30.2c-0.2,2.7-1.2,6.5,1.4,8.4s6-0.5,9,0.1c0.8,0.2,1.7-0.3,1.9-1.1c0-0.1,0-0.2,0-0.3
	c1.3-12.7,2.3-25.5,2.8-38.3c0-0.8-0.7-1.5-1.5-1.5c-0.1,0-0.3,0-0.4,0.1l-9.4,2.9c-1.8,0.6-1.1,3.5,0.8,2.9l9.3-2.9l-1.9-1.4
	c-0.5,12.8-1.4,25.6-2.8,38.3l1.9-1.4c-2.8-0.6-7,1.6-8.5-1.9c-0.9-2,0.7-8.1,1-10.3c0.9-7.7,2.1-15.3,3.6-22.8
	C117.8,198.2,114.9,197.4,114.5,199.3L114.5,199.3z"/>
<path d="M266.4,131.7c8.1,7.8,16.7,15.2,25.8,21.9c0.7,0.7,1.7,1.1,2.6,1.2c1.6-0.1,2.6-1.8,3.1-3.3s0.9-3.3,2.3-4.2
	c-10-8-20.3-15.7-30.8-23l-2.6,9.4"/>
<path d="M265.3,132.8c7.3,7,15,13.7,23.1,19.9c2.2,1.7,4.9,4.6,7.9,3.3c3.2-1.3,2.7-5.4,4.9-7.6c0.6-0.6,0.6-1.5,0-2.1
	c-10.1-8.1-20.5-15.8-31.1-23.2c-0.7-0.4-1.6-0.2-2.1,0.6c-0.1,0.1-0.1,0.2-0.1,0.3l-2.6,9.4c-0.2,0.8,0.3,1.6,1.1,1.8
	c0.8,0.2,1.6-0.3,1.8-1l2.6-9.4l-2.2,0.9c10.4,7.2,20.6,14.8,30.5,22.7v-2.1c-1.6,1.5-1.4,3.4-2.6,4.8c-3.4,4-9.5-3.3-12.1-5.5
	c-5.8-4.8-11.4-9.8-16.9-15C266,129.3,263.9,131.4,265.3,132.8L265.3,132.8z"/>
<path class="st1" d="M74,119.7c7.4,24.8,18.6,54.3,26,79.1c1.2,4.1,2.8,8.7,6.7,10.6s8.8,0.3,12.9-1.4l148.2-60.5
	c7.8-3.2,16.5-7.2,19.5-15.1c2.8-7.2,0-15.3-2.9-22.5c-9.6-24.4-20.1-43.2-29.7-67.6C192.5,66.4,132.8,88.5,74,119.7"/>
<path d="M71.1,120.5c7.5,25,16.8,49.4,24.5,74.4c2.9,9.2,6.1,20.3,18.2,18.1c6.6-1.2,13.1-4.8,19.3-7.3l21-8.6l81.4-33.2
	c12.5-5.1,25.3-9.9,37.6-15.4c9.7-4.3,18.3-11.3,18.2-22.8c-0.1-7-3-13.7-5.6-20.1c-2.7-6.9-5.7-13.6-8.8-20.3
	c-6.6-14.5-13.6-28.8-19.5-43.7c-0.5-1.4-2.1-2.7-3.7-2.1c-61.4,23.7-123.1,46.8-181.3,77.7c-3.4,1.8-0.4,7,3,5.2
	c57.8-30.7,119-53.5,179.9-77l-3.7-2.1c9.1,22.9,20.8,44.7,29.7,67.6c2.3,5.9,5.2,12.8,3.4,19.2c-1.5,5.4-6.1,8.9-10.8,11.4
	c-10.9,5.8-23.1,9.8-34.6,14.5l-73.2,29.9l-36.6,14.9c-5.4,2.2-11.3,5.6-17.1,6.4c-8.2,1.2-9.4-7.8-11.2-13.8
	c-7.7-25-17-49.4-24.5-74.4C75.7,115.3,69.9,116.9,71.1,120.5L71.1,120.5z"/>
<path d="M247.2,97.3c-0.2-0.4,1.8-1.4,2.2-1.5c0.7-0.3,1.4-0.5,2.2-0.5c0.4,0.2,1.1,2.2,1.3,2.6c0.4,0.8,0.9,1.6,1.4,2.3
	c2.5,4.3,1.6,3.3,4.7,6.3c2.4,1.9,5,3.4,7.8,4.6c0.6,0.2,3.6,0.3,3.7,0.6s-0.2,0.6-0.3,0.8c-0.3,0.6-1.1,3.5-1.4,3.6
	c-1-0.1-1.9-0.3-2.8-0.6c-1.1-0.3-2.1-0.7-3.2-1.1c-0.3-0.1-5.4-3.2-5.5-3.3c-0.6-0.7-2.3-2.8-2.8-3.2c-0.2,0.8-0.3,1.6-0.4,2.3
	c-0.2,1-0.4,2-0.6,3c-0.7,3.9-0.1,4.7-2.4,7.9c-0.3,0.4-1,1.6-1.4,1.7c-0.1,0-0.3,0-0.4,0c-0.9-0.2-1.8-0.8-2.8-1
	c-0.2,0-0.4-0.1-0.6-0.1c-0.1,0-0.1-0.1-0.1-0.2c-0.1-0.2,0.2-0.5,0.3-0.6c1.2-2.1,2-2.9,2.8-5.3c1.1-3.5,1.3-7.2,0.8-10.8
	c0-0.8-0.1-1.5-0.3-2.3c-0.3-0.7-0.8-1.3-1.1-2L247.2,97.3z"/>
<path d="M165.5,92.1l87.4-33.8l-1.7-0.7c4.1,9.2,8.2,18.4,12.1,27.6c5,11.7,11.5,24.3,13.8,36.9c0.3,1.9,3.2,1.1,2.9-0.8
	c-2.2-12.5-8.7-25-13.6-36.6c-4.1-9.6-8.2-19.1-12.5-28.6c-0.3-0.6-1-0.9-1.7-0.7l-87.4,33.8C162.9,89.9,163.7,92.8,165.5,92.1z"/>
<path d="M201.3,163.2l-87.4,33.8l1.8,1c-9.9-23.5-20.5-46.8-29.1-70.8c-0.7-1.8-3.6-1-2.9,0.8c8.5,24,19.2,47.4,29.1,70.8
	c0.2,0.8,1.1,1.3,1.8,1.1l87.4-33.8C203.9,165.3,203.1,162.4,201.3,163.2L201.3,163.2z"/>
</svg>
