<svg xmlns="http://www.w3.org/2000/svg" viewBox="0 0 330 550"><defs><style>.a{fill:#fff;}.b{fill:#00b997;}.c{fill:#f88334;}.d{fill:#ffbc18;}.e{fill:#f15a24;}</style></defs><title>board-15-2</title><path class="a" d="M65.86,342c-9.13,13.14-12.32,29.49-13.64,45.43A235.31,235.31,0,0,0,74.82,508.8c5.36-5.33,4.81-14,4.28-21.53a208.83,208.83,0,0,1,12.16-85.84c2.64-7.22,5.69-14.32,7.62-21.76s2.68-15.38.69-22.81-7.06-14.28-14.21-17.1-16.3-.81-20.63,5.55"/><path d="M64.56,341.29c-15.73,23.33-16,55.67-14,82.71a239.24,239.24,0,0,0,22.93,85.56,1.51,1.51,0,0,0,2.36.3c8.53-9.44,4.25-25.05,4.23-36.51A207.63,207.63,0,0,1,93,401c2.76-7.48,5.94-14.86,7.73-22.66,2.74-12,2.07-25.83-7.22-34.95-8.5-8.34-22.65-8.72-30.09,1.16-1.16,1.55,1.44,3,2.59,1.52,5.26-7,15.34-7.73,22.37-3,6.86,4.6,10.26,12.79,10.77,20.79,1.08,16.89-8.43,32.93-13.17,48.66a210.9,210.9,0,0,0-8.52,72.93c.45,7.52,1.78,16.24-3.72,22.32l2.35.31A235.11,235.11,0,0,1,53.59,424c-2-26.57-1.88-58.29,13.56-81.2,1.08-1.6-1.51-3.11-2.59-1.51Z"/><path class="a" d="M51.42,514.76c-.24,1.8,1.09,3.34,1.68,4.81s1.47,3,3,3.52a6.43,6.43,0,0,0,3.29,0c6.88-1.15,13.68-2.75,20.48-4.35,1.29-.3,2.72-.7,3.41-1.83s.4-2.56.09-3.83c-.34-1.45-.84-3.08-2.21-3.67a4.39,4.39,0,0,0-2.44-.12,55.11,55.11,0,0,0-6.46,1.53c-6.91,1.93-13.68,2.08-20.6,4"/><path d="M49.92,514.76c.34,5.5,3.8,10.61,9.63,9.84,5.08-.68,10.13-1.94,15.12-3.08,2.89-.67,7.88-.87,9.75-3.67,2.27-3.41-.26-9.89-4.5-10.14-3.87-.23-8.12,1.81-11.85,2.59-5.6,1.17-11.29,1.68-16.85,3.11-1.86.48-1.07,3.37.8,2.89,4.94-1.27,10-1.83,15-2.75,2.92-.54,13.25-4.73,14.75-.59,1.86,5.15-10.56,6.29-13.45,6.91-5.74,1.23-14.85,3.36-15.37-5.11-.12-1.92-3.12-1.93-3,0Z"/><path class="b" d="M65,502.72c-1.22.75-2.9.54-4.43.61a10,10,0,0,0-9.6,8.89c-.3,2.93,1.21,6.79,4.26,7.65A7.5,7.5,0,0,0,59,519.7l15.31-3.36c1.42-.31,7.3-1.29,8.27-2.28,1.58-1.6-.53-24.57-1.6-32.42a2.83,2.83,0,0,0-.88-2,2.45,2.45,0,0,0-2.43,0c-3.31,1.32-14.08,5.72-17.39,7.05C60.26,486.69,67.2,501.38,65,502.72Z"/><path d="M64.61,501.28c-3.33,1.17-6.61.33-9.77,2.28a11.51,11.51,0,0,0-4.7,5.71c-1.56,4.23-.33,10.23,4.34,11.89,2.78,1,6-.26,8.73-.85,4.33-.95,8.65-1.93,13-2.82,3.17-.66,7.35-.74,8.21-4.36,1-4.14.09-9.37-.2-13.53-.38-5.49-.8-11-1.56-16.47-.62-4.55-2.31-6-6.76-4.39-5.4,2-10.69,4.35-16,6.5a1.54,1.54,0,0,0-.9,2.2c1,2.06,6.51,12.69,5,14.22-1.35,1.38.77,3.5,2.12,2.13,3.55-3.6-2.79-14.19-4.52-17.86l-.89,2.2q4.94-2,9.86-4L75.84,482c1.94-.78,2.91-1.1,3.81,1.16,1.09,2.71.77,6.95,1,9.85.35,3.92.66,7.85.83,11.78.08,1.84.95,6.37-.07,8s-7.34,2.05-9.46,2.51l-9.57,2.11c-4.26.93-9.52,1.91-10-4.06-.25-3.31,2.06-6.3,4.9-7.67,2.56-1.24,5.41-.59,8.06-1.52C67.22,503.54,66.44,500.64,64.61,501.28Z"/><path d="M65.73,498.72a12.72,12.72,0,0,0-7.36-6.61c-2.28-.76-6.31-1.39-8,.91-4.2,5.73,12.12,9.07,15.13,9.32,1.77.14,1.92-2.43.4-2.95a30.59,30.59,0,0,0-14.26-1.51c-2.09.28-6.13.69-6,3.65.08,3.18,4.7,3.41,6.93,3.7a39.6,39.6,0,0,0,14.86-1,1.52,1.52,0,0,0,.66-2.51,2.41,2.41,0,0,0-1.85-.81c-1.92-.17-1.91,2.83,0,3l-.27-.07.66-2.5a37.68,37.68,0,0,1-8.52,1.23c-1,0-8.47,0-8.56-.86-.28-2.59,13.94,0,15.61.61l.39-2.94a26.34,26.34,0,0,1-5.78-1.09c-1-.32-4.9-1.32-5.37-2.47-1.18-2.88,4.39-.28,4.9,0a9.88,9.88,0,0,1,3.88,4.43c.85,1.73,3.44.21,2.59-1.52Z"/><path d="M65.77,500.43l5.32-.61a1.54,1.54,0,0,0,1.5-1.5,1.5,1.5,0,0,0-1.5-1.5l-5.32.61a1.54,1.54,0,0,0-1.5,1.5,1.51,1.51,0,0,0,1.5,1.5Z"/><path d="M65.63,502.92a25.28,25.28,0,0,1,4.19,1.17,1.5,1.5,0,1,0,.8-2.89,25.39,25.39,0,0,0-4.2-1.17,1.54,1.54,0,0,0-1.84,1.05,1.51,1.51,0,0,0,1,1.84Z"/><path d="M63.86,504.15a30.5,30.5,0,0,1,3,4.26c.85,1.41,3.32.49,2.75-1.16l-.09-.25c-.63-1.81-3.53-1-2.89.8l.08.25,2.74-1.16A34.88,34.88,0,0,0,66,502c-1.26-1.47-3.37.66-2.12,2.12Z"/><path d="M64.79,496.69c1.49,0,3-.92,4.27-.18,1.47.86.94,3.17.64,4.74a11.23,11.23,0,0,1-1.38,3.82c-1.32,2.08-6.1,3.55-5.84-.29.13-1.93-2.88-1.92-3,0a5.16,5.16,0,0,0,4.69,5.52c3.31.36,6-2,7.35-4.89s2.14-7,1.17-9.93c-1.33-4-5-1.85-7.9-1.79-1.93,0-1.94,3,0,3Z"/><path d="M62.6,491.05A39.76,39.76,0,0,1,80.78,486c1.93-.07,1.93-3.07,0-3a43.16,43.16,0,0,0-19.69,5.46c-1.69.94-.18,3.53,1.51,2.59Z"/><path class="a" d="M106.75,371.09c2.84,15.75,12.15,29.55,22.5,41.76a235.21,235.21,0,0,0,101.8,69.76c0-7.56-6.49-13.28-12.2-18.25a208.64,208.64,0,0,1-52.13-69.27c-3.24-7-6.11-14.14-10-20.77s-9-12.76-15.64-16.6-15.1-5.1-22.15-2-12.09,11-10.64,18.52"/><path d="M105.3,371.49c5.51,28.21,29,51.78,50.19,69.66a238.93,238.93,0,0,0,75.17,42.91,1.5,1.5,0,0,0,1.89-1.45c-.32-5.93-3.38-10.49-7.49-14.6-5.2-5.21-11-9.8-16.18-15A207.62,207.62,0,0,1,180,416.48c-8.1-13-13.37-27.23-20.69-40.6-6.12-11.15-15.6-21.79-29-23.24-12.94-1.41-25.4,8.29-23.51,22,.26,1.9,3.15,1.09,2.89-.8-1.41-10.26,7.5-17.93,17.14-18.32,8.87-.37,16.85,4.71,22.52,11.13,10.66,12.08,15.17,28.79,22.92,42.7a210.09,210.09,0,0,0,43,53.89c5.9,5.3,13.81,10.75,14.28,19.41l1.9-1.44A235.21,235.21,0,0,1,157.61,439a230,230,0,0,1-28.9-29.15c-9.51-11.52-17.62-24.34-20.52-39.18-.37-1.9-3.26-1.1-2.89.79Z"/><path class="a" d="M218.73,503.38c1.11,1.44,3.13,1.58,4.59,2.21a5.73,5.73,0,0,0,4.58.4,6.5,6.5,0,0,0,2.35-2.31c4.05-5.69,7.73-11.63,11.4-17.57.7-1.13,1.43-2.42,1.11-3.71s-1.52-2.08-2.64-2.77c-1.27-.78-2.78-1.58-4.16-1a4.41,4.41,0,0,0-1.81,1.65,54.42,54.42,0,0,0-3.48,5.64c-3.52,6.26-8.21,11.16-11.73,17.41"/><path d="M217.67,504.44c3.88,3.42,10.05,4.86,13.54.44a144.82,144.82,0,0,0,8.72-13.16c1.58-2.52,5-6.21,4.31-9.52-1-4.93-8.06-6.64-11.15-3-2.63,3.08-4.26,7.08-6.54,10.43-3,4.33-6.24,8.39-8.9,12.92a1.5,1.5,0,0,0,2.59,1.52c2.37-4,5.21-7.7,7.9-11.51,1.36-1.92,2.62-3.87,3.82-5.9,1.59-2.68,1.82-4.07,5-5,5.71-1.7,3.1,4.24,1.42,6.94-1.34,2.16-2.69,4.31-4.07,6.44s-2.57,4.58-4.23,6.33q-1.71,3.54-6.33,2.78a15.59,15.59,0,0,1-3.93-1.82c-1.44-1.28-3.57.84-2.12,2.12Z"/><path class="b" d="M219.82,485.25c-.33,1.4-1.67,2.44-2.7,3.57a10,10,0,0,0-.5,13.08c1.86,2.27,5.67,3.93,8.42,2.38a7.5,7.5,0,0,0,2.53-2.76L236,488.31c.78-1.22,4.24-6.08,4.23-7.46,0-2.25-17.76-17-24.07-21.78a2.85,2.85,0,0,0-2.06-.8c-.91.13-1.38,1-1.7,1.73-1.4,3.28-5.9,14-7.3,17.28C205.12,477.28,220.43,482.76,219.82,485.25Z"/><path d="M218.53,484.5c-1.64,3.4-4.64,5.1-5.4,9a11.35,11.35,0,0,0,.73,6.66c1.85,4.28,7.34,7.94,11.94,5.4,2.9-1.6,4.56-5.64,6.23-8.26,2-3.18,4.06-6.37,6.13-9.53,1.87-2.84,4.74-5.83,2.61-9.07-2.45-3.73-6.72-6.77-10-9.65-4.11-3.56-8.27-7.12-12.61-10.39-3.86-2.9-5.87-1.88-7.75,2.33-2.28,5.12-4.35,10.35-6.55,15.51a1.54,1.54,0,0,0,.9,2.21c2.21.79,13.59,4.37,13.6,6.52a1.5,1.5,0,0,0,3,0c0-5-12-8.05-15.8-9.42l.89,2.21c1.2-2.8,2.38-5.61,3.56-8.42.86-2,2.62-9.66,5.46-9.26,1,.14,3,2.39,3.8,3q2.18,1.75,4.32,3.54c2.9,2.41,5.76,4.86,8.56,7.38,1.79,1.62,5,3.75,6.07,6,1,2-1.92,5-3.28,7-1.49,2.27-2.94,4.58-4.4,6.87-1.87,2.92-4.3,8.48-8,9.23-2.42.48-5.16-2.79-5.87-4.57a8.3,8.3,0,0,1-.25-5.87c1-2.74,3.52-4.38,4.75-6.94C222,484.28,219.37,482.75,218.53,484.5Z"/><path d="M217.52,481.92a12.65,12.65,0,0,0-9.91.54c-2.15,1.07-5.5,3.52-5,6.34,1.23,6.92,15-2.19,17.29-4.18,1.37-1.17-.37-3.05-1.81-2.35A30.37,30.37,0,0,0,207.16,491c-1.33,1.72-4.25,5.23-1.76,7.26s6.12-1.37,8-2.88a39.32,39.32,0,0,0,9.14-10.75,1.52,1.52,0,0,0-1.3-2.26,2.38,2.38,0,0,0-1.88.73c-1.48,1.24.65,3.36,2.12,2.12l-.24.15-1.29-2.26a37.07,37.07,0,0,1-5.52,7.3c-.9.91-5.48,5.57-6.31,5.08s3.06-4.63,4-5.52a28.44,28.44,0,0,1,7.51-5.11l-1.82-2.36a25.38,25.38,0,0,1-5.44,3.62c-.45.22-6.08,2.74-6.58,2.06-.81-1.1,4.06-3.45,4.69-3.63a9.9,9.9,0,0,1,6.27.27c1.82.64,2.61-2.26.8-2.9Z"/><path d="M218.73,483.09l3.34-4.19a1.55,1.55,0,0,0,0-2.12,1.51,1.51,0,0,0-2.12,0L216.61,481a1.55,1.55,0,0,0,0,2.12,1.5,1.5,0,0,0,2.12,0Z"/><path d="M220.41,485a25.35,25.35,0,0,1,3.8-2.14,1.53,1.53,0,0,0,.54-2.06,1.55,1.55,0,0,0-2.06-.53,25.25,25.25,0,0,0-3.79,2.14c-1.59,1.08-.09,3.68,1.51,2.59Z"/><path d="M220,487.08a29.76,29.76,0,0,1,5.15.85c1.59.39,2.74-2,1.16-2.75l-.24-.11c-1.73-.83-3.25,1.76-1.51,2.59l.23.12L226,485a35.12,35.12,0,0,0-6-.95c-1.92-.15-1.91,2.85,0,3Z"/><path d="M215.39,481.15c.82-.79,1.16-2.18,1.94-2.86,1.91-1.69,3.83,1.23,4.77,2.62a9.6,9.6,0,0,1,1.8,4.35c.22,2.23-1.9,6.1-4.41,3.24-1.28-1.46-3.39.67-2.13,2.12a5.24,5.24,0,0,0,7.46.43c2.4-2.15,2.55-5.67,1.5-8.52s-3.57-6.75-6.51-8c-3.72-1.58-4.55,2.57-6.54,4.48-1.39,1.35.73,3.47,2.12,2.13Z"/><path d="M209.86,478.73a39.38,39.38,0,0,1,9.27-16.45c1.32-1.41-.8-3.54-2.12-2.13a42.85,42.85,0,0,0-10,17.78,1.5,1.5,0,0,0,2.89.8Z"/><path class="c" d="M81.56,297.48c-24.41,23.45-36.77,58.83-32.25,92.38C70,400.65,74,403.19,97.06,406.91c-.66-6.64,2.66-18.42,6.72-23.7-1.2,15.78,14,35,19.66,36.93,14.07,4.67,51.28-.34,63.59-8.6-24.52-41.05-23.66-43.9-29.67-66.55-1.1-4.14,9.37-9.82,6.69-13.17-3.4-4.25-8.72-6.39-13.8-8.34Q116.2,310.41,81.77,298.4"/><path d="M80.5,296.42A112.31,112.31,0,0,0,47,371.18a107.31,107.31,0,0,0,.06,10.91c.13,2.11-.2,6.73.95,8.52,1.27,2,5.69,3.24,7.75,4.31,2.71,1.4,5.43,2.81,8.19,4.13,10.45,5,21.32,7.44,32.71,9.3a1.52,1.52,0,0,0,1.9-1.44,37.4,37.4,0,0,1,6.51-23l-2.79-.75c-.52,10.71,4.59,21.19,11,29.51,5,6.57,9.51,9.55,17.73,10.37,10.11,1,20.52,0,30.5-1.75,8.89-1.52,18.61-3.54,26.31-8.5a1.52,1.52,0,0,0,.54-2c-10.15-17-20.91-34.13-26.17-53.39-1-3.49-1.9-7-2.74-10.52-.77-3.24.09-4.51,2.23-6.92,1.34-1.51,3.13-3.1,3.89-5,3.57-9-20.88-15.21-25.93-17.12Q111,307,82.17,297c-1.83-.63-2.61,2.26-.8,2.9q24.66,8.61,49.12,17.75c7.79,2.9,15.74,5.59,23.34,8.94,2.8,1.24,7.9,3.22,8.42,6.5.39,2.53-2.91,4.8-4.41,6.77-4.07,5.34,0,13.22,1.61,19.08a115.31,115.31,0,0,0,6.52,17.8c5.71,12.3,12.82,24,19.76,35.61l.54-2.05c-6.79,4.37-15.21,6.24-23,7.74a124.89,124.89,0,0,1-27.95,2.38c-3.52-.13-7.33-.29-10.7-1.44-3.21-1.1-5.61-3.91-7.73-6.46-6.67-8-12.09-18.62-11.57-29.26.07-1.61-2-1.87-2.8-.76a39.92,39.92,0,0,0-6.92,24.46l1.9-1.45c-10.69-1.75-21.09-3.9-30.94-8.51-2.27-1.06-4.5-2.18-6.72-3.32-2.44-1.25-6.22-2.37-8.18-4.25s-1.52-6.24-1.63-8.85c-.15-3.37-.13-6.76,0-10.13a109.17,109.17,0,0,1,32.58-71.86c1.38-1.35-.74-3.47-2.12-2.12Z"/><path d="M126.94,351.26c-2.73,12.71,3.2,25.8,15.35,31.06,8.27,3.59,22.57,4.44,26.67-5.46.74-1.78-2.16-2.56-2.89-.8-3.62,8.74-18.64,5.93-24.93,2.35-9.33-5.31-13.53-16-11.31-26.35.41-1.88-2.49-2.69-2.89-.8Z"/><path d="M133.51,354.91c-2.23,8.34,2.74,16.71,10,20.88,7.08,4.09,15.83,2.77,21.94-2.39,1.48-1.25-.65-3.36-2.12-2.12-10.94,9.23-30.9-.61-26.91-15.57a1.5,1.5,0,0,0-2.89-.8Z"/><path d="M55.72,349.13a53.86,53.86,0,0,0,24.93-12.94c1.43-1.3-.69-3.42-2.12-2.12a50.62,50.62,0,0,1-23.61,12.16c-1.88.42-1.08,3.31.8,2.9Z"/><path class="a" d="M106.77,284.11l.94-.21v0Z"/><path d="M107.17,285.56l.93-.21-1.89-1.45v0l1.1-1.44-.92.19a1.5,1.5,0,0,0-1,1.84,1.52,1.52,0,0,0,1.84,1.05l.93-.19a1.54,1.54,0,0,0,1.1-1.45v0c.11-1-1-1.64-1.9-1.45l-.93.22a1.51,1.51,0,0,0-1,1.84A1.52,1.52,0,0,0,107.17,285.56Z"/><path class="a" d="M235.47,125.43c3.4.32,4.22,4.88,4,8.29-.09,1.45-.21,2.9-.33,4.35l1.44-1.37a2.91,2.91,0,0,1,1.18-.81,1,1,0,0,1,1.22.45,1.3,1.3,0,0,1,0,.78c-.68,2.82-1.95,6.77-4.66,8.61a179.55,179.55,0,0,1-35.73,86.07c-21.5,27.79-57.51,45.52-91,56.53.11-30,19-56.17,40.53-77,13.49-13,30-22.47,44.77-34s28.46-26.16,32.7-44.43C230.41,129.51,232,125.1,235.47,125.43Z"/><path d="M235.08,126.87c4.25,1,2.82,8.26,2.58,11.2-.12,1.36,1.68,1.89,2.56,1.06,1.1-1.72,1.32-1.77.68-.13a14.75,14.75,0,0,1-1.39,3.18c-.78,1.26-1.95,1.93-2.63,3.15-.88,1.57-.72,5-1,6.78-.38,2.25-.81,4.5-1.28,6.73a180.89,180.89,0,0,1-7.67,26.31c-6.64,17.62-16.09,34.73-28.26,49.16-22.26,26.37-55.27,41.91-87.41,52.58l1.89,1.44c.54-36.28,27.52-68,55.28-88.63,13.94-10.38,29-19.4,41.47-31.65a87.2,87.2,0,0,0,14.76-18.65,63,63,0,0,0,4.69-10.14c1.05-2.95,1.91-12.11,6.15-12.33,1.93-.11,1.94-3.11,0-3-4.46.24-6.08,4.14-7.15,8a67.52,67.52,0,0,1-8.73,19.92c-8.56,12.88-20.86,22.64-33.33,31.52s-25.32,17.28-36.32,28c-10.07,9.85-19.37,20.73-26.58,32.88-8,13.44-13,28.36-13.24,44.06a1.51,1.51,0,0,0,1.9,1.45c28.54-9.47,57-22.55,79.18-43.32,23.41-21.94,38.71-53.29,45.71-84.31,1-4.45,1.44-9.06,2.5-13.48.77-3.18,3.32-5.67,4.38-8.88.53-1.61,1.4-3.73-.22-4.95-2-1.52-4.11.87-5.47,2.17l2.56,1.06c.4-4.84,1.37-12.57-4.79-14.09C234,123.52,233.2,126.41,235.08,126.87Z"/><path class="a" d="M58.18,291.93c-.06-.31-.13-.63-.19-.94h0Z"/><path d="M59.63,291.53c-.07-.31-.13-.63-.19-.94a1.52,1.52,0,0,0-2.21-.9l0,0a1.53,1.53,0,0,0-.69,1.69l.22.93a1.5,1.5,0,0,0,2.89-.8l-.21-.93-.69,1.7,0,0-2.21-.89c.07.31.13.62.2.94a1.5,1.5,0,0,0,1.84,1A1.52,1.52,0,0,0,59.63,291.53Z"/><path class="a" d="M137.07,102.25c-2-2.79-6.34-1.21-9.19.67q-1.81,1.22-3.6,2.46c.16-.64.31-1.28.47-1.93a3,3,0,0,0,.11-1.43,1,1,0,0,0-1-.83,1.32,1.32,0,0,0-.66.41c-2.1,2-4.88,5.07-5.12,8.34a179.48,179.48,0,0,0-56.64,74C48.12,216.47,50.79,256.51,58,291c25.89-15.09,39.14-44.54,46.39-73.62,4.54-18.2,4.47-37.2,7.05-55.77s8.4-37.73,22.1-50.55C136.07,108.68,139.09,105.08,137.07,102.25Z"/><path d="M138.13,101.19c-4.5-4.51-10.53.07-14.6,2.9l2.2,1.69c.64-2.64.68-7.94-3.45-5.36-2.08,1.31-3.66,4.15-4.83,6.21-2.09,3.68-4.78,5.62-8,8.39a182.11,182.11,0,0,0-30.67,34,165,165,0,0,0-21.1,40.72c-5.13,15.07-7.06,31.14-7.15,47-.11,18.38,2.32,36.69,6,54.66a1.51,1.51,0,0,0,2.21.89c22.94-13.69,36-37.86,43.78-62.7,4.65-14.92,6.76-30,8.11-45.57,1.37-15.7,2.62-31.57,8-46.52a65.93,65.93,0,0,1,13.21-22.61c3.43-3.71,9.25-7.75,6.52-13.39-.84-1.74-3.43-.22-2.59,1.51,1.88,3.89-5.47,9-7.59,11.49a62.37,62.37,0,0,0-6.44,9.13A87.58,87.58,0,0,0,113,145.73c-4.78,18.49-4.63,37.72-7.26,56.53-4.59,32.83-18.78,69.7-48.49,87.43l2.21.9c-7.24-35.09-10.18-73.76,4-107.57a176,176,0,0,1,27.06-44.47,180.1,180.1,0,0,1,17.41-18.18c3.22-2.92,6.61-5.6,9.95-8.38,2-1.68,1.05-.81,1.92-3a12.11,12.11,0,0,1,2.59-4.33q1.69-2.25.48.37c-.29,1.18,1.07,2.48,2.2,1.69,2.51-1.75,7.88-6.46,11-3.37A1.5,1.5,0,0,0,138.13,101.19Z"/><path class="d" d="M92.23,223.25c-37.51,34.43-58.89,78-53,128.59,40.88,13.67,94.67,8,133.11-11.47,2.29-1.16,4.71-2.52,5.82-4.84,1.37-2.85.38-6.21-.64-9.2-6.42-18.91-31-77.66-26.29-97.07,1.7-7,3.85-15.36-1-20.7-3.88-4.28-10.5-4.42-16.23-3.64a83.61,83.61,0,0,0-41.79,18.33"/><path d="M91.16,222.19c-18.08,16.73-33.57,36.45-43.29,59.22a139.55,139.55,0,0,0-10.12,70.43,1.58,1.58,0,0,0,1.11,1.44c25.28,8.29,52.62,9.28,78.82,5.46A188,188,0,0,0,158,348.33c5.67-2.17,11.58-4.46,16.79-7.59,4.2-2.52,6.12-6,5.22-10.94-1.41-7.88-5.38-15.76-8.15-23.23-3.7-10-7.34-20.05-10.62-30.21a227.81,227.81,0,0,1-8-30,61.9,61.9,0,0,1-1.15-11.92c.09-4.71,1.8-9.15,2.33-13.81.61-5.28-.14-10.87-4.52-14.41-4.76-3.84-11.47-3.51-17.17-2.68a86.11,86.11,0,0,0-41.65,18.6c-1.5,1.22.64,3.33,2.13,2.12a83.33,83.33,0,0,1,36.25-17.13c6-1.19,15-2.81,19.65,2.44,4.88,5.44,1.67,13.7.48,19.86-1.13,5.82-.26,12,.76,17.73a211.06,211.06,0,0,0,6.8,26.3c5.12,16.38,11.35,32.35,17.19,48.48,1.54,4.25,4.91,10.53,1.21,14.51-3.92,4.2-12.45,6.63-17.66,8.66A186,186,0,0,1,122.53,355c-27.4,4.78-56.32,4.15-82.88-4.56l1.1,1.45a136.91,136.91,0,0,1,10.3-70.27c9.62-22,24.69-41,42.24-57.26,1.42-1.31-.71-3.43-2.13-2.12Z"/><path class="d" d="M124.1,191.43a40.49,40.49,0,0,0-18.69,22.51c-1.3,4-2,8.28-.81,12.28s4.5,7.55,8.65,8c4.54.49,12.21-2.73,15.29-6.11,8.07-8.87,9.39-20.53,10-32.51.12-2.16,0-4.51-1.32-6.2-1.71-2.12-5-2.4-7.5-1.4s-4.52,3-6.41,5"/><path d="M123.34,190.14C112.6,196.33,103,208.08,102.52,221c-.23,5.5,2.11,11.39,7.34,13.83,4.57,2.14,10,.39,14.29-1.76,11.71-5.92,14.65-20.66,15.61-32.55.39-4.74,1.55-11.55-3.88-13.9s-10.11,1.79-13.59,5.34c-1.36,1.38.76,3.5,2.12,2.12,2-2.09,4.77-5.26,8-5.09,5.51.28,4.73,5,4.54,8.28a85,85,0,0,1-1.73,13.87c-2,8.62-6.19,17-14.88,20.33-5,1.92-10.43,1.94-13.41-3.39-2.58-4.62-1.37-10.42.39-15.1a39.54,39.54,0,0,1,17.5-20.2,1.5,1.5,0,0,0-1.52-2.59Z"/><path class="a" d="M123.43,197a29,29,0,0,0-13.37,16.11,15,15,0,0,0-.58,8.78c.83,2.86,3.22,5.4,6.19,5.72,3.25.34,6.18-1.93,8.39-4.35A38,38,0,0,0,133.79,200a6.41,6.41,0,0,0-.94-4.44c-1.22-1.51-3.56-1.72-5.37-1a14,14,0,0,0-4.59,3.56"/><path d="M122.68,195.74c-7.93,4.66-15.56,13.8-15.09,23.55.42,8.39,8.45,12.55,15.17,7.28,7.28-5.73,11.59-15.94,12.41-25,.31-3.43.09-7.52-3.82-8.7s-7,1.67-9.52,4.16c-1.35,1.38.77,3.5,2.13,2.12.79-.81,1.93-2.29,3-2.66,6.55-2.3,5.36,4.12,5,6.47a36.71,36.71,0,0,1-1.91,7.59c-1.91,5.12-5.26,11.18-10,14.24a6,6,0,0,1-9.17-3.31c-1.13-3.62.32-7.88,1.88-11.16a28.12,28.12,0,0,1,11.38-12,1.5,1.5,0,0,0-1.51-2.59Z"/><path class="b" d="M106.34,192.23c-4.91-3.75-5.87-11.18-3.45-16.86s7.53-9.81,13-12.76c7.81-4.23,17.41-6.43,25.6-3A20.6,20.6,0,0,1,144,196.27c-6.15,3.7-13.9,3.93-20.87,2.2s-13.34-5.23-19.63-8.7"/><path d="M107.4,191.16c-18.92-16.37,27.13-46.79,42.22-22.55a19.23,19.23,0,0,1-9.12,27.7c-12.47,5.08-25.44-1.91-36.2-7.84-1.69-.93-3.21,1.66-1.52,2.59,12.94,7.13,30.77,15.74,44.33,4.88a22.27,22.27,0,0,0,3.22-31.45c-9.67-11.65-26.44-9-37.92-1.6-9.84,6.3-18.15,20.86-7.13,30.4,1.45,1.25,3.59-.86,2.12-2.13Z"/><path class="a" d="M139.3,179.71c5.44,7.71-1.47,20.73-6.87,26.69-7.54,8.29-23.66,5.83-28.52-4.81-2.4-5.26,2.41-12,5.56-16.23,2.09-2.8,8.69-10.76,12.8-9.21C122.27,176.15,134.35,172.68,139.3,179.71Z"/><path d="M138,180.46c5,8.08-1.74,21.91-8.93,26.87s-20.65,2.46-23.74-6.4c-1.84-5.27,2.35-10.79,5.43-14.81,2.22-2.91,5.62-7.61,9.37-8.49,5.79-1.35,14-1.87,18.1,3.14,1.22,1.5,3.33-.64,2.12-2.12-3.41-4.23-8.7-5.2-13.89-4.73-3,.27-6.7.31-9.33,1.82-4.33,2.5-7.68,6.93-10.5,11-3.41,4.88-6.67,10.91-3.48,16.7,5.08,9.24,18.72,12.28,27.43,6.5s15.9-21.45,10-31C139.58,177.31,137,178.82,138,180.46Z"/><path class="d" d="M115,181.23a107.92,107.92,0,0,0-9.67,8.07,5.82,5.82,0,0,0-2.06,3.11c-.28,1.77,1,3.35,2.23,4.66s3,3,4.92,2.91c1.75-.1,3.13-1.55,4-3,2.74-4.55,2.82-10.16,2.82-15.47C117.24,181.46,116.86,179.81,115,181.23Z"/><path d="M114.21,179.94c-3.08,2.33-6.12,4.72-8.95,7.34-1.81,1.67-3.8,3.47-3.52,6.17.41,4,5.86,9.13,10,7.77,5.26-1.73,6.49-9.56,6.82-14.19.21-3.1.86-10.11-4.39-7.09a1.5,1.5,0,0,0,1.51,2.59c-.19.11-.46,7.47-.51,7.76-.54,2.94-2.42,10.27-7.26,7.15a11.89,11.89,0,0,1-2.58-2.82c-1.25-2.69.54-3.86,2-5.22a107.47,107.47,0,0,1,8.34-6.87C117.24,181.38,115.75,178.77,114.21,179.94Z"/><path d="M49.3,383.31a145.09,145.09,0,0,0,45.63,17.55c1.89.38,2.69-2.51.8-2.89a143.1,143.1,0,0,1-44.92-17.25,1.5,1.5,0,0,0-1.51,2.59Z"/><path d="M114.17,414.45a116,116,0,0,0,71.6-3.92c1.78-.69,1-3.59-.8-2.89a113.24,113.24,0,0,1-70,3.92,1.5,1.5,0,0,0-.8,2.89Z"/><path class="b" d="M131.32,158.9c5.2-3,11.92-.24,16.35,3.78s7.74,9.28,12.67,12.68a22,22,0,0,0,13.83,3.82c2-.14,4.23-.53,6,.5a5.43,5.43,0,0,1,2.18,5.87,11.26,11.26,0,0,1-3.59,5.54c-4.44,4.14-10.28,6.61-14.48,11-3.94,4.11-6.19,9.65-10.27,13.63S142.48,221.4,138.9,217c-2.77-3.41-1.68-8.58.57-12.35s1-9.81,2.64-13.9"/><path d="M132.08,160.19c12.21-5.74,20.17,12.26,28.87,17.34a24.61,24.61,0,0,0,13.22,3.15c2.62-.08,2.76-.52,5,1.67,1.88.78,2.34,1.9,1.39,3.38a5.64,5.64,0,0,1-1.88,3.35,36.75,36.75,0,0,1-7.28,5.66c-3.88,2.6-7.53,5.19-10.39,8.95-3.26,4.28-5.6,9.92-10.41,12.72-3.4,2-7.69,2.59-10.27-.73-2.84-3.64-.92-7.18.76-10.9,1.95-4.32,1.08-9.19,2.49-13.66.59-1.84-2.31-2.63-2.89-.79-1.18,3.72-.62,7.66-1.65,11.39-.83,3-2.71,5.33-3.11,8.48-.66,5.08,1.93,9.81,7.19,10.73,5.73,1,10.89-2.52,14.28-6.77,2.83-3.55,4.81-7.73,8-11s7.29-5.47,11-8.15c4-3,9.22-7.52,7.28-13.16-2.31-6.7-11-3.42-16.25-4.86-13-3.59-20.7-26.92-36.77-19.37-1.74.82-.22,3.41,1.52,2.59Z"/><path class="b" d="M122.73,170.68c-2.8,5.65-1.09,12.69,2.62,17.78s9.11,8.65,14.39,12.09A69.42,69.42,0,0,0,143,182.42c.17-3.77,0-7.74-2-11A11.24,11.24,0,0,0,120.36,175"/><path d="M121.44,169.92c-6.07,14.35,6.84,24.93,17.54,31.93a1.53,1.53,0,0,0,2.21-.9c2.87-9.39,7.42-26.4-1.95-33.67-7.6-5.9-17.92-1.55-20.32,7.33a1.5,1.5,0,0,0,2.89.8,9.84,9.84,0,0,1,19.21.14c2,7.72-.46,17.2-2.73,24.6l2.21-.89c-9-5.91-21.78-15.26-16.47-27.82.74-1.76-1.84-3.29-2.59-1.52Z"/><path d="M174.06,194.07a112.56,112.56,0,0,0,.55,64.06c.56,1.84,3.46,1.06,2.89-.8a109.48,109.48,0,0,1-.54-62.46,1.51,1.51,0,0,0-2.9-.8Z"/><path d="M54.68,223.46A120.65,120.65,0,0,1,103,192.81c1.82-.61,1-3.51-.8-2.89a123.84,123.84,0,0,0-49.63,31.42c-1.34,1.39.78,3.51,2.12,2.12Z"/><path class="e" d="M136.26,49.18l3.63-15.31a15.4,15.4,0,0,0-9-2.84L126.4,48.24c1.13-5.61.95-11.86-2.37-16.51S113.51,25,109,28.55l7,15.12c-4-3.59-8.07-7.27-13.14-8.93S91.52,34,88.4,38.34l11.76,9.73L82.8,43.74,74.21,55.09l15.14,5.08a38,38,0,0,0-19.59-2.06L70.08,73l11.12-1A27.75,27.75,0,0,0,66.43,93.56,22.77,22.77,0,0,0,80.72,83.7c1,6.21-2.28,12.22-5.49,17.64l5.87,7.06,5.16-9.2c3.55,3.06,2.6,8.62,2.25,13.28s1.76,10.84,6.43,10.52c2.78-.2,4.77-2.78,5.84-5.35s1.66-5.41,3.43-7.55c1,10.89,10.39,20.42,21.27,21.56l-3.71-19.09,14.81,9.69c3.08-6.22-.59-14.77-7.22-16.83l16.25,16.25,12.82-8L147.61,102.9c6.43,6.06,18.53,3.9,22.47-4l-13.52-2.71a24.39,24.39,0,0,1,25-10,19.5,19.5,0,0,0-20.65-8l16.95-10.43c-.44-6.34-8.88-10.49-14.16-7,3.86-2,8.06-4.31,9.53-8.4s-2.19-9.77-6.28-8.31c-3.92,1.39-4.43,7.6-8.42,8.8-3.73,1.13-7-3.67-6.13-7.46s4.26-6.42,7.4-8.74A19.36,19.36,0,0,0,139,49.88"/><path d="M137.7,49.58l3.64-15.31a1.55,1.55,0,0,0-.69-1.7,19.09,19.09,0,0,0-9.78-3,1.51,1.51,0,0,0-1.44,1.1L125,47.84l2.89.79c1.18-6.61,1.1-14.42-4-19.46-4.16-4.06-10.58-5.23-15.5-1.91a1.55,1.55,0,0,0-.54,2l7,15.12,2.36-1.82c-7.69-7-20.93-15.94-29.78-5.33a1.52,1.52,0,0,0,0,2.12L99.1,49.13l1.46-2.51L83.19,42.3A1.56,1.56,0,0,0,81.5,43L72.91,54.33a1.52,1.52,0,0,0,.9,2.21L89,61.61c1.84.62,2.6-2.25.8-2.89a42.2,42.2,0,0,0-20.39-2,1.49,1.49,0,0,0-1.1,1.44L68.58,73a1.52,1.52,0,0,0,1.5,1.5l11.12-1-.76-2.8A29.9,29.9,0,0,0,64.93,93.56c-.13,1,1.06,1.65,1.9,1.44A25.35,25.35,0,0,0,82,84.45l-2.8-.75C79.89,90,77,95.33,73.94,100.58a1.54,1.54,0,0,0,.23,1.82L80,109.46a1.51,1.51,0,0,0,2.36-.31L87.56,100l-2.36.3c5.82,6.16-2.47,18.52,6.41,23.44,8.4,4.64,10.82-8.49,13.9-12.85l-2.8-.75a26.32,26.32,0,0,0,22.37,23,1.52,1.52,0,0,0,1.84-1.84l-3.71-19.09-2.2,1.7,14.82,9.68a1.5,1.5,0,0,0,2-.53,14.21,14.21,0,0,0-8.12-19c-1.45-.55-2.46,1.5-1.46,2.5l16.25,16.25a1.53,1.53,0,0,0,1.82.23l12.82-8a1.52,1.52,0,0,0,.3-2.36l-10.82-10.83L146.55,104a16.51,16.51,0,0,0,24.83-4.3,1.53,1.53,0,0,0-.9-2.21L157,94.74l.9,2.2a23.15,23.15,0,0,1,23.33-9.25c1.16.22,2.52-1,1.7-2.21a21.41,21.41,0,0,0-22.35-8.71l1.16,2.74,16.94-10.44a1.56,1.56,0,0,0,.69-1.69c-1.12-7.54-9.82-11.51-16.36-7.85-1.69.94-.19,3.48,1.51,2.59,4.29-2.23,9.59-5.2,10.5-10.45.56-3.25-1.18-7.3-4.27-8.71-3.28-1.51-6.16.36-8.06,3-1.5,2.09-3.08,6.71-6.47,5.23-7.06-3.09,1.61-11.12,4.4-13.21a1.52,1.52,0,0,0-.75-2.8,21.08,21.08,0,0,0-22.31,14.27c-.62,1.84,2.28,2.62,2.9.8a18.06,18.06,0,0,1,19.41-12.07l-.76-2.79c-3.55,2.65-7.74,5.84-8.21,10.61-.34,3.39,1.68,7.38,5.15,8.35s5.84-1.55,7.52-4.11c.59-.9,1.05-1.92,1.71-2.77,2.18-2.82,6.12-1.53,6.72,1.8,1,5.27-5.27,8.29-9,10.23l1.51,2.59a8.18,8.18,0,0,1,12,6.06l.69-1.7L160.18,76.92a1.51,1.51,0,0,0,1.16,2.74,18.28,18.28,0,0,1,19,7.34L182,84.79a26.32,26.32,0,0,0-26.72,10.64,1.5,1.5,0,0,0,.89,2.2l13.52,2.72-.89-2.21c-4,7.06-13.89,9-20.12,3.69-1.45-1.23-3.5.74-2.12,2.13l10.82,10.82.3-2.35-12.81,7.95,1.81.24-16.25-16.25L129,106.88a11.17,11.17,0,0,1,6.33,14.62l2.05-.54-14.81-9.68c-1.18-.77-2.44.49-2.21,1.69L124,132.06l1.85-1.85a23.39,23.39,0,0,1-20.17-20.11,1.51,1.51,0,0,0-2.79-.76c-2,2.76-2.41,5.93-4,8.83-1.51,2.66-6.05,3.53-7.73.69A11.44,11.44,0,0,1,90,113.08c.07-5.41,1.42-10.62-2.66-14.94a1.52,1.52,0,0,0-2.36.3l-5.16,9.2,2.35-.3-5.87-7.06.24,1.82c3.36-5.74,6.42-11.56,5.69-18.4a1.51,1.51,0,0,0-2.79-.76A22.35,22.35,0,0,1,66,92.11l1.9,1.45A26.76,26.76,0,0,1,82,73.37c1.26-.68.75-2.92-.76-2.79l-11.12,1,1.5,1.5-.32-14.92-1.1,1.45a39.38,39.38,0,0,1,18.79,2l.8-2.89L74.61,53.65l.89,2.2L84.09,44.5l-1.69.69,17.36,4.32c1.35.34,2.68-1.5,1.46-2.5L89.46,37.28V39.4c7.69-9.21,19-.54,25.54,5.33a1.51,1.51,0,0,0,2.35-1.82l-7-15.12-.54,2.06c4.46-3,10-1.28,13,2.93,3.14,4.38,3,10,2.1,15.06-.33,1.87,2.4,2.69,2.89.79l4.48-17.21-1.45,1.11a15.71,15.71,0,0,1,8.26,2.63l-.68-1.69-3.64,15.31c-.44,1.88,2.45,2.68,2.89.8Z"/><path d="M118.19,72.1c-1-2.65-.33-6-2.44-8.2s-5.58-1.54-8.23-.5a1.55,1.55,0,0,0-1,1.85L109,75.63c.46,1.87,3.36,1.08,2.9-.8l-2.54-10.38-1.05,1.85c2.06-.82,5-1.89,5.9.94.58,1.84.38,3.82,1.08,5.66s3.58,1,2.89-.8Z"/><path d="M131.33,65.78c2.82-.18,13-.88,11.73,4.42l1.45-1.1-13.75-1.26v3l.91-.07c1.91-.15,1.93-3.15,0-3l-.91.07a1.5,1.5,0,0,0,0,3l13.75,1.26A1.5,1.5,0,0,0,146,71c2-8.18-9.51-8.54-14.62-8.22-1.92.12-1.93,3.12,0,3Z"/><path d="M132.25,75.91a126,126,0,0,1,11.64,11.81l.3-2.36A42,42,0,0,0,137.47,90l2.35.3a42,42,0,0,0-6.12-10,1.51,1.51,0,0,0-2.56,1.07l.58,6.91c.13,1.49.82,3.79.44,5.18-1,3.81-5.21,2.86-8.39,4.24L126,99.05l-.9-13c-.13-1.92-3.13-1.93-3,0l.9,13a1.53,1.53,0,0,0,2.26,1.3c3.09-1.34,7.49.52,9.39-3.18.85-1.66.49-3.6.35-5.38-.28-3.46-.59-6.91-.88-10.36l-2.56,1.06a38.72,38.72,0,0,1,5.65,9.35,1.52,1.52,0,0,0,2.36.3A38.09,38.09,0,0,1,145.71,88a1.52,1.52,0,0,0,.3-2.35,126,126,0,0,0-11.64-11.81c-1.44-1.28-3.57.83-2.12,2.12Z"/><path d="M121.7,91.12l-7.87,9.8,1.82-.24-6.77-3.6.3,2.35,6.95-6.67c1.4-1.34-.73-3.46-2.12-2.12l-7,6.67a1.51,1.51,0,0,0,.31,2.36l6.76,3.61A1.54,1.54,0,0,0,116,103l7.87-9.8c1.2-1.49-.91-3.63-2.12-2.12Z"/><path d="M110.93,62.61,108,53.49a1.54,1.54,0,0,0-1.85-1c-2.37.52-8,1.12-8.72,4.26-.26,1.2.47,2.34.94,3.37,1.51,3.28,3.15,6.5,4.72,9.74l2.05-2c-3.27-2.46-9.27-5.57-12.36-.89-3.56,5.41,3.7,7.84,7.33,9.61l.36-2.74L94,75.19A1.52,1.52,0,0,0,93,77c.87,2.7,1.45,9.09,4.22,10.62s8.09-3,10.2-4.18a1.5,1.5,0,0,0-1.52-2.59c-1.11.63-6,4.38-7.29,3.79-1.13-.52-2.31-7.15-2.72-8.44l-1,1.84,6.51-1.44a1.51,1.51,0,0,0,.36-2.74l-3.49-1.7c-2.28-.42-2.37-1.3-.25-2.65q1.18-3.19,3.54-.77c.76.5,1.49,1,2.2,1.58,1.32,1,2.63-.86,2-2-1.16-2.39-3.34-5.41-3.86-8-.82-4,1.91-4.3,5.13-5l-1.85-1.05,2.9,9.12c.58,1.83,3.48,1,2.89-.8Z"/><path class="e" d="M252,88.57,262,75.2a16.43,16.43,0,0,1,8.45,5.44L259.45,96c3.81-4.73,9-8.83,15.08-9.29s12.66,4,12.78,10.08l-17.11,4.55c5.62.79,11.42,1.65,16.22,4.66s8.34,8.81,6.92,14.3l-15.92-3,15.32,11.24-3.43,14.72-14.43-8.91a40.25,40.25,0,0,1,15,14.59l-12.39,9.87-6.78-9.72a29.45,29.45,0,0,1-7.49,26.65,24.13,24.13,0,0,1-1.66-18.36c-5.78,3.36-8.43,10.17-10.68,16.47h-9.74l4-10.47c-4.91-.81-8.8,3.74-12.37,7.2s-10.05,5.92-13,1.89c-1.72-2.4-1-5.78.4-8.4s3.3-5,3.84-7.93c-9.57,6.59-23.73,5.39-32.05-2.71l18.1-9.94-18-5.51c3-6.74,12.46-9.55,18.64-5.54l-24.3-2.23-2.22-15.87,16.19,1.48c-9.31-1.13-15.78-12.47-12-21.06l11.4,9.19a25.88,25.88,0,0,0-8.89-27.18,20.72,20.72,0,0,1,20.59,11.4l-3-20.92c5.47-4,14.59.12,15.3,6.83-1-4.5-2-9.51.38-13.49s9.47-4.85,11.05-.52c1.52,4.15-3.19,8.78-1.47,12.85,1.62,3.81,7.78,3.26,10.26-.06s2.35-7.84,2.11-12c7.17,6.29,8.71,18,3.42,26"/><path d="M253.28,89.33l10-13.37-1.7.69a16.87,16.87,0,0,1,7.79,5l-.24-1.82-11,15.34c-1,1.38,1.26,3.13,2.35,1.82,3.35-4,7.44-7.7,12.75-8.61,5.57-1,12,2.24,12.55,8.34l1.1-1.44-17.1,4.54c-1.34.35-1.53,2.68,0,2.89,9.07,1.3,24.38,4.58,22.09,17.12l1.84-1-15.93-3a1.51,1.51,0,0,0-1.15,2.74L292,129.81l-.69-1.69-3.43,14.72,2.21-.9L275.64,133l-1.51,2.59a41.11,41.11,0,0,1,14.44,14.06l.23-1.82-12.39,9.87,2.36.3L272,148.31a1.51,1.51,0,0,0-2.74,1.16,28.46,28.46,0,0,1-7.11,25.19l2.35.3a23.78,23.78,0,0,1-1.51-17.2,1.52,1.52,0,0,0-2.2-1.7c-6.22,4-8.95,10.65-11.36,17.37l1.44-1.1h-9.74l1.44,1.9,4-10.47c.38-1-.56-1.83-1.44-1.9-6-.43-9.39,4-13.43,7.64a14.15,14.15,0,0,1-4.85,3c-5.18,1.67-7.47-3.21-5.35-7.71,1.35-2.85,3.16-5.2,4-8.3a1.51,1.51,0,0,0-2.2-1.69A24.84,24.84,0,0,1,193,152.34l-.3,2.36,18.1-9.94a1.52,1.52,0,0,0-.36-2.74l-18-5.51.89,2.2a12,12,0,0,1,16.59-5l.76-2.79-24.3-2.23,1.44,1.1-2.21-15.86-1.45,1.89,16.19,1.48c1.67.15,2.07-2.67.4-3a14.43,14.43,0,0,1-11-19.21l-2.5.66,11.4,9.2a1.52,1.52,0,0,0,2.5-.67A27.74,27.74,0,0,0,192,75.68l-1.06,2.57a19.57,19.57,0,0,1,19.29,10.66c.85,1.63,3,.39,2.74-1.16l-3-20.92-.69,1.69a8.76,8.76,0,0,1,13.09,5.94l2.89-.8c-.89-4.12-2.3-9.85,1.1-13.18a5.19,5.19,0,0,1,5.22-1.57c2.9.92,2.41,4.19,1.64,6.54-1.14,3.49-2.48,7.8,1.09,10.4,2.85,2.08,7.18,1.27,9.72-.88,4-3.38,3.86-9.37,3.62-14.11l-2.56,1.06a19.24,19.24,0,0,1,3.18,24.16c-1,1.65,1.58,3.16,2.59,1.51a22.29,22.29,0,0,0-3.65-27.79,1.52,1.52,0,0,0-2.56,1.06c.21,4.09.71,12-4.78,13-3.23.61-5.09-2.53-4.43-5.63.29-1.34,1-2.58,1.29-3.93.77-3.46-.17-7-3.82-8.26A9,9,0,0,0,223.53,59c-3.5,4.3-2.23,10.58-1.16,15.5.42,1.9,3.23,1.08,2.89-.8-1.42-7.85-10.75-11.87-17.5-7.73a1.58,1.58,0,0,0-.69,1.7l3,20.92,2.74-1.16a22.52,22.52,0,0,0-21.88-12.14c-1.15.09-2.16,1.66-1.06,2.56a24.81,24.81,0,0,1,8.5,25.73l2.51-.67-11.4-9.19a1.53,1.53,0,0,0-2.51.67c-3.73,9.73,2.77,21.15,13.05,22.89l.4-2.94-16.19-1.48c-1.08-.09-1.56,1-1.44,1.9L185,130.59a1.51,1.51,0,0,0,1.45,1.1l24.3,2.23c1.52.14,2-2.09.76-2.8a15,15,0,0,0-20.7,6.08,1.52,1.52,0,0,0,.9,2.2l18,5.51-.36-2.74-18.1,9.94a1.52,1.52,0,0,0-.3,2.36,27.9,27.9,0,0,0,33.86,2.94l-2.2-1.69c-1.4,5.27-10.77,17.21-.44,20.07,10,2.75,13.94-11.58,23-10.93L243.67,163l-4,10.46a1.51,1.51,0,0,0,1.45,1.9h9.74a1.55,1.55,0,0,0,1.45-1.11c2.13-5.93,4.47-12,10-15.57l-2.2-1.69a26.91,26.91,0,0,0,1.81,19.52,1.52,1.52,0,0,0,2.36.3,31.68,31.68,0,0,0,7.88-28.11l-2.74,1.16,6.78,9.72a1.53,1.53,0,0,0,2.35.3l12.4-9.87a1.5,1.5,0,0,0,.23-1.81A44.21,44.21,0,0,0,275.64,133a1.5,1.5,0,0,0-1.51,2.59l14.42,8.91a1.51,1.51,0,0,0,2.21-.89l3.43-14.72a1.59,1.59,0,0,0-.69-1.7L278.17,116,277,118.73l15.93,3a1.51,1.51,0,0,0,1.84-1c2.64-14.42-13.13-19.23-24.19-20.81v2.89l17.11-4.54a1.53,1.53,0,0,0,1.1-1.45c-.58-6.13-5.41-10.59-11.47-11.45-7.64-1.09-14.33,4.1-18.95,9.6l2.36,1.82,11-15.35a1.53,1.53,0,0,0-.24-1.82,19.78,19.78,0,0,0-9.11-5.81,1.53,1.53,0,0,0-1.69.69l-10,13.36c-1.16,1.55,1.44,3,2.59,1.52Z"/><path d="M246.6,121.79c1.94-.67,3.43-2,5.25-2.87,3-1.49,4.33,1.37,5.15,3.83l.69-1.7-10.2,5c-1.74.85-.22,3.44,1.51,2.59l10.2-5a1.51,1.51,0,0,0,.69-1.7c-.9-2.71-2.24-5.83-5.36-6.44-3.45-.68-5.75,2.35-8.73,3.39-1.81.62-1,3.52.8,2.89Z"/><path d="M244.3,102.1C241,97.58,233,88.32,227.6,95.63a1.51,1.51,0,0,0,.23,1.82l10.37,10.37c1.16,1.17,3.36-.39,2.35-1.82l-.55-.79c-1.11-1.56-3.71-.06-2.6,1.52l.56.79,2.36-1.82L230,95.33l.24,1.82c3.39-4.62,9.81,4.13,11.52,6.47,1.13,1.54,3.73,0,2.59-1.52Z"/><path d="M233.44,107a140.22,140.22,0,0,0-17.95-1.53,1.52,1.52,0,0,0-1.45,1.9,41.37,41.37,0,0,1,.7,7.85,1.51,1.51,0,0,0,1.9,1.44,42,42,0,0,1,11.48-1.7l-.76-2.79-8.3,5.8c-1.45,1-3.59,2.11-4.61,3.67-2.85,4.37,2.43,7,3.35,10.82a1.51,1.51,0,0,0,2.2.9l11.24-8.11c1.55-1.12.06-3.73-1.51-2.59l-11.25,8.11,2.21.9c-.83-3.41-4.9-6.44-1.62-10.06,2.4-2.65,6.88-4.8,9.81-6.85a1.52,1.52,0,0,0-.76-2.8,44.83,44.83,0,0,0-12.28,1.81l1.9,1.45a44.78,44.78,0,0,0-.81-8.65l-1.44,1.9a131.5,131.5,0,0,1,17.15,1.43c1.89.28,2.7-2.61.8-2.9Z"/><path d="M224.61,128.41,222,141.49a1.55,1.55,0,0,0,1.05,1.84l7.54,3.08c1,.39,1.84-.59,1.9-1.45l.73-10.21c.14-1.92-2.86-1.91-3,0L229.44,145l1.9-1.45-7.54-3.07,1,1.85,2.65-13.09c.39-1.88-2.51-2.69-2.89-.79Z"/><path d="M259.28,121.27l9.41-3.83-1.69-.69c.52,1,2.9,4.69,2.56,5.83-.44,1.5-1.64,1.33-3,1.67L257,126.62a1.51,1.51,0,0,0,0,2.89c.93.2,1.86.44,2.78.72q5.25.89,1.53,3.57c-.6,2-1.59,2.43-3,1.27l-2.82-1.27a1.51,1.51,0,0,0-2.05,2l3.24,6.3.9-2.2c-1.65.66-7.8,4.09-9.14,3.22s-1.56-6.79-1.85-8.38c-.34-1.89-3.23-1.09-2.89.8.49,2.72.23,9.33,3.18,10.82s9-2.55,11.49-3.57a1.53,1.53,0,0,0,.9-2.2l-3.24-6.3-2.05,2c3.75,1.69,10.72,6.19,12.86-.1,2-5.76-4.75-8.64-9.1-9.67v2.89l9.57-2.37c1.42-.35,3.69-.52,4.74-1.79,2.19-2.64-1.28-7.77-2.49-10.12a1.52,1.52,0,0,0-1.7-.68l-9.41,3.83c-1.76.71-1,3.62.8,2.89Z"/><path d="M38.46,354.73c3.7,1.21,7.43,2.26,11.21,3.19l-2.1-3.69A116.82,116.82,0,0,0,45.39,377a107.07,107.07,0,0,0,.69,11c.42,3.61,1.09,4.09,4.38,5.81L49,391.25a241.54,241.54,0,0,0,13,94.37l2.09-3.69-4.6,1.86a3.07,3.07,0,0,0-1.79,4.41c1.12,2.4,4,6.7,3.1,9l5.48-.72c-3.1-4.19-10.89-9.46-16.09-5.32-6,4.78,3.27,9.38,7,10.9l.79-5.89c-3.79-.18-14.13-.62-13.78,5.54.32,5.48,9.43,5.22,13.14,5.3l-1.51-5.59c-8.89,4.18-9.48,14.35-4.1,21.75,3.06,4.23,7.82,3,12.24,2.15,3.74-.7,7.46-1.53,11.17-2.38,2.64-.6,5.8-.9,8.19-2.24,4.2-2.34,3.08-5.82,2.85-9.84s-.17-8.34-.48-12.51q-.5-6.83-1.27-13.62c-.43-3.73-.56-7.4-4.83-8.32l2.2,2.9a211,211,0,0,1,11-72.88L89,408.54c2.42.45,4.84.86,7.27,1.26,1.78.29,3.94-.77,3.8-2.89a36,36,0,0,1,6.31-22.19l-5.59-1.51c-.52,11.77,5.32,22.86,12.42,31.87l2.12-5.12-.75,0c-3.25.19-4.22,5-.79,5.9,1.43.36,3.3,3.47,4.52,4.48a15.62,15.62,0,0,0,3.62,2.35c3.37,1.48,7.39,1.77,11,2,3.2.22,3.71.75,5.89,3,1.79,1.81,3.61,3.6,5.46,5.35q5.53,5.28,11.42,10.17a242.27,242.27,0,0,0,49.83,32.06l-1.08-4.1c-.64,1.52-1.29,3-1.93,4.57a3.06,3.06,0,0,0,1.79,4.4c2.54.92,7.62,1.88,8.63,4.22l3.39-4.41c-5.3-.78-13.56.86-15.05,7.1-1.84,7.64,8.16,5.1,11.8,3.59l-2.92-5c-2.75,2.49-10.08,9.23-6.13,13.43s10.72-2.79,13.35-5.31l-5-2.92c-3.2,9.17,4.15,18.76,14,18.46,4.88-.15,7.32-5.31,9.68-8.83,1.94-2.9,3.8-5.86,5.65-8.82,1.35-2.16,3.39-4.61,3.93-7.18.93-4.41-2.69-6.19-5.44-8.68-3.16-2.87-6.17-5.87-9.42-8.65s-6.63-5.6-10-8.29c-3-2.35-5.62-4.85-9.32-2.44l3.64.47a211.62,211.62,0,0,1-34.67-42.63l-1.79,4.41a48.58,48.58,0,0,0,9.91-4.55,3.05,3.05,0,0,0,1.08-4.1c-7.57-12.68-15.55-25.46-21.32-39.1-3.4-8-5.37-16.51-7.57-24.92l-2.09,3.69c4.36-1.71,8.68-3.53,12.9-5.58,3-1.45,6.29-2.94,8.34-5.69,4.28-5.76.44-13.37-1.7-19.23-6.22-17-12.7-33.9-17.94-51.23l-1.38,3.38a199.91,199.91,0,0,0,18.52-11.66L173,257.9l.19.63c.94,3.2,5.92,2.65,5.89-.8V257l-1.49,2.59a145.62,145.62,0,0,0,39.37-43.48,185.29,185.29,0,0,0,12.68-25.61q2.94-7.26,5.23-14.75c1.43-4.65,4.61-9.75,10.28-9.36l-2.9-3.79q-2,5.22-4,10.46c-.7,1.86,1.1,3.8,2.9,3.8h9.74a3.1,3.1,0,0,0,2.9-2.21c2-5.52,4.15-11.34,9.29-14.67l-4.41-3.39a28.49,28.49,0,0,0,2,20.67,3,3,0,0,0,4.71.61,33.3,33.3,0,0,0,8.27-29.57l-5.49,2.32,6.78,9.72a3.07,3.07,0,0,0,4.72.6L292,151a3,3,0,0,0,.46-3.63,47.25,47.25,0,0,0-13.34-14l-3,5.18,11.72,7.24a3,3,0,0,0,4.4-1.79q1.73-7.36,3.43-14.72a3.13,3.13,0,0,0-1.37-3.39l-15.33-11.24-2.31,5.49,15.93,3c1.48.28,3.38-.4,3.69-2.09,2.81-15.36-13.16-20.93-25.24-22.66v5.79l17.11-4.55a3,3,0,0,0,2.2-2.89,14.47,14.47,0,0,0-12.77-12.93c-8.11-1.14-15.27,4.15-20.21,10L262,97.5l11-15.35a3,3,0,0,0-.47-3.64,21.21,21.21,0,0,0-9.77-6.2,3.1,3.1,0,0,0-3.39,1.38l-10,13.37L253.5,86l-2.42-1.73,1.08,4.1a23.81,23.81,0,0,0-3.89-29.61c-1.79-1.7-5.26-.57-5.12,2.12.17,3.47.83,9.41-3,11.22-5.55,2.64-2.48-5.3-2-7.4,1-4.1-.28-8.37-4.5-10a10.49,10.49,0,0,0-11,2.86c-3.87,4.27-3.1,10.6-2.1,15.76l5.78-1.59c-3-7.68-12-11.59-19.38-7.12A3.13,3.13,0,0,0,205.63,68q1.5,10.45,3,20.92l5.49-2.31a24,24,0,0,0-23.18-12.89c-2.3.18-4.32,3.32-2.12,5.12a23.33,23.33,0,0,1,8.11,24.27l5-1.33-11.4-9.19a3.05,3.05,0,0,0-5,1.33c-4,10.44,3.07,22.86,14.09,24.74l.8-5.89-16.19-1.48c-2.16-.19-3.13,2.07-2.89,3.8q1.11,7.93,2.21,15.87c.2,1.37,1.7,2.09,2.9,2.2l13.1,1.2-.79-5.89c-4.07,1.67-7.16,4-9.24,7.94a3,3,0,0,0,1.79,4.41l18,5.51-.71-5.48-18.1,9.93a3,3,0,0,0-.61,4.72c7.32,6.67,16.79,8.93,26.45,7.11l-2.92-5c-9.86,11.57-22,20.38-34.42,29l4.1,4.1c3.55-5,3.18-13.07-3.9-14.56-5-1-9.56.57-14.52-1.79-4.49-2.15-7.63-6.11-10.88-9.73-5.25-5.85-11.23-10.36-19.43-9.86-9.22.56-17.38,2.92-25,8.37l4.51,2.59c1.41-11.64,3.86-23.2,8.68-33.94l-3.39,1.38a28.83,28.83,0,0,0,5.5,1.33c2.32.33,4.16-1.27,3.69-3.69-.34-1.77-1.67-5.08-1.33-6.83s2.25-3.74,3.32-5.11l-3.64.47,8.35,5.46c1.78,1.16,3.73-.11,4.41-1.79a15.78,15.78,0,0,0,.26-10.94l-5,2.92,8.76,8.76a3.06,3.06,0,0,0,3.64.47l12.81-8a3,3,0,0,0,.61-4.71l-10.82-10.83L145.49,105c8.37,7.13,21.71,5.12,27.18-4.6.89-1.59.15-4-1.79-4.41l-13.52-2.72,1.79,4.41a21.6,21.6,0,0,1,21.64-8.57c2.31.45,5-2.08,3.39-4.41a23,23,0,0,0-24-9.4l2.31,5.48,17-10.43A3.13,3.13,0,0,0,180.78,67c-1.16-7.62-9.43-12.05-16.57-9.72l2.31,5.48c4.35-2.39,9.23-5.73,10-11.07.55-4.05-1.67-8.66-5.55-10.23s-7.36.64-9.58,3.79c-1,1.47-2.21,5.07-4.41,4.69-3.06-.52-1-5.24-.17-6.43a20.25,20.25,0,0,1,4.57-4.19,3,3,0,0,0-1.51-5.59,22.55,22.55,0,0,0-23.75,15.38l3.69-2.1-2.71-.7L139.15,50l3.63-15.32a3.08,3.08,0,0,0-1.37-3.38A20.67,20.67,0,0,0,130.87,28,3,3,0,0,0,128,30.23q-2.24,8.6-4.48,17.21L129.29,49c1.27-7.13,1.12-15.49-4.44-20.92-4.62-4.5-11.85-5.84-17.32-2.15a3.1,3.1,0,0,0-1.08,4.1l7,15.12,4.71-3.63c-8.29-7.49-22.45-16.65-31.9-5.33-1,1.15-1.34,3.14,0,4.24L98,50.19l2.92-5L83.59,40.85a3.13,3.13,0,0,0-3.38,1.38q-4.3,5.67-8.59,11.35c-1.25,1.64.15,3.86,1.79,4.4l12.3,4.13,1.59-5.79A45.56,45.56,0,0,0,69,55.22a3,3,0,0,0-2.2,2.89q.17,7.47.32,14.92a3,3,0,0,0,3,3l11.12-1-1.51-5.59A31.45,31.45,0,0,0,63.43,93.56c-.26,2,2.13,3.3,3.8,2.89A26.94,26.94,0,0,0,83.31,85.21L77.72,83.7c.65,6-2.12,11.09-5.08,16.13a3.1,3.1,0,0,0,.47,3.63L79,110.52c1.24,1.49,3.83,1,4.71-.61l5.17-9.2-4.72.61c3.48,3.68.93,9.89,1.5,14.38.45,3.55,1.93,7.45,5.21,9.29a8,8,0,0,0,9.25-1.21c3.7-3.22,4-8.33,6.7-12.17l-5.59-1.51a31,31,0,0,0,3.28,10.54L105,117c-23.47,21.42-43.26,49.8-51.27,80.85-4.35,16.86-5.3,34.51-4.34,51.83q.36,6.27,1,12.52c.45,4.14,1.47,7.3-.39,11.08a144.94,144.94,0,0,0-8.9,22.44,140.77,140.77,0,0,0-4.84,56.12c.42,3.79,6.43,3.83,6,0A136.85,136.85,0,0,1,45.31,303a134.84,134.84,0,0,1,8-22.86c1.22-2.67,3.86-6.07,4.13-9,.35-3.85-1.1-8.51-1.47-12.41-1.57-16.84-1.56-34,1.57-50.7,3-16,9.32-30.88,17.51-44.85a179.85,179.85,0,0,1,34.11-41.84,3.07,3.07,0,0,0,.46-3.64,22.41,22.41,0,0,1-2.46-7.51c-.38-3-3.77-4.08-5.59-1.52-2,2.76-2.41,6-4,8.83-1.3,2.29-3.61,2.65-5.15.69-.94-1.2-1-3.6-.94-5,.08-5.89,1.33-11.31-3.1-16a3,3,0,0,0-4.72.61l-5.16,9.19,4.71-.61-5.87-7,.47,3.64c3.49-6,6.66-12.08,5.9-19.16a3,3,0,0,0-5.59-1.52,20.73,20.73,0,0,1-12.49,8.48l3.79,2.9A25.2,25.2,0,0,1,82.72,74.67c2.51-1.37,1.49-5.85-1.52-5.59L70.08,70l3,3q-.15-7.45-.32-14.92L70.56,61a37.64,37.64,0,0,1,15.15,1.1c3.76,1,5.23-4.57,1.59-5.79L75,52.2l1.79,4.41q4.29-5.69,8.59-11.35L82,46.64,99.36,51c2.7.67,5.35-3,2.92-5L90.52,36.22v4.24c7.06-8.45,17.53,0,23.42,5.33a3,3,0,0,0,4.71-3.64l-7-15.11-1.07,4.1c3.83-2.58,8.53-1.1,11.12,2.54,2.81,4,2.64,9.18,1.82,13.76-.66,3.73,4.8,5.39,5.79,1.59q2.24-8.6,4.48-17.21l-2.9,2.2a14.44,14.44,0,0,1,7.51,2.44L137,33.07l-3.63,15.31a3,3,0,0,0,2.09,3.69l2.71.71a3.07,3.07,0,0,0,3.69-2.1c2.6-7.64,10.1-11.89,18-11l-1.52-5.59c-3.85,2.89-8.14,6.23-8.88,11.33-.6,4.16,1.7,8.81,5.82,10.22,3.91,1.34,7.17-1.1,9.28-4.2,1.26-1.84,3.47-7.08,5.69-2.53,1.95,4-4.11,7.19-6.73,8.62-2.94,1.62-1,6.55,2.32,5.49A6.82,6.82,0,0,1,175,68.58l1.38-3.39L159.43,75.62a3,3,0,0,0,2.31,5.48A16.73,16.73,0,0,1,179,87.75l3.39-4.4A27.9,27.9,0,0,0,154,94.67a3,3,0,0,0,1.79,4.41l13.52,2.71-1.79-4.4c-3.47,6.15-12.25,8.08-17.76,3.38-2.9-2.47-7,1.48-4.24,4.25l10.82,10.82.6-4.71-12.81,8,3.63.47L139,110.8c-2.08-2.08-5.9,0-5,2.91a10.64,10.64,0,0,1-.26,7.75l4.41-1.79-8.35-5.46a3,3,0,0,0-3.63.47c-1.66,2.13-4.5,5-5.19,7.64-.75,2.91,1.1,7.27,1.66,10.13l3.69-3.69a28.37,28.37,0,0,1-5.51-1.33,3,3,0,0,0-3.39,1.38c-5.28,11.78-7.94,24.2-9.49,37-.26,2.19,2.78,3.84,4.52,2.59,5.8-4.17,12.41-7.08,19.62-7.43,3.71-.17,7-.35,10.34,1.58,3,1.76,5.38,4.41,7.7,7,4,4.49,8,8.81,13.76,11a25.13,25.13,0,0,0,7.9,1.63c1.53.08,3.28-.41,4.76-.16,3.93.68,3.11,3.28,1.4,5.71s1.69,5.8,4.1,4.11c12.79-8.94,25.46-18,35.64-30a3,3,0,0,0-2.92-5,23.61,23.61,0,0,1-20.61-5.57l-.6,4.72,18.09-9.94c2.34-1.28,1.68-4.75-.71-5.48l-18-5.52,1.79,4.41a10.54,10.54,0,0,1,5.65-5.18c3.12-1.28,2.71-5.58-.8-5.9l-13.1-1.2,2.89,2.2q-1.11-7.92-2.21-15.86l-2.9,3.79,16.19,1.48c3.33.3,4.14-5.33.8-5.9a12.94,12.94,0,0,1-9.91-17.36l-5,1.33,11.4,9.19c1.68,1.35,4.39,1,5-1.33a29.21,29.21,0,0,0-9.66-30.11l-2.12,5.13a18.12,18.12,0,0,1,18,9.91c1.7,3.28,5.92.79,5.48-2.31l-3-20.92L210,69.82a7.33,7.33,0,0,1,10.57,3.53,3,3,0,0,0,5.78-1.59c-.62-3.21-1.71-8.63,1.59-10.83,4.33-2.87,4.54,1.74,3.58,4.78-1.33,4.21-2,9.06,2.45,11.7,3.43,2,8.17,1.17,11.1-1.38,4.28-3.73,4.31-10,4.05-15.17L244,63A17.73,17.73,0,0,1,247,85.32a3.08,3.08,0,0,0,1.07,4.11l2.42,1.73c1.42,1,3.21.12,4.1-1.07l10-13.37-3.38,1.38a15.31,15.31,0,0,1,7.12,4.66l-.47-3.64-11,15.35c-2,2.74,2.52,6.24,4.71,3.63,3.13-3.72,6.92-7.33,11.88-8.2,4.62-.81,10.37,1.69,10.86,6.87l2.2-2.89-17.1,4.54c-2.66.71-3.05,5.35,0,5.79,8,1.15,23.14,3.82,21,15.27l3.69-2.09-15.93-3a3,3,0,0,0-2.31,5.48l15.33,11.24-1.38-3.39q-1.73,7.36-3.43,14.72l4.4-1.79-11.71-7.24c-3.33-2.06-6.16,3-3,5.18a39.78,39.78,0,0,1,11.19,11.85l.47-3.64-12.39,9.87,4.71.61-6.77-9.72a3,3,0,0,0-5.49,2.31,26.88,26.88,0,0,1-6.73,23.73l4.72.6a22.14,22.14,0,0,1-1.36-16c.68-2.43-2.18-4.83-4.41-3.38-6.57,4.25-9.49,11.15-12,18.26l2.89-2.2h-9.74l2.89,3.8,4-10.47c.74-1.95-1.13-3.67-2.89-3.8-4.23-.29-7.57,1.67-10.68,4.39a15.07,15.07,0,0,0-3.92,4.36c-1.22,2.49-1.65,5.68-2.51,8.33a176.43,176.43,0,0,1-14.08,31.85,147.91,147.91,0,0,1-20.18,28.27A127.35,127.35,0,0,1,181,249.45c-2.7,2.21-7.93,4.3-7.9,8.28l5.9-.8-.19-.63c-.51-1.72-2.78-3-4.41-1.79a198.58,198.58,0,0,1-18.52,11.66,3,3,0,0,0-1.38,3.39c4.48,14.82,9.82,29.35,15.21,43.85,1.87,5,4.06,10.07,5.48,15.24,1.55,5.63-1.19,7.61-5.85,9.91-4,2-8.09,3.73-12.25,5.35A3.08,3.08,0,0,0,155,347.6c2.26,8.68,4.36,17.35,7.86,25.64,5.88,13.9,13.92,26.89,21.63,39.82l1.07-4.11A41.69,41.69,0,0,1,177,412.9a3,3,0,0,0-1.79,4.4,218,218,0,0,0,35.61,43.84,3,3,0,0,0,3.63.47c.75-.49,9.19,7.34,10.05,8.06,3.82,3.23,7.61,6.51,11.14,10.06,1.85,1.87,3.84,2.81,2.89,5.68-1.05,3.18-4.26,6.85-6.09,9.66-2.25,3.46-4.09,8.42-9,7.41s-7-5.39-5.35-10c1-2.95-3-4.88-5-2.92a39,39,0,0,1-3.43,3c-.16.13-5.82,3.91-.68,3.68.63,0,4.44-5.46,5.38-6.3,2.11-1.91-.11-6.18-2.92-5a28.42,28.42,0,0,1-2.83,1.08c-1.47-.09-1.83.25-1.07,1q.89,2,2.88-.86a8,8,0,0,1,4.26-.34,3.05,3.05,0,0,0,3.39-4.41c-1.8-4.15-8.2-5.52-12.21-7l1.79,4.41,1.93-4.57c.59-1.4.53-3.33-1.07-4.11A236.42,236.42,0,0,1,158,437.36q-5.49-4.68-10.7-9.7c-2.62-2.53-5.68-7.37-9.09-8.63-1.92-.7-4.87-.21-7-.42s-5-.41-7.06-1.38c-3.55-1.67-5-6.16-8.82-7.12l-.8,5.89.75,0c2.78-.15,3.72-3.09,2.12-5.12-6.12-7.77-11.11-17.52-10.66-27.63.14-3.22-4-3.75-5.59-1.52a41.21,41.21,0,0,0-7.13,25.22l3.79-2.9c-2.42-.39-4.85-.81-7.27-1.25a3.08,3.08,0,0,0-3.69,2.09,216.07,216.07,0,0,0-11.17,74.48,3.06,3.06,0,0,0,2.21,2.89c1,.21,1.38,12.21,1.48,13.49.41,4.92.67,9.83.7,14.76,0,3.21.52,4.57-2.93,5.84s-7.53,1.76-11.15,2.51a31.64,31.64,0,0,1-5.6,1.08c-4.12.06-4.18-.36-5.3-3-1.91-4.5-1-8.11,3.65-10.28,2.82-1.33,1.26-5.53-1.52-5.59-1.09,0-2.19,0-3.28-.15-1.79-.16-4-1.64-4.18.64-.13,2.1,1.28,1,3.06.76a31.4,31.4,0,0,1,5-.09c3.67.16,3.68-4.7.8-5.9.94.39-5.85-3.1-3.68-.31l2.1.45a8,8,0,0,1,4,3.1,3.06,3.06,0,0,0,5.49-.72c1.69-4.26-1.88-9.72-3.71-13.64l-1.79,4.41,4.6-1.86c1.42-.58,2.67-2,2.09-3.69A237.08,237.08,0,0,1,55,391.25a2.94,2.94,0,0,0-1.48-2.59l-2.67-1.39,1.49,2.59a109.21,109.21,0,0,1,1-34,3.07,3.07,0,0,0-2.1-3.69q-5.67-1.38-11.21-3.19C36.37,347.74,34.8,353.53,38.46,354.73Z"/><path class="a" d="M133,276.2c-1.81,13.8-1.61,37.22,4.11,49.91a220.18,220.18,0,0,1-97.84-4.19c2.88-15,9-38.8,14.53-53a201,201,0,0,0,80.07,7"/><path d="M131.45,276.2c-2,16.29-2.28,35.32,4.31,50.66l.9-2.2a221.49,221.49,0,0,1-97-4.19l1.05,1.84c3.49-17.9,8-35.94,14.53-53l-1.85,1.05a205.83,205.83,0,0,0,80.47,7.08c1.9-.21,1.92-3.21,0-3a203.85,203.85,0,0,1-79.67-7,1.54,1.54,0,0,0-1.85,1c-6.52,17.06-11,35.11-14.52,53a1.52,1.52,0,0,0,1,1.84,224.93,224.93,0,0,0,98.64,4.19,1.52,1.52,0,0,0,.89-2.2c-6.35-14.78-5.86-33.46-3.9-49.15.24-1.91-2.76-1.89-3,0Z"/><path d="M68.7,299.83c.54.26.84.17.7.88s-.44,2.69-1.22,2.54-1.31-.49-2-.62c-.37-.07-2.19-.39-2.27,0-.11.56,1.88,4.17,2.33,4.72a7,7,0,0,0,1.18,1c.2.17,1,.76,1,1s-1.13,1-1.42,1.25-1.23,1.57-1.72,1.47a3.78,3.78,0,0,1-.86-.53c-3.09-2.29-3-6-3.83-6.67a.56.56,0,0,0-.27.1c-.39.3-.65.84-1,1.17a25.73,25.73,0,0,1-4.68,3.43,2.91,2.91,0,0,1-1.07.37c-.44-.08-2-2.7-1.87-3.17,0-.2.79-.51,1-.58a11.37,11.37,0,0,0,4.94-3.58,4.41,4.41,0,0,0,.78-1.27l0-.1c-.33-.35-2.55-.61-3.36-.77s-1.31-.08-1.14-1c.1-.47.51-2.58,1.18-2.45s1.3.49,2,.62a6.86,6.86,0,0,0,1.28.13c1.34.06,1.32.16,1.62-1.34a8,8,0,0,0,.23-2.32c-.16-.24-1.29-.44-1.59-.5a5.39,5.39,0,0,0-1.84,0,.65.65,0,0,0-.13.28c-.07.37,0,.76-.12,1.13-.11.54-1.68.89-2.15.79s-.59-1.52-.79-1.91c-.16.83-.21,1.69-.37,2.52s-.51,1.66-.68,2.52-.09,1.77-.26,2.62c-.31,1.55-.86,3-1.17,4.59-.16.81,0,1.65-.2,2.43s-1.4.24-1.84.15a5.07,5.07,0,0,1-1.59-.47c-.25-.25.49-3.88.62-4.54.17-.86.51-1.68.68-2.54l1-5.2a1.84,1.84,0,0,0,.09-.57v-.1s-.1.08-.1.1c-.26.39-.64,1.69-1.21,1.58s-2.33-.95-2.22-1.52a11.35,11.35,0,0,1,.58-1.26c.29-.55.63-1.12.92-1.68s.72-2.33.93-2.49,1.29.31,1.67.05,1-2.75,1.17-3.44c.25-1.27.21-1.33,1.51-1.07a5.27,5.27,0,0,1,1.75.55c.46.5-.63,3.44-.39,4.3a.31.31,0,0,0,.16.06c.22.05.85-.16,1.1-.11.49.1.42,2.1.44,2.51.21-.55.43-2.67,1.17-2.65s3.14.75,3.39.34a1.43,1.43,0,0,0,.19-.57c.46-2.31.06-3.26,2.44-2.78.39.07,1.32.18,1.55.53.55.83-.76,3.47.31,3.84a11.79,11.79,0,0,0,1.53.38c.84.16,1.68.15,2.49.31s.2,1.54.1,2.06c-.27,1.4-.25,2.8-.52,4.2a5.55,5.55,0,0,0-.17,1.07ZM64.6,295a1,1,0,0,0-.72,0,.75.75,0,0,0-.14.3c-.1.54-.06,1.11-.17,1.65s-.32,1-.42,1.47c0,.2.12.31.29.34a4.05,4.05,0,0,0,1.5.14.6.6,0,0,0,.13-.28c.1-.49,0-1,.07-1.49s.28-1,.38-1.55a.72.72,0,0,0,0-.32.53.53,0,0,0-.25-.15Z"/><path d="M83.78,311c0,.34-.13.61-.51.67a37.92,37.92,0,0,1-4.38.4,65.3,65.3,0,0,1-7.39.46c-.77,0-.79-2.37-.76-3a1.61,1.61,0,0,1,.08-.57c.32-.74,4.29-.06,4.71-.44.21-.19.22-.81.24-1.09a2.59,2.59,0,0,0-.07-1.08c-.51-.73-3.87-.14-3.81-1.19a8,8,0,0,1,.15-1c.43-2.16.93-1.36,3.3-1.22.2,0,.37,0,.53-.07a1.63,1.63,0,0,0,.07-.3c0-.37-.11-.81-.09-1.18,0-.67,2.63-.43,3.13-.4.28,0,.77.07.75.47s-.14.79-.17,1.22c0,.65,2.66.47,3.13.5s.74.24.71.74a6.44,6.44,0,0,1-.21,1c-.53,2.32-1,1.59-3.09,1.48-.94-.06-.82.93-.86,1.63,0,.3.12.43.4.44,1.22.07,2.43-.08,3.63,0C84,308.58,83.81,310.53,83.78,311ZM89,298c0,.48-.73,9.3-1.22,9.6a3.48,3.48,0,0,1-1.48.09c-.45,0-1.61,0-1.57-.61s.17-1.32.21-2c0-.83-.08-1.66,0-2.48,0-.65.18-1.29.21-1.94,0-.28-.15-.41-.4-.43a16.32,16.32,0,0,0-2.17.28,19.7,19.7,0,0,1-3-.14c-2-.12-4.13.09-6.18,0s-1.8-.48-1.69-2.48c.07-1.15,1.38-.52,2-1.11a3.52,3.52,0,0,0,.59-1.14,5.35,5.35,0,0,0,.31-1,.86.86,0,0,0,0-.21c-.59-.68-2.79.1-2.71-1.22,0-.48.26-2.47.89-2.43s1.48.26,2.26.3c1.67.09,3.36-.11,5,0,.67,0,1.37.15,2,.24s2.7.08,2.64,1.08c-.19,3.39-.36,1.93-2.32,2.42a28.3,28.3,0,0,0,2.82,5.09,16.5,16.5,0,0,0,.1-2.22c0-1.33.13-2.67.2-4,0-.55.17-.77.77-.73,2.8.15,3-.29,2.83,2.73Zm-8.81-.54c0-.33-.68-.92-.65-1.32s1.62-1.31,1.91-1.59c-1.64-.19-2.43,0-3.18,1.47a4.51,4.51,0,0,0-.49,1.08.2.2,0,0,0,0,.12c.26.24,1.14.24,1.51.26a8,8,0,0,0,.85,0ZM91,295.76c.06-1.12.2-2.24.33-3.34,0-.3,0-.7.31-.91a9.22,9.22,0,0,1,2.38-.14c.33,0,.57.08.65.44,0,.18,0,2-.05,2.25-.12,2.22-.15,4.45-.27,6.67,0,.8-.24,1.56-.29,2.36s.17,1.46.13,2.19L94,307.9a16.83,16.83,0,0,1-.52,2.5c-.55,2.67-.52,3.07-3.41,3.31a16.9,16.9,0,0,1-2.36.14c-.28,0-.55,0-.64-.33,0-.18-.5-3.09-.5-3.11.06-1,3.63,0,3.69-1,.07-1.22-.11-2.48,0-3.75.06-1.08.47-2.08.53-3.18.08-1.45,0-2.9.07-4.38Z"/><path d="M111.07,294.31c-.83-.24-3.85.25-4.94.37s-2-.07-3,0c-1.51.16-3.42.89-4.61,1-.68.08-.74-1.7-.79-2.18s-.35-1.39.5-1.48c1.14-.12,2.31,0,3.43-.16s2.14-.63,3.26-.75a10.86,10.86,0,0,1,1.51,0,21,21,0,0,0,3.16-.28c.65-.07,1.32.06,2,0a18.88,18.88,0,0,0,2.83-.55c.47.15,3.28,1.49,3.31,1.81s-1,1-1.17,1.31c-.54.76-.82,1.69-1.42,2.43-.78,1-3.2,3.56-3.91,4.66a4.25,4.25,0,0,0-.33,2.58,68,68,0,0,0,.32,7.13,2.45,2.45,0,0,1,0,1.08c-.53,1.39-5.6,2.2-6.35,2.28a.58.58,0,0,1-.61-.29,8.75,8.75,0,0,0-.85-1.92c-.21-.26-.67-.66-.73-1a17,17,0,0,1,1.89-.17,4.33,4.33,0,0,0,1.79-.64,3.24,3.24,0,0,0,1.08-.72,7.45,7.45,0,0,0,.07-2.67c-.1-1-.87-1.89-1-2.89-.07-.69-.29-4.64,0-5s1.11-.25,1.46-.28c.72-.08,1.35-1.28,1.7-1.74l.89-1.07c.11-.14.61-.72.59-.9Z"/><path d="M140.45,272.8l-9.77,8.63-1.9-3.86,7.59-7.63a3.41,3.41,0,0,1,1.58-1.06,2.25,2.25,0,0,1,2.16,1,6.61,6.61,0,0,1,.9,2.33"/><path d="M133.33,322.89l11.78,5.57-2.8,3.27-10-4a3.3,3.3,0,0,1-1.6-1,2.25,2.25,0,0,1,.07-2.38,6.81,6.81,0,0,1,1.79-1.76"/><path d="M110.1,322.17a178.53,178.53,0,0,1-64.17-5.5,1.5,1.5,0,0,0-.8,2.89,180.71,180.71,0,0,0,65,5.61c1.9-.18,1.92-3.18,0-3Z"/></svg>