<svg xmlns="http://www.w3.org/2000/svg" viewBox="0 0 146 158"><defs><style>.a{fill:#fff;}</style></defs><title>meter-board</title><path class="a" d="M64.76,3.2c.57,43.92,8.39,108.75,9,152.68a29.9,29.9,0,0,1,12.9-5.08C82.24,109.74,77.48,48,77.64,6.65c0-1.47-.11-3.18-1.32-4a4.66,4.66,0,0,0-3.18-.4l-8.38,1"/><path d="M62.67,3.2c.56,40.45,5.27,80.76,7.68,121.12.63,10.51,1.13,21,1.27,31.56a2.12,2.12,0,0,0,3.15,1.81,30.55,30.55,0,0,1,12.41-4.87,2.09,2.09,0,0,0,1.54-2c-4.66-43.67-8.17-87.66-8.9-131.59q-.07-3.91-.09-7.85c0-2.41.37-5.16-.29-7.5C77.71-2.24,69.25.59,64.76,1.1c-2.65.31-2.68,4.49,0,4.19s5.79-1.18,8.38-1c1.61.14,2.11.7,2.4,2.33a21.46,21.46,0,0,1,0,3.76q0,6.94.19,13.89c.24,10.16.65,20.31,1.17,30.46C78,76,79.54,97.22,81.4,118.4q1.41,16.22,3.13,32.4l1.54-2a33.38,33.38,0,0,0-13.41,5.29l3.15,1.81c-.57-40.46-5.27-80.76-7.69-121.13C67.5,24.24,67,13.72,66.85,3.2c0-2.7-4.22-2.7-4.18,0Z"/><path class="a" d="M2.09,27.17,4.4,99a3.17,3.17,0,0,0,.12.81c.91,2.94,3.39,2.58,5.48,2.17L141.67,76.54a3.38,3.38,0,0,0,1.75-.69,2.37,2.37,0,0,0,.47-2c-1.16-16.54-4.3-48.28-5.46-64.82a5.34,5.34,0,0,0-.28-1.42c-1.07-2.81-4.16-2.39-6.67-1.85C89.19,14.8,44.39,18.14,2.09,27.17"/><path d="M0,27.17,1.46,72.36,2.22,96c.06,1.85-.12,4.07.85,5.71,1.34,2.26,3.61,2.77,6.06,2.5,5-.56,10-1.89,15-2.85l61.09-11.8,31.22-6,14.93-2.88,6.79-1.31c2-.39,4.63-.4,6.32-1.69,2.12-1.63,1.46-4.49,1.28-6.81-.26-3.52-.56-7-.85-10.56-.67-7.85-1.38-15.7-2.08-23.54-.63-7.13-1.26-14.25-1.83-21.38-.45-5.58-.11-12.74-7.79-12-5.07.49-10.16,2-15.17,3q-7.8,1.46-15.62,2.73C91,10.92,79.63,12.55,68.21,14.17c-22.3,3.17-44.62,6.31-66.67,11-2.64.56-1.52,4.59,1.11,4C39,21.48,76.08,18,112.66,11.54q6.5-1.14,13-2.42c2.15-.43,4.28-.93,6.43-1.33,2.55-.46,4.18-.31,4.4,2.74.45,6.17,1,12.33,1.53,18.5,1.19,13.67,2.49,27.33,3.55,41,.06.84.63,3,.28,3.82-.57,1.32-4.74,1.44-6.11,1.7l-14.94,2.89L92.25,84l-57,11L21.66,97.6l-6.79,1.31c-1.91.36-4.67,1.54-6.58,1.21C5.94,99.71,6.46,97.91,6.4,96L5.71,74.37,4.19,27.17c-.09-2.69-4.28-2.7-4.19,0Z"/><path d="M68.72,3.71,68.57,15.1a1,1,0,0,0,2.09,0l.16-11.39a1.05,1.05,0,0,0-2.1,0Z"/><path d="M71.36,90.91c2.61,20.39,5.22,40.89,6.57,61.4.09,1.34,2.18,1.35,2.09,0-1.34-20.51-4-41-6.57-61.4-.17-1.32-2.26-1.33-2.09,0Z"/><path d="M72.94,24.68q32.4-4.37,64.23-11.91c1.31-.31.76-2.32-.55-2q-31.82,7.53-64.24,11.91c-1.32.17-.76,2.19.56,2Z"/><path d="M5.34,98.06Q31.76,93.17,58,87.35c1.31-.29.76-2.31-.56-2Q31.21,91.17,4.78,96c-1.32.25-.76,2.26.56,2Z"/></svg>