<svg xmlns="http://www.w3.org/2000/svg" viewBox="0 0 180 180"><defs><style>.a{fill:#9bd9da;}</style></defs><title>bush-1</title><path class="a" d="M66.65,34.09C69.06,25,78.27,18.93,87.58,17.37s18.81.48,28,2.51c7.44,1.64,15,3.34,21.49,7.38C144.42,31.83,149.65,39,154.7,46c3.91,5.43,7.93,11.09,9.24,17.65C166.21,75,160,86.56,161.67,98c.87,6.07,3.91,11.67,4.7,17.76a24.4,24.4,0,0,1-30.62,26.63c-6.24,15.56-25.47,24.53-41.41,19.32-8-2.61-14.78-8.14-22.91-10.12-9.65-2.35-20.32.52-29.43-3.43-8.81-3.82-13.86-12.95-18.28-21.47-6.95-13.41-14-29.16-8-43,2-4.59,5.4-8.78,5.63-13.78.18-3.69-1.44-7.23-1.72-10.92-.79-10.4,8.8-18.5,18.06-23.31l.16-.08a34.87,34.87,0,0,1,27.46-2Z"/><path d="M69.54,34.88c6.11-20,31.95-15.11,47-11.72,9.11,2.05,17.83,4.58,24.76,11.18a97.72,97.72,0,0,1,16,20.84c5.32,9,4.15,17.5,2.4,27.38-1.46,8.19-1.61,15.51,1,23.5,2.73,8.5,4.56,16.55-.68,24.58-5.07,7.77-14.54,11-23.41,8.83a3.06,3.06,0,0,0-3.39,1.38c-5.74,13.44-21,21.91-35.48,18.65-8.53-1.92-15.5-7.87-23.84-10.38s-16.81-.81-25.16-2.21c-9-1.51-14.49-7.83-18.89-15.34-4.5-7.7-8.72-16-11.32-24.5-3-10-2.15-18.12,2.63-27.29a24.65,24.65,0,0,0,3.18-9.16c.38-4.26-1.52-8.16-1.66-12.36-.31-9.37,9.1-16.26,16.6-20,8.56-4.3,17.69-4.36,26.63-1.26,3.66,1.27,5.23-4.53,1.6-5.79-16.34-5.66-35.38-.35-46.05,13.59a22.23,22.23,0,0,0-4.62,10.61c-.66,5,1.94,9.58,1.58,14.49-.35,4.72-3.76,8.73-5.52,13a32.7,32.7,0,0,0-2.21,15.69c1,10.24,5.46,19.82,10.1,28.85,3.95,7.69,8.27,15.74,15.46,20.86,8.07,5.74,17.64,4.9,27,5.3,11.58.5,19.72,7.6,30.33,11,17.4,5.6,37.67-4,44.8-20.7L135,145.26c14,3.34,28.31-3.89,33.09-17.68,2.67-7.67,1-14.84-1.37-22.32-1.32-4.1-2.39-8.08-2.28-12.43.13-5,1.35-9.82,2.14-14.71,1.31-8.08,1.17-15.57-2.49-23-3.55-7.25-8.92-14.11-14.12-20.27-11.42-13.52-27.82-17.41-44.69-20-16-2.49-36,.7-41.48,18.51C62.62,37,68.41,38.57,69.54,34.88Z"/><path d="M65.71,42.7a13.06,13.06,0,0,0-12.8-2.38c-1.8.64-1,3.54.8,2.89a10,10,0,0,1,9.88,1.61c1.48,1.22,3.61-.89,2.12-2.12Z"/><path d="M46.69,42A16.06,16.06,0,0,0,36.1,45c-1.54,1.12-.05,3.73,1.52,2.59A13.46,13.46,0,0,1,46.69,45c1.93.13,1.92-2.87,0-3Z"/><path d="M29.24,51.31l-4.69,5.62c-1.22,1.48.89,3.61,2.12,2.13l4.69-5.63c1.23-1.47-.88-3.6-2.12-2.12Z"/><path d="M57,47.14a16.29,16.29,0,0,0-10.94,4.6c-1.39,1.34.73,3.46,2.12,2.12A13.06,13.06,0,0,1,57,50.14c1.92-.06,1.93-3.06,0-3Z"/><path d="M39.55,56a30.16,30.16,0,0,0-6,10.49c-.61,1.83,2.28,2.62,2.89.8a26.59,26.59,0,0,1,5.26-9.17c1.27-1.44-.85-3.57-2.12-2.12Z"/><path d="M30.74,72.6A23.51,23.51,0,0,0,27,84.23c-.11,1.92,2.9,1.92,3,0a20.46,20.46,0,0,1,3.36-10.12c1.05-1.62-1.55-3.13-2.59-1.51Z"/><path d="M28.53,115l5.16,8c1,1.62,3.64.12,2.59-1.51l-5.16-8c-1-1.62-3.64-.12-2.59,1.51Z"/><path d="M43.2,67.39,39.79,80.12a1.5,1.5,0,0,0,2.89.8L46.1,68.18a1.5,1.5,0,0,0-2.9-.79Z"/><path d="M35.67,90.31l0,8.9a1.5,1.5,0,0,0,3,0l0-8.9a1.5,1.5,0,0,0-3,0Z"/><path d="M37.37,113.12,43,122.5A1.5,1.5,0,0,0,45.57,121L40,111.61a1.5,1.5,0,0,0-2.59,1.51Z"/><path d="M36.12,130.36l4.59,7.55c1,1.65,3.6.14,2.59-1.51l-4.59-7.55c-1-1.65-3.6-.14-2.59,1.51Z"/><path d="M48.55,133.8a14.61,14.61,0,0,0,6.73,7.51c1.7.9,3.22-1.69,1.51-2.59A11.46,11.46,0,0,1,51.44,133c-.73-1.76-3.63-1-2.89.8Z"/><path d="M64.56,53.26A14.18,14.18,0,0,0,55.72,61c-.78,1.75,1.8,3.28,2.59,1.52a11.33,11.33,0,0,1,7-6.36c1.84-.57,1.06-3.47-.79-2.89Z"/><path d="M53.83,68a22.91,22.91,0,0,0-4.48,11.06c-.25,1.9,2.75,1.88,3,0a20.06,20.06,0,0,1,4.07-9.54C57.6,68,55,66.5,53.83,68Z"/><path d="M46.52,88,47,96.41c.11,1.92,3.11,1.93,3,0L49.52,88c-.1-1.93-3.11-1.94-3,0Z"/><path d="M51.48,110.74l2.82,5.62c.86,1.73,3.45.21,2.59-1.51l-2.81-5.62c-.87-1.73-3.46-.21-2.6,1.51Z"/><path d="M59.92,130a21.74,21.74,0,0,0,7.09,8.5c1.57,1.13,3.07-1.47,1.52-2.59a18.79,18.79,0,0,1-6-7.43c-.81-1.75-3.4-.22-2.59,1.52Z"/><path d="M73.74,139.61l8,6.56c1.48,1.22,3.62-.89,2.13-2.12l-8-6.56c-1.48-1.22-3.61.89-2.12,2.12Z"/><path d="M87.79,150.86a19.53,19.53,0,0,0,9.09,4.6c1.88.39,2.69-2.5.8-2.89a16.55,16.55,0,0,1-7.77-3.83c-1.44-1.27-3.57.84-2.12,2.12Z"/><path d="M68.2,57.13,64.92,69.3a1.5,1.5,0,0,0,2.89.8l3.28-12.18a1.5,1.5,0,0,0-2.89-.79Z"/><path d="M63.52,76.33,61.66,87.58c-.32,1.88,2.57,2.7,2.89.79l1.87-11.24c.31-1.89-2.58-2.7-2.9-.8Z"/><path d="M63.51,102l1.41,7c.38,1.89,3.27,1.09,2.89-.8l-1.4-7c-.38-1.9-3.28-1.09-2.9.79Z"/><path d="M68.75,117.81l5.11,8.46a1.5,1.5,0,0,0,2.59-1.52l-5.11-8.45a1.5,1.5,0,0,0-2.59,1.51Z"/><path d="M82.63,132.13l7,7A1.5,1.5,0,0,0,91.78,137l-7-7a1.51,1.51,0,0,0-2.13,2.13Z"/><path d="M99.87,144l8,5.62c1.58,1.11,3.08-1.49,1.51-2.59l-8-5.62c-1.58-1.11-3.08,1.49-1.51,2.59Z"/><path d="M77.65,39.66a12.72,12.72,0,0,1,4.93-6.6c1.58-1.09.08-3.69-1.52-2.59a16.23,16.23,0,0,0-6.31,8.39c-.6,1.84,2.3,2.62,2.9.8Z"/><path d="M93.06,29.05l13.12-.47c1.92-.07,1.93-3.07,0-3l-13.12.47c-1.92.06-1.93,3.07,0,3Z"/><path d="M75.7,52.37a5.43,5.43,0,0,1,2.69-4.27,1.5,1.5,0,0,0-1.51-2.59,8.57,8.57,0,0,0-4.18,6.86c-.14,1.92,2.87,1.91,3,0Z"/><path d="M87.77,45.57l10.79-2.74c1.87-.48,1.08-3.37-.8-2.9L87,42.68c-1.87.48-1.08,3.37.8,2.89Z"/><path d="M112.74,39.79l11.7-.48c1.93-.08,1.94-3.08,0-3l-11.7.48c-1.93.08-1.94,3.08,0,3Z"/><path d="M114.61,30.92h10.77a1.5,1.5,0,0,0,0-3H114.61a1.5,1.5,0,0,0,0,3Z"/><path d="M75.73,63.53,79,73.37c.61,1.82,3.51,1,2.9-.8l-3.28-9.84c-.61-1.82-3.51-1-2.9.8Z"/><path d="M73.58,80.41l1.17,7.49c.3,1.9,3.19,1.1,2.9-.8l-1.17-7.49c-.3-1.9-3.19-1.09-2.9.8Z"/><path d="M79.56,104.9l3,6.33c.83,1.74,3.42.22,2.59-1.52l-3-6.32c-.83-1.74-3.42-.22-2.59,1.51Z"/><path d="M89.86,120.22l6.78,6.8a1.51,1.51,0,0,0,2.13-2.13L92,118.1a1.5,1.5,0,0,0-2.12,2.12Z"/><path d="M110.79,136.38l5.85,3.28c1.69.94,3.2-1.65,1.52-2.59l-5.86-3.28c-1.69-.94-3.2,1.65-1.51,2.59Z"/><path d="M85.19,83.36l5.35,8.22c1,1.61,3.65.11,2.59-1.52l-5.35-8.22c-1-1.61-3.65-.11-2.59,1.52Z"/><path d="M95.52,101.84l4.21,6.56c1,1.62,3.64.12,2.59-1.51l-4.21-6.56c-1-1.62-3.64-.12-2.59,1.51Z"/><path d="M111.69,120.64l4.92,5.61c1.28,1.46,3.39-.67,2.12-2.12l-4.92-5.61c-1.28-1.46-3.39.67-2.12,2.12Z"/><path d="M126.9,134.23l3,3.05a1.5,1.5,0,0,0,2.13-2.12l-3-3a1.5,1.5,0,0,0-2.12,2.12Z"/><path d="M88.32,59.05l4.22,3.05a1.5,1.5,0,0,0,1.51-2.59l-4.21-3a1.5,1.5,0,0,0-1.52,2.59Z"/><path d="M102.76,68.83l3.55,5.84a1.5,1.5,0,0,0,2.59-1.52l-3.55-5.83c-1-1.65-3.6-.14-2.59,1.51Z"/><path d="M111.91,85A38.66,38.66,0,0,1,116,93.52c.61,1.83,3.51,1,2.9-.8a42.77,42.77,0,0,0-4.37-9.25c-1-1.63-3.63-.13-2.59,1.51Z"/><path d="M121.29,102.54l4,7.73c.88,1.71,3.47.2,2.59-1.52l-4-7.73c-.88-1.71-3.47-.2-2.59,1.52Z"/><path d="M132.51,119.41l3,6.6c.79,1.75,3.37.23,2.59-1.52l-3-6.59c-.79-1.76-3.38-.23-2.59,1.51Z"/><path d="M109.87,58.82l4,3a1.52,1.52,0,0,0,2.06-.53,1.55,1.55,0,0,0-.54-2.06l-4-3a1.52,1.52,0,0,0-2.06.54,1.54,1.54,0,0,0,.54,2Z"/><path d="M124.34,74l4.71,9.83c.83,1.74,3.42.22,2.59-1.51l-4.71-9.83c-.83-1.74-3.42-.22-2.59,1.51Z"/><path d="M135.83,96.82l2.53,6.11a1.55,1.55,0,0,0,1.84,1,1.51,1.51,0,0,0,1.05-1.85L138.73,96a1.55,1.55,0,0,0-1.85-1,1.5,1.5,0,0,0-1,1.84Z"/><path d="M142.44,114.37l1.4,5.85c.45,1.88,3.35,1.08,2.9-.8l-1.41-5.85c-.45-1.88-3.34-1.08-2.89.8Z"/><path d="M102.83,49.59a27.27,27.27,0,0,1,9.74.47c1.88.43,2.69-2.46.8-2.89A31.34,31.34,0,0,0,102,46.7c-1.9.26-1.09,3.15.8,2.89Z"/><path d="M122.9,49.32l5.86,2.31c1.8.71,2.58-2.19.8-2.89l-5.87-2.32c-1.79-.7-2.57,2.2-.79,2.9Z"/><path d="M135.32,63.05a16,16,0,0,1,4.36,6.57c.62,1.81,3.52,1,2.89-.8a19.13,19.13,0,0,0-5.13-7.9c-1.42-1.3-3.54.81-2.12,2.13Z"/><path d="M145,83l1.4,4.22c.61,1.82,3.51,1,2.89-.8l-1.4-4.21c-.61-1.83-3.51-1-2.89.79Z"/><path d="M150.93,102.65l1.41,8.66c.3,1.9,3.2,1.1,2.89-.8l-1.41-8.66c-.31-1.9-3.2-1.09-2.89.8Z"/><path d="M153.36,126.09l-1.64,3.75a1.56,1.56,0,0,0,.54,2,1.52,1.52,0,0,0,2.06-.54l1.63-3.74a1.56,1.56,0,0,0-.53-2.06,1.53,1.53,0,0,0-2.06.54Z"/><path d="M132.48,41.4A6.24,6.24,0,0,1,137,44.7c.91,1.71,3.5.19,2.59-1.51a9.14,9.14,0,0,0-6.27-4.69c-1.89-.37-2.69,2.52-.8,2.9Z"/><path d="M144,51.72a41.48,41.48,0,0,1,4.06,7.61c.71,1.77,3.61,1,2.89-.8a44.25,44.25,0,0,0-4.36-8.32c-1.08-1.59-3.68-.09-2.59,1.51Z"/><path d="M151.36,70.1,153,77.59c.42,1.89,3.31,1.09,2.9-.8l-1.65-7.49c-.42-1.88-3.31-1.09-2.89.8Z"/></svg>