<svg xmlns="http://www.w3.org/2000/svg" viewBox="0 0 180 188"><defs><style>.a{fill:#00b997;}.b{fill:#66bd8d;}</style></defs><title>bush-deco</title><path class="a" d="M35.34,185.14c.42-21.87,45.16-112.57,65.13-126.57,0,0-6.93.46-10.51,4.88S38.69,149,32.39,183.09Z"/><path d="M36.84,185.14c.21-6.62,2.68-13.3,4.85-19.48,3.38-9.65,7.41-19.07,11.67-28.36C62.5,117.38,72.7,97.68,84.87,79.42c4.57-6.85,9.56-14.66,16.35-19.55,1.08-.78.88-2.93-.75-2.8-6.46.54-10.79,3.82-14.06,9.05-4.18,6.67-8.08,13.52-12,20.37-11.83,21-23.16,42.32-32.67,64.43-4.4,10.23-8.74,20.78-10.85,31.77a1.58,1.58,0,0,0,.69,1.69l3,2.05c1.59,1.1,3.09-1.5,1.51-2.59l-3-2.05.69,1.7c3.89-20.34,14.08-39.84,23.28-58.18,9-18,18.64-35.65,29-52.89,3.65-6.09,6.35-11.68,14.39-12.35l-.76-2.79c-5.64,4.06-9.94,9.94-13.93,15.54a293.64,293.64,0,0,0-17,27.45c-11,19.75-21.06,40.3-28.87,61.54-2.71,7.37-5.79,15.37-6,23.33C33.78,187.07,36.78,187.06,36.84,185.14Z"/><path class="b" d="M83.87,80a42.83,42.83,0,0,0-45.19-27.2,19,19,0,0,0-8.61,2.84c-2.51,1.75-4.36,4.67-4.15,7.71.29,4.4,4.51,7.46,8.61,9.06,15.31,6,34,.7,48,9.37"/><path d="M86.76,79.19C82,67.44,73.28,58,61.5,53c-10-4.17-27.76-6.92-35.79,2.57-9.15,10.82,4.79,19.44,14.1,21.48,13.61,3,28.7,0,41.16,7.27,3.35,2,6.37-3.23,3-5.18C75.84,74.42,66.66,73.52,57.4,73a109.14,109.14,0,0,1-15.21-1.51C38,70.62,30.07,68.9,29,63.82c-1.52-7.29,10.09-8.33,14.67-8.34A39.8,39.8,0,0,1,81,80.79c1.43,3.53,7.24,2,5.79-1.6Z"/><path class="b" d="M89.84,71.38a42.85,42.85,0,0,0-29.6-43.64,19,19,0,0,0-9-1c-3,.53-5.92,2.4-7,5.25-1.57,4.12,1,8.67,4,11.84C59.64,55.63,78.81,58.7,87.84,72.43"/><path d="M92.84,71.38A46.37,46.37,0,0,0,77.36,34.11c-7.68-6.67-23.59-15.78-33-7.36-9.93,8.88,2.19,20.62,9.76,25.69,10.4,7,23.71,10.8,31.12,21.5,2.19,3.15,7.39.16,5.18-3-4.92-7.1-11.89-11.69-19.37-15.76-7.76-4.22-18.32-8.43-23-16.43-1.84-3.17-1.67-6.6,1.83-8.42,3.11-1.62,7.16-.48,10.27.59a39.78,39.78,0,0,1,14.11,8.52,40.64,40.64,0,0,1,12.55,32c-.18,3.86,5.82,3.86,6,0Z"/><path class="b" d="M94,64.47a42.81,42.81,0,0,0,.19-52.74A19,19,0,0,0,87.36,5.8a9.09,9.09,0,0,0-8.75.38c-3.62,2.51-4.09,7.7-3.36,12C78,34.43,92.07,47.78,91.78,64.2"/><path d="M96.61,66a46.41,46.41,0,0,0,8.33-38.59C102.54,17.35,94.69.88,82.13,2,69.06,3.06,71.55,19.21,74.82,27.61c4.71,12.12,13.85,23.1,14,36.59,0,3.86,6,3.87,6,0-.07-8.88-3.54-16.82-7.54-24.58-3.86-7.5-11.75-19.06-8.87-27.94s11.89-.46,14.72,3.6a40.18,40.18,0,0,1,6.42,15.35c2.18,11.55-1.07,23-8.08,32.33C89.11,66,94.31,69,96.61,66Z"/><path d="M84.7,79.94A57.56,57.56,0,0,0,48.56,65.42c-1.93-.08-1.93,2.92,0,3a54.23,54.23,0,0,1,34,13.64c1.44,1.27,3.57-.84,2.12-2.12Z"/><path d="M89.51,71.6A62.5,62.5,0,0,0,58.26,37.14c-1.73-.84-3.26,1.74-1.52,2.59A59.51,59.51,0,0,1,86.62,72.4c.67,1.79,3.57,1,2.89-.8Z"/><path d="M95,64.71a86.39,86.39,0,0,0-.73-45.93c-.54-1.85-3.44-1.06-2.89.8a83.09,83.09,0,0,1,.72,44.33c-.48,1.87,2.42,2.67,2.9.8Z"/><path class="b" d="M81.65,78.35a42.82,42.82,0,0,1,39.22,35.25,18.79,18.79,0,0,1-.2,9.07,9.06,9.06,0,0,1-6.15,6.23c-4.29,1-8.45-2.14-11.18-5.6-10.18-12.89-10.62-32.3-23-43.11"/><path d="M81.65,81.35a39.8,39.8,0,0,1,35.66,30c1.23,4.77,1.69,18.29-7.14,14-8.39-4.1-11.61-17.12-14.61-25.11C92.49,92,89,84.06,82.47,78.07c-2.84-2.61-7.1,1.62-4.25,4.24,9.76,9,11.87,22.63,17.41,34.11,4.05,8.37,15,22.4,24.84,12.3,9-9.29,1.21-26.68-5.21-35.22-8.08-10.75-20.32-17-33.61-18.15-3.85-.34-3.82,5.66,0,6Z"/><path class="b" d="M88.13,70.12a42.8,42.8,0,0,1,50.39,15.55A18.82,18.82,0,0,1,142.14,94a9,9,0,0,1-3,8.23c-3.48,2.71-8.57,1.61-12.5-.38C112,94.39,103.48,77,87.72,72.33"/><path d="M88.93,73c11.59-4.14,24.24-3.41,34.89,3a39.36,39.36,0,0,1,12.11,11.19c3.43,4.95,5.43,15.58-4.25,13.34-8.82-2-15.78-10.54-21.94-16.62S97,72.14,88.51,69.44c-3.68-1.18-5.26,4.61-1.59,5.79,12.42,4,20,15.48,29.68,23.41,7,5.76,21.76,14,27.46,2,5.21-11-7.07-23.05-15.21-28.58-12.19-8.27-27.76-9.76-41.52-4.85-3.61,1.29-2,7.09,1.6,5.79Z"/><path class="b" d="M93.52,64.1a42.82,42.82,0,0,1,50.37-15.61,19,19,0,0,1,7.69,4.82c2,2.3,3.11,5.57,2.19,8.48-1.34,4.2-6.17,6.16-10.54,6.73-16.29,2.13-33.18-7.44-48.8-2.36"/><path d="M96.11,65.61A39.85,39.85,0,0,1,138.87,50c4.4,1.16,15.68,5.35,11.37,11.89-2.68,4.06-9.24,4-13.55,3.88A102.2,102.2,0,0,1,121,63.64c-9.14-1.68-18.29-3-27.39-.37-3.7,1.08-2.12,6.88,1.6,5.78,13.8-4,27.6,2.36,41.46,2.76,9.5.28,25-4.3,19.3-17.08-5-11.27-22.92-13-33.44-11.57-12.93,1.72-24,8.94-31.62,19.42-2.27,3.14,2.93,6.13,5.18,3Z"/><path d="M80,80.16a54.22,54.22,0,0,1,23,28.53c.63,1.81,3.53,1,2.89-.8A57.45,57.45,0,0,0,81.51,77.57c-1.66-1-3.16,1.58-1.52,2.59Z"/><path d="M88.06,73.5a59.56,59.56,0,0,1,40,19c1.32,1.42,3.44-.71,2.12-2.12A62.64,62.64,0,0,0,88.06,70.5c-1.92-.13-1.92,2.88,0,3Z"/><path d="M94.57,65.8a83,83,0,0,1,42.61-12.3,1.5,1.5,0,0,0,0-3A86.08,86.08,0,0,0,93.06,63.21c-1.65,1-.14,3.6,1.51,2.59Z"/></svg>