<svg xmlns="http://www.w3.org/2000/svg" viewBox="0 0 391 282"><defs><style>.a{fill:#fff;}.b{font-size:30px;font-family:"PingFang TC", "HeiTi TC", "Microsoft JhengHei", sans-serif;}</style></defs><title>bubble</title><path class="a" d="M111.08,278.78c14-6.09,41.84-30.45,52.38-39.11,0,0,163-.66,193.91-36.09s41.27-90.21,17.82-131c-23-40-71.21-58.26-116.86-65.16A383.59,383.59,0,0,0,98.11,17.38C67.38,26,36,39.85,18.16,66.32,2.28,89.87-.41,120.72,6.77,148.19c12.84,49.1,58.61,88.56,109.29,91.11Z"/><path d="M112.6,281.37c14.91-6.71,28-18.75,40.44-29.1q3.93-3.27,7.84-6.56c.85-.72,3-1.9,3.51-2.93.81-1.62-1-.09-.74-.11,1.45-.09,2.92,0,4.37,0q30.24-.48,60.43-2.87c27.91-2.18,56.07-5.27,83.31-11.92,11.49-2.81,23.07-6.26,33.6-11.73,11.16-5.81,18.55-14.77,25.3-25.3C391.6,158.18,398.12,114.9,381.82,79,365.43,42.87,328.64,22.1,292,11.63,246.9-1.24,197.75-2.56,151.5,3.47c-23.63,3.08-47.25,8.06-69.79,15.89C62.57,26,43.81,35.15,28.91,49.15-2,78.2-6.89,125.11,8.64,163.27c14.15,34.8,44,63,80,74.15a114.06,114.06,0,0,0,27.42,4.88l-3-3-5,39.48c-.48,3.82,5.53,3.79,6,0l5-39.48c.21-1.68-1.55-2.92-3-3C78.42,234.14,43.89,211.65,24,180.06,2.62,146.25-2,98.85,22.52,65.31c24.89-34,71.94-45.93,111.2-53,45.83-8.3,94.23-8.64,139.9,1,36.41,7.7,74.7,23.65,95.9,55.88,21.7,33,19.08,76.36.87,110.26-6.16,11.47-13.69,23.27-25.2,29.94-9.36,5.42-19.9,8.74-30.31,11.49-25.84,6.84-52.65,10-79.23,12.31q-31.18,2.7-62.51,3.37c-3.09.07-7.46-.7-10.48.26-2.16.68-4.32,3.25-6,4.69-2.94,2.45-5.86,4.91-8.81,7.36-6.69,5.54-13.44,11-20.44,16.18-5.63,4.14-11.43,8.31-17.82,11.18C106.06,277.77,109.1,283,112.6,281.37Z"/><text class="b" transform="translate(79.52 91.21)">只要每連署多1個人<tspan x="-23.88" y="42">我就能讓跑道變乾淨！</tspan><tspan x="-23.88" y="84">跟我一起減塑路跑吧！</tspan></text></svg>
