<svg xmlns="http://www.w3.org/2000/svg" viewBox="0 0 460 198"><defs><style>.a{fill:#fff;}.b{fill:#ffbc18;}.c{fill:#f15a24;}.d,.e{isolation:isolate;}.e{font-size:26px;fill:#00b997;font-family:MicrosoftJhengHeiBold, Microsoft JhengHei;font-weight:700;}</style></defs><title>form-head</title><path class="a" d="M64,148.76c9.69,3.32,11.89,19.16,10.92,27.84-1.35,12.08-17.09,20.16-28.13,13.9-5.46-3.1-5.51-12.09-5.43-17.81.06-3.79.8-15,5.41-16.23C46.73,156.46,55.14,145.73,64,148.76Z"/><path d="M63.56,150.2c9.13,3.65,11,17.79,9.8,26.32C71.85,187.35,57.23,195.4,47.5,189.2c-6.9-4.4-5.45-19.88-3.33-26.77.89-2.86,2.94-4.37,4.94-6.41,3.82-3.88,8.75-7.37,14.45-5.82a1.5,1.5,0,0,0,.8-2.89c-8.17-2.22-14.22,3.68-19.72,8.56C38.84,161,39.28,173,40.06,180c.48,4.28,1.68,8.9,5.45,11.45s9,3.16,13.53,2.34c9.58-1.73,17-9.41,17.5-19.17S74.6,151.4,64.36,147.31C62.57,146.59,61.79,149.49,63.56,150.2Z"/><path class="b" d="M56.52,165.19a99.88,99.88,0,0,0-3.15,11.38,5.52,5.52,0,0,0,.07,3.5c.73,1.51,2.58,2,4.21,2.4,1.8.41,3.89.76,5.34-.38s1.59-2.86,1.49-4.51c-.32-5-3.25-9.33-6.08-13.42C58.4,164.16,57.23,163.09,56.52,165.19Z"/><path d="M55.08,164.8a94.81,94.81,0,0,0-3,10.73c-.45,2.16-.84,4.44.76,6.24,2.53,2.87,9.52,3.9,12,.53,3.1-4.21-.11-10.92-2.37-14.71-1.52-2.53-4.71-8.12-7.23-3.15-.87,1.72,1.71,3.24,2.59,1.51h0l.7,1c.67,1.07,1.38,2.11,2,3.21a21.89,21.89,0,0,1,1.85,4.17c.8,2.67,1.16,3.76-.91,5.6-2.41,2.14-4,1.47-5.5-1.09-1.31-2.24-1-2.75-.38-5.1.69-2.76,1.52-5.48,2.41-8.18C58.58,163.76,55.68,163,55.08,164.8Z"/><path class="c" d="M29.67,113.66c-8.62-.14-17.41,4-22.13,11.16s-4.77,17.44.58,24.2,16,8.94,23.16,4.14c-4.13-3.39-10.88,1.91-10.17,7.21s6,8.84,11.27,9.94C45.47,173.08,59.84,163.22,62,150c-1.06,7.3,8.48,12.47,15.46,10.08s11.34-9.22,14.75-15.76c4.29-8.26,8-17.6,6-26.67s-12.64-16.53-20.9-12.25c4.15,1.92,9-3.24,7.85-7.67s-6.35-6.84-10.89-6.28-8.48,3.36-11.91,6.39c3.9-5.38.26-13.63-5.73-16.48S43.45,79.73,37.2,82c-5.12,1.82-10.14,4.37-13.72,8.46s-5.47,10-3.76,15.11,7.62,8.89,12.78,7.2"/><path d="M29.67,112.16c-14.77.17-28.68,11.3-27,27.07,1.52,14,17,22.7,29.34,15.23a1.53,1.53,0,0,0,.49-2.11,1.44,1.44,0,0,0-.49-.49c-5-3.17-11.3.79-12.31,6.29-1.22,6.63,5.3,11.65,10.94,13.28,14.42,4.18,30-6.76,32.75-21l-3-.4c-.56,7.78,7.52,12.87,14.69,12.09C85,161,90.79,150.64,94.66,142.73c4.51-9.23,8.5-21.16,2.72-30.77-4.32-7.18-12.92-11.4-20.88-7.86-1.25.56-.76,2.39.36,2.74,7.46,2.32,12.62-7.13,7.93-12.85-6.66-8.1-17.29-2.59-23.54,2.79l2.36,1.81c3.73-6,1-13.76-4.67-17.57-8-5.35-19.08-2.28-27,1.5-7.76,3.69-15,10.87-14.27,20.14.62,7.65,7.72,13.32,15.27,11.52,1.88-.45,1.08-3.34-.8-2.89-8.34,2-13.06-6.94-10.83-14C23.4,90.52,29.81,86.42,36.06,84c5.57-2.18,11.92-3.76,17.82-2,6.19,1.82,10.86,9.12,7.14,15.13-.94,1.52,1.11,2.89,2.35,1.82,3.67-3.15,8-6.43,13.16-5.92a8.68,8.68,0,0,1,5.76,2.66c3,3.4.45,9.89-4.63,8.31l.36,2.74c7.59-3.38,16,2.82,18.3,10.08,2.63,8.18-.67,17.12-4.25,24.45-3,6.07-6.56,13-12.74,16.39-6,3.27-16.46.69-15.86-7.6.12-1.67-2.62-2.06-2.94-.4a24.54,24.54,0,0,1-18.06,19,20.13,20.13,0,0,1-13.36-.94c-2.63-1.22-5.52-3.38-6.28-6.36-1-4.1,3.33-9.58,7.69-6.8v-2.6c-11.59,7-25.21-2.6-24.95-15.49s12-21.07,24.1-21.21a1.5,1.5,0,0,0,0-3Z"/><path d="M42.39,118.69A16.5,16.5,0,0,0,33.7,116a1.5,1.5,0,0,0,0,3,13.5,13.5,0,0,1,7.17,2.31c1.62,1.07,3.12-1.52,1.52-2.59Z"/><path d="M41,121.8a13,13,0,0,0-8.41,1.13c-1.73.85-.21,3.44,1.51,2.59a9.53,9.53,0,0,1,6.1-.82C42.09,125.06,42.9,122.17,41,121.8Z"/><path d="M73.85,136.3l6.28-3.52a1.5,1.5,0,0,0-1.52-2.59h0l-6.27,3.52a1.5,1.5,0,0,0,1.51,2.59Z"/><path d="M76,140.38a18,18,0,0,1,7.44-.73c1.92.19,1.91-2.81,0-3a20.48,20.48,0,0,0-8.23.83C73.37,138.06,74.15,141,76,140.38Z"/><path d="M37.74,154.92l-4.31,3.92c-1.44,1.3.69,3.42,2.12,2.12l4.31-4c1.43-1.3-.7-3.42-2.12-2.12Z"/><path d="M42.06,156.56l-1.38,3.53a1.51,1.51,0,0,0,1,1.84,1.54,1.54,0,0,0,1.85-1L45,157.36a1.5,1.5,0,0,0-2.87-.89s0,.06,0,.09Z"/><path d="M48.67,155.2a11.54,11.54,0,0,0,.83,5.69,1.55,1.55,0,0,0,1.85,1,1.51,1.51,0,0,0,1-1.84,9.64,9.64,0,0,1-.73-4.89,1.5,1.5,0,0,0-3,0Z"/><path d="M54.06,99.12A13.26,13.26,0,0,0,51.19,93c-1.23-1.49-3.34.64-2.13,2.12a10.18,10.18,0,0,1,2.11,4.78c.34,1.9,3.23,1.09,2.89-.8Z"/><path d="M50.73,99l-4.12-2a1.55,1.55,0,0,0-2,.54,1.51,1.51,0,0,0,.54,2l4.11,2A1.49,1.49,0,0,0,50.73,99Z"/><path d="M44.86,101l-7.25,1.35c-1.9.35-1.1,3.25.79,2.89l7.26-1.35C47.55,103.54,46.75,100.65,44.86,101Z"/><path d="M67.52,131.9a42.92,42.92,0,0,1,16.76-7.18c1.89-.37,1.09-3.26-.8-2.89A45,45,0,0,0,66,129.31C64.44,130.42,65.93,133,67.52,131.9Z"/><path d="M49,127.05a38.93,38.93,0,0,0-21.54,3.57c-1.75.82-.23,3.41,1.51,2.59a36.16,36.16,0,0,1,20-3.16c1.91.23,1.89-2.77,0-3Z"/><path d="M101,116.86c-2.39-8.47-9.26-14.79-18.09-15.69L85,106.29c5.11-5.68,3.43-13.37-3.53-16.59-7.8-3.62-15.46,1-21.33,6l4.71,3.63c4.17-6.72,1.16-15.4-5.2-19.63-8.48-5.64-20.1-2.51-28.56,1.51-8.28,3.93-15.68,11.64-15,21.43A14.12,14.12,0,0,0,31,116a14.68,14.68,0,0,0,2.29-.32l-1.6-5.79c-5.83,1.92-11.72,1.56-17.34,4.72A25.9,25.9,0,0,0,2,129.89C-2,144.22,7.34,158,22.28,158.74l-2.6-4.52c-2.87,5.57-1.24,11.13,3.55,15.05,5.39,4.4,12.36,5,19,3.95l-3.8-2.89c-.33,6.38-.58,14.29,3.44,19.68s12,6.43,18.18,5.12a23.54,23.54,0,0,0,15.64-11.36c3.84-7.12,2.67-16.42.63-23.9l-2.89,3.8c9.63-.27,16-8,20.29-15.86,5.27-9.53,9.42-19.93,7.31-30.95-.73-3.79-6.51-2.18-5.79,1.6,1.7,8.83-1.92,17.34-6,25-3.28,6.18-8,14-15.82,14.2a3,3,0,0,0-3,3,3.16,3.16,0,0,0,.11.81c3,11.11,2.15,24.13-10.88,27.59-4.71,1.25-11.46.87-13.8-4.11-2.05-4.35-1.66-9.92-1.42-14.62.11-2.13-2-3.18-3.8-2.89-4.9.77-20.33-1.34-15.75-10.19a3,3,0,0,0-2.59-4.51c-13.12-.63-19.09-15-12.52-25.8a21.92,21.92,0,0,1,12.88-9.35c3.57-1,7.13-.81,10.66-2s2.18-6.69-1.6-5.79c-7.23,1.72-10.87-6.24-9-12.18,2-6.21,8-10,13.74-12.24,5.29-2.08,11.41-3.71,17-2,5.27,1.59,9.45,7.75,6.24,12.93-1.88,3,2.23,5.77,4.71,3.64,2.88-2.47,6.17-5,10.07-5.47s10.64,2.74,6.3,7.56a3,3,0,0,0,2.13,5.12c6.11.62,10.7,5.6,12.3,11.29C96.28,122.17,102.07,120.59,101,116.86Z"/><path d="M149.47,131.85c-3.69,5.67-6.38,11.9-10.07,17.57-1.56,2.38,1,4.83,3.39,4.4,8-1.43,16.36-3.13,24-6,1.75-.67,1.4-.81,3.69-.32q9.28,2,18.6,3.81c21.75,4.32,43.59,8.33,65.56,11.4a365,365,0,0,0,78.45,2.8c30.62-2.3,63.29-7.83,90.88-21.94,11.27-5.76,22-13.76,28.52-24.82,6.76-11.46,7.94-25.11,4.55-37.86-7.77-29.21-35-46.1-61.09-57.22C338.58-.84,273-3.82,213.06,12.68,185,20.39,154.42,31.76,136.28,55.79c-15.75,20.86-19.35,51.32.33,71.09a41.32,41.32,0,0,0,14.65,9.38c3.61,1.38,5.17-4.42,1.6-5.79-11.94-4.58-20-15.67-22.91-27.89-3.13-13.31.73-27.19,7.88-38.54,15.71-24.92,45.6-36.49,72.64-44.39C267,3.16,328.76,4.42,384,25.22c25.58,9.65,54.8,24,65.32,51.17,5.07,13.08,5.12,27.71-2.34,39.88-6.58,10.75-17.49,18-28.66,23.39-26.94,12.88-58.43,18-88,20a358,358,0,0,1-73.45-2.7c-20.35-2.82-40.58-6.48-60.74-10.41q-10.38-2-20.74-4.19c-1.67-.35-3.34-.78-5-1.06-2.51-.42-4.44.46-6.91,1.25A169.27,169.27,0,0,1,141.19,148l3.39,4.41c3.69-5.67,6.38-11.91,10.07-17.57,2.11-3.25-3.08-6.26-5.18-3Z"/><g class="d"><text class="e" transform="translate(199.75 81.3)">我支持六都政府</text><text class="e" transform="translate(212.75 117.3)">舉辦無塑賽事</text></g></svg>