<svg xmlns="http://www.w3.org/2000/svg" viewBox="0 0 190 182"><defs><style>.a{fill:#fff;}.b{fill:#ffbc18;}.c{fill:#f88334;}</style></defs><title>pencil</title><path d="M5.06,176.47l25.86.56L7.49,152.45A191.43,191.43,0,0,1,5.06,176.47Z"/><path d="M5.06,178l25.86.56A1.52,1.52,0,0,0,32,176L8.55,151.39A1.52,1.52,0,0,0,6,152.45a205.38,205.38,0,0,1-2.38,23.62c-.3,1.89,2.59,2.7,2.9.8A212.63,212.63,0,0,0,9,152.45l-2.57,1.06,23.44,24.58,1.06-2.56L5.06,175C3.13,174.93,3.13,177.93,5.06,178Z"/><path class="a" d="M4.86,106.56l-.93.81a192.66,192.66,0,0,1,3.56,45.08L30.92,177l41,.88C51.5,156.43,25.59,128.39,4.86,106.56Z"/><path d="M3.8,105.5c-2.76,2.4-.49,6.5,0,9.71,1,6.08,1.62,12.22,2,18.37.33,5.66.36,11.32.26,17-.08,4.4,4.38,7.14,7.27,10.17Q19.17,166.89,25,173c1.36,1.42,3.3,4.39,5.13,5.29,1.49.75,4,.28,5.64.31l36.14.78A1.52,1.52,0,0,0,73,176.85C50.51,153.19,28.4,129.18,5.92,105.5c-1.33-1.4-3.45.72-2.12,2.12C26.28,131.3,48.39,155.31,70.88,179L72,176.41l-29.31-.63c-2.55-.06-5.28.15-7.81-.17-3.45-.43-4.62-1.5-7-4L17.51,160.79c-3.56-3.73-8-6.83-8.42-12.11-.39-4.66,0-9.47-.25-14.16s-.68-9.42-1.28-14.1c-.25-2-.54-4-.85-6-.18-1.11-1.75-6-.79-6.79C7.38,106.35,5.25,104.23,3.8,105.5Z"/><path class="b" d="M125.49,4.09C84.72,39.81,45.61,70.91,4.86,106.56c8.12,8.55,17,18,26.11,27.74Q87.33,78.89,147.45,27.49Z"/><path d="M124.43,3C84.73,37.78,43.53,70.78,3.8,105.5a1.53,1.53,0,0,0,0,2.12q13.11,13.81,26.11,27.74a1.52,1.52,0,0,0,2.12,0Q88.42,80,148.51,28.55a1.52,1.52,0,0,0,0-2.12L126.56,3c-1.33-1.41-3.45.71-2.13,2.12l22,23.4V26.43Q86.33,77.82,29.91,133.24H32Q19,119.34,5.92,105.5v2.12C45.65,72.9,86.85,39.9,126.56,5.15,128,3.88,125.88,1.76,124.43,3Z"/><path class="c" d="M147.45,27.49Q87.38,78.85,31,134.3L50.4,155.06,165.53,46.77Q156.49,37.14,147.45,27.49Z"/><path d="M146.39,26.43Q86.33,77.82,29.91,133.24a1.52,1.52,0,0,0,0,2.12q9.71,10.38,19.43,20.76a1.52,1.52,0,0,0,2.12,0L166.59,47.83a1.52,1.52,0,0,0,0-2.12q-9-9.63-18.08-19.28c-1.33-1.41-3.44.72-2.12,2.12q9,9.64,18.08,19.28V45.71L49.34,154h2.12L32,133.24v2.12Q88.42,80,148.51,28.55C150,27.3,147.85,25.18,146.39,26.43Z"/><path class="b" d="M72.08,177.91l114-109.24-20.54-21.9L50.4,155.06c7.52,8,14.83,15.79,21.55,22.85Z"/><path d="M73.14,179l114-109.24a1.52,1.52,0,0,0,0-2.12l-20.54-21.9a1.53,1.53,0,0,0-2.12,0L49.34,154a1.53,1.53,0,0,0,0,2.12q6.79,7.24,13.6,14.47l6.15,6.49c.86.91,1.62,2.3,3,2.33,1.93,0,1.93-3,0-3-.16,0-3.45-4.17-3.91-4.66q-2.82-3-5.64-6L51.46,154v2.12L166.59,47.83h-2.12L185,69.73V67.61L71,176.85C69.62,178.19,71.74,180.31,73.14,179Z"/><path d="M167.65,44.65,127.62,2a3.07,3.07,0,0,0-4.25,0C83.67,36.72,42.47,69.72,2.74,104.44a3,3,0,0,0,0,4.24c.82.86,1.64,1.71,2.91,1.71a3,3,0,0,0,2.12-5.12L7,104.44a3.07,3.07,0,0,0-4.25,0c-3.55,3.09-.68,9-.09,13a184,184,0,0,1,1.83,19.88,194.26,194.26,0,0,1-2.31,38.32,3.05,3.05,0,0,0,2.89,3.8l57.12,1.23c3.25.07,8.41,1.29,11.41-.2,3.4-1.68,6.55-6.16,9.27-8.76l20.92-20.05,84.41-80.9a3,3,0,0,0,0-4.24l-20.54-21.9c-2.64-2.82-6.88,1.43-4.24,4.24L184,70.79V66.55l-81.53,78.13L82.22,164c-3.33,3.19-6.54,6.74-10.1,9.68-.9.4-1,.8-.17,1.19L68,174.82l-6.84-.14L5.06,173.47,8,177.27a201.55,201.55,0,0,0-1.13-70.69l-.77,2.92.94-.82H2.74l.79.83,2.12-5.12,1.34,0v4.24C46.72,74,87.91,41,127.62,6.21h-4.25q20,21.35,40,42.68C166.06,51.72,170.3,47.47,167.65,44.65Z"/></svg>